<svg width="225px" height="315px" version="1.1" viewBox="0 0 225 315" xmlns="http://www.w3.org/2000/svg">
 <g>
  <path d="m11.719.46875h201.56c6.2148 0 11.25 5.0352 11.25 11.25v291.56c0 6.2148-5.0352 11.25-11.25 11.25h-201.56c-6.2148 0-11.25-5.0352-11.25-11.25v-291.56c0-6.2148 5.0352-11.25 11.25-11.25z" fill="#fff"/>
  <path d="m174.75 35.25c2.3945 14.148 1.8516 29.742 11.438 40.344-3.9922-.97656-7.9609-1.5117-11.883-1.1758l-24.203-39.168zm-79.5 58.68 60.703.01562c3.9297 6.207 8.7578 11.301 14.879 14.629l-82.949.0977c2.7891-5.2774 5.2305-10.191 7.3672-14.742zm-38.309 7.0313c2.0156 0 4.0273 2.5742 3.3477 7.7266-.92188-.83984-2.1133-1.3086-3.3477-1.3086-1.2305 0-2.4219.46484-3.3438 1.3086-.67969-5.1523 1.332-7.7266 3.3438-7.7266zm30.914 7.7148c1.1367 1.3242 2.1641 2.7812 3.0547 4.375 4.4414 7.9102 4.4961 17.168.92969 24.703 3.3086 5.5938 5.2148 12.141 5.2148 19.137 0 20.59-16.496 37.285-36.844 37.285-9.5586 0-18.266-3.6836-24.816-9.7266l.08203-.0625-.22266-.3125v-3.3164l44.691-34.184-9.5117-14.02-35.18 26.895v-3.8086l36.121-27.637 12.512 18.434.054688-.05859-1.2695-1.8789c8.8438-6.7734 11.473-19.574 5.668-29.922-.71875-1.2812-1.5312-2.4609-2.4258-3.543zm-25.332.31641c8.1719-.0625 7.5742 8.332-1.8047 7.0234.82031-.94922 1.2734-2.1758 1.2773-3.4414-.0039-1.2695-.45703-2.4922-1.2734-3.4414.64062-.0898 1.2422-.13281 1.8008-.14062zm-11.16 0c.5625.008 1.1602.0508 1.8047.14062-.82031.94922-1.2734 2.1719-1.2773 3.4414.0039 1.2656.45703 2.4922 1.2734 3.4414-9.375 1.3086-9.9727-7.0859-1.8008-7.0234zm89.645 3.2422c-.67188 19.781-18.004 23.934-19.5 37.93l-2.4297-.004c.89844-14.539 17.688-18.141 18.363-37.879zm-15.445.0469c-.48046 19.73-12.438 22.211-13.035 37.879l-2.9766-.004c.51953-15.645 10.855-17.574 11.262-37.875zm-14.262.0234c-.32813 15.688-6.8164 19.828-7.1055 37.82h-2.3789c.24219-17.992 5.6484-22.133 5.9219-37.82zm-68.32 1.1836c1.5508 4.7969 6.5508 9.1875 6.3828 13.418.51953-2.3164.95703-4.6445 1.6055-6.832l2.5781-.25c-.875 2.4453-1.3828 5.1172-1.9727 7.793l-2.6523 1.1523c-7.5586-2.3164-6.9453-8.6992-5.9414-15.281zm10.617 2.9688c.92188.84375 2.1133 1.3086 3.3438 1.3125 1.2344-.004 2.4258-.46875 3.3477-1.3086.54297 4.1055-.62891 6.5742-2.1484 7.4062l.20312-.0117c2.5938.25391 5.3398 1.5625 8.4062 1.25-2.0703 3.4531-8.0195 3.8398-15.453 3.0547 1.5391-2.5703 3.0742-3.7344 4.6523-4.1524l.07813-.004c-1.6523-.67188-3.0039-3.1836-2.4297-7.5469zm27.438 33.105-33.293 25.457c3.5156 2.4453 7.7539 3.875 12.469 3.875 12.48 0 21.988-9.7852 21.988-22.004 0-2.5898-.42578-5.0117-1.2188-7.2695zm30.828 3.6641 16.387.004c-.1914 1.6016-.29687 3.2266-.29687 4.8789 0 1.207.0586 2.3984.16797 3.6211l-16.207.0469-.004-.32812c.75.26172 1.8555-.008 1.8516-.82031.84375.86718 2.625-.96875 1.7852-1.832 1.1875 0 1.1875-2.5938 0-2.5938.83984-.86328-.94141-2.6992-1.7852-1.832.004-.82812-1.1484-1.0938-1.8945-.80468zm-38.645 2.3203c.04297.4336.06641.87891.06641 1.3438 0 7.1953-5.3047 12.836-13.074 12.836-1.6484 0-3.1602-.27344-4.5352-.76953z" fill="#ffcc42"/>
  <path d="m50.254 279.75c-2.3945-14.148-1.8516-29.742-11.438-40.344 3.9922.97656 7.9609 1.5117 11.883 1.1758l24.203 39.168zm79.5-58.68-60.703-.0156c-3.9297-6.207-8.7578-11.301-14.879-14.629l82.949-.0977c-2.7891 5.2774-5.2305 10.191-7.3672 14.742zm38.309-7.0312c-2.0156 0-4.0273-2.5742-3.3477-7.7266.92188.83984 2.1133 1.3086 3.3477 1.3086 1.2305 0 2.4219-.46484 3.3438-1.3086.67969 5.1523-1.332 7.7266-3.3438 7.7266zm-30.914-7.7148c-1.1367-1.3242-2.1641-2.7812-3.0547-4.375-4.4414-7.9102-4.4961-17.168-.92969-24.703-3.3086-5.5938-5.2148-12.141-5.2148-19.137 0-20.59 16.496-37.285 36.844-37.285 9.5586 0 18.266 3.6836 24.816 9.7266l-.082.0625.22266.3125v3.3164l-44.691 34.184 9.5117 14.02 35.18-26.895v3.8086l-36.121 27.637-12.512-18.434-.0547.0586 1.2695 1.8789c-8.8438 6.7734-11.473 19.574-5.668 29.922.71875 1.2812 1.5312 2.4609 2.4258 3.543zm25.332-.31641c-8.1719.0625-7.5742-8.332 1.8047-7.0234-.82032.94922-1.2734 2.1758-1.2774 3.4414.004 1.2695.45703 2.4922 1.2734 3.4414-.64063.0898-1.2422.13281-1.8008.14062zm11.16 0c-.5625-.008-1.1602-.0508-1.8047-.14062.82031-.94922 1.2734-2.1719 1.2773-3.4414-.004-1.2656-.45703-2.4922-1.2734-3.4414 9.375-1.3086 9.9727 7.0859 1.8008 7.0234zm-89.645-3.2422c.67188-19.781 18.004-23.934 19.5-37.93l2.4297.004c-.89844 14.539-17.687 18.141-18.363 37.879zm15.445-.0469c.48047-19.73 12.438-22.211 13.035-37.879l2.9766.004c-.51954 15.645-10.855 17.574-11.262 37.875zm14.262-.0234c.32812-15.688 6.8164-19.828 7.1055-37.82h2.3789c-.24219 17.992-5.6484 22.133-5.9219 37.82zm68.32-1.1836c-1.5508-4.7969-6.5508-9.1875-6.3828-13.418-.51953 2.3164-.95703 4.6445-1.6055 6.832l-2.5781.25c.875-2.4453 1.3828-5.1172 1.9727-7.793l2.6523-1.1523c7.5586 2.3164 6.9453 8.6992 5.9414 15.281zm-10.617-2.9688c-.92188-.84375-2.1133-1.3086-3.3438-1.3125-1.2344.004-2.4258.46875-3.3477 1.3086-.54297-4.1055.62891-6.5742 2.1484-7.4062l-.20312.0117c-2.5938-.25391-5.3398-1.5625-8.4062-1.25 2.0703-3.4531 8.0195-3.8398 15.453-3.0547-1.5391 2.5703-3.0742 3.7344-4.6523 4.1524l-.0781.004c1.6524.67188 3.0039 3.1836 2.4297 7.5469zm-27.438-33.105 33.293-25.457c-3.5156-2.4453-7.7539-3.875-12.469-3.875-12.48 0-21.988 9.7852-21.988 22.004 0 2.5898.42578 5.0117 1.2188 7.2695zm-30.828-3.6641-16.387-.004c.19141-1.6016.29688-3.2266.29688-4.8789 0-1.207-.05859-2.3984-.16797-3.6211l16.207-.0469.004.32812c-.75-.26172-1.8555.008-1.8516.82031-.84375-.86718-2.625.96875-1.7852 1.832-1.1875 0-1.1875 2.5938 0 2.5938-.83984.86329.94141 2.6992 1.7852 1.832-.004.82812 1.1484 1.0938 1.8945.80468zm38.645-2.3203c-.043-.43359-.0664-.8789-.0664-1.3438 0-7.1953 5.3047-12.836 13.074-12.836 1.6484 0 3.1602.27343 4.5352.76953z" fill="#ffcc42"/>
  <path d="m150.1 35.25 23.887 38.695-1.8594-3.0586c2.4766.33203 4.9375.86719 7.5234-.18359 1.3789 1.8398 3.2461 3.1758 5.043 4.5117-3.5391-.72266-6.9844-1.0859-10.395-.75781l-.0234-.03516c-2.0938.24219-4.1484.69531-6.168 1.4805l-25.137-40.652zm-36.699 0c-4.082 17.297-5.5117 31.543-18.168 58.68-2.1211 4.5508-4.5625 9.4648-7.3828 14.816l-1.9375 2.2891c-13.684-19.363 15.328-33.938 27.43-75.785zm45.453 6.7227c1.5703 1.2969 3.1484 1.3711 4.1562 1.2227-.625 1.0547-.76953 2.5273-.59375 4.2812-1.1602.99609-1.8672 2.3047-2.4688 3.6836l-4.9766-8.0391c1.4336-.09375 2.8125-.30078 3.8828-1.1484zm-101.91 69.074c.82422 0 1.4883.68359 1.4883 1.5273s-.66406 1.5273-1.4883 1.5273c-.82031 0-1.4844-.68359-1.4844-1.5273s.66406-1.5273 1.4844-1.5273zm84.047 1.2031 27.492.0234-4.7109 8.5781c-17.172.45703-31.422 12.84-34.969 29.27l-7.293.043c1.4961-13.996 18.828-18.148 19.48-37.914zm-50.57.004 17.34.0312c-.29297 15.707-5.6992 19.848-5.9453 37.859l-5.3164.008c-.85156-4.4766-2.4414-8.6641-4.6641-12.406 3.5742-7.5234 3.5234-16.781-.92188-24.695-.15234-.27734-.30859-.54687-.49219-.79687zm-4.4922 4.293 1.3867 3.0547h-8.8242l2.6914-3.0547zm2.2695 6.7226.25391 3.0586h-15.676l2.6055-3.0586zm-.08594 6.7227-.83984 3.0586h-12.352l-2.1445-3.0586zm-2.4766 6.7266-2.2695 3.0547h-4.0352l-2.1016-3.0547zm3.7383 14.996c.78125-.004 1.4297.60938 1.4922 1.4102.0625.83984-.54688 1.5742-1.3633 1.6406-.82031.0664-1.5352-.5625-1.5977-1.4023-.06641-.83984.54687-1.5781 1.3633-1.6445.03516 0 .07031-.004.10547-.004zm23.133 4.2577c.82031 0 1.4844.68359 1.4844 1.5273s-.66407 1.5273-1.4844 1.5273-1.4844-.68359-1.4844-1.5273.66406-1.5273 1.4844-1.5273zm-42.227 1.8281c-.40625 5.0742-4.2148 8.8672-10.066 8.8672-.49609 0-.97266-.0273-1.4336-.0859zm18.555 4.4453c.10156 0 .19922.008.29688.0234.80859.14844 1.3438.94531 1.1992 1.7734-.14453.83203-.91797 1.3828-1.7227 1.2344-.80859-.14843-1.3477-.9414-1.1992-1.7734.125-.71485.72266-1.2422 1.4258-1.2578zm-4.082 9.5586c.19922 0 .39453.043.57812.12109.75391.33203 1.1016 1.2305.78125 2.0078-.32422.77735-1.1953 1.1367-1.9531.80469-.75391-.33203-1.1016-1.2305-.77734-2.0078.23438-.5625.77344-.92969 1.3711-.92578zm-6.9141 7.3398c.40234.008.78125.18359 1.0547.48438.5625.61718.52734 1.5859-.07031 2.1602-.60156.57422-1.543.54297-2.1016-.0742-.55859-.62109-.52734-1.5859.07422-2.1602.28125-.27344.65625-.41797 1.043-.41016zm-29.969 3.168c.19531 0 .39453.0391.57812.11719.75391.32812 1.1094 1.2226.79297 2.0039-.31641.77735-1.1875 1.1406-1.9453.81641-.75781-.32813-1.1133-1.2227-.79297-2.0039.23047-.5625.76953-.93359 1.3672-.93359zm21.059 1.3711c.66797-.0117 1.2617.4336 1.4531 1.0898.23438.8125-.21484 1.6602-1 1.9023s-1.6133-.21875-1.8477-1.0273c-.23438-.8086.21484-1.6602 1-1.9024.12891-.0391.26172-.0586.39453-.0625zm-10.805 1.2891c.82031.0273 1.4648.73437 1.4375 1.5781-.02734.84375-.71484 1.5039-1.5352 1.4766-.82031-.0273-1.4609-.73437-1.4336-1.5781.02344-.84375.71094-1.5039 1.5312-1.4766z" fill="#f00"/>
  <path d="m74.902 279.75-23.887-38.695 1.8594 3.0586c-2.4766-.33203-4.9375-.86719-7.5234.18359-1.3789-1.8398-3.2461-3.1758-5.043-4.5117 3.5391.72265 6.9844 1.0859 10.395.75781l.02344.0352c2.0938-.24218 4.1484-.69531 6.168-1.4805l25.137 40.652zm36.699 0c4.082-17.297 5.5117-31.543 18.168-58.68 2.1211-4.5508 4.5625-9.4648 7.3828-14.816l1.9375-2.2891c13.684 19.363-15.328 33.938-27.43 75.785zm-45.453-6.7227c-1.5703-1.2969-3.1484-1.3711-4.1562-1.2226.625-1.0547.76953-2.5274.59375-4.2812 1.1602-.9961 1.8672-2.3047 2.4688-3.6836l4.9766 8.0391c-1.4336.0937-2.8125.30078-3.8828 1.1484zm101.91-69.074c-.82422 0-1.4883-.68359-1.4883-1.5273s.66406-1.5273 1.4883-1.5273c.82031 0 1.4844.68359 1.4844 1.5273s-.66406 1.5273-1.4844 1.5273zm-84.047-1.2031-27.492-.0234 4.7109-8.5781c17.172-.45703 31.422-12.84 34.969-29.27l7.293-.043c-1.4961 13.996-18.828 18.148-19.48 37.914zm50.57-.004-17.34-.0312c.29297-15.707 5.6992-19.848 5.9453-37.859l5.3164-.008c.85156 4.4766 2.4414 8.6641 4.6641 12.406-3.5742 7.5234-3.5234 16.781.92188 24.695.15234.27734.30859.54687.49219.79687zm4.4922-4.293-1.3867-3.0547h8.8242l-2.6914 3.0547zm-2.2695-6.7226-.2539-3.0586h15.676l-2.6055 3.0586zm.0859-6.7227.83984-3.0586h12.352l2.1445 3.0586zm2.4766-6.7266 2.2695-3.0547h4.0352l2.1016 3.0547zm-3.7383-14.996c-.78125.004-1.4297-.60938-1.4922-1.4102-.0625-.83984.54688-1.5742 1.3633-1.6406.82031-.0664 1.5352.5625 1.5976 1.4024.0664.83984-.54687 1.5781-1.3633 1.6445-.0352 0-.0703.004-.10547.004zm-23.133-4.2577c-.82031 0-1.4844-.68359-1.4844-1.5273s.66406-1.5273 1.4844-1.5273 1.4844.68359 1.4844 1.5273-.66407 1.5273-1.4844 1.5273zm42.227-1.8281c.40625-5.0742 4.2148-8.8672 10.066-8.8672.49609 0 .97265.0273 1.4336.0859zm-18.555-4.4453c-.10156 0-.19921-.008-.29687-.0234-.80859-.14844-1.3438-.94531-1.1992-1.7734.14453-.83203.91797-1.3828 1.7227-1.2344.80859.14843 1.3476.9414 1.1992 1.7734-.125.71485-.72266 1.2422-1.4258 1.2578zm4.082-9.5586c-.19922 0-.39454-.043-.57813-.12109-.75391-.33203-1.1016-1.2305-.78125-2.0078.32422-.77735 1.1953-1.1367 1.9531-.80469.7539.33203 1.1016 1.2305.77734 2.0078-.23438.5625-.77344.92969-1.3711.92578zm6.9141-7.3398c-.40235-.008-.78125-.1836-1.0547-.48438-.5625-.61718-.52734-1.5859.0703-2.1602.60157-.57422 1.543-.54297 2.1016.0742.55859.62109.52734 1.5859-.0742 2.1602-.28125.27344-.65625.41797-1.043.41016zm29.969-3.168c-.19531 0-.39453-.0391-.57813-.11719-.7539-.32812-1.1094-1.2226-.79297-2.0039.31641-.77735 1.1875-1.1406 1.9453-.81641.75781.32812 1.1133 1.2227.79297 2.0039-.23047.5625-.76954.93359-1.3672.93359zm-21.059-1.3711c-.66796.0117-1.2617-.4336-1.4531-1.0898-.23438-.8125.21484-1.6602 1-1.9023s1.6133.21875 1.8477 1.0273c.23437.8086-.21485 1.6602-1 1.9024-.12891.0391-.26172.0586-.39454.0625zm10.805-1.2891c-.82031-.0273-1.4648-.73437-1.4375-1.5781.0273-.84375.71485-1.5039 1.5352-1.4766.82031.0273 1.4609.73437 1.4336 1.5781-.0234.84375-.71094 1.5039-1.5312 1.4766z" fill="#f00"/>
  <path d="m114.1 58.336c.8789 0 1.5938 1.1562 1.5938 2.5859s-.71485 2.5859-1.5938 2.5859c-.88282 0-1.5977-1.1562-1.5977-2.5859s.71484-2.5859 1.5977-2.5859zm16.637.14844c.88282 0 1.5977 1.1562 1.5977 2.5859 0 1.4297-.71484 2.5859-1.5977 2.5859-.88281 0-1.5976-1.1562-1.5976-2.5859 0-1.4297.71484-2.5859 1.5976-2.5859zm27.73 39.094c.39453.53125.80078 1.0469 1.2148 1.5586l-.46094-.51562c-.24219-.0078-.48438-.01172-.72656-.01172-.23047.0039-.46094.0078-.6875.01563-.0898.0039-.17578.0078-.26172.01172-.13672.0039-.27344.0078-.40625.01563-.45703.02344-.91406.05078-1.3711.07813-.082.0078-.16406.01172-.24609.01563-.15625.01172-.3125.01953-.46875.02734-.0937.0039-.18359.0078-.27344.01172-.14843.0078-.30078.01172-.44922.01953-.0898 0-.18359.0078-.27343.0078h-.0742c-.19922.0078-.39453.0078-.59375.0078.0156.03516.0352.07031.0508.10547.0195.03516.0391.06641.0586.10156.004.01172.0117.01953.0156.02734.0352.05859.0742.11719.11328.17187l.004.0039c.0234.03125.0469.0625.0742.09375v.0039c.0273.03125.0547.0625.082.09375.0312.03125.0586.0625.0898.09375h.004c.0312.03125.0625.0625.0977.09375.0664.0625.14453.125.22266.1875.082.0625.17187.12109.26562.18359.0937.0625.19532.1211.30078.1836h.004c.10938.0625.22656.125.34766.1875.125.0625.25781.12891.39843.19141h.004c.70703.32422 1.6367.67187 2.8594 1.0781.49218.16407 1.0273.33594 1.6172.51954-.77734.4414-1.1797.85937-1.4062 1.3594.42969 0 .85938.0117 1.293.0312 1.2969.0547 2.5977.17969 3.8906.17969l-1.4024-1.5664c.94922.96485 1.9453 1.8789 2.9883 2.7461l-75.535.0391c.19141-.37891.38281-.7461.57031-1.1172.01953 0 .03516-.004.05469-.004h.32812.0039c.01172-.004.01953-.004.03125-.004.11719 0 .23438-.004.35156-.0117h.0039c.01953 0 .04297-.004.0625-.004.10156-.004.20312-.008.30078-.0156 1.6719-.11719 3.3242-.53516 4.9375-1.6602l-.08594.0234c.03906-.0273.07422-.0508.11328-.0781.26172.0273.51172.10547.76953.1836-.78125.4414-1.1797.85937-1.4062 1.3594 3.7852-.0195 7.6367 1.0508 11.281-1.4726.2539.082.52343.16797.80468.2539-.78125.44141-1.1797.85938-1.4062 1.3594 3.7852-.0195 7.6367 1.0547 11.281-1.4727.21875.0703.44141.14063.67578.21485-.77734.4414-1.1758.85937-1.4062 1.3594 3.418-.0195 6.8867.85156 10.207-.83203-.17188.19141-.29688.38672-.39063.59766 3.7852-.0234 7.6367 1.0508 11.281-1.4727.21875.0703.44141.14062.67578.21484-.77734.4375-1.1758.85547-1.4062 1.3594 3.7969-.0234 7.6562 1.0547 11.309-1.4922l-2.4023-.94531c.84375.3164 1.8906.66797 3.1953 1.0781-.77734.4375-1.1758.85547-1.4062 1.3594 3.7969-.0234 7.6562 1.0547 11.309-1.4922l-4.6719-1.8398c-.32031.10156-.625.19922-.91406.28906l.38281-.14844c-3.6523-2.5469-7.5078-1.4687-11.305-1.4922.32032.70312.97266 1.2461 2.543 1.9062l-1.4023-.55468c-.32031.10156-.625.19922-.91406.28906l.38281-.14844c-3.6523-2.5469-7.5117-1.4687-11.305-1.4922.21094.46484.57031.85938 1.2422 1.2617-.30469.0977-.59766.19141-.875.28125l.38281-.15234c-1.9375-1.3555-3.9375-1.6836-5.9531-1.6992-1.7774-.01172-3.5703.21875-5.3516.20703.27343.60156.79296 1.0859 1.9141 1.6211-.28125.0898-.55078.17579-.8086.25782l.38672-.15235c-3.6523-2.5469-7.5078-1.4688-11.305-1.4883.21093.46484.57421.85938 1.2422 1.2617-.30468.0977-.59765.1875-.875.27735l.38672-.15235c-3.6523-2.5469-7.5117-1.4648-11.309-1.4883.20312.44531.54297.82422 1.1602 1.2109h-.004c-.32031.10156-.625.19531-.91797.28906l.38672-.15234c-.10938-.0781-.22266-.14844-.33594-.22266-.0352-.0234-.0703-.043-.10547-.0664-.082-.0508-.16797-.10156-.2539-.14844-.0312-.01953-.0625-.03906-.0937-.05859-.11329-.05859-.22266-.11719-.33594-.17578-.0234-.01172-.0508-.02344-.0781-.03516-.0898-.04687-.17968-.08984-.26953-.12891-.0352-.01563-.0742-.03125-.10937-.04687-.0898-.03906-.17578-.07422-.26563-.10938-.0273-.01172-.0547-.02344-.082-.03516-.11328-.04297-.22656-.08203-.33594-.12109-.03516-.01172-.06641-.01953-.09766-.03125-.08594-.02734-.17578-.05469-.26172-.08203-.03516-.0078-.06641-.01953-.10156-.02734-.11328-.03125-.22266-.0625-.33594-.08984-.0078 0-.01172-.0039-.01953-.0039-.11328-.02734-.22656-.05078-.33984-.07422-.03125-.0078-.06641-.01172-.10156-.01953-.08984-.01953-.17969-.03516-.27344-.05078-.02734-.0039-.05469-.0078-.08203-.01172-.11719-.01953-.23047-.03516-.34766-.05078-.02344-.0039-.04687-.0039-.07031-.0078-.09375-.01172-.19141-.02344-.28516-.03125-.03516-.0039-.07031-.0078-.10938-.01172-.08984-.0078-.18359-.01172-.27734-.01953-.02734-.0039-.05078-.0039-.07813-.0078h-.0625c-.14844-.01172-.29687-.01563-.44531-.01953-.05469-.0039-.10547-.0039-.15625-.0039-.16797-.0039-.33203-.0078-.49609-.0039-.22266 0-.44531.0039-.66797.01172-.06641.0039-.13672.0039-.20313.0078-.15625.0039-.3125.01172-.46875.01953-.07031.0039-.14062.0078-.21094.01172-.44141.02344-.88281.05078-1.3242.07813.20703-.41797.41016-.83594.60938-1.2461zm-31.109 4.3672c.30469.0977.62109.19922.95703.30469-.0273.0117-.0508.0273-.0742.043zm-62.988 2.9883c0 1.3672-.33203 3.0742-.74609 4.1055-.82812-.0781-1.7695-.0586-2.8242.082l2.6328-2.707c.23047-.23047.07422-.6289-.24609-.6289-.09766 0-.19141.0391-.25781.10937l-2.6328 2.7109c.13672-1.0859.15625-2.0547.08203-2.9062 1.0039-.42578 2.6641-.76563 3.9922-.76563zm-14.855 0c1.3281 0 2.9883.33985 3.9922.76563-.07422.85156-.05859 1.8203.08203 2.9062l-2.6367-2.7109c-.06641-.0703-.15625-.10937-.25391-.10937-.32031 0-.47656.39843-.25.6289l2.6328 2.707c-1.0508-.14062-1.9922-.16015-2.8203-.082-.41406-1.0312-.74609-2.7383-.74609-4.1055zm125.82 5.9766c4.5312 4.0078 9.3477 6.1523 14.422 5.5195v13.297l-.14063.82422c-5.4258-5.0039-12.336-8.3945-20.008-9.3633zm-114.53 5.1133c1.0547.14062 1.9961.16015 2.8242.082.41406 1.0352.74609 2.7422.74609 4.1094-1.3281 0-2.9883-.33984-3.9922-.76562.07422-.85547.05469-1.8242-.08203-2.9062l2.6328 2.707c.33594.35938.85547-.17187.50391-.51953zm-7.7148 0-2.6328 2.707c-.35156.34766.16797.87891.50391.51953l2.6328-2.707c-.13672 1.082-.15625 2.0508-.08203 2.9062-1.0039.42578-2.6641.76562-3.9922.76562 0-1.3672.33203-3.0742.74609-4.1094.82813.0781 1.7695.0586 2.8242-.082zm17.348 16.531 9.5117 14.02-44.691 34.184v-21.309z" fill="#4242ff"/>
  <path d="m110.9 256.66c-.8789 0-1.5938-1.1562-1.5938-2.5859 0-1.4297.71485-2.5859 1.5938-2.5859.88282 0 1.5977 1.1562 1.5977 2.5859 0 1.4297-.71484 2.5859-1.5977 2.5859zm-16.637-.14844c-.88281 0-1.5977-1.1562-1.5977-2.5859 0-1.4297.71484-2.5859 1.5977-2.5859s1.5977 1.1562 1.5977 2.5859c0 1.4297-.71484 2.5859-1.5977 2.5859zm-27.73-39.094c-.39453-.53125-.80078-1.0469-1.2148-1.5586l.46094.51563c.24219.008.48438.0117.72656.0117.23047-.004.46094-.008.6875-.0156.08984-.004.17578-.008.26172-.0117.13672-.004.27344-.008.40625-.0156.45703-.0234.91406-.0508 1.3711-.0781.08203-.008.16406-.0117.24609-.0156.15625-.0117.3125-.0195.46875-.0273.09375-.004.18359-.008.27344-.0117.14844-.008.30078-.0117.44922-.0195.08984 0 .18359-.008.27344-.008h.07422c.19922-.008.39453-.008.59375-.008-.01563-.0352-.03516-.0703-.05078-.10547-.01953-.0352-.03906-.0664-.05859-.10156-.0039-.0117-.01172-.0195-.01563-.0273-.03516-.0586-.07422-.11719-.11328-.17187l-.0039-.004c-.02344-.0312-.04687-.0625-.07422-.0937v-.004c-.02734-.0312-.05469-.0625-.08203-.0937-.03125-.0312-.05859-.0625-.08984-.0937h-.0039c-.03125-.0312-.0625-.0625-.09766-.0937-.06641-.0625-.14453-.125-.22266-.1875-.08203-.0625-.17188-.12109-.26562-.18359s-.19531-.12109-.30078-.18359h-.0039c-.10938-.0625-.22656-.125-.34766-.1875-.125-.0625-.25781-.12891-.39844-.19141h-.0039c-.70703-.32422-1.6367-.67187-2.8594-1.0781-.49219-.16407-1.0273-.33594-1.6172-.51954.77734-.4414 1.1797-.85937 1.4062-1.3594-.42969 0-.85938-.0117-1.293-.0312-1.2969-.0547-2.5977-.17969-3.8906-.17969l1.4023 1.5664c-.94922-.96485-1.9453-1.8789-2.9883-2.7461l75.535-.0391c-.19141.37891-.38281.7461-.57031 1.1172-.0195 0-.0352.004-.0547.004h-.32812-.004c-.0117.004-.0195.004-.0312.004-.11719 0-.23438.004-.35156.0117h-.004c-.0195 0-.043.004-.0625.004-.10156.004-.20312.008-.30078.0156-1.6719.11719-3.3242.53516-4.9375 1.6602l.0859-.0234c-.0391.0273-.0742.0508-.11328.0781-.26172-.0273-.51172-.10547-.76953-.1836.78124-.4414 1.1797-.85937 1.4062-1.3594-3.7852.0195-7.6367-1.0508-11.281 1.4726-.25391-.082-.52344-.16797-.80469-.2539.78125-.44141 1.1797-.85938 1.4062-1.3594-3.7852.0195-7.6367-1.0547-11.281 1.4727-.21875-.0703-.44141-.14063-.67578-.21485.77734-.4414 1.1758-.85937 1.4062-1.3594-3.418.0195-6.8867-.85156-10.207.83203.17203-.19156.29703-.38687.39078-.59781-3.7852.0234-7.6367-1.0508-11.281 1.4727-.21875-.0703-.44141-.14062-.67578-.21484.77734-.4375 1.1758-.85547 1.4062-1.3594-3.7969.0234-7.6562-1.0547-11.309 1.4922l2.4023.94531c-.84375-.3164-1.8906-.66797-3.1953-1.0781.77734-.4375 1.1758-.85547 1.4062-1.3594-3.7969.0234-7.6562-1.0547-11.309 1.4922l4.6719 1.8398c.32031-.10156.625-.19922.91406-.28906l-.38281.14844c3.6523 2.5469 7.5078 1.4688 11.305 1.4922-.32031-.70313-.97266-1.2461-2.543-1.9062l1.4023.55468c.32031-.10156.625-.19922.91406-.28906l-.38281.14844c3.6523 2.5469 7.5117 1.4688 11.305 1.4922-.21094-.46485-.57031-.85938-1.2422-1.2617.30469-.0977.59766-.19141.875-.28125l-.38281.15234c1.9375 1.3555 3.9375 1.6836 5.9531 1.6992 1.7773.0117 3.5703-.21875 5.3516-.20703-.27344-.60156-.79297-1.0859-1.9141-1.6211.28125-.0898.55078-.17578.8086-.25781l-.38672.15235c3.6523 2.5469 7.5078 1.4688 11.305 1.4883-.21094-.46485-.57422-.85938-1.2422-1.2617.30469-.0977.59765-.1875.875-.27735l-.38672.15235c3.6523 2.5469 7.5117 1.4648 11.309 1.4883-.20312-.44531-.54297-.82422-1.1602-1.2109h.004c.32032-.10156.625-.19531.91797-.28906l-.38672.15234c.10938.0781.22266.14844.33594.22266.0352.0234.0703.043.10547.0664.082.0508.16797.10156.25391.14843.0312.0195.0625.0391.0937.0586.11328.0586.22265.11718.33593.17578.0234.0117.0508.0234.0781.0352.0898.0469.17969.0898.26953.12891.0352.0156.0742.0312.10937.0469.0898.0391.17579.0742.26563.10937.0273.0117.0547.0234.082.0352.11328.043.22656.082.33594.12109.0352.0117.0664.0195.0977.0312.0859.0273.17579.0547.26172.082.0352.008.0664.0195.10157.0273.11328.0312.22265.0625.33593.0898.008 0 .0117.004.0195.004.11329.0273.22657.0508.33985.0742.0312.008.0664.0117.10156.0195.0898.0195.17969.0352.27344.0508.0273.004.0547.008.082.0117.11719.0195.23047.0352.34766.0508.0234.004.0469.004.0703.008.0937.0117.1914.0234.28515.0312.0352.004.0703.008.10938.0117.0898.008.18359.0117.27734.0195.0273.004.0508.004.0781.008h.0625c.14843.0117.29687.0156.44531.0195.0547.004.10547.004.15625.004.16797.004.33203.008.49609.004.22266 0 .44532-.004.66797-.0117.0664-.004.13672-.004.20313-.008.15625-.004.3125-.0117.46875-.0195.0703-.004.14062-.008.21093-.0117.44141-.0234.88282-.0508 1.3242-.0781-.20703.41797-.41015.83594-.60937 1.2461zm31.109-4.3672c-.30469-.0977-.62109-.19922-.95703-.30469.02734-.0117.05078-.0273.07422-.043zm62.988-2.9883c0-1.3672.33203-3.0742.7461-4.1055.82812.0781 1.7695.0586 2.8242-.082l-2.6328 2.707c-.23047.23047-.0742.6289.2461.6289.0977 0 .1914-.0391.25781-.10937l2.6328-2.7109c-.13672 1.0859-.15625 2.0547-.082 2.9062-1.0039.42578-2.6641.76563-3.9922.76563zm14.855 0c-1.3281 0-2.9883-.33985-3.9922-.76563.0742-.85156.0586-1.8203-.082-2.9062l2.6367 2.7109c.0664.0703.15625.10937.25391.10937.32031 0 .47656-.39843.25-.6289l-2.6328-2.707c1.0508.14062 1.9922.16015 2.8203.082.41406 1.0312.74609 2.7383.74609 4.1055zm-125.82-5.9766c-4.5312-4.0078-9.3477-6.1523-14.422-5.5195v-13.297l.14062-.82422c5.4258 5.0039 12.336 8.3945 20.008 9.3633zm114.53-5.1133c-1.0547-.14062-1.9961-.16015-2.8242-.082-.41407-1.0352-.7461-2.7422-.7461-4.1094 1.3281 0 2.9883.33984 3.9922.76562-.0742.85547-.0547 1.8242.082 2.9062l-2.6328-2.7071c-.33594-.35938-.85547.17187-.50391.51953zm7.7148 0 2.6328-2.707c.35156-.34766-.16797-.87891-.50391-.51953l-2.6328 2.707c.13672-1.082.15625-2.0508.082-2.9062 1.0039-.42578 2.6641-.76562 3.9922-.76562 0 1.3672-.33203 3.0742-.74609 4.1094-.82813-.0781-1.7695-.0586-2.8242.082zm-17.348-16.531-9.5117-14.02 44.691-34.184v21.309z" fill="#4242ff"/>
  <path d="m142.97 35.25 46.781 75.621v5.5586c-23.441 2.918-41.293-53.492-48.41-81.18zm-30.02 38.691c.74609 3.7578 1.6484 7.0977 2.5234 7.7617 2.125 1.6211 7.2148 10.363 8.3164 11.004.64844.375 1.3828.51172 2.1484.49219l-.14844.73047-20.645-.01172c3.2891-7.4844 5.8125-14.062 7.8047-19.977zm57.906 34.648c1.2539.67579 2.5742 1.2852 3.957 1.8086l.47656.54687-5.6562 10.246c-1.5469-.25391-3.1797-.36719-4.8398-.36719-.35156 0-.69922.004-1.0469.0312l4.7305-8.582-78.07-.0312c-.75781-1.2969-1.6211-2.4766-2.5234-3.6055zm-84.945 2.4453c.89453 1.082 1.707 2.2617 2.4258 3.543 5.8047 10.348 3.1758 23.148-5.668 29.922l-1.7969-2.4141c7.6289-5.8438 9.9492-16.887 4.8633-25.941-.55859-.99609-1.1836-1.9258-1.8633-2.7852zm42.875 39.113c-.54297 2.5508-.83594 5.2226-.83594 7.9609 0 1.2148.0586 2.418.16797 3.6367l-7.8906.0312.0234-8.5547-23.375-.0117c-.10156-1.0274-.24219-2.0352-.37891-3.0352z"/>
  <path d="m82.031 279.75-46.781-75.621v-5.5586c23.441-2.918 41.293 53.492 48.41 81.18zm30.02-38.691c-.74609-3.7578-1.6484-7.0976-2.5234-7.7617-2.125-1.6211-7.2148-10.363-8.3164-11.004-.64844-.375-1.3828-.51172-2.1484-.49219l.14844-.73047 20.645.0117c-3.2891 7.4844-5.8125 14.062-7.8047 19.977zm-57.906-34.648c-1.2539-.67579-2.5742-1.2852-3.957-1.8086l-.47656-.54687 5.6562-10.246c1.5469.25391 3.1797.36719 4.8398.36719.35156 0 .69922-.004 1.0469-.0312l-4.7305 8.582 78.07.0312c.75781 1.2969 1.6211 2.4766 2.5234 3.6055zm84.945-2.4453c-.89453-1.082-1.707-2.2617-2.4258-3.543-5.8047-10.348-3.1758-23.148 5.668-29.922l1.7969 2.4141c-7.6289 5.8438-9.9492 16.887-4.8633 25.941.5586.99609 1.1836 1.9258 1.8633 2.7852zm-42.875-39.113c.54297-2.5508.83594-5.2226.83594-7.9609 0-1.2148-.05859-2.418-.16797-3.6367l7.8906-.0312-.0234 8.5547 23.375.0117c.10156 1.0274.24219 2.0352.37891 3.0352z"/>
 </g>
 <g fill="none" stroke="#4242ff" stroke-linecap="round" stroke-linejoin="round">
  <path d="m35.25 155.64 36.098-27.602m118.26 2.5117c-6.5508-6.043-15.258-9.7266-24.816-9.7266-20.348 0-36.844 16.695-36.844 37.285 0 7.0039 1.9102 13.559 5.2266 19.156m56.344-46.66-48.824 37.336m-11.918-17.777h-32.242m-61.285 30.598 44.695-34.176m-8.5469-18.613 12.906 19.086m-13.848-14.516 9.4844 14.02m7.9336-37.859-16.473 19.273m12.961 19.035c10.098-7.6758 13.102-22.281 6.543-33.961-.89062-1.5938-1.918-3.0508-3.0547-4.375m-5.1836 35.824c8.8437-6.7734 11.473-19.574 5.668-29.922-.71875-1.2812-1.5312-2.4609-2.4258-3.543m-15.504 21.531-35.156 26.883m45.621-17.363c7.6289-5.8398 9.9492-16.887 4.8633-25.941-.55859-.9961-1.1836-1.9258-1.8633-2.7812m-12.379 14.797h16.867m-11.383-6.7227h10.867m-11.832 13.445h10.59m1.3125-26.281h82.957m-81.062-3.668h75.598m-71.922-7.3359h65.008m-63.23-3.668h60.68m-42.551-58.66c-4.0781 17.289-5.5078 31.535-18.16 58.66-2.1211 4.5508-4.5625 9.4648-7.3828 14.816m2.5469 3.5195h78.035m-60.695.0391c-.27344 15.688-5.6797 19.828-5.9219 37.82m9.4844-37.82c-.32813 15.688-6.8164 19.828-7.1055 37.82m16.617-37.844c-.40625 20.301-10.742 22.23-11.262 37.875m16.012-37.875c-.48047 19.73-12.437 22.211-13.035 37.879m24.914-37.879c-.67578 19.738-17.465 23.34-18.363 37.879m21.93-37.926c-.67188 19.781-18.004 23.934-19.5 37.926m6.7266 3.0625h-31.348m32.355-4.8906h-7.4297m7.9726-1.8359h-7.4766m8.125-1.832h-7.3867m7.3047-1.8359h-6.3398m6.2226-1.832h-5.0547m4.9414-1.832h-3.5742m3.457-1.8359h-1.9297m-26.199 11.004h-5.8164m5.8906-1.8359h-6.3555m6.4844-1.832h-7.0586m7.2383-1.8359h-6.9609m7.1797-1.832h-6.4062m6.6836-1.832h-5.9062m6.2422-1.8359h-5.4687m5.8555-1.832h-5.0781m31.492 0h-.20313m-91.875 47.07c5.9648 5.3203 13.793 8.5508 22.398 8.5508 18.77 0 33.871-15.316 33.871-34.227 0-5.8125-1.4258-11.266-3.9453-16.051m-44.891 36.109c4.1523 3.1406 9.2773 5 14.965 5 14.055 0 24.957-11.168 24.957-25.059 0-3.2695-.60156-6.332-1.7109-9.1562m-24.68 18.848c.46094.0547.9375.0859 1.4336.0859 5.8516 0 9.6601-3.793 10.066-8.8672m-14.602 11.156c1.375.49609 2.8867.76953 4.5351.76953 7.7695 0 13.074-5.6406 13.074-12.836 0-.46484-.02344-.91015-.06641-1.3438m-25.496 19.461c3.5234 2.4492 7.7656 3.8867 12.488 3.8867 12.48 0 21.988-9.7852 21.988-22.004 0-2.5898-.42578-5.0117-1.2187-7.2695m30.633 5.6641c-.42188-3.0234-4.2031.86719-1.2617 1.2969-2.375-1.832-2.375 3.668 0 1.8359-2.9414.4297.83984 4.3203 1.2617 1.2969-1.7852 2.4453 3.5664 2.4453 1.7812 0 .42188 3.0234 4.2031-.86718 1.2617-1.2969 2.375 1.832 2.375-3.668 0-1.8359 2.9414-.42969-.83984-4.3203-1.2617-1.2969 1.7852-2.4453-3.5664-2.4453-1.7812 0m-.59375 2.2148c0 .84374.66406 1.5273 1.4844 1.5273s1.4844-.6836 1.4844-1.5273c0-.84375-.66406-1.5274-1.4844-1.5274s-1.4844.6836-1.4844 1.5274m9.2109-4.2774v8.5547m43.523-40.91 4.7695-8.5859m1.0547 8.9492 5.7148-10.285m-32.32-75.695 46.781 75.621m-21.664-34.977c5.9258-2.2578 11.988-1.7969 18.098-.30078-9.5859-10.602-9.043-26.199-11.437-40.348m-24.648.0039 24.207 39.129m-32.984-39.191c7.1133 27.676 24.977 84.164 48.43 81.246m-52.047-81.23c5.7266 27.395 11.73 65.563 37.109 75.195m-1.7461-38.02-5.8086 2.1328m4.7734-3.8047-5.8086 2.1328m4.668-3.9844-5.8125 2.1367m4.668-3.9844-5.8125 2.1328m3.0586-3.3945-4.2031 1.543m1.1133-2.6758-2.2578.82813m23.129 9.7578c-1.8789-1.3203-3.7461-2.6562-5.125-4.4961-2.5859 1.0508-5.0469.51562-7.5234.18359m8.9492-3.0664c-3.293.67969-6.8906.58594-10.496.46875m6.6523-14.242c-3.0781 2.7422.36328 8.8477-4.1172 11.156-4.2852 2.2031-7.0234-4.6406-4.1602-6.1133 2.375-1.2227 5.3476 3.0547 2.375 4.2773-1.6797.69141-2.3906-3.5-1.1875-2.4453m7.1133-6.9258c-3.9726 1.4062-7.1484-5.0625-11.508-2.3828-4.1094 2.5273.0234 8.582 2.7695 6.8945 2.2812-1.4023.375-6.2812-2.2266-4.3633-1.4688 1.082 1.582 3.957 1.3633 2.3477m-5.5898-1.875c.45312-2.5391 1.0547-4.9453 3.3242-5.918-.49609-3.4102-.16797-6.3984 1.7812-8.5586-2.0625-.19922-4.0938-.24219-6.5352-2.4453-3.3242 1.2148-6.2422.39062-9.2031-.23438m8.5156 13.699c.60156-1.3789 1.3086-2.6875 2.4688-3.6836-.17578-1.7539-.0312-3.2266.59375-4.2812-1.0078.14844-2.5859.07422-4.1562-1.2227-1.0703.84766-2.4492 1.0547-3.8828 1.1484m-12.102-2.1406c-1.6562-.55469-3.1172-1.5977-4.543-2.7266m5.3672 5.707c-1.75-.53906-3.2773-1.6211-4.7656-2.7969m5.5586 5.5664c-1.8594-.66797-3.4726-1.9375-5.0781-3.2305m6.0234 6.4141c-1.9766-.45703-3.6602-1.6406-5.3008-2.9336m6.1328 5.7461c-2.1016-.58594-3.8789-1.9766-5.6406-3.3984m6.6367 6.5156c-2.2305-.32812-4.082-1.5938-5.875-3.0039m6.8516 6.0312c-2.3047-.65625-4.5078-2.4727-6.4258-4.0352m7.4375 7.043c-2.4141-.53125-4.7344-2.4219-6.7461-4.0625m7.7344 6.918c-2.5859-.64844-5.0586-2.8125-7.1445-4.5039m8.1055 7.2344c-2.6094-1.0586-5.6211-3.1563-7.4883-4.6211m8.6328 7.7344c-2.6328-.93359-5.8164-3.1094-7.8359-4.6719m9.0273 7.7695c-2.625-.75781-5.9726-2.9922-8.1602-4.6563m9.3164 7.5508c-2.7773-.8125-6.3555-3.2617-8.5078-4.9414m9.789 8.0117c-2.6914-.52734-6.414-2.9922-8.789-4.793m10.059 7.7109c-2.7852-.51172-6.7226-3.1523-9.1016-4.9844m10.141 7.293c-2.8555-.76953-6.7148-2.5625-8.8906-4.0664m10.297 7.0273c-2.8711-.73437-6.8594-2.5742-9.0937-4.1133m10.66 7.2305c-2.5-.44141-6.3984-2.0938-9.0117-3.6523m10.535 6.5078c-2.6484-.53516-6.6484-2.2852-9.164-3.8594m10.898 6.9063c-2.664-.55078-6.668-2.3047-9.168-3.8789m10.746 6.4375c-3.1094-.82031-7.4414-2.8828-9.4922-4.4648m11.461 7.418c-2.8594-.72266-6.8516-2.5586-9.1054-4.1016m11.332 7.1094c-2.2773-.5-5.4492-1.8281-7.8476-3.1641m-51.344-43.172c-2.4414 9.6055-5.9297 20.465-12.543 34.848m11.797-44.781c.34375 4.4844.96875 12.773.96875 13.66 0 1.832 2.1562 17.422 4.1602 18.945 2.125 1.6211 7.2148 10.363 8.3164 11.004 3.0664 1.7812 8.1562-1.793 8.914-2.4453 4.8164 1.3945 15.633-11.867 11.887-14.059l2.7617-1.2148m-35.547-7.3633c-2.2656 7.5547-5.3555 16.07-10.008 26.324m11.148-20.062c-1.9883 5.9688-4.5117 12.547-7.8555 20.02m-2.7422-1.1992h3.2617m-2.4453-1.832h3.2383m-2.4453-1.8359h3.2422m-2.4648-1.832h3.2227m-2.4648-1.8359h3.207m-2.4648-1.832h3.207m-2.4922-1.8359h3.1875m-2.4805-1.832h3.168m-2.5117-1.832h3.1875m-2.5312-1.8359h3.1719m-2.5195-1.832h3.1562m-2.5391-1.8359h2.3789m-1.7656-1.832h1.5234m29.469 13.883c2.1914-2.2344 4.2617-4.7188 6.168-7.5352m-17.645 16.891c2.2422-1.5156 4.4414-3.1172 6.5664-4.8672m-3.6094 4.8672c5.625-3.9688 10.93-8.5898 15.387-14.957m-12.5 14.953c4.8008-3.5547 9.3242-7.6836 13.227-13.086m-10.445 13.098c4.0312-3.1406 7.832-6.7539 11.191-11.27m-8.4531 11.25c3.2852-2.7109 6.3984-5.7813 9.2148-9.4648m-6.6094 9.4883c2.6133-2.2812 5.1055-4.8242 7.4062-7.7539m-4.8359 7.7344c1.9766-1.8281 3.8711-3.8281 5.6562-6.0508m-3.2109 6.0742c1.3984-1.3711 2.7539-2.8398 4.0508-4.4219m-1.6289 4.3945c.85546-.89063 1.6914-1.8203 2.5039-2.793m-.17969 2.7969c.36719-.40625.73047-.82031 1.0898-1.2461m-9.8164-14.816c.66016-.88672 1.3047-1.8047 1.9297-2.7617m-19.945 18.82c1.3086-.85547 2.6055-1.7305 3.8867-2.6406m10.969 11.199c1.3672.008 2.707-.38671 4.0156-1.1211m2.5391.85156c-3.6523 2.5469-7.5117 1.4688-11.309 1.4922.51953-1.1367 1.9023-1.8476 6.6367-3.332m-7.082-.12891c1.3672-.008 2.7031.38672 4.0156 1.1211m2.5352-.85157c-3.6523-2.5469-7.5117-1.4687-11.305-1.4922.51562 1.1406 1.8984 1.8477 6.6328 3.332m-7.2305.0273c1.3672.0117 2.7031-.38672 4.0156-1.1211m2.5352.85156c-3.6523 2.5469-7.5117 1.4688-11.305 1.4922.51563-1.1367 1.8984-1.8477 6.6328-3.332m-7.082-.12891c1.3672-.008 2.7031.39063 4.0156 1.1211m2.5352-.85156c-3.6484-2.5469-7.5078-1.4687-11.305-1.4922.51953 1.1406 1.9023 1.8516 6.6328 3.332m-6.4922.36328c1.3672.0117 2.707-.38672 4.0195-1.1211m2.5352.85547c-3.6523 2.5469-7.5117 1.4688-11.309 1.4883.51953-1.1367 1.9023-1.8476 6.6367-3.3281m-7.082-.12891c1.3672-.0117 2.7031.38672 4.0156 1.1211m2.5352-.85547c-3.6523-2.5469-7.5078-1.4688-11.305-1.4883.51953 1.1367 1.9023 1.8477 6.6328 3.3281m-7.2305.0273c1.3672.0117 2.7031-.38671 4.0156-1.1211m2.5352.85547c-3.6523 2.5469-7.5117 1.4688-11.305 1.4883.51953-1.1367 1.8984-1.8477 6.6328-3.3281m-7.082-.12891c1.3672-.0117 2.707.38672 4.0156 1.1211m2.5391-.85547c-3.6523-2.5469-7.5117-1.4648-11.309-1.4883.51953 1.1367 1.9023 1.8477 6.6367 3.332m-7.3594-.0156c1.3672.0117 2.7031-.38672 4.0156-1.1211m2.5352.85547c-3.6523 2.5469-7.5117 1.4687-11.305 1.4883.51562-1.1367 1.8984-1.8477 6.6328-3.3281m-7.082-.12891c1.3672-.0117 2.7031.38672 4.0156 1.1211m2.5352-.85547c-2.9375-2.0508-6.0117-1.75-9.082-1.5664m-.76562 1.4648c.99219.54687 2.5781 1.1289 5.1758 1.9414m55.617.23828c1.3672.008 2.707-.38671 4.0195-1.1211m2.5352.85156c-3.6523 2.5469-7.5117 1.4688-11.309 1.4922.51953-1.1367 1.9023-1.8476 6.6367-3.332m-7.082-.12885c1.3672-.008 2.7031.38672 4.0156 1.1211m2.5352-.85157c-3.6523-2.5469-7.5078-1.4687-11.305-1.4922.51954 1.1406 1.9024 1.8477 6.6328 3.332m9.6328-3.7383c-1.9375-.06641-3.8906.21094-5.832.19922.51953 1.1367 1.9023 1.8477 6.6367 3.3281m-1.8828-2.1055c.92969-.008 1.8438.17188 2.7461.51953m2.8867 3.1484c-1.7266-.004-3.4609-.21875-5.1836-.21094.35157-.76953 1.0977-1.3438 3.0117-2.0938m-70.441.8711c.9375-.16016 1.8594-.50782 2.7734-1.0195m2.5352.85547c-1.9883 1.3867-4.0391 1.6992-6.1055 1.6992m-17.254 55.176 6.1133.95703c.26172 1.5312-.22656 2.2266-.59375 3.0547l-5.9844-1.9805m-.55859 1.4414 5.5117 2.6367c-.13672 1.5508-.78125 2.0898-1.3477 2.793l-5.1484-3.6523m-.98437 1.2539 4.5742 4.2812c-.68359 1.3867-1.4805 1.6367-2.2578 2.0742l-3.7656-4.957m-1.8398 1.2188 2.7344 5.3672c-1.1094 1.0547-1.9414 1.0078-2.8164 1.1367l-1.8359-5.668m-1.7461.48438 1.2031 6.4062c-1.3633.67969-2.1445.38281-3.0195.25l-.31249-6.3984m-2.3359-.0508-.66797 6.7344c-1.4922.26953-2.1641-.23046-2.9726-.60938l1.4609-6.539m16.977-13.91 6.0195-.91407c.68359 1.3867.41406 2.1992.30078 3.1016h-6.5625m14.645-4.1367c.0625.83984.77734 1.4688 1.5977 1.4023.81641-.0625 1.4258-.80078 1.3633-1.6406-.0625-.84375-.78125-1.4688-1.5977-1.4062-.8164.0664-1.4297.80468-1.3633 1.6445m3.0781 1.2852c3.1016 1.5898 2.5898-5.1133-.23438-3.0469 1.5469-3.1914-4.9726-2.6641-2.9609.23828-3.1016-1.5898-2.5898 5.1133.23047 3.0469-1.543 3.1914 4.9726 2.6641 2.9648-.23828m-3.5742 8.8555c-.14844.83203.39063 1.625 1.1992 1.7734.80469.14843 1.5781-.40235 1.7227-1.2344.14453-.82812-.39062-1.625-1.1992-1.7734-.80859-.14844-1.5781.40234-1.7227 1.2344m2.6602 2.043c2.6094 2.3476 3.7656-4.2695.52344-3.0078 2.2812-2.6836-4.1523-3.8711-2.9219-.53907-2.6094-2.3438-3.7656 4.2734-.52734 3.0078-2.2773 2.6836 4.1562 3.8711 2.9258.53906m-6.6875 7.1836c-.32422.77735.02344 1.6758.77734 2.0078.75781.33203 1.6289-.0273 1.9531-.80468.32031-.77734-.02734-1.6758-.78125-2.0078-.7539-.33203-1.6289.0312-1.9492.80468m2.1445 2.6094c2.0312 2.8867 4.6016-3.293 1.168-2.8125 2.8086-2.0859-3.1992-4.7344-2.7305-1.1992-2.0312-2.8906-4.6016 3.2891-1.168 2.8086-2.8086 2.0859 3.1992 4.7344 2.7305 1.2031m-8.7305 4.2148c-.60156.57421-.63281 1.539-.07422 2.1602.55859.61719 1.5.64843 2.1016.0742.59766-.5742.63281-1.543.07031-2.1601-.55859-.61719-1.4961-.65235-2.0977-.0742m.9375 3.2773c.72266 3.4844 5.5039-1.1016 2.1758-2.0859 3.3867-.74219-1.0703-5.6602-2.0273-2.2344-.72266-3.4883-5.5039 1.0977-2.1719 2.082-3.3906.74219 1.0664 5.6641 2.0234 2.2383m-9.1992.91406c-.78514.24219-1.2344 1.0938-.99999 1.9024.23438.80858 1.0625 1.2695 1.8477 1.0273s1.2344-1.0898 1-1.9024c-.23438-.80858-1.0625-1.2695-1.8477-1.0273m-.57812 3.3672c-.85938 3.4492 5.4062 1.5313 2.8476-.87499 3.3594.88672 1.4922-5.5586-.84766-2.9297.86328-3.4492-5.4023-1.5313-2.8476.87499-3.3555-.88672-1.4883 5.5586.84766 2.9297m-9.832-2.1406c-.82031-.0273-1.5039.63282-1.5312 1.4766-.02735.84376.61328 1.5508 1.4336 1.5781.82031.0273 1.5078-.63281 1.5352-1.4766.02733-.84375-.61719-1.5508-1.4375-1.5781m-1.582 3.0039c-1.8828 2.9922 4.6523 3.2148 2.9688.10157 2.9101 1.9336 3.1289-4.7852.09766-3.0547 1.8828-2.9961-4.6523-3.2187-2.9688-.10156-2.9101-1.9336-3.125 4.7852-.09766 3.0547m-8.0937-5.5469c-.75782-.32422-1.6289.0391-1.9453.81641-.32031.78125.03515 1.6758.79298 2.0039.75781.32422 1.6289-.0391 1.9453-.81641.3164-.78125-.03906-1.6758-.79296-2.0039m-2.5195 2.2266c-2.7969 2.1094 3.2305 4.7109 2.7383 1.1836 2.0469 2.875 4.5781-3.3242 1.1484-2.8164 2.7969-2.1055-3.2305-4.7109-2.7383-1.1836-2.0469-2.875-4.582 3.3242-1.1484 2.8164m8.2031-14.492-2.2383 4.4492c-1.0937-.22655-1.625-.67968-2.0742-1.164m63.523-138.18c-12.105 41.836-41.109 56.41-27.426 75.77m-25.703-1.8242c1.7852-11.004-8.3203-11.004-6.5351 0-10.695-1.832-10.695 8.5586 0 6.7227-1.7852 11.004 8.3203 11.004 6.5351 0 10.695 1.8359 10.695-8.5547 0-6.7227m-3.2695-4.5859c0 7.3359-.59374 7.9492-7.7226 7.9492 7.1289 0 7.7226.60938 7.7226 7.9453 0-7.3359.59765-7.9453 7.7266-7.9453-7.1289 0-7.7266-.61328-7.7266-7.9492m-1.4844 7.9492c0 .84375.66406 1.5274 1.4844 1.5274.82422 0 1.4883-.6836 1.4883-1.5274s-.66406-1.5273-1.4883-1.5273c-.82031 0-1.4844.68359-1.4844 1.5273m8.168-3.5273c.41406-1.0352.74609-2.7461.74609-4.1133-1.332 0-2.9922.33984-3.9961.76562m-6.8633 0c-1.0039-.42578-2.6641-.76562-3.9961-.76562 0 1.3672.33203 3.0781.74609 4.1133m13.363 7.0547c.41406 1.0312.74609 2.7422.74609 4.1133-1.332 0-2.9922-.34375-3.9961-.76953m-6.8633 0c-1.0039.42578-2.6641.76953-3.9961.76953 0-1.3711.33203-3.082.74609-4.1133m11.055 19.613c-.12109-.82031-.41015-1.9492-1.1055-2.6641-1.1875-1.2227-8.3203-4.8906-9.5078-4.8906-1.1875 0-2.375 1.832-3.5664 1.832-1.1875 0-1.7812 3.0586.59766 3.0586 2.375 0 4.1562-1.2227 4.1562-1.2227-.20703 2.6406 1.5273 3.3125 2.9727 4.2773m-2.1523-1.5586c-.5586 2.8281-.15626 5.1016.70703 7.1094m-6.2812-7.9961c-8.9101-3.0547-9.7265 1.4609-1.1875 3.0586 6.5391 1.2226 7.0742-1.0391 1.1875-3.0586m.21485 3.2656c-8.3945-2.3125-9.2148 1.8711-1.0156 3.1055 6.2773.94532 6.75-1.5234 1.0156-3.1055m-.12891 3.4961c-8.5429-1.1836-8.8789 3.0781-.65233 3.2148 6.3008.10547 6.4883-2.4062.65233-3.2148m-.07031-10.402c-.39453-.4375-.92578-.875-1.5937-1.2734-5.3516-3.2031-6.1992 1.7422-.90234 3.8711 1.0859.4336 1.918.51563 2.4805.35938m1.7852-4.207c2.1641-4.8047-4.1602-9.7774-5.9414-15.281-1.0039 6.582-1.6172 12.965 5.9414 15.281-2.1172-3.2227-3.5937-6.9062-5.3477-10.391m12.375 5.6289c-1.5781.41797-3.1133 1.582-4.6523 4.1523 7.4336.78516 13.383.39844 15.453-3.0547-3.0664.3125-5.8125-.99609-8.4062-1.25m-7.0469 4.3047c2.8555-1.2539 6.1328-2.0508 10.102-2.1016m49.141-74.387c2.2461-.80469 4.2539-1.9766 5.9531-3.8516 2.2812-2.5156 4.0664-6.3672 4.914-12.562m-10.957 15.148c1.9805-.74219 3.7031-1.7969 5.1758-3.4219 2.0547-2.2656 3.7461-5.8008 4.5781-11.719m-9.8476 13.875c1.7031-.67969 3.1484-1.6094 4.3984-2.9883 1.8359-2.0234 3.4297-5.2422 4.2461-10.883m-7.9844 10.855c.74609-.44531 1.4023-.98047 2-1.6406 1.4062-1.5469 2.8008-4.1445 3.5781-9.2031m-5.9102 12.391c1.2305-.58203 2.2734-1.332 3.2031-2.3555 1.6172-1.7812 3.1133-4.6875 3.9102-10.039m-6.418 9.1133c.26953-.22656.52344-.47266.76953-.73828 1.1914-1.3164 2.4883-3.6094 3.2422-8.3711m13.531-.01172c1.082 6.4727 3.2734 11.469 6.5312 15.059 1.9375 2.1367 4.1562 3.6602 6.4258 4.7578m-11.754-19.816c1.0664 6.1992 3.1641 10.879 6.1953 14.223 1.5859 1.75 3.3711 3.0625 5.2226 4.0586m-10.211-18.285c1.0469 5.9258 3.0469 10.293 5.8594 13.395 1.2266 1.3516 2.582 2.4297 4 3.293m-8.6523-16.691c1.0234 5.6445 2.9258 9.7031 5.5195 12.562.85938.94922 1.7852 1.7539 2.7539 2.4375m-1.3516-6.4688c-1.4024-2.0469-2.543-4.7891-3.2891-8.5273m-2.4258-.01172c1 5.3633 2.8008 9.1133 5.1836 11.738.48047.53125.98046 1.0117 1.5 1.4492m-5.4726-13.188c1.0078 5.2266 2.7812 8.7266 5.043 11.125m-28.117-4.3203c.83984-1.2148 1.7187-3.1992 2.3086-6.793m27.82 2.625c-1.5547-.57812-2.9375-1.5703-4.293-2.6406m2.1211 22.004c-4.5039-2.7852-8.9687-5.8711-14.262-1.832v.60938c7.1289-4.2773 8.3164-1.2227 14.262 1.2227m-20.207-1.2227.004.67188c-2.3789-2.5039-5.3906-2.0547-8.3203-1.2813 4.418-2.3125 6.4726-1.0117 8.3164.60938 0 0 .59766 1.8359.59766 5.5039 0 3.0547-2.3789 10.391-2.3789 11.613 0 1.5938 1.4609 2.7031 2.3789 2.4453.57031-.16406 2.375 2.4453 2.375 2.4453m3.5664-6.7266c1.1875 0 3.5664 4.2812.59375 4.2812-4.7539-1.8359-7.1328-.61328 0 0m2.9727 4.2773.59375 1.2227-1.1914-.60937.59766-.61328m-11.293 0 .59375 1.2227.59375-.60937-1.1875-.61328m10.695.61328c-1.1875 0-2.375-.61328-3.5625-.61328-1.1914 0-1.7852.61328-2.3789.61328s-1.1875-.61328-1.7812-.61328c-.59374 0-1.1875.61328-1.7852.61328m7.1328 3.0547c-1.6055.45703-2.5976 2.5078-5.3476 0m5.3476-24.449c6.2031-2.2109 8.8359 3.4883 11.883 3.668-4.7539 0-4.1641 1.0664-5.9414 1.2227-4.5508.39453-6.0508-3.2305-5.0703-5.1797m-16.32.89844c4.1602-3.668 6.5352 2.4453 8.914 1.8359-3.4766.80469-5.9453 3.668-8.914-.61328m-59.742 66.695c.58984-2.6758 1.0977-5.3476 1.9727-7.793m-4.625 8.9453c.73827-2.918 1.2266-5.918 2.0469-8.6953m-4.5234 23.605c.73046.54297 2.1328.78516 3.2422.89453m70.855-28.027h-6.7109m6.0586 4.2773h-6.6484m5.5195 4.2812h-6.4922m4.7812 4.2774h-6.0703m3.8672 4.2773h-5.2109m2.9648 4.2812h-4.1562m2.4336 4.2773h-3.2617m2.2852 4.2774h-2.75m13.129-27.809h-6.4492c-1.1602.0156-2.1094-.94921-2.1094-2.1406 0-1.1953.94922-2.1562 2.1094-2.1406h6.7109m-1.1484 8.5586h-6.1523c-1.1602.0156-2.1094-.94531-2.1094-2.1406 0-1.1914.94922-2.1562 2.1094-2.1367h6.6484m-1.9062 8.5547h-5.7148c-1.1602.0195-2.1094-.94531-2.1094-2.1367 0-1.1953.94922-2.1562 2.1094-2.1406h6.4922m-2.7734 8.5586h-5.0078c-1.1602.0156-2.1094-.94922-2.1094-2.1406 0-1.1953.94922-2.1562 2.1094-2.1406h6.0703m-3.3555 8.5586h-4.0586c-1.1602.0156-2.1094-.94532-2.1094-2.1406 0-1.1914.94922-2.1562 2.1094-2.1367h5.2109m-3.1992 8.5547h-3.2031c-1.1602.0195-2.1094-.94531-2.1094-2.1367 0-1.1953.94922-2.1562 2.1094-2.1406h4.1562m-2.3047 8.5586h-2.6797c-1.1602.0156-2.1094-.94531-2.1094-2.1406 0-1.1953.94921-2.1562 2.1094-2.1406h3.2617m-1.2422 8.5586h-2.4844c-1.1602.0156-2.1094-.94531-2.1094-2.1406 0-1.1914.94922-2.1562 2.1094-2.1367h2.75m24.277-27.812h-8.9297m7.75 4.2773h-8.5312m6.4062 4.2812h-7.789m4.7305 4.2774h-6.7578m3.1602 4.2773h-5.6953m2.3164 4.2812h-4.8633m2.3203 4.2773h-4.2617m2.7734 4.2774h-3.9023m12.551-32.09h8.7226c1.1602-.0156 2.1094.94532 2.1094 2.1406 0 1.1914-.94922 2.1562-2.1094 2.1406h-8.9297m-.32031 0h8.0703c1.1602-.0195 2.1094.94532 2.1094 2.1367 0 1.1953-.94922 2.1562-2.1094 2.1406h-8.5312m-.625 0h7.0312c1.1602-.0156 2.1094.94531 2.1094 2.1406 0 1.1914-.94922 2.1562-2.1094 2.1367h-7.789m-.92969 0h5.6602c1.1602-.0156 2.1094.94531 2.1094 2.1406 0 1.1914-.94922 2.1562-2.1094 2.1406h-6.7578m-1.2305 0h4.3906c1.1602-.0195 2.1094.94531 2.1094 2.1367 0 1.1953-.94922 2.1562-2.1094 2.1406h-5.6953m-1.3125 0h3.6289c1.1602-.0156 2.1094.94531 2.1094 2.1406 0 1.1914-.94922 2.1562-2.1094 2.1367h-4.8633m-1.0703 0h3.3906c1.1602-.0156 2.1094.94531 2.1094 2.1406 0 1.1953-.94921 2.1563-2.1094 2.1406h-4.2617m-.65625 0h3.4297c1.1602-.0195 2.1094.94531 2.1094 2.1367 0 1.1953-.94921 2.1562-2.1094 2.1406h-3.9023" stroke-width=".72322"/>
  <path d="m189.75 159.36-36.098 27.602m-118.26-2.5117c6.5508 6.043 15.258 9.7266 24.816 9.7266 20.348 0 36.844-16.695 36.844-37.285 0-7.0039-1.9102-13.559-5.2266-19.156m-56.344 46.66 48.824-37.336m11.918 17.777h32.242m61.285-30.598-44.695 34.176m8.5469 18.613-12.906-19.086m13.848 14.516-9.4844-14.02m-7.9336 37.859 16.473-19.273m-12.961-19.035c-10.098 7.6758-13.102 22.281-6.543 33.961.89062 1.5938 1.918 3.0508 3.0547 4.375m5.1836-35.824c-8.8437 6.7734-11.473 19.574-5.668 29.922.71875 1.2812 1.5312 2.4609 2.4258 3.543m15.504-21.531 35.156-26.883m-45.621 17.363c-7.6289 5.8398-9.9492 16.887-4.8633 25.941.55859.9961 1.1836 1.9258 1.8633 2.7812m12.379-14.797h-16.867m11.383 6.7227h-10.867m11.832-13.445h-10.59m-1.3125 26.281h-82.957m81.062 3.668h-75.598m71.922 7.3359h-65.008m63.23 3.668h-60.68m42.551 58.66c4.0781-17.289 5.5078-31.535 18.16-58.66 2.1211-4.5508 4.5625-9.4648 7.3828-14.816m-2.5469-3.5195h-78.035m60.695-.0391c.27344-15.688 5.6797-19.828 5.9219-37.82m-9.4844 37.82c.32813-15.688 6.8164-19.828 7.1055-37.82m-16.617 37.844c.40625-20.301 10.742-22.23 11.262-37.875m-16.012 37.875c.48047-19.73 12.437-22.211 13.035-37.879m-24.914 37.879c.67578-19.738 17.465-23.34 18.363-37.879m-21.93 37.926c.67188-19.781 18.004-23.934 19.5-37.926m-6.7265-3.0625h31.348m-32.355 4.8906h7.4297m-7.9726 1.8359h7.4765m-8.125 1.832h7.3867m-7.3047 1.8359h6.3398m-6.2226 1.832h5.0547m-4.9414 1.832h3.5742m-3.457 1.8359h1.9297m26.199-11.004h5.8164m-5.8906 1.8359h6.3555m-6.4844 1.832h7.0586m-7.2383 1.8359h6.9609m-7.1797 1.832h6.4062m-6.6836 1.832h5.9062m-6.2422 1.8359h5.4687m-5.8555 1.832h5.0781m-31.492 0h.20312m91.875-47.07c-5.9648-5.3203-13.793-8.5508-22.398-8.5508-18.77 0-33.871 15.316-33.871 34.227 0 5.8125 1.4258 11.266 3.9453 16.051m44.891-36.109c-4.1523-3.1406-9.2773-5-14.965-5-14.055 0-24.957 11.168-24.957 25.059 0 3.2695.60156 6.332 1.7109 9.1563m24.68-18.848c-.46095-.0547-.93751-.0859-1.4336-.0859-5.8516 0-9.6601 3.793-10.066 8.8672m14.602-11.156c-1.375-.49609-2.8867-.76952-4.5351-.76952-7.7695 0-13.074 5.6406-13.074 12.836 0 .46485.0234.91016.0664 1.3438m25.496-19.461c-3.5234-2.4492-7.7656-3.8867-12.488-3.8867-12.48 0-21.988 9.7852-21.988 22.004 0 2.5898.42578 5.0117 1.2188 7.2695m-30.633-5.6641c.42188 3.0234 4.2031-.86718 1.2617-1.2969 2.375 1.832 2.375-3.668 0-1.8359 2.9414-.4297-.83984-4.3203-1.2617-1.2969 1.7852-2.4453-3.5664-2.4453-1.7812 0-.42188-3.0234-4.2031.86718-1.2617 1.2969-2.375-1.832-2.375 3.668 0 1.8359-2.9414.42969.83984 4.3203 1.2617 1.2969-1.7852 2.4453 3.5664 2.4453 1.7812 0m.59375-2.2148c0-.84375-.66406-1.5273-1.4844-1.5273s-1.4844.68359-1.4844 1.5273.66406 1.5273 1.4844 1.5273 1.4844-.68359 1.4844-1.5273m-9.2109 4.2773v-8.5547m-43.523 40.91-4.7695 8.5859m-1.0547-8.9492-5.7148 10.285m32.32 75.695-46.781-75.621m21.664 34.977c-5.9258 2.2578-11.988 1.7969-18.098.30078 9.5859 10.602 9.043 26.199 11.437 40.348m24.648-.0039-24.207-39.129m32.984 39.191c-7.1133-27.676-24.977-84.164-48.43-81.246m52.047 81.23c-5.7266-27.395-11.73-65.562-37.109-75.195m1.7461 38.02 5.8086-2.1328m-4.7734 3.8047 5.8086-2.1328m-4.668 3.9844 5.8125-2.1367m-4.668 3.9844 5.8125-2.1328m-3.0586 3.3945 4.2031-1.543m-1.1133 2.6758 2.2578-.82812m-23.129-9.7578c1.8789 1.3203 3.7461 2.6562 5.125 4.4961 2.5859-1.0508 5.0469-.51563 7.5234-.18359m-8.9492 3.0664c3.293-.67969 6.8906-.58594 10.496-.46875m-6.6523 14.242c3.0781-2.7422-.36328-8.8477 4.1172-11.156 4.2852-2.2031 7.0234 4.6406 4.1602 6.1133-2.375 1.2227-5.3476-3.0547-2.375-4.2773 1.6797-.69141 2.3906 3.5 1.1875 2.4453m-7.1133 6.9258c3.9727-1.4062 7.1484 5.0625 11.508 2.3828 4.1094-2.5273-.02344-8.582-2.7695-6.8945-2.2812 1.4024-.375 6.2812 2.2266 4.3633 1.4687-1.082-1.582-3.957-1.3633-2.3476m5.5898 1.875c-.45312 2.5391-1.0547 4.9453-3.3242 5.918.49609 3.4102.16797 6.3984-1.7812 8.5586 2.0625.19922 4.0937.24219 6.5351 2.4453 3.3242-1.2148 6.2422-.39062 9.2031.23438m-8.5156-13.699c-.60156 1.3789-1.3086 2.6875-2.4687 3.6836.17578 1.7539.03125 3.2266-.59375 4.2812 1.0078-.14843 2.5859-.0742 4.1562 1.2227 1.0703-.84766 2.4492-1.0547 3.8828-1.1484m12.102 2.1406c1.6562.55468 3.1172 1.5976 4.543 2.7266m-5.3672-5.707c1.75.53906 3.2773 1.6211 4.7656 2.7969m-5.5586-5.5664c1.8594.66797 3.4727 1.9375 5.0781 3.2305m-6.0234-6.4141c1.9766.45703 3.6602 1.6406 5.3008 2.9336m-6.1328-5.7461c2.1016.58594 3.8789 1.9766 5.6406 3.3984m-6.6367-6.5156c2.2305.32812 4.082 1.5938 5.875 3.0039m-6.8516-6.0312c2.3047.65625 4.5078 2.4727 6.4258 4.0352m-7.4375-7.043c2.4141.53125 4.7344 2.4219 6.7461 4.0625m-7.7344-6.918c2.5859.64844 5.0586 2.8125 7.1445 4.5039m-8.1055-7.2344c2.6094 1.0586 5.6211 3.1562 7.4883 4.6211m-8.6328-7.7344c2.6328.93359 5.8164 3.1094 7.8359 4.6719m-9.0273-7.7695c2.625.75782 5.9726 2.9922 8.1601 4.6562m-9.3164-7.5508c2.7773.8125 6.3555 3.2617 8.5078 4.9414m-9.789-8.0117c2.6914.52734 6.4141 2.9922 8.7891 4.793m-10.059-7.7109c2.7852.51172 6.7226 3.1523 9.1016 4.9844m-10.141-7.293c2.8555.76953 6.7148 2.5625 8.8906 4.0664m-10.297-7.0273c2.8711.73437 6.8594 2.5742 9.0937 4.1133m-10.66-7.2305c2.5.44141 6.3984 2.0938 9.0117 3.6523m-10.535-6.5078c2.6484.53516 6.6484 2.2852 9.1641 3.8594m-10.898-6.9062c2.6641.55078 6.668 2.3047 9.168 3.8789m-10.746-6.4375c3.1094.82031 7.4414 2.8828 9.4922 4.4648m-11.461-7.418c2.8594.72265 6.8516 2.5586 9.1055 4.1016m-11.332-7.1094c2.2773.5 5.4492 1.8281 7.8476 3.1641m51.344 43.172c2.4414-9.6055 5.9297-20.465 12.543-34.848m-11.797 44.781c-.34375-4.4844-.96875-12.773-.96875-13.66 0-1.832-2.1562-17.422-4.1602-18.945-2.125-1.6211-7.2148-10.363-8.3164-11.004-3.0664-1.7812-8.1562 1.793-8.914 2.4453-4.8164-1.3945-15.633 11.867-11.887 14.059l-2.7617 1.2148m35.547 7.3633c2.2656-7.5547 5.3555-16.07 10.008-26.324m-11.148 20.062c1.9883-5.9688 4.5117-12.547 7.8555-20.02m2.7422 1.1992h-3.2617m2.4453 1.832h-3.2383m2.4453 1.8359h-3.2422m2.4648 1.832h-3.2226m2.4648 1.8359h-3.207m2.4648 1.832h-3.207m2.4922 1.8359h-3.1875m2.4805 1.832h-3.168m2.5117 1.832h-3.1875m2.5312 1.8359h-3.1719m2.5195 1.832h-3.1562m2.539 1.8359h-2.3789m1.7656 1.832h-1.5234m-29.469-13.883c-2.1914 2.2344-4.2617 4.7188-6.168 7.5352m17.645-16.891c-2.2422 1.5156-4.4414 3.1172-6.5664 4.8672m3.6094-4.8672c-5.625 3.9688-10.93 8.5898-15.387 14.957m12.5-14.953c-4.8008 3.5547-9.3242 7.6836-13.227 13.086m10.445-13.098c-4.0312 3.1406-7.832 6.7539-11.191 11.27m8.4531-11.25c-3.2852 2.7109-6.3984 5.7812-9.2148 9.4648m6.6094-9.4883c-2.6133 2.2812-5.1055 4.8242-7.4062 7.7539m4.8359-7.7344c-1.9766 1.8281-3.8711 3.8281-5.6562 6.0508m3.2109-6.0742c-1.3984 1.3711-2.7539 2.8398-4.0508 4.4219m1.6289-4.3945c-.85547.89062-1.6914 1.8203-2.5039 2.793m.17969-2.7969c-.36719.40625-.73047.82031-1.0898 1.2461m9.8164 14.816c-.66016.88672-1.3047 1.8047-1.9297 2.7617m19.945-18.82c-1.3086.85546-2.6055 1.7305-3.8867 2.6406m-10.969-11.199c-1.3672-.008-2.707.38672-4.0156 1.1211m-2.5391-.85156c3.6523-2.5469 7.5117-1.4688 11.309-1.4922-.51953 1.1367-1.9023 1.8477-6.6367 3.332m7.082.1289c-1.3672.008-2.7031-.38672-4.0156-1.1211m-2.5352.85156c3.6523 2.5469 7.5117 1.4688 11.305 1.4922-.51562-1.1406-1.8984-1.8477-6.6328-3.332m7.2305-.0274c-1.3672-.0117-2.7031.38672-4.0156 1.1211m-2.5352-.85157c3.6523-2.5469 7.5117-1.4687 11.305-1.4922-.51563 1.1367-1.8984 1.8476-6.6328 3.332m7.082.12891c-1.3672.008-2.7031-.39063-4.0156-1.1211m-2.5352.85156c3.6484 2.5469 7.5078 1.4688 11.305 1.4922-.51953-1.1406-1.9023-1.8516-6.6328-3.332m6.4922-.36328c-1.3672-.0117-2.707.38672-4.0195 1.1211m-2.5352-.85547c3.6523-2.5469 7.5117-1.4688 11.309-1.4883-.51953 1.1367-1.9023 1.8477-6.6367 3.3281m7.082.1289c-1.3672.0117-2.7031-.38672-4.0156-1.1211m-2.5352.85547c3.6523 2.5469 7.5078 1.4688 11.305 1.4883-.51953-1.1367-1.9023-1.8477-6.6328-3.3281m7.2305-.0274c-1.3672-.0117-2.7031.38672-4.0156 1.1211m-2.5352-.85547c3.6523-2.5469 7.5117-1.4688 11.305-1.4883-.51953 1.1367-1.8984 1.8476-6.6328 3.3281m7.082.12891c-1.3672.0117-2.707-.38672-4.0156-1.1211m-2.5391.85547c3.6523 2.5469 7.5117 1.4648 11.309 1.4883-.51953-1.1367-1.9023-1.8476-6.6367-3.332m7.3594.0156c-1.3672-.0117-2.7031.38672-4.0156 1.1211m-2.5352-.85547c3.6523-2.5469 7.5117-1.4688 11.305-1.4883-.51562 1.1367-1.8984 1.8477-6.6328 3.3281m7.082.12891c-1.3672.0117-2.7031-.38672-4.0156-1.1211m-2.5352.85547c2.9375 2.0508 6.0117 1.75 9.082 1.5664m.76562-1.4648c-.99218-.54688-2.5781-1.1289-5.1758-1.9414m-55.617-.23828c-1.3672-.008-2.707.38672-4.0195 1.1211m-2.5352-.85156c3.6523-2.5469 7.5117-1.4688 11.309-1.4922-.51953 1.1367-1.9023 1.8477-6.6367 3.332m7.082.1289c-1.3672.008-2.7031-.38672-4.0156-1.1211m-2.5352.85156c3.6523 2.5469 7.5078 1.4688 11.305 1.4922-.51953-1.1406-1.9023-1.8477-6.6328-3.332m-9.6328 3.7383c1.9375.0664 3.8906-.21094 5.832-.19922-.51953-1.1367-1.9023-1.8477-6.6367-3.3281m1.8828 2.1055c-.92969.008-1.8437-.17187-2.7461-.51953m-2.8867-3.1484c1.7266.004 3.4609.21876 5.1836.21094-.35156.76953-1.0977 1.3438-3.0117 2.0938m70.441-.87109c-.93749.16015-1.8594.50781-2.7734 1.0195m-2.5352-.85547c1.9883-1.3867 4.039-1.6992 6.1055-1.6992m17.254-55.176-6.1133-.95704c-.26172-1.5312.22656-2.2266.59375-3.0547l5.9844 1.9805m.55859-1.4414-5.5117-2.6367c.13672-1.5508.78125-2.0899 1.3476-2.793l5.1484 3.6523m.98437-1.2539-4.5742-4.2812c.6836-1.3867 1.4805-1.6367 2.2578-2.0742l3.7656 4.957m1.8398-1.2188-2.7344-5.3672c1.1094-1.0547 1.9414-1.0078 2.8164-1.1367l1.8359 5.668m1.7461-.48438-1.2031-6.4062c1.3633-.67968 2.1445-.38281 3.0195-.25l.31249 6.3984m2.3359.0508.66798-6.7344c1.4922-.26952 2.164.23047 2.9726.60938l-1.4609 6.5391m-16.977 13.91-6.0195.91406c-.68359-1.3867-.41406-2.1992-.30078-3.1016h6.5625m-14.645 4.1367c-.0625-.83985-.77734-1.4688-1.5977-1.4023-.8164.0625-1.4258.80078-1.3633 1.6406.0625.84375.78124 1.4688 1.5976 1.4062.81641-.0664 1.4297-.80469 1.3633-1.6445m-3.0781-1.2852c-3.1016-1.5898-2.5898 5.1133.23437 3.0469-1.5469 3.1914 4.9726 2.6641 2.9609-.23828 3.1016 1.5898 2.5898-5.1133-.23047-3.0469 1.543-3.1914-4.9726-2.6641-2.9648.23828m3.5742-8.8555c.14844-.83203-.39062-1.625-1.1992-1.7734-.80468-.14844-1.5781.40235-1.7226 1.2344-.14453.82812.39063 1.625 1.1992 1.7734.80859.14843 1.5781-.40234 1.7226-1.2344m-2.6602-2.043c-2.6094-2.3477-3.7656 4.2695-.52344 3.0078-2.2812 2.6836 4.1523 3.8711 2.9219.53906 2.6094 2.3438 3.7656-4.2734.52735-3.0078 2.2773-2.6836-4.1562-3.8711-2.9258-.53906m6.6875-7.1836c.32422-.77735-.0234-1.6758-.77734-2.0078-.75781-.33203-1.6289.0273-1.9531.80469-.32032.77734.0273 1.6758.78124 2.0078.75391.33203 1.6289-.0312 1.9492-.80469m-2.1445-2.6094c-2.0312-2.8867-4.6016 3.293-1.168 2.8125-2.8086 2.0859 3.1992 4.7344 2.7305 1.1992 2.0312 2.8906 4.6016-3.2891 1.168-2.8086 2.8086-2.0859-3.1992-4.7344-2.7305-1.2031m8.7305-4.2148c.60156-.57421.63281-1.5391.0742-2.1602-.55859-.61719-1.5-.64844-2.1016-.0742-.59766.57421-.63281 1.543-.0703 2.1602.55859.61719 1.4961.65235 2.0976.0742m-.9375-3.2773c-.72265-3.4844-5.5039 1.1016-2.1758 2.0859-3.3867.74219 1.0703 5.6602 2.0273 2.2344.72266 3.4883 5.5039-1.0977 2.1719-2.082 3.3906-.74219-1.0664-5.6641-2.0234-2.2383m9.1992-.91407c.78515-.24219 1.2344-1.0937 1-1.9023-.23438-.80859-1.0625-1.2695-1.8476-1.0273-.78516.24219-1.2344 1.0898-1 1.9023.23438.80859 1.0625 1.2695 1.8477 1.0273m.57812-3.3672c.85937-3.4492-5.4062-1.5312-2.8476.87499-3.3594-.88671-1.4922 5.5586.84766 2.9297-.86329 3.4492 5.4023 1.5312 2.8476-.87499 3.3555.88671 1.4883-5.5586-.84765-2.9297m9.832 2.1406c.82031.0273 1.5039-.63281 1.5312-1.4766.0273-.84375-.61328-1.5508-1.4336-1.5781-.82031-.0273-1.5078.6328-1.5352 1.4766-.0273.84374.61719 1.5508 1.4375 1.5781m1.582-3.0039c1.8828-2.9922-4.6523-3.2148-2.9688-.10156-2.9102-1.9336-3.1289 4.7852-.0977 3.0547-1.8828 2.9961 4.6523 3.2188 2.9687.10157 2.9102 1.9336 3.125-4.7852.0977-3.0547m8.0937 5.5469c.75783.32421 1.6289-.0391 1.9453-.81641.32032-.78126-.0351-1.6758-.79297-2.0039-.75781-.32422-1.6289.0391-1.9453.81641-.3164.78125.0391 1.6758.79296 2.0039m2.5195-2.2266c2.7969-2.1094-3.2305-4.7109-2.7383-1.1836-2.0469-2.875-4.5781 3.3242-1.1484 2.8164-2.7969 2.1055 3.2305 4.7109 2.7383 1.1836 2.0469 2.875 4.582-3.3242 1.1484-2.8164m-8.2031 14.492 2.2383-4.4492c1.0937.22656 1.625.67969 2.0742 1.1641m-63.523 138.18c12.105-41.836 41.109-56.41 27.426-75.77m25.703 1.8242c-1.7852 11.004 8.3203 11.004 6.5351 0 10.695 1.832 10.695-8.5586 0-6.7226 1.7852-11.004-8.3203-11.004-6.5351 0-10.695-1.8359-10.695 8.5547 0 6.7226m3.2695 4.5859c0-7.3359.59374-7.9492 7.7226-7.9492-7.1289 0-7.7226-.60937-7.7226-7.9453 0 7.3359-.59765 7.9453-7.7266 7.9453 7.1289 0 7.7266.61329 7.7266 7.9492m1.4844-7.9492c0-.84375-.66406-1.5273-1.4844-1.5273-.82422 0-1.4883.68359-1.4883 1.5273s.66407 1.5274 1.4883 1.5274c.82031 0 1.4844-.6836 1.4844-1.5274m-8.168 3.5274c-.41406 1.0352-.74609 2.7461-.74609 4.1133 1.332 0 2.9922-.33984 3.9961-.76563m6.8633 0c1.0039.42579 2.664.76563 3.9961.76563 0-1.3672-.33203-3.0781-.74609-4.1133m-13.363-7.0547c-.41406-1.0312-.74609-2.7422-.74609-4.1133 1.332 0 2.9922.34375 3.9961.76953m6.8633 0c1.0039-.42578 2.664-.76953 3.9961-.76953 0 1.3711-.33203 3.082-.74609 4.1133m-11.055-19.613c.1211.82031.41015 1.9492 1.1055 2.6641 1.1875 1.2227 8.3203 4.8906 9.5078 4.8906 1.1875 0 2.375-1.832 3.5664-1.832 1.1875 0 1.7812-3.0586-.59767-3.0586-2.375 0-4.1562 1.2227-4.1562 1.2227.20703-2.6406-1.5274-3.3125-2.9727-4.2774m2.1523 1.5586c.5586-2.8281.15626-5.1016-.70702-7.1094m6.2812 7.9961c8.9101 3.0547 9.7265-1.4609 1.1875-3.0586-6.5391-1.2227-7.0742 1.0391-1.1875 3.0586m-.21485-3.2656c8.3945 2.3125 9.2148-1.8711 1.0156-3.1055-6.2773-.94531-6.75 1.5234-1.0156 3.1055m.12891-3.4961c8.543 1.1836 8.8789-3.0781.65233-3.2148-6.3008-.10547-6.4883 2.4062-.65233 3.2148m.0703 10.402c.39453.4375.92577.875 1.5938 1.2734 5.3516 3.2031 6.1992-1.7422.90233-3.8711-1.0859-.43359-1.918-.51562-2.4804-.35937m-1.7852 4.207c-2.164 4.8047 4.1602 9.7773 5.9414 15.281 1.0039-6.582 1.6172-12.965-5.9414-15.281 2.1172 3.2227 3.5938 6.9062 5.3477 10.391m-12.375-5.6289c1.5781-.41797 3.1133-1.582 4.6523-4.1524-7.4336-.78515-13.383-.39843-15.453 3.0547 3.0664-.3125 5.8125.9961 8.4062 1.25m7.0469-4.3047c-2.8555 1.2539-6.1328 2.0508-10.102 2.1016m-49.141 74.387c-2.2461.80469-4.2539 1.9766-5.9531 3.8516-2.2812 2.5156-4.0664 6.3672-4.914 12.562m10.957-15.148c-1.9805.74218-3.7031 1.7969-5.1758 3.4219-2.0547 2.2656-3.7461 5.8008-4.5781 11.719m9.8476-13.875c-1.7031.67969-3.1484 1.6094-4.3984 2.9883-1.8359 2.0234-3.4297 5.2422-4.2461 10.883m7.9844-10.855c-.74609.44531-1.4023.98046-2 1.6406-1.4062 1.5469-2.8008 4.1445-3.5781 9.2031m5.9102-12.391c-1.2305.58203-2.2734 1.332-3.2031 2.3555-1.6172 1.7812-3.1133 4.6875-3.9102 10.039m6.418-9.1133c-.26953.22656-.52344.47266-.76953.73828-1.1914 1.3164-2.4883 3.6094-3.2422 8.3711m-13.531.0117c-1.082-6.4726-3.2734-11.469-6.5312-15.059-1.9375-2.1367-4.1562-3.6602-6.4258-4.7578m11.754 19.816c-1.0664-6.1992-3.1641-10.879-6.1953-14.223-1.5859-1.75-3.3711-3.0625-5.2226-4.0586m10.211 18.285c-1.0469-5.9258-3.0469-10.293-5.8594-13.395-1.2266-1.3516-2.582-2.4297-4-3.293m8.6523 16.691c-1.0234-5.6445-2.9258-9.7031-5.5195-12.562-.85937-.94922-1.7852-1.7539-2.7539-2.4375m1.3516 6.4688c1.4023 2.0469 2.543 4.7891 3.2891 8.5273m2.4258.0117c-1-5.3633-2.8008-9.1133-5.1836-11.738-.48047-.53125-.98047-1.0117-1.5-1.4492m5.4726 13.188c-1.0078-5.2266-2.7812-8.7266-5.043-11.125m28.117 4.3203c-.83984 1.2148-1.7188 3.1992-2.3086 6.793m-27.82-2.625c1.5547.57813 2.9375 1.5703 4.293 2.6406m-2.1211-22.004c4.5039 2.7852 8.9687 5.8711 14.262 1.832v-.60938c-7.1289 4.2774-8.3164 1.2227-14.262-1.2226m20.207 1.2226-.004-.67187c2.3789 2.5039 5.3906 2.0547 8.3203 1.2812-4.418 2.3125-6.4726 1.0117-8.3164-.60938 0 0-.59766-1.8359-.59766-5.5039 0-3.0547 2.3789-10.391 2.3789-11.613 0-1.5938-1.4609-2.7031-2.3789-2.4453-.57031.16407-2.375-2.4453-2.375-2.4453m-3.5664 6.7266c-1.1875 0-3.5664-4.2812-.59375-4.2812 4.7539 1.8359 7.1328.61328 0 0m-2.9727-4.2773-.59375-1.2227 1.1914.60938-.59766.61328m11.293 0-.59375-1.2227-.59375.60938 1.1875.61328m-10.695-.61328c1.1875 0 2.375.61328 3.5625.61328 1.1914 0 1.7852-.61328 2.3789-.61328s1.1875.61328 1.7812.61328c.59374 0 1.1875-.61328 1.7852-.61328m-7.1328-3.0547c1.6055-.45703 2.5977-2.5078 5.3477 0m-5.3477 24.449c-6.2031 2.2109-8.8359-3.4883-11.883-3.668 4.7539 0 4.1641-1.0664 5.9414-1.2226 4.5508-.39454 6.0508 3.2305 5.0703 5.1797m16.32-.89843c-4.1602 3.668-6.5352-2.4453-8.914-1.8359 3.4766-.80469 5.9453-3.668 8.914.61328m59.742-66.695c-.58984 2.6758-1.0977 5.3477-1.9726 7.793m4.625-8.9453c-.73827 2.918-1.2266 5.918-2.0469 8.6953m4.5234-23.605c-.73046-.54297-2.1328-.78515-3.2422-.89453m-70.855 28.027h6.7109m-6.0586-4.2774h6.6484m-5.5195-4.2812h6.4922m-4.7812-4.2773h6.0703m-3.8672-4.2773h5.2109m-2.9648-4.2813h4.1562m-2.4336-4.2773h3.2617m-2.2852-4.2773h2.75m-13.129 27.809h6.4492c1.1602-.0156 2.1094.94922 2.1094 2.1406 0 1.1953-.94922 2.1562-2.1094 2.1406h-6.7109m1.1484-8.5586h6.1523c1.1602-.0156 2.1094.94531 2.1094 2.1406 0 1.1914-.94922 2.1562-2.1094 2.1367h-6.6484m1.9062-8.5547h5.7148c1.1602-.0195 2.1094.94532 2.1094 2.1367 0 1.1953-.94922 2.1562-2.1094 2.1406h-6.4922m2.7734-8.5586h5.0078c1.1602-.0156 2.1094.94922 2.1094 2.1406 0 1.1953-.94922 2.1562-2.1094 2.1406h-6.0703m3.3555-8.5586h4.0586c1.1602-.0156 2.1094.94531 2.1094 2.1406 0 1.1914-.94922 2.1562-2.1094 2.1367h-5.2109m3.1992-8.5547h3.2031c1.1602-.0195 2.1094.94531 2.1094 2.1367 0 1.1953-.94922 2.1562-2.1094 2.1406h-4.1562m2.3047-8.5586h2.6797c1.1602-.0156 2.1094.94531 2.1094 2.1406s-.94921 2.1562-2.1094 2.1406h-3.2617m1.2422-8.5586h2.4844c1.1602-.0156 2.1094.94531 2.1094 2.1406 0 1.1914-.94922 2.1562-2.1094 2.1367h-2.75m-24.277 27.812h8.9297m-7.75-4.2774h8.5312m-6.4062-4.2812h7.7891m-4.7305-4.2773h6.7578m-3.1602-4.2773h5.6953m-2.3164-4.2813h4.8633m-2.3203-4.2773h4.2617m-2.7734-4.2773h3.9023m-12.551 32.09h-8.7226c-1.1602.0156-2.1094-.94531-2.1094-2.1406 0-1.1914.94922-2.1562 2.1094-2.1406h8.9297m.32031 0h-8.0703c-1.1602.0195-2.1094-.94531-2.1094-2.1367 0-1.1953.94922-2.1562 2.1094-2.1406h8.5312m.625 0h-7.0312c-1.1602.0156-2.1094-.94531-2.1094-2.1406 0-1.1914.94922-2.1562 2.1094-2.1367h7.7891m.92969 0h-5.6602c-1.1602.0156-2.1094-.94531-2.1094-2.1406 0-1.1914.94922-2.1562 2.1094-2.1406h6.7578m1.2305 0h-4.3906c-1.1602.0195-2.1094-.94531-2.1094-2.1367 0-1.1953.94922-2.1563 2.1094-2.1406h5.6953m1.3125 0h-3.6289c-1.1602.0156-2.1094-.94531-2.1094-2.1406 0-1.1914.94922-2.1562 2.1094-2.1367h4.8633m1.0703 0h-3.3906c-1.1602.0156-2.1094-.94532-2.1094-2.1406s.94921-2.1562 2.1094-2.1406h4.2617m.65625 0h-3.4297c-1.1602.0195-2.1094-.94532-2.1094-2.1367 0-1.1953.94922-2.1562 2.1094-2.1406h3.9023" stroke-width=".72322"/>
  <path d="m48.981 129.04c-.04297 1.8867-1.4336 2.0117-2.8437 2.1133m3.2031 3.332c-.42969 1.1406-.74218 2.1055-.24218 2.5781m.32031.49609c-.4336 1.1406-.74219 2.1055-.2461 2.5781m.2461.8125c-.4336 1.1406-.74219 2.1055-.2461 2.5781m-3.668-9.2227c-.22266.36328-.33593.75391-.30858 1.1836m-.43751 2.1328c-.17188.39062-.23438.79297-.14844 1.2148m.32813 2.5508c-.17578.38672-.2422.78907-.16016 1.2109m-.01954-12.605c-.22266.36328-.33593.75391-.3086 1.1836m93.601-70.863c-3.5469-3.6406-10.684-2.4727-10.43-1.4883m5.082 6.9883c-2.5625 1.6367-4.7539-3.0547-5.3476-4.8906m-7.7266.61328c-2.0859-6.2695-6.5352-4.8906-7.1289-3.0586m16.949.04688c-.55078.55859-.90625 1.4258-.90625 2.3984 0 1.6875 1.0664 3.0586 2.3789 3.0586s2.375-1.3711 2.375-3.0586c0-.52734-.10156-1.0273-.28906-1.4609m-20.922-.31641c-.11719.35937-.17969.75391-.17969 1.168 0 1.6875 1.0625 3.0547 2.375 3.0547s2.3789-1.3672 2.3789-3.0547c0-.27734-.0273-.54297-.082-.79688" stroke-width=".36161"/>
 </g>
 <g>
  <path d="m67.75 146.15c-1.5156 1.4492-1.9219 1.2305-2.8359 1.5781l1.6367 1.6367c.34766-.91407.125-1.3242 1.5781-2.8359.03125-.0352.08984-.0352.125 0s.03516.0898 0 .125c-.48047.69531-.43359 1.625.10938 2.2695s1.4492.84766 2.2148.49219c.76562-.35156 1.2031-1.1758 1.0625-2.0078-.13672-.83204-.81641-1.4648-1.6523-1.5547-.04687-.004-.07813-.043-.07813-.0859 0-.043.03125-.082.07813-.0898.89844.26562 1.8633-.11328 2.3398-.91797.48047-.80469.35156-1.832-.3125-2.4961-.66406-.66406-1.6914-.79296-2.4961-.3125-.80469.47657-1.1836 1.4414-.91797 2.3398-.0078.0469-.04687.0781-.08984.0781s-.08203-.0312-.08984-.0781c-.08594-.83594-.72266-1.5156-1.5547-1.6524-.82813-.14062-1.6523.29688-2.0039 1.0625-.35547.76172-.15234 1.6719.49219 2.2148s1.5742.58594 2.2656.10937c.03516-.0352.09375-.0352.12891 0 .03516.0352.03516.0898 0 .125z"/>
  <path d="m54.914 155.57c-1.5117 1.4492-1.9219 1.2305-2.8359 1.5742l1.6367 1.6406c.34766-.91406.12891-1.3242 1.5781-2.8359.03516-.0352.08984-.0352.125 0s.03516.0898 0 .125c-.47656.69531-.43359 1.625.10938 2.2695.54297.64453 1.4531.84375 2.2188.49219.76562-.35547 1.1992-1.1758 1.0586-2.0078-.13672-.83203-.81641-1.4688-1.6523-1.5547-.04687-.004-.07813-.043-.07813-.0859 0-.0469.03125-.082.07813-.0898.89844.26562 1.8633-.11328 2.3398-.91797.48047-.80469.35156-1.8359-.3125-2.4961-.66016-.66407-1.6914-.79297-2.4961-.3125-.80469.47656-1.1836 1.4414-.91797 2.3398-.0078.043-.04687.0781-.08984.0781s-.08203-.0352-.08594-.0781c-.08984-.83984-.72266-1.5156-1.5547-1.6523-.83203-.14063-1.6562.29297-2.0078 1.0586-.35547.76563-.15234 1.6758.49219 2.2188s1.5742.58594 2.2695.10938c.03516-.0352.08984-.0352.125 0s.03516.0898 0 .125z"/>
  <path d="m42.555 165.59c-1.5156 1.4492-1.9219 1.2305-2.8359 1.5781l1.6367 1.6367c.34766-.91407.125-1.3242 1.5781-2.8359.03125-.0352.08984-.0352.125 0s.03516.0898 0 .125c-.48047.69531-.43359 1.625.10938 2.2695s1.4492.84766 2.2148.49219c.76563-.35156 1.2031-1.1758 1.0625-2.0078-.13672-.82813-.81641-1.4648-1.6523-1.5508-.04687-.008-.07813-.0469-.07813-.0898 0-.043.03125-.082.07813-.0898.89844.26562 1.8633-.11328 2.3398-.91797.48047-.80469.35156-1.832-.3125-2.4961-.66406-.66406-1.6914-.79296-2.4961-.3125-.80469.47657-1.1836 1.4414-.91797 2.3398-.0078.0469-.04687.0781-.08984.0781s-.08203-.0312-.08984-.0781c-.08594-.83594-.72266-1.5156-1.5547-1.6524-.82812-.14062-1.6523.29688-2.0039 1.0625-.35547.76563-.15234 1.6719.49219 2.2148.64453.54297 1.5742.58594 2.2656.10937.03516-.0352.09375-.0352.12891 0 .03516.0352.03516.0898 0 .125z"/>
 </g>
 <path d="m176.02 185.96c.043-1.8867 1.4336-2.0117 2.8438-2.1133m-3.2031-3.332c.42968-1.1406.74218-2.1055.24218-2.5781m-.32031-.49609c.43359-1.1406.74219-2.1055.24609-2.5781m-.24609-.8125c.43359-1.1406.74219-2.1055.24609-2.5781m3.668 9.2226c.22266-.36328.33593-.7539.30858-1.1836m.43751-2.1328c.17188-.39063.23438-.79297.14844-1.2148m-.32813-2.5508c.17578-.38672.24219-.78906.16015-1.2109m.0195 12.605c.22266-.36328.33593-.7539.3086-1.1836m-93.601 70.863c3.5469 3.6406 10.684 2.4727 10.43 1.4883m-5.082-6.9883c2.5625-1.6367 4.7539 3.0547 5.3476 4.8906m7.7266-.61328c2.0859 6.2695 6.5352 4.8906 7.1289 3.0586m-16.949-.0469c.55078-.5586.90625-1.4258.90625-2.3984 0-1.6875-1.0664-3.0586-2.3789-3.0586-1.3125 0-2.375 1.3711-2.375 3.0586 0 .52734.10156 1.0273.28906 1.4609m20.922.3164c.11719-.35937.17969-.7539.17969-1.168 0-1.6875-1.0625-3.0547-2.375-3.0547s-2.3789 1.3672-2.3789 3.0547c0 .27735.0273.54297.082.79688" fill="none" stroke="#4242ff" stroke-linecap="round" stroke-linejoin="round" stroke-width=".36161"/>
 <g>
  <path d="m157.25 168.85c1.5156-1.4492 1.9219-1.2305 2.8359-1.5781l-1.6367-1.6367c-.34766.91406-.125 1.3242-1.5781 2.8359-.0312.0352-.0898.0352-.125 0s-.0352-.0898 0-.125c.48047-.69531.4336-1.625-.10937-2.2695s-1.4492-.84766-2.2148-.49219c-.76562.35156-1.2031 1.1758-1.0625 2.0078.13672.83203.81641 1.4648 1.6524 1.5547.0469.004.0781.043.0781.0859 0 .043-.0312.082-.0781.0898-.89844-.26562-1.8633.11328-2.3398.91797-.48046.80469-.35156 1.832.3125 2.4961.66407.66407 1.6914.79297 2.4961.3125.80469-.47656 1.1836-1.4414.91797-2.3398.008-.0469.0469-.0781.0898-.0781.043 0 .082.0312.0898.0781.0859.83594.72266 1.5156 1.5547 1.6523.82813.14063 1.6524-.29687 2.0039-1.0625.35547-.76171.15234-1.6719-.49219-2.2148s-1.5742-.58594-2.2656-.10937c-.0352.0352-.0937.0352-.12891 0-.0352-.0352-.0352-.0898 0-.125z"/>
  <path d="m170.09 159.43c1.5117-1.4492 1.9219-1.2305 2.8359-1.5742l-1.6367-1.6406c-.34766.91406-.12891 1.3242-1.5781 2.8359-.0352.0352-.0898.0352-.125 0s-.0352-.0898 0-.125c.47656-.69532.43359-1.625-.10937-2.2695-.54297-.64454-1.4531-.84375-2.2188-.49219-.76563.35547-1.1992 1.1758-1.0586 2.0078.13672.83203.81641 1.4688 1.6524 1.5547.0469.004.0781.043.0781.0859 0 .0469-.0312.082-.0781.0898-.89844-.26563-1.8633.11328-2.3398.91797-.48047.80469-.35156 1.8359.3125 2.4961.66016.66406 1.6914.79297 2.4961.3125.80468-.47656 1.1836-1.4414.91796-2.3398.008-.043.0469-.0781.0898-.0781.043 0 .082.0352.0859.0781.0898.83984.72265 1.5156 1.5547 1.6523.83203.14063 1.6562-.29297 2.0078-1.0586.35546-.76563.15234-1.6758-.49219-2.2188s-1.5742-.58594-2.2695-.10938c-.0352.0352-.0898.0352-.125 0s-.0352-.0898 0-.125z"/>
  <path d="m182.45 149.41c1.5156-1.4492 1.9219-1.2305 2.8359-1.5781l-1.6367-1.6367c-.34766.91406-.125 1.3242-1.5781 2.8359-.0312.0352-.0898.0352-.125 0s-.0352-.0898 0-.125c.48046-.69531.43359-1.625-.10938-2.2695s-1.4492-.84766-2.2148-.49219c-.76563.35156-1.2031 1.1758-1.0625 2.0078.13672.82813.8164 1.4648 1.6523 1.5508.0469.008.0781.0469.0781.0898 0 .043-.0312.082-.0781.0898-.89844-.26562-1.8633.11328-2.3398.91797-.48047.80469-.35157 1.832.3125 2.4961.66406.66407 1.6914.79297 2.4961.3125.80469-.47656 1.1836-1.4414.91797-2.3398.008-.0469.0469-.0781.0898-.0781.043 0 .082.0312.0898.0781.0859.83594.72265 1.5156 1.5547 1.6523.82813.14063 1.6524-.29687 2.0039-1.0625.35547-.76562.15234-1.6719-.49219-2.2148s-1.5742-.58594-2.2656-.10937c-.0352.0352-.0937.0352-.12891 0-.0352-.0352-.0352-.0898 0-.125z"/>
 </g>
 <path d="m12.449 29.25c9 0 6.6016 10.801 15.602 10.801m-13.051-13.801v-8.5508c0-2.8984 2.3516-5.25 5.25-5.25 2.8984 0 5.25 2.3516 5.25 5.25v17.102c0 2.8984-2.3516 5.25-5.25 5.25-2.8984 0-5.25-2.3516-5.25-5.25zm0 0" fill="none" stroke="#000" stroke-linecap="square" stroke-miterlimit="1.5" stroke-width="2.4"/>
 <path d="m20.879 61.621c.10547 4.9141 1.1484 5.2305 2.0898 7.3203h-5.4375c.94141-2.0898 1.9883-2.4062 2.0938-7.3203 0-.11328-.09375-.20703-.21094-.20703-.11719 0-.21094.09375-.21094.20703-.35547 1.9453-1.9727 3.4141-3.9453 3.582-1.9688.16797-3.8086-1.0039-4.4922-2.8594s-.04297-3.9414 1.5664-5.0898c1.6094-1.1523 3.7891-1.082 5.3242.16406.08594.0625.19922.05469.27344-.01953.07422-.07422.08203-.1875.01953-.27344-1.9297-1.0508-2.9023-3.2773-2.3594-5.4102.54297-2.1328 2.4609-3.625 4.6602-3.625s4.1172 1.4922 4.6602 3.625c.54297 2.1328-.42578 4.3594-2.3594 5.4102-.0625.08594-.05469.19922.01953.27344.07422.07422.19141.08203.27344.01953 1.5352-1.2461 3.7148-1.3164 5.3242-.16406 1.6094 1.1484 2.25 3.2344 1.5703 5.0898-.68359 1.8555-2.5273 3.0273-4.4961 2.8594-1.9727-.16797-3.5859-1.6367-3.9453-3.582 0-.11328-.09375-.20703-.21094-.20703-.11328 0-.20703.09375-.20703.20703z"/>
 <path d="m58.723 66.227c.21875 10.223 2.3906 10.875 4.3477 15.223h-11.309c1.957-4.3477 4.1328-5 4.3516-15.223 0-.24219-.19531-.4375-.4375-.4375-.23828 0-.43359.19531-.43359.4375-.74609 4.0469-4.1055 7.0938-8.207 7.4414-4.0977.35156-7.9258-2.082-9.3477-5.9453-1.4219-3.8594-.08594-8.1953 3.2617-10.586 3.3477-2.3945 7.8828-2.25 11.074.34375.17187.13281.41406.11328.56641-.03906.15625-.15234.17188-.39453.04297-.57031-4.0195-2.1875-6.0391-6.8203-4.9102-11.254 1.1289-4.4336 5.1211-7.5352 9.6953-7.5352s8.5664 3.1016 9.6953 7.5352c1.1289 4.4336-.89453 9.0664-4.9102 11.254-.12891.17578-.11328.41797.03906.57031.15234.15234.39453.17188.57031.03906 3.1914-2.5938 7.7266-2.7383 11.074-.34375 3.3477 2.3906 4.6836 6.7266 3.2617 10.586-1.4219 3.8633-5.25 6.2969-9.3516 5.9453-4.0977-.34766-7.457-3.3945-8.2031-7.4414 0-.24219-.19531-.4375-.4375-.4375-.23828 0-.43359.19531-.43359.4375z"/>
 <path d="m212.55 285.75c-9 0-6.6016-10.801-15.602-10.801m13.051 13.801v8.5508c0 2.8984-2.3516 5.25-5.25 5.25s-5.25-2.3516-5.25-5.25v-17.102c0-2.8984 2.3516-5.25 5.25-5.25s5.25 2.3516 5.25 5.25zm0 0" fill="none" stroke="#000" stroke-linecap="square" stroke-miterlimit="1.5" stroke-width="2.4"/>
 <path d="m204.12 253.38c-.10547-4.9141-1.1484-5.2305-2.0898-7.3203h5.4375c-.94141 2.0898-1.9883 2.4062-2.0938 7.3203 0 .11328.0937.20703.21094.20703.11718 0 .21093-.0937.21093-.20703.35547-1.9453 1.9727-3.4141 3.9453-3.582 1.9688-.16796 3.8086 1.0039 4.4922 2.8594.6836 1.8555.043 3.9414-1.5664 5.0898-1.6094 1.1524-3.7891 1.082-5.3242-.16406-.0859-.0625-.19922-.0547-.27344.0195-.0742.0742-.082.1875-.0195.27344 1.9297 1.0508 2.9023 3.2773 2.3594 5.4102-.54297 2.1328-2.4609 3.625-4.6602 3.625s-4.1172-1.4922-4.6602-3.625c-.54297-2.1328.42578-4.3594 2.3594-5.4102.0625-.0859.0547-.19922-.0195-.27344-.0742-.0742-.19141-.082-.27344-.0195-1.5352 1.2461-3.7148 1.3164-5.3242.16406-1.6094-1.1484-2.25-3.2344-1.5703-5.0898.68359-1.8555 2.5273-3.0273 4.4961-2.8594 1.9727.16797 3.5859 1.6367 3.9453 3.582 0 .11328.0937.20703.21094.20703.11328 0 .20703-.0937.20703-.20703z"/>
 <path d="m166.28 248.77c-.21875-10.223-2.3906-10.875-4.3476-15.223h11.309c-1.957 4.3477-4.1328 5-4.3516 15.223 0 .24218.19531.4375.4375.4375.23828 0 .43359-.19532.43359-.4375.7461-4.0469 4.1055-7.0938 8.207-7.4414 4.0977-.35156 7.9258 2.082 9.3477 5.9453 1.4219 3.8594.0859 8.1953-3.2617 10.586-3.3477 2.3945-7.8828 2.25-11.074-.34375-.17187-.13281-.41406-.11328-.5664.0391-.15625.15235-.17188.39453-.043.57032 4.0195 2.1875 6.0391 6.8203 4.9102 11.254-1.1289 4.4336-5.1211 7.5352-9.6953 7.5352s-8.5664-3.1016-9.6953-7.5352c-1.1289-4.4336.89453-9.0664 4.9102-11.254.12891-.17579.11329-.41797-.0391-.57032-.15234-.15234-.39453-.17187-.57031-.0391-3.1914 2.5938-7.7266 2.7383-11.074.34375-3.3477-2.3906-4.6836-6.7266-3.2617-10.586 1.4219-3.8633 5.25-6.2969 9.3516-5.9453 4.0977.34766 7.457 3.3945 8.2031 7.4414 0 .24218.19531.4375.4375.4375.23828 0 .43359-.19532.43359-.4375z"/>
 <path d="m35.25 35.25h154.5v244.5h-154.5z" fill="none" stroke="#4242ff" stroke-width=".9375"/>
</svg>
