<svg width="225px" height="315px" version="1.1" viewBox="0 0 225 315" xmlns="http://www.w3.org/2000/svg">
 <path d="m11.719.46875h201.56c6.2148 0 11.25 5.0352 11.25 11.25v291.56c0 6.2148-5.0352 11.25-11.25 11.25h-201.56c-6.2148 0-11.25-5.0352-11.25-11.25v-291.56c0-6.2148 5.0352-11.25 11.25-11.25z" fill="#fff"/>
 <path d="m20.219 24.75c-3.3906-.01563-6.1289-2.7734-6.1172-6.1641.0078-3.3906 2.7578-6.1367 6.1484-6.1367s6.1406 2.7461 6.1484 6.1367c.01172 3.3906-2.7266 6.1484-6.1172 6.1641h-.0625c-4.2188.01563-7.6289 3.4453-7.6172 7.6641.0078 4.2188 3.4297 7.6367 7.6484 7.6367s7.6406-3.418 7.6484-7.6367c.011719-4.2188-3.3984-7.6484-7.6172-7.6641zm0 0" fill="none" stroke="#f00" stroke-linecap="square" stroke-miterlimit="1.5" stroke-width="2.4"/>
 <g fill="#f00">
  <path d="m11.887 58.484c1.043 0 8.3633-9.4102 8.3633-10.457 0 1.0469 7.3203 10.457 8.3672 10.457-1.0469 0-8.3672 9.4102-8.3672 10.457 0-1.0469-7.3203-10.457-8.3633-10.457z"/>
  <path d="m41.406 63.281c2.7344 0 21.875-24.609 21.875-27.344 0 2.7344 19.141 27.344 21.875 27.344-2.7344 0-21.875 24.609-21.875 27.344 0-2.7344-19.141-27.344-21.875-27.344z"/>
  <path d="m139.84 63.281c2.7344 0 21.875-24.609 21.875-27.344 0 2.7344 19.141 27.344 21.875 27.344-2.7344 0-21.875 24.609-21.875 27.344 0-2.7344-19.141-27.344-21.875-27.344z"/>
  <path d="m90.625 110.39c2.7344 0 21.875-24.609 21.875-27.344 0 2.7344 19.141 27.344 21.875 27.344-2.7344 0-21.875 24.609-21.875 27.344 0-2.7344-19.141-27.344-21.875-27.344z"/>
  <path d="m41.406 157.5c2.7344 0 21.875-24.609 21.875-27.344 0 2.7344 19.141 27.344 21.875 27.344-2.7344 0-21.875 24.609-21.875 27.344 0-2.7344-19.141-27.344-21.875-27.344z"/>
  <path d="m139.84 157.5c2.7344 0 21.875-24.609 21.875-27.344 0 2.7344 19.141 27.344 21.875 27.344-2.7344 0-21.875 24.609-21.875 27.344 0-2.7344-19.141-27.344-21.875-27.344z"/>
 </g>
 <path d="m204.78 290.25c3.3906.0156 6.1289 2.7734 6.1172 6.1641-.008 3.3906-2.7578 6.1367-6.1484 6.1367-3.3906 0-6.1406-2.7461-6.1484-6.1367-.0117-3.3906 2.7266-6.1484 6.1172-6.1641h.0625c4.2188-.0156 7.6289-3.4453 7.6172-7.6641-.008-4.2188-3.4297-7.6367-7.6484-7.6367s-7.6406 3.418-7.6484 7.6367c-.0117 4.2188 3.3984 7.6484 7.6172 7.6641zm0 0" fill="none" stroke="#f00" stroke-linecap="square" stroke-miterlimit="1.5" stroke-width="2.4"/>
 <g fill="#f00">
  <path d="m213.11 256.52c-1.043 0-8.3633 9.4102-8.3633 10.457 0-1.0469-7.3203-10.457-8.3672-10.457 1.0469 0 8.3672-9.4102 8.3672-10.457 0 1.0469 7.3203 10.457 8.3633 10.457z"/>
  <path d="m183.59 251.72c-2.7344 0-21.875 24.609-21.875 27.344 0-2.7344-19.141-27.344-21.875-27.344 2.7344 0 21.875-24.609 21.875-27.344 0 2.7344 19.141 27.344 21.875 27.344z"/>
  <path d="m85.156 251.72c-2.7344 0-21.875 24.609-21.875 27.344 0-2.7344-19.141-27.344-21.875-27.344 2.7344 0 21.875-24.609 21.875-27.344 0 2.7344 19.141 27.344 21.875 27.344z"/>
  <path d="m134.38 204.61c-2.7344 0-21.875 24.609-21.875 27.344 0-2.7344-19.141-27.344-21.875-27.344 2.7344 0 21.875-24.609 21.875-27.344 0 2.7344 19.141 27.344 21.875 27.344z"/>
 </g>
</svg>
