<svg width="225px" height="315px" version="1.1" viewBox="0 0 225 315" xmlns="http://www.w3.org/2000/svg">
 <g>
  <path d="m11.719.46875h201.56c6.2148 0 11.25 5.0352 11.25 11.25v291.56c0 6.2148-5.0352 11.25-11.25 11.25h-201.56c-6.2148 0-11.25-5.0352-11.25-11.25v-291.56c0-6.2148 5.0352-11.25 11.25-11.25z" fill="#fff"/>
  <path d="m85.91 35.25c4.3359 7.5586 8.1406 15.012 9.9531 23.227 26.145-6.1133 34.465 16.504 58.234 9.168-.73047-13.164 6.668-24.184 13.305-32.395zm103.84 9.7812-9.5078 9.7773.0547 54.293c3.4648 1.8711 6.7617 4.0039 9.4531 6.0898zm-67.691 58.68-2.1914 1.9883c-8.8359 8.0195-13.766 9.7695-24.324 12.516l2.1914 15.82c11.27-2.8984 20.098-6.0234 30.078-14.434h9.8633c-4.3711 9.6172-7.1328 18.746-8.7422 27.508h-30.969l-.05078 3.0547h30.5c-3.3281 21.41.0273 40.648 3.1914 59.422 5.7422-.4375 11.285-.69141 10.012 5.3711l14.512-5.9492c-10.586-32.434-21.23-54.918 1.0352-93.277l6.9766-12.02zm39.262 10.824-1.8203 3.1484c12.934 8.4336 20.516 18.398 24.848 32.07l3.2891-1.4453c-4.6133-14.266-12.875-25-26.316-33.773zm-2.7578 4.8086-1.3164 2.4297c.54297 1.7891-3.3438 4.2578-1.1562 5.7656 2.4375 1.6836 4.1992-.30468 6.3242-2.4336-1.7695 2.4492-3.6484 4.7305-1.1875 6.7226 2.3086 2.043 4.3398-.26953 6.5352-2.3242-1.8477 2.3867-3.5625 4.7695-2.0898 6.9023 1.5195 2.2031 4.5312-.10938 7.1562-1.5352-2.3711 1.8398-5.3828 3.457-3.875 6.125 1.4883 2.6406 4.6562 1.3203 7.4297.23438-2.5703 1.5234-5.1523 3.168-3.8672 5.8789 1.2344 2.5977 3.9531 1.3672 6.8594.75-2.8438.9375-6.1992 2.332-3.4805 6.3164l2.7461-1.7266c-2.4648.5625-2.0039-1.3125-.4375-1.5625 4.7383-.7461 3.1328-3.3594 4.0274-4.1953-1.3945-.0508-1.6172-3.0977-5.8594-.8086-2.3438.95703-2.1836-.96875-.67187-1.4688 4.5586-1.5156 2.5664-3.832 3.3242-4.8047-1.3867.17969-2.0781-2.793-5.7852.0234-2.082 1.1055-2.1523-.82812-.71094-1.5156 4.3438-2.0742 2.0938-4.125 2.7305-5.1875-1.3555.35547-2.3984-2.5078-5.8516.91015-1.8398 1.7734-2.375-.082-1.1484-1.1172 3.7031-3.1289 1.0234-4.5352 1.3828-5.7227-1.2266.6875-2.9297-1.8125-5.4414 2.3828-1.7852 1.832-2.3789 0-1.1875-1.0781 3.6016-3.25.88281-4.5664 1.1992-5.7656-1.2031.73047-2.9844-1.7148-5.3594 2.5664-1.6016 2.0039-2.3672.23828-1.2812-.95313 2.3555-2.5859 1.5508-3.8476.99219-4.8086zm31.188 41.273c-13.777 6.1016-23.754 14.137-29.863 30.105l-.37891 1.2031c-1.6836.78125-3.4062 1.5352-5.1445 2.2461 1.4492 4.3633 3.0234 8.9805 4.5078 13.578 9.3945-4.2188 19.055-9.625 30.879-17.656z" fill="#ffcc42"/>
  <path d="m139.09 279.75c-4.3359-7.5586-8.1406-15.012-9.9531-23.227-26.145 6.1133-34.465-16.504-58.234-9.168.73047 13.164-6.668 24.184-13.305 32.395zm-103.84-9.7812 9.5078-9.7773-.05469-54.293c-3.4648-1.8711-6.7617-4.0039-9.4531-6.0898zm67.691-58.68 2.1914-1.9883c8.8359-8.0195 13.766-9.7695 24.324-12.516l-2.1914-15.82c-11.27 2.8984-20.098 6.0234-30.078 14.434h-9.8633c4.3711-9.6172 7.1328-18.746 8.7422-27.508h30.969l.0508-3.0547h-30.5c3.3281-21.41-.02734-40.648-3.1914-59.422-5.7422.4375-11.285.69141-10.012-5.3711l-14.512 5.9492c10.586 32.434 21.23 54.918-1.0352 93.277l-6.9766 12.02zm-39.262-10.824 1.8203-3.1484c-12.934-8.4336-20.516-18.398-24.848-32.07l-3.2891 1.4453c4.6133 14.266 12.875 25 26.316 33.773zm2.7578-4.8086 1.3164-2.4297c-.54297-1.7891 3.3438-4.2578 1.1562-5.7656-2.4375-1.6836-4.1992.30468-6.3242 2.4336 1.7695-2.4492 3.6484-4.7305 1.1875-6.7227-2.3086-2.043-4.3398.26954-6.5352 2.3242 1.8477-2.3867 3.5625-4.7695 2.0898-6.9023-1.5195-2.2031-4.5312.10937-7.1562 1.5352 2.3711-1.8398 5.3828-3.457 3.875-6.125-1.4883-2.6406-4.6562-1.3203-7.4297-.23438 2.5703-1.5234 5.1523-3.168 3.8672-5.8789-1.2344-2.5976-3.9531-1.3672-6.8594-.75 2.8438-.9375 6.1992-2.332 3.4805-6.3164l-2.7461 1.7266c2.4648-.5625 2.0039 1.3125.4375 1.5625-4.7383.74609-3.1328 3.3594-4.0273 4.1953 1.3945.0508 1.6172 3.0977 5.8594.8086 2.3438-.95703 2.1836.96875.67188 1.4688-4.5586 1.5156-2.5664 3.832-3.3242 4.8047 1.3867-.17968 2.0781 2.793 5.7852-.0234 2.082-1.1055 2.1523.82812.71094 1.5156-4.3438 2.0742-2.0938 4.125-2.7305 5.1875 1.3555-.35547 2.3984 2.5078 5.8516-.91015 1.8398-1.7734 2.375.082 1.1484 1.1172-3.7031 3.1289-1.0234 4.5352-1.3828 5.7227 1.2266-.6875 2.9297 1.8125 5.4414-2.3828 1.7852-1.832 2.3789 0 1.1875 1.0781-3.6016 3.25-.88281 4.5664-1.1992 5.7656 1.2031-.73047 2.9844 1.7148 5.3594-2.5664 1.6016-2.0039 2.3672-.23828 1.2812.95313-2.3555 2.5859-1.5508 3.8476-.99219 4.8086zm-31.188-41.273c13.777-6.1016 23.754-14.137 29.863-30.105l.37891-1.2031c1.6836-.78125 3.4062-1.5352 5.1445-2.2461-1.4492-4.3633-3.0234-8.9805-4.5078-13.578-9.3945 4.2188-19.055 9.625-30.879 17.656z" fill="#ffcc42"/>
  <path d="m124.39 43.98c-.96094.86328-2.1172 1.5703-3.4062 2.0312-.60157 2.1367-1.5274 4.0039-2.7422 5.5625-6.8164-1.0352-14.051-1.6367-21.734-.89453-.02734-.15625-.12109-.3125-.21484-.47266-1.0391-1.8008-1.5703-3.4492-2.043-4.8555-1.2539-.25781-2.4336-.75-3.5273-1.2227 2.2383 4.7422 4.0508 9.4062 5.1406 14.348 26.145-6.1133 34.465 16.504 58.234 9.168-.3711-6.6445 1.332-12.742 3.9531-18.18-.86719.19531-1.7812.33984-2.7656.45703-.32813 1.9141-.90235 3.6367-1.8047 5.1406-7.4219 1.6094-15.594.07813-24.738-1.6484-.88672-1.9453-1.4297-4.1602-1.5234-6.5938-1.1406-.77734-2.0977-1.7578-2.8281-2.8398zm65.359 7.9648-4.7539 4.8906.14844 55.125c1.6953 1.0898 3.2344 2.1719 4.6055 3.2305zm-22.219 52.148-.83984 1.1836-6.9766 12.02zm-10.457 3.1875c-1.043.0312-2.8984.54297-3.125.0937-.21485.37109-.32813.79297-.32813 1.2266 0 1.2461.9375 2.2852 2.1484 2.375-.30469-.60156 2.2891-2.9102 1.9844-3.5117-.0742-.14843-.33204-.1914-.67969-.18359zm-33.219.0937c-.53125.45313-.83594 1.125-.83594 1.8359 0 1.3164 1.0352 2.3828 2.3164 2.3828s2.3164-1.0664 2.3164-2.3828c0-.70703-.30468-1.3828-.83593-1.8359zm9.5938 0c-.21485.37109-.32813.79297-.32813 1.2266 0 1.3164 1.0352 2.3828 2.3164 2.3828s2.3164-1.0664 2.3164-2.3828c0-.43359-.11329-.85547-.32813-1.2266zm10.398 0c-.21485.37109-.32813.79297-.32813 1.2266 0 1.3164 1.0352 2.3828 2.3164 2.3828s2.3164-1.0664 2.3164-2.3828c0-.43359-.11328-.85547-.32812-1.2266zm-26.832 5.5664c-.0781 0-.15625.004-.23438.0117l-1.8359 1.2969c-.16015.33203-.24609.69922-.24609 1.0742 0 1.3164 1.0352 2.3828 2.3164 2.3828s2.3164-1.0664 2.3164-2.3828-1.0352-2.3828-2.3164-2.3828zm33.574 2.4453c-1.2812 0-2.3164 1.0664-2.3164 2.3828 0 1.3164 1.0352 2.3828 2.3164 2.3828h.0781l1.918-3.5976c-.41797-.72656-1.1758-1.168-1.9961-1.168zm-42.141 2.4688-2.168.88672c-.32031.41797-.49609.9375-.49609 1.4726 0 1.3164 1.0391 2.3828 2.3164 2.3828 1.2812 0 2.3203-1.0664 2.3203-2.3828 0-1.1797-.83985-2.1797-1.9727-2.3594zm19.363 1.7461c-9.9805 8.4102-18.809 11.535-30.238 14.551l34.523.0977c1.4688-4.7812 3.3047-9.6484 5.5781-14.648zm-28.527 1.3906-2.3711.63672c-.41016.44531-.63672 1.0312-.63672 1.6406 0 1.3164 1.0391 2.3828 2.3164 2.3828 1.2812 0 2.3203-1.0664 2.3203-2.3828 0-1.043-.66015-1.9648-1.6289-2.2773zm46.551 3.5625c-1.2812 0-2.3164 1.0664-2.3164 2.3828s1.0352 2.3828 2.3164 2.3828c.21875 0 .4414-.0312.65234-.0937l1.4258-3.3438c-.38672-.8125-1.1953-1.3281-2.0781-1.3281zm-3.5664 9.7773c-1.2773 0-2.3164 1.0703-2.3164 2.3867s1.0391 2.3828 2.3164 2.3828c.29688 0 .58594-.0586.85938-.16797l1.0781-3.5273c-.42969-.67188-1.1562-1.0742-1.9375-1.0742zm8.7227 1.6016c-3.6016 10.344-4.4453 19.477-3.707 28.398.48437 5.793 1.668 11.523 3.3086 17.52 4.2148-8.9726 9.8398-15.926 16.422-21.391l-.73828-2.5234c-3.0234-10.891-5.9844-15.82-15.285-22.004zm38.473 14.906-1.1016.45313 1.3867 3.543v-3.2734zm-11.625 5.6875-1.0312.60547 4.3633 7.875 1.0312-.60547zm11.91 7.5742-2.543 1.0508 1.2578 2.7227 1.2852-.59375zm-22.781.33594-.87891.82031 5.8789 6.6836.88281-.82032zm15.176 3.4883-3.7812 2.5195 1.6758 2.4219 3.5742-2.3672zm-7.9844 6.0273-3.1328 3.2852 2.1992 1.9609 2.8906-3.0664zm-15.883.4336-.66406 1.0117 7.3477 5.0938.66406-1.0156zm9.2617 7.5938-2.1094 3.6992 2.5938 1.4141 1.9766-3.4687zm-15.375 4.0234-.44531 1.1328 8.2188 3.4414.44922-1.1328z" fill="#f00"/>
  <path d="m100.61 271.02c.96093-.86328 2.1172-1.5703 3.4062-2.0312.60156-2.1367 1.5273-4.0039 2.7422-5.5625 6.8164 1.0352 14.051 1.6367 21.734.89453.0273.15625.12109.3125.21484.47266 1.0391 1.8008 1.5703 3.4492 2.043 4.8555 1.2539.25781 2.4336.75 3.5273 1.2226-2.2383-4.7422-4.0508-9.4062-5.1406-14.348-26.145 6.1133-34.465-16.504-58.234-9.168.37109 6.6445-1.332 12.742-3.9531 18.18.86719-.19532 1.7812-.33985 2.7656-.45704.32812-1.9141.90234-3.6367 1.8047-5.1406 7.4219-1.6094 15.594-.0781 24.738 1.6484.88672 1.9453 1.4297 4.1602 1.5234 6.5938 1.1406.77734 2.0977 1.7578 2.8281 2.8398zm-65.359-7.9648 4.7539-4.8906-.14844-55.125c-1.6953-1.0898-3.2344-2.1719-4.6055-3.2305zm22.219-52.148.83984-1.1836 6.9766-12.02zm10.457-3.1875c1.043-.0312 2.8984-.54297 3.125-.0937.21484-.37109.32812-.79297.32812-1.2266 0-1.2461-.9375-2.2852-2.1484-2.375.30469.60156-2.2891 2.9102-1.9844 3.5117.07422.14843.33203.1914.67969.18359zm33.219-.0937c.53125-.45313.83594-1.125.83594-1.8359 0-1.3164-1.0352-2.3828-2.3164-2.3828-1.2812 0-2.3164 1.0664-2.3164 2.3828 0 .70703.30469 1.3828.83594 1.8359zm-9.5937 0c.21484-.37109.32812-.79297.32812-1.2266 0-1.3164-1.0352-2.3828-2.3164-2.3828s-2.3164 1.0664-2.3164 2.3828c0 .43359.11328.85547.32812 1.2266zm-10.398 0c.21484-.37109.32812-.79297.32812-1.2266 0-1.3164-1.0352-2.3828-2.3164-2.3828s-2.3164 1.0664-2.3164 2.3828c0 .43359.11328.85547.32812 1.2266zm26.832-5.5664c.0781 0 .15625-.004.23437-.0117l1.8359-1.2969c.16015-.33203.24609-.69922.24609-1.0742 0-1.3164-1.0352-2.3828-2.3164-2.3828s-2.3164 1.0664-2.3164 2.3828 1.0352 2.3828 2.3164 2.3828zm-33.574-2.4453c1.2812 0 2.3164-1.0664 2.3164-2.3828 0-1.3164-1.0352-2.3828-2.3164-2.3828h-.07813l-1.918 3.5976c.41797.72656 1.1758 1.168 1.9961 1.168zm42.141-2.4688 2.168-.88672c.32031-.41797.49609-.9375.49609-1.4726 0-1.3164-1.0391-2.3828-2.3164-2.3828-1.2812 0-2.3203 1.0664-2.3203 2.3828 0 1.1797.83984 2.1797 1.9726 2.3594zm-19.363-1.7461c9.9805-8.4102 18.809-11.535 30.238-14.551l-34.523-.09766c-1.4688 4.7812-3.3047 9.6484-5.5781 14.648zm28.527-1.3906 2.3711-.63672c.41015-.44531.63672-1.0312.63672-1.6406 0-1.3164-1.0391-2.3828-2.3164-2.3828-1.2812 0-2.3203 1.0664-2.3203 2.3828 0 1.043.66015 1.9648 1.6289 2.2773zm-46.551-3.5625c1.2812 0 2.3164-1.0664 2.3164-2.3828s-1.0352-2.3828-2.3164-2.3828c-.21875 0-.44141.0312-.65234.0937l-1.4258 3.3438c.38672.8125 1.1953 1.3281 2.0781 1.3281zm3.5664-9.7773c1.2773 0 2.3164-1.0703 2.3164-2.3867s-1.0391-2.3828-2.3164-2.3828c-.29688 0-.58594.0586-.85938.16797l-1.0781 3.5273c.42969.67187 1.1562 1.0742 1.9375 1.0742zm-8.7227-1.6016c3.6016-10.344 4.4453-19.477 3.707-28.398-.48438-5.793-1.668-11.523-3.3086-17.52-4.2148 8.9726-9.8398 15.926-16.422 21.391l.73828 2.5234c3.0234 10.891 5.9844 15.82 15.285 22.004zm-38.473-14.906 1.1016-.45313-1.3867-3.543v3.2734zm11.625-5.6875 1.0312-.60547-4.3633-7.875-1.0312.60547zm-11.91-7.5742 2.543-1.0508-1.2578-2.7227-1.2852.59375zm22.781-.33594.87891-.82031-5.8789-6.6836-.88281.82032zm-15.176-3.4883 3.7812-2.5195-1.6758-2.4219-3.5742 2.3672zm7.9844-6.0274 3.1328-3.2852-2.1992-1.9609-2.8906 3.0664zm15.883-.43359.66406-1.0117-7.3477-5.0938-.66406 1.0156zm-9.2617-7.5938 2.1094-3.6992-2.5938-1.4141-1.9766 3.4688zm15.375-4.0234.44531-1.1328-8.2188-3.4414-.44922 1.1328z" fill="#f00"/>
  <path d="m106.56 89.652c-4.7539 0-10.102-4.2812-10.102-4.2812v-1.832c4.7539 1.832 3.5625 5.5 10.102 6.1133m-8.9141-28.73-.59375 1.8359s5.3477-.61328 6.5352-.61328c3.5664 0 7.1328 5.5 11.289 5.5-4.1562 0-7.7227-6.7227-11.324-6.8633-1.1875-.04687-1.6172 1.1523-3.9922 1.1523-.5625 0-1.9141-1.0117-1.9141-1.0117zm5.9023 8.9336c0 1.375-.59766 2.4922-1.3359 2.4922s-1.3359-1.1172-1.3359-2.4922c0-1.3789.59766-2.4922 1.3359-2.4922s1.3359 1.1133 1.3359 2.4922zm-10.18 35.406 15.883.46875c2.3711.0625 6.2188-.67969 8.6758-4.6914 1.0469 1.4258 2.6016 2.0469 4.2617 2.0781l-.12891.59375-2.1914 1.9883c-8.8359 8.0195-13.766 9.7695-24.355 12.484-.69531-4.3672-1.4258-8.6562-2.1445-12.922zm36.961 3.9492c0 2.8359-2.2344 5.1367-4.9922 5.1367-3.5469.0742-4.1836-4.8984-5.8711-3.4961 1.5703.90625 2.543 2.6172 2.543 4.4727 0 2.8359-2.2344 5.1328-4.9922 5.1328-2.4883 0-4.5938-1.8828-4.9414-4.4141-.21094.12109-.42578.23828-.63672.35156 1.0547.97266 1.6562 2.3633 1.6562 3.8203 0 2.8359-2.2344 5.1328-4.9922 5.1328-2.125 0-3.9375-1.3633-4.6562-3.2891.0937.39454.14063.80079.14063 1.2109 0 2.8359-2.2344 5.1367-4.9922 5.1367-.61328 0-1.2188-.11719-1.793-.34375l.26562 2.3633c11.441-2.9492 19.52-5.8203 29.449-14.492h16.922c-18.633 36.344-12.824 64.652-8.1758 93.555 3.6367.0469 6.1523 1.2461 6.2422 4.9453l11.328-4.0078c-8.832-24.027-16.52-43.781-10.484-68.574h-.0781c-2.7539 0-4.9883-2.2969-4.9883-5.1328s2.2344-5.1367 4.9883-5.1367c1.0469 0 2.0664.33984 2.918.96875.0586-.16797.12109-.33594.18359-.5-2.5664-.25-4.5273-2.4609-4.5273-5.1133 0-2.8359 2.2344-5.1328 4.9922-5.1328 1.2344 0 2.4258.46875 3.3438 1.3203.0586-.12891.12109-.25391.17968-.37891-2.2109-.57812-3.7617-2.6289-3.7617-4.9766 0-2.8359 2.2344-5.1367 4.9922-5.1367 1.2695 0 2.4883.4961 3.4141 1.3906.0312-.0586.0664-.11719.0977-.17578l.22656-.38672c-2.0234-.71094-3.3828-2.6641-3.3828-4.8594 0-.41406.0508-.82422.14453-1.2226h-.40625c.0977.39843.14453.80859.14453 1.2226 0 2.8359-2.2344 5.1328-4.9922 5.1328-2.7578 0-4.9922-2.2969-4.9922-5.1328 0-.41406.0508-.82422.14453-1.2226h-.70312c.0937.39843.14453.80859.14453 1.2226 0 2.8359-2.2344 5.1328-4.9922 5.1328s-4.9922-2.2969-4.9922-5.1328c0-.41406.0469-.82422.14453-1.2226-1.0938-.14844-.26953.91015-.26172 1.832zm20.809-1.832 6.6055.19922.11718-.19922zm2.8086 21.137c11.242 7.3828 16.27 14.762 19.719 27.082l2.2266-1.4219c-2.7148-3.9844.64063-5.3789 3.4844-6.3164-2.9062.61719-5.625 1.8477-6.8594-.75-1.2852-2.7109 1.2969-4.3555 3.8672-5.8789-2.7734 1.0859-5.9414 2.4062-7.4297-.23438-1.5078-2.668 1.5039-4.2852 3.875-6.125-2.625 1.4258-5.6367 3.7383-7.1562 1.5352-1.4726-2.1328.24219-4.5156 2.0898-6.9023-2.1953 2.0547-4.2266 4.3672-6.5352 2.3242-2.4609-1.9922-.58203-4.2734 1.1875-6.7226-2.125 2.1289-3.8867 4.1172-6.3242 2.4336-2.1875-1.5078 1.6992-3.9766 1.1562-5.7656m27.102 27.98c-4.332-13.672-11.914-23.637-24.848-32.07l-.94141 1.6602c.5625.96094 1.3672 2.2227-.98828 4.8086-1.0859 1.1914-.32031 2.957 1.2812.95313 2.375-4.2812 4.1562-1.8359 5.3594-2.5664-.31641 1.1992 2.4023 2.5156-1.1992 5.7656-1.1914 1.0781-.59766 2.9102 1.1875 1.0781 2.5117-4.1953 4.2148-1.6953 5.4414-2.3867-.35937 1.1914 2.3203 2.5977-1.3828 5.7266-1.2266 1.0352-.6914 2.8906 1.1484 1.1172 3.4531-3.418 4.4961-.55468 5.8516-.91015-.63672 1.0625 1.6133 3.1133-2.7344 5.1875-1.4375.6875-1.3672 2.6211.71484 1.5156 3.707-2.8164 4.3984.15625 5.7852-.0234-.75782.97266 1.2344 3.2891-3.3242 4.8047-1.5117.5-1.6719 2.4258.67187 1.4688 4.2383-2.2891 4.4648.75781 5.8594.8086-.89453.83593.71094 3.4492-4.0274 4.1953-1.5664.25-2.0234 2.125.4375 1.5625zm-13.285 7.6055-.21484-.76562c-3.2812-11.824-7.5234-18.285-18.109-25.258l-1.7422 4.625c9.2969 6.1562 12.258 11.086 15.281 21.977l.71094 2.5625" fill="#4242ff"/>
  <path d="m118.44 225.35c4.7539 0 10.102 4.2812 10.102 4.2812v1.832c-4.7539-1.832-3.5625-5.5-10.102-6.1133m8.9141 28.73.59375-1.8359s-5.3477.61328-6.5352.61328c-3.5664 0-7.1328-5.5-11.289-5.5 4.1562 0 7.7227 6.7226 11.324 6.8633 1.1875.0469 1.6172-1.1523 3.9922-1.1523.5625 0 1.9141 1.0117 1.9141 1.0117zm-5.9023-8.9336c0-1.375.59765-2.4922 1.3359-2.4922s1.3359 1.1172 1.3359 2.4922c0 1.3789-.59766 2.4922-1.3359 2.4922s-1.3359-1.1133-1.3359-2.4922zm10.18-35.406-15.883-.46875c-2.3711-.0625-6.2188.67969-8.6758 4.6914-1.0469-1.4258-2.6016-2.0469-4.2617-2.0781l.12891-.59375 2.1914-1.9883c8.8359-8.0195 13.766-9.7695 24.355-12.484.69531 4.3672 1.4258 8.6562 2.1445 12.922zm-36.961-3.9492c0-2.8359 2.2344-5.1367 4.9922-5.1367 3.5469-.0742 4.1836 4.8984 5.8711 3.4961-1.5703-.90625-2.543-2.6172-2.543-4.4727 0-2.8359 2.2344-5.1328 4.9922-5.1328 2.4883 0 4.5938 1.8828 4.9414 4.4141.21094-.12109.42578-.23828.63672-.35156-1.0547-.97266-1.6562-2.3633-1.6562-3.8203 0-2.8359 2.2344-5.1328 4.9922-5.1328 2.125 0 3.9375 1.3633 4.6562 3.2891-.0937-.39454-.14063-.80079-.14063-1.2109 0-2.8359 2.2344-5.1367 4.9922-5.1367.61328 0 1.2188.11719 1.793.34375l-.26563-2.3633c-11.441 2.9492-19.52 5.8203-29.449 14.492h-16.922c18.633-36.344 12.824-64.652 8.1758-93.555-3.6367-.0469-6.1523-1.2461-6.2422-4.9453l-11.328 4.0078c8.832 24.027 16.52 43.781 10.484 68.574h.07813c2.7539 0 4.9883 2.2969 4.9883 5.1328s-2.2344 5.1367-4.9883 5.1367c-1.0469 0-2.0664-.33985-2.918-.96875-.05859.16797-.12109.33594-.18359.5 2.5664.25 4.5273 2.4609 4.5273 5.1133 0 2.8359-2.2344 5.1328-4.9922 5.1328-1.2344 0-2.4258-.46875-3.3438-1.3203-.05859.12891-.12109.25391-.17969.37891 2.2109.57812 3.7617 2.6289 3.7617 4.9766 0 2.8359-2.2344 5.1367-4.9922 5.1367-1.2695 0-2.4883-.4961-3.4141-1.3906-.03125.0586-.06641.11719-.09766.17578l-.22656.38672c2.0234.71094 3.3828 2.6641 3.3828 4.8594 0 .41406-.05078.82422-.14453 1.2226h.40625c-.09766-.39843-.14453-.80859-.14453-1.2226 0-2.8359 2.2344-5.1328 4.9922-5.1328 2.7578 0 4.9922 2.2969 4.9922 5.1328 0 .41406-.05078.82422-.14453 1.2226h.70312c-.09375-.39843-.14453-.80859-.14453-1.2226 0-2.8359 2.2344-5.1328 4.9922-5.1328s4.9922 2.2969 4.9922 5.1328c0 .41406-.04688.82422-.14453 1.2226 1.0938.14844.26953-.91015.26172-1.832zm-20.809 1.832-6.6055-.19922-.11719.19922zm-2.8086-21.137c-11.242-7.3828-16.27-14.762-19.719-27.082l-2.2266 1.4219c2.7148 3.9844-.64062 5.3789-3.4844 6.3164 2.9062-.61718 5.625-1.8476 6.8594.75 1.2852 2.7109-1.2969 4.3555-3.8672 5.8789 2.7734-1.0859 5.9414-2.4062 7.4297.23438 1.5078 2.668-1.5039 4.2852-3.875 6.125 2.625-1.4258 5.6367-3.7383 7.1562-1.5352 1.4727 2.1328-.24219 4.5156-2.0898 6.9023 2.1953-2.0547 4.2266-4.3672 6.5352-2.3242 2.4609 1.9922.58203 4.2734-1.1875 6.7227 2.125-2.1289 3.8867-4.1172 6.3242-2.4336 2.1875 1.5078-1.6992 3.9766-1.1562 5.7656m-27.102-27.98c4.332 13.672 11.914 23.637 24.848 32.07l.94141-1.6602c-.5625-.96094-1.3672-2.2227.98828-4.8086 1.0859-1.1914.32031-2.957-1.2812-.95313-2.375 4.2812-4.1562 1.8359-5.3594 2.5664.31641-1.1992-2.4023-2.5156 1.1992-5.7656 1.1914-1.0781.59766-2.9102-1.1875-1.0781-2.5117 4.1953-4.2148 1.6953-5.4414 2.3867.35938-1.1914-2.3203-2.5977 1.3828-5.7266 1.2266-1.0352.69141-2.8906-1.1484-1.1172-3.4531 3.418-4.4961.55468-5.8516.91015.63672-1.0625-1.6133-3.1133 2.7344-5.1875 1.4375-.6875 1.3672-2.6211-.71484-1.5156-3.707 2.8164-4.3984-.15625-5.7852.0234.75781-.97265-1.2344-3.2891 3.3242-4.8047 1.5117-.5 1.6719-2.4258-.67188-1.4688-4.2383 2.2891-4.4648-.75782-5.8594-.8086.89453-.83593-.71094-3.4492 4.0273-4.1953 1.5664-.25 2.0234-2.125-.4375-1.5625zm13.285-7.6055.21484.76563c3.2812 11.824 7.5234 18.285 18.109 25.258l1.7422-4.625c-9.2969-6.1562-12.258-11.086-15.281-21.977l-.71094-2.5625" fill="#4242ff"/>
  <path d="m164.14 103.71-6.9766 12.02c-22.266 38.359-11.621 60.844-1.0352 93.277l2.7422-1.2578-6.8633-21.453c7.6602-19.078 21.301-28.836 37.742-35.59v-3.2773c-16.402 6.5742-30.703 16.238-39.121 34.52l.0937.33203-.16797-.52734c-1.6016-5.8984-2.7852-11.629-3.2695-17.422-1.1484-13.875 1.5352-28.266 12.43-47.035l6.9766-12.02-3.5391 6.1016c12.895 8.4336 21.504 18.902 26.598 32.188v-28.375c-6.1953-4.7969-15.531-9.8398-22.34-11.125l-.008.0117zm-102.75 7.9453c-4.543 2.0625-6.0273 4.8672-5.9609 8.0508-1.582-.043-3.2734.58594-5.1875 2.5156.35156-1.2109.40625-2.5234.45312-3.8438-4.5508 2.0664-6.0352 4.8789-5.9648 8.0703-1.0859.0898-2.2305.52344-3.4688 1.4922.41016-1.2695.47266-2.6641.51953-4.0586-4.5781 2.0781-6.0508 4.9102-5.9609 8.1211-.19141.0273-.38281.0625-.57422.10937v1.6445c.76562-.0977 1.5469-.11328 2.6445-.0703-1.0742.32031-1.832.54687-2.6445.71094v1.707c1.8047 0 3.8164-.75 6.1094-2.5508-1.3633-.70703-2.7305-1.3984-4.1836-1.5625 1.5703-.6211 2.5898-1.4375 3.2617-2.375 2.6406 1.4961 5.6992 1.4453 9.5664-1.5898-1.2852-.66796-2.5703-1.3164-3.9336-1.5273 2.3594-.92969 3.4883-2.2969 4.043-3.8633 2.7383 1.7461 5.9141 1.8672 9.9922-1.332-1.1562-.60156-2.3164-1.1914-3.5312-1.4531 2.082-.78125 3.2461-1.8828 3.9062-3.168 2.6758 1.5938 5.7812 1.6055 9.7266-1.4922-2.8242-1.4688-5.6641-2.8672-9.2852.375.37109-1.2305.42578-2.5664.47266-3.9102zm-1.7812 3.0547c-1.1055 2.2734-1.7148 2.9805-3.6992 5.0312-.05859-.008-.11328-.0156-.16797-.0195 1.5508-2.6172 2.1914-3.2852 3.8672-5.0117zm6.2148.58984c.28125 0 .58594.008.91797.0234-2.2773.67969-3.1562.92969-6.125 1.0664.02344-.0547.04297-.10547.06641-.16016 2.332-.69141 3.3242-.94141 5.1406-.92969zm-10.102 6.1133c.28125 0 .58203.008.91406.0234-2.3672.70313-3.207.94922-6.4844 1.082.0039-.0195.01172-.0352.01563-.0547 2.6445-.78906 3.6328-1.0664 5.5547-1.0508zm-6.8086.0234c-1.0977 2.2578-1.707 2.9688-3.668 4.9922h-.19141c1.5469-2.6016 2.1836-3.2734 3.8594-4.9922zm-8.9141 5.5c-1.1055 2.2695-1.7148 2.9766-3.6953 5.0234-.0625.004-.125.008-.1875.0117 1.5625-2.6367 2.1992-3.3047 3.8828-5.0352zm5.6172 1.1992c.28516 0 .58594.008.91797.0234-2.2031.65625-3.0898.91406-5.8398 1.0547.05078-.0859.09766-.16797.14453-.2539 2.0859-.61719 3.0547-.83594 4.7773-.82422zm51.793 6.1367.55078 12.836h30.977l3.1523-12.836zm55.586 8.7852-.27344 1.1562c-1.6562 6.9961-1.9414 13.402-1.4141 19.762.12109 1.4297.28906 2.8594.49609 4.2969l.25 1.7344 1.0274-1.4023c2.5312-3.4766 5.3203-6.582 8.3164-9.3672l.33203-.30859-.125-.44141c-2.0469-7.2695-3.5938-11.039-7.7266-14.656zm.84766 2.7383c3.1406 3.0703 4.4726 6.3516 6.2695 12.676-2.5352 2.3828-4.9141 5.0078-7.1211 7.8789-.10156-.83594-.1914-1.668-.26172-2.5-.48437-5.8516-.2539-11.707 1.1133-18.055z"/>
  <path d="m60.859 211.29 6.9766-12.02c22.266-38.359 11.621-60.844 1.0352-93.277l-2.7422 1.2578 6.8633 21.453c-7.6602 19.078-21.301 28.836-37.742 35.59v3.2773c16.402-6.5742 30.703-16.238 39.121-34.52l-.09375-.33203.16797.52734c1.6016 5.8984 2.7852 11.629 3.2695 17.422 1.1484 13.875-1.5352 28.266-12.43 47.035l-6.9766 12.02 3.5391-6.1016c-12.895-8.4336-21.504-18.902-26.598-32.188v28.375c6.1953 4.7969 15.531 9.8398 22.34 11.125l.0078-.0117zm102.75-7.9453c4.543-2.0625 6.0273-4.8672 5.9609-8.0508 1.582.043 3.2734-.58594 5.1875-2.5156-.35157 1.2109-.40625 2.5234-.45313 3.8438 4.5508-2.0664 6.0352-4.8789 5.9648-8.0703 1.0859-.0898 2.2305-.52344 3.4688-1.4922-.41015 1.2695-.47265 2.6641-.51953 4.0586 4.5781-2.0781 6.0508-4.9102 5.9609-8.1211.19141-.0273.38281-.0625.57422-.10937v-1.6445c-.76563.0977-1.5469.11328-2.6445.0703 1.0742-.32031 1.832-.54688 2.6445-.71094v-1.707c-1.8047 0-3.8164.75-6.1094 2.5508 1.3633.70703 2.7305 1.3984 4.1836 1.5625-1.5703.6211-2.5898 1.4375-3.2617 2.375-2.6406-1.4961-5.6992-1.4453-9.5664 1.5898 1.2852.66796 2.5703 1.3164 3.9336 1.5273-2.3594.92969-3.4883 2.2969-4.043 3.8633-2.7383-1.7461-5.9141-1.8672-9.9922 1.332 1.1562.60156 2.3164 1.1914 3.5312 1.4531-2.082.78125-3.2461 1.8828-3.9062 3.168-2.6758-1.5938-5.7812-1.6055-9.7266 1.4922 2.8242 1.4688 5.6641 2.8672 9.2852-.375-.37109 1.2305-.42578 2.5664-.47265 3.9102zm1.7812-3.0547c1.1055-2.2734 1.7148-2.9805 3.6992-5.0312.0586.008.11328.0156.16797.0195-1.5508 2.6172-2.1914 3.2852-3.8672 5.0117zm-6.2148-.58984c-.28125 0-.58593-.008-.91796-.0234 2.2773-.67969 3.1562-.92969 6.125-1.0664-.0234.0547-.043.10547-.0664.16016-2.332.69141-3.3242.94141-5.1406.92969zm10.102-6.1133c-.28125 0-.58203-.008-.91407-.0234 2.3672-.70313 3.207-.94922 6.4844-1.082-.004.0195-.0117.0352-.0156.0547-2.6445.78906-3.6328 1.0664-5.5547 1.0508zm6.8086-.0234c1.0977-2.2578 1.707-2.9688 3.668-4.9922h.19141c-1.5469 2.6016-2.1836 3.2734-3.8594 4.9922zm8.9141-5.5c1.1055-2.2695 1.7148-2.9766 3.6953-5.0234.0625-.004.125-.008.1875-.0117-1.5625 2.6367-2.1992 3.3047-3.8828 5.0352zm-5.6172-1.1992c-.28516 0-.58594-.008-.91797-.0234 2.2031-.65625 3.0898-.91406 5.8398-1.0547-.0508.0859-.0977.16796-.14453.2539-2.0859.61719-3.0547.83594-4.7773.82422zm-51.793-6.1367-.55078-12.836h-30.977l-3.1523 12.836zm-55.586-8.7852.27344-1.1562c1.6562-6.9961 1.9414-13.402 1.4141-19.762-.12109-1.4297-.28906-2.8594-.49609-4.2969l-.25-1.7344-1.0273 1.4023c-2.5312 3.4766-5.3203 6.582-8.3164 9.3672l-.33203.30859.125.44141c2.0469 7.2695 3.5938 11.039 7.7266 14.656zm-.84766-2.7383c-3.1406-3.0703-4.4727-6.3516-6.2695-12.676 2.5352-2.3828 4.9141-5.0078 7.1211-7.8789.10156.83593.19141 1.668.26172 2.5.48438 5.8516.25391 11.707-1.1133 18.055z"/>
 </g>
 <g fill="none" stroke="#4242ff" stroke-linecap="round" stroke-linejoin="round">
  <path d="m178.46 67.18v11.938m-1.7852-13.043v14.148m-1.7812-2.1484v3.668m0-10.988v4.7891m0-10.992v3.668m-1.7812 12.066v3.418m0-11.98v2.8477m0-11.98v3.4219m-1.7852 6.6328v1.0078m-74.262 56.773c11.441-2.9492 19.52-5.8203 29.449-14.492h16.922c-18.633 36.344-12.824 64.652-8.1758 93.555m-37.527-75.453c11.27-2.8984 20.098-6.0234 30.078-14.434h9.8633c-15.668 34.465-10.668 62.711-6.0703 89.984m21.227.83983c-11.898-32.363-21.715-56.973 1.2695-96.578l3.7578-6.4688h-34.453l-1.1797 1.0703c-9.3125 8.4492-15.195 10.559-26.16 13.414m60.062 87.145c-10.586-32.434-21.23-54.918 1.0352-93.277l6.9766-12.02h-42.082l-2.1914 1.9883c-8.8359 8.0195-13.766 9.7695-24.324 12.516m-9.6289-82.965c4.332 7.5586 8.1367 15.012 9.9492 23.227 26.144-6.1133 34.465 16.504 58.234 9.168-.73047-13.164 6.668-24.188 13.305-32.398m-59.09.0078c1.9883 5.0586 6.6484 6.0703 6.6055 11.008-.0508 5.5-7.2461 5.4063-7.1719-.09766.0508-3.7148 4.1484-3.6133 4.0976.05469-.0234 1.8359-2.5859 1.8008-2.5586-.03125m-2.8359-10.934c-2.1328 4.9844-6.8047 5.875-6.8984 10.805-.10547 5.5 7.0937 5.5938 7.1719.09375.0508-3.7188-4.0469-3.7227-4.0976-.05469-.0273 1.8359 2.5352 1.8672 2.5625.03516m38.211-10.465c-.46875 9.1758 7.5469 10.215 6.8867 16.281-.59375 5.4648-8.6797 4.4219-8.0508-1.0391.42187-3.6914 5.0195-3.0469 4.6016.59375-.21094 1.8203-3.0859 1.4492-2.8789-.37109m-.55859-15.465c-1.6211 9.0273-9.6406 8-10.371 14.055-.65625 5.457 7.4258 6.5 8.0547 1.0391.42578-3.6914-4.1836-4.2344-4.6016-.59375-.21094 1.8203 2.668 2.1914 2.875.3711m-45.648.45703c25.922-3.5195 46.129 8.7031 62.242 3.3984m-2.3984.65234c.83203-1.4883 1.4062-3.2109 1.7344-5.125.98438-.11719 1.8984-.26172 2.7578-.42578m-9.7109 6.2148c2.2812-1.6484 3.6719-4.543 3.7891-9.1914 3.6172-.19141 6.2422-.69141 8.2969-1.3711m-69.723-1.1875c1.1211.64062 2.3008 1.1328 3.5547 1.3906.47266 1.4062 1.0039 3.0547 2.043 4.8555.09375.16016.1875.31641.28906.46875m4.3476-.28125c-2.5469-2.3008-2.8711-5.5156-4.2695-8.5312-2.9727.26953-6.4805-2.3164-9.9297-5.5977m31.57 15.328c1.1562-1.5781 2.082-3.4453 2.6836-5.582 1.2891-.46094 2.4453-1.168 3.4062-2.0313.73047 1.082 1.6875 2.0625 2.8281 2.8398.0937 2.4336.63672 4.6484 1.5156 6.5977m-3.5078-18.16c-1.1836 4.0195-2.8398 7.4219-7.1289 7.6562-.55078 3.7305-1.9492 6.3203-3.9297 8.125m19.074 3.207c-1.8828-2.3711-2.875-5.4688-2.4961-9.6914-4.1211-1.3281-4.9219-5.0742-5.1289-9.3008m-90.351 89.641c19.102-12.977 32.543-19.086 48.223-24.66m80.652 3.4766c6.957 0 18.426 5.9141 25.621 11.488m-28.441-.66406c13.441 8.7734 21.703 19.508 26.316 33.773m-28.137-30.625c12.934 8.4336 20.516 18.398 24.848 32.07m5.4102-6.168c-5.0937-13.293-13.707-23.766-26.609-32.199m-9.2031 17.129c11.242 7.3828 16.27 14.762 19.719 27.082m-20.926-24.262c10.586 6.9727 14.828 13.434 18.109 25.258l.21485.76562m-20.066-21.398c9.2969 6.1562 12.258 11.086 15.281 21.977l.71093 2.5625m-7.5 31.426.39845-1.2031c6.1094-15.969 16.082-24 29.859-30.105m-17.336 24.75c4.2539-6.8711 9.7344-11.102 17.328-14.766m-22.168 17.391c5.082-10.348 12.102-16.023 22.168-20.727m-26.387 22.824c5.668-13.617 14.195-20.609 26.383-26.148m-39.105 18.008c8.418-18.281 22.715-27.945 39.117-34.523m-37.82 39.07c7.6445-19.211 21.324-29.012 37.824-35.789m-35.383 43.484c12.848-5.4219 24.894-11.945 35.387-20.609m-39.199 8.1719c-1.6016-5.8984-2.7852-11.629-3.2695-17.422-1.1484-13.875 1.5352-28.266 12.43-47.035l6.9766-12.02.83984-1.1836m-8.6953 103.6c-2.3359-7.3164-4.9922-14.828-6.9375-21.266m-54.484-52.156h34.68m-34.129 12.836h30.977m-31.027 3.0547h30.508m39.117 31.816 2.461 1.6445m1.0273-6.3867 2.1992 1.9609m.93359-5.2461 1.957 2.1797m2.2461-5.6875 1.6758 2.4219m2.1055-4.9414 1.4688 2.5742m3.5937-5.3477 1.2578 2.7227m-23.035 17.805 2.5937 1.4141m12.219-78.02v-54.266l9.5078-9.7773m-4.7539 66.84v-55.035l4.7539-4.8906m-9.5117 26.418c-4.9297 1.6328-8.7226 6.4805-11.879 13.121-.17188-4.9336-.98829-10.035 2.375-14.059-1.9102-1.0391-3.6445-1.1562-5.9414-4.2773 2.2969-3.1211 4.0312-3.2383 5.9414-4.2813-3.3633-4.0234-2.5469-9.1211-2.375-14.059 3.1562 6.6445 6.9492 11.492 11.879 13.125m-8.5156 17.613c.004-.39062.0234-.76562.0508-1.125.15625-1.9297.5625-3.2852 1.6641-4.6055l2.9102-3.4805-3.9453-2.1523c-1.0234-.55859-1.6641-.79688-2.2227-1.0352.55859-.24219 1.1992-.48047 2.2227-1.0391l3.9453-2.1484-2.9102-3.4844c-1.1016-1.3203-1.5078-2.6758-1.6641-4.6016-.0273-.35938-.0469-.73828-.0508-1.1289m-3.3633-5.9375c-9.5391 14.273-6.1523 25.77 0 36.676m-48.898 19.363c1.5742.90625 2.5469 2.6211 2.5469 4.4766 0 2.8359-2.2344 5.1328-4.9922 5.1328-2.4883 0-4.6016-1.8867-4.9414-4.4258m4.707-3.0781c.0781-.008.15625-.0117.23438-.0117 1.2812 0 2.3164 1.0664 2.3164 2.3828 0 1.3164-1.0352 2.3828-2.3164 2.3828s-2.3164-1.0664-2.3164-2.3828c0-.375.0859-.74219.2461-1.0742m15.051-6.8711c.21875.58204.33203 1.207.33203 1.832 0 2.8359-2.2344 5.1367-4.9922 5.1367-2.4414 0-4.5273-1.8203-4.9258-4.2969m6.4062-2.6758c.53125.45312.83593 1.1289.83593 1.8359 0 1.3164-1.0352 2.3828-2.3164 2.3828s-2.3164-1.0664-2.3164-2.3828c0-.71094.30468-1.3828.83593-1.8359m16.43 0c.0937.40234.14453.8125.14453 1.2266 0 2.8359-2.2344 5.1328-4.9922 5.1328s-4.9922-2.2969-4.9922-5.1328c0-.41406.0469-.82422.14453-1.2266m6.8359 0c.21484.37109.32812.79297.32812 1.2266 0 1.3164-1.0352 2.3828-2.3164 2.3828s-2.3164-1.0664-2.3164-2.3828c0-.43359.11328-.85547.32812-1.2266m17.234 0c.0977.40234.14453.8125.14453 1.2266 0 2.8359-2.2344 5.1328-4.9922 5.1328s-4.9922-2.2969-4.9922-5.1328c0-.41406.0508-.82422.14453-1.2266m6.8359 0c.21485.37109.32813.79297.32813 1.2266 0 1.3164-1.0352 2.3828-2.3164 2.3828s-2.3164-1.0664-2.3164-2.3828c0-.43359.11328-.85547.32812-1.2266m10.48 6.0859c-2.0234-.71094-3.3828-2.6641-3.3828-4.8594 0-.41406.0508-.82422.14453-1.2266m4.6797 3.6016c-1.2109-.0898-2.1484-1.1289-2.1484-2.375 0-.43359.11328-.85547.32812-1.2266m-4.5703 15.375c-2.2227-.57422-3.7812-2.625-3.7812-4.9805 0-2.8359 2.2344-5.1367 4.9922-5.1367 1.2695 0 2.4922.5 3.4141 1.3906m-3.3359 6.1289h-.0781c-1.2812 0-2.3164-1.0664-2.3164-2.3828s1.0352-2.3828 2.3164-2.3828c.82031 0 1.5781.4414 1.9961 1.168m-7.207 15.496c-2.5664-.24219-4.5352-2.4609-4.5352-5.1133 0-2.8359 2.2344-5.1328 4.9922-5.1328 1.2422 0 2.4375.47265 3.3555 1.332m-2.7031 6.0898c-.21094.0625-.4336.0937-.65235.0937-1.2812 0-2.3164-1.0664-2.3164-2.3828s1.0352-2.3828 2.3164-2.3828c.88281 0 1.6875.51562 2.0781 1.3281m-5.5547 15.969h-.0899c-2.7539 0-4.9883-2.2969-4.9883-5.1328s2.2344-5.1367 4.9883-5.1367c1.0547 0 2.0781.34375 2.9297.97656m-2.0703 6.375c-.27344.10938-.5625.16797-.85938.16797-1.2773 0-2.3164-1.0664-2.3164-2.3828s1.0391-2.3867 2.3164-2.3867c.78125 0 1.5078.40235 1.9375 1.0742m-32.773-19.016c1.0586.97656 1.6602 2.3633 1.6602 3.8242 0 2.8359-2.2344 5.1328-4.9922 5.1328-2.7539 0-4.9922-2.2969-4.9922-5.1328 0-.1211.008-.24219.0156-.36328m5.3242-1.9961c1.1328.17969 1.9727 1.1797 1.9727 2.3594 0 1.3164-1.0391 2.3828-2.3203 2.3828-1.2773 0-2.3164-1.0664-2.3164-2.3828 0-.53516.17578-1.0547.4961-1.4727m-3.8008 1.3047c.71484.91406 1.1055 2.0508 1.1055 3.2227 0 2.8359-2.2344 5.1367-4.9922 5.1367-.61328 0-1.2187-.11718-1.793-.34375m2.4805-7.0703c.97265.3125 1.6328 1.2344 1.6328 2.2774 0 1.3164-1.0391 2.3828-2.3203 2.3828-1.2773 0-2.3164-1.0664-2.3164-2.3828 0-.60938.22656-1.1953.63672-1.6406m32.836-56.254c-6.3672 16.063.57812 21.488.57812 31 0 6.7227-13.668 11.004-13.668 0 0-6.7227 8.914-6.7227 8.914-1.2227 0 4.2773-7.4609 5.4883-7.1328 1.2227.36328-4.707 5.6445-2.3672 4.1602-.60938m5.6484-31.086c-6.8633 16.578-.24219 21.047-.24219 30.691 0 6.7227-10.16 7.1172-9.5664 1.0039m8.3203-32.395c-7.3437 17.152-1.1875 21.391-1.1875 31.172m5.7031-29.117c-5.9219 15.555.83203 20.961.83203 30.34 0 3.7695-4.293 6.7695-8.0664 6.7422m8.7852-36.461c-5.5078 15.078 1.0625 20.465 1.0625 29.719 0 3.7695-4.2891 6.7695-8.0664 6.7422m8.582-35.887c-5.1367 14.645 1.2695 20.012 1.2695 29.145 0 3.7695-4.293 6.7695-8.0664 6.7422m8.3906-35.344c-4.7891 14.234 1.457 19.582 1.457 28.602 0 3.7695-4.293 6.7695-8.0664 6.7422m8.2422-34.883c-4.5039 13.891 1.6094 19.219 1.6094 28.141 0 3.7695-4.293 6.7695-8.0664 6.7422m8.1211-34.508c-4.2773 13.613 1.7266 18.926 1.7266 27.766 0 3.7695-4.293 6.7695-8.0664 6.7422m8.0352-34.23c-4.1055 13.406 1.8125 18.707 1.8125 27.488 0 3.7695-4.293 6.7695-8.0664 6.7422m7.9805-34.055c-3.9961 13.277 1.8711 18.57 1.8711 27.313 0 3.7695-4.293 6.7695-8.0664 6.7422m7.957-33.98c-3.957 13.223 1.8906 18.512 1.8906 27.238 0 3.7695-4.293 6.7695-8.0664 6.7422m7.9726-34.02c-3.9805 13.254 1.875 18.543 1.875 27.277 0 3.7695-4.2891 6.7695-8.0664 6.7422m8.0195-34.172c-4.0703 13.363 1.832 18.66 1.832 27.43 0 3.7695-4.293 6.7695-8.0664 6.7422m8.1016-34.445c-4.2344 13.566 1.7461 18.875 1.7461 27.703 0 3.7695-4.293 6.7695-8.0664 6.7422m8.2266-34.84c-4.4766 13.859 1.6211 19.184 1.6211 28.098 0 3.7695-4.289 6.7695-8.0625 6.7422m8.4062-35.387c-4.8164 14.266 1.4414 19.617 1.4414 28.645 0 3.7695-4.293 6.7695-8.0664 6.7422m-50.168-2.7344c-6.4414 8.0352-13.668 5.7734-13.668.88281 0-4.8906 7.7266-5.5 7.7266-.61328 0 3.668-5.3516 3.0586-5.3516.61328 0-1.2227 0-1.2227.59766-1.8359m8.3164 1.1562c-2.9805 3.2734-5.8437 3.832-8.0156 2.2109m12.77-2.4844c-2.375 4.8906-6.8828 5.5859-9.4336 5.5195m11.812-5.3125c-2.3789 4.8867-6.6406 5.2774-9.1953 5.2109m11.57-5.0781c-2.375 4.8906-6.6367 5.1445-9.1914 5.0781m11.57-5.2812c-2.3789 4.8906-6.6406 5.3477-9.1953 5.2812m11.57-5.4844c-2.375 4.8906-6.6367 5.5508-9.1914 5.4844m11.57-5.6211c-2.3789 4.8906-6.6406 5.6875-9.1953 5.6211m11.57-5.5508c-2.375 4.8867-6.6367 5.6172-9.1914 5.5508m11.57-5.6875c-2.3789 4.8906-6.6406 5.7539-9.1953 5.6875m11.039-4.707c-2.4414 4.0274-6.2891 4.7695-8.6602 4.707m-12.457-47.395c-.35156 1.4766-.92969 3.9922-.92969 4.4219 0 .60938 1.7812 2.4453 1.7812 3.0547 0 .60938-2.9727 3.668-4.1602 5.5-1.1875 1.8359-2.9727 7.3359-2.9727 8.5586 0 1.2227-.59375 2.4453 1.1914 2.4453 1.7812 0 2.375 1.832 2.375 1.832l-1.1875 1.8359 1.1875 3.0547s-.21875 1.6719-.59375 2.4453c-.59375 1.2227 2.3789 1.8359 2.3789 2.4453 0 .61328-2.4297 1.8359-2.3789 2.4453.46484 5.4453-2.8984 6.875-2.9727 6.1133m8.3203-24.449c1.7852 0 1.1875 4.8867-1.1875 3.6641-3.5664-1.832-5.3476.61328-1.7812-.60938m12.477 4.2773c.26172-.73828.8789-1.2227 1.7852-1.2227 2.9688 0 1.1875 5.5039-3.5664 5.5039s-10.102-4.2812-10.102-4.2812v-1.832c4.7539 1.832 3.5625 5.5 10.102 6.1133m-12.48-.61328c2.3789 0 4.7539.61328 7.1328 2.4453-2.7266-2.0234-4.7539-4.2773-8.3203-5.5m4.7539-25.063-.59375 1.8359s5.3476-.61328 6.5351-.61328c3.5664 0 7.1328 5.5 11.289 5.5-4.1562 0-7.7226-6.7227-11.324-6.8633-1.1875-.04687-1.6172 1.1523-3.9922 1.1523-.5625 0-1.9141-1.0117-1.9141-1.0117m12.48 9.7813c-3.5664 0-5.3906-3.0469-7.7266-3.0586-1.207-.0039-3.5664.61328-3.5664.61328m7.2344 1.1797c1.7852 2.4453-4.5742 3.5977-6.0469 1.875m-36.262 36.934c-.71875-1.7891-2.0078-4.8164-3.5508-7.5938-2.375-4.2773-5.3476-1.832-4.1602.61328 1.1914 2.4453 2.3789 4.2773 2.3789 4.2773m-2.3437-4.2852c-.19922-.125-2.5234-3.3594-5.9766-4.8828-4.1602-1.832-3.9492.88281-1.1875 3.0547 1.3359 1.0508 5.9414 7.9492 5.9414 7.9492m-7.1289-9.1328c-2.3789-2.4805-5.3516-1.8711-2.9727 1.7969 2.375 3.668 6.5351 9.168 6.5351 9.168m-6.5351-9.168c-1.7812-2.4453-3.5664 0-1.7812 2.4453 2.2539 3.0938 4.7539 9.7774 4.7539 9.7774m-3.918-8.4844c-3.2148-3.7383-3.3242.14844-2.1367 2.5938.59375 1.2227 2.4883 7.7266 3.082 8.9492l1.2734 2.6172m112.53 1.4023c.5625.96094 1.3672 2.2227-.98828 4.8086-1.0859 1.1914-.32031 2.957 1.2812.95312 2.375-4.2812 4.1562-1.8359 5.3594-2.5664-.31641 1.1992 2.4023 2.5156-1.1992 5.7656-1.1914 1.0781-.59765 2.9102 1.1875 1.0781 2.5117-4.1953 4.2148-1.6953 5.4414-2.3867-.35938 1.1914 2.3203 2.5977-1.3828 5.7266-1.2266 1.0352-.69141 2.8906 1.1484 1.1172 3.4531-3.418 4.4961-.55469 5.8516-.91016-.63671 1.0625 1.6133 3.1133-2.7344 5.1875-1.4375.6875-1.3672 2.6211.71484 1.5156 3.707-2.8164 4.3984.15625 5.7852-.0234-.75781.97266 1.2344 3.2891-3.3242 4.8047-1.5117.5-1.6719 2.4258.67187 1.4688 4.2383-2.2891 4.4648.75781 5.8594.80859-.89453.83594.71094 3.4492-4.0273 4.1953-1.5664.25-2.0234 2.125.43749 1.5625m-21.394-30.676c.54297 1.7891-3.3437 4.2578-1.1562 5.7656 2.4375 1.6836 4.1992-.30469 6.3242-2.4336-1.7695 2.4492-3.6484 4.7305-1.1875 6.7227 2.3086 2.043 4.3398-.26953 6.5351-2.3242-1.8476 2.3867-3.5625 4.7695-2.0898 6.9024 1.5195 2.2031 4.5312-.10938 7.1562-1.5352-2.3711 1.8398-5.3828 3.457-3.875 6.125 1.4883 2.6406 4.6562 1.3203 7.4297.23437-2.5703 1.5234-5.1523 3.168-3.8672 5.8789 1.2344 2.5977 3.9531 1.3672 6.8594.75-2.8438.9375-6.1992 2.332-3.4844 6.3164" stroke-width=".72322"/>
  <path d="m46.539 247.82v-11.938m1.7852 13.043v-14.148m1.7813 2.1484v-3.668m0 10.988v-4.7891m0 10.992v-3.668m1.7812-12.066v-3.418m0 11.98v-2.8477m0 11.98v-3.4219m1.7852-6.6328v-1.0078m74.262-56.773c-11.441 2.9492-19.52 5.8203-29.449 14.492h-16.922c18.633-36.344 12.824-64.652 8.1758-93.555m37.527 75.453c-11.27 2.8984-20.098 6.0234-30.078 14.434h-9.8633c15.668-34.465 10.668-62.711 6.0703-89.984m-21.227-.83983c11.898 32.363 21.715 56.973-1.2695 96.578l-3.7578 6.4688h34.453l1.1797-1.0703c9.3125-8.4492 15.195-10.559 26.16-13.414m-60.062-87.145c10.586 32.434 21.23 54.918-1.0351 93.277l-6.9766 12.02h42.082l2.1914-1.9883c8.8359-8.0195 13.766-9.7695 24.324-12.516m9.6289 82.965c-4.332-7.5586-8.1367-15.012-9.9492-23.227-26.144 6.1133-34.465-16.504-58.234-9.168.73046 13.164-6.668 24.188-13.305 32.398m59.09-.008c-1.9883-5.0586-6.6484-6.0703-6.6055-11.008.0508-5.5 7.2461-5.4062 7.1719.0977-.0508 3.7148-4.1484 3.6133-4.0976-.0547.0234-1.8359 2.5859-1.8008 2.5586.0312m2.8359 10.934c2.1328-4.9844 6.8047-5.875 6.8984-10.805.10547-5.5-7.0937-5.5938-7.1719-.0937-.0508 3.7188 4.0469 3.7227 4.0976.0547.0273-1.8359-2.5352-1.8672-2.5625-.0352m-38.211 10.465c.46875-9.1758-7.5469-10.215-6.8867-16.281.59375-5.4648 8.6797-4.4219 8.0508 1.0391-.42187 3.6914-5.0195 3.0469-4.6016-.59375.21094-1.8203 3.0859-1.4492 2.8789.37109m.55859 15.465c1.6211-9.0274 9.6406-8 10.371-14.055.65625-5.457-7.4258-6.5-8.0547-1.0391-.42578 3.6914 4.1836 4.2344 4.6016.59375.21094-1.8203-2.668-2.1914-2.875-.3711m45.648-.45703c-25.922 3.5195-46.129-8.7031-62.242-3.3984m2.3984-.65234c-.83203 1.4883-1.4062 3.2109-1.7344 5.125-.98438.11719-1.8984.26172-2.7578.42578m9.7109-6.2148c-2.2812 1.6484-3.6719 4.543-3.7891 9.1914-3.6172.19141-6.2422.69141-8.2969 1.3711m69.723 1.1875c-1.1211-.64063-2.3008-1.1328-3.5547-1.3906-.47266-1.4062-1.0039-3.0547-2.043-4.8555-.0937-.16015-.1875-.3164-.28906-.46875m-4.3476.28125c2.5469 2.3008 2.8711 5.5156 4.2695 8.5312 2.9727-.26953 6.4805 2.3164 9.9297 5.5977m-31.57-15.328c-1.1562 1.5781-2.082 3.4453-2.6836 5.582-1.2891.46093-2.4453 1.168-3.4062 2.0312-.73047-1.082-1.6875-2.0625-2.8281-2.8398-.09375-2.4336-.63672-4.6484-1.5156-6.5976m3.5078 18.16c1.1836-4.0195 2.8398-7.4219 7.1289-7.6562.55078-3.7305 1.9492-6.3203 3.9297-8.125m-19.074-3.2068c1.8828 2.3711 2.875 5.4688 2.4961 9.6914 4.1211 1.3281 4.9219 5.0742 5.1289 9.3008m90.351-89.641c-19.102 12.977-32.543 19.086-48.223 24.66m-80.652-3.4766c-6.957 0-18.426-5.9141-25.621-11.488m28.441.66407c-13.441-8.7734-21.703-19.508-26.316-33.773m28.137 30.625c-12.934-8.4336-20.516-18.398-24.848-32.07m-5.4101 6.168c5.0937 13.293 13.707 23.766 26.609 32.199m9.2031-17.129c-11.242-7.3828-16.27-14.762-19.719-27.082m20.926 24.262c-10.586-6.9726-14.828-13.434-18.109-25.258l-.21485-.76562m20.066 21.398c-9.2969-6.1562-12.258-11.086-15.281-21.977l-.71094-2.5625m7.5-31.426-.39844 1.2031c-6.1094 15.969-16.082 24-29.859 30.105m17.336-24.75c-4.2539 6.8711-9.7344 11.102-17.328 14.766m22.168-17.391c-5.082 10.348-12.102 16.023-22.168 20.727m26.387-22.824c-5.668 13.617-14.195 20.609-26.383 26.148m39.105-18.008c-8.418 18.281-22.715 27.945-39.117 34.523m37.82-39.07c-7.6445 19.211-21.324 29.012-37.824 35.789m35.383-43.484c-12.848 5.4219-24.895 11.945-35.387 20.609m39.199-8.1719c1.6016 5.8984 2.7852 11.629 3.2695 17.422 1.1484 13.875-1.5352 28.266-12.43 47.035l-6.9766 12.02-.83984 1.1836m8.6953-103.6c2.3359 7.3164 4.9922 14.828 6.9375 21.266m54.484 52.156h-34.68m34.129-12.836h-30.977m31.027-3.0547h-30.508m-39.117-31.816-2.4609-1.6445m-1.0273 6.3867-2.1992-1.9609m-.9336 5.2461-1.957-2.1797m-2.2461 5.6875-1.6758-2.4219m-2.1055 4.9414-1.4687-2.5742m-3.5937 5.3476-1.2578-2.7226m23.035-17.805-2.5937-1.4141m-12.219 78.02v54.266l-9.5078 9.7774m4.7539-66.84v55.035l-4.7539 4.8906m9.5117-26.418c4.9297-1.6328 8.7226-6.4805 11.879-13.121.17188 4.9336.98829 10.035-2.375 14.059 1.9102 1.0391 3.6445 1.1562 5.9414 4.2774-2.2969 3.1211-4.0312 3.2383-5.9414 4.2812 3.3633 4.0234 2.5469 9.1211 2.375 14.059-3.1562-6.6445-6.9492-11.492-11.879-13.125m8.5156-17.613c-.0039.39062-.02344.76562-.05078 1.125-.15625 1.9297-.5625 3.2852-1.6641 4.6055l-2.9102 3.4805 3.9453 2.1523c1.0234.55859 1.6641.79687 2.2227 1.0352-.55859.24218-1.1992.48047-2.2227 1.0391l-3.9453 2.1484 2.9102 3.4844c1.1016 1.3203 1.5078 2.6758 1.6641 4.6016.02735.35937.04687.73828.05078 1.1289m3.3633 5.9375c9.5391-14.273 6.1523-25.77 0-36.676m48.898-19.363c-1.5742-.90625-2.5469-2.6211-2.5469-4.4766 0-2.8359 2.2344-5.1328 4.9922-5.1328 2.4883 0 4.6016 1.8867 4.9414 4.4258m-4.707 3.0781c-.0781.008-.15625.0117-.23438.0117-1.2812 0-2.3164-1.0664-2.3164-2.3828 0-1.3164 1.0352-2.3828 2.3164-2.3828s2.3164 1.0664 2.3164 2.3828c0 .375-.0859.74218-.24609 1.0742m-15.051 6.8711c-.21875-.58203-.33203-1.207-.33203-1.832 0-2.8359 2.2344-5.1367 4.9922-5.1367 2.4414 0 4.5273 1.8203 4.9258 4.2969m-6.4062 2.6758c-.53125-.45313-.83594-1.1289-.83594-1.8359 0-1.3164 1.0352-2.3828 2.3164-2.3828 1.2813 0 2.3164 1.0664 2.3164 2.3828 0 .71094-.30468 1.3828-.83593 1.8359m-16.43 0c-.09375-.40235-.14453-.8125-.14453-1.2266 0-2.8359 2.2344-5.1328 4.9922-5.1328 2.7578 0 4.9922 2.2969 4.9922 5.1328 0 .41407-.04688.82422-.14453 1.2266m-6.8359 0c-.21484-.3711-.32812-.79297-.32812-1.2266 0-1.3164 1.0352-2.3828 2.3164-2.3828 1.2812 0 2.3164 1.0664 2.3164 2.3828 0 .4336-.11328.85547-.32812 1.2266m-17.234 0c-.09766-.40235-.14453-.8125-.14453-1.2266 0-2.8359 2.2344-5.1328 4.9922-5.1328s4.9922 2.2969 4.9922 5.1328c0 .41407-.05078.82422-.14453 1.2266m-6.8359 0c-.21484-.3711-.32812-.79297-.32812-1.2266 0-1.3164 1.0352-2.3828 2.3164-2.3828 1.2812 0 2.3164 1.0664 2.3164 2.3828 0 .4336-.11328.85547-.32812 1.2266m-10.48-6.0859c2.0234.71094 3.3828 2.6641 3.3828 4.8594 0 .41407-.05078.82422-.14453 1.2266m-4.6797-3.6016c1.2109.0899 2.1484 1.1289 2.1484 2.375 0 .4336-.11328.85547-.32813 1.2266m4.5703-15.375c2.2227.57422 3.7812 2.625 3.7812 4.9805 0 2.8359-2.2344 5.1367-4.9922 5.1367-1.2695 0-2.4922-.5-3.4141-1.3906m3.3359-6.1289h.07812c1.2812 0 2.3164 1.0664 2.3164 2.3828 0 1.3164-1.0352 2.3828-2.3164 2.3828-.82031 0-1.5781-.44141-1.9961-1.168m7.207-15.496c2.5664.24218 4.5352 2.4609 4.5352 5.1133 0 2.8359-2.2344 5.1328-4.9922 5.1328-1.2422 0-2.4375-.47266-3.3555-1.332m2.7031-6.0898c.21094-.0625.43359-.0937.65234-.0937 1.2812 0 2.3164 1.0664 2.3164 2.3828 0 1.3164-1.0352 2.3828-2.3164 2.3828-.88281 0-1.6875-.51563-2.0781-1.3281m5.5547-15.969h.08984c2.7539 0 4.9883 2.2969 4.9883 5.1328 0 2.8359-2.2344 5.1367-4.9883 5.1367-1.0547 0-2.0781-.34375-2.9297-.97656m2.0703-6.375c.27344-.10937.5625-.16797.85937-.16797 1.2773 0 2.3164 1.0664 2.3164 2.3828 0 1.3164-1.0391 2.3867-2.3164 2.3867-.78125 0-1.5078-.40235-1.9375-1.0742m32.773 19.016c-1.0586-.97657-1.6602-2.3633-1.6602-3.8242 0-2.8359 2.2344-5.1328 4.9922-5.1328 2.7539 0 4.9922 2.2969 4.9922 5.1328 0 .12109-.008.24219-.0156.36328m-5.3242 1.9961c-1.1328-.17968-1.9727-1.1797-1.9727-2.3594 0-1.3164 1.0391-2.3828 2.3203-2.3828 1.2773 0 2.3164 1.0664 2.3164 2.3828 0 .53515-.17578 1.0547-.49609 1.4726m3.8008-1.3047c-.71484-.91407-1.1055-2.0508-1.1055-3.2227 0-2.8359 2.2344-5.1367 4.9922-5.1367.61328 0 1.2188.11719 1.793.34375m-2.4805 7.0703c-.97265-.3125-1.6328-1.2344-1.6328-2.2773 0-1.3164 1.0391-2.3828 2.3203-2.3828 1.2773 0 2.3164 1.0664 2.3164 2.3828 0 .60938-.22656 1.1953-.63671 1.6406m-32.836 56.254c6.3672-16.062-.57812-21.488-.57812-31 0-6.7226 13.668-11.004 13.668 0 0 6.7227-8.914 6.7227-8.914 1.2227 0-4.2774 7.4609-5.4883 7.1328-1.2227-.36328 4.707-5.6445 2.3672-4.1602.60938m-5.6484 31.086c6.8633-16.578.24219-21.047.24219-30.691 0-6.7227 10.16-7.1172 9.5664-1.0039m-8.3203 32.395c7.3437-17.152 1.1875-21.391 1.1875-31.172m-5.7031 29.117c5.9219-15.555-.83203-20.961-.83203-30.34 0-3.7695 4.293-6.7695 8.0664-6.7422m-8.7851 36.461c5.5078-15.078-1.0625-20.465-1.0625-29.719 0-3.7695 4.2891-6.7695 8.0664-6.7422m-8.582 35.887c5.1367-14.645-1.2695-20.012-1.2695-29.145 0-3.7695 4.293-6.7695 8.0664-6.7422m-8.3906 35.344c4.7891-14.234-1.457-19.582-1.457-28.602 0-3.7695 4.293-6.7695 8.0664-6.7422m-8.2422 34.883c4.5039-13.891-1.6094-19.219-1.6094-28.141 0-3.7695 4.293-6.7695 8.0664-6.7422m-8.1211 34.508c4.2773-13.613-1.7266-18.926-1.7266-27.766 0-3.7695 4.293-6.7695 8.0664-6.7422m-8.0351 34.23c4.1055-13.406-1.8125-18.707-1.8125-27.488 0-3.7695 4.293-6.7695 8.0664-6.7422m-7.9805 34.055c3.9961-13.277-1.8711-18.57-1.8711-27.312 0-3.7695 4.293-6.7695 8.0664-6.7422m-7.957 33.98c3.957-13.223-1.8906-18.512-1.8906-27.238 0-3.7695 4.293-6.7695 8.0664-6.7422m-7.9726 34.02c3.9805-13.254-1.875-18.543-1.875-27.277 0-3.7695 4.2891-6.7695 8.0664-6.7422m-8.0195 34.172c4.0703-13.363-1.832-18.66-1.832-27.43 0-3.7695 4.293-6.7695 8.0664-6.7422m-8.1016 34.445c4.2344-13.566-1.7461-18.875-1.7461-27.703 0-3.7695 4.293-6.7695 8.0664-6.7422m-8.2266 34.84c4.4766-13.859-1.6211-19.184-1.6211-28.098 0-3.7695 4.2891-6.7695 8.0625-6.7422m-8.4062 35.387c4.8164-14.266-1.4414-19.617-1.4414-28.645 0-3.7695 4.293-6.7695 8.0664-6.7422m50.168 2.7344c6.4414-8.0352 13.668-5.7734 13.668-.88281 0 4.8906-7.7266 5.5-7.7266.61328 0-3.668 5.3516-3.0586 5.3516-.61328 0 1.2226 0 1.2226-.59765 1.8359m-8.3164-1.1562c2.9805-3.2734 5.8437-3.832 8.0156-2.2109m-12.77 2.4844c2.375-4.8906 6.8828-5.5859 9.4336-5.5195m-11.812 5.3125c2.3789-4.8867 6.6406-5.2773 9.1953-5.2109m-11.57 5.0781c2.375-4.8906 6.6367-5.1445 9.1914-5.0781m-11.57 5.2812c2.3789-4.8906 6.6406-5.3476 9.1953-5.2812m-11.57 5.4844c2.375-4.8906 6.6367-5.5508 9.1914-5.4844m-11.57 5.6211c2.3789-4.8906 6.6406-5.6875 9.1953-5.6211m-11.57 5.5508c2.375-4.8867 6.6367-5.6172 9.1914-5.5508m-11.57 5.6875c2.3789-4.8906 6.6406-5.7539 9.1953-5.6875m-11.039 4.707c2.4414-4.0273 6.2891-4.7695 8.6602-4.707m12.457 47.395c.35156-1.4766.92969-3.9922.92969-4.4219 0-.60937-1.7812-2.4453-1.7812-3.0547 0-.60937 2.9726-3.668 4.1602-5.5 1.1875-1.8359 2.9726-7.3359 2.9726-8.5586s.59375-2.4453-1.1914-2.4453c-1.7812 0-2.375-1.832-2.375-1.832l1.1875-1.8359-1.1875-3.0547s.21875-1.6719.59375-2.4453c.59375-1.2227-2.3789-1.8359-2.3789-2.4453 0-.61329 2.4297-1.8359 2.3789-2.4453-.46484-5.4453 2.8984-6.875 2.9726-6.1133m-8.3203 24.449c-1.7852 0-1.1875-4.8867 1.1875-3.6641 3.5664 1.832 5.3476-.61328 1.7812.60937m-12.477-4.2773c-.26172.73828-.8789 1.2227-1.7852 1.2227-2.9688 0-1.1875-5.5039 3.5664-5.5039s10.102 4.2812 10.102 4.2812v1.832c-4.7539-1.832-3.5625-5.5-10.102-6.1133m12.48.61328c-2.3789 0-4.7539-.61328-7.1328-2.4453 2.7266 2.0234 4.7539 4.2773 8.3203 5.5m-4.7539 25.062.59375-1.8359s-5.3476.61328-6.5352.61328c-3.5664 0-7.1328-5.5-11.289-5.5 4.1562 0 7.7226 6.7227 11.324 6.8633 1.1875.0469 1.6172-1.1523 3.9922-1.1523.5625 0 1.9141 1.0117 1.9141 1.0117m-12.48-9.7812c3.5664 0 5.3906 3.0469 7.7266 3.0586 1.207.004 3.5664-.61328 3.5664-.61328m-7.2344-1.1797c-1.7852-2.4453 4.5742-3.5976 6.0469-1.875m36.262-36.934c.71875 1.7891 2.0078 4.8164 3.5508 7.5938 2.375 4.2773 5.3476 1.832 4.1602-.61328-1.1914-2.4453-2.3789-4.2774-2.3789-4.2774m2.3437 4.2852c.19922.125 2.5234 3.3594 5.9766 4.8828 4.1602 1.832 3.9492-.88281 1.1875-3.0547-1.3359-1.0508-5.9414-7.9492-5.9414-7.9492m7.1289 9.1328c2.3789 2.4805 5.3516 1.8711 2.9726-1.7969-2.375-3.668-6.5352-9.168-6.5352-9.168m6.5352 9.168c1.7812 2.4453 3.5664 0 1.7812-2.4453-2.2539-3.0938-4.7539-9.7773-4.7539-9.7773m3.918 8.4844c3.2148 3.7383 3.3242-.14843 2.1367-2.5938-.59375-1.2226-2.4883-7.7266-3.082-8.9492l-1.2734-2.6172m-112.53-1.4024c-.5625-.96094-1.3672-2.2226.98828-4.8086 1.0859-1.1914.32031-2.957-1.2812-.95313-2.375 4.2812-4.1562 1.8359-5.3594 2.5664.3164-1.1992-2.4023-2.5156 1.1992-5.7656 1.1914-1.0781.59765-2.9102-1.1875-1.0781-2.5117 4.1953-4.2148 1.6953-5.4414 2.3867.35938-1.1914-2.3203-2.5977 1.3828-5.7266 1.2266-1.0352.69141-2.8906-1.1484-1.1172-3.4531 3.418-4.4961.55468-5.8516.91015.63672-1.0625-1.6133-3.1133 2.7344-5.1875 1.4375-.6875 1.3672-2.6211-.71484-1.5156-3.707 2.8164-4.3984-.15625-5.7852.0234.75781-.97266-1.2344-3.2891 3.3242-4.8047 1.5117-.5 1.6719-2.4258-.67187-1.4688-4.2383 2.2891-4.4648-.75781-5.8594-.8086.89453-.83593-.71094-3.4492 4.0273-4.1953 1.5664-.25 2.0234-2.125-.4375-1.5625m21.395 30.676c-.54297-1.7891 3.3437-4.2578 1.1562-5.7656-2.4375-1.6836-4.1992.30469-6.3242 2.4336 1.7695-2.4492 3.6484-4.7305 1.1875-6.7226-2.3086-2.043-4.3398.26953-6.5351 2.3242 1.8477-2.3867 3.5625-4.7695 2.0898-6.9023-1.5195-2.2031-4.5312.10938-7.1562 1.5352 2.3711-1.8398 5.3828-3.457 3.875-6.125-1.4883-2.6406-4.6562-1.3203-7.4297-.23438 2.5703-1.5234 5.1523-3.168 3.8672-5.8789-1.2344-2.5977-3.9531-1.3672-6.8594-.75 2.8437-.9375 6.1992-2.332 3.4844-6.3164" stroke-width=".72322"/>
  <path d="m100.02 67.645c.3164-1.1641 2.0976-2.8789 3.3164-2.6914 2.1758.33594 4.4102 4.5273 5.5976 4.5273m1.1914 1.2227c-1.1914 0-2.3789 1.2227-2.3789 1.2227m-3.207-3.4414c.043.24219.0625.49219.0625.75391 0 1.6875-.92968 3.0586-2.0781 3.0586s-2.082-1.3711-2.082-3.0586c0-.53906.0977-1.0469.26563-1.4883m-51.102 28.234c-.44141 1.6367-.84375 1.8672-1.9219 2.1094m-.96875-.67969c-.44141 1.6367-1.3477 1.6328-2.4219 1.875m.48828.74609c-.44141 1.6367-.91406 1.7266-2.1641 1.6797m.90234 1.7852c-.59766 1.3008-1.3125 1.2812-2.3359 1.168m15.691-6.1836c.73828 1.9141 3.332 2.168 3.332 2.168m-17.23 6.7266c.57031.10938.9414-.13672 1.1875-.61328m3.9453-4.1524c.57031.10938.94531-.35546 1.1875-.83203m-6.3203 5.5977c.57031.10938.9414-.13672 1.1875-.61328m7.2539-6.3945c.56641.10937.78906-.32422 1.0352-.80078m-7.2578 4.9727c.57031.10938.94531-.32422 1.1875-.80078" stroke-width=".36161"/>
 </g>
 <g fill="#f00">
  <path d="m107.75 157.5c.59375 0 4.7539-5.3477 4.7539-5.9414 0 .59375 4.1602 5.9414 4.7539 5.9414-.59375 0-4.7539 5.3477-4.7539 5.9414 0-.59375-4.1602-5.9414-4.7539-5.9414z"/>
  <path d="m98.238 157.5c.59375 0 4.7539-5.3477 4.7539-5.9414 0 .59375 4.1602 5.9414 4.7539 5.9414-.59375 0-4.7539 5.3477-4.7539 5.9414 0-.59375-4.1602-5.9414-4.7539-5.9414z"/>
  <g stroke="#4242ff" stroke-linecap="round" stroke-linejoin="round">
   <path d="m76.285 115.23c.8125-.21875 4.5429-9.0625 4.3242-9.875.21875.81249 7.8711 6.6054 8.6836 6.3867-.8125.21875-4.5429 9.0625-4.3242 9.875-.21875-.8125-7.8711-6.6055-8.6836-6.3867z" stroke-width=".713"/>
   <path d="m81.098 129.8c.73047-.12891 4.6914-7.6172 4.5625-8.3476.12891.73047 6.4102 6.4102 7.1406 6.2812-.73047.12891-4.6914 7.6172-4.5625 8.3476-.12891-.73047-6.4102-6.4102-7.1406-6.2812z" stroke-width=".71302"/>
   <path d="m83.957 143.89c.64062-.0586 4.625-6.2187 4.5703-6.8633.05469.64453 5.0508 6.0195 5.6914 5.9648-.64062.0547-4.625 6.2187-4.5703 6.8594-.05469-.64062-5.0508-6.0195-5.6914-5.9609z" stroke-width=".71301"/>
   <path d="m85.563 155.3c.54297 0 4.3555-4.9024 4.3555-5.4492 0 .54688 3.8125 5.4492 4.3594 5.4492-.54687 0-4.3594 4.8984-4.3594 5.4453 0-.54688-3.8125-5.4453-4.3555-5.4453z" stroke-width=".71301"/>
   <path d="m84.828 165.37c.48828.0859 4.6758-3.7031 4.7617-4.1914-.08594.48828 2.5547 5.4805 3.043 5.5664-.48828-.0859-4.6758 3.6992-4.7617 4.1875.08594-.48828-2.5547-5.4766-3.043-5.5625z" stroke-width=".71302"/>
  </g>
  <path d="m183.09 154.41c.22266.38281 5.2578 1.082 5.6445.85938-.38672.22265-2.3008 4.9297-2.0781 5.3125-.22266-.38282-5.2578-1.082-5.6406-.85938.38281-.22265 2.2969-4.9297 2.0742-5.3125z"/>
  <path d="m172.36 161.12c.28906.34375 5.3672.15234 5.707-.13281-.33984.28515-1.4102 5.2539-1.1211 5.5938-.28906-.33985-5.3672-.15235-5.707.13672.33984-.28907 1.4102-5.2539 1.1211-5.5977z"/>
  <path d="m162.54 169.88c.34375.28515 5.3125-.78125 5.5976-1.1211-.28515.33985-.47656 5.418-.13281 5.7031-.34375-.28516-5.3125.78125-5.5977 1.1211.28516-.33984.47657-5.418.13282-5.7031z"/>
  <path d="m155.52 181.27c.38672.22266 5.0938-1.6914 5.3164-2.0781-.22265.38671.47266 5.418.85938 5.6406-.38672-.22266-5.0938 1.6914-5.3164 2.0781.22266-.38672-.47265-5.418-.85937-5.6406z"/>
 </g>
 <path d="m124.98 247.36c-.3164 1.1641-2.0976 2.8789-3.3164 2.6914-2.1758-.33594-4.4102-4.5273-5.5976-4.5273m-1.1914-1.2227c1.1914 0 2.3789-1.2227 2.3789-1.2227m3.207 3.4414c-.043-.24219-.0625-.49219-.0625-.75391 0-1.6875.92968-3.0586 2.0781-3.0586s2.082 1.3711 2.082 3.0586c0 .53907-.0977 1.0469-.26563 1.4883m51.102-28.234c.4414-1.6367.84375-1.8672 1.9219-2.1094m.96875.67969c.44141-1.6367 1.3476-1.6328 2.4219-1.875m-.48828-.74609c.44141-1.6367.91406-1.7266 2.1641-1.6797m-.90234-1.7852c.59765-1.3008 1.3125-1.2812 2.3359-1.168m-15.691 6.1836c-.73828-1.9141-3.332-2.168-3.332-2.168m17.23-6.7266c-.57032-.10938-.94141.13671-1.1875.61328m-3.9453 4.1523c-.57031-.10937-.94531.35547-1.1875.83203m6.3203-5.5976c-.57032-.10938-.94141.13671-1.1875.61328m-7.2539 6.3945c-.5664-.10938-.78906.32422-1.0352.80078m7.2578-4.9727c-.57031-.10937-.94531.32422-1.1875.80079" fill="none" stroke="#4242ff" stroke-linecap="round" stroke-linejoin="round" stroke-width=".36161"/>
 <g fill="#f00">
  <path d="m117.25 157.5c-.59375 0-4.7539 5.3477-4.7539 5.9414 0-.59375-4.1602-5.9414-4.7539-5.9414.59375 0 4.7539-5.3477 4.7539-5.9414 0 .59375 4.1602 5.9414 4.7539 5.9414z"/>
  <path d="m126.76 157.5c-.59375 0-4.7539 5.3477-4.7539 5.9414 0-.59375-4.1602-5.9414-4.7539-5.9414.59375 0 4.7539-5.3477 4.7539-5.9414 0 .59375 4.1602 5.9414 4.7539 5.9414z"/>
  <g stroke="#4242ff" stroke-linecap="round" stroke-linejoin="round">
   <path d="m148.71 199.77c-.8125.21875-4.543 9.0625-4.3242 9.875-.21875-.81249-7.8711-6.6054-8.6836-6.3867.8125-.21875 4.543-9.0625 4.3242-9.875.21875.8125 7.8711 6.6055 8.6836 6.3867z" stroke-width=".713"/>
   <path d="m143.9 185.2c-.73047.12891-4.6914 7.6172-4.5625 8.3476-.1289-.73047-6.4102-6.4102-7.1406-6.2812.73047-.12891 4.6914-7.6172 4.5625-8.3476.12891.73047 6.4102 6.4102 7.1406 6.2812z" stroke-width=".71302"/>
   <path d="m141.04 171.11c-.64062.0586-4.625 6.2187-4.5703 6.8633-.0547-.64453-5.0508-6.0195-5.6914-5.9648.64062-.0547 4.625-6.2187 4.5703-6.8594.0547.64062 5.0508 6.0195 5.6914 5.9609z" stroke-width=".71301"/>
   <path d="m139.44 159.7c-.54297 0-4.3555 4.9024-4.3555 5.4492 0-.54688-3.8125-5.4492-4.3594-5.4492.54687 0 4.3594-4.8984 4.3594-5.4453 0 .54688 3.8125 5.4453 4.3555 5.4453z" stroke-width=".71301"/>
   <path d="m140.17 149.63c-.48828-.0859-4.6758 3.7031-4.7617 4.1914.0859-.48828-2.5547-5.4805-3.043-5.5664.48828.0859 4.6758-3.6992 4.7617-4.1875-.0859.48828 2.5547 5.4766 3.043 5.5625z" stroke-width=".71302"/>
  </g>
  <path d="m41.906 160.59c-.22266-.38282-5.2578-1.082-5.6445-.85938.38672-.22265 2.3008-4.9297 2.0781-5.3125.22266.38281 5.2578 1.082 5.6406.85938-.38281.22265-2.2969 4.9297-2.0742 5.3125z"/>
  <path d="m52.637 153.88c-.28906-.34375-5.3672-.15234-5.707.13281.33984-.28515 1.4102-5.2539 1.1211-5.5938.28906.33985 5.3672.15235 5.707-.13672-.33984.28907-1.4102 5.2539-1.1211 5.5977z"/>
  <path d="m62.465 145.12c-.34375-.28515-5.3125.78125-5.5977 1.1211.28516-.33985.47656-5.418.13281-5.7031.34375.28516 5.3125-.78125 5.5977-1.1211-.28516.33984-.47656 5.418-.13281 5.7031z"/>
  <path d="m69.477 133.73c-.38672-.22266-5.0938 1.6914-5.3164 2.0781.22266-.38672-.47266-5.418-.85938-5.6406.38672.22265 5.0938-1.6914 5.3164-2.0781-.22266.38672.47266 5.418.85937 5.6406z"/>
 </g>
 <path d="m11.699 12.449h6m-3 0v27.602m-3 0h6m5.1016-27.602h6m-3 .60156-10.652 17.848m7.6523 9.1523h6m-3-.60156-5.8516-15.301" fill="none" stroke="#f00" stroke-linecap="square" stroke-miterlimit="1.5" stroke-width="2.4"/>
 <path d="m11.887 58.484c1.043 0 8.3633-9.4102 8.3633-10.457 0 1.0469 7.3203 10.457 8.3672 10.457-1.0469 0-8.3672 9.4102-8.3672 10.457 0-1.0469-7.3203-10.457-8.3633-10.457z" fill="#f00"/>
 <path d="m37.125 59.699c2.1758 0 17.398-19.574 17.398-21.75 0 2.1758 15.227 21.75 17.402 21.75-2.1758 0-17.402 19.574-17.402 21.75 0-2.1758-15.223-21.75-17.398-21.75z" fill="#f00"/>
 <path d="m213.3 302.55h-6m3 0v-27.602m3 0h-6m-5.1016 27.602h-6m3-.60156 10.652-17.848m-7.6523-9.1523h-6m3 .60156 5.8516 15.301" fill="none" stroke="#f00" stroke-linecap="square" stroke-miterlimit="1.5" stroke-width="2.4"/>
 <path d="m213.11 256.52c-1.043 0-8.3633 9.4102-8.3633 10.457 0-1.0469-7.3203-10.457-8.3672-10.457 1.0469 0 8.3672-9.4102 8.3672-10.457 0 1.0469 7.3203 10.457 8.3633 10.457z" fill="#f00"/>
 <path d="m187.88 255.3c-2.1758 0-17.398 19.574-17.398 21.75 0-2.1758-15.227-21.75-17.402-21.75 2.1758 0 17.402-19.574 17.402-21.75 0 2.1758 15.223 21.75 17.398 21.75z" fill="#f00"/>
 <path d="m35.25 35.25h154.5v244.5h-154.5z" fill="none" stroke="#4242ff" stroke-width=".9375"/>
</svg>
