<svg width="225px" height="315px" version="1.1" viewBox="0 0 225 315" xmlns="http://www.w3.org/2000/svg">
 <path d="m11.719.46875h201.56c6.2148 0 11.25 5.0352 11.25 11.25v291.56c0 6.2148-5.0352 11.25-11.25 11.25h-201.56c-6.2148 0-11.25-5.0352-11.25-11.25v-291.56c0-6.2148 5.0352-11.25 11.25-11.25z" fill="#fff"/>
 <path d="m13.5 19.5c-.60156-1.1992.75-7.0508 6.75-7.0508s6.75 4.0508 6.75 7.0508c0 6-13.5 11.551-13.5 20.551h13.5v-4.8008" fill="none" stroke="#f00" stroke-linecap="square" stroke-miterlimit="1.5" stroke-width="2.4"/>
 <path d="m20.25 52.211c0-2.0898 2.0938-4.1836 4.1836-4.1836s4.1836 2.0938 4.1836 5.2305c0 5.2266-8.3672 13.594-8.3672 15.684 0-2.0898-8.3633-10.457-8.3633-15.684 0-3.1367 2.0898-5.2305 4.1797-5.2305 2.0938 0 4.1836 2.0938 4.1836 4.1836z" fill="#f00"/>
 <path d="m112.5 46.875c0-5.4688 5.4688-10.938 10.938-10.938s10.938 5.4688 10.938 13.672c0 13.672-21.875 35.547-21.875 41.016 0-5.4688-21.875-27.344-21.875-41.016 0-8.2031 5.4688-13.672 10.938-13.672s10.938 5.4688 10.938 10.938z" fill="#f00"/>
 <path d="m211.5 295.5c.60156 1.1992-.75 7.0508-6.75 7.0508s-6.75-4.0508-6.75-7.0508c0-6 13.5-11.551 13.5-20.551h-13.5v4.8008" fill="none" stroke="#f00" stroke-linecap="square" stroke-miterlimit="1.5" stroke-width="2.4"/>
 <path d="m204.75 262.79c0 2.0898-2.0938 4.1836-4.1836 4.1836-2.0898 0-4.1836-2.0938-4.1836-5.2305 0-5.2266 8.3672-13.594 8.3672-15.684 0 2.0898 8.3633 10.457 8.3633 15.684 0 3.1367-2.0898 5.2305-4.1797 5.2305-2.0938 0-4.1836-2.0938-4.1836-4.1836z" fill="#f00"/>
 <path d="m112.5 268.12c0 5.4688-5.4688 10.938-10.938 10.938s-10.938-5.4688-10.938-13.672c0-13.672 21.875-35.547 21.875-41.016 0 5.4688 21.875 27.344 21.875 41.016 0 8.2031-5.4688 13.672-10.938 13.672s-10.938-5.4688-10.938-10.938z" fill="#f00"/>
</svg>
