<svg width="225px" height="315px" version="1.1" viewBox="0 0 225 315" xmlns="http://www.w3.org/2000/svg">
 <path d="m11.719.46875h201.56c6.2148 0 11.25 5.0352 11.25 11.25v291.56c0 6.2148-5.0352 11.25-11.25 11.25h-201.56c-6.2148 0-11.25-5.0352-11.25-11.25v-291.56c0-6.2148 5.0352-11.25 11.25-11.25z" fill="#fff"/>
 <path d="m112.5 141.09c0-5.4688 5.4688-10.938 10.938-10.938s10.938 5.4688 10.938 13.672c0 13.672-21.875 35.547-21.875 41.016 0-5.4688-21.875-27.344-21.875-41.016 0-8.2031 5.4688-13.672 10.938-13.672s10.938 5.4688 10.938 10.938z" fill="#f00"/>
 <path d="m12.148 40.051h4.8008m-2.6992-.30078 6-27.301 6 27.301m-2.6992.30078h4.8008m-11.703-9.9023h7.2031" fill="none" stroke="#f00" stroke-linecap="square" stroke-miterlimit="1.5" stroke-width="2.4"/>
 <path d="m20.25 52.211c0-2.0898 2.0938-4.1836 4.1836-4.1836s4.1836 2.0938 4.1836 5.2305c0 5.2266-8.3672 13.594-8.3672 15.684 0-2.0898-8.3633-10.457-8.3633-15.684 0-3.1367 2.0898-5.2305 4.1797-5.2305 2.0938 0 4.1836 2.0938 4.1836 4.1836z" fill="#f00"/>
 <path d="m212.85 274.95h-4.8008m2.6992.30078-6 27.301-6-27.301m2.6992-.30078h-4.8008m11.703 9.9023h-7.2031" fill="none" stroke="#f00" stroke-linecap="square" stroke-miterlimit="1.5" stroke-width="2.4"/>
 <path d="m204.75 262.79c0 2.0898-2.0938 4.1836-4.1836 4.1836-2.0898 0-4.1836-2.0938-4.1836-5.2305 0-5.2266 8.3672-13.594 8.3672-15.684 0 2.0898 8.3633 10.457 8.3633 15.684 0 3.1367-2.0898 5.2305-4.1797 5.2305-2.0938 0-4.1836-2.0938-4.1836-4.1836z" fill="#f00"/>
</svg>
