<svg width="232.99" height="322.99" version="1.1" viewBox="0 0 232.99 322.99" xmlns="http://www.w3.org/2000/svg">
 <path d="m15.717 0c-8.6278 0-15.717 7.089-15.717 15.717v291.56c0 8.6278 7.089 15.717 15.717 15.717h201.56c8.6278 0 15.717-7.089 15.717-15.717v-291.56c0-8.6278-7.089-15.717-15.717-15.717h-201.56zm0 8.5488h201.56c4.0104 0 7.168 3.1576 7.168 7.168v291.56c0 4.0104-3.1576 7.168-7.168 7.168h-201.56c-4.0104 0-7.168-3.1576-7.168-7.168v-291.56c0-4.0104 3.1576-7.168 7.168-7.168z" fill="#fff" stroke="none"/>
</svg>
