<svg width="225px" height="315px" version="1.1" viewBox="0 0 225 315" xmlns="http://www.w3.org/2000/svg">
 <g>
  <path d="m11.719.46875h201.56c6.2148 0 11.25 5.0352 11.25 11.25v291.56c0 6.2148-5.0352 11.25-11.25 11.25h-201.56c-6.2148 0-11.25-5.0352-11.25-11.25v-291.56c0-6.2148 5.0352-11.25 11.25-11.25z" fill="#fff"/>
  <path d="m189.75 38.57v9.1445l-7.1289 8.9297v58.602l-5.3516-3.8164v-35.551c-5.6484 1.6992-6.8594 7.3242-7.1055 13.793-5.0352-9.6367-.88672-12.629 1.1641-17.137-2.6641-.82812-5.2422-1.9141-7.1289-4.8906 2.3203-2.6055 4.7305-3.3164 7.1289-4.2773-5.418-8.5195-2.4258-11.859.2461-15.41-.50391 4.1445-.75781 8.3633 5.6328 14.297l.0625 7.3164v-15.371zm-73.25 11.355c10.699 0 21.055 1.9258 29.734 4.3984 6.1328 14.973-2.1055 26.781 5.4844 39.605-2.375-6.7227 9.7031-9.1367 8.9141.61328-.1914 2.3711-1.8125 3.5039-3.7969 3.6523.51562-.02734.98047-.09375 1.3711-.21094l5.3555 3.8008v-.004l26.188 18.578v3.668l-27.984-19.852 1.7461-2.3281-32.887 43.734-.004 2.1367h-36.246v-2.1367c-3.3906-14.324-8.6133-27.363-17.223-39.004l12.34-9.3008c2.2539 2.5703 4.2539 5.2578 6.0391 8.0469l-.25-.39063h45.707l5.9766-7.9492h2.5938c-.83593-.25391-1.7031-.53516-2.5898-.83203-.45313-.07422-.91016-.14453-1.3672-.21875l1.3633 1.0508-1.3906 1.8359h-54.625l-1.4531-1.5391 2.8008-2.1289h48.383c-4.1445-.72266-8.1445-1.7227-11.398-3.9648-.87109-.60547-1.5195-1.5195-2.4453-2.0977-1.3438-.83203-2.6406-1.6523-3.3633-3.1055l3.043 1.1719-2.9961-1.1641c-1.0664-.33203-1.8164-1.2461-2.6992-3.0664-7.1445-14.699 2.3477-15.887-7.6484-32.938 1.1094-.04297 2.2226-.0625 3.3281-.0625zm-65.027 42.117c2.8398-.02344 6.2383 1.1836 8.7344 3.1094 4.7539 3.668 9.5078 1.832 8.9141-3.0547 8.3203 3.668.59375 17.113-7.7266 11.613-5.0117-3.3164-12.477-4.8906-13.664-.61328-3.7734-7.9766-.69141-11.012 3.7422-11.055zm103.2 5.957.32422.12891c.32812.03516.65234.05859.96484.07031-.42187-.02734-.85547-.09375-1.2891-.19922zm-59.121 7.3555c7.7422 12.094 11.512 26.059 14.871 40.215l30.188-40.137-1.0938 1.332h-43.062zm-26.961 7.7891c6.2266 8.0274 10.793 16.711 14.207 26.027l-2.5586 2.8633c-3.2812-9.7188-7.7227-18.773-13.887-27.137.64453 3.2773.98438 6.6953.98438 10.207 0 16.703-7.7031 31.262-19.105 38.91l.30859-.19531c5.4375 14.16 13.734 27.613 22.062 37.195l-1.6445 2.1406c-8.6055-9.2812-17.406-22.957-23.273-37.535l.74219-.46875c-3.457 2.0312-7.2188 3.4414-11.18 4.1172v-2.2578c17.051-2.3398 30.305-20 30.305-41.441 0-3.25-.30469-6.4102-.87891-9.4453l1.6641-1.2422c-.01172-.0195-.02344-.0352-.03516-.0547zm-10.508 7.8984-2.1094 1.6133c.05469.80859.07813 1.625.07813 2.4492 0 15.031-8.9258 27.578-20.805 30.52v-3.7578c10.168-2.875 17.73-13.766 17.73-26.762 0-.0859 0-.16797-.0039-.25zm2.4102 1.6172c1.3086-.0273 2.4688.88281 1.6992 3.1914 5.2812-1.0664 3.0352 7.168-.86328 3.5586-.89453 5.2969-8.1523-.61329-2.4492-2.5234-2.25-2.3867-.17969-4.1875 1.6133-4.2266zm30.301 10.578 3.5664 12.898c-5.7969 4.2812-9.5586 11.199-9.5586 19.004 0 4.5234 1.2656 8.7539 3.457 12.34l-7.9922 10.734c-5.1094-6.2773-8.1758-14.312-8.1758-23.074 0-13.75 7.5547-25.719 18.703-31.902zm-32.887 2.3867c1.543 0 3 1.1562 1.5859 3.5508 5.3789.11719 1.4766 7.668-1.5859 3.2852-1.9688 4.9766-7.832-2.3867-1.8672-3.0039-1.5195-2.5195.22266-3.8281 1.8672-3.832zm-7.1094 11.688c1.8281.0234 3.8164 1.7891 1.3906 4.0156 5.1094 1.7266-.76562 7.7774-2.4492 2.6641-3.2969 4.168-6.8125-4.6367-.93359-3.4336-.60156-2.3438.65234-3.2578 1.9922-3.2461zm-10.973 9.2148c2.0391-.0469 4.4609 2.7969 1.0195 4.3984 4.3711 3.2227-3 7.1836-3.1133 1.7852-1.0469.71093-1.8828.70312-2.4844.32812v-4.3164c.59766-.27344 1.4531-.21485 2.5898.42578.08594-1.8828.99219-2.5977 1.9883-2.6211z" fill="#ffcc42"/>
  <path d="m35.25 276.43v-9.1445l7.1289-8.9297v-58.602l5.3516 3.8164v35.551c5.6484-1.6992 6.8594-7.3242 7.1055-13.793 5.0352 9.6367.88672 12.629-1.1641 17.137 2.6641.82813 5.2422 1.9141 7.1289 4.8906-2.3203 2.6055-4.7305 3.3164-7.1289 4.2773 5.418 8.5195 2.4258 11.859-.24609 15.41.50391-4.1445.75781-8.3633-5.6328-14.297l-.0625-7.3164v15.371zm73.25-11.355c-10.699 0-21.055-1.9258-29.734-4.3984-6.1328-14.973 2.1055-26.781-5.4844-39.605 2.375 6.7227-9.7031 9.1367-8.9141-.61328.19141-2.3711 1.8125-3.5039 3.7969-3.6523-.51562.0273-.98047.0937-1.3711.21093l-5.3555-3.8008v.004l-26.188-18.578v-3.668l27.984 19.852-1.7461 2.3281 32.887-43.734.0039-2.1367h36.246v2.1367c3.3906 14.324 8.6133 27.363 17.223 39.004l-12.34 9.3008c-2.2539-2.5703-4.2539-5.2578-6.0391-8.0469l.25.39063h-45.707l-5.9766 7.9492h-2.5938c.83594.25391 1.7031.53516 2.5898.83204.45312.0742.91016.14453 1.3672.21875l-1.3633-1.0508 1.3906-1.8359h54.625l1.4531 1.5391-2.8008 2.1289h-48.383c4.1445.72265 8.1445 1.7226 11.398 3.9648.87109.60547 1.5195 1.5195 2.4453 2.0977 1.3438.83203 2.6406 1.6523 3.3633 3.1055l-3.043-1.1719 2.9961 1.1641c1.0664.33203 1.8164 1.2461 2.6992 3.0664 7.1445 14.699-2.3477 15.887 7.6484 32.938-1.1094.043-2.2227.0625-3.3281.0625zm65.027-42.117c-2.8398.0234-6.2383-1.1836-8.7344-3.1094-4.7539-3.668-9.5078-1.832-8.9141 3.0547-8.3203-3.668-.59375-17.113 7.7266-11.613 5.0117 3.3164 12.477 4.8906 13.664.61328 3.7734 7.9766.69141 11.012-3.7422 11.055zm-103.2-5.957-.32422-.12891c-.32812-.0352-.65234-.0586-.96484-.0703.42188.0273.85547.0937 1.2891.19922zm59.121-7.3555c-7.7422-12.094-11.512-26.059-14.871-40.215l-30.188 40.137 1.0938-1.332h43.063zm26.961-7.7891c-6.2266-8.0274-10.793-16.711-14.207-26.027l2.5586-2.8633c3.2812 9.7188 7.7227 18.773 13.887 27.137-.64453-3.2773-.98437-6.6953-.98437-10.207 0-16.703 7.7031-31.262 19.105-38.91l-.30859.19532c-5.4375-14.16-13.734-27.613-22.062-37.195l1.6445-2.1406c8.6055 9.2812 17.406 22.957 23.273 37.535l-.74219.46875c3.457-2.0312 7.2188-3.4414 11.18-4.1172v2.2578c-17.051 2.3398-30.305 20-30.305 41.441 0 3.25.30469 6.4102.87891 9.4453l-1.6641 1.2422c.0117.0195.0234.0352.0352.0547zm10.508-7.8984 2.1094-1.6133c-.0547-.80859-.0781-1.625-.0781-2.4492 0-15.031 8.9258-27.578 20.805-30.52v3.7578c-10.168 2.875-17.73 13.766-17.73 26.762 0 .0859 0 .16797.004.25zm-2.4102-1.6172c-1.3086.0273-2.4688-.88281-1.6992-3.1914-5.2812 1.0664-3.0352-7.168.86328-3.5586.89453-5.2969 8.1523.61328 2.4492 2.5234 2.25 2.3867.17968 4.1875-1.6133 4.2266zm-30.301-10.578-3.5664-12.898c5.7969-4.2812 9.5586-11.199 9.5586-19.004 0-4.5234-1.2656-8.7539-3.457-12.34l7.9922-10.734c5.1094 6.2773 8.1758 14.312 8.1758 23.074 0 13.75-7.5547 25.719-18.703 31.902zm32.887-2.3867c-1.543 0-3-1.1562-1.5859-3.5508-5.3789-.11719-1.4766-7.668 1.5859-3.2852 1.9688-4.9766 7.832 2.3867 1.8672 3.0039 1.5195 2.5195-.22266 3.8281-1.8672 3.832zm7.1094-11.688c-1.8281-.0234-3.8164-1.7891-1.3906-4.0156-5.1094-1.7266.76563-7.7773 2.4492-2.6641 3.2969-4.168 6.8125 4.6367.9336 3.4336.60156 2.3438-.65235 3.2578-1.9922 3.2461zm10.973-9.2148c-2.0391.0469-4.4609-2.7969-1.0195-4.3984-4.3711-3.2227 3-7.1836 3.1133-1.7852 1.0469-.71094 1.8828-.70312 2.4844-.32812v4.3164c-.59766.27344-1.4531.21485-2.5898-.42578-.0859 1.8828-.99219 2.5977-1.9883 2.6211z" fill="#ffcc42"/>
  <path d="m166.02 35.25-18.547 19.422c-15.27-4.4922-35.996-7.457-54.586-1.0859l-17.285-18.336h10.25l8.5859 10.809.35156-.07422c4.1836-.87891 8.2852-1.457 12.281-1.8125l.59766-.05078-.82813-8.8711h8.0352l.0117 8.6758h.59375c4.6211-.0039 9.0781.32812 13.367.87891l.55078.07031 1.7852-9.625h9.207l-3.9102 10.789.69532.13281c3.4297.66797 6.6953 1.4453 9.8086 2.2656l.40625.10938 8.6055-13.297zm-11.449 0-7.7031 11.902c-2.7969-.73047-5.7266-1.4219-8.7852-2.0312l3.5781-9.8711zm-24.598 0-1.5352 8.2773c-3.9727-.48828-8.0977-.79297-12.363-.8125l-.01172-7.4648zm-24.324 0 .72266 7.7656c-3.7344.35156-7.5625.89844-11.465 1.7031l-7.5195-9.4688zm84.098 12.465v72.68l-7.1289-5.1484v-58.602zm-51.688 52.176c.73437 0 1.4609.44532.62891 1.3359-.16407-.17187-.39063-.26562-.62891-.26562-.23438 0-.46094.0937-.625.26562-.83594-.89062-.10547-1.3359.625-1.3359zm-.625 1.3359c.0117.0156.0195.0273.0312.0391l-.0352-.0352s0-.004.004-.004zm-.004.004c-.16797.17187-.26172.40234-.26172.64453s.0937.47656.26172.64844c-1.7344 1.7109-1.7344-3.0039 0-1.293zm0 1.293.0352-.0352c-.0117.0117-.0195.0234-.0312.0391l-.004-.004zm.004.004c.16406.17188.39062.26563.625.26563.23828 0 .46484-.0977.62891-.26563 1.668 1.7812-2.9219 1.7812-1.2539 0zm1.2539 0c-.0117-.0156-.0195-.0273-.0312-.0391l.0352.0352-.004.004zm.004-.004c.16797-.17188.26172-.40625.26172-.64844s-.0937-.47266-.26172-.64453c1.7305-1.7148 1.7305 3.0039 0 1.293zm0-1.293-.0352.0352c.0117-.0117.0195-.0273.0312-.0391.004 0 .004.004.004.004zm-8.5352-1.3398c.73046 0 1.4609.44532.6289 1.3359-.16797-.17187-.39453-.26562-.6289-.26562-.23438 0-.46094.0937-.62891.26562-.83203-.89062-.10156-1.3359.62891-1.3359zm-.62891 1.3359c.0117.0156.0234.0273.0352.0391-.0117-.0117-.0234-.0234-.0391-.0352.004 0 .004-.004.004-.004zm-.004.004c-.16406.17187-.25781.40234-.25781.64453s.0937.47656.25781.64844c-1.7305 1.7109-1.7305-3.0039 0-1.293zm0 1.293c.0156-.0117.0273-.0234.0391-.0352-.0117.0117-.0234.0234-.0352.0391 0-.004 0-.004-.004-.004zm.004.004c.16797.17188.39453.26563.62891.26563.23437 0 .46093-.0977.6289-.26563 1.6641 1.7812-2.9219 1.7812-1.2578 0zm1.2578 0c-.0117-.0156-.0234-.0273-.0352-.0391.0117.0117.0234.0234.0391.0352-.004 0-.004 0-.004.004zm.004-.004c.16406-.17188.25781-.40625.25781-.64844s-.0937-.47266-.25781-.64453c1.7305-1.7148 1.7305 3.0039 0 1.293zm0-1.293c-.0156.0117-.0273.0234-.0391.0352.0117-.0117.0234-.0273.0352-.0391 0 0 0 .004.004.004zm-8.5352-1.3398c.73047 0 1.4609.44532.62891 1.3359-.16797-.17187-.39453-.26562-.62891-.26562-.23828 0-.46093.0937-.6289.26562-.83203-.89062-.10547-1.3359.6289-1.3359zm-.6289 1.3359c.0117.0117.0195.0273.0352.0391-.0156-.0117-.0273-.0234-.0391-.0352l.004-.004zm-.004.004c-.16797.17187-.25781.40234-.26172.64453.004.24219.0937.47656.26172.64844-1.7305 1.7109-1.7305-3.0039 0-1.293zm0 1.293c.0117-.0117.0234-.0234.0391-.0352-.0156.0117-.0234.0234-.0352.0391 0-.004-.004-.004-.004-.004zm.004.004c.16797.17188.39062.26563.6289.26563.23438 0 .46094-.0977.62891-.26563 1.6641 1.7812-2.9219 1.7812-1.2578 0zm1.2578 0c-.0156-.0156-.0234-.0273-.0352-.0391l.0352.0352v.004zm0-.004c.16797-.17188.26172-.40625.26172-.64844s-.0937-.47266-.26172-.64453c1.7344-1.7148 1.7344 3.0039 0 1.293zm0-1.293-.0352.0352c.0117-.0117.0195-.0273.0352-.0391v.004zm-8.5352-1.3398c.73438 0 1.4609.44532.62891 1.3359-.16406-.17187-.39063-.26562-.62891-.26562-.23437 0-.46093.0937-.625.26562-.83593-.89062-.10547-1.3359.625-1.3359zm-.625 1.3359c.0117.0117.0195.0273.0312.0391l-.0352-.0352s0-.004.004-.004zm-.004.004c-.16797.17187-.26172.40234-.26172.64453s.0937.47656.26172.64844c-1.7344 1.7109-1.7344-3.0039 0-1.293zm0 1.293.0352-.0352c-.0117.0117-.0195.0234-.0312.0391l-.004-.004zm.004.004c.16407.17188.39063.26563.625.26563.23828 0 .46485-.0977.62891-.26563 1.668 1.7812-2.9219 1.7812-1.2539 0zm1.2539 0c-.0117-.0156-.0195-.0273-.0312-.0391l.0352.0352-.004.004zm.004-.004c.16796-.17188.26171-.40625.26171-.64844s-.0937-.47266-.26171-.64453c1.7305-1.7148 1.7305 3.0039 0 1.293zm0-1.293c-.0117.0117-.0234.0234-.0391.0352.0156-.0117.0234-.0273.0352-.0391l.004.004zm-8.5352-1.3398c.73047 0 1.4609.44532.62891 1.3359-.16797-.17187-.39454-.26562-.62891-.26562-.23438 0-.46094.0937-.62891.26562-.83203-.89062-.10156-1.3359.62891-1.3359zm-.62891 1.3359c.0117.0117.0234.0273.0352.0391-.0117-.0117-.0234-.0234-.0391-.0352.004 0 .004-.004.004-.004zm-.004.004c-.16407.17187-.25782.40234-.25782.64453s.0937.47656.25782.64844c-1.7305 1.7109-1.7305-3.0039 0-1.293zm0 1.293c.0156-.0117.0273-.0234.0391-.0352-.0117.0117-.0234.0234-.0352.0391 0-.004 0-.004-.004-.004zm.004.004c.16797.17188.39453.26563.62891.26563.23437 0 .46094-.0977.62891-.26563 1.6641 1.7812-2.9219 1.7812-1.2578 0zm1.2578 0c-.0117-.0156-.0234-.0273-.0352-.0391.0117.0117.0234.0234.0391.0352-.004 0-.004 0-.004.004zm.004-.004c.16406-.17188.25781-.40625.25781-.64844s-.0937-.47266-.25781-.64453c1.7305-1.7148 1.7305 3.0039 0 1.293zm0-1.293c-.0156.0117-.0273.0234-.0391.0352.0117-.0117.0234-.0273.0352-.0391 0 0 0 .004.004.004zm-8.5352-1.3398c.73047 0 1.4609.44532.62891 1.3359-.16797-.17187-.39453-.26562-.62891-.26562-.23828 0-.46094.0937-.62891.26562-.83203-.89062-.10547-1.3359.62891-1.3359zm-.62891 1.3359c.01172.0117.01953.0273.03516.0391-.01563-.0117-.02734-.0234-.03906-.0352 0 0 .0039-.004.0039-.004zm-.0039.004c-.16797.17187-.25781.40234-.25781.64453s.09375.47656.25781.64844c-1.7305 1.7109-1.7305-3.0039 0-1.293zm0 1.293c.01172-.0117.02344-.0234.03906-.0352-.01563.0117-.02344.0234-.03516.0391 0-.004-.0039-.004-.0039-.004zm.0039.004c.16797.17188.39062.26563.62891.26563.23438 0 .46094-.0977.62891-.26563 1.6641 1.7812-2.9219 1.7812-1.2578 0zm1.2578 0c-.01563-.0156-.02344-.0273-.03516-.0391.01172.0117.02344.0234.03516.0352v.004zm0-.004c.16797-.17188.26172-.40625.26172-.64844s-.09375-.47266-.26172-.64453c1.7344-1.7148 1.7344 3.0039 0 1.293zm0-1.293c-.01172.0117-.02344.0234-.03516.0352.01172-.0117.01953-.0273.03516-.0391v.004zm34.715 7.3711-21.984 29.34c-2.082-10.449-5.3477-20.172-10.102-29.34zm-80.914 16.254c.0039.082.0039.16406.0039.25 0 12.996-7.5625 23.887-17.73 26.762v-7.6211c5.4805-2.1758 9.7148-7.5976 11.094-14.352zm35.117 14.504c.60938.008 1.2461.3086 1.8242 1.0274l2.2812 2.8125-4.1172 3.7188-2.3242-2.8672c-1.3633-1.6836.34766-4.7305 2.3359-4.6914zm-5.7734 6.5781c.43359.0117.91016.16406 1.418.5l3.0781 2.0391-2.9414 4.7539-3.0352-2.0117c-1.9766-1.3086-.87109-5.3438 1.4805-5.2812zm12.043.19922.0078 1.3828c.06641-.10937.18359-.17187.30859-.17187.19531.004.35156.16796.35156.37109v2.4453c0 .15625-.09375.29688-.23828.35156-.14453.0508-.30469.004-.39844-.11718l.03906 5.4023c-5.0273 4.8555-3.3906 10.383-1.8438 15.898l-4.3281 5.7812c-2.1914-3.5859-3.457-7.8164-3.457-12.34 0-7.8047 3.7617-14.723 9.5586-19.004zm35.969 1.2109c.19531.004.35547.16796.35156.37109v2.4453c0 .13281-.0664.25781-.17578.32422-.11328.0664-.25.0664-.35937 0-.11328-.0664-.17969-.19141-.17969-.32422v-2.4453c0-.0977.0391-.19531.10547-.26172.0703-.0703.16015-.10937.25781-.10937zm-1.7812 0c.19531.004.35156.16796.35156.37109v2.4453c0 .13281-.0664.25781-.17968.32422-.10938.0664-.2461.0664-.35938 0-.10937-.0664-.17578-.19141-.17578-.32422v-2.4453c0-.0977.0352-.19531.10547-.26172.0664-.0703.16015-.10937.25781-.10937zm-1.7852 0c.19921.004.35546.16796.35156.37109v2.4453c.004.13281-.0664.25781-.17578.32422-.10938.0664-.25.0664-.35938 0-.10937-.0664-.17969-.19141-.17578-.32422v-2.4453c-.004-.0977.0352-.19531.10156-.26172.0703-.0703.16407-.10937.25782-.10937zm-1.7812 0c.19531.004.35546.16796.35156.37109v2.4453c0 .13281-.0664.25781-.17578.32422-.11328.0664-.25.0664-.35938 0-.11328-.0664-.17969-.19141-.17969-.32422v-2.4453c0-.0977.0391-.19531.10547-.26172.0703-.0703.16016-.10937.25782-.10937zm-1.7812 0c.19531.004.35156.16796.34765.37109v2.4453c.004.13281-.0625.25781-.17578.32422-.10937.0664-.24609.0664-.35937 0-.10938-.0664-.17969-.19141-.17579-.32422v-2.4453c0-.0977.0352-.19531.10547-.26172.0664-.0703.16016-.10937.25782-.10937zm-1.7852 0c.19922.004.35547.16796.35156.37109v2.4453c.004.13281-.0664.25781-.17578.32422-.11328.0664-.25.0664-.35937 0-.11329-.0664-.17969-.19141-.17579-.32422v-2.4453c-.004-.0977.0352-.19531.10157-.26172.0703-.0703.16406-.10937.25781-.10937zm-1.7812 0c.19531.004.35156.16796.35156.37109v2.4453c0 .13281-.0664.25781-.17969.32422-.10937.0664-.24609.0664-.35937 0-.10938-.0664-.17578-.19141-.17578-.32422v-2.4453c0-.0977.0352-.19531.10547-.26172.0664-.0703.16015-.10937.25781-.10937zm-1.7852 0c.19922.004.35547.16796.35157.37109v2.4453c.004.13281-.0625.25781-.17579.32422-.10937.0664-.24609.0664-.35937 0-.10938-.0664-.17969-.19141-.17578-.32422v-2.4453c-.004-.0977.0352-.19531.10547-.26172.0664-.0703.16015-.10937.2539-.10937zm-1.7812 0c.19532.004.35547.16796.35157.37109v2.4453c0 .13281-.0664.25781-.17579.32422-.11328.0664-.25.0664-.35937 0-.11328-.0664-.17969-.19141-.17969-.32422v-2.4453c0-.0977.0391-.19531.10547-.26172.0703-.0703.16016-.10937.25781-.10937zm-1.7812 0c.19532.004.35157.16796.35157.37109v2.4453c0 .13281-.0664.25781-.17969.32422-.10938.0664-.2461.0664-.35938 0-.10937-.0664-.17578-.19141-.17578-.32422v-2.4453c0-.0977.0352-.19531.10547-.26172.0664-.0703.16016-.10937.25781-.10937zm-1.7852 0c.19922.004.35547.16796.35156.37109v2.4453c.004.13281-.0664.25781-.17578.32422-.10938.0664-.25.0664-.35938 0-.10937-.0664-.17968-.19141-.17578-.32422v-2.4453c-.004-.0977.0352-.19531.10156-.26172.0703-.0703.16407-.10937.25782-.10937zm-1.7812 0c.19531.004.35547.16796.35156.37109v2.4453c0 .13281-.0664.25781-.17578.32422-.11328.0664-.25.0664-.35938 0-.11328-.0664-.17968-.19141-.17968-.32422v-2.4453c0-.0977.0391-.19531.10546-.26172.0703-.0703.16016-.10937.25782-.10937zm-1.7812 0c.19531.004.35156.16796.35156.37109v2.4453c0 .13281-.0664.25781-.17969.32422-.10937.0664-.24609.0664-.35937 0-.10938-.0664-.17578-.19141-.17578-.32422v-2.4453c0-.0977.0352-.19531.10546-.26172.0664-.0703.16016-.10937.25782-.10937zm-1.7852 0c.19922.004.35547.16796.35156.37109v2.4453c.004.13281-.0664.25781-.17578.32422-.11328.0664-.25.0664-.35937 0-.11328-.0664-.17969-.19141-.17578-.32422v-2.4453c-.004-.0977.0352-.19531.10156-.26172.0703-.0703.16406-.10937.25781-.10937zm-1.7812 0c.19531.004.35547.16796.35156.37109v2.4453c0 .13281-.0664.25781-.17578.32422-.11328.0664-.25.0664-.35937 0-.11328-.0664-.17969-.19141-.17969-.32422v-2.4453c0-.0977.0391-.19531.10547-.26172.0664-.0703.16015-.10937.25781-.10937zm-1.7812 0c.19531.004.35156.16796.34766.37109v2.4453c.004.13281-.0625.25781-.17578.32422-.10938.0664-.2461.0664-.35938 0-.10937-.0664-.17969-.19141-.17578-.32422v-2.4453c0-.0977.0352-.19531.10547-.26172.0664-.0703.16015-.10937.25781-.10937zm-1.7852 0c.19922.004.35547.16796.35157.37109v2.4453c.004.13281-.0664.25781-.17578.32422-.11329.0664-.25.0664-.35938 0-.11328-.0664-.17969-.19141-.17578-.32422v-2.4453c-.004-.0977.0352-.19531.10156-.26172.0703-.0703.16016-.10937.25781-.10937zm-1.7812 0c.19532.004.35157.16796.35157.37109v2.4453c0 .13281-.0664.25781-.17969.32422-.10938.0664-.2461.0664-.35938 0-.10938-.0664-.17578-.19141-.17578-.32422v-2.4453c0-.0977.03516-.19531.10547-.26172.06641-.0703.16016-.10937.25781-.10937zm-1.7852 0c.19922.004.35547.16796.35156.37109v2.4453c.0039.13281-.06641.25781-.17578.32422-.10938.0664-.25.0664-.35938 0s-.17969-.19141-.17578-.32422v-2.4453c-.0039-.0977.03516-.19531.10547-.26172.06641-.0703.16016-.10937.25391-.10937zm-1.7812 0c.19531.004.35547.16796.35156.37109v2.4453c0 .13281-.06641.25781-.17578.32422-.11328.0664-.25.0664-.35938 0-.11328-.0664-.17969-.19141-.17969-.32422v-2.4453c0-.0977.03906-.19531.10547-.26172.07031-.0703.16016-.10937.25781-.10937zm-17.625 6.6445c.25 0 .51953.0352.8125.10937l3.4453.88281-1.5273 5.418-3.168-.8164c-2.4922-.63672-2.5156-5.5781.4375-5.5938zm2.4336 8.6914.08594 5.6367-3.0352.0898c-2.7852.082-4.1016-5.5156-.23437-5.6328zm.52344 8.2305 1.7266 5.3672-3.375.84375c-2.7031.67969-5.125-4.5156-1.3672-5.457zm2.375 6.7539 1.7734 2.9297-3.082 4.0312c-1.9609-.46485-3.7266-3-1.4414-4.7969z" fill="#f00"/>
  <path d="m58.977 279.75 18.547-19.422c15.27 4.4922 35.996 7.457 54.586 1.0859l17.285 18.336h-10.25l-8.5859-10.809-.35156.0742c-4.1836.87891-8.2852 1.457-12.281 1.8125l-.59765.0508.82812 8.8711h-8.0352l-.0117-8.6758h-.59375c-4.6211.004-9.0781-.32813-13.367-.87891l-.55079-.07031-1.7852 9.625h-9.207l3.9102-10.789-.69531-.13282c-3.4297-.66796-6.6953-1.4453-9.8086-2.2656l-.40625-.10938-8.6055 13.297zm11.449 0 7.7031-11.902c2.7969.73046 5.7266 1.4219 8.7852 2.0312l-3.5781 9.8711zm24.598 0 1.5352-8.2773c3.9727.48828 8.0977.79296 12.363.8125l.0117 7.4648zm24.324 0-.72266-7.7656c3.7344-.35156 7.5625-.89843 11.465-1.7031l7.5195 9.4688zm-84.098-12.465v-72.68l7.1289 5.1484v58.602zm51.688-52.176c-.73438 0-1.4609-.44531-.62891-1.3359.16406.17187.39062.26562.62891.26562.23438 0 .46094-.0937.625-.26562.83594.89062.10547 1.3359-.625 1.3359zm.625-1.3359c-.01172-.0156-.01953-.0273-.03125-.0391.01172.0117.02344.0234.03516.0352 0 0 0 .004-.0039.004zm.0039-.004c.16797-.17187.26172-.40234.26172-.64453s-.09375-.47656-.26172-.64844c1.7344-1.7109 1.7344 3.0039 0 1.293zm0-1.293c-.01172.0117-.02344.0234-.03516.0352.01172-.0117.01953-.0234.03125-.0391.0039.004.0039.004.0039.004zm-.0039-.004c-.16406-.17188-.39062-.26563-.625-.26563-.23828 0-.46484.0977-.62891.26563-1.668-1.7812 2.9219-1.7812 1.2539 0zm-1.2539 0c.01172.0156.01953.0273.03125.0391-.01172-.0117-.02344-.0234-.03516-.0352l.0039-.004zm-.0039.004c-.16797.17188-.26172.40625-.26172.64844s.09375.47266.26172.64453c-1.7305 1.7148-1.7305-3.0039 0-1.293zm0 1.293c.01172-.0117.02344-.0234.03516-.0352-.01172.0117-.01953.0273-.03125.0391-.0039 0-.0039-.004-.0039-.004zm8.5352 1.3398c-.73047 0-1.4609-.44531-.62891-1.3359.16797.17187.39453.26562.62891.26562s.46094-.0937.62891-.26562c.83203.89062.10156 1.3359-.62891 1.3359zm.62891-1.3359c-.01172-.0156-.02344-.0273-.03516-.0391.01172.0117.02344.0234.03906.0352-.0039 0-.0039.004-.0039.004zm.0039-.004c.16406-.17187.25781-.40234.25781-.64453s-.09375-.47656-.25781-.64844c1.7305-1.7109 1.7305 3.0039 0 1.293zm0-1.293c-.01563.0117-.02734.0234-.03906.0352.01172-.0117.02344-.0234.03516-.0391 0 .004 0 .004.0039.004zm-.0039-.004c-.16797-.17188-.39453-.26563-.62891-.26563s-.46094.0977-.62891.26563c-1.6641-1.7812 2.9219-1.7812 1.2578 0zm-1.2578 0c.01172.0156.02344.0273.03516.0391-.01172-.0117-.02344-.0234-.03906-.0352.0039 0 .0039 0 .0039-.004zm-.0039.004c-.16406.17188-.25781.40625-.25781.64844s.09375.47266.25781.64453c-1.7305 1.7148-1.7305-3.0039 0-1.293zm0 1.293c.01563-.0117.02734-.0234.03906-.0352-.01172.0117-.02344.0273-.03516.0391 0 0 0-.004-.0039-.004zm8.5352 1.3398c-.73047 0-1.4609-.44531-.62891-1.3359.16797.17187.39453.26562.62891.26562.23828 0 .46094-.0937.6289-.26562.83204.89062.10547 1.3359-.6289 1.3359zm.6289-1.3359c-.0117-.0117-.0195-.0273-.0352-.0391.0156.0117.0273.0234.0391.0352l-.004.004zm.004-.004c.16797-.17187.25781-.40234.26172-.64453-.004-.24219-.0937-.47656-.26172-.64844 1.7305-1.7109 1.7305 3.0039 0 1.293zm0-1.293c-.0117.0117-.0234.0234-.0391.0352.0156-.0117.0234-.0234.0352-.0391 0 .004.004.004.004.004zm-.004-.004c-.16796-.17188-.39062-.26563-.6289-.26563-.23438 0-.46094.0977-.62891.26563-1.6641-1.7812 2.9219-1.7812 1.2578 0zm-1.2578 0c.0156.0156.0234.0273.0352.0391l-.0352-.0352v-.004zm0 .004c-.16797.17188-.26172.40625-.26172.64844s.0937.47266.26172.64453c-1.7344 1.7148-1.7344-3.0039 0-1.293zm0 1.293.0352-.0352c-.0117.0117-.0195.0273-.0352.0391v-.004zm8.5352 1.3398c-.73438 0-1.4609-.44531-.62891-1.3359.16406.17187.39063.26562.62891.26562.23437 0 .46094-.0937.625-.26562.83594.89062.10547 1.3359-.625 1.3359zm.625-1.3359c-.0117-.0117-.0195-.0273-.0312-.0391l.0352.0352s0 .004-.004.004zm.004-.004c.16797-.17187.26172-.40234.26172-.64453s-.0937-.47656-.26172-.64844c1.7344-1.7109 1.7344 3.0039 0 1.293zm0-1.293-.0352.0352c.0117-.0117.0195-.0234.0312-.0391l.004.004zm-.004-.004c-.16406-.17188-.39063-.26563-.625-.26563-.23828 0-.46485.0977-.62891.26563-1.668-1.7812 2.9219-1.7812 1.2539 0zm-1.2539 0c.0117.0156.0195.0273.0312.0391l-.0352-.0352.004-.004zm-.004.004c-.16797.17188-.26172.40625-.26172.64844s.0937.47266.26172.64453c-1.7305 1.7148-1.7305-3.0039 0-1.293zm0 1.293c.0117-.0117.0234-.0234.0391-.0352-.0156.0117-.0234.0273-.0352.0391l-.004-.004zm8.5352 1.3398c-.73047 0-1.4609-.44531-.6289-1.3359.16796.17187.39453.26562.6289.26562.23438 0 .46094-.0937.62891-.26562.83203.89062.10156 1.3359-.62891 1.3359zm.62891-1.3359c-.0117-.0117-.0234-.0273-.0352-.0391.0117.0117.0234.0234.0391.0352-.004 0-.004.004-.004.004zm.004-.004c.16407-.17187.25782-.40234.25782-.64453s-.0937-.47656-.25782-.64844c1.7305-1.7109 1.7305 3.0039 0 1.293zm0-1.293c-.0156.0117-.0273.0234-.0391.0352.0117-.0117.0234-.0234.0352-.0391 0 .004 0 .004.004.004zm-.004-.004c-.16797-.17188-.39453-.26563-.62891-.26563-.23437 0-.46094.0977-.6289.26563-1.6641-1.7812 2.9219-1.7812 1.2578 0zm-1.2578 0c.0117.0156.0234.0273.0352.0391-.0117-.0117-.0234-.0234-.0391-.0352.004 0 .004 0 .004-.004zm-.004.004c-.16406.17188-.25781.40625-.25781.64844s.0937.47266.25781.64453c-1.7305 1.7148-1.7305-3.0039 0-1.293zm0 1.293c.0156-.0117.0273-.0234.0391-.0352-.0117.0117-.0234.0273-.0352.0391 0 0 0-.004-.004-.004zm8.5352 1.3398c-.73047 0-1.4609-.44531-.62891-1.3359.16797.17187.39453.26562.62891.26562.23828 0 .46093-.0937.6289-.26562.83203.89062.10547 1.3359-.6289 1.3359zm.6289-1.3359c-.0117-.0117-.0195-.0273-.0352-.0391.0156.0117.0273.0234.0391.0352l-.004.004zm.004-.004c.16797-.17187.25781-.40234.25781-.64453s-.0937-.47656-.25781-.64844c1.7305-1.7109 1.7305 3.0039 0 1.293zm0-1.293c-.0117.0117-.0234.0234-.0391.0352.0156-.0117.0234-.0234.0352-.0391 0 .004.004.004.004.004zm-.004-.004c-.16797-.17188-.39062-.26563-.6289-.26563-.23438 0-.46094.0977-.62891.26563-1.6641-1.7812 2.9219-1.7812 1.2578 0zm-1.2578 0c.0156.0156.0234.0273.0352.0391l-.0352-.0352v-.004zm0 .004c-.16797.17188-.26172.40625-.26172.64844s.0937.47266.26172.64453c-1.7344 1.7148-1.7344-3.0039 0-1.293zm0 1.293.0352-.0352c-.0117.0117-.0195.0273-.0352.0391v-.004zm-34.715-7.3711 21.984-29.34c2.082 10.449 5.3477 20.172 10.102 29.34zm80.914-16.254c-.004-.082-.004-.16406-.004-.25 0-12.996 7.5625-23.887 17.73-26.762v7.6211c-5.4805 2.1758-9.7148 7.5976-11.094 14.352zm-35.117-14.504c-.60938-.008-1.2461-.30859-1.8242-1.0273l-2.2812-2.8125 4.1172-3.7188 2.3242 2.8672c1.3633 1.6836-.34766 4.7305-2.3359 4.6914zm5.7734-6.5781c-.4336-.0117-.91016-.16406-1.418-.5l-3.0781-2.0391 2.9414-4.7539 3.0352 2.0117c1.9766 1.3086.87109 5.3438-1.4805 5.2812zm-12.043-.19922-.008-1.3828c-.0664.10937-.1836.17187-.3086.17187-.19531-.004-.35156-.16797-.35156-.37109v-2.4453c0-.15625.0937-.29688.23828-.35157.14453-.0508.30469-.004.39844.11719l-.0391-5.4023c5.0273-4.8555 3.3906-10.383 1.8438-15.898l4.3281-5.7812c2.1914 3.5859 3.457 7.8164 3.457 12.34 0 7.8047-3.7617 14.723-9.5586 19.004zm-35.969-1.2109c-.19531-.004-.35547-.16797-.35156-.37109v-2.4453c0-.13282.06641-.25782.17578-.32422.11328-.0664.25-.0664.35937 0 .11328.0664.17969.1914.17969.32422v2.4453c0 .0977-.03906.19531-.10547.26172-.07031.0703-.16016.10937-.25781.10937zm1.7812 0c-.19531-.004-.35156-.16797-.35156-.37109v-2.4453c0-.13282.06641-.25782.17969-.32422.10938-.0664.24609-.0664.35938 0 .10938.0664.17578.1914.17578.32422v2.4453c0 .0977-.03516.19531-.10547.26172-.06641.0703-.16016.10937-.25781.10937zm1.7852 0c-.19922-.004-.35547-.16797-.35156-.37109v-2.4453c-.0039-.13282.06641-.25782.17578-.32422.10938-.0664.25-.0664.35938 0s.17969.1914.17578.32422v2.4453c.0039.0977-.03516.19531-.10156.26172-.07031.0703-.16406.10937-.25781.10937zm1.7813 0c-.19532-.004-.35547-.16797-.35156-.37109v-2.4453c0-.13282.06641-.25782.17578-.32422.11328-.0664.24999-.0664.35937 0 .11328.0664.17969.1914.17969.32422v2.4453c0 .0977-.0391.19531-.10547.26172-.0703.0703-.16016.10937-.25781.10937zm1.7812 0c-.19532-.004-.35157-.16797-.34766-.37109v-2.4453c-.004-.13282.0625-.25782.17578-.32422.10938-.0664.24609-.0664.35938 0 .10937.0664.17968.1914.17578.32422v2.4453c0 .0977-.0352.19531-.10547.26172-.0664.0703-.16016.10937-.25781.10937zm1.7852 0c-.19922-.004-.35547-.16797-.35156-.37109v-2.4453c-.004-.13282.0664-.25782.17578-.32422.11328-.0664.25-.0664.35938 0 .11328.0664.17968.1914.17578.32422v2.4453c.004.0977-.0352.19531-.10157.26172-.0703.0703-.16406.10937-.25781.10937zm1.7812 0c-.19531-.004-.35156-.16797-.35156-.37109v-2.4453c0-.13282.0664-.25782.17969-.32422.10937-.0664.24609-.0664.35937 0 .10938.0664.17578.1914.17578.32422v2.4453c0 .0977-.0352.19531-.10547.26172-.0664.0703-.16015.10937-.25781.10937zm1.7852 0c-.19922-.004-.35547-.16797-.35156-.37109v-2.4453c-.004-.13282.0625-.25782.17578-.32422.10937-.0664.24609-.0664.35937 0 .10938.0664.17969.1914.17578.32422v2.4453c.004.0977-.0352.19531-.10547.26172-.0664.0703-.16015.10937-.2539.10937zm1.7812 0c-.19531-.004-.35547-.16797-.35156-.37109v-2.4453c0-.13282.0664-.25782.17578-.32422.11328-.0664.25-.0664.35937 0 .11328.0664.17969.1914.17969.32422v2.4453c0 .0977-.0391.19531-.10547.26172-.0703.0703-.16016.10937-.25781.10937zm1.7812 0c-.19531-.004-.35156-.16797-.35156-.37109v-2.4453c0-.13282.0664-.25782.17968-.32422.10938-.0664.2461-.0664.35938 0 .10937.0664.17578.1914.17578.32422v2.4453c0 .0977-.0352.19531-.10547.26172-.0664.0703-.16016.10937-.25781.10937zm1.7852 0c-.19921-.004-.35546-.16797-.35156-.37109v-2.4453c-.004-.13282.0664-.25782.17578-.32422s.25-.0664.35938 0c.10937.0664.17969.1914.17578.32422v2.4453c.004.0977-.0352.19531-.10156.26172-.0703.0703-.16407.10937-.25782.10937zm1.7812 0c-.19531-.004-.35546-.16797-.35156-.37109v-2.4453c0-.13282.0664-.25782.17578-.32422.11328-.0664.25-.0664.35938 0 .11328.0664.17969.1914.17969.32422v2.4453c0 .0977-.0391.19531-.10547.26172-.0703.0703-.16016.10937-.25782.10937zm1.7812 0c-.19531-.004-.35156-.16797-.35156-.37109v-2.4453c0-.13282.0664-.25782.17969-.32422.10937-.0664.24609-.0664.35937 0 .10938.0664.17579.1914.17579.32422v2.4453c0 .0977-.0352.19531-.10547.26172-.0664.0703-.16016.10937-.25782.10937zm1.7852 0c-.19922-.004-.35547-.16797-.35156-.37109v-2.4453c-.004-.13282.0664-.25782.17578-.32422.11328-.0664.25-.0664.35937 0 .11329.0664.17969.1914.17579.32422v2.4453c.004.0977-.0352.19531-.10157.26172-.0703.0703-.16406.10937-.25781.10937zm1.7812 0c-.19531-.004-.35547-.16797-.35156-.37109v-2.4453c0-.13282.0664-.25782.17578-.32422.11328-.0664.25-.0664.35937 0 .11329.0664.17969.1914.17969.32422v2.4453c0 .0977-.0391.19531-.10547.26172-.0664.0703-.16015.10937-.25781.10937zm1.7812 0c-.19531-.004-.35156-.16797-.34766-.37109v-2.4453c-.004-.13282.0625-.25782.17579-.32422.10937-.0664.24609-.0664.35937 0 .10938.0664.17969.1914.17578.32422v2.4453c0 .0977-.0352.19531-.10547.26172-.0664.0703-.16015.10937-.25781.10937zm1.7852 0c-.19922-.004-.35547-.16797-.35157-.37109v-2.4453c-.004-.13282.0664-.25782.17579-.32422.11328-.0664.25-.0664.35937 0 .11328.0664.17969.1914.17578.32422v2.4453c.004.0977-.0352.19531-.10156.26172-.0703.0703-.16016.10937-.25781.10937zm1.7812 0c-.19532-.004-.35157-.16797-.35157-.37109v-2.4453c0-.13282.0664-.25782.17969-.32422.10938-.0664.2461-.0664.35938 0 .10937.0664.17578.1914.17578.32422v2.4453c0 .0977-.0352.19531-.10547.26172-.0664.0703-.16016.10937-.25781.10937zm1.7852 0c-.19922-.004-.35547-.16797-.35156-.37109v-2.4453c-.004-.13282.0664-.25782.17578-.32422s.25-.0664.35938 0c.10937.0664.17968.1914.17578.32422v2.4453c.004.0977-.0352.19531-.10547.26172-.0664.0703-.16016.10937-.25391.10937zm1.7812 0c-.19531-.004-.35547-.16797-.35156-.37109v-2.4453c0-.13282.0664-.25782.17578-.32422.11328-.0664.25-.0664.35938 0 .11328.0664.17968.1914.17968.32422v2.4453c0 .0977-.0391.19531-.10547.26172-.0703.0703-.16015.10937-.25781.10937zm17.625-6.6445c-.25 0-.51953-.0352-.8125-.10937l-3.4453-.88282 1.5273-5.418 3.168.8164c2.4922.63672 2.5156 5.5781-.4375 5.5938zm-2.4336-8.6914-.0859-5.6367 3.0352-.0898c2.7852-.082 4.1016 5.5156.23437 5.6328zm-.52344-8.2305-1.7266-5.3672 3.375-.84375c2.7031-.67969 5.125 4.5156 1.3672 5.457zm-2.375-6.7539-1.7734-2.9297 3.082-4.0312c1.9609.46485 3.7266 3 1.4414 4.7969z" fill="#f00"/>
  <path d="m69.566 195.32 5.7891-7.7422c-4.3164-6.4024-6.8281-14.121-6.8281-22.434 0-9.207 3.082-17.688 8.2734-24.488-2.5078-6.8047-5.6367-13.227-9.5898-19.316.08203 1.2305.12891 2.4922.12891 3.7695 0 15.102-6.2969 28.453-15.977 36.555 4.3984 12.328 11.086 24.211 18.203 33.656zm31.285-115.32c-2.375-.3125-5.0859-2.9219-5.7031-3.543-.48828-.49219-1.7734.53125-1.6641 1.2227 2.3516 1.2578 5.7109 2.6445 7.3672 2.3203m7.25-17.359c-.24218.42578-7.8047-4.7461-9.1484-5.2539-1.6523-.625-3.1641.81641-3.0898.73047l-.23828 1.3477s1.9492-1.4531 2.9688-1.1016c1.0703.36719 9.3828 4.9062 9.5078 4.2773zm-12.004 1.1641c0 1.0469.45312 1.8945 1.0117 1.8945s1.0117-.84766 1.0117-1.8945-.45312-1.8945-1.0117-1.8945-1.0117.84766-1.0117 1.8945z" fill="#4242ff"/>
  <path d="m155.43 119.68-5.7891 7.7422c4.3164 6.4023 6.8281 14.121 6.8281 22.434 0 9.207-3.082 17.688-8.2734 24.488 2.5078 6.8047 5.6367 13.227 9.5898 19.316-.082-1.2305-.1289-2.4922-.1289-3.7695 0-15.102 6.2969-28.453 15.977-36.555-4.3984-12.328-11.086-24.211-18.203-33.656zm-31.285 115.32c2.375.3125 5.0859 2.9219 5.7031 3.543.48828.49219 1.7734-.53125 1.6641-1.2227-2.3516-1.2578-5.7109-2.6445-7.3672-2.3203m-7.25 17.359c.24219-.42578 7.8047 4.7461 9.1484 5.2539 1.6523.625 3.1641-.8164 3.0898-.73047l.23828-1.3476s-1.9492 1.4531-2.9688 1.1016c-1.0703-.36719-9.3828-4.9062-9.5078-4.2773zm12.004-1.1641c0-1.0469-.45312-1.8945-1.0117-1.8945-.5586 0-1.0117.84766-1.0117 1.8945 0 1.0469.45312 1.8945 1.0117 1.8945.55859 0 1.0117-.84766 1.0117-1.8945z" fill="#4242ff"/>
  <path d="m114.54 46.711c13.141-.0625 25.074 2.5078 35.328 5.4492l-2.3867 2.5117c-15.27-4.4922-35.996-7.457-54.586-1.0859l-3.207-3.4219c8.6484-2.4258 16.969-3.4141 24.852-3.4531zm43.609 51.207.4375.28516.80859 2.7031-1.3164 1.5664-5.8008-.91797 1.7617 5.4375-1.2266 1.6055-5.5078-.47266 1.418 6.3125-1.3555 1.4805-5.4062-.92578 1.418 6.8008-1.3594 1.4609-5.2344-.89844 1.8125 6.0547-1.3164 1.5703-5.8516-.92578 1.8203 6.082-1.1367 1.582h-6.0273l1.7969 5.082-1.1172 1.6406h-5.8789l.92969 2.1016-2.5898.0508-1.2695-2.8672 1.082-1.7305h6.0312l-1.7969-5.082 1.1133-1.6406h6.1172l-1.9023-6.3633 1.3164-1.5703 5.8516.92579-1.8203-6.082 1.332-1.5625 5.4062.92579-1.418-6.8008 1.3594-1.4609 5.3789.92187-1.3867-6.1641 1.2578-1.4961 5.3359.45703-1.8086-5.5742 1.3086-1.5938 5.8516.92578-.44922-1.5zm-74.551 3.7422 5.3164.83984.98047 1.4844-1.5156 6.7539 6.5664 1.5586.82812 1.6641-2.5117 6.207 6.0312 2.5859.64063 1.5976-2.5742 6.3594 5.0586 3.125.42969 1.6406-2.4844 4.5977 5.1562 4.2461c.37109.29297.52734.76563.4414 1.207l-2.7109.0547-5.1562-4.2422-.29688-1.5469 2.4141-4.4688-4.957-3.0586-.48438-1.5195 2.5117-6.207-6.0312-2.5859-.64062-1.5977 2.4297-6-6.3555-1.5078-.89063-1.4648 1.4961-6.6641-6.2383-.98828zm64.559.82812c.49219 0 .89453.41016.89453.91797 0 .50391-.40234.91406-.89453.91406-.49218 0-.89062-.41015-.89062-.91406 0-.50781.39844-.91797.89062-.91797zm7.4297.91797c.49219 0 .89063.41016.89063.91406 0 .50782-.39844.91797-.89063.91797s-.89062-.41015-.89062-.91797c0-.5039.39843-.91406.89062-.91406zm-71.902 2.4414c.49219 0 .89062.41406.89062.91797 0 .50781-.39844.91796-.89062.91796-.49219 0-.89063-.41015-.89063-.91796 0-.50391.39844-.91797.89063-.91797zm53.777.91797-26.145 34.844c-2.8984-12.344-6.7578-24.437-12.48-34.844zm-46.051.91796c.49219 0 .89062.41016.89062.91797 0 .50391-.39844.91407-.89062.91407s-.89453-.41016-.89453-.91407c0-.50781.40234-.91797.89453-.91797zm42.484.91797h-32.086c4.7539 9.168 8.0195 18.891 10.102 29.34zm16.344.91407c.49219 0 .89063.41015.89063.91796 0 .50782-.39844.91797-.89063.91797-.49218 0-.89062-.41015-.89062-.91797 0-.50781.39844-.91796.89062-.91796zm-7.1328 0c.49219 0 .89453.41015.89453.91796 0 .50782-.40234.91797-.89453.91797s-.89062-.41015-.89062-.91797c0-.50781.39843-.91796.89062-.91796zm-76.773 5.3359c6.168 8.3594 10.625 17.438 13.941 27.184-5.0977 6.2773-8.1758 14.328-8.1758 23.105 0 8.7617 3.0664 16.797 8.1602 23.078l-9.6172 12.758c-8.3594-9.543-16.656-22.996-22.098-37.176.95703-.66016 1.8906-1.3555 2.7852-2.1094 4.4375 12.297 11.125 24.18 18.242 33.625l5.7891-7.7422c-4.3164-6.4024-6.8281-14.121-6.8281-22.434 0-.59375.01172-1.1836.03906-1.7734h-3.6055c-.12891.004-.24609-.0664-.3125-.17969-.06641-.11719-.06641-.25781 0-.37109.06641-.11329.18359-.1836.3125-.1836h3.6445c.05859-.98828.15625-1.9648.28906-2.9336h-5.418c-.12891.004-.25-.0664-.3125-.17969-.06641-.11328-.06641-.25781 0-.37109.0625-.11328.18359-.1836.3125-.17969h5.5234c.14844-.99219.33594-1.9688.55859-2.9375h-6.3789c-.12891.004-.25-.0664-.3125-.17969-.06641-.11328-.06641-.25781 0-.37109.0625-.11328.18359-.1836.3125-.17969h6.5586c.21484-.86719.46094-1.7266.73438-2.5703h-9.0781c-.19531.004-.38281-.0781-.51953-.22266.25391-.41015.50391-.82422.75-1.2422h9.3516c.27344-.74609.56641-1.4766.88281-2.1992h-8.6797c-.10547 0-.21094-.0234-.30469-.0664.23438-.46484.46875-.92969.69141-1.4023h8.9648c.35938-.7461.74219-1.4805 1.1484-2.1992h-9.1328c.19922-.48438.39453-.97266.58203-1.4688h9.4141c.46484-.75.95312-1.4844 1.4648-2.1992h-10.098c.15625-.48438.30859-.97656.45312-1.4688h10.293c-.27734-.73828-.55859-1.4688-.84766-2.1992h-8.8477c.12109-.48438.23437-.97656.33984-1.4688h7.9102c-.30859-.73828-.62109-1.4688-.94531-2.1992h-6.5352c.08594-.48437.16406-.97656.23438-1.4648h5.6328c-.33984-.73828-.69141-1.4727-1.0508-2.2031h-4.3086c.05078-.48437.09375-.97656.12891-1.4648h3.4375c-1.3945-2.7031-2.918-5.3359-4.5938-7.9102-.15625-2.207-.44531-4.3711-.88281-6.5zm23.293.16797c.49219 0 .89062.41016.89062.91406 0 .50782-.39844.91797-.89062.91797-.49219 0-.89062-.41015-.89062-.91797 0-.5039.39844-.91406.89062-.91406zm55.266 1.832c.49219 0 .89062.41016.89062.91797 0 .50391-.39843.91797-.89062.91797s-.89063-.41406-.89063-.91797c0-.50781.39844-.91797.89063-.91797zm-7.1328 0c.49218 0 .89062.41016.89062.91797 0 .50391-.39844.91797-.89062.91797-.49219 0-.89063-.41406-.89063-.91797 0-.50781.39844-.91797.89063-.91797zm-41 1.2227c.49219 0 .89062.41016.89062.91797 0 .5039-.39844.91406-.89062.91406-.49219 0-.89062-.41016-.89062-.91406 0-.50781.39844-.91797.89062-.91797zm35.652 5.5c.49219 0 .89062.41016.89062.91797s-.39843.91797-.89062.91797-.89063-.41016-.89063-.91797.39844-.91797.89063-.91797zm7.7266.61328c.49219 0 .89063.41016.89063.91797 0 .50391-.39844.91406-.89063.91406s-.89062-.41015-.89062-.91406c0-.50781.39843-.91797.89062-.91797zm-46.055.91797c.49219 0 .89062.41016.89062.91406 0 .50781-.39844.91797-.89062.91797s-.89062-.41016-.89062-.91797c0-.5039.39844-.91406.89062-.91406zm6.5391 3.6641c.49219 0 .89062.41406.89062.91797 0 .50781-.39843.91797-.89062.91797s-.89453-.41016-.89453-.91797c0-.50391.40234-.91797.89453-.91797zm-54.293 1.1328c-1.3594 6.7461-5.5938 12.168-11.074 14.344v-5.9805c3.6836-2.7852 7.3711-5.5703 11.074-8.3633zm88.461 1.0078c.49218 0 .89062.41015.89062.91796 0 .50391-.39844.91797-.89062.91797-.49219 0-.89454-.41406-.89454-.91797 0-.50781.40235-.91796.89454-.91796zm-7.7266 0c.49219 0 .89063.41015.89063.91796 0 .50391-.39844.91797-.89063.91797-.49218 0-.89062-.41406-.89062-.91797 0-.50781.39844-.91796.89062-.91796zm-29.711 4.2773c.49219 0 .89062.41406.89062.91797 0 .50781-.39844.91797-.89062.91797-.49219 0-.89062-.41016-.89062-.91797 0-.50391.39844-.91797.89062-.91797zm32.09 3.0586c.49219 0 .89062.41016.89062.91797 0 .50391-.39843.91406-.89062.91406-.49609 0-.89453-.41015-.89453-.91406 0-.50781.39844-.91797.89453-.91797zm-7.7266 0c.49219 0 .89062.41016.89062.91797 0 .50391-.39843.91406-.89062.91406s-.89063-.41015-.89063-.91406c0-.50781.39844-.91797.89063-.91797zm-18.125.30469c.49219 0 .89062.41016.89062.91797 0 .50391-.39843.91797-.89062.91797s-.89063-.41406-.89063-.91797c0-.50781.39844-.91797.89063-.91797z"/>
  <path d="m110.46 268.29c-13.141.0625-25.074-2.5078-35.328-5.4492l2.3867-2.5117c15.27 4.4922 35.996 7.457 54.586 1.0859l3.207 3.4219c-8.6484 2.4258-16.969 3.4141-24.852 3.4531zm-43.609-51.207-.4375-.28516-.80859-2.7031 1.3164-1.5664 5.8008.91797-1.7617-5.4375 1.2266-1.6055 5.5078.47266-1.418-6.3125 1.3555-1.4805 5.4062.92578-1.418-6.8008 1.3594-1.4609 5.2344.89844-1.8125-6.0547 1.3164-1.5703 5.8516.92578-1.8203-6.082 1.1367-1.582h6.0273l-1.7969-5.082 1.1172-1.6406h5.8789l-.92969-2.1016 2.5898-.0508 1.2695 2.8672-1.082 1.7305h-6.0312l1.7969 5.082-1.1133 1.6406h-6.1172l1.9023 6.3633-1.3164 1.5703-5.8516-.92579 1.8203 6.082-1.332 1.5625-5.4062-.92579 1.418 6.8008-1.3594 1.4609-5.3789-.92187 1.3867 6.1641-1.2578 1.4961-5.3359-.45703 1.8086 5.5742-1.3086 1.5938-5.8516-.92578.44922 1.5zm74.551-3.7422-5.3164-.83984-.98047-1.4844 1.5156-6.7539-6.5664-1.5586-.82812-1.6641 2.5117-6.207-6.0312-2.5859-.64063-1.5976 2.5742-6.3594-5.0586-3.125-.42969-1.6406 2.4844-4.5977-5.1562-4.2461c-.3711-.29297-.52735-.76563-.44141-1.207l2.7109-.0547 5.1562 4.2422.29687 1.5469-2.4141 4.4688 4.957 3.0586.48437 1.5195-2.5117 6.207 6.0312 2.5859.64062 1.5977-2.4297 6 6.3555 1.5078.89063 1.4648-1.4961 6.6641 6.2383.98828zm-64.559-.82812c-.49219 0-.89453-.41016-.89453-.91797 0-.50391.40234-.91406.89453-.91406.49219 0 .89062.41015.89062.91406 0 .50781-.39844.91797-.89062.91797zm-7.4297-.91797c-.49219 0-.89062-.41016-.89062-.91406 0-.50782.39844-.91797.89062-.91797.49219 0 .89062.41015.89062.91797 0 .5039-.39844.91406-.89062.91406zm71.902-2.4414c-.49219 0-.89062-.41406-.89062-.91797 0-.50781.39843-.91796.89062-.91796s.89063.41015.89063.91796c0 .50391-.39844.91797-.89063.91797zm-53.777-.91797 26.145-34.844c2.8984 12.344 6.7578 24.438 12.48 34.844zm46.051-.91796c-.49219 0-.89063-.41016-.89063-.91797 0-.50391.39844-.91407.89063-.91407s.89453.41016.89453.91407c0 .50781-.40234.91797-.89453.91797zm-42.484-.91797h32.086c-4.7539-9.168-8.0195-18.891-10.102-29.34zm-16.344-.91407c-.49219 0-.89062-.41015-.89062-.91796 0-.50782.39844-.91797.89062-.91797s.89062.41015.89062.91797c0 .50781-.39844.91796-.89062.91796zm7.1328 0c-.49219 0-.89453-.41015-.89453-.91796 0-.50782.40234-.91797.89453-.91797.49219 0 .89062.41015.89062.91797 0 .50781-.39844.91796-.89062.91796zm76.773-5.3359c-6.168-8.3594-10.625-17.438-13.941-27.184 5.0976-6.2773 8.1758-14.328 8.1758-23.105 0-8.7617-3.0664-16.797-8.1602-23.078l9.6172-12.758c8.3594 9.543 16.656 22.996 22.098 37.176-.95703.66015-1.8906 1.3555-2.7852 2.1094-4.4375-12.297-11.125-24.18-18.242-33.625l-5.7891 7.7422c4.3164 6.4023 6.8281 14.121 6.8281 22.434 0 .59375-.0117 1.1836-.0391 1.7734h3.6055c.12891-.004.2461.0664.3125.17969.0664.11719.0664.25781 0 .37109s-.18359.1836-.3125.1836h-3.6445c-.0586.98828-.15625 1.9648-.28906 2.9336h5.418c.1289-.004.25.0664.3125.17969.0664.11328.0664.25781 0 .37109-.0625.11328-.1836.1836-.3125.17969h-5.5234c-.14844.99219-.33594 1.9688-.55859 2.9375h6.3789c.12891-.004.25.0664.3125.17969.0664.11328.0664.25781 0 .37109-.0625.11328-.18359.18359-.3125.17969h-6.5586c-.21485.86719-.46094 1.7266-.73438 2.5703h9.0781c.19531-.004.38281.0781.51953.22266-.25391.41015-.50391.82422-.75 1.2422h-9.3516c-.27344.7461-.56641 1.4766-.88282 2.1992h8.6797c.10547 0 .21094.0234.30469.0664-.23438.46484-.46875.92969-.69141 1.4023h-8.9648c-.35938.7461-.74219 1.4805-1.1484 2.1992h9.1328c-.19921.48438-.39453.97266-.58203 1.4688h-9.4141c-.46484.75-.95312 1.4844-1.4648 2.1992h10.098c-.15625.48438-.30859.97656-.45312 1.4688h-10.293c.27734.73828.55859 1.4688.84766 2.1992h8.8476c-.12109.48437-.23437.97656-.33984 1.4688h-7.9102c.3086.73828.6211 1.4688.94531 2.1992h6.5352c-.0859.48437-.16406.97656-.23437 1.4648h-5.6328c.33985.73828.69141 1.4727 1.0508 2.2031h4.3086c-.0508.48437-.0937.97656-.12891 1.4648h-3.4375c1.3945 2.7031 2.918 5.3359 4.5938 7.9102.15625 2.207.44531 4.3711.88281 6.5zm-23.293-.16797c-.49219 0-.89063-.41016-.89063-.91406 0-.50782.39844-.91797.89063-.91797.49218 0 .89062.41015.89062.91797 0 .5039-.39844.91406-.89062.91406zm-55.266-1.832c-.49219 0-.89062-.41016-.89062-.91797 0-.50391.39844-.91797.89062-.91797.49219 0 .89062.41406.89062.91797 0 .50781-.39844.91797-.89062.91797zm7.1328 0c-.49219 0-.89062-.41016-.89062-.91797 0-.50391.39844-.91797.89062-.91797.49219 0 .89062.41406.89062.91797 0 .50781-.39844.91797-.89062.91797zm41-1.2227c-.49218 0-.89062-.41016-.89062-.91797 0-.5039.39844-.91406.89062-.91406.49219 0 .89063.41016.89063.91406 0 .50781-.39844.91797-.89063.91797zm-35.652-5.5c-.49219 0-.89062-.41016-.89062-.91797s.39844-.91797.89062-.91797.89062.41016.89062.91797-.39844.91797-.89062.91797zm-7.7266-.61328c-.49219 0-.89063-.41016-.89063-.91797 0-.50391.39844-.91406.89063-.91406.49219 0 .89062.41015.89062.91406 0 .50781-.39844.91797-.89062.91797zm46.055-.91797c-.49218 0-.89062-.41016-.89062-.91406 0-.50781.39844-.91797.89062-.91797.49219 0 .89063.41016.89063.91797 0 .5039-.39844.91406-.89063.91406zm-6.5391-3.6641c-.49218 0-.89062-.41406-.89062-.91797 0-.50781.39844-.91797.89062-.91797.49219 0 .89453.41016.89453.91797 0 .50391-.40234.91797-.89453.91797zm54.293-1.1328c1.3594-6.7461 5.5938-12.168 11.074-14.344v5.9805c-3.6836 2.7852-7.3711 5.5703-11.074 8.3633zm-88.461-1.0078c-.49219 0-.89062-.41015-.89062-.91797 0-.5039.39844-.91796.89062-.91796.49219 0 .89453.41406.89453.91796 0 .50782-.40234.91797-.89453.91797zm7.7266 0c-.49219 0-.89062-.41015-.89062-.91797 0-.5039.39844-.91796.89062-.91796.49219 0 .89062.41406.89062.91796 0 .50782-.39844.91797-.89062.91797zm29.711-4.2773c-.49218 0-.89062-.41406-.89062-.91797 0-.50781.39844-.91797.89062-.91797.49219 0 .89063.41016.89063.91797 0 .50391-.39844.91797-.89063.91797zm-32.09-3.0586c-.49219 0-.89062-.41016-.89062-.91797 0-.50391.39844-.91407.89062-.91407.49609 0 .89453.41016.89453.91407 0 .50781-.39844.91797-.89453.91797zm7.7266 0c-.49218 0-.89062-.41016-.89062-.91797 0-.50391.39844-.91407.89062-.91407.49219 0 .89063.41016.89063.91407 0 .50781-.39844.91797-.89063.91797zm18.125-.30469c-.49218 0-.89062-.41016-.89062-.91797 0-.50391.39844-.91797.89062-.91797.49219 0 .89063.41406.89063.91797 0 .50781-.39844.91797-.89063.91797z"/>
 </g>
 <g fill="none" stroke="#4242ff" stroke-linecap="round" stroke-linejoin="round">
  <path d="m130.63 169.42v-23.836h-36.25m36.246 2.1367h-36.203m36.176 2.4453h-36.223m36.254-4.582 32.949-43.816m-36.516 43.816 34.184-45.453m-47.258 45.453 36.305-48.273m-39.867 48.273 36.543-48.598m-57.469.29688c12.039 13.719 16.793 30.863 20.926 48.301m-23.07-46.625c11 13.426 15.539 29.891 19.504 46.625m-27.367-40.738c9.332 12.117 14.895 25.723 18.453 40.738m-20.754-39.051c8.5742 11.688 13.797 24.727 17.187 39.051m-25.781-32.438c6.2266 8.0274 10.793 16.711 14.207 26.027m-16.496-24.344c6.1914 8.3828 10.648 17.461 13.937 27.207m10.555-8.7969c-11.148 6.1836-18.703 18.152-18.703 31.902 0 8.7617 3.0664 16.797 8.1758 23.074m13.277-45.961c-7.4453 4.8398-12.375 13.281-12.375 22.887 0 5.7539 1.7695 11.094 4.793 15.488m8.3984-34.492c-5.7969 4.2812-9.5586 11.199-9.5586 19.004 0 4.5234 1.2656 8.7539 3.457 12.34m52.707-72.547h-45.707m50.312-6.1133h-54.625m53.641-3.668h-52.293l-57.047 43.113m122.88-40.336 31.621 22.43m-27.984-16.184 27.984 19.852m-112.96 16.668c-5.1797 6.7578-8.2617 15.238-8.2617 24.445 0 8.3125 2.5117 16.031 6.8125 22.422m-40.086-18.289c18.141-3.0938 32.086-21.691 32.086-44.168 0-3.5195-.34375-6.9453-.98828-10.23m-31.102 40.75c11.879-2.9414 20.805-15.488 20.805-30.52 0-.82422-.02344-1.6406-.07812-2.4492m-20.719 29.211c10.164-2.8789 17.723-13.77 17.723-26.762 0-.0859 0-.16797-.0039-.25m-17.727 19.391c5.4805-2.1758 9.7148-7.5977 11.094-14.352m-.65626 35.727c5.8672 14.578 14.668 28.254 23.273 37.535m-20.418-39.336c5.4375 14.16 13.734 27.613 22.062 37.195m-19.289-39.324c4.4453 12.297 11.133 24.18 18.242 33.609m5.8164-7.7148-5.7969 7.75m-2.3594-73.988c3.9453 6.0781 7.0742 12.5 9.5937 19.258m62.707-33.84h-43.051m-61.215 60.25c17.051-2.3438 30.301-20.004 30.301-41.445 0-3.2891-.3086-6.4844-.89844-9.5508m-.81249 9.832c0-.0937.0039-.1875.0039-.28125 0-2.8828-.2539-5.6914-.73046-8.3984m-1.4727 22.77c.97266-3.0547 1.6484-6.2969 1.9727-9.6641m-9.3906 23.445c2.3906-2.8906 4.414-6.2305 5.9804-9.9062m-18.004 19.121c3.6875-1.5898 7.0703-3.9726 10.012-6.9766m-16.961 8.9531c.96093-.14063 1.9062-.32812 2.8398-.57031m23.715-41.285c-.08204-1.5352-.24218-3.0469-.47266-4.5274m-1.5703 20.676c.96875-3.0039 1.6289-6.1953 1.9297-9.5234m-8.6211 22.051c2.0859-2.5781 3.8711-5.5273 5.2734-8.7617m-17.473 17.98c3.3984-1.3555 6.5312-3.4219 9.2851-6.0508m9.6601-32.141c-.0625-.96093-.15625-1.9062-.28125-2.8438m-.86328 15.824c.33985-1.3672.61328-2.7695.81641-4.1992m-6.5117 16.781c.93359-1.3203 1.7891-2.7266 2.5547-4.2109m-13.328 13.684c1.6406-.82031 3.207-1.8242 4.6758-2.9883m11.051-30.129c-.02344-1.1523-.09766-2.293-.21875-3.4141m.22656 3.7578c0-.11328-.0039-.23047-.0078-.34375m-.02735 2.6524c.02735-.58203.03907-1.1719.03907-1.7617 0-.1836 0-.36719-.0039-.54688m-1.3984 10.969c.46485-1.668.82032-3.4023 1.0547-5.1797m-2.2656 8.7969c.12109-.30859.23829-.61719.35157-.93359m-4.6172 8.6641c1.0391-1.3984 1.9766-2.9023 2.8008-4.5039m-5.5312 7.6914c.14063-.14063.27735-.28125.41406-.42578m-13.496 7.5469c3.8047-.67578 7.3476-2.3398 10.449-4.7656m10.34-13.426c-2.9414-4.8867 6.3711-5.2266 3.4531-.28125 5.3789.11718 1.4766 7.668-1.5859 3.2852-1.9687 4.9766-7.832-2.3867-1.8672-3.0039m2.8398-12.57c-3.8906-4.1289 5.1367-6.5039 3.3125-1.0352 5.2812-1.0664 3.0352 7.168-.86327 3.5586-.89453 5.2969-8.1523-.61328-2.4492-2.5234m-10.074 23.672c-1.4258-5.5586 7.5781-3.082 3.3828.76953 5.1094 1.7266-.76563 7.7774-2.4492 2.6641-3.2969 4.168-6.8125-4.6367-.93358-3.4336m-13.574 8.1719c.59766-.28125 1.457-.23047 2.6055.41797.26171-5.7422 8.1289-.60548 3.0078 1.7773 4.3711 3.2226-3 7.1836-3.1133 1.7852-1.0469.71093-1.8906.70312-2.4922.32422m59.152-.48829c-1.4609-.74609-4.4219-2.1836-6.2578-2.6016-3.793-.86719-4.0039 4.7148-.59375 4.8906 1.7578.0898 5.1484.38281 6.7891.52733m.074219-1.3633-3.8945-.99999m3.8047-3.3945c-1-1.1445-2.832-3.1523-4.1328-4.0664-2.8203-1.9922-4.7773 2.4961-2.0469 3.793 1.9023.90625 6.1172 3.1133 6.1172 3.1133m.10547-1.2109-3.207-2.3945m3.1875-5.1836c-.46094-.85157-.94922-1.668-1.3945-2.2422-2.1445-2.7383-5.2773.98047-3.0273 3.0312 1.168 1.0625 3.3672 3.2031 4.4102 4.2266m.03906-1.8867-1.4219-1.9219m1.4102-7.6016c-1.4766.10547-2.8008 2.0156-1.5781 3.6836.41406.5664.98437 1.3789 1.5664 2.2148m-.05078 12.629c-1.5742-.20313-4.9492-.57812-6.8633-.34376-3.8555.47266-2.2617 5.8086 1.0117 4.8164 1.4727-.44531 4.1719-1.1719 5.8945-1.6289m-.03516-1.457-3.6445.34765m3.6797 1.1523c-1.5586.41798-4.7617 1.3398-6.4336 2.2734-3.0703 1.7109-.63281 5.4023 1.8437 4.5547m3.5977-4.7383-1.6992.88672m.55469-28.453-2.2812-2.8125c-2.4766-3.0586-5.9414 1.4648-4.1602 3.6641l2.3242 2.8672m-1.2656 1.5586-3.0781-2.0391c-3.25-2.1524-5.2422 3.2305-2.8984 4.7812l3.0352 2.0117m-.78125 1.7539-3.4453-.88281c-3.7539-.96484-3.9531 4.793-1.25 5.4844l3.168.81641m-.29688 2.2812-3.1836.0938c-3.8672.11717-2.5469 5.7148.23438 5.6328l3.0352-.0898m.4375 2.5938-3.0156.7539c-3.7578.94141-1.3359 6.1367 1.3672 5.457l3.375-.84375m.64844 1.3867-2.75 2.1641c-2.2852 1.7969-.51953 4.332 1.4414 4.7969m8.1758-50.859c-.98828 1.3672-1.3945 3.1367-.58594 4.625-4.0391-4.9844-9.6953 2.3906-6.7851 5.9805-5.3047-3.5117-8.5508 5.2695-4.7305 7.7969-6.1211-1.5703-6.4492 7.8203-2.043 8.9492-6.3047.18749-4.1562 9.3164.38281 9.1836-6.1289 1.5352-2.1836 10.004 2.2305 8.8984-3.4922 2.75-1.1797 6.5586 1.7617 7.6484m108.48-148.28-12.48 15.629v57.23m12.48-63.715-7.1289 8.9297v58.602m-5.414-52.992c-7.8867-7.3203-5.6562-12.035-5.2852-17.223-17.961 15.742-13.051 31.145-1.7812 46.453.0859-7.25.97265-13.793 7.1875-15.621m-5.7695-27.898c-2.6562 3.543-5.6484 6.8828-.23047 15.402-2.3984.96094-4.8086 1.6719-7.1289 4.2773 1.8867 2.9766 4.4648 4.0625 7.1289 4.8906-2.0508 4.5078-6.1992 7.5-1.1797 17.109m-109.47 29.414c-.20703-1.8008-.61719-5.1445-1.0664-5.5703-.62109-.58593-5.2695-6.6406-5.9414-7.332-.59376-.61328-4.1602-1.2226-4.7539-1.2226-.59376 0-3.1758 1.1641-3.5664 3.0547-1.1367 5.5391 1.2187 9.2148 4.1601 1.2226 1.1875 1.2227 1.7813 1.2227 3.5664 1.2227-5.0781 4.1445-3.4336 7.3594 1.7813 9.7812m-6.5156-15.305c-.44141-.58594-1.0352-1.1992-1.8047-1.8125-3.6523-2.9219-9.1523-.92969-3.5625 3.668.8164.67187 1.5781 1.1719 2.2656 1.5234m-1.7891-1.1289c-4.4453-1.4023-7.9375 1.125-1 5.1602 6.6055 3.8398 9.2812 1.6016 6.4648-1.5977m-6.3086 1.6562c-4.0742-.32422-6.5 2.2656.30469 4.6797 7.125 2.5312 9.1445-.23047 5.2109-2.7344m-5.4453 2.6602c-4.0586-.25-6.6445 2.7695-.03906 4.4531 6.793 1.7305 8.1211-1.5078 3.7422-3.4726m3.3867 9.3789c-2.6445-.84374-6.0078-3.9062-6.3359-5.7031m7.4375-4.1641c-.58202 2.3633 1.8867 5.3476 2.207 5.1836m16.043-30.563c.59375 4.8867-4.1601 6.7227-8.9141 3.0547-6.3945-4.9336-18.668-5.1445-12.477 7.9453 1.1875-4.2773 8.6523-2.7031 13.664.61328 8.3203 5.5 16.047-7.9453 7.7265-11.613 5.4023 6.4375-1.6875 12.461-10.695 6.1094-8.8281-6.2227-13.375 2.8984-10.695 4.8906l.59374 1.8359m1.9219-12.805c-1.0312 1.9609-1.8008 3.9258-1.9336 5.918m4.7227-5.9141c-1.1797 1.3633-2.1328 2.8008-2.6523 4.3867m7.4609-2.8398c-1.0898.83594-2.1094 1.7305-2.9336 2.7422m6.918-.21484c-1.5391.30078-2.9805.75-4.2344 1.4766m7.4844-.57422c-1.1758.91797-2.207 1.918-2.9844 3.0664m6.457-4.8594c-.87891 1.8516-1.5586 3.6953-1.75 5.5313m-15.508-.32031c-.66406-1.2266-.51172-2.6563-.0078-4.293m2.7461 4.4766c-.55468-1.2344-.40234-2.7617 0-4.5312m4.8516 6.1055c-.55079-1.0703-.625-2.4609-.52734-4.0703m6.3359 6.7734c-.85156-1.0274-1.207-2.5742-1.4609-4.4102m7.1367 2.2148c-.80082-.49609-1.5118-1.3047-2.2188-2.293m25.676-47.27c-.68359 2.2227-1.5273 5.1289-1.5273 5.8594 0 1.3672.59375 1.6055.59375 2.4453 0 .60938-4.7539 8.5547-4.7539 11s2.375 2.4453 2.9727 2.4453c.59375 0 0 2.4453 0 3.0586 0 .60937.59375 1.832.59375 1.832s-.59375.96875-.59375 1.832c0 1.8359 3.5625 1.8359 3.5625 1.8359s-.59375 1.832-.59375 2.4453c0 .60938-2.375 0-2.375 3.0547 0 1.2227 3.5625 4.2813 4.7539 4.2813 1.1875 0 2.375-1.2227 3.5625-1.2227 1.1914 0 2.9726 1.2227 4.1602 1.2227 1.1914 0 7.2539-2.5078 9.5078-3.668 1.1875-.61328 1.0195-2.4414 3.043-3.25 1.2344-.49219 2.5859-2.3438 3.625-4.4141m-25.684-10.676c4.6406.42969 1.875 4.9258-2.375 1.8359-.97265-.70703 0 .60938 0 .60938 1.0781 0 2.1406.57812 2.9687.48828m5.5859 5.7461c-2.375-.3125-5.0859-2.9219-5.7031-3.543-.48828-.49219-1.7734.53125-1.6641 1.2227 2.3516 1.2578 5.7109 2.6445 7.3672 2.3203m-4.2773.98047c-1.6758-.26953-3.3437-.09766-4.8711-1.2227m16.398-17.117c-.24219.42578-7.8047-4.7461-9.1484-5.2539-1.6523-.625-3.1641.81641-3.0898.73047l-.23828 1.3477s1.9492-1.4531 2.9687-1.1016c1.0703.36719 9.3828 4.9063 9.5078 4.2773m-3.3281 2.5703c-3.9609-.26562-7.1562-3.8555-10.34-3.668m6.7812 2.6641c1.4766 3.4766-4.8437.95312-6.8984 2.1016m-2.0195 28.852 2.957-2.2813m50.945-38.543c6.168 14.969-2.0703 26.777 5.5195 39.602 1.1328 1.9141 5.9414 3.0547 6.5352 0 1.0508-5.3945-5.9688-3.4102-4.1562-1.2227m-10.559-39.094c6.8711 15.223-.82812 26.676 5.8047 40.316 2.375 4.8906 10.832 6.2344 11.289.61328.78906-9.75-11.289-7.3359-8.914-.61328m-10.898-41.055c7.4648 15.594-.58985 27.195 6.1445 41.055 1.4688 3.0195 5.25 4.6875 8.039 4.1992m-16.852-45.852c8.0156 15.895.20703 27.617 7.0312 41.652 1.0156 2.0898 2.707 2.9844 4.5742 3.1758m-14.242-45.344c8.4453 16.074.39453 26.762 7.289 40.945 1.4688 3.0195 4.3437 4.7656 7.1328 4.2773m-17.039-45.668c8.832 16.289.57031 26.465 7.5312 40.781 1.4102 2.8984 3.5703 4.0625 6.2109 3.7148m-16.348-44.914c9.2031 16.535.74218 26.758 7.7578 41.199 1.4688 3.0156 3.1562 3.543 5.9453 3.0547m-16.246-44.551c9.4726 16.711.86328 26.969 7.9258 41.496 1.4648 3.0156 3.7461 3.543 6.5352 3.0547m-16.996-44.828c9.7266 16.855.98437 25.945 8.082 40.551 1.4688 3.0156 3.1562 4.1523 5.9453 3.668m-16.52-44.418c9.9102 16.977 1.0703 25.477 8.1992 40.137 1.4648 3.0195 3.1523 4.1563 5.9414 3.668m-16.59-43.926c10.023 17.059 1.1289 24.949 8.2695 39.648 1.2305 2.5312 2.1992 3.3086 4.125 3.207m-14.82-42.938c10.102 17.113 1.1641 23.176 8.3203 37.895 1.0938 2.2539 1.9805 3.457 3.5195 3.7227m-14.215-41.617c10.102 17.113 1.1641 21.953 8.3164 36.672.73437 1.5039 1.8125 2.2383 3.0586 2.5352m-13.707-39.133c10.027 17.043.53516 18.23 7.6797 32.93.88281 1.8203 1.6328 2.7344 2.6992 3.0664m26.344-33.844c-16.406-4.6953-37.117-8.4531-60.172-2.0078m76.332-14.891-18.547 19.422c-15.27-4.4922-35.996-7.457-54.586-1.0859l-17.285-18.336" stroke-width=".72322"/>
  <path d="m94.375 145.58v23.836h36.25m-36.246-2.1367h36.203m-36.176-2.4453h36.223m-36.254 4.582-32.949 43.816m36.516-43.816-34.184 45.453m47.258-45.453-36.305 48.273m39.867-48.273-36.543 48.598m57.469-.29688c-12.039-13.719-16.793-30.863-20.926-48.301m23.07 46.625c-11-13.426-15.539-29.891-19.504-46.625m27.367 40.738c-9.332-12.117-14.895-25.723-18.453-40.738m20.754 39.051c-8.5742-11.688-13.797-24.727-17.187-39.051m25.781 32.438c-6.2266-8.0273-10.793-16.711-14.207-26.027m16.496 24.344c-6.1914-8.3828-10.648-17.461-13.937-27.207m-10.555 8.7969c11.148-6.1836 18.703-18.152 18.703-31.902 0-8.7617-3.0664-16.797-8.1758-23.074m-13.277 45.961c7.4453-4.8398 12.375-13.281 12.375-22.887 0-5.7539-1.7695-11.094-4.793-15.488m-8.3984 34.492c5.7969-4.2812 9.5586-11.199 9.5586-19.004 0-4.5234-1.2656-8.7539-3.457-12.34m-52.707 72.547h45.707m-50.312 6.1133h54.625m-53.641 3.668h52.293l57.047-43.113m-122.88 40.336-31.621-22.43m27.984 16.184-27.984-19.852m112.96-16.668c5.1797-6.7578 8.2617-15.238 8.2617-24.445 0-8.3125-2.5117-16.031-6.8125-22.422m40.086 18.289c-18.141 3.0937-32.086 21.691-32.086 44.168 0 3.5195.34375 6.9453.98828 10.23m31.102-40.75c-11.879 2.9414-20.805 15.488-20.805 30.52 0 .82422.0234 1.6406.0781 2.4492m20.719-29.211c-10.164 2.8789-17.723 13.77-17.723 26.762 0 .0859 0 .16797.004.25m17.726-19.391c-5.4805 2.1758-9.7148 7.5976-11.094 14.352m.65626-35.727c-5.8672-14.578-14.668-28.254-23.273-37.535m20.418 39.336c-5.4375-14.16-13.734-27.613-22.062-37.195m19.289 39.324c-4.4453-12.297-11.133-24.18-18.242-33.609m-5.8164 7.7148 5.7969-7.75m2.3594 73.988c-3.9453-6.0781-7.0742-12.5-9.5937-19.258m-62.707 33.84h43.051m61.215-60.25c-17.051 2.3438-30.301 20.004-30.301 41.445 0 3.2891.3086 6.4844.89844 9.5508m.81249-9.832c0 .0937-.004.1875-.004.28125 0 2.8828.2539 5.6914.73046 8.3984m1.4727-22.77c-.97266 3.0547-1.6484 6.2969-1.9726 9.6641m9.3906-23.445c-2.3906 2.8906-4.414 6.2305-5.9804 9.9062m18.004-19.121c-3.6875 1.5898-7.0703 3.9726-10.012 6.9766m16.961-8.9531c-.96093.14063-1.9062.32812-2.8398.57031m-23.715 41.285c.082 1.5352.24218 3.0469.47266 4.5273m1.5703-20.676c-.96875 3.0039-1.6289 6.1953-1.9297 9.5234m8.6211-22.051c-2.0859 2.5781-3.8711 5.5273-5.2734 8.7617m17.473-17.98c-3.3984 1.3555-6.5312 3.4219-9.2851 6.0508m-9.6602 32.141c.0625.96094.15624 1.9062.28125 2.8438m.86328-15.824c-.33985 1.3672-.61328 2.7695-.81641 4.1992m6.5117-16.781c-.93359 1.3203-1.7891 2.7266-2.5547 4.2109m13.328-13.684c-1.6406.82031-3.207 1.8242-4.6758 2.9883m-11.051 30.129c.0234 1.1524.0977 2.293.21875 3.4141m-.22655-3.7578c0 .11329.004.23047.008.34375m.0273-2.6523c-.0273.58203-.0391 1.1719-.0391 1.7617 0 .18359 0 .36719.004.54687m1.3984-10.969c-.46485 1.668-.82032 3.4024-1.0547 5.1797m2.2656-8.7969c-.12109.30859-.23828.61718-.35157.93359m4.6172-8.6641c-1.0391 1.3984-1.9766 2.9023-2.8008 4.5039m5.5312-7.6914c-.14063.14062-.27735.28125-.41406.42578m13.496-7.5469c-3.8047.67578-7.3476 2.3398-10.449 4.7656m-10.34 13.426c2.9414 4.8867-6.3711 5.2266-3.4531.28125-5.3789-.11719-1.4766-7.668 1.5859-3.2852 1.9687-4.9766 7.832 2.3867 1.8672 3.0039m-2.8398 12.57c3.8906 4.1289-5.1367 6.5039-3.3125 1.0352-5.2812 1.0664-3.0352-7.168.86328-3.5586.89453-5.2969 8.1523.61329 2.4492 2.5234m10.074-23.672c1.4258 5.5586-7.5781 3.082-3.3828-.76953-5.1094-1.7266.76563-7.7774 2.4492-2.6641 3.2969-4.168 6.8125 4.6367.93359 3.4336m13.574-8.1719c-.59767.28125-1.457.23047-2.6055-.41797-.26171 5.7422-8.1289.60548-3.0078-1.7774-4.3711-3.2226 3-7.1836 3.1133-1.7852 1.0469-.71094 1.8906-.70312 2.4922-.32422m-59.152.48829c1.4609.74609 4.4219 2.1836 6.2578 2.6016 3.793.86719 4.0039-4.7148.59375-4.8906-1.7578-.0898-5.1484-.38281-6.7891-.52734m-.0742 1.3633 3.8945 1m-3.8047 3.3945c1 1.1445 2.832 3.1523 4.1328 4.0664 2.8203 1.9922 4.7773-2.4961 2.0469-3.793-1.9023-.90625-6.1172-3.1133-6.1172-3.1133m-.10547 1.211 3.207 2.3945m-3.1875 5.1836c.46094.85156.94922 1.668 1.3945 2.2422 2.1445 2.7383 5.2773-.98047 3.0273-3.0312-1.168-1.0625-3.3672-3.2031-4.4102-4.2266m-.0391 1.8867 1.4219 1.9219m-1.4102 7.6016c1.4766-.10547 2.8008-2.0156 1.5781-3.6836-.41406-.56641-.98437-1.3789-1.5664-2.2148m.0508-12.629c1.5742.20313 4.9492.57812 6.8633.34375 3.8555-.47265 2.2617-5.8086-1.0117-4.8164-1.4726.4453-4.1719 1.1719-5.8945 1.6289m.0352 1.457 3.6445-.34766m-3.6797-1.1523c1.5586-.41797 4.7617-1.3398 6.4336-2.2734 3.0703-1.7109.63281-5.4023-1.8437-4.5547m-3.5977 4.7383 1.6992-.88671m-.55469 28.453 2.2812 2.8125c2.4766 3.0586 5.9414-1.4648 4.1602-3.6641l-2.3242-2.8672m1.2656-1.5586 3.0781 2.0391c3.25 2.1523 5.2422-3.2305 2.8984-4.7812l-3.0352-2.0117m.78125-1.7539 3.4453.88281c3.7539.96484 3.9531-4.793 1.25-5.4844l-3.168-.81641m.29688-2.2812 3.1836-.0937c3.8672-.11718 2.5469-5.7148-.23438-5.6328l-3.0352.0898m-.4375-2.5938 3.0156-.75391c3.7578-.94141 1.3359-6.1367-1.3672-5.457l-3.375.84374m-.64844-1.3867 2.75-2.1641c2.2852-1.7969.51953-4.332-1.4414-4.7969m-8.1758 50.859c.98828-1.3672 1.3945-3.1367.58594-4.625 4.0391 4.9844 9.6953-2.3906 6.7852-5.9805 5.3047 3.5117 8.5508-5.2695 4.7305-7.7969 6.1211 1.5703 6.4492-7.8203 2.043-8.9492 6.3047-.1875 4.1562-9.3164-.38281-9.1836 6.1289-1.5352 2.1836-10.004-2.2305-8.8984 3.4922-2.75 1.1797-6.5586-1.7617-7.6484m-108.48 148.28 12.48-15.629v-57.23m-12.48 63.715 7.1289-8.9297v-58.602m5.4141 52.992c7.8867 7.3203 5.6562 12.035 5.2852 17.223 17.961-15.742 13.051-31.145 1.7812-46.453-.08594 7.25-.97266 13.793-7.1875 15.621m5.7695 27.898c2.6562-3.543 5.6484-6.8828.23047-15.402 2.3984-.96094 4.8086-1.6719 7.1289-4.2774-1.8867-2.9766-4.4648-4.0625-7.1289-4.8906 2.0508-4.5078 6.1992-7.5 1.1797-17.109m109.47-29.414c.20703 1.8008.61719 5.1445 1.0664 5.5703.62109.58594 5.2695 6.6406 5.9414 7.332.59376.61328 4.1602 1.2227 4.7539 1.2227.59376 0 3.1758-1.1641 3.5664-3.0547 1.1367-5.5391-1.2188-9.2148-4.1602-1.2227-1.1875-1.2226-1.7812-1.2226-3.5664-1.2226 5.0781-4.1445 3.4336-7.3594-1.7812-9.7812m6.5156 15.305c.44141.58593 1.0352 1.1992 1.8047 1.8125 3.6523 2.9219 9.1523.92968 3.5625-3.668-.8164-.67188-1.5781-1.1719-2.2656-1.5234m1.7891 1.1289c4.4453 1.4023 7.9375-1.125 1-5.1602-6.6055-3.8398-9.2812-1.6016-6.4648 1.5977m6.3086-1.6562c4.0742.32422 6.5-2.2656-.30469-4.6797-7.125-2.5312-9.1445.23047-5.2109 2.7344m5.4453-2.6602c4.0586.25 6.6445-2.7695.0391-4.4531-6.793-1.7305-8.1211 1.5078-3.7422 3.4727m-3.3867-9.3789c2.6445.84375 6.0078 3.9062 6.3359 5.7031m-7.4375 4.1641c.58202-2.3633-1.8867-5.3477-2.207-5.1836m-16.043 30.562c-.59376-4.8867 4.1601-6.7227 8.914-3.0547 6.3945 4.9336 18.668 5.1445 12.477-7.9453-1.1875 4.2773-8.6523 2.7031-13.664-.61329-8.3203-5.5-16.047 7.9453-7.7266 11.613-5.4023-6.4375 1.6875-12.461 10.695-6.1094 8.8281 6.2227 13.375-2.8984 10.695-4.8906l-.59374-1.8359m-1.9219 12.805c1.0312-1.9609 1.8008-3.9258 1.9336-5.918m-4.7227 5.9141c1.1797-1.3633 2.1328-2.8008 2.6524-4.3867m-7.4609 2.8398c1.0898-.83594 2.1094-1.7305 2.9336-2.7422m-6.918.21484c1.5391-.30078 2.9805-.75 4.2344-1.4766m-7.4844.57422c1.1758-.91797 2.207-1.918 2.9844-3.0664m-6.457 4.8594c.87892-1.8516 1.5586-3.6953 1.75-5.5312m15.508.32031c.66406 1.2266.51171 2.6562.008 4.293m-2.7461-4.4766c.55468 1.2344.40234 2.7617 0 4.5312m-4.8516-6.1055c.55079 1.0703.625 2.4609.52734 4.0703m-6.3359-6.7734c.85156 1.0273 1.207 2.5742 1.4609 4.4102m-7.1367-2.2148c.80077.4961 1.5117 1.3047 2.2187 2.293m-25.676 47.27c.68359-2.2227 1.5273-5.1289 1.5273-5.8594 0-1.3672-.59375-1.6055-.59375-2.4453 0-.60938 4.7539-8.5547 4.7539-11 0-2.4453-2.375-2.4453-2.9726-2.4453-.59375 0 0-2.4453 0-3.0586 0-.60937-.59375-1.832-.59375-1.832s.59375-.96875.59375-1.832c0-1.8359-3.5625-1.8359-3.5625-1.8359s.59375-1.832.59375-2.4453c0-.60938 2.375 0 2.375-3.0547 0-1.2227-3.5625-4.2812-4.7539-4.2812-1.1875 0-2.375 1.2227-3.5625 1.2227-1.1914 0-2.9726-1.2227-4.1602-1.2227-1.1914 0-7.2539 2.5078-9.5078 3.668-1.1875.61328-1.0195 2.4414-3.043 3.25-1.2344.49219-2.5859 2.3438-3.625 4.4141m25.684 10.676c-4.6406-.42968-1.875-4.9258 2.375-1.8359.97265.70703 0-.60938 0-.60938-1.0781 0-2.1406-.57812-2.9688-.48828m-5.5859-5.7461c2.375.3125 5.0859 2.9219 5.7031 3.543.48828.49218 1.7734-.53126 1.6641-1.2227-2.3516-1.2578-5.7109-2.6445-7.3672-2.3203m4.2773-.98047c1.6758.26953 3.3438.0976 4.8711 1.2226m-16.398 17.117c.24219-.42578 7.8047 4.7461 9.1484 5.2539 1.6523.625 3.164-.81641 3.0898-.73047l.23828-1.3477s-1.9492 1.4531-2.9688 1.1016c-1.0703-.36719-9.3828-4.9062-9.5078-4.2774m3.3281-2.5703c3.9609.26562 7.1562 3.8555 10.34 3.668m-6.7812-2.6641c-1.4766-3.4766 4.8437-.95313 6.8984-2.1016m2.0195-28.852-2.957 2.2812m-50.945 38.543c-6.168-14.969 2.0703-26.777-5.5195-39.602-1.1328-1.9141-5.9414-3.0547-6.5351 0-1.0508 5.3945 5.9687 3.4102 4.1562 1.2226m10.559 39.094c-6.8711-15.223.82812-26.676-5.8047-40.316-2.375-4.8906-10.832-6.2344-11.289-.61329-.78906 9.75 11.289 7.3359 8.914.61329m10.898 41.055c-7.4648-15.594.58984-27.195-6.1445-41.055-1.4687-3.0195-5.25-4.6875-8.0391-4.1992m16.852 45.852c-8.0156-15.895-.20703-27.617-7.0312-41.652-1.0156-2.0898-2.707-2.9844-4.5742-3.1758m14.242 45.344c-8.4453-16.074-.39453-26.762-7.2891-40.945-1.4687-3.0195-4.3437-4.7656-7.1328-4.2773m17.039 45.668c-8.832-16.289-.57031-26.465-7.5312-40.781-1.4102-2.8984-3.5703-4.0625-6.2109-3.7148m16.348 44.914c-9.2031-16.535-.74219-26.758-7.7578-41.199-1.4687-3.0156-3.1562-3.543-5.9453-3.0547m16.246 44.551c-9.4726-16.711-.86328-26.969-7.9258-41.496-1.4648-3.0156-3.7461-3.543-6.5351-3.0547m16.996 44.828c-9.7265-16.855-.98437-25.945-8.082-40.551-1.4687-3.0156-3.1562-4.1523-5.9453-3.668m16.519 44.418c-9.9101-16.977-1.0703-25.477-8.1992-40.137-1.4648-3.0195-3.1523-4.1562-5.9414-3.668m16.59 43.926c-10.023-17.059-1.1289-24.949-8.2695-39.648-1.2305-2.5312-2.1992-3.3086-4.125-3.207m14.82 42.938c-10.102-17.113-1.1641-23.176-8.3203-37.895-1.0937-2.2539-1.9805-3.457-3.5195-3.7227m14.215 41.617c-10.102-17.113-1.1641-21.953-8.3164-36.672-.73437-1.5039-1.8125-2.2383-3.0586-2.5352m13.707 39.133c-10.027-17.043-.53516-18.23-7.6797-32.93-.88281-1.8203-1.6328-2.7344-2.6992-3.0664m-26.344 33.844c16.406 4.6953 37.117 8.4531 60.172 2.0078m-76.332 14.891 18.547-19.422c15.27 4.4922 35.996 7.457 54.586 1.0859l17.285 18.336" stroke-width=".72322"/>
  <path d="m176.08 61.148v15.184m-1.1875-16.488v17.152m-1.1875-18.688v19.645m-1.1914-21.688v23.176m-1.1875-33.188v35.719m-1.1875-35.305v44.207m-1.1875-43.027v41.961m-1.1914-40.688v38.965m-1.1875-37.582v35.746m-1.1875-34.223v32.227m-1.1875-30.516v28.359m-1.1914-26.332v23.922m-116.11 38.691c-1.168 1.0742-.90626 3.2812-.47657 3.3008m1.4258-7.0898c-1.1641 1.0742-.90625 3.2812-.47656 3.3008m-2.0195-8.9258c1.0703.61328.47656 4.4023.47656 4.4023m-1.1875 1.1016c-.38282.57422-.45703 1.2578-.47656 1.957m-.71485 2.1992c-.38282.57422-.45312 1.2578-.47265 1.957m51.223-54.281c.34375-.3125 3.0937.65625 3.207 1.3437m-3.0898-6.2344c1.4258.36719 2.7344-1.2227 4.3984-1.2227.48828 0 2.6133.98047 2.6133.98047m-4.918.73047c-.43359.33984-.65625 1.0117-.66797 1.7734 0 1.25.77344 2.2617 1.7227 2.2617.95312 0 1.7227-1.0117 1.7227-2.2617 0-.1875-.01563-.37109-.05078-.54688m19.992 21.023h2.3203m-3.9766 1.8359h6m-8.3437 1.832h9.4883m-10.902 1.8359h13.488m-17.078 1.832h19.012m-16.043 1.8359h20.234" stroke-width=".36161"/>
 </g>
 <g fill="#f00">
  <path d="m124.86 154.53c0-.99219-.98829-1.9805-1.9805-1.9805-.98828 0-1.9805.98828-1.9805 2.4727 0 2.4766 3.9609 6.4375 3.9609 7.4258 0-.98828 3.9609-4.9492 3.9609-7.4258 0-1.4844-.98828-2.4727-1.9805-2.4727-.98828 0-1.9805.98828-1.9805 1.9805z"/>
  <path d="m116.66 160.47c0 .99219.98828 1.9805 1.9805 1.9805.98828 0 1.9805-.98828 1.9805-2.4727 0-2.4766-3.9609-6.4375-3.9609-7.4258 0 .98828-3.9609 4.9492-3.9609 7.4258 0 1.4844.98828 2.4727 1.9805 2.4727.98828 0 1.9805-.98828 1.9805-1.9805z"/>
  <path d="m83.672 128.27c-.37109-.64453-1.3867-.91797-2.0273-.54687-.64453.37109-.91797 1.3867-.35938 2.3516.92969 1.6094 4.9883 2.6953 5.3594 3.3398-.37109-.64453.71484-4.7031-.21094-6.3086-.55859-.96484-1.5742-1.2383-2.2188-.86719-.64062.3711-.91406 1.3867-.54297 2.0312z"/>
  <path d="m79.871 120.32c-.37109-.64062-1.3867-.91406-2.0312-.54297-.64453.3711-.91406 1.3867-.35547 2.3516.92578 1.6055 4.9844 2.6953 5.3555 3.3359-.37109-.64062.71875-4.6992-.21094-6.3086-.55859-.96484-1.5703-1.2344-2.2148-.86328-.64453.37109-.91406 1.3867-.54297 2.0273z"/>
  <path d="m75.234 112.38c-.37109-.64453-1.3867-.91406-2.0273-.54297-.64453.3711-.91797 1.3867-.35938 2.3516.92969 1.6055 4.9883 2.6953 5.3594 3.3359-.37109-.64062.71484-4.6992-.21484-6.3086-.55469-.96485-1.5703-1.2344-2.2148-.86328-.64062.37109-.91406 1.3828-.54297 2.0273z"/>
  <path d="m161.7 111.6c-.64453-.37109-1.6562-.10156-2.0273.54297-.3711.64453-.10156 1.6602.86328 2.2148 1.6094.92968 5.668-.16016 6.3125.21093-.64453-.37109-1.7344-4.4258-3.3398-5.3555-.96485-.55859-1.9805-.28515-2.3516.35938-.37109.64062-.10156 1.6562.54297 2.0273z"/>
  <path d="m169.42 123.21c-.64453-.37109-1.6602-.0977-2.0312.54297-.37109.64453-.0977 1.6602.86719 2.2148 1.6055.92968 5.6641-.15625 6.3086.21484-.64454-.37109-1.7305-4.4297-3.3398-5.3594-.96484-.5586-1.9766-.28516-2.3476.35937-.375.64063-.10157 1.6562.54296 2.0273z"/>
  <path d="m181.66 123.21c-.64063-.37109-1.6562-.0977-2.0274.54297-.37109.64453-.10156 1.6602.86328 2.2148 1.6094.92968 5.668-.15625 6.3125.21484-.64453-.37109-1.7305-4.4297-3.3398-5.3594-.96484-.5586-1.9805-.28516-2.3516.35937-.3711.64063-.0977 1.6562.54297 2.0273z"/>
  <path d="m176.43 135.07c-.64453-.3711-1.6602-.10156-2.0312.54297-.37109.64453-.0977 1.6562.86719 2.2148 1.6055.92969 5.668-.16016 6.3086.21094-.64062-.3711-1.7305-4.4297-3.3398-5.3555-.96484-.55859-1.9766-.28516-2.3477.35547-.375.64453-.10156 1.6602.54297 2.0312z"/>
 </g>
 <path d="m48.918 253.85v-15.184m1.1875 16.488v-17.152m1.1875 18.688v-19.645m1.1914 21.688v-23.176m1.1875 33.188v-35.719m1.1875 35.305v-44.207m1.1875 43.027v-41.961m1.1914 40.688v-38.965m1.1875 37.582v-35.746m1.1875 34.223v-32.227m1.1875 30.516v-28.359m1.1914 26.332v-23.922m116.11-38.691c1.168-1.0742.90626-3.2812.47657-3.3008m-1.4258 7.0898c1.1641-1.0742.90625-3.2812.47656-3.3008m2.0195 8.9258c-1.0703-.61328-.47657-4.4024-.47657-4.4024m1.1875-1.1016c.38282-.57422.45704-1.2578.47656-1.957m.71485-2.1992c.38281-.57422.45312-1.2578.47265-1.957m-51.223 54.281c-.34375.3125-3.0938-.65625-3.207-1.3438m3.0898 6.2344c-1.4258-.36719-2.7344 1.2226-4.3984 1.2226-.48828 0-2.6133-.98046-2.6133-.98046m4.918-.73047c.4336-.33985.65625-1.0117.66797-1.7734 0-1.25-.77344-2.2617-1.7226-2.2617-.95313 0-1.7227 1.0117-1.7227 2.2617 0 .1875.0156.37109.0508.54687m-19.992-21.023h-2.3203m3.9766-1.8359h-6m8.3437-1.832h-9.4883m10.902-1.8359h-13.488m17.078-1.832h-19.012m16.043-1.8359h-20.234" fill="none" stroke="#4242ff" stroke-linecap="round" stroke-linejoin="round" stroke-width=".36161"/>
 <g fill="#f00">
  <path d="m100.14 160.47c0 .99219.98828 1.9805 1.9805 1.9805.98829 0 1.9805-.98828 1.9805-2.4727 0-2.4766-3.9609-6.4375-3.9609-7.4258 0 .98828-3.9609 4.9492-3.9609 7.4258 0 1.4844.98828 2.4727 1.9805 2.4727.98828 0 1.9805-.98828 1.9805-1.9805z"/>
  <path d="m108.34 154.53c0-.99219-.98828-1.9805-1.9805-1.9805-.98829 0-1.9805.98828-1.9805 2.4727 0 2.4766 3.9609 6.4375 3.9609 7.4258 0-.98828 3.9609-4.9492 3.9609-7.4258 0-1.4844-.98828-2.4727-1.9805-2.4727-.98828 0-1.9805.98828-1.9805 1.9805z"/>
  <path d="m141.33 186.73c.3711.64453 1.3867.91797 2.0274.54687.64453-.37109.91797-1.3867.35937-2.3516-.92968-1.6094-4.9883-2.6953-5.3594-3.3398.37109.64453-.71485 4.7031.21094 6.3086.55859.96484 1.5742 1.2383 2.2188.86719.64062-.3711.91406-1.3867.54296-2.0312z"/>
  <path d="m145.13 194.68c.37109.64062 1.3867.91406 2.0312.54297.64453-.3711.91406-1.3867.35546-2.3516-.92578-1.6055-4.9844-2.6953-5.3555-3.3359.37109.64062-.71875 4.6992.21093 6.3086.5586.96484 1.5703 1.2344 2.2148.86328s.91406-1.3867.54297-2.0273z"/>
  <path d="m149.77 202.62c.3711.64453 1.3867.91406 2.0274.54297.64453-.3711.91797-1.3867.35937-2.3516-.92968-1.6055-4.9883-2.6953-5.3594-3.3359.37109.64062-.71485 4.6992.21484 6.3086.55469.96485 1.5703 1.2344 2.2148.86328.64062-.37109.91406-1.3828.54296-2.0273z"/>
  <path d="m63.305 203.4c.64453.37109 1.6562.10156 2.0273-.54297.37109-.64453.10156-1.6602-.86328-2.2148-1.6094-.92968-5.668.16016-6.3125-.21093.64453.37109 1.7344 4.4258 3.3398 5.3555.96484.55859 1.9805.28515 2.3516-.35938.37109-.64062.10156-1.6562-.54297-2.0273z"/>
  <path d="m55.578 191.79c.64453.37109 1.6602.0977 2.0312-.54297.37109-.64453.09766-1.6602-.86719-2.2148-1.6055-.92968-5.6641.15625-6.3086-.21484.64453.37109 1.7305 4.4297 3.3398 5.3594.96484.5586 1.9766.28516 2.3477-.35937.375-.64063.10156-1.6562-.54297-2.0273z"/>
  <path d="m43.34 191.79c.64062.37109 1.6562.0977 2.0273-.54297.37109-.64453.10156-1.6602-.86328-2.2148-1.6094-.92968-5.668.15625-6.3125-.21484.64453.37109 1.7305 4.4297 3.3398 5.3594.96484.5586 1.9805.28516 2.3516-.35937.37109-.64063.09766-1.6562-.54297-2.0273z"/>
  <path d="m48.566 179.93c.64453.37109 1.6602.10156 2.0312-.54297s.09766-1.6562-.86719-2.2148c-1.6055-.92969-5.668.16015-6.3086-.21094.64062.37109 1.7305 4.4297 3.3398 5.3555.96484.55859 1.9766.28516 2.3477-.35547.375-.64453.10156-1.6602-.54297-2.0312z"/>
 </g>
 <path d="m21.75 12.449h6m-3 0v21.301c0 3.3125-2.6875 6-6 6s-6-2.6875-6-6v-.89844" fill="none" stroke="#f00" stroke-linecap="square" stroke-miterlimit="1.5" stroke-width="2.4"/>
 <path d="m20.25 52.211c0-2.0898 2.0938-4.1836 4.1836-4.1836s4.1836 2.0938 4.1836 5.2305c0 5.2266-8.3672 13.594-8.3672 15.684 0-2.0898-8.3633-10.457-8.3633-15.684 0-3.1367 2.0898-5.2305 4.1797-5.2305 2.0938 0 4.1836 2.0938 4.1836 4.1836z" fill="#f00"/>
 <path d="m54.523 46.648c0-4.3477 4.3516-8.6992 8.7031-8.6992 4.3477 0 8.6992 4.3516 8.6992 10.875 0 10.875-17.402 28.277-17.402 32.625 0-4.3477-17.398-21.75-17.398-32.625 0-6.5234 4.3516-10.875 8.6992-10.875 4.3516 0 8.6992 4.3516 8.6992 8.6992z" fill="#f00"/>
 <path d="m203.25 302.55h-6m3 0v-21.301c0-3.3125 2.6875-6 6-6s6 2.6875 6 6v.89844" fill="none" stroke="#f00" stroke-linecap="square" stroke-miterlimit="1.5" stroke-width="2.4"/>
 <path d="m204.75 262.79c0 2.0898-2.0938 4.1836-4.1836 4.1836-2.0898 0-4.1836-2.0938-4.1836-5.2305 0-5.2266 8.3672-13.594 8.3672-15.684 0 2.0898 8.3633 10.457 8.3633 15.684 0 3.1367-2.0898 5.2305-4.1797 5.2305-2.0938 0-4.1836-2.0938-4.1836-4.1836z" fill="#f00"/>
 <path d="m170.48 268.35c0 4.3477-4.3516 8.6992-8.7031 8.6992-4.3477 0-8.6992-4.3516-8.6992-10.875 0-10.875 17.402-28.277 17.402-32.625 0 4.3477 17.398 21.75 17.398 32.625 0 6.5234-4.3516 10.875-8.6992 10.875-4.3516 0-8.6992-4.3516-8.6992-8.6992z" fill="#f00"/>
 <path d="m35.25 35.25h154.5v244.5h-154.5z" fill="none" stroke="#4242ff" stroke-width=".9375"/>
</svg>
