<svg width="225px" height="315px" version="1.1" viewBox="0 0 225 315" xmlns="http://www.w3.org/2000/svg">
 <g>
  <path d="m11.719.46875h201.56c6.2148 0 11.25 5.0352 11.25 11.25v291.56c0 6.2148-5.0352 11.25-11.25 11.25h-201.56c-6.2148 0-11.25-5.0352-11.25-11.25v-291.56c0-6.2148 5.0352-11.25 11.25-11.25z" fill="#fff"/>
  <path d="m73.324 35.25c7.2031 11.613 10.836 18.738 13.758 26.879 22.199-2.043 40.406-1.0664 58.324 1.8086 2.5078-7.3555 5.0586-13.488 16.5-28.688zm91.469 9.6055c-1.7852.0078-3.5664 1.0898-3.5664 3.8438 0 2.4414 1.7812 9.8984-.59375 11.613 3.0977 4.9297 3.0742 8.5859.46485 11.184.6289-.92188.36718-2.6602-1.4688-2.8281-2.957-.26953-2.5625 5.7031 1.5976 5.7031 7.75 0 2.9727-15.895 2.9727-26.285.59375 2.4453 4.1602 2.4453 4.1602-.60938 0-1.5586-1.7852-2.6289-3.5664-2.6211zm16.637 13.012c-.0742 0-.14844.0039-.22266.01562.0312 2.0195-.47656 4.0273-1.5898 6.0195.45312.82422 1.1133 1.3008 1.8125 1.3008 1.3125 0 2.3789-1.6445 2.3789-3.668 0-2.0273-1.0664-3.668-2.3789-3.668zm2.3789 3.668c0 1.6875 1.1953 3.0547 2.6719 3.0547s2.6758-1.3672 2.6758-3.0547-1.1992-3.0586-2.6758-3.0586-2.6719 1.3711-2.6719 3.0586zm-5.9297 14.648c-.46875.0039-.92579.12109-1.3438.34375-4.2227 2.1719-6.1914 2.1719-10.414 0-.95312-.50781-2.0938-.44531-2.9922.15625-.89454.60156-1.4062 1.6562-1.3359 2.7539.0664 1.1016.70703 2.0781 1.6719 2.5547 3.3711 1.7344 6.6914 2.3633 10.027 1.8828l-1.5 6.9492c-.42188 1.957-1.1094 3.9375-2.0664 5.9414-1.0391-1.7188-1.8594-3.4219-2.2227-5.2734l-1.3906-7.1055-3.9727 5.9883c-2.1445 3.2266-4.1562 4.9609-6.0312 5.8359-.38281.6875-2.2969 2.6914-3.4336 3.5664l-.39453.03906c.0273.0625.0547.125.082.18751-.0273.0156-.0547.0352-.0781.0508h.0977c6.9219 15.996 22.723 33.066 37.168 45.738v-4.9766c-13.238-11.984-27.098-27.5-33.371-41.352 2.875-.98438 5.6875-3.2617 8.4141-7.3672.79297 4.043 3.0938 7.2031 5.3476 10.391 2.3672-3.6563 3.9609-7.3203 4.7539-11.004 3.3438 6.7227 9.1016 8.6563 14.855 10.602v-.34766c-1.8438-1.2383-3.4609-2.7031-4.6445-4.625-3.1484-1.4219-5.7344-3.3398-7.5664-7.0195l-3.168-6.3711c1.6016-.32031 3.207-.89844 4.8242-1.7305 1.25-.62109 1.918-2.0508 1.6016-3.4453-.3164-1.3906-1.5273-2.375-2.918-2.3633zm-56.926 24.879-2.9453 2.9727c-.41015.77734-1.1641 1.5586-2.0938 2.1133l-19.961 20.07c.97266 3.2227 1.8594 6.5078 2.6562 9.8398 1.8789-2.0234 1.8672-5.2148-.02734-7.2188-.15625-.16406-.32031-.3164-.46094-.48828.16406.15235.30469.32422.46094.48828 1.9453 2.0586 5.1406 2.1055 7.1406.10157 2-2 2.0469-5.2891.10156-7.3438-.16406-.17188-.33594-.33203-.48438-.51563.17188.16016.32032.34375.48438.51563 1.9453 2.0547 5.1406 2.1016 7.1406.10156s2.0469-5.2891.10157-7.3477c-.17188-.17968-.35157-.34765-.51172-.53906.18359.16406.33984.35938.51172.53906 1.9453 2.0586 5.1445 2.1055 7.1445.10547s2.043-5.2891.0977-7.3476c-.17968-.19141-.37109-.36329-.53515-.56641.1914.17187.35547.375.53515.56641 1.1719 1.2383 2.8594 1.7969 4.5156 1.4414.37891-1.9297.79297-3.8633 1.25-5.8008-1.8516-.39062-3.6172-.94531-5.1211-1.6875zm-.74219 13.395c-2 2-2.0469 5.2891-.10156 7.3477.13281.14062.27343.27344.39843.41797-.14062-.12891-.26562-.27735-.39843-.41797-1.9453-2.0586-5.1445-2.1055-7.1445-.10547s-2.043 5.2891-.0977 7.3476c.14062.14844.28906.28907.42187.44922-.14843-.14062-.28125-.30078-.42187-.44922-1.9453-2.0586-5.1445-2.1055-7.1445-.10546-2 2.0039-2.043 5.293-.0977 7.3476.14844.16016.30859.3086.44531.47656-.15625-.14843-.29687-.3164-.44531-.47656-1.8984-2.0078-5.0039-2.1055-7.0156-.23047.80469 3.3867 1.5195 6.8281 2.1289 10.32l21.766-21.914c.36718-3.8086.86718-7.6367 1.5117-11.48-1.4102-.0742-2.793.45703-3.8047 1.4726zm28.758-8.5156-1.4883 2.7578c1.1641 1.1602 2.2266 2.4062 3.1797 3.7109 4.793 6.5586 7.2969 14.789 7.2969 23.516s-2.5039 16.961-7.2969 23.52c-2.8203 3.8594-6.6211 7.2148-11.109 9.3516l5.3516.41016c3.1914-2.1836 5.9375-4.9219 8.1328-7.9258 5.2109-7.1328 7.8945-16.027 7.8945-25.355 0-9.3281-2.6836-18.223-7.8945-25.352-1.1953-1.6406-2.5586-3.1992-4.0664-4.6328zm-24.344 3.6328c-.16016.83203-.3125 1.6719-.45703 2.5195.14453-.83984.29687-1.6797.45703-2.5195zm17.93 10.156c-5.1484 13.539-6.5898 26.055-5.2227 37.773 1.7812-1.1914 3.4102-2.8008 4.7773-4.6719 3.2461-4.4414 5.1524-10.391 5.1524-16.906 0-6.1992-1.7266-11.883-4.707-16.195zm26.992 6.1445v35.293h12.477l1.7852-2.1484v-8.2695l-5.1719-6.5273 4.0195-4.6328-5.1484-5.082-4.3945 5.0664v-9.7031zm-66.469 22.457-1.7383 1.75.51954 3.6953 1.1328-1.168 2.3789 2.4453 2.375-2.4453 2.3789 2.4453 2.375-2.4453 2.375 2.4453 2.3789-2.4453 2.375 2.4453 2.3789-2.4453.26563.27344-.28906-4.5508zm70.035.52734 4.707 5.9453-4.707 4.8438zm-8.3203 9.8633c-2.5078 3.4726-4.8594 7.0703-8.832 9.4023-.28125-.20313-.61328-.32031-.95703-.33594-.56641-.0234-1.1094.23047-1.4648.6836-.35156.45703-.47656 1.0547-.33203 1.6172 1.1562 4.75 1.1523 6.543.0391 9.9805-.28906.84766.0625 1.7852.82813 2.2148.76562.42968 1.7226.22656 2.2578-.48047l8.4609 8.7031c.44531-2.6094.57422-5.4922-2.3789-11.004 3.4961-1.2109 6.3125-3.1992 8.3203-6.1133-1.9805-.8125-4.75-1.6289-8.3203-2.4414 2.6992-4.5234 2.9844-8.4805 2.3789-12.227zm-3.6445 8.8281c-.28516.63281-.60547 1.2773-1.0117 1.957l-1.9609 3.2891 3.6602.83594c1.5.34375 2.8125.6836 4.0039 1.0195-1.2188.9336-2.6289 1.6719-4.2773 2.2461l-3.0312 1.0508 1.543 2.8828c.375.70313.6875 1.332.95703 1.918l-2.8086-2.8906c-.30079-.3164-.65625-.54296-1.0352-.67578.58203-2.6602.51172-5.1641-.19141-8.5156.0977-.043.19532-.0937.28907-.15235 1.4805-.87109 2.7383-1.8867 3.8633-2.9648zm28.602 25.109c-7.5352 6.5976-16.195 11.918-25.422 16.676l2.6602 2.7422c8.0898-4.2305 15.805-8.9531 22.762-14.664z" fill="#ffcc42"/>
  <path d="m151.68 279.75c-7.2031-11.613-10.836-18.738-13.758-26.879-22.199 2.043-40.406 1.0664-58.324-1.8086-2.5078 7.3555-5.0586 13.488-16.5 28.688zm-91.469-9.6055c1.7852-.008 3.5664-1.0898 3.5664-3.8438 0-2.4414-1.7812-9.8984.59375-11.613-3.0977-4.9297-3.0742-8.5859-.46484-11.184-.62891.92187-.36719 2.6602 1.4688 2.8281 2.957.26953 2.5625-5.7031-1.5977-5.7031-7.75 0-2.9727 15.895-2.9727 26.285-.59375-2.4453-4.1602-2.4453-4.1602.60938 0 1.5586 1.7852 2.6289 3.5664 2.6211zm-16.637-13.012c.07422 0 .14844-.004.22266-.0156-.03125-2.0195.47656-4.0274 1.5898-6.0195-.45312-.82422-1.1133-1.3008-1.8125-1.3008-1.3125 0-2.3789 1.6445-2.3789 3.668 0 2.0274 1.0664 3.668 2.3789 3.668zm-2.3789-3.668c0-1.6875-1.1953-3.0547-2.6719-3.0547-1.4766 0-2.6758 1.3672-2.6758 3.0547s1.1992 3.0586 2.6758 3.0586c1.4766 0 2.6719-1.3711 2.6719-3.0586zm5.9297-14.648c.46875-.004.92578-.1211 1.3438-.34375 4.2227-2.1719 6.1914-2.1719 10.414 0 .95312.50781 2.0938.44531 2.9922-.15625.89453-.60157 1.4062-1.6562 1.3359-2.7539-.06641-1.1016-.70703-2.0781-1.6719-2.5547-3.3711-1.7344-6.6914-2.3633-10.027-1.8828l1.5-6.9492c.42188-1.957 1.1094-3.9375 2.0664-5.9414 1.0391 1.7188 1.8594 3.4219 2.2227 5.2734l1.3906 7.1055 3.9727-5.9883c2.1445-3.2266 4.1562-4.9609 6.0312-5.8359.38281-.6875 2.2969-2.6914 3.4336-3.5664l.39453-.0391c-.02734-.0625-.05469-.125-.08203-.1875.02734-.0156.05469-.0352.07813-.0508h-.09766c-6.9219-15.996-22.723-33.066-37.168-45.738v4.9766c13.238 11.984 27.098 27.5 33.371 41.352-2.875.98437-5.6875 3.2617-8.4141 7.3672-.79297-4.043-3.0938-7.2031-5.3477-10.391-2.3672 3.6562-3.9609 7.3203-4.7539 11.004-3.3438-6.7226-9.1016-8.6562-14.855-10.602v.34766c1.8438 1.2383 3.4609 2.7031 4.6445 4.625 3.1484 1.4219 5.7344 3.3398 7.5664 7.0195l3.168 6.3711c-1.6016.32032-3.207.89844-4.8242 1.7305-1.25.6211-1.918 2.0508-1.6016 3.4453.31641 1.3906 1.5273 2.375 2.918 2.3633zm56.926-24.879 2.9453-2.9727c.41015-.77734 1.1641-1.5586 2.0938-2.1133l19.961-20.07c-.97265-3.2227-1.8594-6.5078-2.6562-9.8398-1.8789 2.0234-1.8672 5.2148.0273 7.2188.15625.16406.32031.3164.46094.48828-.16407-.15235-.30469-.32422-.46094-.48828-1.9453-2.0586-5.1406-2.1055-7.1406-.10157-2 2-2.0469 5.2891-.10156 7.3438.16406.17188.33594.33203.48438.51563-.17188-.16016-.32032-.34375-.48438-.51563-1.9453-2.0547-5.1406-2.1016-7.1406-.10156s-2.0469 5.2891-.10157 7.3477c.17188.17968.35157.34765.51172.53906-.18359-.16406-.33984-.35938-.51172-.53906-1.9453-2.0586-5.1445-2.1055-7.1445-.10547s-2.043 5.2891-.0977 7.3476c.17968.19141.37109.36329.53515.56641-.1914-.17187-.35547-.375-.53515-.56641-1.1719-1.2383-2.8594-1.7969-4.5156-1.4414-.3789 1.9297-.79297 3.8633-1.25 5.8008 1.8516.39062 3.6172.94531 5.1211 1.6875zm.74218-13.395c2-2 2.0469-5.2891.10157-7.3477-.13282-.14062-.27344-.27344-.39844-.41797.14062.12891.26562.27735.39844.41797 1.9453 2.0586 5.1445 2.1055 7.1445.10547s2.043-5.2891.0977-7.3477c-.14062-.14843-.28906-.28906-.42187-.44921.14844.14062.28125.30078.42187.44921 1.9453 2.0586 5.1445 2.1055 7.1445.10547 2-2.0039 2.043-5.293.0977-7.3476-.14844-.16016-.30859-.3086-.44531-.47657.15625.14844.29687.31641.44531.47657 1.8984 2.0078 5.0039 2.1055 7.0156.23047-.80469-3.3867-1.5195-6.8281-2.1289-10.32l-21.766 21.914c-.36718 3.8086-.86718 7.6367-1.5117 11.48 1.4102.0742 2.793-.45703 3.8047-1.4726zm-28.758 8.5156 1.4883-2.7578c-1.1641-1.1602-2.2266-2.4062-3.1797-3.7109-4.793-6.5586-7.2969-14.789-7.2969-23.516s2.5039-16.961 7.2969-23.52c2.8203-3.8594 6.6211-7.2148 11.109-9.3516l-5.3516-.41015c-3.1914 2.1836-5.9375 4.9219-8.1328 7.9258-5.2109 7.1328-7.8945 16.027-7.8945 25.355 0 9.3281 2.6836 18.223 7.8945 25.352 1.1953 1.6406 2.5586 3.1992 4.0664 4.6328zm24.344-3.6328c.16016-.83203.3125-1.6719.45703-2.5195-.14453.83984-.29687 1.6797-.45703 2.5195zm-17.93-10.156c5.1484-13.539 6.5898-26.055 5.2227-37.773-1.7812 1.1914-3.4102 2.8008-4.7773 4.6719-3.2461 4.4414-5.1523 10.391-5.1523 16.906 0 6.1992 1.7266 11.883 4.707 16.195zm-26.992-6.1445v-35.293h-12.477l-1.7852 2.1484v8.2695l5.1719 6.5273-4.0195 4.6328 5.1484 5.082 4.3945-5.0664v9.7031zm66.469-22.457 1.7383-1.75-.51953-3.6953-1.1328 1.168-2.3789-2.4453-2.375 2.4453-2.3789-2.4453-2.375 2.4453-2.375-2.4453-2.3789 2.4453-2.375-2.4453-2.3789 2.4453-.26563-.27343.28907 4.5508zm-70.035-.52735-4.707-5.9453 4.707-4.8438zm8.3203-9.8633c2.5078-3.4726 4.8594-7.0703 8.832-9.4023.28125.20312.61328.32031.95703.33594.56641.0234 1.1094-.23047 1.4648-.6836.35156-.45703.47656-1.0547.33203-1.6172-1.1562-4.75-1.1523-6.543-.03906-9.9805.28906-.84766-.0625-1.7852-.82812-2.2148-.76562-.42968-1.7227-.22656-2.2578.48047l-8.4609-8.7031c-.44531 2.6094-.57422 5.4922 2.3789 11.004-3.4961 1.2109-6.3125 3.1992-8.3203 6.1133 1.9805.8125 4.75 1.6289 8.3203 2.4414-2.6992 4.5234-2.9844 8.4805-2.3789 12.227zm3.6445-8.8281c.28516-.63281.60547-1.2774 1.0117-1.957l1.9609-3.2891-3.6602-.83593c-1.5-.34375-2.8125-.6836-4.0039-1.0195 1.2188-.9336 2.6289-1.6719 4.2773-2.2461l3.0312-1.0508-1.543-2.8828c-.375-.70313-.6875-1.332-.95703-1.918l2.8086 2.8906c.30078.31641.65625.54297 1.0352.67579-.58203 2.6602-.51172 5.1641.19141 8.5156-.09766.043-.19531.0937-.28906.15234-1.4805.8711-2.7383 1.8867-3.8633 2.9648zm-28.602-25.109c7.5352-6.5976 16.195-11.918 25.422-16.676l-2.6602-2.7422c-8.0898 4.2305-15.805 8.9531-22.762 14.664z" fill="#ffcc42"/>
  <path d="m114.54 42.66c-.92578.92969-2.0586 1.7148-3.3477 2.2656-.58984 2.7266-1.7266 5.0625-3.2266 6.9648-6.8711.05078-14.047.40234-21.574 1.0938-.73438-.84766-1.3711-1.7539-1.8477-2.6758-.95703-1.8633-1.4023-3.5391-1.8047-4.9727-1.7773-.46094-3.3711-1.3828-4.832-2.4727 3.457 5.9609 5.8203 10.715 7.7969 15.617 23.277-2.125 42.301-1.0977 60.984 1.8984 1.7734-4.6484 4.1445-9.4492 9.4062-17.074-2.125 1.1133-4.7969 2.0586-8.3438 2.7148-.33593 3.207-1.4102 5.9414-3.2656 7.9805-.15235.16406-.3086.32812-.46485.48047l-24.242-1.7422 24.145 1.6875c-7.8438-1.1602-15.812-1.9648-24.125-2.3203-1.1133-1.9531-1.8945-4.2422-2.1719-6.8164-1.2188-.69141-2.2656-1.6016-3.0859-2.6289zm50.258 34.766c-.98438 0-1.7852.82031-1.7852 1.8359 0 1.0117.80078 1.832 1.7852 1.832.98437 0 1.7812-.82031 1.7812-1.832 0-1.0156-.79688-1.8359-1.7812-1.8359zm13.074 0c-.98828 0-1.7852.82031-1.7852 1.8359 0 1.0117.79688 1.832 1.7852 1.832.98437 0 1.7812-.82031 1.7812-1.832 0-1.0156-.79688-1.8359-1.7812-1.8359zm-6.5391 1.8359c-.98437 0-1.7812.82031-1.7812 1.832s.79688 1.832 1.7812 1.832c.98438 0 1.7852-.82031 1.7852-1.832s-.80078-1.832-1.7852-1.832zm-47.301 22.98-2.0273 2.0625c.0977.23828.24609.46875.44141.67578.82422.87109 2.0898.89062 2.9414.0391.0898-.0898.17188-.1875.2461-.28906l.40234-1.9844zm-23.762.5625c-1.5742 1.3867-3.5 2.3672-5.4727 2.9922-1.8711.58984-3.8477.94921-5.832 1.2226 2.2383 5.207 4.2344 10.52 5.9922 15.973l13.234-13.316c-2.8086-.99609-5.5898-3.2305-7.9219-6.8711zm-5.3125 20.188h-.0039l.02344.0625c-.0078-.0234-.01563-.043-.01953-.0625zm22.602-14.219-2.7852 2.8086c.10156.22656.24219.44531.42578.64063.82813.87109 2.0938.89062 2.9414.043.85156-.85157.86719-2.1524.043-3.0274-.1875-.19922-.39844-.35156-.625-.46484zm5.9844 7.2578c-.44922.0469-.89453.25-1.2578.61719-.84766.84765-.86719 2.1523-.043 3.0234.0898.0937.30078.23828.48438.35546zm-13.195.004-2.8008 2.8242c.0977.21484.23437.42187.41016.60546.82812.875 2.0938.89063 2.9414.043.84766-.84765.86719-2.1523.043-3.0234-.17969-.19141-.37891-.33985-.59375-.44922zm79.406 3.5703-20.305.0117c6.1406 7.5508 13.309 14.867 20.305 21.199zm-73.234 3.6602c-.52344-.008-1.0547.19921-1.4766.625-.85156.84765-.86718 2.1523-.043 3.0234.14844.15625.3086.28516.47657.38672l2.8594-2.8789c-.0937-.17188-.21094-.33594-.35156-.48829-.41406-.4375-.9375-.66015-1.4648-.66796zm-13.379.0312-2.8203 2.8398c.0977.20312.23047.39844.39453.57422.82422.87109 2.0938.89062 2.9414.043.84766-.85157.86719-2.1524.043-3.0274-.17187-.17968-.35937-.32422-.55859-.42968zm39.363 1.914c-1.4453.45312-2.4023 1.8594-2.4023 3.4414 0 2.0274 1.5469 3.668 3.4531 3.668.26563 0 .53125-.0312.80469.0156-.0703.10547-.16016.10156-.25.10156-1.9102 0-3.457 1.6445-3.457 3.668 0 2.0273 1.5469 3.668 3.457 3.668.0703 0 .14453-.004.19922.15234-.30078.0781-.59375.0352-.89063.0352-1.9062 0-3.4531 1.6445-3.4531 3.668 0 1.3125.66015 2.5039 1.6914 3.1602-.38672-.14844-.79297-.22656-1.2031-.22656-1.9102 0-3.457 1.6406-3.457 3.668 0 1.1289.49218 2.1953 1.3711 2.8633 3.9102-4.082 6.2266-10.406 6.2266-17.168 0-3.7578-.71875-7.4375-2.0898-10.715zm-20.371 3.9336-18.992 19.129 18.844.043c-.32422-6.3047-.28516-12.695.14844-19.172zm51.012.61719-.0273 9.6367 4.3906-5.0391c-1.4688-1.6445-2.9141-3.1641-4.3633-4.5976zm-63.867.75c-.52344-.008-1.0547.19922-1.4805.62109-.84766.85156-.86328 2.1524-.0391 3.0274.15625.16406.32812.30078.50781.40234l2.8438-2.8633c-.0937-.1875-.21875-.35938-.37109-.52344-.41016-.43359-.9336-.65625-1.4609-.66406zm-7.2422 7.2422c-.52734-.008-1.0547.19921-1.4805.625-.84766.84765-.86719 2.1523-.0391 3.0234.16406.17578.34766.31641.53906.42188l2.8281-2.8477c-.0937-.19922-.22266-.38672-.38672-.55469-.41016-.4375-.9336-.66015-1.4609-.66796zm80.625 1.8359-4.0195 4.6328 5.1719 6.5273v-10.078zm3.5039 3.1289.0391 18.449h3.5507v-15.371c-1.1953-1.043-2.3945-2.0898-3.5898-3.0781zm-13.047 6.1406v10.789l4.707-4.8438zm10.695 10.215-2.1016 2.0938h2.1133zm5.9414 2.0938-24.711.0312c.11719 3.0391-.51953 6.2226-2.625 9.75 3.5703.8125 6.3398 1.6289 8.3203 2.4414-.5.73047-1.0508 1.3984-1.7148 2.0703 8.1367-1.7734 15.508-8.6211 20.73-13.309zm-.20703 20.121-5.7109 4.3867 3.9414 5.2734-3.4258 2.3984-1.6484-1.9414.36719-.27344.9414 1.2188 2.7852-1.832-3.543-4.457-5.7188 4.2617 3.6719 5.3476-3.5273 2.2266-1.5586-2.0195.3789-.25391.88672 1.2617 2.8633-1.6953-3.3398-4.625-5.8398 4.0078 3.4102 5.5625-3.6406 2.0078-1.4453-2.1094.39454-.23047.8125 1.3125 2.957-1.5195-3.0703-4.8203-6.0938 3.6719 3.4297 5.5976-3.6406 2.0117-1.4414-2.1094.39063-.23438.8125 1.3125 2.957-1.5195-3.0625-4.8047-5.875 3.3594.95312 1.1328 4.457-2.5469 1.457 2.2852-.375.19141-.85156-1.375-2.9336 1.7227 3.0742 4.4922 6.1016-3.3672-3.4609-5.6484 3.6524-2.1992 1.4453 2.2734-.3711.1914-.85156-1.3789-2.9336 1.7266 3.0703 4.4922 6.1055-3.3711-3.4844-5.6836 3.5547-2.4375 1.5742 2.1797-.35937.21484-.92969-1.3242-2.832 1.8984 3.3242 4.3008 5.8984-3.7305-3.7344-5.4375 3.4883-2.6016 1.6719 2.1094-.34765.23047-.98828-1.2773-2.7422 2.0312 3.5117 4.1367 5.6445-3.9531v-.15234l-3.9062-5.2266 3.4609-2.6562.44531.5625v-2.3203zm.0898 3.0664-2.7422 2.0352 2.8594 3.3594v-2.2266l-.75391-.88672.36719-.27344.38672.5v-2.3555z" fill="#f00"/>
  <path d="m110.46 272.34c.92579-.92968 2.0586-1.7148 3.3477-2.2656.58984-2.7266 1.7266-5.0625 3.2266-6.9648 6.8711-.0508 14.047-.40234 21.574-1.0938.73438.84766 1.3711 1.7539 1.8477 2.6758.95703 1.8633 1.4023 3.5391 1.8047 4.9726 1.7774.46094 3.3711 1.3828 4.832 2.4727-3.457-5.9609-5.8203-10.715-7.7969-15.617-23.277 2.125-42.301 1.0977-60.984-1.8984-1.7734 4.6484-4.1445 9.4492-9.4062 17.074 2.125-1.1133 4.7969-2.0586 8.3438-2.7148.33594-3.207 1.4102-5.9414 3.2656-7.9805.15234-.16406.30859-.32813.46484-.48047l24.242 1.7422-24.145-1.6875c7.8438 1.1602 15.812 1.9648 24.125 2.3203 1.1133 1.9531 1.8945 4.2422 2.1719 6.8164 1.2188.6914 2.2656 1.6016 3.0859 2.6289zm-50.258-34.766c.98438 0 1.7852-.82031 1.7852-1.8359 0-1.0117-.80078-1.832-1.7852-1.832s-1.7812.82031-1.7812 1.832c0 1.0156.79688 1.8359 1.7812 1.8359zm-13.074 0c.98828 0 1.7852-.82031 1.7852-1.8359 0-1.0117-.79688-1.832-1.7852-1.832-.98437 0-1.7812.82031-1.7812 1.832 0 1.0156.79688 1.8359 1.7812 1.8359zm6.5391-1.8359c.98438 0 1.7812-.82031 1.7812-1.832s-.79688-1.832-1.7812-1.832-1.7852.82031-1.7852 1.832.80078 1.832 1.7852 1.832zm47.301-22.98 2.0273-2.0625c-.0977-.23828-.24609-.46875-.44141-.67578-.82421-.87109-2.0898-.89062-2.9414-.0391-.08984.0898-.17188.1875-.24609.28906l-.40234 1.9844zm23.762-.5625c1.5742-1.3867 3.5-2.3672 5.4726-2.9922 1.8711-.58984 3.8477-.94921 5.832-1.2226-2.2383-5.207-4.2344-10.52-5.9922-15.973l-13.234 13.316c2.8086.99609 5.5898 3.2305 7.9219 6.8711zm5.3125-20.188h.004l-.0234-.0625c.008.0234.0156.043.0195.0625zm-22.602 14.219 2.7852-2.8086c-.10156-.22656-.24219-.44531-.42578-.64063-.82813-.87109-2.0938-.89062-2.9414-.043-.85156.85157-.86719 2.1524-.043 3.0274.1875.19922.39844.35156.625.46484zm-5.9844-7.2578c.44922-.0469.89453-.25 1.2578-.61719.84766-.84765.86719-2.1523.043-3.0234-.0898-.0937-.30078-.23828-.48438-.35546zm13.195-.004 2.8008-2.8242c-.0977-.21484-.23437-.42187-.41015-.60546-.82813-.875-2.0938-.89063-2.9414-.043-.84766.84765-.86719 2.1523-.043 3.0234.17969.19141.37891.33985.59375.44922zm-79.406-3.5702 20.305-.01172c-6.1406-7.5508-13.309-14.867-20.305-21.199zm73.234-3.6602c.52343.008 1.0547-.19921 1.4766-.625.85156-.84765.86719-2.1523.043-3.0234-.14844-.15625-.3086-.28516-.47657-.38672l-2.8594 2.8789c.0937.17188.21094.33594.35156.48829.41406.4375.9375.66015 1.4648.66796zm13.379-.0312 2.8203-2.8398c-.0977-.20312-.23046-.39844-.39453-.57422-.82422-.87109-2.0938-.89062-2.9414-.043-.84766.85157-.86719 2.1524-.043 3.0274.17187.17968.35937.32422.55859.42968zm-39.363-1.9141c1.4453-.45312 2.4023-1.8594 2.4023-3.4414 0-2.0274-1.5469-3.668-3.4531-3.668-.26562 0-.53125.0312-.80469-.0156.07031-.10547.16016-.10156.25-.10156 1.9102 0 3.457-1.6445 3.457-3.668 0-2.0273-1.5469-3.668-3.457-3.668-.07031 0-.14453.004-.19922-.15234.30078-.0781.59375-.0352.89063-.0352 1.9062 0 3.4531-1.6445 3.4531-3.668 0-1.3125-.66016-2.5039-1.6914-3.1602.38672.14843.79297.22656 1.2031.22656 1.9102 0 3.457-1.6406 3.457-3.668 0-1.1289-.49219-2.1953-1.3711-2.8633-3.9102 4.082-6.2266 10.406-6.2266 17.168 0 3.7578.71875 7.4375 2.0898 10.715zm20.371-3.9336 18.992-19.129-18.844-.043c.32422 6.3047.28516 12.695-.14844 19.172zm-51.012-.61719.02734-9.6367-4.3906 5.0391c1.4688 1.6445 2.9141 3.1641 4.3633 4.5977zm63.867-.75c.52344.008 1.0547-.19922 1.4805-.62109.84766-.85157.86328-2.1524.0391-3.0274-.15625-.16406-.32812-.30078-.50781-.40234l-2.8438 2.8633c.0937.1875.21875.35938.3711.52344.41015.43359.93359.65625 1.4609.66406zm7.2422-7.2422c.52734.008 1.0547-.19922 1.4805-.625.84766-.84765.86719-2.1523.0391-3.0234-.16406-.17579-.34765-.31641-.53906-.42188l-2.8281 2.8477c.0937.19922.22266.38672.38672.55468.41016.4375.9336.66016 1.4609.66797zm-80.625-1.8359 4.0195-4.6328-5.1719-6.5273v10.078zm-3.5039-3.1289-.03906-18.449h-3.5508v15.371c1.1953 1.043 2.3945 2.0898 3.5898 3.0781zm13.047-6.1406v-10.789l-4.707 4.8438zm-10.695-10.215 2.1016-2.0938h-2.1133zm-5.9414-2.0938 24.711-.0312c-.11719-3.0391.51953-6.2227 2.625-9.75-3.5703-.8125-6.3398-1.6289-8.3203-2.4414.5-.73046 1.0508-1.3984 1.7148-2.0703-8.1367 1.7734-15.508 8.6211-20.73 13.309zm.20703-20.121 5.7109-4.3867-3.9414-5.2734 3.4258-2.3984 1.6484 1.9414-.36719.27344-.94141-1.2188-2.7852 1.832 3.543 4.457 5.7188-4.2617-3.6719-5.3476 3.5273-2.2266 1.5586 2.0195-.37891.25391-.88672-1.2617-2.8633 1.6953 3.3398 4.625 5.8398-4.0078-3.4102-5.5625 3.6406-2.0078 1.4453 2.1094-.39453.23047-.8125-1.3125-2.957 1.5195 3.0703 4.8203 6.0938-3.6719-3.4297-5.5976 3.6406-2.0117 1.4414 2.1094-.39062.23438-.8125-1.3125-2.957 1.5195 3.0625 4.8047 5.875-3.3594-.95312-1.1328-4.457 2.5469-1.457-2.2852.375-.19141.85156 1.375 2.9336-1.7227-3.0742-4.4922-6.1016 3.3672 3.4609 5.6484-3.6523 2.1992-1.4453-2.2734.37109-.1914.85156 1.3789 2.9336-1.7266-3.0703-4.4922-6.1055 3.3711 3.4844 5.6836-3.5547 2.4375-1.5742-2.1797.35938-.21484.92969 1.3242 2.832-1.8984-3.3242-4.3008-5.8984 3.7305 3.7344 5.4375-3.4883 2.6016-1.6719-2.1094.34766-.23047.98828 1.2773 2.7422-2.0312-3.5117-4.1367-5.6445 3.9531v.15234l3.9062 5.2266-3.4609 2.6562-.44531-.5625v2.3203zm-.08984-3.0664 2.7422-2.0352-2.8594-3.3594v2.2266l.75391.88672-.36719.27344-.38672-.5v2.3555z" fill="#f00"/>
  <path d="m106.93 69.129c-.65625 0-1.1914.91016-1.1914 2.0352 0 1.1211.53515 2.0352 1.1914 2.0352s1.1875-.91406 1.1875-2.0352c0-1.125-.53125-2.0352-1.1875-2.0352zm-14.637.14844c-.65625 0-1.1875.91406-1.1875 2.0352 0 1.125.53125 2.0352 1.1875 2.0352s1.1875-.91016 1.1875-2.0352c0-1.1211-.53125-2.0352-1.1875-2.0352zm85.578 2.6367c-1.8633 1.4492-4.5 2.457-6.5469 2.457-1.9375 0-3.875-1.082-5.2539-2.0898l.19531 4.3164c4.0742 2.1016 6.043 2.1016 10.266-.07031.41796-.22266.875-.33984 1.3359-.34375zm-79.637 14.68c-1.1875 1.2227-2.9258 1.6094-3.0391 1.7617l-.52734.68359c1.0508-1.3672 6.8789-.63281 10.551-1.0078l-1.043-.21484c-1.1875 0-2.375-1.2227-2.375-1.2227s-.80078 1.2227-1.9883 1.2227c-1.5781 0-1.5781-1.2227-1.5781-1.2227zm6.9844 1.4375 1.9297.39844-.59375-.61328c-.39453.09766-.84765.16406-1.3359.21484zm69.672 3.4531c-.79297 3.6836-2.3867 7.3477-4.7539 11.004-2.2539-3.1875-4.5547-6.3477-5.3476-10.391-2.7227 4.0977-5.5312 6.3789-8.4141 7.3555 2.9492 6.5234 7.5859 13.422 13.055 20.148h20.316v-17.516c-5.7539-1.9453-11.512-3.8789-14.855-10.602zm-22.414 8.332c-.6875 1.1211-1.3477 2.2383-1.9922 3.3789 1.8398 1.7227 3.4922 3.582 4.9219 5.543 5.6289 7.7031 8.4922 17.258 8.4922 27.188s-2.8633 19.488-8.4922 27.191c-.39454.54297-.8086 1.0781-1.2305 1.6211.32031.004.6289-.0156.9414-.004.17578.008.33985.0352.50782.0547 2.6211-1.9688 4.5234-4.7656 6.7773-7.8867l2.3867 1.8203c.125.76953.21094 1.5508.24219 2.3945l4.4961.0508.0781-35.371c-7.1914-8.4609-13.453-17.383-17.129-25.98zm-8.4492 3.2539c-.22266.008-.42578.14063-.51953.35157-.14063.30468-.0117.66796.28515.8125.29688.14062.65235.0117.79297-.29688.13672-.30469.008-.66797-.28906-.8125-.082-.0391-.17578-.0586-.26953-.0547zm-14.086 1.0586c-.28906-.004-.53906.20703-.58984.5-.0586.33203.15625.65234.47656.71093.32422.0625.63281-.16015.69141-.49218s-.15625-.64844-.47657-.71094c-.0352-.004-.0664-.008-.10156-.008zm11.465.3789c-.22657.008-.42579.14063-.51954.35157-.14062.30468-.0117.66796.28516.8125.29688.14062.65234.0117.78906-.29688.14063-.30469.0117-.66797-.28515-.8125-.0859-.0391-.17578-.0586-.26953-.0547zm-7.957.27735c-.28906-.004-.53906.21093-.58984.5039-.0586.33203.15625.64844.47656.71094.32422.0586.63282-.16016.69141-.49219.0586-.33203-.15625-.65234-.47656-.71093-.0352-.008-.0664-.0117-.10157-.0117zm-1.8672.88281-2.4453 7 1.4883-1.5859.15625 2.5156.73828-2.4414 1.125 2.168zm13.051.39062c-.22266.008-.42188.14454-.51563.35547-.14062.30469-.0117.66797.28516.8125.29687.14063.65234.008.78906-.29687.14063-.30469.0117-.66797-.28515-.8125-.0859-.0391-.17969-.0586-.27344-.0586zm-1.8438.39063-4.1016 6.125 1.832-1.1445-.46875 2.4766 1.3203-2.168.54687 2.3906zm-19.938 3.3516c.0937.67578.0859 1.3633-.0312 2.0391.46484-.0703.9375-.0859 1.4023-.0469l.34766-1.9297c-.57031.0586-1.1523.0391-1.7188-.0625zm11.035 6.2852c-.26562.008-.49609.19922-.55859.46484-.0781.32813.11719.66016.4375.73828.31641.082.64063-.11718.71875-.44531.0781-.32812-.11719-.66016-.4375-.74219-.0508-.0117-.10547-.0195-.16016-.0156zm-18.281.95703c.0977.67969.0859 1.3672-.0273 2.0391.66016-.0977 1.3281-.0859 1.9844.0312-.0977-.67969-.0859-1.3672.0273-2.0391-.66016.0977-1.3281.0859-1.9844-.0312zm15.984.98047c-.26563.008-.49609.19531-.55859.46484-.0781.32813.11718.65625.43359.73828.32031.082.64062-.12109.71875-.44922.0781-.32812-.11719-.65625-.43359-.73828-.0547-.0117-.10547-.0195-.16016-.0156zm3.4609.875c-.26563.008-.4961.19922-.5586.46484-.0781.32813.11719.65625.4336.73828.32031.082.64062-.12109.72265-.44531.0781-.32812-.11718-.66016-.4375-.74219-.0508-.0117-.10547-.0195-.16015-.0156zm-1.8555.76562-2.8555 6.832 1.5781-1.4883.0117 2.5195.88282-2.3906.98828 2.2344zm-24.832 4.625c.0977.67578.0859 1.3633-.0273 2.0391.65625-.10157 1.3281-.0898 1.9805.0273-.0937-.67578-.082-1.3672.0312-2.0391-.66015.0977-1.3281.0898-1.9844-.0273zm17.586 6.3398c-.3125-.0156-.58204.21875-.61719.53515-.0391.33594.1914.64063.51953.67969.32422.0391.62109-.19922.66016-.53516.0391-.33203-.19532-.63672-.51954-.67968h-.043zm13.121.27734c-1.3047 5.3984-2.0039 10.59-2.1719 15.629l.0234.0625c.51172-.54688 1.1328-.97657 1.8281-1.2461-.1836-.54687-.28125-1.125-.28125-1.7226 0-1.6524.7539-3.1445 1.9258-4.1016-.76953-.92187-1.2344-2.1211-1.2344-3.4219 0-1.3086.47266-2.5195 1.2539-3.4453-.5586-.48829-1.0156-1.1016-1.3438-1.7539zm-37.949.625c.0937.67578.0859 1.3633-.0273 2.0391.65625-.0977 1.3281-.0898 1.9805.0273-.0937-.67579-.0859-1.3633.0273-2.0391-.65625.0977-1.3242.0898-1.9805-.0273zm32.742.33203c-.28907.0156-.52735.24609-.5625.53906-.0352.33594.19531.64063.51953.67969.32812.0391.625-.19922.66406-.53516.0391-.33593-.19531-.63671-.51953-.67968-.0156 0-.0312 0-.043-.004h-.0586zm-10.023.97266c-.28906.0156-.52734.24609-.5625.53906-.0352.33594.19531.64062.52344.67969.32422.0391.62109-.19922.66015-.53516.0391-.33594-.19531-.63672-.51953-.67969-.0156 0-.0312 0-.043-.004h-.0586zm3.582.4375c-.0156-.004-.0273 0-.043 0-.28906.0156-.52343.24218-.55859.53515-.0391.33594.19141.64063.51953.67969.32422.043.62109-.19922.66016-.53125.0391-.33594-.19532-.64062-.51953-.67969-.0195-.004-.0391-.004-.0586-.004zm4.3867.80078c-.28906.0156-.52344.24219-.55859.53906-.0391.33594.19531.64063.51953.67969.32812.0391.62109-.19922.66015-.53516.0391-.33594-.1914-.64062-.51953-.67969-.0117 0-.0273-.004-.0391-.004h-.0625zm-6.2383.19922-2.0273 7.1367 1.3906-1.6758.30859 2.5.59375-2.4805 1.25 2.0898zm9.8203.23437c-.0117 0-.0273 0-.0391.004-.28906.0117-.52735.24219-.5586.53515-.0391.33594.19141.64063.51954.67969.32421.0391.62109-.19922.66015-.53515.0391-.33204-.19531-.63672-.51953-.67969-.0195 0-.043-.004-.0625-.004zm-1.8516 1.0039-2.0234 7.1367 1.3906-1.6758.30859 2.5.59375-2.4805 1.2461 2.0898zm-4.4062 10.375c-.32813 0-.59375.27344-.59375.60937 0 .33985.26562.61328.59375.61328.32812 0 .59765-.27343.59765-.61328 0-.33593-.26953-.60937-.59765-.60937zm-1.7812 2.4453c-.32813 0-.59375.27344-.59375.60938 0 .33984.26562.61328.59375.61328.32812 0 .59375-.27344.59375-.61328 0-.33594-.26563-.60938-.59375-.60938zm3.5664 0c-.32812 0-.59375.27344-.59375.60938 0 .33984.26563.61328.59375.61328.32813 0 .59375-.27344.59375-.61328 0-.33594-.26562-.60938-.59375-.60938zm-1.7852 1.2227-1.1875 7.3359 1.1875-1.8359.59765 2.4453.30079-2.5352 1.4805 1.9258zm4.8945 10.406c-.0195-.004-.0391-.004-.0586 0-.32813.0195-.57813.30859-.5586.64453.0195.33594.29688.59375.625.57422.32813-.0195.57813-.3086.5586-.64453-.0156-.3125-.26172-.5625-.56641-.57422zm-8.3789.36328c-.0391 0-.0781.004-.11718.0117-.32422.0586-.53907.375-.48438.70703.0586.33203.36719.55469.69141.49609.32031-.0586.53906-.375.48047-.70703-.0508-.28906-.28907-.5-.57032-.50781zm64.098 1.8867c-5.2891 4.6875-12.629 11.484-20.746 13.27-1.7539 1.7852-3.9844 3.1211-6.5898 4.0234 2.9531 5.5117 2.8242 8.3945 2.3789 11.004l-8.4609-8.7031c-.44922.59765-1.2305.86718-1.9688.61328-.62891-.21485-1.0625-.75391-1.1836-1.375-1.6367.55859-5.1562 1.7656-7.5312 2.5664 2.5469 4.8945 5.5742 9.6328 9 14.203 12.988-7.0664 25.227-14.359 35.102-23.625zm-36.57 18.832c.0234-.008.0703-.0234.0898-.0312l-.10937-.0742c.008.0352.0117.0703.0195.10547zm-17.23-18.75h-.0586c-.32812.0195-.57812.30859-.5625.64844.0195.33593.30079.59375.62891.57421.32813-.0195.57813-.30859.55859-.64453-.0156-.3164-.26171-.5625-.5664-.57812zm-8.1289.12109c-.0391 0-.0781.004-.11718.008-.32422.0586-.53907.37891-.48047.71094.0547.33203.36328.55469.6875.4961.32421-.0586.53906-.37891.48046-.71094-.0469-.28516-.28515-.4961-.57031-.50391zm4.5664.0937c-.0195-.004-.0391-.004-.0586 0-.32812.0195-.57812.3086-.55859.64453.0195.33594.30078.59375.62891.57422.32812-.0195.57812-.30859.55859-.64453-.0195-.3125-.26172-.5625-.57031-.57422zm-8.0781.54297c-.0391 0-.0781.004-.11718.0117-.32422.0586-.53907.375-.48047.70703.0547.33203.36328.55469.6875.49609s.53906-.375.48047-.70703c-.0469-.28906-.28516-.5-.57032-.50781zm9.8672.57031-.55859 5.3633 2.5625-.20312zm-8.0234.32422.0703 7.4375.85937-2.0195 1 2.3008-.13281-2.5508 1.7852 1.6328zm18.219 21.336-.375 2.1719-1.4961-2 .70703 2.4492-2.1055-1.1562 5.0274 5.75zm-10.324 2.4258-.52734 2.1328-1.3516-2.1016.53515 2.4961-2.0195-1.3086 4.6133 6.1055zm13.945 4.0078c-.0781 0-.15625.0156-.23047.0508-.30078.13282-.4375.49219-.3086.80469.13282.3086.48047.44922.78516.31641.30078-.13672.4375-.4961.30469-.80469-.0937-.22656-.3125-.37109-.55078-.36719zm-3.2695 1.4609c-.0781 0-.15625.0195-.23047.0508-.30078.13672-.4375.4961-.3086.80469.13282.30859.48438.45312.78516.31641.30078-.13282.4375-.4961.30469-.80469-.0937-.22266-.3125-.36719-.55078-.36719zm-7.5274 1.2109h-.043c-.0586.004-.11718.0156-.17578.0352-.30859.10938-.47265.46094-.36328.77735.10938.32031.44922.48828.75781.375.3125-.11328.47266-.46094.36328-.78125-.082-.23828-.29687-.39844-.53906-.40625zm10.113.30078c-.082 0-.16015.0195-.23437.0508-.30078.13281-.4375.49609-.30469.80469.12891.30859.48047.44922.78125.3164.30078-.13671.4375-.49609.30859-.80468-.0977-.22657-.3125-.3711-.55078-.36719zm-13.477.91797h-.043c-.0586 0-.11719.0117-.17578.0352-.30859.10938-.47266.46094-.36328.77735.10937.32031.44922.48828.75781.375.3125-.11328.47266-.46094.36328-.78125-.082-.23828-.29687-.39844-.53906-.40625zm9.793.0469-.22656 2.1914-1.6289-1.8828.87891 2.3906-2.1797-.99609 5.418 5.3594zm-7.3242 1.6484h-.0391c-.0625.004-.1211.0156-.17578.0352-.3086.11328-.47266.46093-.36328.78125.10937.3164.44921.48437.75781.37109.30859-.11328.47265-.46094.36328-.77734-.082-.23828-.29688-.40235-.54297-.41016zm11.449 4.4922c-.0977-.004-.19922.0195-.28516.0664-.29297.16016-.40234.52735-.25.82813.15235.29687.51172.41406.80078.25391.29297-.15625.40235-.52344.25-.82422-.10156-.19532-.29687-.32422-.51562-.32422zm-3.1562 1.7031c-.10156 0-.19922.0234-.28516.0703-.29297.15625-.40234.52734-.25.82421.15235.30079.51172.41407.80078.25782.29297-.15625.40235-.52735.25-.82422-.10156-.19922-.29687-.32422-.51562-.32813zm9.8828.8125-.22265 2.1953-1.6328-1.8828.87891 2.3906-2.1797-.9961 5.418 5.3555zm-7.1992.5c-.10156-.004-.19922.0234-.28515.0703-.29297.15625-.40235.52734-.25.82421.15234.30079.51172.41407.80078.25782s.40234-.52735.25-.82422c-.10156-.19922-.29688-.32422-.51563-.32813zm-3.375 1.8945-.5039 2.1406-1.375-2.0859.5664 2.4883-2.0352-1.2852 2.2578 2.9141 1.9727.66016zm14.703 3.7461c-.10156 0-.19922.0234-.28906.0703-.28907.15625-.40235.52734-.25.82813.15625.29687.51171.41406.80468.2539.28907-.15625.40235-.52344.25-.82422-.10156-.19922-.30078-.32422-.51562-.32812zm-3.1562 1.707c-.10156-.004-.19922.0195-.28906.0703-.28907.15625-.40235.52344-.25.82422.15234.29688.51171.41406.80468.25781.28907-.15625.40235-.52734.25-.82812-.10156-.19531-.30078-.32031-.51562-.32422zm-8.3633 1.1875c-.0586.004-.11719.0156-.17578.0391-.12891.0469-.23829.14063-.3086.26172l.30469.88281c.13281.0508.28125.0508.41406.004.3086-.11719.46485-.46875.35156-.78516-.0781-.23047-.28906-.39062-.52734-.40234h-.0586zm11.043.125c-.0977-.004-.19532.0195-.28516.0703-.28906.15625-.40234.52344-.25.82422.15234.29688.51172.41406.80469.25781.28906-.15625.40234-.52734.25-.82422-.10157-.19921-.30078-.32421-.51953-.32812z" fill="#4242ff"/>
  <path d="m118.07 245.87c.65625 0 1.1914-.91015 1.1914-2.0352 0-1.1211-.53515-2.0352-1.1914-2.0352s-1.1875.91406-1.1875 2.0352c0 1.125.53125 2.0352 1.1875 2.0352zm14.637-.14843c.65625 0 1.1875-.91407 1.1875-2.0352 0-1.125-.53125-2.0352-1.1875-2.0352s-1.1875.91016-1.1875 2.0352c0 1.1211.53125 2.0352 1.1875 2.0352zm-85.578-2.6367c1.8633-1.4492 4.5-2.457 6.5469-2.457 1.9375 0 3.875 1.082 5.2539 2.0898l-.19531-4.3164c-4.0742-2.1016-6.043-2.1016-10.266.0703-.41797.22265-.875.33984-1.3359.34375zm79.637-14.68c1.1875-1.2227 2.9258-1.6094 3.0391-1.7617l.52734-.68359c-1.0508 1.3672-6.8789.63281-10.551 1.0078l1.043.21484c1.1875 0 2.375 1.2227 2.375 1.2227s.80078-1.2227 1.9883-1.2227c1.5781 0 1.5781 1.2227 1.5781 1.2227zm-6.9844-1.4375-1.9297-.39844.59375.61328c.39453-.0977.84765-.16406 1.3359-.21484zm-69.672-3.4531c.79297-3.6836 2.3867-7.3476 4.7539-11.004 2.2539 3.1875 4.5547 6.3476 5.3477 10.391 2.7227-4.0976 5.5312-6.3789 8.4141-7.3555-2.9492-6.5234-7.5859-13.422-13.055-20.148h-20.316v17.516c5.7539 1.9453 11.512 3.8789 14.855 10.602zm22.414-8.332c.6875-1.1211 1.3477-2.2383 1.9922-3.3789-1.8398-1.7227-3.4922-3.582-4.9219-5.543-5.6289-7.7031-8.4922-17.258-8.4922-27.188s2.8633-19.488 8.4922-27.191c.39453-.54297.80859-1.0781 1.2305-1.6211-.32031-.004-.62891.0156-.94141.004-.17578-.008-.33984-.0352-.50781-.0547-2.6211 1.9688-4.5234 4.7656-6.7773 7.8867l-2.3867-1.8203c-.125-.76953-.21094-1.5508-.24219-2.3945l-4.4961-.0508-.07813 35.371c7.1914 8.4609 13.453 17.383 17.129 25.98zm8.4492-3.2539c.22266-.008.42578-.14063.51953-.35157.14062-.30468.01172-.66796-.28516-.8125-.29688-.14062-.65234-.0117-.79297.29688-.13672.30469-.0078.66797.28906.8125.08203.0391.17578.0586.26953.0547zm14.086-1.0586c.28906.004.53906-.20703.58984-.5.05859-.33203-.15625-.65234-.47656-.71093-.32422-.0625-.63281.16015-.69141.49218-.05859.33203.15625.64844.47656.71094.03516.004.06641.008.10156.008zm-11.465-.3789c.22656-.008.42578-.14063.51953-.35157.14062-.30468.01172-.66796-.28516-.8125-.29688-.14062-.65234-.0117-.78906.29688-.14062.30469-.01172.66797.28516.8125.08594.0391.17578.0586.26953.0547zm7.957-.27735c.28906.004.53906-.21093.58984-.5039.05859-.33203-.15625-.64844-.47656-.71094-.32422-.0586-.63281.16016-.69141.49219-.05859.33203.15625.65234.47656.71093.03516.008.06641.0117.10156.0117zm1.8672-.88281 2.4453-7-1.4883 1.5859-.15625-2.5156-.73828 2.4414-1.125-2.168zm-13.051-.39062c.22266-.008.42188-.14454.51562-.35547.14062-.30469.01172-.66797-.28516-.8125-.29688-.14063-.65234-.008-.78906.29687-.14063.30469-.01172.66797.28516.8125.08594.0391.17969.0586.27344.0586zm1.8438-.39063 4.1016-6.125-1.832 1.1445.46875-2.4766-1.3203 2.168-.54688-2.3906zm19.937-3.3516c-.0937-.67578-.0859-1.3633.0312-2.0391-.46484.0703-.9375.0859-1.4023.0469l-.34766 1.9297c.57031-.0586 1.1524-.0391 1.7188.0625zm-11.035-6.2852c.26562-.008.49609-.19922.55859-.46484.07813-.32813-.11719-.66016-.4375-.73828-.31641-.082-.64062.11718-.71875.44531-.07813.32812.11719.66016.4375.74219.05078.0117.10547.0195.16016.0156zm18.281-.95703c-.0977-.67969-.0859-1.3672.0273-2.0391-.66016.0977-1.3281.0859-1.9844-.0312.0977.67969.0859 1.3672-.0273 2.0391.66016-.0977 1.3281-.0859 1.9844.0312zm-15.984-.98047c.26562-.008.49609-.19531.55859-.46484.07813-.32813-.11719-.65625-.43359-.73828-.32031-.082-.64062.12109-.71875.44922-.07813.32812.11719.65625.43359.73828.05469.0117.10547.0195.16016.0156zm-3.4609-.875c.26563-.008.49609-.19922.55859-.46484.07813-.32813-.11719-.65625-.43359-.73828-.32031-.082-.64062.12109-.72266.44531-.07813.32812.11719.66016.4375.74219.05078.0117.10547.0195.16016.0156zm1.8555-.76562 2.8555-6.832-1.5781 1.4883-.01172-2.5195-.88281 2.3906-.98828-2.2344zm24.832-4.625c-.0977-.67578-.0859-1.3633.0273-2.0391-.65625.10157-1.3281.0898-1.9805-.0273.0937.67578.082 1.3672-.0312 2.0391.66015-.0977 1.3281-.0898 1.9844.0273zm-17.586-6.3398c.3125.0156.58203-.21875.61719-.53515.03906-.33594-.19141-.64063-.51953-.67969-.32422-.0391-.62109.19922-.66016.53516-.03906.33203.19531.63671.51953.67968h.04297zm-13.121-.27734c1.3047-5.3984 2.0039-10.59 2.1719-15.629l-.02344-.0625c-.51172.54688-1.1328.97657-1.8281 1.2461.18359.54687.28125 1.125.28125 1.7226 0 1.6524-.75391 3.1445-1.9258 4.1016.76953.92187 1.2344 2.1211 1.2344 3.4219 0 1.3086-.47266 2.5195-1.2539 3.4453.55859.48828 1.0156 1.1016 1.3438 1.7539zm37.949-.625c-.0937-.67578-.0859-1.3633.0273-2.0391-.65625.0977-1.3281.0898-1.9805-.0273.0937.67578.0859 1.3633-.0273 2.0391.65625-.0977 1.3242-.0898 1.9805.0273zm-32.742-.33203c.28906-.0156.52734-.2461.5625-.53906.03516-.33594-.19531-.64063-.51953-.67969-.32812-.0391-.625.19922-.66406.53515-.03906.33594.19531.63672.51953.67969.01563 0 .03125 0 .04297.004h.05859zm10.023-.97266c.28906-.0156.52734-.24609.5625-.53906.0352-.33594-.19531-.64063-.52344-.67969-.32422-.0391-.62109.19922-.66015.53516-.0391.33594.19531.63672.51953.67969.0156 0 .0312 0 .043.004h.0586zm-3.582-.4375c.01563.004.02734 0 .04297 0 .28906-.0156.52344-.24219.55859-.53515.03906-.33594-.19141-.64063-.51953-.67969-.32422-.043-.62109.19922-.66016.53125-.03906.33594.19531.64062.51953.67969.01953.004.03906.004.05859.004zm-4.3867-.80078c.28906-.0156.52344-.24219.55859-.53906.03906-.33594-.19531-.64063-.51953-.67969-.32812-.0391-.62109.19922-.66016.53516-.03906.33593.19141.64062.51953.67968.01172 0 .02734.004.03906.004h.0625zm6.2383-.19922 2.0273-7.1367-1.3906 1.6758-.30859-2.5-.59375 2.4805-1.25-2.0898zm-9.8203-.23437c.01172 0 .02734 0 .03906-.004.28906-.0117.52734-.24219.55859-.53516.03906-.33593-.19141-.64062-.51953-.67968-.32422-.0391-.62109.19922-.66016.53515-.03906.33203.19531.63672.51953.67969.01953 0 .04297.004.0625.004zm1.8516-1.0039 2.0234-7.1367-1.3906 1.6758-.30859-2.5-.59375 2.4805-1.2461-2.0898zm4.4062-10.375c.32812 0 .59375-.27344.59375-.60937 0-.33985-.26562-.61329-.59375-.61329s-.59766.27344-.59766.61329c0 .33593.26953.60937.59766.60937zm1.7812-2.4453c.32812 0 .59375-.27344.59375-.60938 0-.33984-.26562-.61328-.59375-.61328s-.59375.27344-.59375.61328c0 .33594.26562.60938.59375.60938zm-3.5664 0c.32812 0 .59375-.27344.59375-.60938 0-.33984-.26562-.61328-.59375-.61328s-.59375.27344-.59375.61328c0 .33594.26562.60938.59375.60938zm1.7852-1.2227 1.1875-7.3359-1.1875 1.8359-.59766-2.4453-.30078 2.5352-1.4805-1.9258zm-4.8945-10.406c.01953.004.03906.004.05859 0 .32812-.0195.57812-.30859.55859-.64453-.01953-.33594-.29688-.59375-.625-.57422-.32813.0195-.57813.3086-.55859.64453.01563.3125.26172.5625.56641.57422zm8.3789-.36328c.03906 0 .07813-.004.11719-.0117.32422-.0586.53907-.375.48438-.70703-.05859-.33203-.36719-.55469-.69141-.49609-.32031.0586-.53906.375-.48047.70703.05078.28906.28906.5.57031.50781zm-64.098-1.8867c5.2891-4.6875 12.629-11.484 20.746-13.27 1.7539-1.7852 3.9844-3.1211 6.5898-4.0234-2.9531-5.5117-2.8242-8.3945-2.3789-11.004l8.4609 8.7031c.44922-.59765 1.2305-.86719 1.9688-.61328.62891.21484 1.0625.75391 1.1836 1.375 1.6367-.55859 5.1562-1.7656 7.5312-2.5664-2.5469-4.8945-5.5742-9.6328-9-14.203-12.988 7.0664-25.227 14.359-35.102 23.625zm36.57-18.832c-.02344.008-.07031.0234-.08984.0312l.10938.0742c-.0078-.0352-.01172-.0703-.01953-.10547zm17.23 18.75h.05859c.32812-.0195.57812-.30859.5625-.64844-.01953-.33593-.30078-.59375-.62891-.57422-.32812.0195-.57812.3086-.55859.64454.01563.3164.26172.5625.56641.57812zm8.1289-.12109c.03906 0 .07812-.004.11719-.008.32422-.0586.53906-.3789.48047-.71093-.05469-.33203-.36328-.55469-.6875-.4961-.32422.0586-.53906.37891-.48047.71094.04687.28516.28516.49609.57031.50391zm-4.5664-.0937c.01953.004.03906.004.05859 0 .32812-.0195.57812-.3086.55859-.64453-.01953-.33594-.30078-.59375-.62891-.57422-.32812.0195-.57812.30859-.55859.64453.01953.3125.26172.5625.57031.57422zm8.0781-.54297c.0391 0 .0781-.004.11718-.0117.32422-.0586.53907-.375.48047-.70703-.0547-.33203-.36328-.55469-.6875-.4961-.32422.0586-.53906.375-.48047.70704.0469.28906.28516.5.57032.50781zm-9.8672-.57031.55859-5.3633-2.5625.20313zm8.0234-.32422-.07031-7.4375-.85938 2.0195-1-2.3008.13281 2.5508-1.7852-1.6328zm-18.219-21.336.375-2.1719 1.4961 2-.70703-2.4492 2.1055 1.1562-5.0273-5.75zm10.324-2.4258.52734-2.1328 1.3516 2.1016-.53516-2.4961 2.0195 1.3086-4.6133-6.1055zm-13.945-4.0078c.07813 0 .15625-.0156.23047-.0508.30078-.13282.4375-.49219.30859-.80469-.13281-.3086-.48047-.44922-.78516-.31641-.30078.13672-.4375.4961-.30469.80469.09375.22656.3125.37109.55078.36719zm3.2695-1.4609c.07813 0 .15625-.0195.23047-.0508.30078-.13672.4375-.4961.30859-.80469-.13281-.30859-.48438-.45312-.78516-.31641-.30078.13282-.4375.4961-.30469.80469.09375.22266.3125.36719.55078.36719zm7.5273-1.2109h.04297c.05859-.004.11719-.0156.17578-.0352.30859-.10938.47266-.46094.36328-.77735-.10938-.32031-.44922-.48828-.75781-.375-.3125.11328-.47266.46094-.36328.78125.08203.23828.29688.39844.53906.40625zm-10.113-.30083c.08203 0 .16016-.0195.23438-.0508.30078-.13281.4375-.49609.30469-.80469-.12891-.30859-.48047-.44922-.78125-.3164-.30078.13671-.4375.49609-.30859.80468.09766.22657.3125.3711.55078.36719zm13.477-.91797h.04297c.05859 0 .11719-.0117.17578-.0352.30859-.10938.47266-.46094.36328-.77735-.10938-.32031-.44922-.48828-.75781-.375-.3125.11328-.47266.46094-.36328.78125.08203.23828.29688.39844.53906.40625zm-9.793-.0469.22656-2.1914 1.6289 1.8828-.87891-2.3906 2.1797.99609-5.418-5.3594zm7.3242-1.6484h.03906c.0625-.004.12109-.0156.17578-.0352.30859-.11328.47266-.46093.36328-.78125-.10938-.3164-.44922-.48437-.75781-.37109-.30859.11328-.47266.46094-.36328.77734.08203.23828.29688.40235.54297.41016zm-11.449-4.4922c.09766.004.19922-.0195.28516-.0664.29297-.16016.40234-.52735.25-.82813-.15234-.29687-.51172-.41406-.80078-.25391-.29297.15625-.40234.52344-.25.82422.10156.19532.29688.32422.51562.32422zm3.1562-1.7031c.10156 0 .19922-.0234.28516-.0703.29297-.15625.40234-.52734.25-.82421-.15234-.30079-.51172-.41407-.80078-.25782-.29297.15625-.40234.52735-.25.82422.10156.19922.29688.32422.51562.32813zm-9.8828-.8125.22266-2.1953 1.6328 1.8828-.87891-2.3906 2.1797.9961-5.418-5.3555zm7.1992-.5c.10156.004.19922-.0234.28516-.0703.29297-.15625.40234-.52734.25-.82421-.15234-.30079-.51172-.41407-.80078-.25782-.28906.15625-.40234.52735-.25.82422.10156.19922.29688.32422.51562.32813zm3.375-1.8945.50391-2.1406 1.375 2.0859-.56641-2.4883 2.0352 1.2852-2.2578-2.9141-1.9727-.66016zm-14.703-3.7461c.10156 0 .19922-.0234.28906-.0703.28906-.15625.40234-.52734.25-.82813-.15625-.29687-.51172-.41406-.80469-.2539-.28906.15625-.40234.52344-.25.82422.10156.19922.30078.32422.51562.32812zm3.1562-1.707c.10156.004.19922-.0195.28906-.0703.28906-.15625.40234-.52344.25-.82422-.15234-.29688-.51172-.41406-.80469-.25781-.28906.15625-.40234.52734-.25.82812.10156.19531.30078.32031.51562.32422zm8.3633-1.1875c.05859-.004.11719-.0156.17578-.0391.12891-.0469.23828-.14063.30859-.26172l-.30469-.88281c-.13281-.0508-.28125-.0508-.41406-.004-.30859.11719-.46484.46875-.35156.78516.07813.23047.28906.39062.52734.40234h.05859zm-11.043-.125c.09766.004.19531-.0195.28516-.0703.28906-.15625.40234-.52344.25-.82422-.15234-.29688-.51172-.41406-.80469-.25781-.28906.15625-.40234.52734-.25.82422.10156.19921.30078.32421.51953.32812z" fill="#4242ff"/>
  <path d="m110.3 57.379c-7.7344-.01563-15.859.35547-24.574 1.1875l1.3438 3.5547c22.207-2.0312 40.414-1.0586 58.336 1.8047l1.2656-3.5078c-11.672-1.8984-23.48-3.0117-36.371-3.0391zm52.441 27.648-1.0039 2.2188c5.9141 2.8125 12.379 2.9375 18.34.375l-.90234-2.2578c-5.3867 2.332-11.078 2.2188-16.434-.33594zm-62.129 11.957c-1.418 4.8555-6.9648 6.5352-13.035 6.9805.46094.94532.89844 1.9375 1.3438 2.9648 2.0195-.1836 3.9961-.54297 5.8672-1.1328 1.9727-.625 3.8984-1.6055 5.4727-2.9922 2.332 3.6406 5.1133 5.875 7.9023 6.8906l-13.227 13.266c.32812 1.0195.66016 2.082 1 3.2188l20-20.047c-3.7266 2.3477-10.715 2.0625-15.324-9.1484zm49.863 6.2422-1.5117 2.7148c1.5078 1.4336 2.8711 2.9922 4.0664 4.6328 5.2109 7.1289 7.8945 16.023 7.8945 25.352 0 9.3281-2.6836 18.223-7.8945 25.355-2.1953 3.0039-4.9414 5.7422-8.0625 7.9219 3.3476.19922 6.582.36719 8.1562.4336.0273-1.0352.83984-1.8906 1.875-1.8477.41406.0156.79687.17969 1.0273.39063 3.9023-2.3867 6.2539-5.9844 8.7617-9.457l-2.3867-1.8203c-2.2539 3.1211-4.1562 5.918-6.7773 7.8867-.16797-.0195-.33204-.0469-.50782-.0547-.3125-.0117-.62109.008-.93359.0234.41406-.5625.82812-1.0976 1.2227-1.6406 5.6289-7.7031 8.4922-17.262 8.4922-27.191s-2.8633-19.484-8.4922-27.188c-1.4297-1.9609-3.082-3.8203-4.9297-5.5117zm9.2148 2.5625.44141.73438h29.613v-.73438zm1.4805 2.4453.48438.73046h28.09v-.73046zm1.4883 2.2617.7461 1.0977h26.34v-1.0977zm2 2.8711 1.0742 1.4688h24.012v-1.4688zm2.1289 2.875 1.4297 1.832h21.527v-1.832zm-44.289 8.2461-21.762 21.922.59765 3.6719 20.793-20.941zm61.305 16.184v20.496h2.375v-18.293zm-80.816 11.938-1.1328 1.168.52343 4.332h20.355l-.46484-5.2266-.26563-.27344-2.3789 2.4453-2.375-2.4453-2.3789 2.4453-2.375-2.4453-2.375 2.4453-2.3789-2.4453-2.375 2.4453zm61.973 10.883-.21093 1.4648h21.887l1.6641-1.4648zm-.46484 2.625-.35156 1.1016h19.82l1.3047-1.1016zm-.69531 2.0195-.3125.73437h18.363l.9414-.73437zm25.945 6.0508c-9.875 9.2656-22.113 16.555-35.105 23.605l2.2578 2.9258c11.859-6.4414 23.227-13.191 32.848-21.637z"/>
  <path d="m114.7 257.62c7.7344.0156 15.859-.35547 24.574-1.1875l-1.3438-3.5547c-22.207 2.0312-40.414 1.0586-58.336-1.8047l-1.2656 3.5078c11.672 1.8984 23.48 3.0117 36.371 3.0391zm-52.441-27.648 1.0039-2.2188c-5.9141-2.8125-12.379-2.9375-18.34-.375l.90234 2.2578c5.3867-2.332 11.078-2.2188 16.434.33594zm62.129-11.957c1.418-4.8555 6.9648-6.5352 13.035-6.9805-.46094-.94532-.89844-1.9375-1.3438-2.9648-2.0195.1836-3.9961.54297-5.8672 1.1328-1.9727.625-3.8984 1.6055-5.4726 2.9922-2.332-3.6406-5.1133-5.875-7.9024-6.8906l13.227-13.266c-.32812-1.0195-.66015-2.082-1-3.2188l-20 20.047c3.7266-2.3477 10.715-2.0625 15.324 9.1484zm-49.863-6.2422 1.5117-2.7148c-1.5078-1.4336-2.8711-2.9922-4.0664-4.6328-5.2109-7.1289-7.8945-16.023-7.8945-25.352 0-9.3281 2.6836-18.223 7.8945-25.355 2.1953-3.0039 4.9414-5.7422 8.0625-7.9219-3.3477-.19921-6.582-.36718-8.1562-.43359-.02734 1.0352-.83984 1.8906-1.875 1.8477-.41406-.0156-.79688-.17969-1.0273-.39063-3.9023 2.3867-6.2539 5.9844-8.7617 9.457l2.3867 1.8203c2.2539-3.1211 4.1562-5.918 6.7773-7.8867.16797.0195.33203.0469.50781.0547.3125.0117.62109-.008.93359-.0234-.41406.5625-.82812 1.0976-1.2227 1.6406-5.6289 7.7031-8.4922 17.262-8.4922 27.191s2.8633 19.484 8.4922 27.188c1.4297 1.9609 3.082 3.8203 4.9297 5.5117zm-9.2148-2.5625-.44141-.73438h-29.613v.73438zm-1.4805-2.4453-.48438-.73046h-28.09v.73046zm-1.4883-2.2617-.74609-1.0977h-26.34v1.0977zm-2-2.8711-1.0742-1.4688h-24.012v1.4688zm-2.1289-2.875-1.4297-1.832h-21.527v1.832zm44.289-8.2461 21.762-21.922-.59765-3.6719-20.793 20.941zm-61.305-16.184v-20.496h-2.375v18.293zm80.816-11.938 1.1328-1.168-.52344-4.332h-20.355l.46484 5.2266.26563.27343 2.3789-2.4453 2.375 2.4453 2.3789-2.4453 2.375 2.4453 2.375-2.4453 2.3789 2.4453 2.375-2.4453zm-61.973-10.883.21094-1.4648h-21.887l-1.6641 1.4648zm.46484-2.625.35156-1.1016h-19.82l-1.3047 1.1016zm.69531-2.0195.3125-.73437h-18.363l-.94141.73437zm-25.945-6.0508c9.875-9.2656 22.113-16.555 35.105-23.605l-2.2578-2.9258c-11.859 6.4414-23.227 13.191-32.848 21.637z"/>
 </g>
 <g fill="none" stroke="#4242ff" stroke-linecap="round" stroke-linejoin="round">
  <path d="m97.129 35.27c1.9805 6.4727 7.8359 6.7344 8.1601 12.172.32422 5.4883-7.0469 5.9102-7.3437.41797-.19922-3.7109 4-3.9023 4.1953-.23828.0977 1.8281-2.5234 1.9805-2.6211.14844m-3.1562-12.5c-1.2578 6.6992-7.0742 7.6172-6.8086 13.07.26562 5.4922 7.6367 5.0703 7.3398-.42188-.19922-3.7109-4.3906-3.4219-4.1953.24219.10156 1.8281 2.7227 1.6797 2.625-.15234m38.82-12.738c.80469 7.2305 7.6562 8.543 7.0508 14.102-.59375 5.4648-8.8906 4.4609-8.2617-1.0039.42187-3.6914 5.1406-3.0703 4.7187.57422-.20703 1.8203-3.1562 1.4609-2.9492-.35938m-1.1914-13.309c-2.4453 6.7617-9.3516 6.418-10.02 11.945-.66015 5.4609 7.6328 6.4688 8.2617 1.0039.42187-3.6914-4.3047-4.2148-4.7226-.57422-.20703 1.8242 2.7422 2.1797 2.9531.35938m14.031 6.4727c.15625-.15234.3125-.31641.46485-.48047 1.8555-2.0391 2.9297-4.7734 3.2656-7.9805 3.5469-.65625 6.2187-1.6016 8.332-2.6875m-17.523 10.371c3.7539-1.4492 5.9844-4.6914 5.7266-10.848 10.914-1.3242 12.746-4.7539 17.02-7.6133m-83.43 7.582c1.4922 1.1289 3.0859 2.0508 4.8633 2.5117.40234 1.4336.84766 3.1094 1.8047 4.9727.47656.92188 1.1133 1.8281 1.9141 2.6797m5.3476-.44141c-5-2.4922-4.8047-6.6289-6.3906-10.547-3.2227.09375-6.8672-3.0039-10.363-6.7422m32.898 16.652c1.5078-1.9023 2.6523-4.2461 3.2422-6.9844 1.2891-.55078 2.4219-1.3359 3.3476-2.2656.82031 1.0273 1.8672 1.9375 3.0859 2.6289.27734 2.5742 1.0586 4.8633 2.1992 6.8242m-5.3672-16.852c-.96484 3.4883-2.5547 6.3047-6.4297 6.7812-.40234 4.9023-2.4102 7.9727-5.3672 9.957m21.727.36328c-2.1445-2.2383-3.4102-5.2852-3.3086-9.5859-3.8203-.91406-5.0976-3.918-5.6836-7.5156m46.445.08203c-11.383 15.133-13.93 21.254-16.434 28.602m-72.039-28.637c7.1875 11.59 10.801 18.691 13.73 26.824m-1.3633-3.5664c23.246-2.2109 42.269-1.1836 60.945 1.8516m-59.601 1.7031c22.207-2.0312 40.414-1.0586 58.336 1.8047m-61.984-10.66c25.086-2.5391 45.531-1.4023 65.512 1.9531m-9.2187 113.66c-5.8437-20.129-3.25-42.898 12.762-69.066 6.8672 16.066 22.754 33.246 37.273 45.98m-22.891 66.211c-8.6328-8.8477-15.961-18.277-21.211-28.414m-110.41-66.008c12.852-10.547 28.277-17.723 43.887-24.652m46.934 9.8125c-9.1992 39.398-2.8125 76.996 11.312 108.28m-41.418-84.77 20-20.145m-7.8008 3.5742-13.211 13.309m1.9687 6.5742c9.043-9.1094 18.086-18.219 27.133-27.328m-22.527 49.148h20.648m-21.43-4.9766 21.762-21.922m.53906-4.8203-22.973 23.141m1.2695 7.2734 20.793-20.941m-.14844 19.191h-18.906m-22.074-51.348c-1.1875 0-2.3047 3.4922.59766 3.668 2.2539.14062 4.7539-5.5 0-5.5-5.3516 0-4.7695 9.0273 1.1719 9.0273 7.7148 0 16.059-1.082 17.844-7.1953 6.5352 15.895 17.848 9.8242 17.824 5.5039-.0156-3.3906-4.1602-3.668-4.7539-1.8359-.8125 2.5078 1.1875 3.668 2.9726 1.8359m-14.801 51.289 1.1328-1.168 2.3789 2.4453 2.375-2.4453 2.3789 2.4453 2.375-2.4453 2.375 2.4453 2.3789-2.4453 2.375 2.4453 2.3789-2.4453.26562.27344m-16.969-31.766c.18359.14844.35546.3086.51953.48047 1.9453 2.0547 1.8984 5.3438-.10157 7.3438-2 2.0039-5.1953 1.957-7.1406-.10156-.15625-.16406-.29688-.33594-.42969-.51953m21.582-21.734c.20313.16016.39453.33203.57422.52344 1.9453 2.0586 1.9023 5.3477-.0977 7.3477-2 2-5.1992 1.9531-7.1445-.10547-.17187-.17969-.32812-.375-.47265-.57813m-.0742.0781c.19531.15234.375.32031.54687.5 1.9453 2.0586 1.8984 5.3476-.10156 7.3476-2 2-5.1953 1.9531-7.1406-.10156-.16407-.17187-.3125-.35547-.45313-.55078m-7.2812 7.3359c.17187.14062.33594.29297.49219.45703 1.8984 2.0078 1.9063 5.2031.01953 7.2227m-.0039.0117c2.0156-1.8906 5.125-1.7969 7.0273.21484.14844.16016.28907.32813.41797.50391m.0586-.0586c-.16797-.13672-.32813-.28516-.47657-.44532-1.9453-2.0547-1.9023-5.3438.0977-7.3476 2-2 5.1992-1.9531 7.1445.10546.14063.14844.27344.3086.39453.47266m11.559-20.918c-1.6523.30469-3.3398-.25391-4.5117-1.4922-.17969-.1914-.34375-.39453-.49219-.60937m.71484 15.699c-.14843-.1211-.28906-.25391-.42187-.39453-1.9453-2.0586-1.8984-5.3477.10156-7.3477 1.0117-1.0156 2.3945-1.5469 3.8086-1.4648m-10.703 16.477c-.16016-.13281-.30859-.27344-.44922-.42188-1.9453-2.0586-1.9023-5.3476.0977-7.3476 2-2 5.1992-1.9531 7.1445.10547.13281.14062.25781.28906.375.4414m-2.5-18.176 2.9844-3.0078m-32.031 5.8945c2.0078-.21094 3.9844-.57031 5.8555-1.1602 1.9727-.625 3.8984-1.6055 5.4727-2.9922 2.332 3.6406 5.1133 5.875 7.9101 6.8984m39.875-10.484c5.7891 1.9414 11.434.875 16.742-7.1211.79297 4.043 3.0937 7.2031 5.3476 10.391 2.3672-3.6563 3.9609-7.3203 4.7539-11.004 3.3438 6.7227 9.1016 8.6562 14.852 10.598m.004 38.738c-13.246-11.988-27.109-27.516-33.383-41.375m-14.969 23.465c2.0703 3.75 3.1914 8.3164 3.1914 13.016 0 7.5547-2.8867 14.559-7.6094 18.465m.30859 3.1602c1.8242-1.2383 3.4531-2.8477 4.8203-4.7188 3.2461-4.4414 5.1523-10.391 5.1523-16.906 0-6.1992-1.7266-11.883-4.6875-16.246m-3.0234 49.117c4.4883-2.1367 8.289-5.4922 11.109-9.3516 4.793-6.5586 7.2969-14.793 7.2969-23.52 0-8.7266-2.5039-16.957-7.2969-23.516-.95313-1.3047-2.0156-2.5508-3.1797-3.7109m-2.5781 60.508c3.1914-2.1836 5.9375-4.9219 8.1328-7.9258 5.2109-7.1328 7.8945-16.027 7.8945-25.355 0-9.3281-2.6836-18.223-7.8945-25.352-1.1953-1.6406-2.5586-3.1992-4.0664-4.6328m5.2031 58.777c.42968-.52344.84374-1.0586 1.2383-1.6016 5.6289-7.7031 8.4922-17.262 8.4922-27.191 0-9.9297-2.8633-19.484-8.4922-27.188-1.4297-1.9609-3.082-3.8203-4.9297-5.5117m23.012-19.355-1.5 6.9531c-.42188 1.957-1.1094 3.9375-2.0664 5.9414-1.0391-1.7188-1.8594-3.4219-2.2227-5.2734l-1.3906-7.1055-3.9726 5.9883c-2.1445 3.2266-4.1562 4.9609-6.0312 5.8398m28.797.89844c-3.1484-1.4219-5.7344-3.3398-7.5664-7.0195l-3.168-6.3711m-21.996 16.281c6.2695-4.8516 8.7578-11.395 11.617-17.773m13.887-6.0469c-.46875.0039-.92578.12109-1.3438.34375-4.2226 2.1719-6.1914 2.1719-10.414 0-.95312-.50781-2.0938-.44531-2.9922.15625-.89453.60156-1.4062 1.6562-1.3359 2.7539.0664 1.1016.70704 2.0781 1.6719 2.5547 5.2852 2.7188 10.445 2.7188 15.73 0 1.25-.62109 1.918-2.0508 1.6016-3.4453-.31642-1.3906-1.5274-2.375-2.918-2.3633m.25391 6.3047c3.0703 8.8906 6.7226 15.996 11.613 19.285m.004 90.887c-7.5352 6.5976-16.195 11.918-25.422 16.676m25.43-30.258c-9.625 8.4492-20.992 15.199-32.855 21.641m32.852-26.531c-9.875 9.2656-22.117 16.555-35.109 23.605m10.387-36.625h24.719m-16.637-12.309 4.707 5.9453-4.707 4.8438m0-10.789m10.695 1.8906-5.1719-6.5274 4.0195-4.6328m-5.1484-5.082-4.3945 5.0664m8.6054 21.594 2.0898-2.1484m-14.262-33.145v35.293m3.5664-31.297v31.297m6.9492-24.098-6.1094 7.043 8.668 10.941-5.9453 6.1133m7.1328-20.496v20.496m2.375-18.293v18.293m-16.746-41.566h20.312m-34.746 48.188c-.56639-.0234-1.1094.23046-1.4648.68359-.35156.45704-.47656 1.0547-.33203 1.6172 1.1562 4.75 1.1523 6.543.0391 9.9805-.21484.62501-.0859 1.3203.33984 1.8164.42578.5 1.0781.72266 1.7109.58593.62891-.13671 1.1406-.61328 1.332-1.2422 1.2617-3.9023 1.2617-7 .0391-12.027-.18359-.80468-.86328-1.3828-1.6641-1.4141m1.3281 14.016 8.4609 8.7031c.44531-2.6094.57422-5.4922-2.3789-11.004 3.4961-1.211 6.3125-3.1992 8.3203-6.1133-1.9805-.8125-4.75-1.6289-8.3203-2.4414 2.6992-4.5234 2.9844-8.4805 2.3789-12.227-2.5078 3.4727-4.8594 7.0703-8.832 9.4024m33.875-5.9883c-5.293 4.6875-12.676 11.555-20.879 13.387m-15.844-5.8516c-3.2891-.17188-13.883-.89453-16.883-.89453-6.5352 0-9.3828 3.3945-1.1484 3.3945m29.711-13.449-2.3867-1.8203c-2.2539 3.1211-4.1562 5.918-6.7773 7.8867-.16796-.0195-.33203-.0469-.5078-.0547-.31251-.0117-.62109.008-.9336.0234m-11.977 14.137c-4.7539 0-7.1289.60938-9.5078.60938-3.5664 0-4.7539 3.0586-1.1875 3.0586h9.8476m-.33984-7.3359c-.59375 0-7.1328.60937-9.5078.60937-2.3789 0-5.3476 3.0586 0 3.668m8.914-7.332h-5.3476c-4.7539 0-8.914 3.0547-4.1602 3.6641m22.348 5.1758c-2.3438.80468-8.9453 3.0664-9.8711 3.3828-1.7812.61328-2.9688 1.2227-4.2734 1.9726-3.1523 1.8164-4.043-1.3594-2.2617-2.582s2.9726-1.2227 2.9726-1.2227m17.156-11.895c.10156-.043.19922-.0937.29296-.15235 1.4805-.87109 2.7383-1.8867 3.8633-2.9648-.28516.63281-.60547 1.2773-1.0117 1.957l-1.9609 3.2891 3.6601.83595c1.5.34374 2.8125.68358 4.0039 1.0195-1.2187.93359-2.6289 1.6719-4.2773 2.2461l-3.0312 1.0508 1.543 2.8828c.37499.70312.6875 1.332.95703 1.918l-2.8086-2.8906c-.30079-.32032-.66407-.54687-1.0469-.67968m8.8828-106.91.35547 4.4023m11.453-4.7617v4.2773m-13.668-28.098c0 10.391 4.7773 26.285-2.9726 26.285-4.1602 0-4.5547-5.9727-1.5977-5.7031 2.1914.19922 2.1406 2.6445 1.0039 3.2578 3.0664-2.6172 3.2695-6.4063 0-11.613 2.375-1.7148.59375-9.1719.59375-11.613 0-5.5039 7.1328-4.3398 7.1328-1.2227 0 3.0547-3.5664 3.0547-4.1602.60938m.82031 23.371c1.2578 1.0703 3.7852 2.9141 6.3086 2.9141 3.5664 0 8.9141-3.0586 8.9141-6.1133 0-1.4375-.52343-2.875-1.082-3.9922m-14.492-9.0156c.375-.25391.96093-.44141 1.9062-.44141 2.9727 0 4.1602 1.8359 4.7539 1.8359 2.168 0 2.8477 2.9883-.59374 3.0547-2.375.04687-3.5664-2.4453-3.5664-2.4453.73437 1.7305 1.9805 3.5586.59374 4.8906 4.1875.83203 5.4023 3.6602 5.3516 7.3359m-4.8125-14.406c.0118-.47266.0273-.96875.0586-1.4883m3.3867 6.0117c-.65624 4.6211-2.7148 4.4297-3.2969-.74219m-2.4414-4.0039c.15626-1.4766.94141-2.3398 2.3516-3.0977 2.5078-1.3516 3.4336 2.6133 3.5547 4.9844m-1.1758-4.3594c4.6992-4.1836 4.543 8.7656 4.1562 9.7656-.96875 2.4922-3.1211 3.3594-3.5625-.71094m2.6133-8.6914c2.8438-2.5625 4.8008 2.082 4.2226 6.2461-.74218 5.3477-3.25 7.5586-3.5742 3.7969m2.7578-9.4375c2.6016-1.6797 4.4102 2.6953 3.75 6.6094-.93751 5.5547-3.7188 5.918-3.2852.82812m3.3906-2.9023c.0742-.01172.14844-.01563.22266-.01563 1.3125 0 2.3789 1.6406 2.3789 3.668 0 2.0234-1.0664 3.668-2.3789 3.668-.69922 0-1.3594-.47656-1.8125-1.3008m9.539-2.3672c0 1.6875-1.1992 3.0547-2.6758 3.0547s-2.6719-1.3672-2.6719-3.0547c0-1.6875 1.1953-3.0586 2.6719-3.0586s2.6758 1.3711 2.6758 3.0586m-40.613-5.5039h13.309m-17.973 10.391h19.105m8.9375-2.4414c1.7148.96094 3.1445 2.1719 3.5664 4.2773m-31.164 71.508c-.0742.004-.14844.008-.21875.008-1.9102 0-3.457-1.6406-3.457-3.668 0-2.0234 1.5469-3.668 3.457-3.668.0898 0 .17968.004.26953.0117m-.0352-.22265c-.25781.0625-.52344.0937-.78906.0937-1.9062 0-3.4531-1.6406-3.4531-3.668 0-1.582.95703-2.9883 2.375-3.4805m-.1836 21.926c-1.3945-.51171-2.3281-1.9023-2.3281-3.4688 0-2.0234 1.5469-3.668 3.4531-3.668.29688 0 .58984.0391.875.12109m-5.9648 13.039c-.83984-.69531-1.332-1.7617-1.332-2.8906 0-2.0274 1.5469-3.668 3.457-3.668.64453 0 1.2812.1914 1.8281.55859m-5.2226 6.8867c.0586.0586.11719.11328.17578.16797m1.8555-23.312c.31641.69531.77344 1.3086 1.332 1.7969-.78125.92579-1.2539 2.1367-1.2539 3.4453 0 1.3008.46484 2.5 1.2344 3.4219-1.1719.95703-1.9258 2.4492-1.9258 4.1016 0 .59766.0977 1.1758.28125 1.7227-.69531.26953-1.3164.69922-1.8281 1.2461m4.9062-22.812c-.30859.1211-.60156.26953-.87109.44532m-18.359-29.688c0-4.2812-4.1602-4.2812-4.1602.60938 0 4.8906 6.539 2.4453 6.539-1.832 0-6.1133-8.914-4.8906-8.914 1.2227 0 7.8398 13.559 9.5352 21.285 8.9258 7.6836-.60937 15.395-5.9297 15.457-13.855.0898-11.074-7.7539-15.621-9.6328-25.988m-23.871 36.437c5.789.19141 8.0508-2.4648 8.1094-8.1406.0898-9.1133-7.7851-10.219-7.125-30.582m.67578 39.727h.0117m25.789-.86719c2.6562-2.543 4.2187-6.793 4.2461-10.586.0898-11.16-7.7344-15.691-9.5039-26.234m4.0898 37.535c2.4141-2.7539 3.5898-7.6484 3.6172-11.301.0899-11.25-7.707-15.762-9.375-26.484m3.5039 38.883c2.7344-2.6914 4.043-8.5156 4.0742-12.398.0937-11.332-7.6719-15.824-9.2422-26.719m3.3164 39.793c2.7773-2.7187 4.0976-9.1602 4.1289-13.074.0937-11.398-7.6172-15.879-9.0976-26.918m3.3789 40.398c2.6445-2.8984 3.8945-9.6562 3.9219-13.48.0937-11.465-7.5508-15.93-8.9531-27.109m2.9141 40.93c2.8711-2.6758 4.2109-9.8359 4.2422-13.82.0937-11.527-7.4805-15.98-8.8047-27.293m2.6289 41.246c2.9766-2.5586 4.3476-9.9023 4.3789-13.953.0937-11.59-7.4062-16.027-8.6523-27.469m2.4648 41.445c2.9922-2.5391 4.3594-9.9141 4.3906-13.977.0937-11.633-7.3086-16.063-8.4961-27.605m2.375 41.535c2.957-2.582 4.293-9.8906 4.3242-13.93.0937-11.68-7.207-16.098-8.3359-27.742m2.3476 41.563c2.875-2.668 4.1602-9.8359 4.1914-13.82.0937-11.727-7.1055-16.133-8.1797-27.883m2.3867 41.527c2.7617-2.7969 4.3125-9.7578 3.9961-13.645-.93359-11.574-7.4687-14.633-8.0195-28.02m1.5703 41.262c3.2539-2.5664 5.0469-8.8164 4.6523-13.242-.91797-10.352-7.457-10.965-7.8555-28.109m.66015 40.734c4.0742-1.8906 5.7578-7.6211 5.5938-11.219-.50782-11.148-7.6367-9.9258-7.8828-29.602m3.0781 32.969c.35937-2.2539.55859-2.6172.47265-3.9883-.51953-8.2031-7.8789-5.3359-6.8164-29.152m-1.8359 41.242c-2.9726 4.2774-8.9609 1.0274-11.887-5.5039m8.957 5.6836c-2.6133-.95703-5.1719-3.1523-6.5781-6.293m13.812 4.6914c-.64844.93359-1.5312 1.5508-2.5508 1.8711m-4.5078-2.6719c-1.9727-.82813-3.8086-2.5156-4.9726-5.1133m10.281 4.8828c-3.1094.10156-6.6523-1.9805-8.4961-6.1055m6.1094 3.5859c-1.7109-.86719-3.2734-2.4531-4.3281-4.8086m3.5937 1.5039c-.83984-.76953-1.5664-1.7539-2.1133-2.9766m2.7812.64062c-.48437-.66016-.92187-1.4023-1.2891-2.2227m3.0859.40625c-.49219-.66406-.9336-1.4102-1.3047-2.2422m3.5273 1.5312c-.67188-.76562-1.2656-1.6836-1.7461-2.7539m-38.031 14.059c5.7851.97265 7.6523-3.5469 7.6328-8.5938-.01953-5.1641-2.8789-10.355-1.6875-15.242m-5.0156 27.25c5.7851.97266 8.2344-6.7617 8.2148-11.809-.01562-5.1602-3.1992-8.1094-3.1992-15.441m.55078 27.191c2.7344-1.8984 4.0781-6.3555 4.2852-9.9375m-1.6992 9.6602c2.1406-2.1602 3.2148-6.0156 3.3984-9.1875m-.67969 8.6562c1.5234-2.2226 2.3086-5.375 2.4609-8.0469m.1836 7.1523c.96094-2.0156 1.4766-4.4297 1.6016-6.5391m1.0039 5.0117c.44141-1.4648.69531-3 .77734-4.4023m-11.883-19.559s.71094 9.7813.59375 12.836c-.1836 4.8203-8.9141 9.4922-8.9141 0 0-6.1133 7.1289-5.5039 7.1289-.61328 0 4.8906-5.3476 3.668-5.3476.61328 0-3.0586 4.1602-2.4453 4.1602 0m1.1328-11.836c-.22266 2.1875-1.0586 3.3086-.88672 4.918.09766.9375.9414 3.25.9414 6.3047m2.6875-27.199c-.50391 1.6445-1.4961 5.0508-1.4961 6.418 0 1.832.59375 3.0547.59375 6.1133 0 4.8906-8.3203 6.7227-8.3203 0 0-5.5039 7.1328-6.7266 7.1328-1.8359s-4.7539 3.668-4.7539 1.2227 2.9687-2.4453 2.9687-.60938m2.5977-11.098c-.67969 1.3359-1.4648 3.1836-1.4648 4.5742 0 2.5195.65234 5.9102.65234 5.9102m.64062-4.9375s1.7344-2.3945 4.1133-2.3945c2.375 0 3.5625 1.2188 4.7539 1.2188.59375 0 1.7812-1.2188 1.7812-1.2188v1.2188c-.59375 0-1.168.59766-1.7812.61328-.59766 0-3.5664-1.832-4.1602-1.832m23.172 1.832s-4.1562-2.4453-5.3476-2.4453c-1.7812 0-4.1562 1.2227-5.3476 1.2227-1.1875 0-2.9688-.60938-2.9688-.60938v.60938c1.0039 0 2.3984.61328 2.9688.60938.58984 0 3.5664-1.832 5.3476-1.832m-11.883 1.832s1.1875 3.0586 1.1875 3.668c0 .61328-2.375 6.1133-2.375 7.3359 0 1.2227-1.1914 4.2773-1.1914 4.8906 0 .60937 1.7852 1.832 2.3789 1.832.59375 0 2.375-1.2227 3.5664-1.832.53125-.27344 1.1875 1.2227-3.5664 1.832m4.7539-4.2773c2.9726 0 3.4336 2.9922 1.3359 3.7773-.80078.29688-1.9883-.19141-2.1562-1.1133m-6.3125 4.6719-1.1875 2.4453 1.1875-1.2227v-1.2227m11.887 0 .59375 2.4453-1.1875-1.8359.59375-.60938m-12.48 1.832.52734-.68359c.11328-.15234 1.8516-.53906 3.0391-1.7617 0 0 0 1.2227 1.5781 1.2227 1.1875 0 1.9883-1.2227 1.9883-1.2227s1.1875 1.2227 2.375 1.2227l2.9726.61328-.59375-.61328c-3.3711.82031-10.695-.32422-11.887 1.2227m3.5664 1.2227c2.0117 2.1055 3.5664 1.8359 5.3477 0m-16.043-18.949c2.375 0 3.6055-1.9844 4.793-1.9336 2.3359.10156 2.9297 1.9336 4.1211 1.9336-.59375 0-1.7852 1.8359-4.7539 1.8359-1.7852 0-1.7852-1.8359-4.1602-1.8359m24.363 0c-2.3789 0-3.6055-1.9844-4.793-1.9336-2.3398.10156-2.9336 1.9336-4.1211 1.9336.59375 0 1.7812 1.8359 4.7539 1.8359 1.7812 0 1.7812-1.8359 4.1602-1.8359m44.566-13.445-2.9727 3.668 3.5664 3.0547m-5.832-3.0547h2.2656m-4.1562 3.0547 4.1562-6.7227v6.7227" stroke-width=".72322"/>
  <path d="m127.87 279.73c-1.9805-6.4726-7.8359-6.7344-8.1601-12.172-.32422-5.4883 7.0469-5.9102 7.3437-.41797.19922 3.7109-4 3.9023-4.1953.23828-.0977-1.8281 2.5234-1.9805 2.6211-.14844m3.1562 12.5c1.2578-6.6992 7.0742-7.6172 6.8086-13.07-.26562-5.4922-7.6367-5.0703-7.3398.42188.19922 3.7109 4.3906 3.4219 4.1953-.24219-.10156-1.8281-2.7226-1.6797-2.625.15234m-38.82 12.738c-.80469-7.2305-7.6562-8.543-7.0508-14.102.59375-5.4648 8.8906-4.4609 8.2617 1.0039-.42187 3.6914-5.1406 3.0703-4.7187-.57422.20703-1.8203 3.1562-1.4609 2.9492.35937m1.1914 13.309c2.4453-6.7617 9.3516-6.418 10.02-11.945.66015-5.4609-7.6328-6.4688-8.2617-1.0039-.42188 3.6914 4.3047 4.2148 4.7226.57422.20703-1.8242-2.7422-2.1797-2.9531-.35938m-14.031-6.4726c-.15625.15234-.3125.3164-.46484.48047-1.8555 2.0391-2.9297 4.7734-3.2656 7.9805-3.5469.65625-6.2187 1.6016-8.332 2.6875m17.523-10.371c-3.7539 1.4492-5.9844 4.6914-5.7266 10.848-10.914 1.3242-12.746 4.7539-17.02 7.6133m83.43-7.582c-1.4922-1.1289-3.0859-2.0508-4.8633-2.5117-.40235-1.4336-.84766-3.1094-1.8047-4.9727-.47656-.92187-1.1133-1.8281-1.9141-2.6797m-5.3476.44141c5 2.4922 4.8047 6.6289 6.3906 10.547 3.2226-.0937 6.8672 3.0039 10.363 6.7422m-32.898-16.652c-1.5078 1.9023-2.6523 4.2461-3.2422 6.9844-1.2891.55079-2.4219 1.3359-3.3476 2.2656-.82032-1.0273-1.8672-1.9375-3.0859-2.6289-.27734-2.5742-1.0586-4.8633-2.1992-6.8242m5.3672 16.852c.96484-3.4883 2.5547-6.3047 6.4297-6.7812.40234-4.9024 2.4102-7.9727 5.3672-9.957m-21.727-.36329c2.1445 2.2383 3.4102 5.2852 3.3086 9.5859 3.8203.91406 5.0976 3.918 5.6836 7.5156m-46.445-.082c11.383-15.133 13.93-21.254 16.434-28.602m72.039 28.637c-7.1875-11.59-10.801-18.691-13.73-26.824m1.3633 3.5664c-23.246 2.2109-42.269 1.1836-60.945-1.8516m59.601-1.7031c-22.207 2.0312-40.414 1.0586-58.336-1.8047m61.984 10.66c-25.086 2.5391-45.531 1.4023-65.512-1.9531m9.2187-113.66c5.8437 20.129 3.25 42.898-12.762 69.066-6.8672-16.066-22.754-33.246-37.273-45.98m22.891-66.211c8.6328 8.8477 15.961 18.277 21.211 28.414m110.41 66.008c-12.852 10.547-28.277 17.723-43.887 24.652m-46.934-9.8125c9.1992-39.398 2.8125-76.996-11.312-108.28m41.418 84.77-20 20.145m7.8008-3.5742 13.211-13.309m-1.9688-6.5742c-9.043 9.1094-18.086 18.219-27.133 27.328m22.527-49.148h-20.648m21.43 4.9766-21.762 21.922m-.53906 4.8203 22.973-23.141m-1.2695-7.2734-20.793 20.941m.14844-19.191h18.906m22.074 51.348c1.1875 0 2.3047-3.4922-.59765-3.668-2.2539-.14063-4.7539 5.5 0 5.5 5.3516 0 4.7695-9.0273-1.1719-9.0273-7.7148 0-16.059 1.082-17.844 7.1953-6.5352-15.895-17.848-9.8242-17.824-5.5039.0156 3.3906 4.1602 3.668 4.7539 1.8359.8125-2.5078-1.1875-3.668-2.9726-1.8359m14.801-51.289-1.1328 1.168-2.3789-2.4453-2.375 2.4453-2.3789-2.4453-2.375 2.4453-2.375-2.4453-2.3789 2.4453-2.375-2.4453-2.3789 2.4453-.26562-.27343m16.969 31.766c-.18359-.14843-.35547-.30859-.51953-.48046-1.9453-2.0547-1.8984-5.3438.10156-7.3438 2-2.0039 5.1953-1.957 7.1406.10156.15625.16406.29688.33593.42969.51953m-21.582 21.734c-.20312-.16016-.39453-.33204-.57421-.52344-1.9453-2.0586-1.9023-5.3477.0977-7.3477 2-2 5.1992-1.9531 7.1445.10547.17188.17969.32813.375.47266.57812m.0742-.0781c-.19531-.15234-.375-.32031-.54688-.5-1.9453-2.0586-1.8984-5.3477.10157-7.3477 2-2 5.1953-1.9531 7.1406.10157.16406.17187.3125.35546.45313.55078m7.2812-7.3359c-.17188-.14063-.33594-.29297-.49219-.45703-1.8984-2.0078-1.9062-5.2031-.0195-7.2227m.004-.0117c-2.0156 1.8906-5.125 1.7969-7.0273-.21485-.14844-.16015-.28907-.32812-.41797-.5039m-.0586.0586c.16797.13672.32813.28516.47657.44531 1.9453 2.0547 1.9023 5.3438-.0977 7.3477-2 2-5.1992 1.9531-7.1445-.10547-.14063-.14844-.27344-.30859-.39453-.47265m-11.559 20.918c1.6523-.30469 3.3398.2539 4.5117 1.4922.17969.19141.34375.39453.49219.60938m-.71485-15.699c.14844.12109.28907.2539.42188.39453 1.9453 2.0586 1.8984 5.3477-.10156 7.3477-1.0117 1.0156-2.3945 1.5469-3.8086 1.4648m10.703-16.477c.16015.13281.30859.27343.44922.42187 1.9453 2.0586 1.9023 5.3477-.0977 7.3477-2 2-5.1992 1.9531-7.1445-.10547-.13281-.14063-.25781-.28906-.375-.44141m2.5 18.176-2.9844 3.0078m32.031-5.8945c-2.0078.21093-3.9844.57031-5.8555 1.1602-1.9726.625-3.8984 1.6055-5.4726 2.9922-2.332-3.6406-5.1133-5.875-7.9101-6.8984m-39.875 10.484c-5.7891-1.9414-11.434-.875-16.742 7.1211-.79296-4.043-3.0937-7.2031-5.3476-10.391-2.3672 3.6562-3.9609 7.3203-4.7539 11.004-3.3437-6.7226-9.1015-8.6562-14.852-10.598m-.0039-38.738c13.246 11.988 27.109 27.516 33.383 41.375m14.969-23.465c-2.0703-3.75-3.1914-8.3164-3.1914-13.016 0-7.5547 2.8867-14.559 7.6094-18.465m-.30859-3.1602c-1.8242 1.2383-3.4531 2.8476-4.8203 4.7188-3.2461 4.4414-5.1523 10.391-5.1523 16.906 0 6.1992 1.7266 11.883 4.6875 16.246m3.0234-49.117c-4.4883 2.1367-8.2891 5.4922-11.109 9.3516-4.793 6.5586-7.2969 14.793-7.2969 23.52s2.5039 16.957 7.2969 23.516c.95312 1.3047 2.0156 2.5508 3.1797 3.7109m2.5781-60.508c-3.1914 2.1836-5.9375 4.9219-8.1328 7.9258-5.2109 7.1328-7.8945 16.027-7.8945 25.355s2.6836 18.223 7.8945 25.352c1.1953 1.6406 2.5586 3.1992 4.0664 4.6328m-5.2031-58.777c-.42969.52344-.84375 1.0586-1.2383 1.6016-5.6289 7.7031-8.4922 17.262-8.4922 27.191s2.8633 19.484 8.4922 27.188c1.4297 1.9609 3.082 3.8203 4.9297 5.5117m-23.012 19.355 1.5-6.9531c.42188-1.957 1.1094-3.9375 2.0664-5.9414 1.0391 1.7188 1.8594 3.4219 2.2227 5.2734l1.3906 7.1055 3.9727-5.9883c2.1445-3.2266 4.1562-4.9609 6.0312-5.8398m-28.797-.89844c3.1484 1.4219 5.7344 3.3398 7.5664 7.0195l3.168 6.3711m21.996-16.281c-6.2695 4.8516-8.7578 11.395-11.617 17.773m-13.887 6.0469c.46875-.004.92579-.12109 1.3438-.34375 4.2226-2.1719 6.1914-2.1719 10.414 0 .95312.50781 2.0937.44531 2.9922-.15625.89453-.60156 1.4062-1.6562 1.3359-2.7539-.06641-1.1016-.70704-2.0781-1.6719-2.5547-5.2852-2.7188-10.445-2.7188-15.73 0-1.25.62109-1.918 2.0508-1.6016 3.4453.31642 1.3906 1.5273 2.375 2.918 2.3633m-.2539-6.3047c-3.0703-8.8906-6.7226-15.996-11.613-19.285m-.0039-90.887c7.5351-6.5976 16.195-11.918 25.422-16.676m-25.43 30.258c9.625-8.4492 20.992-15.199 32.855-21.641m-32.852 26.531c9.875-9.2656 22.117-16.555 35.109-23.605m-10.387 36.625h-24.719m16.637 12.309-4.707-5.9453 4.707-4.8437m0 10.789m-10.695-1.8906 5.1719 6.5273-4.0195 4.6328m5.1484 5.082 4.3945-5.0664m-8.6054-21.594-2.0898 2.1484m14.262 33.145v-35.293m-3.5664 31.297v-31.297m-6.9492 24.098 6.1094-7.043-8.668-10.941 5.9453-6.1133m-7.1328 20.496v-20.496m-2.375 18.293v-18.293m16.746 41.566h-20.312m34.746-48.188c.5664.0234 1.1094-.23047 1.4648-.6836.35156-.45703.47656-1.0547.33203-1.6172-1.1563-4.75-1.1523-6.543-.03906-9.9805.21484-.625.08594-1.3203-.33984-1.8164-.42578-.50001-1.0781-.72266-1.7109-.58594-.62891.13672-1.1406.61328-1.332 1.2422-1.2617 3.9023-1.2617 7-.03907 12.027.18359.80469.86329 1.3828 1.6641 1.4141m-1.3281-14.016-8.4609-8.7031c-.4453 2.6094-.57422 5.4922 2.3789 11.004-3.4961 1.211-6.3125 3.1992-8.3203 6.1133 1.9805.8125 4.75 1.6289 8.3203 2.4414-2.6992 4.5234-2.9844 8.4805-2.3789 12.227 2.5078-3.4727 4.8594-7.0703 8.832-9.4023m-33.875 5.9883c5.293-4.6875 12.676-11.555 20.879-13.387m15.844 5.8516c3.2891.17187 13.883.89453 16.883.89453 6.5351 0 9.3828-3.3945 1.1484-3.3945m-29.711 13.449 2.3867 1.8203c2.2539-3.1211 4.1562-5.918 6.7773-7.8867.16796.0195.33203.0469.5078.0547.31251.0117.62109-.008.9336-.0234m11.977-14.137c4.7539 0 7.1289-.60938 9.5078-.60938 3.5664 0 4.7539-3.0586 1.1875-3.0586h-9.8476m.33984 7.3359c.59375 0 7.1328-.60937 9.5078-.60937 2.3789 0 5.3476-3.0586 0-3.668m-8.914 7.332h5.3476c4.7539 0 8.9141-3.0547 4.1602-3.6641m-22.348-5.1758c2.3437-.80469 8.9453-3.0664 9.8711-3.3828 1.7812-.61327 2.9687-1.2226 4.2734-1.9726 3.1523-1.8164 4.043 1.3594 2.2617 2.582-1.7812 1.2227-2.9727 1.2227-2.9727 1.2227m-17.156 11.895c-.10157.043-.19922.0938-.29297.15235-1.4805.87109-2.7383 1.8867-3.8633 2.9648.28516-.63282.60547-1.2774 1.0117-1.957l1.9609-3.2891-3.6601-.83595c-1.5-.34374-2.8125-.68358-4.0039-1.0195 1.2187-.93358 2.6289-1.6719 4.2773-2.2461l3.0312-1.0508-1.543-2.8828c-.375-.70312-.6875-1.332-.95703-1.918l2.8086 2.8906c.30079.32032.66406.54687 1.0469.67969m-8.8828 106.91-.35547-4.4024m-11.453 4.7617v-4.2773m13.668 28.098c0-10.391-4.7773-26.285 2.9726-26.285 4.1602 0 4.5547 5.9727 1.5977 5.7031-2.1914-.19922-2.1406-2.6445-1.0039-3.2578-3.0664 2.6172-3.2695 6.4062 0 11.613-2.375 1.7148-.59375 9.1719-.59375 11.613 0 5.5039-7.1328 4.3398-7.1328 1.2226 0-3.0547 3.5664-3.0547 4.1602-.60937m-.82031-23.371c-1.2578-1.0703-3.7852-2.9141-6.3086-2.9141-3.5664 0-8.9141 3.0586-8.9141 6.1133 0 1.4375.52343 2.875 1.082 3.9922m14.492 9.0156c-.375.2539-.96093.4414-1.9062.4414-2.9727 0-4.1602-1.8359-4.7539-1.8359-2.168 0-2.8477-2.9883.59374-3.0547 2.375-.0469 3.5664 2.4453 3.5664 2.4453-.73437-1.7305-1.9805-3.5586-.59374-4.8906-4.1875-.83203-5.4023-3.6602-5.3516-7.3359m4.8125 14.406c-.01177.47265-.02735.96875-.0586 1.4883m-3.3867-6.0117c.65624-4.6211 2.7148-4.4297 3.2969.74219m2.4414 4.0039c-.15626 1.4766-.94142 2.3398-2.3516 3.0977-2.5078 1.3516-3.4336-2.6133-3.5547-4.9844m1.1758 4.3594c-4.6992 4.1836-4.543-8.7656-4.1562-9.7656.96875-2.4922 3.1211-3.3594 3.5625.71094m-2.6133 8.6914c-2.8437 2.5625-4.8008-2.082-4.2226-6.2461.74218-5.3476 3.25-7.5586 3.5742-3.7969m-2.7578 9.4375c-2.6016 1.6797-4.4101-2.6953-3.75-6.6094.9375-5.5547 3.7188-5.918 3.2852-.82812m-3.3906 2.9023c-.07422.0117-.14844.0156-.22266.0156-1.3125 0-2.3789-1.6406-2.3789-3.668 0-2.0234 1.0664-3.668 2.3789-3.668.69922 0 1.3594.47656 1.8125 1.3008m-9.539 2.3672c0-1.6875 1.1992-3.0547 2.6758-3.0547 1.4766 0 2.6719 1.3672 2.6719 3.0547s-1.1953 3.0586-2.6719 3.0586c-1.4766 0-2.6758-1.3711-2.6758-3.0586m40.613 5.5039h-13.309m17.973-10.391h-19.105m-8.9375 2.4414c-1.7148-.96094-3.1445-2.1719-3.5664-4.2774m31.164-71.508c.07422-.004.14844-.008.21875-.008 1.9102 0 3.457 1.6406 3.457 3.668 0 2.0234-1.5469 3.668-3.457 3.668-.08984 0-.17969-.004-.26953-.0117m.03516.22266c.25781-.0625.52344-.0937.78906-.0937 1.9062 0 3.4531 1.6406 3.4531 3.668 0 1.582-.95703 2.9883-2.375 3.4805m.18359-21.926c1.3945.51172 2.3281 1.9023 2.3281 3.4688 0 2.0234-1.5469 3.668-3.4531 3.668-.29688 0-.58984-.0391-.875-.12109m5.9648-13.039c.83984.69532 1.332 1.7617 1.332 2.8906 0 2.0273-1.5469 3.668-3.457 3.668-.64453 0-1.2812-.19141-1.8281-.5586m5.2226-6.8867c-.05859-.0586-.11719-.11328-.17578-.16796m-1.8555 23.312c-.31641-.69532-.77344-1.3086-1.332-1.7969.78125-.92578 1.2539-2.1367 1.2539-3.4453 0-1.3008-.46484-2.5-1.2344-3.4219 1.1719-.95703 1.9258-2.4492 1.9258-4.1016 0-.59765-.09766-1.1758-.28125-1.7226.69531-.26954 1.3164-.69922 1.8281-1.2461m-4.9062 22.812c.30859-.12109.60156-.26953.87109-.44531m18.359 29.687c0 4.2812 4.1602 4.2812 4.1602-.60937 0-4.8906-6.539-2.4453-6.539 1.832 0 6.1133 8.914 4.8906 8.914-1.2227 0-7.8398-13.559-9.5352-21.285-8.9258-7.6836.60938-15.395 5.9297-15.457 13.855-.08984 11.074 7.7539 15.621 9.6328 25.988m23.871-36.438c-5.7891-.1914-8.0508 2.4648-8.1094 8.1406-.08984 9.1133 7.7851 10.219 7.125 30.582m-.67578-39.727h-.0117m-25.789.86718c-2.6562 2.543-4.2187 6.793-4.2461 10.586-.08984 11.16 7.7344 15.691 9.5039 26.234m-4.0898-37.535c-2.4141 2.7539-3.5898 7.6484-3.6172 11.301-.08984 11.25 7.707 15.762 9.375 26.484m-3.5039-38.883c-2.7344 2.6914-4.043 8.5156-4.0742 12.398-.09375 11.332 7.6719 15.824 9.2422 26.719m-3.3164-39.793c-2.7773 2.7188-4.0977 9.1602-4.1289 13.074-.09375 11.398 7.6172 15.879 9.0976 26.918m-3.3789-40.398c-2.6445 2.8984-3.8945 9.6562-3.9219 13.48-.09375 11.465 7.5508 15.93 8.9531 27.109m-2.9141-40.93c-2.8711 2.6758-4.2109 9.8359-4.2422 13.82-.09375 11.527 7.4805 15.98 8.8047 27.293m-2.6289-41.246c-2.9766 2.5586-4.3477 9.9023-4.3789 13.953-.09375 11.59 7.4062 16.027 8.6523 27.469m-2.4648-41.445c-2.9922 2.5391-4.3594 9.9141-4.3906 13.977-.09375 11.633 7.3086 16.062 8.4961 27.605m-2.375-41.535c-2.957 2.582-4.293 9.8906-4.3242 13.93-.09375 11.68 7.207 16.098 8.3359 27.742m-2.3477-41.562c-2.875 2.668-4.1602 9.8359-4.1914 13.82-.09375 11.727 7.1055 16.133 8.1797 27.883m-2.3867-41.527c-2.7617 2.7969-4.3125 9.7578-3.9961 13.645.93359 11.574 7.4687 14.633 8.0195 28.02m-1.5703-41.262c-3.2539 2.5664-5.0469 8.8164-4.6523 13.242.91797 10.352 7.457 10.965 7.8555 28.109m-.66016-40.734c-4.0742 1.8906-5.7578 7.6211-5.5937 11.219.50781 11.148 7.6367 9.9258 7.8828 29.602m-3.0781-32.969c-.35937 2.2539-.55859 2.6172-.47265 3.9883.51953 8.2031 7.8789 5.3359 6.8164 29.152m1.8359-41.242c2.9726-4.2773 8.9609-1.0273 11.887 5.5039m-8.957-5.6836c2.6133.95704 5.1719 3.1524 6.5781 6.293m-13.812-4.6914c.64844-.9336 1.5312-1.5508 2.5508-1.8711m4.5078 2.6719c1.9727.82812 3.8086 2.5156 4.9726 5.1133m-10.281-4.8828c3.1094-.10157 6.6523 1.9805 8.4961 6.1055m-6.1094-3.5859c1.7109.86719 3.2734 2.4531 4.3281 4.8086m-3.5937-1.5039c.83984.76953 1.5664 1.7539 2.1133 2.9766m-2.7812-.64063c.48437.66016.92187 1.4024 1.2891 2.2227m-3.0859-.40625c.49219.66406.9336 1.4102 1.3047 2.2422m-3.5273-1.5312c.67188.76562 1.2656 1.6836 1.7461 2.7539m38.031-14.059c-5.7852-.97266-7.6523 3.5469-7.6328 8.5938.0195 5.1641 2.8789 10.355 1.6875 15.242m5.0156-27.25c-5.7852-.97266-8.2344 6.7617-8.2148 11.809.0156 5.1602 3.1992 8.1094 3.1992 15.441m-.55078-27.191c-2.7344 1.8984-4.0781 6.3555-4.2852 9.9375m1.6992-9.6602c-2.1406 2.1602-3.2148 6.0156-3.3984 9.1875m.67969-8.6562c-1.5234 2.2227-2.3086 5.375-2.4609 8.0469m-.18359-7.1523c-.96094 2.0156-1.4766 4.4297-1.6016 6.5391m-1.0039-5.0117c-.4414 1.4648-.69531 3-.77734 4.4023m11.883 19.559s-.71094-9.7812-.59375-12.836c.18359-4.8203 8.914-9.4922 8.914 0 0 6.1133-7.1289 5.5039-7.1289.61328 0-4.8906 5.3476-3.668 5.3476-.61328 0 3.0586-4.1602 2.4453-4.1602 0m-1.1328 11.836c.22266-2.1875 1.0586-3.3086.88672-4.918-.0977-.9375-.94141-3.25-.94141-6.3047m-2.6875 27.199c.5039-1.6445 1.4961-5.0508 1.4961-6.418 0-1.832-.59375-3.0547-.59375-6.1133 0-4.8906 8.3203-6.7227 8.3203 0 0 5.5039-7.1328 6.7266-7.1328 1.8359 0-4.8906 4.7539-3.668 4.7539-1.2227s-2.9688 2.4453-2.9688.60938m-2.5976 11.098c.67968-1.3359 1.4648-3.1836 1.4648-4.5742 0-2.5195-.65234-5.9102-.65234-5.9102m-.64063 4.9375s-1.7344 2.3945-4.1133 2.3945c-2.375 0-3.5625-1.2188-4.7539-1.2188-.59375 0-1.7812 1.2188-1.7812 1.2188v-1.2188c.59375 0 1.168-.59766 1.7812-.61328.59765 0 3.5664 1.832 4.1602 1.832m-23.172-1.832s4.1562 2.4453 5.3476 2.4453c1.7812 0 4.1562-1.2227 5.3476-1.2227 1.1875 0 2.9688.60938 2.9688.60938v-.60938c-1.0039 0-2.3984-.61328-2.9688-.60937-.58984 0-3.5664 1.832-5.3476 1.832m11.883-1.832s-1.1875-3.0586-1.1875-3.668c0-.61328 2.375-6.1133 2.375-7.3359 0-1.2226 1.1914-4.2773 1.1914-4.8906 0-.60938-1.7852-1.832-2.3789-1.832s-2.375 1.2226-3.5664 1.832c-.53125.27343-1.1875-1.2227 3.5664-1.832m-4.7539 4.2773c-2.9726 0-3.4336-2.9922-1.3359-3.7773.80078-.29688 1.9883.1914 2.1562 1.1133m6.3125-4.6719 1.1875-2.4453-1.1875 1.2227v1.2226m-11.887 0-.59375-2.4453 1.1875 1.8359-.59375.60937m12.48-1.832-.52734.68359c-.11328.15235-1.8516.53907-3.0391 1.7617 0 0 0-1.2226-1.5781-1.2226-1.1875 0-1.9883 1.2226-1.9883 1.2226s-1.1875-1.2226-2.375-1.2226l-2.9726-.61328.59375.61328c3.3711-.82032 10.695.32422 11.887-1.2227m-3.5664-1.2227c-2.0117-2.1055-3.5664-1.8359-5.3476 0m16.043 18.949c-2.375 0-3.6055 1.9844-4.793 1.9336-2.3359-.10156-2.9297-1.9336-4.1211-1.9336.59375 0 1.7852-1.8359 4.7539-1.8359 1.7852 0 1.7852 1.8359 4.1602 1.8359m-24.363 0c2.3789 0 3.6055 1.9844 4.793 1.9336 2.3398-.10156 2.9336-1.9336 4.1211-1.9336-.59375 0-1.7812-1.8359-4.7539-1.8359-1.7812 0-1.7812 1.8359-4.1602 1.8359m-44.566 13.445 2.9727-3.668-3.5664-3.0547m5.832 3.0547h-2.2656m4.1562-3.0547-4.1562 6.7227v-6.7227" stroke-width=".72322"/>
  <path d="m130.54 175.96c.58593 1.3945.39844 2.2344.0977 3.3672m.4375.46095c.58985 1.3945.47656 1.6055.17188 2.7383m-.1211-9.7148c.58594 1.3945.44922 1.7578.14454 2.8906m16.437-117.84h14.051m-14.957 2.2422h14.043m-14.879 2.2383h15.801m-18.367 2.2422h19.242m8.6875-3.0547c1.1914-.20703 2.3828 0 3.5664.60938m-6.2383-1.7578c1.1914-.20312 1.7461-.19531 2.9297.41016m3.4258 1.4141c1.1914-.20312 1.2109-.12109 2.3945.48828m.48438-.02734c1.1914-.20703 1.1406-.30078 2.3242.30859m-10.074-6.9492c-.59375 1.2227 2.5273 1.9687 2.9648 1.8711m2.9766-.64844c.36329-.28906.76172-.24219 1.1875 0m1.7891.52734c.35938-.29297.76172-.24219 1.1875 0m-7.4804-1.4062c.35937-.28906.76172-.24219 1.1875 0m-38.871 117.02c.27344.53125.17578.89452 0 1.2226m-.125 2.1406c.27734.53125.17969.89452 0 1.2227m.48828 2.5156c.27735.53125.17578.89453 0 1.2226m-47.309-110.4c1.1875 0 1.7812 2.957 4.1992 3.0078 2.3359.05078 4.7148-3.0078 5.3086-3.0078m14.359.05078c-1.1914 0-1.7852 2.9531-4.1992 3.0078-2.3398.04688-4.7148-3.0078-5.3086-3.0078m-14.953-.05078c1.7812 0 2.7852-3.4219 4.7539-3.668 1.4961-.18359 4.1602 1.8359 4.1602 1.8359m15.449 0s-3.4609-2.0078-4.957-1.8242c-1.9688.24609-2.9727 3.668-4.7539 3.668.79688-.01172 1.3906 3.0469 1.3906 3.0469m-16.043-2.4453c.3125 2.3203 2.875 4.043 2.9687 3.668m4.7539 8.5547c-1.7812 1.8359-2.5859 3.1484-3.5625 4.8906m14.262-6.1133c.59375 2.4453 3.9492 5.332 4.1602 4.8906m-11.293 7.3359c.59375-2.4453 2.9727-1.832 4.1602-.60938m-9.0312-24.73c.07812.28516.11719.58594.11719.89062 0 1.0898-.51562 2.0469-1.2656 2.3477m-.73828.07031c-.86328-.17187-1.5039-1.2031-1.5039-2.418 0-.17578.01563-.35156.04297-.52344m2.1992 2.8711c-.16016.06641-.32422.09766-.48828.09766-.08203 0-.16797-.0078-.25-.02734m16.48-3.1211c.0742.27344.11328.5625.11328.85156 0 1.0117-.44531 1.9141-1.1211 2.2812m-1.6094-.24609c-.48438-.45313-.77734-1.2148-.77734-2.0352 0-.31641.043-.63281.1289-.92578m2.2578 3.207c-.20312.10938-.41797.16406-.63281.16406-.34766 0-.6875-.14062-.97656-.41016m22.012 30.824-2.4883 1.7734m2.4883.0586-2.9375 2.0938m2.9375-.25781-3.3594 2.3906m3.1055-.37891-3.4805 2.4805m3.082-.35938-3.4414 2.4492m3.0742-.35547-3.3867 2.4102m3.0586-.34375-3.3516 2.3867m3.043-.33203-3.3008 2.3516m3.0391-.33203-3.2734 2.332m3.0234-.32031-3.2305 2.3008m3.0195-.31641-3.1992 2.2774m3.0078-.3086-3.168 2.2578m3.0078-.30859-3.1328 2.2305m2.9961-.29687-3.1094 2.2148m2.9922-.30078-3.0703 2.1875m2.9844-.29297-3.0547 2.1758m2.9453 1.5703-3 2.1367m3.0352-3.9961-3.0117 2.1445m2.9453 1.5703-2.9609 2.1094m2.9688-.28125-2.9492 2.1016m2.9609-.27344-2.9141 2.0742m2.9609-.27734-2.9062 2.0703m2.9609-.27344-2.875 2.0469m2.9609-.27344-2.8672 2.0391m2.957-.26953-2.8359 2.0195m2.957-.27344-2.8242 2.0117m2.9531-.26953-2.8008 1.9922m2.957-.26953-2.7891 1.9883m2.9531-.27344-2.7656 1.9727m2.957-.27344-2.7617 1.9648m2.9609-.27344-2.7383 1.9492m2.957-.27344-2.7305 1.9453m2.9648-.27344-2.7109 1.9297m2.9609-.27735-2.7031 1.9258m10.113-12.727 3.4805 4.8086m-3.6445-8.1602 3.2422 4.4805m-3.2539-7.6211 3.0195 4.168m-2.918-7.1562 2.8398 3.9258m-2.625-6.7539 2.6992 3.7305m-2.4024-6.4414 2.5742 3.5547m-2.1992-6.168 2.4844 3.4336m-2.0469-5.9492 2.4102 3.3281m-1.9102-5.7617 2.3438 3.2344m-1.7852-5.5938 2.2812 3.1562m-1.6758-5.4414 2.2305 3.082m-1.582-5.3086 2.1875 3.0195m-1.4922-5.1875 2.1484 2.9648m-1.418-5.082 2.1133 2.918m-1.3516-4.9883 2.0859 2.8828m-1.2891-4.9062 2.0625 2.8438m-1.2344-4.8281 2.0508 2.832m-1.1992-4.7812 2.0273 2.8047m-1.1484-4.7148 2.0078 2.7734m-1.1016-4.6445 1.9961 2.7578m-1.0664-4.5977 1.9648 2.7109m-1.0156-4.5273 1.9687 2.7188m-1-4.5039 1.9531 2.6992m-.94531-4.4336 1.918 2.6484m-14.203 65.465c.27344.53125.17579.89452 0 1.2226m-3.8008-1.625c.58594 1.3945.375 1.6562.0703 2.7891m2.5273-13.98 3.4766 4.1953m-2.8828-.52734 3.918 4.5469m-3.375-.52735 2.8555 2.9336m1.6133 16.887c-.85156-.91797-3.8242.61328-3.8242.61328m-11.828-16.629 3.7109 3.5469m-3.1445-.55469 3.8086 3.6328m-3.168-.58204 3.9102 3.7383m-3.1992-.61328 4.0312 3.8516m-3.2383-.64844 4.1641 3.9766m-3.2852-.69141 4.3125 4.1211m-3.3359-.74219 4.4805 4.2773m-3.4023-.80079 4.668 4.457m-3.4727-.87109 4.918 4.6953m-3.5742-.96875 5.1133 4.8867m-3.6016-1 4.5078 4.3086m-2.8477-.27344 2.8477 2.7188m27.734 1.4297-.625 1.0469m-.5703-2.3047-1.5977 2.6875m.40625-3.9453-1.6016 2.6914m.42969-3.9805-1.6133 2.707m.44532-4.0117-1.6133 2.7109m.45314-4.0195-1.6172 2.7188m.48047-4.0703-1.6289 2.7344m.4961-4.0898-1.6289 2.7383m.51171-4.1211-1.6484 2.7656m.54688-4.1758-1.6484 2.7695m.54688-4.1836-1.6523 2.7734m.58593-4.2422-1.6719 2.8047m.60547-4.2734-1.6719 2.8047m.63282-4.3203-1.6953 2.8516m.67187-4.3906-1.7031 2.8555m.4414-4.8164-1.7226 2.8945m.74219-4.5078-1.7305 2.9102m.76172-4.543-1.7422 2.9297m.8125-4.6289-1.7734 2.9844m.79687-4.6016-1.3594 2.2812" stroke-width=".36161"/>
 </g>
 <g fill="#f00">
  <path d="m155.33 132.94c.89063-.0742 1.8555.73437 1.9336 1.6211.0781.89063-.73437 1.8555-2.0664 1.9727-2.2188.19141-6.082-3.0469-6.9688-2.9688.88672-.0781 4.1289-3.9414 6.3476-4.1367 1.332-.11719 2.2969.69531 2.375 1.582.0781.88672-.73046 1.8555-1.6211 1.9297z"/>
  <path d="m151.42 119.73c.76954-.44922 1.9883-.1211 2.4336.65234.44531.76953.12109 1.9883-1.0391 2.6562-1.9297 1.1133-6.8008-.19141-7.5703.25391.76953-.44532 2.0742-5.3164 4.0039-6.4297 1.1602-.66797 2.3789-.33985 2.8242.42969.44531.77343.11719 1.9883-.65235 2.4375z"/>
  <path d="m153.64 147.54c.83984.30468 1.3711 1.4453 1.0664 2.2852-.30468.83594-1.4453 1.3672-2.7031.91016-2.0938-.76172-4.2266-5.3281-5.0625-5.6328.83594.30468 5.4062-1.8281 7.5-1.0664 1.2578.45703 1.7891 1.6016 1.4844 2.4375-.30468.83594-1.4453 1.3711-2.2852 1.0664z"/>
  <path d="m146.88 159.59c.68359.57031.79297 1.8281.21875 2.5117-.57422.67968-1.8281.79296-2.8516-.0664-1.707-1.4336-2.1484-6.457-2.832-7.0273.68359.57031 5.707.13281 7.4141 1.5625 1.0234.85937 1.1367 2.1172.5625 2.8008-.57422.67968-1.8281.78906-2.5117.21875z"/>
 </g>
 <path d="m94.461 139.04c-.58594-1.3945-.39844-2.2344-.09766-3.3672m-.4375-.46094c-.58984-1.3945-.47656-1.6055-.17188-2.7383m.12109 9.7148c-.58594-1.3945-.44922-1.7578-.14453-2.8906m-16.437 117.84h-14.051m14.957-2.2422h-14.043m14.879-2.2383h-15.801m18.367-2.2422h-19.242m-8.6875 3.0547c-1.1914.20703-2.3828 0-3.5664-.60938m6.2383 1.7578c-1.1914.20312-1.7461.19531-2.9297-.41016m-3.4258-1.4141c-1.1914.20312-1.2109.12109-2.3945-.48828m-.48438.0273c-1.1914.20703-1.1406.30078-2.3242-.30859m10.074 6.9492c.59374-1.2226-2.5273-1.9688-2.9648-1.8711m-2.9766.64844c-.36329.28906-.76172.24219-1.1875 0m-1.7891-.52734c-.35938.29296-.76172.24218-1.1875 0m7.4805 1.4062c-.35938.28907-.76172.24219-1.1875 0m38.871-117.02c-.27344-.53125-.17578-.89453 0-1.2226m.125-2.1406c-.27734-.53125-.17969-.89453 0-1.2227m-.48828-2.5156c-.27734-.53125-.17578-.89453 0-1.2226m47.309 110.4c-1.1875 0-1.7812-2.957-4.1992-3.0078-2.3359-.0508-4.7148 3.0078-5.3086 3.0078m-14.359-.0508c1.1914 0 1.7852-2.9531 4.1992-3.0078 2.3398-.0469 4.7148 3.0078 5.3086 3.0078m14.953.0508c-1.7812 0-2.7852 3.4219-4.7539 3.668-1.4961.1836-4.1602-1.8359-4.1602-1.8359m-15.449 0s3.4609 2.0078 4.957 1.8242c1.9688-.24609 2.9727-3.668 4.7539-3.668-.79687.0117-1.3906-3.0469-1.3906-3.0469m16.043 2.4453c-.3125-2.3203-2.875-4.043-2.9688-3.668m-4.7539-8.5547c1.7812-1.8359 2.5859-3.1484 3.5625-4.8906m-14.262 6.1133c-.59375-2.4453-3.9492-5.332-4.1602-4.8906m11.293-7.3359c-.59375 2.4453-2.9726 1.832-4.1602.60937m9.0312 24.73c-.0781-.28515-.11719-.58593-.11719-.89062 0-1.0898.51563-2.0469 1.2656-2.3477m.73828-.0703c.86328.17188 1.5039 1.2031 1.5039 2.418 0 .17578-.0156.35156-.043.52344m-2.1992-2.8711c.16016-.0664.32422-.0976.48828-.0976.082 0 .16797.008.25.0273m-16.48 3.1211c-.0742-.27343-.11328-.5625-.11328-.85156 0-1.0117.44531-1.9141 1.1211-2.2812m1.6094.24609c.48438.45313.77734 1.2148.77734 2.0352 0 .31641-.043.63281-.1289.92578m-2.2578-3.207c.20312-.10937.41797-.16406.63281-.16406.34766 0 .6875.14062.97656.41015m-22.012-30.824 2.4883-1.7734m-2.4883-.0586 2.9375-2.0938m-2.9375.25782 3.3594-2.3906m-3.1055.37891 3.4805-2.4805m-3.082.35937 3.4414-2.4492m-3.0742.35547 3.3867-2.4102m-3.0586.34375 3.3516-2.3867m-3.043.33203 3.3008-2.3516m-3.0391.33203 3.2734-2.332m-3.0234.32031 3.2305-2.3008m-3.0195.3164 3.1992-2.2773m-3.0078.30859 3.168-2.2578m-3.0078.30859 3.1328-2.2305m-2.9961.29687 3.1094-2.2148m-2.9922.30078 3.0703-2.1875m-2.9844.29297 3.0547-2.1758m-2.9453-1.5703 3-2.1367m-3.0352 3.9961 3.0117-2.1445m-2.9453-1.5703 2.9609-2.1094m-2.9688.28125 2.9492-2.1016m-2.9609.27343 2.9141-2.0742m-2.9609.27735 2.9062-2.0703m-2.9609.27343 2.875-2.0469m-2.9609.27344 2.8672-2.0391m-2.957.26954 2.8359-2.0195m-2.957.27344 2.8242-2.0117m-2.9531.26953 2.8008-1.9922m-2.957.26953 2.7891-1.9883m-2.9531.27343 2.7656-1.9726m-2.957.27343 2.7617-1.9648m-2.9609.27343 2.7383-1.9492m-2.957.27343 2.7305-1.9453m-2.9648.27344 2.7109-1.9297m-2.9609.27735 2.7031-1.9258m-10.113 12.727-3.4805-4.8086m3.6445 8.1602-3.2422-4.4805m3.2539 7.6211-3.0195-4.168m2.918 7.1562-2.8398-3.9258m2.625 6.7539-2.6992-3.7305m2.4023 6.4414-2.5742-3.5547m2.1992 6.168-2.4844-3.4336m2.0469 5.9492-2.4102-3.3281m1.9102 5.7617-2.3437-3.2344m1.7852 5.5938-2.2812-3.1562m1.6758 5.4414-2.2305-3.082m1.582 5.3086-2.1875-3.0195m1.4922 5.1875-2.1484-2.9648m1.418 5.082-2.1133-2.918m1.3516 4.9883-2.0859-2.8828m1.2891 4.9062-2.0625-2.8438m1.2344 4.8281-2.0508-2.832m1.1992 4.7812-2.0273-2.8047m1.1484 4.7148-2.0078-2.7734m1.1016 4.6445-1.9961-2.7578m1.0664 4.5977-1.9648-2.7109m1.0156 4.5274-1.9687-2.7188m1 4.5039-1.9531-2.6992m.94531 4.4336-1.918-2.6484m14.203-65.465c-.27344-.53125-.17578-.89453 0-1.2226m3.8008 1.625c-.58594-1.3945-.375-1.6563-.07031-2.7891m-2.5273 13.98-3.4766-4.1953m2.8828.52734-3.918-4.5469m3.375.52735-2.8555-2.9336m-1.6133-16.887c.85156.91797 3.8242-.61328 3.8242-.61328m11.828 16.629-3.7109-3.5469m3.1445.55468-3.8086-3.6328m3.168.58203-3.9102-3.7383m3.1992.61328-4.0312-3.8516m3.2383.64844-4.1641-3.9766m3.2852.69141-4.3125-4.1211m3.3359.74219-4.4805-4.2773m3.4023.80078-4.668-4.457m3.4727.87109-4.918-4.6953m3.5742.96875-5.1133-4.8867m3.6016 1-4.5078-4.3086m2.8477.27343-2.8477-2.7188m-27.734-1.4297.625-1.0469m.57031 2.3047 1.5977-2.6875m-.40625 3.9453 1.6016-2.6914m-.42969 3.9805 1.6133-2.707m-.44532 4.0117 1.6133-2.7109m-.45314 4.0195 1.6172-2.7188m-.48047 4.0703 1.6289-2.7344m-.4961 4.0898 1.6289-2.7383m-.51172 4.1211 1.6484-2.7656m-.54688 4.1758 1.6484-2.7695m-.54688 4.1836 1.6523-2.7734m-.58594 4.2422 1.6719-2.8047m-.60547 4.2734 1.6719-2.8047m-.63281 4.3203 1.6953-2.8516m-.67188 4.3906 1.7031-2.8555m-.44141 4.8164 1.7227-2.8945m-.74219 4.5078 1.7305-2.9102m-.76172 4.543 1.7422-2.9297m-.8125 4.6289 1.7734-2.9844m-.79687 4.6016 1.3594-2.2812" fill="none" stroke="#4242ff" stroke-linecap="round" stroke-linejoin="round" stroke-width=".36161"/>
 <g fill="#f00">
  <path d="m69.668 182.06c-.89062.0742-1.8555-.73438-1.9336-1.6211-.07813-.89063.73438-1.8555 2.0664-1.9727 2.2188-.19141 6.082 3.0469 6.9688 2.9688-.88672.0781-4.1289 3.9414-6.3477 4.1367-1.332.11719-2.2969-.69531-2.375-1.582-.07813-.88672.73047-1.8555 1.6211-1.9297z"/>
  <path d="m73.578 195.27c-.76953.44922-1.9883.1211-2.4336-.65234-.44531-.76953-.12109-1.9883 1.0391-2.6562 1.9297-1.1133 6.8008.19141 7.5703-.25391-.76953.44532-2.0742 5.3164-4.0039 6.4297-1.1602.66797-2.3789.33985-2.8242-.42969-.44531-.77343-.11719-1.9883.65234-2.4375z"/>
  <path d="m71.363 167.46c-.83984-.30468-1.3711-1.4453-1.0664-2.2852.30469-.83594 1.4453-1.3672 2.7031-.91016 2.0938.76172 4.2266 5.3281 5.0625 5.6328-.83594-.30468-5.4062 1.8281-7.5 1.0664-1.2578-.45703-1.7891-1.6016-1.4844-2.4375s1.4453-1.3711 2.2852-1.0664z"/>
  <path d="m78.125 155.41c-.68359-.57031-.79297-1.8281-.21875-2.5117.57422-.67968 1.8281-.79297 2.8516.0664 1.707 1.4336 2.1484 6.457 2.832 7.0273-.68359-.57031-5.707-.13281-7.4141-1.5625-1.0234-.85937-1.1367-2.1172-.5625-2.8008.57422-.67969 1.8281-.78906 2.5117-.21875z"/>
 </g>
 <path d="m11.699 12.449h6m-3 0v27.602m-3 0h6m5.1016-27.602h6m-3 .60156-10.652 17.848m7.6523 9.1523h6m-3-.60156-5.8516-15.301" fill="none" stroke="#f00" stroke-linecap="square" stroke-miterlimit="1.5" stroke-width="2.4"/>
 <path d="m20.25 52.211c0-2.0898 2.0938-4.1836 4.1836-4.1836s4.1836 2.0938 4.1836 5.2305c0 5.2266-8.3672 13.594-8.3672 15.684 0-2.0898-8.3633-10.457-8.3633-15.684 0-3.1367 2.0898-5.2305 4.1797-5.2305 2.0938 0 4.1836 2.0938 4.1836 4.1836z" fill="#f00"/>
 <path d="m54.523 46.648c0-4.3477 4.3516-8.6992 8.7031-8.6992 4.3477 0 8.6992 4.3516 8.6992 10.875 0 10.875-17.402 28.277-17.402 32.625 0-4.3477-17.398-21.75-17.398-32.625 0-6.5234 4.3516-10.875 8.6992-10.875 4.3516 0 8.6992 4.3516 8.6992 8.6992z" fill="#f00"/>
 <path d="m213.3 302.55h-6m3 0v-27.602m3 0h-6m-5.1016 27.602h-6m3-.60156 10.652-17.848m-7.6523-9.1523h-6m3 .60156 5.8516 15.301" fill="none" stroke="#f00" stroke-linecap="square" stroke-miterlimit="1.5" stroke-width="2.4"/>
 <path d="m204.75 262.79c0 2.0898-2.0938 4.1836-4.1836 4.1836-2.0898 0-4.1836-2.0938-4.1836-5.2305 0-5.2266 8.3672-13.594 8.3672-15.684 0 2.0898 8.3633 10.457 8.3633 15.684 0 3.1367-2.0898 5.2305-4.1797 5.2305-2.0938 0-4.1836-2.0938-4.1836-4.1836z" fill="#f00"/>
 <path d="m170.48 268.35c0 4.3477-4.3516 8.6992-8.7031 8.6992-4.3477 0-8.6992-4.3516-8.6992-10.875 0-10.875 17.402-28.277 17.402-32.625 0 4.3477 17.398 21.75 17.398 32.625 0 6.5234-4.3516 10.875-8.6992 10.875-4.3516 0-8.6992-4.3516-8.6992-8.6992z" fill="#f00"/>
 <path d="m35.25 35.25h154.5v244.5h-154.5z" fill="none" stroke="#4242ff" stroke-width=".9375"/>
</svg>
