<svg width="225px" height="315px" version="1.1" viewBox="0 0 225 315" xmlns="http://www.w3.org/2000/svg">
 <g>
  <path d="m11.719.46875h201.56c6.2148 0 11.25 5.0352 11.25 11.25v291.56c0 6.2148-5.0352 11.25-11.25 11.25h-201.56c-6.2148 0-11.25-5.0352-11.25-11.25v-291.56c0-6.2148 5.0352-11.25 11.25-11.25z" fill="#fff"/>
  <path d="m130.11 35.25 23.531 38.746c3.625-1.9648 7.207-3.2773 11.75-1.4609-3.5352-11.449-7.875-22.699 1.3867-37.285zm-36.031 7.2031c-7.9805 10.906-16.305 31.352-24.863 57.914l1.8594-1.1016-2.1406 1.3398c10.648 7.5898 22.414 12.199 34.641 13.902 3.5 10.078 5.457 21.723 6.3164 32.203 1.918.625 3.9727 1.4297 6.125 2.3867 5.0508 2.25 8.043 2.8828 10.188 2.9102.53906-12.43 1.7539-26.848 5.8711-38.609l-.24609.0117c7.5234-1.5938 15.043-4.2109 22.41-7.8398l-2.3086-2.2539c-27.418 13.141-56.496 11.867-80.195-4.4453l13.84-8.2344c3.1797-9.5508 6.4023-18.16 9.5938-25.57-.5625-4.5-1.0859-9.2617-1.0859-10.258zm91.516 55.754c-6.2148.97266-7.6875 6.3086-6.5352 14.059 7.3633-1.6914 2.3047-10.164 6.5352-14.059zm-121.17 6.5664c-2.9492 3.0938-5.0273 6.5156-6.0195 9.7539-.19531.64454-.35156 1.293-.46094 1.8945-.5625-.47657-1.3438-1.2422-2.3984-2.9492-.83984.86328-2.1016 3.0234-1.2617 3.8906-.83984-.86719-2.9414.42969-3.7812 1.2969 2.2461 1.4688 2.8125 2.4141 3.207 3.0391-.94141.11719-1.9297.32812-2.9062.64844-3.2227 1.043-6.6328 3.2578-9.6953 6.4062-2.7266 2.8086-4.7305 5.8984-5.8555 8.8828v4.7188c.30469-.0625.60938-.10156.92188-.11328 1.3555-.0508 2.7344.42187 3.793 1.5156 2.125 2.1836 1.8438 5.6719-.10156 7.6719-1.2031 1.2344-2.9492 1.8164-4.6133 1.5703v8.2891c.875-1.4961 1.5508-3.0039 2-4.4726.25391-.82422.4375-1.6562.58203-2.5312.62109.33984 1.4922 1.0273 2.7656 3.0859.83984-.86328 2.1016-3.0234 1.2617-3.8906.83984.86719 2.9375-.42969 3.7812-1.2969-1.8672-1.2188-2.5742-2.0781-2.9492-2.6719.73047-.10938 1.4492-.28516 2.1602-.51563 3.2266-1.0469 6.6367-3.2578 9.6992-6.4102 3.0625-3.1484 5.2148-6.6602 6.2305-9.9727.30469-.99609.51172-2 .58984-2.9961.56641.36328 1.5039.89453 2.9961 3.3047.83984-.86328 2.1016-3.0273 1.2578-3.8906.84375.86328 2.9414-.42969 3.7852-1.2969-1.6836-1.0977-2.4219-1.9062-2.8516-2.4844.60156-.10156 1.2148-.26172 1.8242-.45703 1.7734-.57422 3.6055-1.5039 5.4023-2.75-18.477 22.152-14.793 59.012-19.762 74.852 0 0 2.0391 3.3945 2.6523 1.6133 1.1992-3.4609 1.8125-7.5781 2.3906-12.191.86719-6.9883 1.4531-15.133 2.6367-23.504 2.2773-16.145 6.7422-32.84 19.004-43.562l-.44531-3.5664 1.2969-1.0625-3.6055-1.6602c-.70312.95703-1.5039 1.9102-2.3945 2.8281-2.7344 2.8125-5.793 4.7422-8.3477 5.5703-.41406.13281-.8125.23828-1.1719.23828 1.1562-1.1094 1.5352-2.5508 7.1523-7.2617-.77344-.79297-3.1523-1.5117-4.832.21484 1.6797-1.7266.98047-4.1758.20703-4.9688-4.7227 5.9609-6.0625 6.1836-7.1211 7.5156.02734-.38282.14063-.85938.29688-1.3672.80469-2.625 2.6797-5.7734 5.4141-8.5859.07813-.0781.15234-.15625.23047-.23437zm102.91 1.082c-1.2188-.0156-2.4766.25781-3.7305.91016 5.4688-.4375 4.7148 9.8476 13.664 7.3359-.96484-3.6484-5.1484-8.1836-9.9336-8.2461zm-9.4492 3.1562c-3.0312 6.1133-3.582 17.625-5.043 30.598l-.25781-.004c-.40235-.10938-.81641-.20313-1.2383-.27344-8.3477-1.4023-16.547 5.8711-18.309 16.238-1.668 9.7891 2.9961 18.844 10.566 20.977 2.8594-5.7422 4.8281-11.953 6.25-18.238-1.4219 6.2812-3.3828 12.484-6.2305 18.207l-.22656 6.8477 2.8711-5.457c6.5195-13.102 8.5117-28.199 9.875-41.164.68359-6.4844 1.1992-12.445 1.9688-17.281.69531-2.7734 1.0117-5.8555 2.1211-8.4375zm-97.691 8.7773c1.2695.0117 2.543.49219 3.5391 1.5195 2.125 2.1836 1.8398 5.668-.10547 7.6719-1.9414 2-5.332 2.293-7.457.10547-2.125-2.1836-1.8398-5.6719.10547-7.6719.97266-1 2.3047-1.5742 3.6602-1.6211.08594-.004.17188-.008.25781-.004zm-6.9297 7.6758c-.85547 1.0625-1.9336 2.7266-6.5469 6.5938.76953.79297 3.1523 1.5117 4.832-.21875-1.6797 1.7305-.98047 4.1797-.21094 4.9727 3.7734-4.7617 5.3906-5.8633 6.4141-6.7344-.0625.4375-.17188.8711-.3125 1.3281-.80469 2.625-2.6758 5.7734-5.4141 8.5859-2.7344 2.8164-5.793 4.7422-8.3477 5.5703-.41016.13281-.80078.23828-1.1797.26172.99219-1.0781 1.6484-2.6172 6.9219-7.0391-.76953-.79297-3.1523-1.5117-4.832.21875 1.6797-1.7305.98047-4.1797.20703-4.9727-4.4688 5.6406-5.9102 6.1445-6.9141 7.2695.06641-.41797.17969-.87891.32813-1.3633.80469-2.6289 2.6797-5.7734 5.4141-8.5898 2.7344-2.8125 5.793-4.7383 8.3477-5.5664.44922-.14844.875-.25781 1.293-.31641zm136.48 6.1797-23.648 22.523-.59375 3.668 24.242-23.09zm-134.89 17.297c-.98438 0-1.7812.82031-1.7812 1.8359 0 1.0117.79688 1.832 1.7812 1.832s1.7812-.82031 1.7812-1.832c0-1.0156-.79688-1.8359-1.7812-1.8359zm-15.043 14.352c-.98438 0-1.7812.82031-1.7812 1.832s.79688 1.8359 1.7812 1.8359 1.7852-.82422 1.7852-1.8359-.80078-1.832-1.7852-1.832z" fill="#ffcc42"/>
  <path d="m94.895 279.75-23.531-38.746c-3.625 1.9648-7.207 3.2773-11.75 1.4609 3.5352 11.449 7.875 22.699-1.3867 37.285zm36.031-7.2031c7.9805-10.906 16.305-31.352 24.863-57.914l-1.8594 1.1016 2.1406-1.3398c-10.648-7.5898-22.414-12.199-34.641-13.902-3.5-10.078-5.457-21.723-6.3164-32.203-1.918-.625-3.9726-1.4297-6.125-2.3867-5.0508-2.25-8.043-2.8828-10.187-2.9102-.53906 12.43-1.7539 26.848-5.8711 38.609l.24609-.0117c-7.5234 1.5938-15.043 4.2109-22.41 7.8398l2.3086 2.2539c27.418-13.141 56.496-11.867 80.195 4.4453l-13.84 8.2344c-3.1797 9.5508-6.4024 18.16-9.5938 25.57.5625 4.5 1.0859 9.2617 1.0859 10.258zm-91.516-55.754c6.2148-.97266 7.6875-6.3086 6.5352-14.059-7.3633 1.6914-2.3047 10.164-6.5352 14.059zm121.17-6.5664c2.9492-3.0938 5.0274-6.5156 6.0195-9.7539.19531-.64454.35156-1.293.46093-1.8945.5625.47657 1.3438 1.2422 2.3984 2.9492.83984-.86328 2.1016-3.0234 1.2617-3.8906.83984.86719 2.9414-.42969 3.7812-1.2969-2.2461-1.4688-2.8125-2.4141-3.207-3.0391.9414-.11719 1.9297-.32812 2.9062-.64844 3.2226-1.043 6.6328-3.2578 9.6953-6.4062 2.7266-2.8086 4.7305-5.8984 5.8555-8.8828v-4.7188c-.30469.0625-.60938.10156-.92188.11328-1.3555.0508-2.7344-.42187-3.793-1.5156-2.125-2.1836-1.8438-5.6719.10156-7.6719 1.2031-1.2344 2.9492-1.8164 4.6133-1.5703v-8.2891c-.875 1.4961-1.5508 3.0039-2 4.4726-.25391.82422-.4375 1.6562-.58203 2.5312-.6211-.33984-1.4922-1.0273-2.7656-3.0859-.83984.86328-2.1016 3.0234-1.2617 3.8906-.83984-.86719-2.9375.42969-3.7812 1.2969 1.8672 1.2188 2.5742 2.0781 2.9492 2.6719-.73047.10938-1.4492.28516-2.1602.51563-3.2266 1.0469-6.6367 3.2578-9.6992 6.4102-3.0625 3.1484-5.2148 6.6602-6.2305 9.9727-.30469.99609-.51172 2-.58984 2.9961-.56641-.36328-1.5039-.89453-2.9961-3.3047-.83984.86329-2.1016 3.0274-1.2578 3.8906-.84375-.86328-2.9414.42969-3.7852 1.2969 1.6836 1.0977 2.4219 1.9062 2.8516 2.4844-.60157.10156-1.2148.26172-1.8242.45703-1.7734.57422-3.6055 1.5039-5.4024 2.75 18.477-22.152 14.793-59.012 19.762-74.852 0 0-2.0391-3.3945-2.6523-1.6133-1.1992 3.4609-1.8125 7.5781-2.3906 12.191-.86718 6.9883-1.4531 15.133-2.6367 23.504-2.2773 16.145-6.7422 32.84-19.004 43.562l.44531 3.5664-1.2969 1.0625 3.6055 1.6602c.70313-.95703 1.5039-1.9102 2.3945-2.8281 2.7344-2.8125 5.793-4.7422 8.3476-5.5703.41406-.13281.8125-.23828 1.1719-.23828-1.1562 1.1094-1.5352 2.5508-7.1524 7.2617.77344.79297 3.1524 1.5117 4.832-.21484-1.6797 1.7266-.98046 4.1758-.20703 4.9688 4.7227-5.9609 6.0625-6.1836 7.1211-7.5156-.0273.38282-.14063.85938-.29688 1.3672-.80469 2.625-2.6797 5.7734-5.4141 8.5859-.0781.0781-.15234.15625-.23047.23437zm-102.91-1.082c1.2188.0156 2.4766-.25781 3.7305-.91016-5.4688.4375-4.7148-9.8476-13.664-7.3359.96484 3.6484 5.1484 8.1836 9.9336 8.2461zm9.4492-3.1562c3.0312-6.1133 3.582-17.625 5.043-30.598l.25781.004c.40234.10938.81641.20313 1.2383.27344 8.3477 1.4023 16.547-5.8711 18.309-16.238 1.668-9.7891-2.9961-18.844-10.566-20.977-2.8594 5.7422-4.8281 11.953-6.25 18.238 1.4219-6.2812 3.3828-12.484 6.2305-18.207l.22656-6.8476-2.8711 5.457c-6.5195 13.102-8.5117 28.199-9.875 41.164-.68359 6.4844-1.1992 12.445-1.9688 17.281-.69531 2.7734-1.0117 5.8555-2.1211 8.4375zm97.691-8.7773c-1.2695-.0117-2.543-.49219-3.5391-1.5195-2.125-2.1836-1.8398-5.668.10547-7.6719 1.9414-2 5.332-2.293 7.457-.10547 2.125 2.1836 1.8398 5.6719-.10546 7.6719-.97266 1-2.3047 1.5742-3.6602 1.6211-.0859.004-.17188.008-.25781.004zm6.9297-7.6758c.85547-1.0625 1.9336-2.7266 6.5469-6.5938-.76953-.79297-3.1523-1.5117-4.832.21875 1.6797-1.7305.98047-4.1797.21094-4.9727-3.7734 4.7617-5.3906 5.8633-6.4141 6.7344.0625-.4375.17188-.87109.3125-1.3281.80469-2.625 2.6758-5.7734 5.4141-8.5859 2.7344-2.8164 5.793-4.7422 8.3476-5.5703.41016-.13281.80078-.23828 1.1797-.26172-.99219 1.0781-1.6484 2.6172-6.9219 7.0391.76954.79297 3.1524 1.5117 4.832-.21875-1.6797 1.7305-.98047 4.1797-.20704 4.9727 4.4688-5.6406 5.9102-6.1445 6.9141-7.2695-.0664.41797-.17969.8789-.32813 1.3633-.80469 2.6289-2.6797 5.7734-5.4141 8.5898-2.7344 2.8125-5.793 4.7383-8.3477 5.5664-.44922.14844-.875.25781-1.293.31641zm-136.48-6.1797 23.648-22.523.59375-3.668-24.242 23.09zm134.89-17.297c.98438 0 1.7812-.82031 1.7812-1.8359 0-1.0117-.79687-1.832-1.7812-1.832-.98437 0-1.7812.82032-1.7812 1.832 0 1.0156.79688 1.8359 1.7812 1.8359zm15.043-14.352c.98438 0 1.7812-.82031 1.7812-1.832s-.79687-1.8359-1.7812-1.8359c-.98437 0-1.7852.82422-1.7852 1.8359s.80078 1.832 1.7852 1.832z" fill="#ffcc42"/>
  <path d="m123.91 35.25 24.492 41.727c1.8125-.96875 3.4961-2.0156 5.2188-2.9766l-23.52-38.75zm15.328 4.2773c-3.6953 1.0195-4.9375.53906-6.4141.20703l6.8906 11.254c.82422-2.3789 1.6914-4.7578 3.0859-7.1797-.25391-2.0156.27343-2.6641.59375-3.668-2.0547.25-3.2266-.10156-4.1562-.61328zm19.609 29.953c-1.8203.46875-5.375.57812-7.8555.05469l2.7734 4.4023c3.1055-1.6758 6.1602-2.8281 9.8164-1.9961-1.8125-.70312-3.6758-1.375-4.7344-2.4609zm15.449 2.4453c0 1.7695-1.3477 3.4297-2.3281 4.6758-3.3867-2.6133-8.1524 2.5547-5.6719 5.7891-1.1602.99609-2.7695 2.3711-4.4805 2.3711 1.6992 0 3.293 1.3516 4.5234 2.2852-2.6992 3.1836 2.2812 8.625 5.6328 5.7773.88672 1.2383 2.3242 2.9492 2.3242 4.7734 0-1.9766 1.6797-3.8164 2.5547-5.0859 3.4414 3.6328 9.0586-2.4609 5.7461-5.7109 1.1602-.91406 2.625-2.0391 4.1758-2.0391-1.5234 0-2.9609-1.0859-4.1367-2.0234 3.2539-3.2852-2.3438-9.3477-5.8047-5.7656-.91016-1.293-2.5352-3.1055-2.5352-5.0469zm-.008 4.5156c.0977 0 .1914.03906.25781.10938.0703.07031.10547.16406.10547.26562v2.7656c2.4688.18359 4.5 2.2734 4.6797 4.8125h3.2852c.125 0 .2461.06641.3125.18359.0625.11328.0625.25391 0 .36719-.0664.11328-.1875.18359-.3125.18359h-3.2852c-.17969 2.5391-2.2109 4.6289-4.6797 4.8125v3.3789c.004.12891-.0664.25391-.17578.32031-.11328.06641-.25.06641-.35938 0-.11328-.06641-.17968-.19141-.17578-.32031v-3.3789c-2.4726-.18359-4.5-2.2734-4.6836-4.8125h-3.2812c-.12891 0-.2461-.07031-.3125-.18359-.0664-.11328-.0664-.25391 0-.36719.0664-.11719.18359-.18359.3125-.18359h3.2812c.18359-2.5391 2.2109-4.6289 4.6836-4.8125v-2.7656c-.004-.20312.15235-.37109.34766-.375zm-82.254 10.336-6.7422 4.0273c20.098 11.414 38.797 7.6836 57.293 1.9062-1.3438-1.8164-2.6328-3.707-3.8711-5.6953l-.0469-.10156c-16.039 4.8828-30.652 7.5547-46.633-.13672zm-10.367 27.891-1.4883.98828c1.1758 7.1445 1.7266 15.512 1.2266 22.766 3.7148 1.0664 6.7266 3.793 8.6875 7.5 1.8555-.5039 3.7773-.92187 5.8633-1.1172.75-.0703 1.5039-.10938 2.2695-.11719 2.7891-.0273 5.6953.36719 8.7695 1.168-.80469-8.1953-2.3398-17.527-4.6016-25.359-7.0781-1.0664-14.035-2.9883-20.727-5.8281zm59.988 2.4609-8.3359 2.1367c-2.8477 10.305-3.6758 21.066-4.1289 32.215 1.5508-.28906 3.3789-1.1211 6.0195-2.4688v-.0703c1.6914-3.3125 4.1133-5.9805 6.918-7.707zm-81.605 4.3086c-.46094.0156-.91406.21875-1.2578.57031-.69531.71485-.74219 1.8281-.10156 2.4844.63672.65625 1.7188.60937 2.4141-.10547.69531-.71875.74219-1.832.10547-2.4883-.30078-.3086-.71875-.47266-1.1602-.46094zm124.43 4.5c1.7578.94141 3.5117 1.8711 5.2617 2.7891v-.008zm-148.2 19.949c-.36719.0117-.73047.14453-1.0352.3789v2.9297c.65234.37891 1.5156.23047 2.0898-.35937.69531-.71485.74219-1.8281.10547-2.4844-.30078-.3125-.71875-.47656-1.1602-.46484zm63.141 6.1133c-.65625 0-1.1875.54687-1.1875 1.2227 0 .67187.53125 1.2226 1.1875 1.2226.65625 0 1.1914-.55078 1.1914-1.2226 0-.67579-.53516-1.2227-1.1914-1.2227zm13.074 4.2773c-.65625 0-1.1875.54688-1.1875 1.2227s.53125 1.2227 1.1875 1.2227 1.1875-.54688 1.1875-1.2227-.53125-1.2227-1.1875-1.2227z" fill="#f00"/>
  <path d="m101.09 279.75-24.492-41.727c-1.8125.96875-3.4961 2.0156-5.2188 2.9766l23.52 38.75zm-15.328-4.2773c3.6953-1.0195 4.9375-.53907 6.4141-.20704l-6.8906-11.254c-.82422 2.3789-1.6914 4.7578-3.0859 7.1797.25391 2.0156-.27344 2.6641-.59375 3.668 2.0547-.25 3.2266.10157 4.1562.61329zm-19.609-29.953c1.8203-.46875 5.375-.57812 7.8555-.0547l-2.7734-4.4023c-3.1055 1.6758-6.1602 2.8281-9.8164 1.9961 1.8125.70313 3.6758 1.375 4.7344 2.4609zm-15.449-2.4453c0-1.7695 1.3477-3.4297 2.3281-4.6758 3.3867 2.6133 8.1523-2.5547 5.6719-5.7891 1.1602-.99609 2.7695-2.3711 4.4805-2.3711-1.6992 0-3.293-1.3516-4.5234-2.2852 2.6992-3.1836-2.2812-8.625-5.6328-5.7773-.88672-1.2383-2.3242-2.9492-2.3242-4.7734 0 1.9766-1.6797 3.8164-2.5547 5.0859-3.4414-3.6328-9.0586 2.4609-5.7461 5.7109-1.1602.91406-2.625 2.0391-4.1758 2.0391 1.5234 0 2.9609 1.0859 4.1367 2.0234-3.2539 3.2852 2.3438 9.3476 5.8047 5.7656.91016 1.293 2.5352 3.1055 2.5352 5.0469zm.0078-4.5156c-.09766 0-.19141-.0391-.25781-.10937-.07031-.0703-.10547-.16406-.10547-.26563v-2.7656c-2.4688-.1836-4.5-2.2734-4.6797-4.8125h-3.2852c-.125 0-.24609-.0664-.3125-.1836-.0625-.11328-.0625-.2539 0-.36718.06641-.11328.1875-.1836.3125-.1836h3.2852c.17969-2.5391 2.2109-4.6289 4.6797-4.8125v-3.3789c-.0039-.12891.06641-.25391.17578-.32032.11328-.0664.25-.0664.35938 0 .11328.0664.17969.19141.17578.32032v3.3789c2.4727.1836 4.5 2.2734 4.6836 4.8125h3.2812c.12891 0 .24609.0703.3125.1836.06641.11328.06641.2539 0 .36718-.06641.11719-.18359.1836-.3125.1836h-3.2812c-.18359 2.5391-2.2109 4.6289-4.6836 4.8125v2.7656c.0039.20313-.15234.3711-.34766.375zm82.254-10.336 6.7422-4.0274c-20.098-11.414-38.797-7.6836-57.293-1.9062 1.3438 1.8164 2.6328 3.707 3.8711 5.6953l.04687.10157c16.039-4.8828 30.652-7.5547 46.633.13672zm10.367-27.891 1.4883-.98828c-1.1758-7.1445-1.7266-15.512-1.2266-22.766-3.7148-1.0664-6.7266-3.793-8.6875-7.5-1.8555.50391-3.7773.92188-5.8633 1.1172-.75.0703-1.5039.10938-2.2695.11719-2.7891.0273-5.6953-.36719-8.7695-1.168.80469 8.1953 2.3398 17.527 4.6016 25.359 7.0781 1.0664 14.035 2.9883 20.727 5.8281zm-59.988-2.4609 8.3359-2.1367c2.8477-10.305 3.6758-21.066 4.1289-32.215-1.5508.28906-3.3789 1.1211-6.0195 2.4688v.0703c-1.6914 3.3125-4.1133 5.9805-6.918 7.707zm81.605-4.3086c.46094-.0156.91406-.21875 1.2578-.57031.69532-.71485.74219-1.8281.10157-2.4844-.63672-.65625-1.7188-.60937-2.4141.10547-.69531.71875-.74218 1.832-.10546 2.4883.30078.3086.71875.47266 1.1602.46094zm-124.43-4.5c-1.7578-.94141-3.5117-1.8711-5.2617-2.7891v.008zm148.2-19.949c.36719-.0117.73047-.14453 1.0352-.37891v-2.9297c-.65234-.37891-1.5156-.23047-2.0898.35937-.69532.71485-.74219 1.8281-.10547 2.4844.30078.3125.71875.47656 1.1602.46484zm-63.141-6.1133c.65625 0 1.1875-.54688 1.1875-1.2227 0-.67187-.53125-1.2226-1.1875-1.2226s-1.1914.55078-1.1914 1.2226c0 .67578.53516 1.2227 1.1914 1.2227zm-13.074-4.2773c.65625 0 1.1875-.54688 1.1875-1.2227s-.53125-1.2227-1.1875-1.2227-1.1875.54688-1.1875 1.2227.53125 1.2227 1.1875 1.2227z" fill="#f00"/>
  <path d="m97.816 55.629c-.82031 0-1.4883 1.0977-1.4883 2.4531s.66797 2.4531 1.4883 2.4531c.82031 0 1.4844-1.0977 1.4844-2.4531s-.66406-2.4531-1.4844-2.4531zm18.109.30078c-.82031 0-1.4844 1.1016-1.4844 2.457 0 1.3516.66406 2.4531 1.4844 2.4531s1.4844-1.1016 1.4844-2.4531c0-1.3555-.66407-2.457-1.4844-2.457zm-23.793 31.148-1.1523.29297.14453.59375 1.3711 5.6445 4.3438-2.3281 1.707 4.1328 4.2578-2.5039 2.6836 4.1953 3.9219-3.3242 3.1406 3.8555 3.5391-3.7461 3.6172 3.3828 2.8477-3.8008 3.4805 3.2266 2.9922-4.7695 4.4805 2.8516 2.4024-4.3203 4.5391 2.3594.78125-1.8945-.78906-1.2148-.58985 1.4297-4.4141-2.2969-2.3516 4.2344-4.4258-2.8164-2.8672 4.5664-3.3945-3.1445-2.8438 3.793-3.5156-3.2852-3.4219 3.625-3.0547-3.75-3.8086 3.2305-2.5703-4.0156-4.0664 2.3867-1.6875-4.0781-4.1445 2.2188-1.0078-4.1406zm-6.8125 3.7109-13.609 8.1016c23.703 16.293 52.789 17.57 80.117 4.4023-3.293-3.1797-6.3438-6.6523-9.2148-10.547-.64453.19922-1.2891.39453-1.9336.58984l6.7656 5.3867.79688 2.4375c1.5195 4.6328-3.3633 5.0391-4.5039 1.5625l-3.0781-9.3789c-.15235.04297-.30469.08984-.45313.13281l3.0273 9.9336c1.4258 4.668-3.4688 4.9648-4.5352 1.4648l-3.0234-9.9141 3.7305-1.2461c-1.4219.41797-2.8398.82031-4.2656 1.1992l2.2266 10.461c1.0156 4.7773-3.8828 4.625-4.6445 1.043l-2.1602-10.152 3.9844-1.1914c-1.3828.35938-2.7656.70703-4.1562 1.0195l1.6211 10.539c.74219 4.8281-4.1406 4.3828-4.6953.76172l-1.5781-10.262 2.5469-.58594c-.89063.18359-1.7812.35547-2.6719.51172l.76563 10.418c.35937 4.875-4.4688 4.0274-4.7383.36719l-.74219-10.09c-.20313.02344-.40235.04297-.60547.06641l.83984 10.129c.40235 4.8711-4.4375 4.0703-4.7383.41406l-.84375-10.187c-.082.0039-.16797.0039-.2539.0078v10.281c0 4.8906-4.7539 3.668-4.7539 0v-10.297c-.16797-.0078-.33594-.01563-.5-.02344l-.94922 10.082c-.45703 4.8672-5.0742 3.1797-4.7305-.46875l.94531-10.059c-.21875-.03125-.43359-.0625-.64843-.09375l-.92188 9.7188c-.46094 4.8672-5.0781 3.1758-4.7305-.47266l.96094-10.168c-.10547-.02734-.21094-.05469-.32031-.08203l-2.4648 9.6758c-1.207 4.7266-5.5039 2.3047-4.5977-1.2422l1.8633-7.3086-2.7031 6.8281c-1.793 4.5312-5.75 1.5547-4.4062-1.8438l3.2461-8.1914-4.4219 8.5234c-2.2383 4.3125-5.875.93359-4.1953-2.3047l4.4961-8.6602-6.4062 7.8242c-3.0625 3.7383-5.9336-.34766-3.6367-3.1523l1.0195-1.2422 9.2188-3.8125.06641-.12109.10547.05078.04297.01953c-.51953-.27734-1.0352-.55859-1.5547-.85547zm68.043 21.844c-3.9219 1.8164-7.8359 3.2891-11.75 4.5078l.5625 24.066c2.3945-1.4219 5.0195-2.1602 7.7148-2.0391.0586-.41406.10547-.81641.14844-1.2188 1.0664-9.7617 1.4922-18.605 3.3242-25.316zm-24.629 1.3711c-2.8203.49609-5.6562.84375-8.5078 1.0508 5.6094.39453 7.5117 2.7539.83985 3.3594 4.6016.60157 5.2383 2.3906-.83985 3.0234 4.7539.49219 6.3633 2.8555-.18359 3.9844 4.1367.59375 5.1328 2.7461-.0742 3.3476v.88281c3.8047.78907 4.8047 2.3828-.0469 2.7578l-.0195.99218c3.6211.61719 4.4453 1.9922-.043 2.6094l-.0117.54687c3.0117.62891 3.625 1.8125-.043 2.4258l-.0117.6211c3.0742.625 3.707 1.832-.043 2.4453l-.008.60156c3.1328.625 3.7852 1.8477-.043 2.4648l-.004.10156c2.5078.61719 2.9609 1.6445-.0391 2.2422l-.004.1914c2.5547.61719 3.0234 1.6641-.0391 2.2617l-.0117.66016c1.3984.49609 2.6211.84765 3.6562 1.0703.48047-11.906 1.6562-26 5.4766-37.641zm-21.93.875c3.5703 10.613 5.4023 22.137 6.1797 32.949.96484.37891 1.9844.8086 3.0273 1.2695.61328.27343 1.1992.52343 1.7734.78515l-.0977-2.0781c-4.875-.3125-5.7109-2.043-.13281-2.7774l-.0195-.40625c-4.9922-.29687-5.8555-2.0664-.13282-2.7969l-.004-.10938c-5.2344-.26562-6.1602-2.1094-.13672-2.8359l-.0156-.35547c-5.3516-.2461-6.3086-2.1289-.13671-2.8477l-.004-.15625c-5.6328-.22656-6.6797-2.4258-.15625-3.2188l-.008-.1875c-6.0781-.14062-7.25-2.5039-.15625-3.2734l-.0117-.28906c-5.9414-.16797-7.0703-2.4805-.15625-3.2578l-.008-.19141c-6.6719-.0117-8.0312-2.7969-.16797-3.5781l-.004-.0508c-7.5938.22656-9.2578-2.9492-.17187-3.6406l-.008-.0977c-6.6992.29296-9.2305-1.5469-4.6602-2.5312-1.6094-.0586-3.207-.16407-4.793-.32422zm77.684 11.059c.73828.39844 1.4766.78906 2.2109 1.1797 1.0195.54297 2.0352 1.0781 3.0508 1.6094v-.008zm2.2109 1.1797c-.0859-.0469-.17578-.0937-.26563-.14063l-.34375.29688c1.6602.88281.22266 3.2383-3.3203 3.5273-.0781.004-.15625.0117-.18359.0234-.34375 2.3672-2.5 5.2383-4.125 5.8945-2.2031.88672-7.4062 1.6953-10.328-.85547-.57422 5.6211-1.1562 11.863-2.0703 18.277l23.688-22.535v-2.8516c-1.0078-.55079-2.0273-1.0938-3.0508-1.6367z" fill="#4242ff"/>
  <path d="m127.18 259.37c.82032 0 1.4883-1.0976 1.4883-2.4531s-.66796-2.4531-1.4883-2.4531c-.82031 0-1.4844 1.0977-1.4844 2.4531s.66406 2.4531 1.4844 2.4531zm-18.109-.30078c.82031 0 1.4844-1.1016 1.4844-2.457 0-1.3516-.66406-2.4531-1.4844-2.4531s-1.4844 1.1016-1.4844 2.4531c0 1.3555.66407 2.457 1.4844 2.457zm23.793-31.148 1.1523-.29296-.14453-.59375-1.3711-5.6445-4.3438 2.3281-1.707-4.1328-4.2578 2.5039-2.6836-4.1953-3.9219 3.3242-3.1406-3.8555-3.5391 3.7461-3.6172-3.3828-2.8477 3.8008-3.4805-3.2266-2.9922 4.7695-4.4805-2.8516-2.4023 4.3203-4.5391-2.3594-.78125 1.8945.78906 1.2148.58984-1.4297 4.4141 2.2969 2.3516-4.2344 4.4258 2.8164 2.8672-4.5664 3.3945 3.1445 2.8438-3.793 3.5156 3.2852 3.4219-3.625 3.0547 3.75 3.8086-3.2305 2.5703 4.0156 4.0664-2.3867 1.6875 4.0781 4.1445-2.2188 1.0078 4.1406zm6.8125-3.7109 13.609-8.1016c-23.703-16.293-52.789-17.57-80.117-4.4023 3.293 3.1797 6.3438 6.6523 9.2148 10.547.64453-.19922 1.2891-.39454 1.9336-.58985l-6.7656-5.3867-.79688-2.4375c-1.5195-4.6328 3.3633-5.0391 4.5039-1.5625l3.0781 9.3789c.15234-.043.30469-.0898.45312-.13281l-3.0273-9.9336c-1.4258-4.668 3.4688-4.9648 4.5352-1.4648l3.0234 9.9141-3.7305 1.2461c1.4219-.41797 2.8398-.82032 4.2656-1.1992l-2.2266-10.461c-1.0156-4.7773 3.8828-4.625 4.6445-1.043l2.1602 10.152-3.9844 1.1914c1.3828-.35937 2.7656-.70703 4.1562-1.0195l-1.6211-10.539c-.74219-4.8281 4.1406-4.3828 4.6953-.76172l1.5781 10.262-2.5469.58593c.89062-.18359 1.7812-.35546 2.6719-.51171l-.76562-10.418c-.35938-4.875 4.4687-4.0274 4.7383-.36719l.74218 10.09c.20313-.0234.40235-.043.60547-.0664l-.83984-10.129c-.40235-4.8711 4.4375-4.0703 4.7383-.41406l.84375 10.188c.082-.004.16797-.004.25391-.008v-10.281c0-4.8906 4.7539-3.668 4.7539 0v10.297c.16797.008.33594.0156.5.0234l.94922-10.082c.45703-4.8672 5.0742-3.1797 4.7305.46875l-.94531 10.059c.21875.0312.43359.0625.64843.0937l.92188-9.7188c.46094-4.8672 5.0781-3.1758 4.7305.47266l-.96094 10.168c.10547.0273.21094.0547.32031.082l2.4648-9.6758c1.207-4.7266 5.5039-2.3047 4.5976 1.2422l-1.8633 7.3086 2.7031-6.8281c1.793-4.5312 5.75-1.5547 4.4062 1.8438l-3.2461 8.1914 4.4219-8.5234c2.2383-4.3125 5.875-.93359 4.1953 2.3047l-4.4961 8.6602 6.4062-7.8242c3.0625-3.7383 5.9336.34765 3.6367 3.1523l-1.0195 1.2422-9.2188 3.8125-.0664.12109-.10547-.0508-.043-.0195c.51953.27734 1.0352.55859 1.5547.85547zm-68.043-21.844c3.9219-1.8164 7.8359-3.2891 11.75-4.5078l-.5625-24.066c-2.3945 1.4219-5.0195 2.1602-7.7148 2.0391-.05859.41406-.10547.81641-.14844 1.2188-1.0664 9.7617-1.4922 18.605-3.3242 25.316zm24.629-1.3711c2.8203-.49609 5.6563-.84375 8.5078-1.0508-5.6094-.39453-7.5117-2.7539-.83985-3.3594-4.6016-.60157-5.2383-2.3906.83985-3.0234-4.7539-.49219-6.3633-2.8555.18359-3.9844-4.1367-.59375-5.1328-2.7461.0742-3.3476v-.88281c-3.8047-.78907-4.8047-2.3828.0469-2.7578l.0195-.99218c-3.6211-.61719-4.4453-1.9922.043-2.6094l.0117-.54687c-3.0117-.62891-3.625-1.8125.043-2.4258l.0117-.62109c-3.0742-.625-3.707-1.832.043-2.4453l.008-.60156c-3.1328-.625-3.7852-1.8477.043-2.4648l.004-.10156c-2.5078-.61719-2.9609-1.6445.0391-2.2422l.004-.1914c-2.5547-.61719-3.0234-1.6641.0391-2.2617l.0117-.66016c-1.3984-.49609-2.6211-.84766-3.6562-1.0703-.48047 11.906-1.6562 26-5.4766 37.641zm21.93-.875c-3.5703-10.613-5.4023-22.137-6.1797-32.949-.96485-.3789-1.9844-.80859-3.0274-1.2695-.61328-.27343-1.1992-.52343-1.7734-.78515l.0977 2.0781c4.875.3125 5.7109 2.043.13281 2.7774l.0195.40625c4.9922.29687 5.8555 2.0664.13282 2.7969l.004.10938c5.2344.26562 6.1602 2.1094.13672 2.8359l.0156.35547c5.3516.2461 6.3086 2.1289.13672 2.8477l.004.15625c5.6328.22656 6.6797 2.4258.15625 3.2188l.008.1875c6.0781.14062 7.25 2.5039.15625 3.2734l.0117.28906c5.9414.16797 7.0703 2.4805.15625 3.2578l.008.19141c6.6719.0117 8.0312 2.7969.16796 3.5781l.004.0508c7.5938-.22656 9.2578 2.9492.17188 3.6406l.008.0977c6.6992-.29296 9.2305 1.5469 4.6602 2.5312 1.6094.0586 3.207.16407 4.793.32422zm-77.684-11.059c-.73828-.39844-1.4766-.78906-2.2109-1.1797-1.0195-.54297-2.0352-1.0781-3.0508-1.6094v.008zm-2.2109-1.1797c.08594.0469.17578.0937.26562.14063l.34375-.29688c-1.6602-.88281-.22266-3.2383 3.3203-3.5273.07813-.004.15625-.0117.18359-.0234.34375-2.3672 2.5-5.2383 4.125-5.8945 2.2031-.88672 7.4062-1.6953 10.328.85547.57422-5.6211 1.1562-11.863 2.0703-18.277l-23.688 22.535v2.8516c1.0078.55078 2.0273 1.0938 3.0508 1.6367z" fill="#4242ff"/>
  <path d="m115.6 35.25 43.254 73.352 5.9414-3.668-40.879-69.684zm-20.434 29.832c-3.1914 7.3945-6.4141 16.004-9.6172 25.566l14.527-8.6758c-2.0234-3.5977-3.3516-7.1211-3.6172-8.2148-.27344-1.1172-.79297-4.7852-1.293-8.6758zm-29.078 37.199-2.8555 1.6445c11.91 9.0625 25.277 14.531 39.168 16.57 2.2617 7.832 3.7969 17.164 4.5703 25.348.92969.24609 1.8906.52734 2.9258.87109-.77344-9.4023-2.4336-19.742-5.2773-29.039-13.641-1.6328-26.781-6.7305-38.531-15.395zm90.598 5.4648c-8.3984 4.2578-17.02 7.2344-25.645 8.8516-3.293 11.062-4.3476 24.062-4.8789 35.41.39843.008.8125-.008 1.1992-.0469.58984-.0547 1.1797-.16407 1.8398-.48047.44922-11.148 1.2773-21.91 4.125-32.215 6.7031-1.4102 13.41-3.6055 20.039-6.6328-1.832 6.7109-2.2578 15.555-3.3242 25.316-.043.40234-.0898.80469-.17969 1.2188.46485.0273.97657.0781 1.4883.16406.42187.0703.83593.16406 1.3711.24219 1.5898-12.977 2.1445-24.461 5.168-30.562z"/>
  <path d="m109.4 279.75-43.254-73.352-5.9414 3.668 40.879 69.684zm20.434-29.832c3.1914-7.3945 6.4141-16.004 9.6172-25.566l-14.527 8.6758c2.0234 3.5977 3.3516 7.1211 3.6172 8.2148.27344 1.1172.79297 4.7852 1.293 8.6758zm29.078-37.199 2.8555-1.6445c-11.91-9.0625-25.277-14.531-39.168-16.57-2.2617-7.832-3.7969-17.164-4.5703-25.348-.92969-.24609-1.8906-.52734-2.9258-.87109.77344 9.4023 2.4336 19.742 5.2773 29.039 13.641 1.6328 26.781 6.7305 38.531 15.395zm-90.598-5.4648c8.3984-4.2578 17.02-7.2344 25.645-8.8516 3.293-11.062 4.3477-24.062 4.8789-35.41-.39844-.008-.8125.008-1.1992.0469-.58984.0547-1.1797.16406-1.8398.48047-.44922 11.148-1.2773 21.91-4.125 32.215-6.7031 1.4102-13.41 3.6055-20.039 6.6328 1.832-6.7109 2.2578-15.555 3.3242-25.316.04297-.40234.08984-.80469.17969-1.2188-.46484-.0273-.97656-.0781-1.4883-.16406-.42188-.0703-.83594-.16406-1.3711-.24219-1.5898 12.977-2.1445 24.461-5.168 30.562z"/>
 </g>
 <g fill="none" stroke="#4242ff" stroke-linecap="round" stroke-linejoin="round">
  <path d="m100.12 82-64.871 38.633m24.957 32.836-24.957 23.773m108.37-.72657c11.812-23.738 8.4101-55.695 14.262-67.504m-76.469 29.41c7.5469 2.1641 12.211 11.219 10.543 21.008-1.7617 10.367-9.9609 17.641-18.309 16.238-.42187-.0703-.83594-.16406-1.2383-.27344m70.984 7.9688 2.8711-5.457c6.5195-13.102 8.5117-28.199 9.875-41.164.6836-6.4844 1.1992-12.445 1.9688-17.281.69531-2.7734 1.0117-5.8555 2.1211-8.4375m8.0625 5.5391c-1.1797 3.4492-1.7891 7.5391-2.3633 12.121-.86719 6.9883-1.4531 15.133-2.6367 23.504-2.2774 16.145-6.7422 32.84-19.004 43.562m-64.109-80.094c1.1758 7.1445 1.7266 15.512 1.2227 22.766m-27.383 58.473c5.4844-17.477.42969-60.547 26.238-81.211l1.2969-1.0625m102.93 11.316c1.7578.94532 3.5156 1.875 5.2695 2.7969m-65.289-78.438c8.1289 37.465 26.375 55.273 46.465 67.867m-102-17.559c25.074 17.871 56.328 19.234 85.305 4.9648m-88.148-3.2891c11.75 8.6641 24.891 13.762 38.543 15.406m26.394-1.0273c8.6406-1.6797 17.262-4.6562 25.66-8.9141m-4.7578-4.4297c-27.426 13.145-56.512 11.867-80.211-4.457m94.387 55.309 23.648-22.523m-48.109-14.492.49609 24.062m-8.8437-21.93c6.7344-1.4297 13.441-3.625 20.023-6.5703m-90.086-8.7891c11.91 9.0625 25.277 14.531 39.187 16.516m50.992-7.8906c-1.8789 6.793-2.3047 15.637-3.3711 25.398-.043.40235-.0898.80469-.13672 1.2109m-29.699-24.102-.55859 35.543m-3.5-35.398 1.6641 34.707m14.262-36.512c-4.1172 11.762-5.332 26.18-5.8555 38.609m-22.645-37.508c3.4961 10.078 5.457 21.727 6.375 32.234m19.285 4.6016c.41796-11.004 1.2461-21.766 4.1289-32.09m-4.6367-5.2461c-3.8086 11.645-4.9844 25.738-5.4883 37.641m-10.219-3.8008c-.80859-10.824-2.6406-22.348-6.1758-32.973m-4.4609 5.6836c2.2812 7.7773 3.8164 17.109 4.6055 25.297m8.6133-110.6 43.254 73.352 5.9414-3.668-40.879-69.684m24.508 41.727c5.7851-3.1094 10.359-7.082 16.965-4.4414-3.5352-11.445-7.875-22.695 1.3828-37.277m-13.078 38.695-23.586-38.703m22.625 37.137-5.1953 3.1172m4.0859-5-5.1367 3.0859m3.9805-4.9375-5.1172 3.0742m3.9726-4.9336-5.1523 3.0938m4.0352-4.9727-3.5898 2.1562m2.4375-4.0078-2.6797 1.6055m14.48-11.691c-5.3516 1.832-9.9375-4.5781-13.668-1.8359-4.1602 3.0586.66797 8.5195 2.9688 7.3359 2.3789-1.2227 1.7852-4.8906-.59375-4.8906-2.375 0-1.1875 1.8359-1.1875 1.8359m12.48-2.4453c-4.1875 3.8828-1.0273 11.148-5.1875 13.137-4.6367 2.2148-6.875-4.7969-4.7383-6.2773 2.2031-1.5234 5.0117.81641 3.8438 2.9453-1.1719 2.125-2.1406.16016-2.1406.16016m-5.164-2.4414c3.1797-1.0078 6.1523-2.9766 9.2266-4.4687m-5.9414 3.0586c2.6836-2.1602 3.0976-2.4727 3.5625-4.2812m-3.5625 4.2812c2.1172-.42969 4.75-.33594 5.9414.60938m-4.9648 7.7734c3.1992 1.3086 6.7461.78516 9.7187-1.0508 1.207 2.4844 3.8047 4.168 5.9414 6.1133m-14.391-3c2.4805.52344 6.0352.41406 7.8555-.05469 1.0586 1.0859 2.9219 1.7578 4.7539 2.4453m-30.777-32.191c1.4766.33203 2.7187.8125 6.414-.20703.92969.51172 2.1016.86328 4.1562.61328-.32032 1.0039-.84766 1.6523-.59375 3.668-1.3945 2.4219-2.2617 4.8008-3.0859 7.1797m2.2227 3.7422c.55078-2.9023.23828-5.8906 3.8359-8.4766.1914-3.5859.82031-7.2734 1.6445-11.004m-62.129 55.531c20.102 11.437 38.801 7.707 57.309 1.9414m-3.9297-5.8086c-16.039 4.8828-30.652 7.5547-46.664-.14844m78.945 31.418s1.9258-2.0078 2.1602-2.25c.59374-.60938 3.2969.26562 4.6797-1.6484 2-2.7695 4.1367-.69531 2.082 1.625-1.6953 1.918-4.3867 3.3477-4.3867 3.3477 1.25 4.2656.70703 8.2266-1.1875 11.957m7.1289-17.113c4.7539-6.1133 7.1875-1.6602 2.9726 2.4453-4.7383 4.6094-7.5625 3.4609-2.9726-2.4453m.65624 4.2773c6.2031-4.5352 7.3555.43359 2.207 3.1914-5.7852 3.0976-8.1953 1.1914-2.207-3.1914m.0274 4.3359c6.4453-3.6406 6.918 1.4453 1.6914 3.4648-5.8711 2.2695-7.918.0469-1.6914-3.4648m-.0547 4.5312c6.5468-1.5391 5.8047 3.1367.71093 3.5547-5.7226.46484-7.0312-2.0664-.71093-3.5547m.57811 3.5859c-.39452 2.3594-2.5508 5.2305-4.1758 5.8867-2.2031.88671-7.4062 1.6953-10.336-.80079m-63.16 18.855c.82422.21875 1.6836.48047 2.582.78516m-15.27-.65625c.60156-.19922 1.2109-.375 1.8281-.52344m41.109-5.3672c-3.6836 1.875-5.7812 2.7539-7.8555 2.9492-2.1914.20703-5.2851-.16406-11.348-2.8633-6.6797-2.9726-12.437-4.4609-17.781-4.4102-.76562.008-1.5195.0469-2.2695.11718-2.0859.19532-4.0078.61328-5.8086 1.168m4.1172 6.4922c-.72656.15234-1.4375.33984-2.1367.5625m16.242.88672c-1.3789-.48047-2.6758-.86328-3.9102-1.1524m7.707 2.6289c-.28906-.125-.57421-.24219-.85937-.35937m12.594 4.1484c-2.5469-.32422-5.5156-1.1523-9.207-2.6914m18.059 1.664c-1.5664.57032-3.1055.96095-4.75 1.1133-.29297.0273-.58594.0469-.88672.0625m-29.543-9.125c-.3789.0156-.75781.043-1.1289.0781-1.6133.15234-3.1172.46875-4.5625.90625m20.586 2.3476c-4.293-1.8047-7.9531-2.8359-11.25-3.1992m21.969 6.8867c-1.9375-.33203-4.1797-.98047-6.8867-2.0547m16.648.95313c-1.7461.69922-3.3711 1.1562-5.1094 1.3203m-30.789-9.0469c-.25781.0156-.51562.0351-.76953.0625-1.6953.15625-3.2773.48828-4.7852.93359m41.859 4.5742c-2.0703.91406-3.8203 1.4766-5.6758 1.6484-2.9492.27734-6.7109-.3086-13.09-3.1484-4.8633-2.168-9.043-3.4414-12.832-3.9102m43.113 25.262c-.15625-.0742-.32032-.13671-.49219-.18358-5.793-1.6602-9.8672-9.0156-8.418-17.535 1.5352-9.0234 8.4726-14.828 14.902-13.75.32812.0547.64453.125.95312.21094.22266.0664.44141.10156.66015.11328m-3.7305 19.719c-2.3008 0-4.1602-2.1914-4.1602-4.8906 0-2.6992 1.8594-4.8906 4.1602-4.8906.78516 0 1.5195.25781 2.1445.70313m-1.2539 6.0039c-.26172.17578-.56641.28125-.89063.28125-.98828 0-1.7852-.9414-1.7852-2.0976s.79687-2.0977 1.7852-2.0977c.62109 0 1.1719.37891 1.4922.94922m-3.1758-3.3281-2.4766-5.9141-3.8867-.61328.32031 4.8906-4.1602 1.8359 1.7812 4.8867-2.7539 3.668 3.9453 2.4453-1.1914 4.8906h4.7539l.59765 4.2774m.59375-26.281 2.375-4.2812 4.1602 2.4453-1.5 7.418m1.5-7.418 1.2188-1.2539m-8.9453 25.094 3.4883-7.2774m-7.0508 2.3867 5.4922-3.9531m-6.6836-2.1602 5.957-.33985m-3.5781-6.3828 4.3125 3.2383m-2.5312-5.0703 3.293 4.1797m2.0547-7.2383.34375 6.0508m-8.6602 2.5078 4.8945 1.2695m-5.4883 4.8437 5.5664-2.0391m-2.5976 6.9297 3.8672-4.8242m-2.082 12.156 1.3203-.54298m1.0547-4.3438 1.4062-6.2266m-86.668-37.891c-.69531.71485-1.7773.76172-2.4141.10547-.64062-.65625-.59375-1.7695.10156-2.4844.69922-.71485 1.7812-.76563 2.418-.10938.63672.66016.58984 1.7695-.10547 2.4883m.26562 1.9922c.5039.36719.85937 1 .79297 2.3828m.85156-4.1445c.40625.47656 1.0664.78516 2.4453.6211m-8.7109-3.5664c-.35938-.52344-.97656-.88672-2.3203-.82031m4.0312-.875c-.46484-.41797-.76172-1.0977-.60547-2.5156m1.1836 8.2578c-.7539.67969-1.4023 1.6406-1.75 3.3867m.21094-4.9726c-.66016.77734-1.5937 1.4453-3.293 1.8008m8.1953-3.6719c.66016-.77734 1.5937-1.4453 3.2891-1.8008m-4.832.21485c.75781-.67969 1.4023-1.6406 1.7539-3.3867m-2.0312 10.016c.05078 3.4219.83984.86328 3.7812 5.6172.83984-.86328 2.1016-3.0273 1.2578-3.8906.84375.86329 2.9414-.42968 3.7852-1.2969-4.625-3.0234-2.1367-3.832-5.4648-3.8906m-7.9844-1.2969c-3.3281-.0547-.83984-.86328-5.4609-3.8867.83984-.86719 2.9414-2.1641 3.7812-1.2969-.83984-.86719.42188-3.0274 1.2617-3.8906 2.9414 4.7539 3.7266 2.1953 3.7812 5.6172m.48828 7.4219c-1.8789 5.0234-1.6797 1.7266-8.4726 10.301-.76953-.79297-1.4687-3.2422.21094-4.9727-1.6797 1.7305-4.0625 1.0117-4.832.21875 8.332-6.9883 5.1289-6.7812 10.016-8.7188m6.4414-.28516c4.8828-1.9375 1.6797-1.7305 10.016-8.7188-.77344-.79297-3.1523-1.5117-4.832.21485 1.6797-1.7266.98047-4.1758.20703-4.9688-6.793 8.5742-6.5898 5.2773-8.4726 10.301m-24.844 26.383c.69922-.53516 1.6289-.49609 2.1953.0859.63672.65625.58984 1.7695-.10547 2.4844-.57422.59375-1.4375.74219-2.0898.35938m2.3555 1.6328c.50391.36719.85937 1.0039.79297 2.3828m.85156-4.1445c.40625.47656 1.0664.78516 2.4453.6211m-6.4219.48046c-.0078.008-.01563.0156-.02344.0234m3.3867-3.4805c.66016-.77734 1.5937-1.4453 3.2891-1.8008m-4.832.21485c.75781-.67969 1.4062-1.6406 1.7539-3.3867m-2.0312 10.016c.05469 3.4219.83984.86328 3.7812 5.6172.83984-.86328 2.1016-3.0234 1.2617-3.8906.83984.86719 2.9375-.42968 3.7812-1.2969-4.625-3.0234-2.1367-3.832-5.4648-3.8867m-4.9258-6.6132c.19922.30859.28906.79297.30469 1.8555m.48828 7.4219c-.30078.80469-.54687 1.3945-.77734 1.8555m4.1406-5.3125c4.8828-1.9375 1.6797-1.7305 10.016-8.7188-.76953-.79297-3.1523-1.5117-4.832.21875 1.6797-1.7305.98047-4.1797.20703-4.9726-6.793 8.5742-6.5898 5.2773-8.4726 10.301m1.5508-3.0195c.07422-.42969.1875-.89063.33594-1.375.80469-2.6289 2.6797-5.7734 5.4141-8.5898 2.7344-2.8125 5.793-4.7383 8.3476-5.5664.44922-.14843.875-.25781 1.2734-.33593m4.5195 4.6602c-.07422.41016-.18359.84375-.32422 1.3008-.80469 2.625-2.6758 5.7734-5.4141 8.5859-2.7344 2.8164-5.793 4.7422-8.3476 5.5703-.41016.13282-.80078.23829-1.168.31251m.20312 3.6406c.70703-.11328 1.4258-.28906 2.1367-.51953 3.2266-1.0469 6.6367-3.2578 9.6992-6.4102 3.0625-3.1484 5.2148-6.6602 6.2305-9.9726.30469-.9961.51172-2 .59375-2.9766m-7.6484-7.9023c-.96094.082-1.9492.29297-2.9258.61328-3.2227 1.043-6.6328 3.2578-9.6953 6.4062-2.7305 2.8086-4.7383 5.9023-5.8633 8.8906m31.309-12.387c.60937-.10938 1.2227-.26953 1.832-.46485 1.7812-.57812 3.6172-1.5117 5.4219-2.7656m-9.3828-17.254c-2.9492 3.0938-5.0273 6.5156-6.0195 9.7539-.19531.64453-.35156 1.293-.46094 1.9375m3.4531.6914c.07813-.4414.19141-.91796.34766-1.4258.80469-2.625 2.6797-5.7734 5.4141-8.5859.07813-.0781.15234-.15625.23047-.23438m10.566 6.0508c-.70312.95703-1.5039 1.9102-2.3945 2.8281-2.7344 2.8125-5.793 4.7422-8.3476 5.5703-.41406.13281-.8125.23828-1.1836.31641m-30.766 39.594c.87109-1.4883 1.5391-2.9922 1.9883-4.4531.25391-.82422.4375-1.6562.54297-2.4766m3.7422 11.285 3.2305 2.5547m-9.2617-7.3281 3.4453 2.7266m.88281 3.332 3.4219 2.707m-8.0039-6.332 2.8828 2.2813m-2.8828.35155 6.4961 5.1367m-6.4961-2.5039 4.9844 3.9414m-4.9844-1.3086 3.4727 2.75m-3.4727-.11719 1.7812 1.4102m.17969-18.293 10.574 8.3672m-11.352-6.3477 9.8398 7.7891m-2.1758-17.523 11.238 8.8906m-10.191-5.4297 8.6797 6.8711m-10.699-5.832 9.1914 7.2695m-10.402-5.5977 8.8906 7.0352m-9.9531-5.2422 8.4414 6.6797m-11.543-9.1328 2.3477 1.8594m16.312-16.062 5.8555 4.6367m-10.809-8.5547 2.0937 1.6602m-9.3476-7.3984 6.6953 5.3008m-15.648-12.383 6.0312 4.7695m13.773 13.531 6.625 5.2422m-18.961-15 9.4766 7.4961m-16.945-13.406 4.6094 3.6445m13.715 13.484 7.5547 5.9805m-12.59-9.9648 2.1523 1.7031m-5.1562-4.0781.99609.78906m-5.1055-4.0391 2.1016 1.6602m-8.2773-6.5469 3.3359 2.6367m13.41 13.246 8.625 6.8242m-13.672-10.816 2.0898 1.6523m-8.7969-6.9609 1.9453 1.5391m-6.9375-5.4883 2.1562 1.707m19.168 17.797 3.2891 2.6055m-9.5586-7.5664c1.2422.98438 2.4883 1.9688 3.7305 2.9531m-8.5664-6.7812c.60547.48437 1.2148.96484 1.8242 1.4453m-8.0586-6.375 1.5195 1.2031m-5.5039-4.3555 1.0898.86328m18.578 17.332 3.4375 2.7188m-9.8828-7.8203 4.4375 3.5117m-8.8555-7.0039 1.293 1.0195m-6.9766-5.5195c.28516.22656.56641.44922.85156.67578m7.1484 8.2891 10.473 8.2852m-14.105-11.16.35547.28125m18.055-14.68 4.7852 3.7852m-23.465-18.566 7.8281 6.1953m10.301 10.785 4.5 3.5586m-7.9687-6.3047.46094.36719m-6.2461-4.9453.9375.74218m-11.711-9.2656 7.5781 5.9961m11.605 11.816 4.5625 3.6094m-8.7422-6.918 1.2773 1.0117m-7.5586-5.9805 1.5898 1.2578m-12.211-9.6641 7.543 5.9688m12.531 12.551 4.8359 3.8281m-9.4336-7.4688 1.7227 1.3672m-8.4805-6.7109 2 1.582m-12.617-9.9844 7.6367 6.043m13.246 13.113 5.2383 4.1445m-10.09-7.9844 1.9805 1.5664m-4.8398-3.8281.73437.58203m-4.9687-3.9297 2.1289 1.6836m-12.59-9.9648 7.5469 5.9726m25.305 1.5898.68359.54297m-20.621-16.316 5.293 4.1875m12.512 12.531 1.8164 1.4375m-21.52-17.027 4.9844 3.9453m14.004 13.715 1.5781 1.25m-22.465-17.777 8.3945 6.6406m15.82-3.2773 1.7461 1.3789m-7.8125-6.1836 1.3555 1.0742m-8.1133-6.418 3.8672 3.0625m11.82 11.984.75781.59766m-4.9492-3.918 1.0195.80859m-6.5625-5.1914.57812.45703m-8.4297-6.668 4.9297 3.8984m10.625 11.039 1.5937 1.2617m-19.047-15.07 6.1641 4.875m8.8359 9.625 2.9062 2.3008m-19.805-15.672 4.3047 3.4062m14.945-3.9688 6.0156 4.7578m-9.4258-7.457 2.1289 1.6836m-6.5781-5.2031 1.6016 1.2656m8.539 9.3906 2.2305 1.7617m-9.1992-7.2812 2.1016 1.6641m-7.1719-5.6719 2.2539 1.7812m8.2383 9.1524c.69531.55078 1.3867 1.0976 2.082 1.6484m-8.6523-6.8438c.62109.48829 1.2422.98047 1.8633 1.4727m-7.6836-6.0781 2.9961 2.3672m6.6641-2.625 9.4258 7.4609m-13.387-10.598 1.0586.83984m46.129-6.582v10.313c0 3.668 4.7539 4.8906 4.7539 0v-10.301m-4.1172.02344c2.3281 6.6641 1.7422 11.5 1.7422 11.5m2.0117-11.508c-2.0117 4.3867-2.0117 11.508-2.0117 11.508m2.6289-11.535.84375 10.211c.30078 3.6563 5.1406 4.457 4.7383-.41406l-.83984-10.152m-4.0898.32812c2.8476 6.4102 2.6602 11.25 2.6602 11.25m1.0234-11.539c-1.6016 4.5547-1.0234 11.539-1.0234 11.539m2.0312-11.641.74609 10.109c.26953 3.6602 5.0976 4.5078 4.7383-.36718l-.76563-10.434m-4.043.62891c2.7578 6.4023 2.5273 11.207 2.5273 11.207m1.2266-11.789c-1.7578 4.5234-1.2266 11.789-1.2266 11.789m1.6406-11.746 1.5781 10.262c.55468 3.6211 5.4375 4.0664 4.6953-.76172l-1.625-10.566m-4.0625.96875c3.3711 6.2617 3.5234 11.184 3.5234 11.184m.37891-12.125c-1.5273 4.6445-.37891 12.125-.37891 12.125m.71485-11.949 2.1602 10.148c.76172 3.582 5.6602 3.7344 4.6445-1.043l-2.2305-10.48m-3.9922 1.2422c3.7187 6.0469 4.1523 10.953 4.1523 10.953m-.30078-12.168c-1.2812 4.7266.30078 12.168.30078 12.168m.37891-12.129 3.0234 9.9141c1.0664 3.5 5.9609 3.2031 4.5352-1.4648l-3.039-9.957m-3.9531 1.3242c4.2266 5.6836 5.082 10.531 5.082 10.531m-1.4023-11.781c-.72266 4.8164 1.4023 11.781 1.4023 11.781m.0703-12.207c4.0664 5.4102 4.9766 9.9961 4.9766 9.9961m-5.7187-9.7852 3.0859 9.4102c1.1406 3.4766 6.0234 3.0703 4.5039-1.5625l-.79687-2.4375m-2.6914-3.1602c.41016 3.8633 1.6172 7.5352 1.6172 7.5352m-41.062-5.4062-.94531 10.066c-.34375 3.6484 4.2734 5.3359 4.7305.46875l.94922-10.105m-4.0391-.32812c1.6289 6.7539.60938 11.418.60938 11.418m3.0039-11.121c-2.3516 4.1875-3.0039 11.121-3.0039 11.121m-6.6445-12.531-.96094 10.172c-.34766 3.6484 4.2695 5.3398 4.7305.47265l.92188-9.7305m-4.0156-.75c1.6367 6.7812.61328 11.461.61328 11.461m2.8398-10.801c-2.2148 4.207-2.8398 10.801-2.8398 10.801m-6.1758-13.066-2.5 9.7969c-.90234 3.5469 3.3945 5.9688 4.6016 1.2422l2.4687-9.6797m-3.9023-1.125c.55859 6.9336-1.168 11.363-1.168 11.363m4.5977-10.363c-2.9141 3.7656-4.5977 10.363-4.5977 10.363m-3.6406-13.215-3.6016 9.0898c-1.3437 3.3984 2.6133 6.375 4.4062 1.8438l3.6445-9.2109m-3.7187-1.3984c-.37109 6.7734-2.5781 10.82-2.5781 10.82m5.8008-9.5977c-3.332 3.3633-5.8008 9.5977-5.8008 9.5977m-2.3672-13.191-4.7578 9.1641c-1.6797 3.2383 1.957 6.6172 4.1953 2.3047l4.8672-9.3828m-3.7812-1.8008c-.98047 7.082-3.7422 11.109-3.7422 11.109m7.3437-9.3984c-3.9141 2.7852-7.3437 9.3984-7.3437 9.3984m-6.0664-7.4609-1.0195 1.2422c-2.2969 2.8047.57422 6.8906 3.6367 3.1523l6.7734-8.2773m-5.0469 1.332c-2.1055 4.207-4.3125 6.3047-4.3125 6.3047m9.2695-7.6953c-4.4414 1.8008-9.2695 7.6953-9.2695 7.6953m-8.2539 1.0664c8.5508-26.523 16.875-46.969 24.848-57.887m-20.434 55.27c6.9687-21.328 13.785-38.523 20.379-49.711m-13.02 45.426c4.5469-13.586 9.0273-25.344 13.418-34.754m-8.9141 31.98c3.2539-9.5664 6.4766-18.176 9.6523-25.633m-24.91 32.23 3.0547.72656m-2.4453-2.5547 4.8164 1.1445m-4.2109-2.9766 6.582 1.5625m-5.9726-3.3945 8.3437 1.9844m-7.7383-3.8125 10.109 2.3984m-9.4648-4.2227 11.836 2.8125m-11.191-4.6328 12.062 2.8633m-11.418-4.6836 12.059 2.8594m-11.418-4.6836 12.055 2.8633m-9.8555-4.4102 10.527 2.5m-8.1523-3.7227 8.7305 2.0742m-5.1641-3.2969 5.875 1.3945m4.8203-44.793v19.559c0 1.8359 1.7852 16.504 2.3789 18.949.59375 2.4453 6.5351 17.117 13.07 17.117 6.539 0 12.48-6.7266 12.48-6.7266m10.539-5.4492c-2.2227 4.2148-5.7812 8.0742-8.8164 11.93m1.7266-6.5781c-1.8555 2.4297-3.9102 4.7852-5.7383 7.1445m9.3711-9.7109c-2.1914 3.2734-4.9766 6.3633-7.3906 9.4609m-2.6406-3.3516c-1.0781 1.3164-2.1562 2.6211-3.1523 3.9258m1.3047-3.3125c5.2187-1.3164 13.105-7.4648 16.375-10.418m.6289 1.1289c-2.1523 3.9883-5.4766 7.6562-8.3906 11.313m9.2226-9.6875c-2.0078 3.2109-4.6602 6.2344-7.0781 9.2422m7.8672-7.7344c-1.7227 2.4805-3.7578 4.8633-5.6797 7.2305m6.4609-5.8438c-1.3359 1.7891-2.793 3.5352-4.2109 5.2695m4.9688-3.9297c-.86328 1.1016-1.7617 2.1953-2.6523 3.2773m-12.734-1.8672c-1.4219 1.7539-2.8789 3.4805-4.207 5.2109m-4.3555-1.2656c-.38672.48828-.76953.97266-1.1445 1.4609m4.0352-2.832c-.76562.94141-1.5234 1.8789-2.2383 2.8164m-6.3164-1.0469c-.1875.23828-.375.47656-.55859.71875m2.0859-.39062c-.14844.18359-.28907.36719-.4336.55469m2.3242-.69531c-.21094.26953-.42188.53906-.625.80469m-6.168-3.4297c-.64063.78125-1.2773 1.5586-1.8906 2.3359m2.8984-1.3867c-.46875.57422-.93359 1.1484-1.3828 1.7227m2.5-.90234c-.3086.38672-.61719.76953-.91797 1.1562m-3.8594-6.2617c-1.1836 1.5117-2.4258 2.9961-3.6289 4.4766m4.4687-3.2891c-1.0078 1.25-2.0391 2.4844-3.0312 3.7187m3.9062-2.6055c-.82812 1.0156-1.6602 2.0195-2.4648 3.0273m-3.8828-6.2539c-.98437 1.3008-2.0273 2.5742-3.0664 3.8398m6.0937-5.5508c-1.4531 2.0898-3.1289 4.1094-4.7695 6.1094m5.5703-4.75c-1.332 1.7852-2.7891 3.5273-4.1992 5.2539m51.641-11.789h.12109m-15.895-1.3711c2.4805 1.4727 6.0312 3.625 9.8086 5.1641m-11.117-8.1719c2.3047 1.3594 5.625 3.3984 9.2187 4.9609m-10.363-7.875c2.125 1.2539 5.1523 3.1172 8.4726 4.6484m-9.5156-7.5c1.9258 1.1328 4.6055 2.7813 7.5742 4.2227m-8.5312-7.0234c1.7148 1.0117 4.0195 2.418 6.582 3.7227m-7.457-6.4766c1.4883.8789 3.3906 2.0352 5.5117 3.1602m-6.3047-5.8633c1.2109.71875 2.6797 1.5977 4.3008 2.4922m-5.0742-5.1875c.91406.54297 1.9648 1.168 3.1094 1.8164m5.2344 21.004c2.6523 1.5742 6.3633 3.7812 10.242 5.25m-8.582-2.0313c2.793 1.6523 6.5625 3.8281 10.437 5.1719m-8.4883-1.7852c2.8828 1.6836 6.5781 3.7148 10.316 4.8906m-8.1719-1.4023c2.9062 1.6562 6.4531 3.4844 9.9883 4.4766m-7.4336-.78516c2.8008 1.5234 6.039 3.0469 9.2266 3.8281m-6.1641.07812c2.5156 1.25 5.2578 2.375 7.9375 2.9297m-4.4726 1.043c2.043.87501 4.1641 1.5859 6.2305 1.9336m-2.6523 1.7695c1.4961.58984 3.0234 1.0781 4.5273 1.3828m24.059-17.551c1.1797-.46094 3.3555-3.1055 5.7305-3.1055-2.375 0-4.5508-2.6484-5.7305-3.1055-1.2969-.50391-3.1797.04687-4.9648 1.2695 1.1875-1.832 1.7266-3.7695 1.2383-5.1055-.4453-1.2148-3.0195-3.4492-3.0195-5.8945 0 2.4453-2.5742 4.6797-3.0195 5.8945-.48828 1.3359.0469 3.2734 1.2344 5.1055-1.7812-1.2227-3.668-1.7734-4.9609-1.2695-1.1836.45703-3.3555 3.1055-5.7344 3.1055 2.3789 0 4.5508 2.6445 5.7344 3.1055 1.293.50391 3.1797-.05078 4.9609-1.2734-1.1875 1.8359-1.7226 3.7734-1.2344 5.1055.44532 1.2188 3.0195 3.4531 3.0195 5.8984 0-2.4453 2.5742-4.6797 3.0195-5.8984.48828-1.332-.0508-3.2695-1.2383-5.1055 1.7852 1.2227 3.668 1.7773 4.9648 1.2734m-14.793-5.5391c-2.4336-3.1719 2.332-8.3398 5.6523-5.7266m10.707 6.1016c3.2813-3.25-2.3164-9.3125-5.7617-5.707m-10.48 10.051c-2.7266 3.1836 2.2539 8.625 5.6289 5.7969m10.598-6.0391c3.3164 3.2461-2.3008 9.3398-5.75 5.7148m-4.332-9.5938-4.1562-4.2773m7.7226 4.2773 4.1602-4.2773m-7.7266 7.9453-4.1562 4.2812m7.7226-4.2812 4.1602 4.2812m-7.0859 3.8398c.45312 9.875 4.1758 12.801 4.168 19.797m-2.3594-19.277c.51562 8.7383 3.6211 11.918 4.082 17.773m-1.7773 1.0938c-1.2109-4.5781-7.4883-10.551-13.664-7.3359 5.4687-.4375 4.7148 9.8477 13.664 7.3359m.0547.38281c-2.082-3.3594-4.625-4.6484-7.1836-5.8828m8.914 3.6641c-1.1523-7.75.32032-13.086 6.5351-14.059-4.2304 3.8945.82813 12.367-6.5351 14.059.58203-3.9024 1.5195-7.2539 2.9687-9.7774m-72.738-67.234c2.168 6.957 6.5937 10.332 12.777 10.91m-10.672-10.914c1.9219 4.2891 4.9414 6.8398 8.8789 7.9336m-6.1211-7.8906c1.1133 1.8516 2.4883 3.2891 4.0977 4.3516m-24.133 8.0859c8.2656-4.7617 8.875-8.5938 9.9023-12.48m-9.9297 9.5781c5.4805-3.5469 6.8203-6.5938 7.6601-9.5781m-7.6836 5.9063c2.793-2.1016 4.1953-4.0391 5.0391-5.9063m8.0508 40.344s-.59375-2.4453-1.7812-2.4453c-1.1914 0-2.3828-.48438-2.3828-2.3164 0-1.2227 2.8203-9.9727 1.7852-17.246-3.2344-2.3633-6.6562-3.6211-10.695-1.2227.20312-.04297.41406.01953.60937-.04297 3.5508-1.1797 6.9101-1.125 10.086 1.2656m4.1602 0c4.2734-5.2344 8.9648-2.7383 13.668 0-4.4688-2.0156-8.914-4.2773-13.012.02344-.13672.14453-.50782-.16406-.65625-.02344m1.1914 14.672c3.6055-.125 2.9688 4.2773 1.1875 4.2773-.78125 0-1.5898-.99609-2.2188-1.0508-1.9414-.17188-1.9414 1.0508.4336.44141m-5.9414 6.1133v1.2227l.59375-.61328-.59375-.60937m11.289-.61328v1.2227l-.59375-.60937.59375-.61328m-10.695 1.2227c1.4219.76562 1.7226-.58203 2.3789-.60937.59375 0 1.2656.57422 1.8594.57422s1.5234-.75391 2.1211-.75391c2.1172 1.3398 2.2969.23047 3.7422.17969m-8.3164 3.0547c1.5508 1.9063 3.4023 1.332 5.3476 0-1.6055.98047-3.4531.63281-5.3476 0m-11.293-23.227c.42969-1.1016 1.7109-2.0977 3.0156-2.0898 2.3203.01562 4.1172 2.6992 5.8984 2.6992m-9.1758.19531c.39453 1.1758 1.7461 1.5977 3.2344 1.6406 2.5547.125 4.1602-1.2227 5.9414-1.8359m6.539 0c2.6094-.09375 3.6367-2.1523 5.3476-2.4453 3.5625-.60938 5.9414 2.4453 7.7226 2.4453m-10.695-.60937c-.59375 1.832 2.0195 3.043 3.5664 3.0547 2.2734.01563 5.3476-2.4453 7.1289-2.4453m-54.266 42.129c25.074 17.871 56.328 19.234 85.305 4.9648m-97.594 45.207c0 1.0117-.79687 1.832-1.7812 1.832-.98437 0-1.7812-.82031-1.7812-1.832 0-1.0156.79687-1.8359 1.7812-1.8359.98437 0 1.7812.82031 1.7812 1.8359 0 1.0117-.79687 1.832-1.7812 1.832-.98437 0-1.7812-.82031-1.7812-1.832 0-1.0156.79687-1.8359 1.7812-1.8359.98437 0 1.7812.82031 1.7812 1.8359m-15.039 14.348c0 1.0156-.80078 1.8359-1.7852 1.8359-.98437 0-1.7812-.82031-1.7812-1.8359 0-1.0117.79687-1.832 1.7812-1.832.98437 0 1.7852.82031 1.7852 1.832m123.91-7.2891 24.242-23.09m-90.324 23.363c-4.3711 2.7187-1.5547-1.6875-1.1875-3.6641-1.9258.3789-6.207 3.2734-3.5664-1.2227-.16406-.28125-.30078-.53125-.41406-.75781-1.7031-3.3906 2.1758-.82031 3.9805-.46484-.36719-1.9805-3.1836-6.3867 1.1875-3.668 4.375-2.7188 1.5586 1.6875 1.1914 3.668 1.8477-.36329 5.875-3.0547 3.8398.73046-.082.15235-.17187.31641-.27734.49219 2.6445 4.4961-1.6406 1.6016-3.5625 1.2227.36719 1.9766 3.1836 6.3828-1.1914 3.6641m10.699 3.625c-5.1094.10546-.53125-2.2617.75-3.7852-1.8476-.66407-6.9648-.35938-2.4922-2.8945-.10157-5.2539 2.1992-.54297 3.6836.77344.64062-1.9023.34374-7.1641 2.8086-2.5625 5.1094-.10547.53124 2.2617-.75 3.7852 1.8476.66406 6.9648.35937 2.4922 2.8945.10156 5.2539-2.1992.54296-3.6836-.77344-.64062 1.9024-.34375 7.1641-2.8086 2.5625m64.176-79.113c1.1055 0 2.0781 1.0039 2.0781 2.1406 0 1.1367-.97266 2.1406-2.0781 2.1406-1.1055 0-2.082-1.0039-2.082-2.1406 0-1.1367.97655-2.1406 2.082-2.1406" stroke-width=".72322"/>
  <path d="m124.88 233 64.871-38.633m-24.957-32.836 24.957-23.773m-108.37.72657c-11.812 23.738-8.4101 55.695-14.262 67.504m76.469-29.41c-7.5469-2.1641-12.211-11.219-10.543-21.008 1.7617-10.367 9.9609-17.641 18.309-16.238.42187.0703.83593.16406 1.2383.27343m-70.984-7.9688-2.8711 5.457c-6.5195 13.102-8.5117 28.199-9.875 41.164-.6836 6.4844-1.1992 12.445-1.9688 17.281-.69531 2.7734-1.0117 5.8555-2.1211 8.4375m-8.0625-5.5391c1.1797-3.4492 1.7891-7.5391 2.3633-12.121.86718-6.9883 1.4531-15.133 2.6367-23.504 2.2774-16.145 6.7422-32.84 19.004-43.563m64.109 80.094c-1.1758-7.1445-1.7266-15.512-1.2226-22.766m27.383-58.473c-5.4844 17.477-.42969 60.547-26.238 81.211l-1.2969 1.0625m-102.93-11.316c-1.7578-.94531-3.5156-1.875-5.2695-2.7969m65.289 78.438c-8.1289-37.465-26.375-55.273-46.465-67.867m102 17.559c-25.074-17.871-56.328-19.234-85.305-4.9648m88.148 3.2891c-11.75-8.6641-24.891-13.762-38.543-15.406m-26.394 1.0274c-8.6406 1.6797-17.262 4.6562-25.66 8.9141m4.7578 4.4297c27.426-13.145 56.512-11.867 80.211 4.457m-94.387-55.309-23.648 22.523m48.109 14.492-.49609-24.062m8.8437 21.93c-6.7344 1.4297-13.441 3.625-20.023 6.5703m90.086 8.7891c-11.91-9.0625-25.277-14.531-39.187-16.516m-50.992 7.8906c1.8789-6.793 2.3047-15.637 3.3711-25.398.04297-.40234.08984-.80469.13672-1.2109m29.699 24.102.5586-35.543m3.5 35.398-1.6641-34.707m-14.262 36.512c4.1172-11.762 5.332-26.18 5.8555-38.609m22.645 37.508c-3.4961-10.078-5.457-21.727-6.375-32.234m-19.285-4.6016c-.41797 11.004-1.2461 21.766-4.1289 32.09m4.6367 5.2461c3.8086-11.645 4.9844-25.738 5.4883-37.641m10.219 3.8008c.80859 10.824 2.6406 22.348 6.1758 32.973m4.4609-5.6836c-2.2812-7.7773-3.8164-17.109-4.6055-25.297m-8.6133 110.6-43.254-73.352-5.9414 3.668 40.879 69.684m-24.508-41.727c-5.7851 3.1094-10.359 7.082-16.965 4.4414 3.5351 11.445 7.875 22.695-1.3828 37.277m13.078-38.695 23.586 38.703m-22.625-37.137 5.1953-3.1172m-4.0859 5 5.1367-3.0859m-3.9805 4.9375 5.1172-3.0742m-3.9727 4.9336 5.1523-3.0938m-4.0352 4.9726 3.5898-2.1562m-2.4375 4.0078 2.6797-1.6055m-14.48 11.691c5.3516-1.832 9.9375 4.5781 13.668 1.8359 4.1602-3.0586-.66797-8.5195-2.9687-7.3359-2.3789 1.2227-1.7852 4.8906.59375 4.8906 2.375 0 1.1875-1.8359 1.1875-1.8359m-12.48 2.4453c4.1875-3.8828 1.0273-11.148 5.1875-13.137 4.6367-2.2148 6.875 4.7969 4.7383 6.2774-2.2031 1.5234-5.0117-.81641-3.8437-2.9453 1.1719-2.125 2.1406-.16015 2.1406-.16015m5.1641 2.4414c-3.1797 1.0078-6.1523 2.9766-9.2266 4.4688m5.9414-3.0586c-2.6836 2.1602-3.0977 2.4727-3.5625 4.2812m3.5625-4.2812c-2.1172.42969-4.75.33594-5.9414-.60937m4.9648-7.7734c-3.1992-1.3086-6.7461-.78516-9.7187 1.0508-1.207-2.4844-3.8047-4.168-5.9414-6.1133m14.391 3c-2.4805-.52344-6.0351-.41407-7.8555.0547-1.0586-1.0859-2.9219-1.7578-4.7539-2.4453m30.777 32.191c-1.4766-.33203-2.7187-.8125-6.4141.20703-.92969-.51172-2.1016-.86328-4.1562-.61328.32031-1.0039.84766-1.6523.59375-3.668 1.3945-2.4219 2.2617-4.8008 3.0859-7.1797m-2.2227-3.7422c-.55078 2.9023-.23828 5.8906-3.8359 8.4766-.19141 3.5859-.82031 7.2734-1.6445 11.004m62.129-55.531c-20.102-11.438-38.801-7.707-57.309-1.9414m3.9297 5.8086c16.039-4.8828 30.652-7.5547 46.664.14844m-78.945-31.418s-1.9258 2.0078-2.1602 2.25c-.59374.60937-3.2969-.26563-4.6797 1.6484-2 2.7695-4.1367.69531-2.082-1.625 1.6953-1.918 4.3867-3.3477 4.3867-3.3477-1.25-4.2656-.70703-8.2266 1.1875-11.957m-7.1289 17.113c-4.7539 6.1133-7.1875 1.6602-2.9726-2.4453 4.7383-4.6094 7.5625-3.4609 2.9726 2.4453m-.65624-4.2773c-6.2031 4.5352-7.3555-.4336-2.207-3.1914 5.7852-3.0977 8.1953-1.1914 2.207 3.1914m-.02735-4.3359c-6.4453 3.6406-6.918-1.4453-1.6914-3.4648 5.8711-2.2695 7.918-.0469 1.6914 3.4648m.05468-4.5312c-6.5469 1.5391-5.8047-3.1367-.71094-3.5547 5.7226-.46484 7.0313 2.0664.71094 3.5547m-.57811-3.5859c.39452-2.3594 2.5508-5.2305 4.1758-5.8867 2.2031-.88672 7.4062-1.6953 10.336.80078m63.16-18.855c-.82422-.21875-1.6836-.48047-2.582-.78515m15.27.65625c-.60156.19921-1.2109.375-1.8281.52343m-41.109 5.3672c3.6836-1.875 5.7812-2.7539 7.8555-2.9492 2.1914-.20703 5.2852.16407 11.348 2.8633 6.6797 2.9727 12.437 4.4609 17.781 4.4102.76563-.008 1.5195-.0469 2.2695-.11719 2.0859-.19531 4.0078-.61328 5.8086-1.168m-4.1172-6.4922c.72656-.15235 1.4375-.33985 2.1367-.5625m-16.242-.88672c1.3789.48047 2.6758.86328 3.9102 1.1523m-7.707-2.6289c.28907.12501.57422.24219.85938.35938m-12.594-4.1484c2.5469.32422 5.5156 1.1523 9.207 2.6914m-18.059-1.6641c1.5664-.57032 3.1055-.96094 4.75-1.1133.29297-.0274.58594-.0469.88672-.0625m29.543 9.125c.3789-.0156.75781-.043 1.1289-.0781 1.6133-.15234 3.1172-.46875 4.5625-.90625m-20.586-2.3477c4.293 1.8047 7.9531 2.8359 11.25 3.1992m-21.969-6.8867c1.9375.33203 4.1797.98047 6.8867 2.0547m-16.648-.95316c1.7461-.69922 3.3711-1.1562 5.1094-1.3203m30.789 9.0469c.25781-.0156.51563-.0352.76953-.0625 1.6953-.15625 3.2773-.48828 4.7852-.93359m-41.859-4.5742c2.0703-.91407 3.8203-1.4766 5.6758-1.6484 2.9492-.27735 6.7109.30859 13.09 3.1484 4.8633 2.168 9.043 3.4414 12.832 3.9102m-43.113-25.262c.15625.0742.32031.13671.49219.18358 5.793 1.6602 9.8672 9.0156 8.418 17.535-1.5352 9.0234-8.4726 14.828-14.902 13.75-.32812-.0547-.64453-.125-.95312-.21093-.22266-.0664-.44141-.10157-.66016-.11328m3.7305-19.719c2.3008 0 4.1602 2.1914 4.1602 4.8906s-1.8594 4.8906-4.1602 4.8906c-.78516 0-1.5195-.25781-2.1445-.70312m1.2539-6.0039c.26172-.17579.56641-.28125.89062-.28125.98828 0 1.7852.9414 1.7852 2.0976s-.79687 2.0977-1.7852 2.0977c-.62109 0-1.1719-.37891-1.4922-.94922m3.1758 3.3281 2.4766 5.9141 3.8867.61328-.32031-4.8906 4.1602-1.8359-1.7812-4.8867 2.7539-3.668-3.9453-2.4453 1.1914-4.8906h-4.7539l-.59766-4.2773m-.59375 26.281-2.375 4.2812-4.1602-2.4453 1.5-7.418m-1.5 7.418-1.2187 1.2539m8.9453-25.094-3.4883 7.2774m7.0508-2.3867-5.4922 3.9531m6.6836 2.1602-5.957.33984m3.5781 6.3828-4.3125-3.2383m2.5312 5.0703-3.293-4.1797m-2.0547 7.2383-.34375-6.0508m8.6601-2.5078-4.8945-1.2695m5.4883-4.8437-5.5664 2.039m2.5977-6.9297-3.8672 4.8242m2.082-12.156-1.3203.54297m-1.0547 4.3438-1.4062 6.2266m86.668 37.891c.69531-.71484 1.7773-.76172 2.4141-.10547.64062.65625.59375 1.7695-.10157 2.4844-.69921.71484-1.7812.76562-2.418.10937-.63672-.66015-.58984-1.7695.10547-2.4883m-.26563-1.9922c-.5039-.36719-.85937-1-.79296-2.3828m-.85157 4.1445c-.40625-.47656-1.0664-.78515-2.4453-.62109m8.7109 3.5664c.35937.52343.97656.88671 2.3203.82031m-4.0312.875c.46484.41797.76171 1.0977.60546 2.5156m-1.1836-8.2578c.75391-.67969 1.4023-1.6406 1.75-3.3867m-.21094 4.9727c.66016-.77734 1.5938-1.4453 3.293-1.8008m-8.1953 3.6719c-.66015.77735-1.5937 1.4453-3.289 1.8008m4.832-.21484c-.75781.67969-1.4023 1.6406-1.7539 3.3867m2.0312-10.016c-.0508-3.4219-.83984-.86328-3.7812-5.6172-.83984.86328-2.1016 3.0273-1.2578 3.8906-.84375-.86328-2.9414.42969-3.7852 1.2969 4.625 3.0234 2.1367 3.832 5.4648 3.8906m7.9844 1.2969c3.3281.0547.83984.86328 5.4609 3.8867-.83984.86718-2.9414 2.1641-3.7812 1.2969.83985.86719-.42187 3.0273-1.2617 3.8906-2.9414-4.7539-3.7266-2.1953-3.7812-5.6172m-.48828-7.4219c1.8789-5.0234 1.6797-1.7266 8.4726-10.301.76953.79297 1.4687 3.2422-.21094 4.9727 1.6797-1.7305 4.0625-1.0117 4.832-.21875-8.332 6.9883-5.1289 6.7812-10.016 8.7188m-6.4414.28515c-4.8828 1.9375-1.6797 1.7305-10.016 8.7188.77344.79297 3.1523 1.5117 4.832-.21484-1.6797 1.7266-.98047 4.1758-.20703 4.9688 6.793-8.5742 6.5898-5.2773 8.4726-10.301m24.844-26.383c-.69922.53515-1.6289.49609-2.1953-.0859-.63672-.65625-.58984-1.7695.10547-2.4844.57422-.59375 1.4375-.74218 2.0898-.35937m-2.3555-1.6328c-.5039-.36719-.85937-1.0039-.79296-2.3828m-.85157 4.1445c-.40625-.47656-1.0664-.78515-2.4453-.62109m6.4219-.48047.0234-.0234m-3.3867 3.4805c-.66015.77735-1.5937 1.4453-3.289 1.8008m4.832-.21484c-.75781.67969-1.4062 1.6406-1.7539 3.3867m2.0312-10.016c-.0547-3.4219-.83984-.86328-3.7812-5.6172-.83984.86328-2.1016 3.0234-1.2617 3.8906-.83984-.86719-2.9375.42969-3.7812 1.2969 4.625 3.0234 2.1367 3.832 5.4648 3.8867m4.9258 6.6133c-.19922-.3086-.28906-.79297-.30469-1.8555m-.48828-7.4219c.30078-.80468.54688-1.3945.77734-1.8555m-4.1406 5.3125c-4.8828 1.9375-1.6797 1.7305-10.016 8.7188.76953.79297 3.1523 1.5117 4.832-.21875-1.6797 1.7305-.98047 4.1797-.20703 4.9727 6.793-8.5742 6.5898-5.2773 8.4726-10.301m-1.5508 3.0195c-.0742.42969-.1875.89063-.33594 1.375-.80468 2.6289-2.6797 5.7734-5.414 8.5898-2.7344 2.8125-5.793 4.7383-8.3476 5.5664-.44921.14844-.87499.25781-1.2734.33594m-4.5195-4.6602c.0742-.41015.1836-.84375.32422-1.3008.80469-2.625 2.6758-5.7734 5.4141-8.5859 2.7344-2.8164 5.793-4.7422 8.3476-5.5703.41016-.13281.80078-.23828 1.168-.3125m-.20313-3.6406c-.70703.11329-1.4258.28907-2.1367.51954-3.2266 1.0469-6.6367 3.2578-9.6992 6.4102-3.0625 3.1484-5.2148 6.6602-6.2305 9.9727-.30468.99609-.51172 2-.59375 2.9766m7.6484 7.9024c.96094-.082 1.9492-.29297 2.9258-.61328 3.2226-1.043 6.6328-3.2578 9.6953-6.4063 2.7305-2.8086 4.7383-5.9023 5.8633-8.8906m-31.309 12.387c-.60938.10937-1.2227.26953-1.832.46484-1.7812.57813-3.6172 1.5117-5.4219 2.7656m9.3828 17.254c2.9492-3.0938 5.0273-6.5156 6.0195-9.7539.19531-.64453.35156-1.293.46093-1.9375m-3.4531-.69141c-.0781.44141-.1914.91797-.34765 1.4258-.80469 2.625-2.6797 5.7734-5.4141 8.5859-.0781.0781-.15234.15625-.23047.23438m-10.566-6.0508c.70312-.95703 1.5039-1.9102 2.3945-2.8281 2.7344-2.8125 5.793-4.7422 8.3476-5.5703.41406-.13282.8125-.23828 1.1836-.31641m30.766-39.594c-.87109 1.4883-1.5391 2.9922-1.9883 4.4531-.2539.82422-.4375 1.6562-.54297 2.4766m-3.7422-11.285-3.2305-2.5547m9.2617 7.3281-3.4453-2.7266m-.88281-3.332-3.4219-2.707m8.0039 6.332-2.8828-2.2813m2.8828-.35155-6.4961-5.1367m6.4961 2.5039-4.9844-3.9414m4.9844 1.3086-3.4726-2.75m3.4726.11719-1.7812-1.4102m-.17969 18.293-10.574-8.3672m11.352 6.3477-9.8398-7.7891m2.1758 17.523-11.238-8.8906m10.191 5.4297-8.6797-6.8711m10.699 5.832-9.1914-7.2695m10.402 5.5976-8.8906-7.0352m9.9531 5.2422-8.4414-6.6797m11.543 9.1328-2.3476-1.8594m-16.312 16.062-5.8555-4.6367m10.809 8.5547-2.0938-1.6602m9.3476 7.3984-6.6953-5.3008m15.648 12.383-6.0312-4.7695m-13.773-13.531-6.625-5.2422m18.961 15-9.4766-7.4961m16.945 13.406-4.6094-3.6445m-13.715-13.484-7.5547-5.9805m12.59 9.9648-2.1523-1.7031m5.1562 4.0781-.9961-.78906m5.1055 4.0391-2.1016-1.6602m8.2773 6.5469-3.3359-2.6367m-13.41-13.246-8.625-6.8242m13.672 10.816-2.0898-1.6524m8.7969 6.9609-1.9453-1.5391m6.9375 5.4883-2.1562-1.707m-19.168-17.797-3.2891-2.6055m9.5586 7.5664c-1.2422-.98437-2.4883-1.9688-3.7305-2.9531m8.5664 6.7812c-.60547-.48438-1.2148-.96485-1.8242-1.4453m8.0586 6.375-1.5195-1.2031m5.5039 4.3555-1.0898-.86328m-18.578-17.332-3.4375-2.7188m9.8828 7.8203-4.4375-3.5117m8.8554 7.0039-1.293-1.0195m6.9766 5.5195c-.28516-.22657-.56641-.44922-.85156-.67579m-7.1484-8.2891-10.473-8.2852m14.105 11.16-.35547-.28125m-18.055 14.68-4.7852-3.7852m23.465 18.566-7.8281-6.1953m-10.301-10.785-4.5-3.5586m7.9687 6.3047-.46094-.36719m6.2461 4.9453-.9375-.74219m11.711 9.2656-7.5781-5.9961m-11.605-11.816-4.5625-3.6094m8.7422 6.918-1.2774-1.0117m7.5586 5.9805-1.5898-1.2578m12.211 9.6641-7.543-5.9688m-12.531-12.551-4.8359-3.8281m9.4336 7.4688-1.7227-1.3672m8.4805 6.7109-2-1.582m12.617 9.9844-7.6367-6.043m-13.246-13.113-5.2383-4.1445m10.09 7.9844-1.9805-1.5664m4.8398 3.8281-.73438-.58203m4.9687 3.9297-2.1289-1.6836m12.59 9.9648-7.5469-5.9727m-25.305-1.5898-.68359-.54297m20.621 16.316-5.293-4.1875m-12.512-12.531-1.8164-1.4375m21.52 17.027-4.9844-3.9453m-14.004-13.715-1.5781-1.25m22.465 17.777-8.3945-6.6406m-15.82 3.2774-1.7461-1.3789m7.8125 6.1836-1.3555-1.0742m8.1133 6.418-3.8672-3.0625m-11.82-11.984-.75781-.59766m4.9492 3.918-1.0195-.80859m6.5625 5.1914-.57813-.45703m8.4297 6.668-4.9297-3.8984m-10.625-11.039-1.5938-1.2617m19.047 15.07-6.164-4.875m-8.8359-9.625-2.9062-2.3008m19.805 15.672-4.3047-3.4062m-14.945 3.9688-6.0156-4.7578m9.4258 7.457-2.1289-1.6836m6.5781 5.2031-1.6016-1.2656m-8.539-9.3906-2.2305-1.7617m9.1992 7.2812-2.1016-1.6641m7.1719 5.6719-2.2539-1.7812m-8.2383-9.1523c-.69531-.55078-1.3867-1.0977-2.082-1.6484m8.6523 6.8438c-.62109-.48828-1.2422-.98047-1.8633-1.4727m7.6836 6.0781-2.9961-2.3672m-6.6641 2.625-9.4258-7.4609m13.387 10.598-1.0586-.83984m-46.129 6.582v-10.312c0-3.668-4.7539-4.8906-4.7539 0v10.301m4.1172-.0234c-2.3281-6.6641-1.7422-11.5-1.7422-11.5m-2.0117 11.508c2.0117-4.3867 2.0117-11.508 2.0117-11.508m-2.6289 11.535-.84375-10.211c-.30078-3.6562-5.1406-4.457-4.7383.41406l.83984 10.152m4.0898-.32813c-2.8476-6.4102-2.6602-11.25-2.6602-11.25m-1.0234 11.539c1.6016-4.5547 1.0234-11.539 1.0234-11.539m-2.0312 11.641-.74609-10.109c-.26953-3.6602-5.0977-4.5078-4.7383.36719l.76562 10.434m4.043-.6289c-2.7578-6.4024-2.5273-11.207-2.5273-11.207m-1.2266 11.789c1.7578-4.5234 1.2266-11.789 1.2266-11.789m-1.6406 11.746-1.5781-10.262c-.55469-3.6211-5.4375-4.0664-4.6953.76172l1.625 10.566m4.0625-.96875c-3.3711-6.2617-3.5234-11.184-3.5234-11.184m-.37891 12.125c1.5273-4.6445.37891-12.125.37891-12.125m-.71484 11.949-2.1602-10.148c-.76172-3.582-5.6601-3.7344-4.6445 1.043l2.2305 10.48m3.9922-1.2422c-3.7187-6.0469-4.1523-10.953-4.1523-10.953m.30078 12.168c1.2812-4.7266-.30078-12.168-.30078-12.168m-.37891 12.129-3.0234-9.9141c-1.0664-3.5-5.9609-3.2031-4.5352 1.4648l3.0391 9.957m3.9531-1.3242c-4.2265-5.6837-5.082-10.531-5.082-10.531m1.4023 11.781c.72266-4.8164-1.4023-11.781-1.4023-11.781m-.07031 12.207c-4.0664-5.4102-4.9766-9.9961-4.9766-9.9961m5.7187 9.7852-3.0859-9.4102c-1.1406-3.4766-6.0234-3.0703-4.5039 1.5625l.79688 2.4375m2.6914 3.1602c-.41016-3.8633-1.6172-7.5352-1.6172-7.5352m41.062 5.4062.94531-10.066c.34375-3.6484-4.2734-5.3359-4.7305-.46875l-.94922 10.105m4.0391.32812c-1.6289-6.7539-.60938-11.418-.60938-11.418m-3.0039 11.121c2.3516-4.1875 3.0039-11.121 3.0039-11.121m6.6445 12.531.96094-10.172c.34766-3.6484-4.2695-5.3398-4.7305-.47266l-.92188 9.7305m4.0156.75c-1.6367-6.7812-.61328-11.461-.61328-11.461m-2.8398 10.801c2.2148-4.207 2.8398-10.801 2.8398-10.801m6.1758 13.066 2.5-9.7969c.90234-3.5469-3.3945-5.9688-4.6016-1.2422l-2.4688 9.6797m3.9023 1.125c-.55859-6.9336 1.168-11.363 1.168-11.363m-4.5976 10.363c2.914-3.7656 4.5976-10.363 4.5976-10.363m3.6406 13.215 3.6016-9.0898c1.3438-3.3984-2.6133-6.375-4.4062-1.8438l-3.6445 9.2109m3.7188 1.3984c.37109-6.7734 2.5781-10.82 2.5781-10.82m-5.8008 9.5976c3.332-3.3633 5.8008-9.5976 5.8008-9.5976m2.3672 13.191 4.7578-9.1641c1.6797-3.2383-1.957-6.6172-4.1953-2.3047l-4.8672 9.3828m3.7812 1.8008c.98046-7.082 3.7422-11.109 3.7422-11.109m-7.3437 9.3984c3.9141-2.7852 7.3437-9.3984 7.3437-9.3984m6.0664 7.4609 1.0195-1.2422c2.2969-2.8047-.57422-6.8906-3.6367-3.1523l-6.7734 8.2773m5.0469-1.332c2.1055-4.207 4.3125-6.3047 4.3125-6.3047m-9.2695 7.6953c4.4414-1.8008 9.2695-7.6953 9.2695-7.6953m8.2539-1.0664c-8.5508 26.523-16.875 46.969-24.848 57.887m20.434-55.27c-6.9687 21.328-13.785 38.523-20.379 49.711m13.02-45.426c-4.5469 13.586-9.0273 25.344-13.418 34.754m8.914-31.98c-3.2539 9.5664-6.4766 18.176-9.6523 25.633m24.91-32.23-3.0547-.72656m2.4453 2.5547-4.8164-1.1445m4.2109 2.9766-6.582-1.5625m5.9726 3.3945-8.3437-1.9844m7.7383 3.8125-10.109-2.3984m9.4648 4.2226-11.836-2.8125m11.191 4.6328-12.062-2.8633m11.418 4.6836-12.059-2.8594m11.418 4.6836-12.055-2.8633m9.8555 4.4102-10.527-2.5m8.1523 3.7227-8.7305-2.0742m5.1641 3.2969-5.875-1.3945m-4.8203 44.793v-19.559c0-1.8359-1.7852-16.504-2.3789-18.949s-6.5352-17.117-13.07-17.117c-6.539 0-12.48 6.7266-12.48 6.7266m-10.539 5.4492c2.2227-4.2148 5.7812-8.0742 8.8164-11.93m-1.7266 6.5781c1.8555-2.4297 3.9102-4.7852 5.7383-7.1445m-9.3711 9.7109c2.1914-3.2734 4.9766-6.3633 7.3906-9.4609m2.6406 3.3516c1.0781-1.3164 2.1562-2.6211 3.1523-3.9258m-1.3047 3.3125c-5.2187 1.3164-13.105 7.4648-16.375 10.418m-.6289-1.1289c2.1523-3.9883 5.4766-7.6562 8.3906-11.312m-9.2226 9.6875c2.0078-3.2109 4.6602-6.2344 7.0781-9.2422m-7.8672 7.7344c1.7227-2.4805 3.7578-4.8633 5.6797-7.2305m-6.4609 5.8438c1.3359-1.7891 2.793-3.5352 4.2109-5.2695m-4.9687 3.9297c.86328-1.1016 1.7617-2.1953 2.6523-3.2773m12.734 1.8672c1.4219-1.7539 2.8789-3.4805 4.207-5.2109m4.3555 1.2656c.38672-.48828.76953-.97266 1.1445-1.4609m-4.0352 2.832c.76562-.94141 1.5234-1.8789 2.2383-2.8164m6.3164 1.0469c.1875-.23828.375-.47656.5586-.71875m-2.0859.39063c.14844-.1836.28907-.36719.4336-.55469m-2.3242.69531c.21094-.26953.42187-.53906.625-.80468m6.168 3.4297c.64062-.78125 1.2773-1.5586 1.8906-2.3359m-2.8984 1.3867c.46875-.57421.93359-1.1484 1.3828-1.7226m-2.5.90234c.3086-.38672.61719-.76953.91797-1.1562m3.8594 6.2617c1.1836-1.5117 2.4258-2.9961 3.6289-4.4766m-4.4687 3.2891c1.0078-1.25 2.0391-2.4844 3.0312-3.7188m-3.9062 2.6055c.82812-1.0156 1.6602-2.0195 2.4648-3.0273m3.8828 6.2539c.98437-1.3008 2.0273-2.5742 3.0664-3.8398m-6.0937 5.5508c1.4531-2.0898 3.1289-4.1094 4.7695-6.1094m-5.5703 4.75c1.332-1.7852 2.7891-3.5274 4.1992-5.2539m-51.641 11.789h-.12109m15.895 1.3711c-2.4805-1.4726-6.0312-3.625-9.8086-5.1641m11.117 8.1719c-2.3047-1.3594-5.625-3.3984-9.2187-4.9609m10.363 7.875c-2.125-1.2539-5.1523-3.1172-8.4726-4.6484m9.5156 7.5c-1.9258-1.1328-4.6055-2.7812-7.5742-4.2226m8.5312 7.0234c-1.7148-1.0117-4.0195-2.418-6.582-3.7226m7.457 6.4766c-1.4883-.87891-3.3906-2.0352-5.5117-3.1602m6.3047 5.8633c-1.2109-.71875-2.6797-1.5977-4.3008-2.4922m5.0742 5.1875c-.91406-.54297-1.9648-1.168-3.1094-1.8164m-5.2344-21.004c-2.6523-1.5742-6.3633-3.7812-10.242-5.25m8.582 2.0313c-2.793-1.6524-6.5625-3.8281-10.437-5.1719m8.4883 1.7852c-2.8828-1.6836-6.5781-3.7148-10.316-4.8906m8.1719 1.4024c-2.9062-1.6563-6.4531-3.4844-9.9883-4.4766m7.4336.78516c-2.8008-1.5234-6.0391-3.0469-9.2265-3.8281m6.1641-.0781c-2.5156-1.25-5.2578-2.375-7.9375-2.9297m4.4726-1.043c-2.043-.875-4.1641-1.5859-6.2305-1.9336m2.6523-1.7695c-1.4961-.58985-3.0234-1.0781-4.5273-1.3828m-24.059 17.551c-1.1797.46093-3.3555 3.1055-5.7305 3.1055 2.375 0 4.5508 2.6484 5.7305 3.1055 1.2969.50391 3.1797-.0469 4.9648-1.2695-1.1875 1.832-1.7266 3.7695-1.2383 5.1055.4453 1.2148 3.0195 3.4492 3.0195 5.8945 0-2.4453 2.5742-4.6797 3.0195-5.8945.48828-1.3359-.04687-3.2734-1.2344-5.1055 1.7812 1.2227 3.668 1.7734 4.9609 1.2695 1.1836-.45703 3.3555-3.1055 5.7344-3.1055-2.3789 0-4.5508-2.6445-5.7344-3.1055-1.293-.50391-3.1797.0508-4.9609 1.2734 1.1875-1.8359 1.7226-3.7734 1.2344-5.1055-.44532-1.2188-3.0195-3.4531-3.0195-5.8984 0 2.4453-2.5742 4.6797-3.0195 5.8984-.48828 1.332.05078 3.2695 1.2383 5.1055-1.7852-1.2226-3.668-1.7773-4.9648-1.2734m14.793 5.5391c2.4336 3.1719-2.332 8.3398-5.6523 5.7266m-10.707-6.1016c-3.2813 3.25 2.3164 9.3125 5.7617 5.707m10.48-10.051c2.7266-3.1836-2.2539-8.625-5.6289-5.7969m-10.598 6.0391c-3.3164-3.2461 2.3008-9.3398 5.75-5.7148m4.332 9.5938 4.1562 4.2774m-7.7226-4.2774-4.1602 4.2774m7.7266-7.9453 4.1562-4.2812m-7.7226 4.2812-4.1602-4.2812m7.0859-3.8398c-.45312-9.875-4.1758-12.801-4.168-19.797m2.3594 19.277c-.51563-8.7383-3.6211-11.918-4.082-17.773m1.7773-1.0938c1.2109 4.5781 7.4883 10.551 13.664 7.3359-5.4687.4375-4.7148-9.8477-13.664-7.3359m-.05469-.38281c2.082 3.3594 4.625 4.6484 7.1836 5.8828m-8.9141-3.6641c1.1523 7.75-.32031 13.086-6.5351 14.059 4.2305-3.8945-.82813-12.367 6.5351-14.059-.58202 3.9023-1.5195 7.2539-2.9687 9.7773m72.738 67.234c-2.168-6.957-6.5937-10.332-12.777-10.91m10.672 10.914c-1.9219-4.2891-4.9414-6.8398-8.8789-7.9336m6.1211 7.8906c-1.1133-1.8516-2.4883-3.2891-4.0976-4.3516m24.133-8.0859c-8.2656 4.7617-8.875 8.5938-9.9023 12.48m9.9297-9.5781c-5.4805 3.5469-6.8203 6.5938-7.6602 9.5781m7.6836-5.9062c-2.793 2.1016-4.1953 4.0391-5.0391 5.9062m-8.0508-40.344s.59375 2.4453 1.7812 2.4453c1.1914 0 2.3828.48437 2.3828 2.3164 0 1.2227-2.8203 9.9727-1.7852 17.246 3.2344 2.3633 6.6562 3.6211 10.695 1.2226-.20312.043-.41406-.0195-.60937.043-3.5508 1.1797-6.9102 1.125-10.086-1.2656m-4.1602 0c-4.2734 5.2344-8.9648 2.7383-13.668 0 4.4688 2.0156 8.914 4.2773 13.012-.0234.13672-.14453.50781.16406.65625.0234m-1.1914-14.672c-3.6055.125-2.9688-4.2773-1.1875-4.2773.78125 0 1.5898.99609 2.2188 1.0508 1.9414.17187 1.9414-1.0508-.4336-.44141m5.9414-6.1133v-1.2227l-.59375.61329.59375.60937m-11.289.61328v-1.2226l.59375.60937-.59375.61328m10.695-1.2226c-1.4219-.76563-1.7226.58203-2.3789.60937-.59375 0-1.2656-.57422-1.8594-.57422-.59375 0-1.5234.75391-2.1211.75391-2.1172-1.3398-2.2969-.23047-3.7422-.17969m8.3164-3.0547c-1.5508-1.9062-3.4023-1.332-5.3476 0 1.6055-.98047 3.4531-.63281 5.3476 0m11.293 23.227c-.42968 1.1016-1.7109 2.0976-3.0156 2.0898-2.3203-.0156-4.1172-2.6992-5.8984-2.6992m9.1758-.19531c-.39453-1.1758-1.7461-1.5977-3.2344-1.6406-2.5547-.125-4.1602 1.2227-5.9414 1.8359m-6.539 0c-2.6094.0937-3.6367 2.1524-5.3476 2.4453-3.5625.60938-5.9414-2.4453-7.7226-2.4453m10.695.60938c.59375-1.832-2.0195-3.043-3.5664-3.0547-2.2734-.0156-5.3476 2.4453-7.1289 2.4453m54.266-42.129c-25.074-17.871-56.328-19.234-85.305-4.9649m97.594-45.207c0-1.0117.79688-1.832 1.7812-1.832s1.7812.82032 1.7812 1.832c0 1.0156-.79688 1.8359-1.7812 1.8359s-1.7812-.82031-1.7812-1.8359c0-1.0117.79688-1.832 1.7812-1.832s1.7812.82032 1.7812 1.832c0 1.0156-.79688 1.8359-1.7812 1.8359s-1.7812-.82031-1.7812-1.8359m15.039-14.348c0-1.0156.80078-1.8359 1.7852-1.8359.98437 0 1.7812.82031 1.7812 1.8359 0 1.0117-.79688 1.832-1.7812 1.832-.98438 0-1.7852-.8203-1.7852-1.832m-123.91 7.2891-24.242 23.09m90.324-23.363c4.3711-2.7187 1.5547 1.6875 1.1875 3.6641 1.9258-.37891 6.207-3.2734 3.5664 1.2226.16406.28125.30078.53125.41406.75782 1.7031 3.3906-2.1758.82031-3.9805.46484.36719 1.9805 3.1836 6.3867-1.1875 3.668-4.375 2.7188-1.5586-1.6875-1.1914-3.668-1.8477.36328-5.875 3.0547-3.8398-.73047.082-.15234.17187-.31641.27734-.49219-2.6445-4.4961 1.6406-1.6016 3.5625-1.2226-.36719-1.9766-3.1836-6.3828 1.1914-3.6641m-10.699-3.625c5.1094-.10547.53125 2.2617-.75 3.7852 1.8476.66406 6.9648.35938 2.4922 2.8945.10156 5.2539-2.1992.54297-3.6836-.77343-.64062 1.9023-.34375 7.1641-2.8086 2.5625-5.1094.10546-.53125-2.2617.75-3.7852-1.8476-.66406-6.9648-.35938-2.4922-2.8945-.10156-5.2539 2.1992-.54296 3.6836.77344.64062-1.9023.34375-7.1641 2.8086-2.5625m-64.176 79.113c-1.1055 0-2.0781-1.0039-2.0781-2.1406 0-1.1367.97266-2.1406 2.0781-2.1406 1.1055 0 2.082 1.0039 2.082 2.1406 0 1.1367-.97656 2.1406-2.082 2.1406" stroke-width=".72322"/>
  <path d="m177.61 114.71c1.1953.35938 3.0312-1.0781 3.0312-1.0781m-.73828 2.9141c1.5234.60937 1.5234 2.4453 1.5234 2.4453m-1.3281 1.0273c1.2305 1.1133.61719 2.8359.61719 2.8359m-.47656 1.6367c1.1133 1.2344.33593 2.8867.33593 2.8867m-.88281.60938c1.1055 1.2461.3125 2.8906.3125 2.8906m2.6133-16.777c.59766.28906 1.043.66797 1.1875 1.2226m-.83985 3.7617c.50391.44141.83985.92578.83985 1.5m-.84765 2.918c.4414.51172.69921 1.0391.62108 1.6094m-.82422 2.9688c.22657.64062.28126 1.2305 0 1.7305m-76.793-45.051c1.5078-.74219 3.0742-.88672 4.7539 0m-16.641-29.34c2.3789-2.4453 5.3476-2.4453 7.1328-.61328m-4.1601 8.5586c2.375.61328 4.7539-1.832 4.7539-1.832m10.695-6.1133c3.5664-1.8359 7.1289 0 8.914 1.832m-6.539 6.1133c4.1602 0 6.539-2.4453 6.539-2.4453m-21.805-4.6055c.17969.42969.28516.92969.28516 1.4648 0 1.5898-.92969 2.8828-2.0781 2.8828s-2.082-1.293-2.082-2.8828c0-.60156.13281-1.1562.35938-1.6172m21.5.0078c.35938.51953.57813 1.2227.57813 1.9961 0 1.5938-.92969 2.8828-2.0781 2.8828-1.1484 0-2.082-1.2891-2.082-2.8828 0-.6875.17578-1.3203.46875-1.8164" stroke-width=".36161"/>
 </g>
 <g fill="#f00">
  <path d="m151.31 178.63c.3711-.64062 1.3867-.91406 2.0312-.54297.64453.3711.91407 1.3867.35938 2.3516-.92969 1.6094-4.9883 2.6953-5.3594 3.3398.3711-.64453-.71875-4.7031.21094-6.3086.55859-.96485 1.5742-1.2383 2.2148-.86719.64454.37109.91407 1.3867.54297 2.0273z"/>
  <path d="m156.26 163.61c.1914-.71875 1.1016-1.2461 1.8164-1.0508.71875.19141 1.2422 1.1016.95704 2.1758-.48047 1.793-4.1211 3.8945-4.3125 4.6133.1914-.71875-1.9102-4.3555-1.4297-6.1484.28906-1.0781 1.1992-1.6016 1.918-1.4102.71484.1914 1.2422 1.1016 1.0508 1.8203z"/>
  <path d="m159.14 148.25c.0391-.74218.82032-1.4453 1.5625-1.4062.74219.0391 1.4453.82032 1.3867 1.9336-.0977 1.8555-3.2188 4.6641-3.2578 5.4062.0391-.74219-2.7734-3.8633-2.6758-5.7188.0586-1.1094.83594-1.8125 1.5781-1.7734.74219.0391 1.4453.81641 1.4062 1.5586z"/>
  <path d="m160.76 132.85c.0664-.74219.87109-1.4141 1.6094-1.3516.74219.0664 1.4141.87109 1.3203 1.9805-.16407 1.8476-3.3828 4.5508-3.4453 5.2891.0625-.73828-2.6367-3.957-2.4766-5.8086.0977-1.1094.90234-1.7852 1.6406-1.7188.74218.0625 1.418.86718 1.3516 1.6094z"/>
  <path d="m162.61 118.58c.12891-.73047.98828-1.3359 1.7188-1.207.73438.12891 1.3359.99219 1.1406 2.0859-.32032 1.832-3.7617 4.2383-3.8906 4.9727.12891-.73438-2.2812-4.1758-1.9609-6.0039.19532-1.0938 1.0547-1.6992 1.7852-1.5703.73437.12891 1.3359.99219 1.207 1.7227z"/>
 </g>
 <path d="m47.387 200.29c-1.1953-.35937-3.0312 1.0781-3.0312 1.0781m.73828-2.9141c-1.5234-.60938-1.5234-2.4453-1.5234-2.4453m1.3281-1.0273c-1.2305-1.1133-.61719-2.8359-.61719-2.8359m.47656-1.6367c-1.1133-1.2344-.33593-2.8867-.33593-2.8867m.88281-.60938c-1.1055-1.2461-.31251-2.8906-.31251-2.8906m-2.6133 16.777c-.59765-.28906-1.043-.66797-1.1875-1.2227m.83985-3.7617c-.50391-.4414-.83985-.92578-.83985-1.5m.84766-2.918c-.44141-.51172-.69922-1.0391-.62109-1.6094m.82422-2.9688c-.22657-.64062-.28126-1.2305 0-1.7305m76.793 45.051c-1.5078.74219-3.0742.88672-4.7539 0m16.641 29.34c-2.3789 2.4453-5.3476 2.4453-7.1328.61328m4.1602-8.5586c-2.375-.61328-4.7539 1.832-4.7539 1.832m-10.695 6.1133c-3.5664 1.8359-7.1289 0-8.914-1.832m6.539-6.1133c-4.1602 0-6.539 2.4453-6.539 2.4453m21.805 4.6055c-.17969-.42969-.28516-.92969-.28516-1.4648 0-1.5898.92969-2.8828 2.0781-2.8828 1.1484 0 2.082 1.293 2.082 2.8828 0 .60156-.13281 1.1562-.35937 1.6172m-21.5-.008c-.35938-.51953-.57813-1.2227-.57813-1.9961 0-1.5938.92969-2.8828 2.0781-2.8828 1.1484 0 2.082 1.2891 2.082 2.8828 0 .6875-.17578 1.3203-.46875 1.8164" fill="none" stroke="#4242ff" stroke-linecap="round" stroke-linejoin="round" stroke-width=".36161"/>
 <g fill="#f00">
  <path d="m73.691 136.37c-.37109.64062-1.3867.91406-2.0312.54297-.64453-.3711-.91406-1.3867-.35938-2.3516.92969-1.6094 4.9883-2.6953 5.3594-3.3398-.37109.64453.71875 4.7031-.21094 6.3086-.55859.96485-1.5742 1.2383-2.2148.86719-.64453-.37109-.91406-1.3867-.54297-2.0273z"/>
  <path d="m68.738 151.39c-.19141.71875-1.1016 1.2461-1.8164 1.0508-.71875-.19141-1.2422-1.1016-.95703-2.1758.48047-1.793 4.1211-3.8945 4.3125-4.6133-.19141.71875 1.9102 4.3555 1.4297 6.1484-.28906 1.0781-1.1992 1.6016-1.918 1.4102-.71484-.19141-1.2422-1.1016-1.0508-1.8203z"/>
  <path d="m65.859 166.75c-.03906.74218-.82031 1.4453-1.5625 1.4062-.74219-.0391-1.4453-.82032-1.3867-1.9336.09766-1.8555 3.2188-4.6641 3.2578-5.4062-.03906.74219 2.7734 3.8633 2.6758 5.7188-.05859 1.1094-.83594 1.8125-1.5781 1.7734-.74219-.0391-1.4453-.81641-1.4062-1.5586z"/>
  <path d="m64.238 182.15c-.06641.74218-.87109 1.4141-1.6094 1.3516-.74219-.0664-1.4141-.87109-1.3203-1.9805.16406-1.8477 3.3828-4.5508 3.4453-5.2891-.0625.73828 2.6367 3.957 2.4766 5.8086-.09766 1.1094-.90234 1.7852-1.6406 1.7188-.74219-.0625-1.418-.86719-1.3516-1.6094z"/>
  <path d="m62.387 196.42c-.12891.73047-.98828 1.3359-1.7188 1.207-.73438-.12891-1.3359-.99219-1.1406-2.0859.32031-1.832 3.7617-4.2383 3.8906-4.9727-.12891.73438 2.2812 4.1758 1.9609 6.0039-.19531 1.0938-1.0547 1.6992-1.7852 1.5703-.73438-.12891-1.3359-.99219-1.207-1.7227z"/>
 </g>
 <path d="m12.449 29.25c9 0 6.6016 10.801 15.602 10.801m-13.051-13.801v-8.5508c0-2.8984 2.3516-5.25 5.25-5.25 2.8984 0 5.25 2.3516 5.25 5.25v17.102c0 2.8984-2.3516 5.25-5.25 5.25-2.8984 0-5.25-2.3516-5.25-5.25zm0 0" fill="none" stroke="#f00" stroke-linecap="square" stroke-miterlimit="1.5" stroke-width="2.4"/>
 <path d="m20.25 52.211c0-2.0898 2.0938-4.1836 4.1836-4.1836s4.1836 2.0938 4.1836 5.2305c0 5.2266-8.3672 13.594-8.3672 15.684 0-2.0898-8.3633-10.457-8.3633-15.684 0-3.1367 2.0898-5.2305 4.1797-5.2305 2.0938 0 4.1836 2.0938 4.1836 4.1836z" fill="#f00"/>
 <path d="m54.523 46.648c0-4.3477 4.3516-8.6992 8.7031-8.6992 4.3477 0 8.6992 4.3516 8.6992 10.875 0 10.875-17.402 28.277-17.402 32.625 0-4.3477-17.398-21.75-17.398-32.625 0-6.5234 4.3516-10.875 8.6992-10.875 4.3516 0 8.6992 4.3516 8.6992 8.6992z" fill="#f00"/>
 <path d="m212.55 285.75c-9 0-6.6016-10.801-15.602-10.801m13.051 13.801v8.5508c0 2.8984-2.3516 5.25-5.25 5.25s-5.25-2.3516-5.25-5.25v-17.102c0-2.8984 2.3516-5.25 5.25-5.25s5.25 2.3516 5.25 5.25zm0 0" fill="none" stroke="#f00" stroke-linecap="square" stroke-miterlimit="1.5" stroke-width="2.4"/>
 <path d="m204.75 262.79c0 2.0898-2.0938 4.1836-4.1836 4.1836-2.0898 0-4.1836-2.0938-4.1836-5.2305 0-5.2266 8.3672-13.594 8.3672-15.684 0 2.0898 8.3633 10.457 8.3633 15.684 0 3.1367-2.0898 5.2305-4.1797 5.2305-2.0938 0-4.1836-2.0938-4.1836-4.1836z" fill="#f00"/>
 <path d="m170.48 268.35c0 4.3477-4.3516 8.6992-8.7031 8.6992-4.3477 0-8.6992-4.3516-8.6992-10.875 0-10.875 17.402-28.277 17.402-32.625 0 4.3477 17.398 21.75 17.398 32.625 0 6.5234-4.3516 10.875-8.6992 10.875-4.3516 0-8.6992-4.3516-8.6992-8.6992z" fill="#f00"/>
 <path d="m35.25 35.25h154.5v244.5h-154.5z" fill="none" stroke="#4242ff" stroke-width=".9375"/>
</svg>
