<svg width="225px" height="315px" version="1.1" viewBox="0 0 225 315" xmlns="http://www.w3.org/2000/svg">
 <path d="m11.719.46875h201.56c6.2148 0 11.25 5.0352 11.25 11.25v291.56c0 6.2148-5.0352 11.25-11.25 11.25h-201.56c-6.2148 0-11.25-5.0352-11.25-11.25v-291.56c0-6.2148 5.0352-11.25 11.25-11.25z" fill="#fff"/>
 <path d="m12.75 16.648v-4.1992h13.5l-9.3008 11.402c.30078-.30078 1.8008-1.2031 3.3008-1.2031 6 0 7.5 3.6016 7.5 8.1016 0 6-2.3984 9.3008-8.3984 9.3008s-6.9023-4.8008-6.9023-4.8008" fill="none" stroke="#000" stroke-linecap="square" stroke-miterlimit="1.5" stroke-width="2.4"/>
 <g>
  <path d="m20.25 48.027c2.0938 5.2305 7.4258 8.3672 7.4258 14.328 0 1.7305-1.4062 3.1367-3.1367 3.1367-1.7344 0-3.1367-1.4062-3.1367-3.1367 0-.11719-.09375-.21094-.21094-.21094-.11719 0-.20703.09375-.20703.21094 0 4.1797 1.043 4.4961 1.9844 6.5859h-5.4375c.94141-2.0898 1.9883-2.4062 1.9883-6.5859 0-.11719-.09375-.21094-.21094-.21094-.11328 0-.20703.09375-.20703.21094 0 1.7305-1.4062 3.1367-3.1367 3.1367-1.7344 0-3.1367-1.4062-3.1367-3.1367 0-5.9609 5.332-9.0977 7.4219-14.328z"/>
  <path d="m112.5 35.938c5.4688 13.672 19.414 21.875 19.414 37.461 0 4.5312-3.6719 8.2031-8.2031 8.2031s-8.2031-3.6719-8.2031-8.2031c0-.30469-.24609-.54688-.54687-.54688s-.54688.24219-.54688.54688c0 10.938 2.7344 11.758 5.1953 17.227h-14.219c2.4609-5.4688 5.1953-6.2891 5.1953-17.227 0-.30469-.2461-.54688-.54688-.54688s-.54687.24219-.54687.54688c0 4.5312-3.6719 8.2031-8.2031 8.2031-4.5312 0-8.2031-3.6719-8.2031-8.2031 0-15.586 13.945-23.789 19.414-37.461z"/>
  <path d="m112.5 130.16c5.4688 13.672 19.414 21.875 19.414 37.461 0 4.5312-3.6719 8.2031-8.2031 8.2031s-8.2031-3.6719-8.2031-8.2031c0-.30078-.24609-.54688-.54687-.54688s-.54688.2461-.54688.54688c0 10.938 2.7344 11.758 5.1953 17.227h-14.219c2.4609-5.4688 5.1953-6.2891 5.1953-17.227 0-.30078-.2461-.54688-.54688-.54688s-.54687.2461-.54687.54688c0 4.5312-3.6719 8.2031-8.2031 8.2031-4.5312 0-8.2031-3.6719-8.2031-8.2031 0-15.586 13.945-23.789 19.414-37.461z"/>
 </g>
 <path d="m212.25 298.35v4.1992h-13.5l9.3008-11.402c-.30078.30078-1.8008 1.2031-3.3008 1.2031-6 0-7.5-3.6016-7.5-8.1016 0-6 2.3984-9.3008 8.3984-9.3008s6.9023 4.8008 6.9023 4.8008" fill="none" stroke="#000" stroke-linecap="square" stroke-miterlimit="1.5" stroke-width="2.4"/>
 <path d="m204.75 266.97c-2.0938-5.2305-7.4258-8.3672-7.4258-14.328 0-1.7305 1.4062-3.1367 3.1367-3.1367 1.7344 0 3.1367 1.4062 3.1367 3.1367 0 .11719.0937.21094.21093.21094.11719 0 .20703-.0937.20703-.21094 0-4.1797-1.043-4.4961-1.9844-6.5859h5.4375c-.94141 2.0898-1.9883 2.4062-1.9883 6.5859 0 .11719.0937.21094.21094.21094.11328 0 .20703-.0937.20703-.21094 0-1.7305 1.4062-3.1367 3.1367-3.1367 1.7344 0 3.1367 1.4062 3.1367 3.1367 0 5.9609-5.332 9.0977-7.4219 14.328z"/>
 <path d="m112.5 279.06c-5.4688-13.672-19.414-21.875-19.414-37.461 0-4.5312 3.6719-8.2031 8.2031-8.2031 4.5312 0 8.2031 3.6719 8.2031 8.2031 0 .30469.24609.54688.54687.54688s.54688-.24219.54688-.54688c0-10.938-2.7344-11.758-5.1953-17.227h14.219c-2.4609 5.4688-5.1953 6.2891-5.1953 17.227 0 .30469.2461.54688.54688.54688s.54687-.24219.54687-.54688c0-4.5312 3.6719-8.2031 8.2031-8.2031s8.2031 3.6719 8.2031 8.2031c0 15.586-13.945 23.789-19.414 37.461z"/>
</svg>
