<svg width="225px" height="315px" version="1.1" viewBox="0 0 225 315" xmlns="http://www.w3.org/2000/svg">
 <path d="m11.719.46875h201.56c6.2148 0 11.25 5.0352 11.25 11.25v291.56c0 6.2148-5.0352 11.25-11.25 11.25h-201.56c-6.2148 0-11.25-5.0352-11.25-11.25v-291.56c0-6.2148 5.0352-11.25 11.25-11.25z" fill="#fff"/>
 <path d="m12.75 29.25c0-4.1406 3.3594-7.5 7.5-7.5s7.5 3.3594 7.5 7.5v3.3008c0 4.1406-3.3594 7.5-7.5 7.5s-7.5-3.3594-7.5-7.5v-12.602c0-4.1406 3.3594-7.5 7.5-7.5 4.5 0 5.3984 1.8008 6 2.5508" fill="none" stroke="#000" stroke-linecap="square" stroke-miterlimit="1.5" stroke-width="2.4"/>
 <g>
  <path d="m20.25 48.027c2.0938 5.2305 7.4258 8.3672 7.4258 14.328 0 1.7305-1.4062 3.1367-3.1367 3.1367-1.7344 0-3.1367-1.4062-3.1367-3.1367 0-.11719-.09375-.21094-.21094-.21094-.11719 0-.20703.09375-.20703.21094 0 4.1797 1.043 4.4961 1.9844 6.5859h-5.4375c.94141-2.0898 1.9883-2.4062 1.9883-6.5859 0-.11719-.09375-.21094-.21094-.21094-.11328 0-.20703.09375-.20703.21094 0 1.7305-1.4062 3.1367-3.1367 3.1367-1.7344 0-3.1367-1.4062-3.1367-3.1367 0-5.9609 5.332-9.0977 7.4219-14.328z"/>
  <path d="m63.281 35.938c5.4688 13.672 19.414 21.875 19.414 37.461 0 4.5312-3.6719 8.2031-8.2031 8.2031s-8.2031-3.6719-8.2031-8.2031c0-.30469-.24609-.54688-.54687-.54688-.30469 0-.54688.24219-.54688.54688 0 10.938 2.7344 11.758 5.1953 17.227h-14.219c2.4609-5.4688 5.1953-6.2891 5.1953-17.227 0-.30469-.24609-.54688-.54688-.54688-.30469 0-.54687.24219-.54687.54688 0 4.5312-3.6719 8.2031-8.2031 8.2031s-8.2031-3.6719-8.2031-8.2031c0-15.586 13.945-23.789 19.414-37.461z"/>
  <path d="m161.72 35.938c5.4688 13.672 19.414 21.875 19.414 37.461 0 4.5312-3.6719 8.2031-8.2031 8.2031s-8.2031-3.6719-8.2031-8.2031c0-.30469-.24219-.54688-.54687-.54688-.30078 0-.54688.24219-.54688.54688 0 10.938 2.7344 11.758 5.1953 17.227h-14.219c2.4609-5.4688 5.1953-6.2891 5.1953-17.227 0-.30469-.24219-.54688-.54688-.54688-.30078 0-.54687.24219-.54687.54688 0 4.5312-3.6719 8.2031-8.2031 8.2031s-8.2031-3.6719-8.2031-8.2031c0-15.586 13.945-23.789 19.414-37.461z"/>
  <path d="m63.281 130.16c5.4688 13.672 19.414 21.875 19.414 37.461 0 4.5312-3.6719 8.2031-8.2031 8.2031s-8.2031-3.6719-8.2031-8.2031c0-.30078-.24609-.54688-.54687-.54688-.30469 0-.54688.2461-.54688.54688 0 10.938 2.7344 11.758 5.1953 17.227h-14.219c2.4609-5.4688 5.1953-6.2891 5.1953-17.227 0-.30078-.24609-.54688-.54688-.54688-.30469 0-.54687.2461-.54687.54688 0 4.5312-3.6719 8.2031-8.2031 8.2031s-8.2031-3.6719-8.2031-8.2031c0-15.586 13.945-23.789 19.414-37.461z"/>
  <path d="m161.72 130.16c5.4688 13.672 19.414 21.875 19.414 37.461 0 4.5312-3.6719 8.2031-8.2031 8.2031s-8.2031-3.6719-8.2031-8.2031c0-.30078-.24219-.54688-.54687-.54688-.30078 0-.54688.2461-.54688.54688 0 10.938 2.7344 11.758 5.1953 17.227h-14.219c2.4609-5.4688 5.1953-6.2891 5.1953-17.227 0-.30078-.24219-.54688-.54688-.54688-.30078 0-.54687.2461-.54687.54688 0 4.5312-3.6719 8.2031-8.2031 8.2031s-8.2031-3.6719-8.2031-8.2031c0-15.586 13.945-23.789 19.414-37.461z"/>
 </g>
 <path d="m212.25 285.75c0 4.1406-3.3594 7.5-7.5 7.5-4.1406 0-7.5-3.3594-7.5-7.5v-3.3008c0-4.1406 3.3594-7.5 7.5-7.5 4.1406 0 7.5 3.3594 7.5 7.5v12.602c0 4.1406-3.3594 7.5-7.5 7.5-4.5 0-5.3984-1.8008-6-2.5508" fill="none" stroke="#000" stroke-linecap="square" stroke-miterlimit="1.5" stroke-width="2.4"/>
 <g>
  <path d="m204.75 266.97c-2.0938-5.2305-7.4258-8.3672-7.4258-14.328 0-1.7305 1.4062-3.1367 3.1367-3.1367 1.7344 0 3.1367 1.4062 3.1367 3.1367 0 .11719.0937.21094.21093.21094.11719 0 .20703-.0937.20703-.21094 0-4.1797-1.043-4.4961-1.9844-6.5859h5.4375c-.94141 2.0898-1.9883 2.4062-1.9883 6.5859 0 .11719.0937.21094.21094.21094.11328 0 .20703-.0937.20703-.21094 0-1.7305 1.4062-3.1367 3.1367-3.1367 1.7344 0 3.1367 1.4062 3.1367 3.1367 0 5.9609-5.332 9.0977-7.4219 14.328z"/>
  <path d="m161.72 279.06c-5.4688-13.672-19.414-21.875-19.414-37.461 0-4.5312 3.6719-8.2031 8.2031-8.2031s8.2031 3.6719 8.2031 8.2031c0 .30469.24609.54688.54687.54688.30469 0 .54688-.24219.54688-.54688 0-10.938-2.7344-11.758-5.1953-17.227h14.219c-2.4609 5.4688-5.1953 6.2891-5.1953 17.227 0 .30469.2461.54688.54688.54688.30468 0 .54687-.24219.54687-.54688 0-4.5312 3.6719-8.2031 8.2031-8.2031s8.2031 3.6719 8.2031 8.2031c0 15.586-13.945 23.789-19.414 37.461z"/>
  <path d="m63.281 279.06c-5.4688-13.672-19.414-21.875-19.414-37.461 0-4.5312 3.6719-8.2031 8.2031-8.2031s8.2031 3.6719 8.2031 8.2031c0 .30469.24219.54688.54687.54688.30078 0 .54688-.24219.54688-.54688 0-10.938-2.7344-11.758-5.1953-17.227h14.219c-2.4609 5.4688-5.1953 6.2891-5.1953 17.227 0 .30469.24219.54688.54688.54688.30078 0 .54687-.24219.54687-.54688 0-4.5312 3.6719-8.2031 8.2031-8.2031s8.2031 3.6719 8.2031 8.2031c0 15.586-13.945 23.789-19.414 37.461z"/>
 </g>
</svg>
