<svg width="225px" height="315px" version="1.1" viewBox="0 0 225 315" xmlns="http://www.w3.org/2000/svg">
 <g>
  <path d="m11.719.46875h201.56c6.2148 0 11.25 5.0352 11.25 11.25v291.56c0 6.2148-5.0352 11.25-11.25 11.25h-201.56c-6.2148 0-11.25-5.0352-11.25-11.25v-291.56c0-6.2148 5.0352-11.25 11.25-11.25z" fill="#fff"/>
  <path d="m180.25 39.438c-3.7344 0-6.7578 5.7461-6.7578 12.836 0 4.9023 1.4727 9.3711 3.7891 11.523l-5.4336 5.5938 5.4375 5.5938c-2.3203 2.1484-3.793 6.6211-3.793 11.52 0 4.0664.99219 7.6875 2.5469 10.043.10937.46094 5.668 3.1289 6.1562 2.2539 2.7852-1.5898 4.8125-6.4922 4.8125-12.297 0-4.8984-1.4727-9.3711-3.7891-11.523l5.4336-5.5898-5.4375-5.5977c2.3164-2.1484 3.7891-6.6172 3.793-11.52 0-7.0898-3.0234-12.836-6.7578-12.836zm0 5.5039c2.1328 0 3.8633 3.2812 3.8633 7.332 0 4.0508-1.7305 7.3359-3.8633 7.3359-2.1328 0-3.8633-3.2852-3.8633-7.3359 0-4.0508 1.7305-7.332 3.8633-7.332zm-62.512 10.984c-7.5938.78906-15.195 2.0742-22.707 3.6992 2.082 7.7266-6.1836 12.621-5.1094 21.469.21875 1.7773 1.375 2.8281 2.7734 3.2461-.38672 3.2617-2.457 7.2148-5.1211 6.5117.90234.02734 1.7539-.58203 1.7539-1.8125.0078-3.0547-5.9414-4.918-5.9414 1.8359 0 3.2305 3.8008 5.0664 7.207 3.9414-.61719.21875-1.2461.35938-1.8633.44141l.01172 32.656c-1.2422-1.3359-3.1797-2.1992-5.3555-2.1992-3.7422 0-6.7773 2.5469-6.7773 5.6836 0 .1289.0039.2539.01563.3789h-.01563l-.0078.8711c2.9102 3.668 5.5781 7.6758 8.0508 11.996l39.711.0195.0234-9.0781h-.0156c.008-.0859.0156-.17578.0156-.26563 0-2.2109-2.3945-4.0039-5.3476-4.0039-1.1133.0742-2.0156.32031-2.8086.72265.70313-.35937 1.4883-.60156 2.4336-.70703l1.25-1.8906 7.6992 5.3906 1.2226-1.8047-7.6602-5.4219-.80079 1.1445 14.969-22.602 7.6484 5.4102 1.168-1.8516-7.6055-5.3789-.39453.58593 6.1445-9.2773 7.6484 5.4063 1.2617-1.7813-6.8555-4.8477-.95703.12891-1.0391 1.0039.47657-.71484c-.44922.19922-1.0547.32031-1.8125.32031-2.9727 0-6.5352-.60938-8.9141-.60938-1.1562 0-3.3047-.72656-5.3242-1.4609-1.2344.42188-3.25 1.0664-4.7774 1.4609-2.0938.53906-6.0391-1.3008-6.957-1.7578-1.25 1.9219-2.8906 3.0938-4.5547 3.6562 3.1133-1.0586 6.1289-4.2656 6.6875-10.523 2.9414-.67188 5.418-2.832 5.418-5.4336 0-6.7539-6.5352-5.5039-6.5352-1.2227 0 1.1641.40625 1.8281.96093 2.1367-9.543-3.8398 4.5234-15.082.70704-25.473zm62.512 9.8828 3.4805 3.582-3.4805 3.5781-3.4805-3.5781zm0 13.359c2.1328 0 3.8633 3.2852 3.8633 7.3359 0 4.0508-1.7305 7.3359-3.8633 7.3359-2.1328 0-3.8633-3.2852-3.8633-7.3359 0-4.0508 1.7305-7.3359 3.8633-7.3359zm-87.309 14.289c.0039.01953.0078.03906.0078.05859 0-.01563-.0039-.02734-.0039-.03906-.04687.03125-.08984.0625-.13672.09375.04297-.03516.08984-.07422.13281-.11328zm-.66016.51953.01953 4.2305h45.16l-23.762 35.113-.008.79297v-1.1367h-.0195c.0117-.11719.0195-.23047.0195-.34375 0-2.8476-2.5273-5.1562-5.6445-5.1562-2.8516 0-5.2109 1.9297-5.6211 4.2617-.1875-3.0938-2.8633-5.4102-6.1406-5.4102-2.1367 0-4.0195.98437-5.1133 2.4687.3125-.42578.6875-.81249 1.1172-1.1523l-.01172-33.664s0-.0039.0039-.0039zm11.133.47656c.0195.03125.0391.0625.0547.09375-.0117-.01953-.0234-.04297-.0391-.06641-1.832 2.0625-4.4023 3.043-6.5469 2.8242 2.1406.21094 4.7109-.77734 6.5313-2.8516zm48.395 3.9141-27.422 41.406v4.8906l20.844-31.527-14.004 21.227c4.3984.26953 8.7148 1.1328 12.863 2.5391-4.1484-1.4062-8.4688-2.2617-12.867-2.5273l-2.3398 3.5273c7.375.14453 14.578 2.0195 21.133 5.4609l.76953.41016c4.9102 2.6914 9.4414 6.2695 13.391 10.637 9.5274 10.547 14.883 24.852 14.883 39.766 0 4.25-.4336 8.4492-1.2891 12.527.98438.52344 1.9961 1.0312 3.0469 1.5274 1.0312-4.5859 1.5547-9.2578 1.5547-14.055 0-12.02-3.2617-23.664-9.2109-33.461-.043-.0312-.0859-.0664-.12891-.0977 5.0117 3.8242 10.676 6.75 16.723 8.6719v-24.074c-6.1445-3.1406-13.07-10.598-12.039-18.531-4.1719-3.0078-8.4883-5.9844-12.934-8.918 8.9062 5.8672 17.273 11.871 24.973 17.879v-13.789c-12.434-8.3906-23.844-15.695-35.602-22.246l-.008.01563zm-76.742.45312-2.375 1.0352v28.086l2.375 2.7617zm6.5391 2.2734c-1.6523 0-3.3047 1.0508-1.2617 3.1523-4.0898-4.2031-4.0898 6.8008 0 2.5938-4.0898 4.207 6.6094 4.207 2.5195 0 3.1172 3.207 3.8984-2.4688 2.2539-3.4531-.51562-.30469-1.2656-.15625-2.2539.85937 2.0469-2.1016.39453-3.1523-1.2578-3.1523zm10.695 3.8398v3.0547h38.512l1.8945-3.0547zm61.676 5.9375c.0312.0234.0664.043.10156.0664-.0352-.0234-.0703-.043-.10156-.0664zm-72.445 4.207c-1.6523 0-3.3047 1.0508-1.2617 3.1523-4.0859-4.2031-4.0859 6.8008 0 2.5938-4.0859 4.207 6.6094 4.207 2.5234 0 3.1172 3.207 3.8984-2.4688 2.25-3.4531-.51172-.30468-1.2617-.15625-2.25.85938 2.043-2.1016.39063-3.1523-1.2617-3.1523zm47.328.88671-1.2188 1.8125 7.6836 5.4336 1.2188-1.8125zm-37.723 12.883c-.02344.0352-.05078.0703-.07422.10546.02344-.0352.05078-.0703.07422-.10546zm-.98437 2.9141c.0039.0156.0078.0273.01172.0391v.004c-.0039-.0117-.0078-.0273-.01172-.043zm25.957.33984c-.0547.0312-.11328.0625-.16797.0977.0547-.0352.11328-.0664.16797-.0977zm40.078 6.2461c.0352.0977.0742.1914.11328.28906-.0391-.0977-.0781-.19141-.11328-.28906zm.36719.92187c.0352.0898.0703.17969.10938.26953-.0391-.0898-.0742-.17969-.10938-.26953zm.4375 1.0391c.0586.13672.12109.27735.18359.41797-.0625-.14062-.125-.28125-.18359-.41797zm.36719.81641c.0703.15625.14062.3125.21484.46484-.0742-.15234-.14453-.30859-.21484-.46484zm.32422.69531c.15625.33203.3164.66016.48047.98438-.16407-.32422-.32422-.65235-.48047-.98438zm.59765 1.2148c.0977.1914.19532.38281.29297.57031-.0977-.1875-.19531-.37891-.29297-.57031zm.32813.63671c.22656.42188.45703.84375.6914 1.2656.36719.64844.75 1.293 1.1484 1.9258-.33594-.53906-.66797-1.082-.98047-1.6289-.0586-.10156-.11328-.19921-.16797-.29687-.23437-.42188-.46484-.84375-.6914-1.2656zm-28.898 2.1836c.28906.88281.58594 1.7539.88672 2.6211l-.26563-.75781h-43.973l1.5078 3.0195 43.523-.0352-.0273-.0781c.16797.46094.33594.92187.50782 1.375 24.012.60937 37.988 23.605 35.285 48.266 1.3281.9336 2.7148 1.8516 4.1328 2.7383-.77344-1.1836-.77735-1.9922.23828-2.3008.26562-2.1523.39843-4.332.39843-6.5273 0-.65625-.0117-1.3086-.0352-1.9609-1.5977-1.2266-1.4024-2.332-.23047-3.375-.30469-3.043-.87109-6.0352-1.6797-8.9375-2.1758-1.6602-1.3633-2.2422-.92187-2.957-.97657-2.832-2.1914-5.5586-3.6328-8.1484-.99609-.5-1.7461-1.0664-1.1602-1.9726-1.5078-2.4297-3.2227-4.7188-5.1328-6.832-.60547-.67188-1.2305-1.3203-1.8672-1.9492-.47266-.28906-.96094-.54297-1.2656-1.1953-2.7852-2.543-5.8359-4.6758-9.0664-6.3672l-.66016-.33985c-3.2852-1.6445-6.75-2.8398-10.316-3.5508l-1.5117-.26953c-1.5625-.24609-3.1406-.40234-4.7344-.46484zm30.781 1.0781c.12109.1875.23828.37891.35938.56641-.1211-.1875-.23829-.37891-.35938-.56641zm-63.715 6.1524c-1.6523 0-3.3047 1.0508-1.2578 3.1562-4.0898-4.207-4.0898 6.7969 0 2.5898-4.0898 4.207 6.6055 4.207 2.5195 0 3.1172 3.207 3.8984-2.4688 2.2539-3.4531-.51562-.30469-1.2656-.15625-2.2539.86328 2.043-2.1055.39062-3.1562-1.2617-3.1562zm10.477 0c-1.6523 0-3.3047 1.0508-1.2617 3.1562-4.0859-4.207-4.0859 6.7969 0 2.5898-4.0859 4.207 6.6094 4.207 2.5195 0 3.1172 3.207 3.8984-2.4688 2.2539-3.4531-.51563-.30469-1.2617-.15625-2.2539.86328 2.0469-2.1055.39453-3.1562-1.2578-3.1562zm27.02 5.0195 2.0312 4.2812c12.168 3.7734 21.191 15.871 21.738 30.395l3.3125 2.9609c.0195-.51953.0273-1.043.0273-1.5664 0-17.977-11.688-32.934-27.109-36.07z" fill="#ffcc42"/>
  <path d="m44.754 275.56c3.7344 0 6.7578-5.7461 6.7578-12.836 0-4.9023-1.4727-9.3711-3.7891-11.523l5.4336-5.5938-5.4375-5.5938c2.3203-2.1484 3.793-6.6211 3.793-11.52 0-4.0664-.99219-7.6875-2.5469-10.043-.10938-.46093-5.668-3.1289-6.1562-2.2539-2.7852 1.5898-4.8125 6.4922-4.8125 12.297 0 4.8984 1.4727 9.3711 3.7891 11.523l-5.4336 5.5898 5.4375 5.5977c-2.3164 2.1484-3.7891 6.6172-3.793 11.52 0 7.0898 3.0234 12.836 6.7578 12.836zm0-5.5039c-2.1328 0-3.8633-3.2812-3.8633-7.332s1.7305-7.3359 3.8633-7.3359c2.1328 0 3.8633 3.2852 3.8633 7.3359s-1.7305 7.332-3.8633 7.332zm62.512-10.984c7.5938-.78906 15.195-2.0742 22.707-3.6992-2.082-7.7266 6.1836-12.621 5.1094-21.469-.21875-1.7773-1.375-2.8281-2.7734-3.2461.38672-3.2617 2.457-7.2148 5.1211-6.5117-.90235-.0273-1.7539.58203-1.7539 1.8125-.008 3.0547 5.9414 4.918 5.9414-1.8359 0-3.2305-3.8008-5.0664-7.207-3.9414.61718-.21875 1.2461-.35937 1.8633-.4414l-.0117-32.656c1.2422 1.3359 3.1797 2.1992 5.3555 2.1992 3.7422 0 6.7773-2.5469 6.7773-5.6836 0-.1289-.004-.2539-.0156-.3789h.0156l.008-.8711c-2.9102-3.668-5.5781-7.6758-8.0508-11.996l-39.711-.0195-.0234 9.0781h.0156c-.008.0859-.0156.17578-.0156.26563 0 2.2109 2.3945 4.0039 5.3476 4.0039 1.1133-.0742 2.0156-.32031 2.8086-.72265-.70313.35937-1.4883.60156-2.4336.70703l-1.25 1.8906-7.6992-5.3906-1.2227 1.8047 7.6602 5.4219.80078-1.1445-14.969 22.602-7.6484-5.4102-1.168 1.8516 7.6055 5.3789.39453-.58593-6.1445 9.2773-7.6484-5.4062-1.2617 1.7812 6.8555 4.8477.95703-.12891 1.0391-1.0039-.47656.71485c.44922-.19922 1.0547-.32031 1.8125-.32031 2.9727 0 6.5352.60937 8.9141.60937 1.1562 0 3.3047.72656 5.3242 1.4609 1.2344-.42188 3.25-1.0664 4.7773-1.4609 2.0938-.53906 6.0391 1.3008 6.957 1.7578 1.25-1.9219 2.8906-3.0938 4.5547-3.6562-3.1133 1.0586-6.1289 4.2656-6.6875 10.523-2.9414.67188-5.418 2.832-5.418 5.4336 0 6.7539 6.5352 5.5039 6.5352 1.2227 0-1.1641-.40625-1.8281-.96093-2.1367 9.543 3.8398-4.5234 15.082-.70703 25.473zm-62.512-9.8828-3.4805-3.582 3.4805-3.5781 3.4805 3.5781zm0-13.359c-2.1328 0-3.8633-3.2852-3.8633-7.3359s1.7305-7.3359 3.8633-7.3359c2.1328 0 3.8633 3.2852 3.8633 7.3359s-1.7305 7.3359-3.8633 7.3359zm87.309-14.289c-.004-.0195-.008-.0391-.008-.0586 0 .0156.004.0273.004.0391.0469-.0312.0898-.0625.13672-.0937-.043.0352-.0898.0742-.13281.11328zm.66016-.51953-.0195-4.2305h-45.16l23.762-35.113.008-.79297v1.1367h.0195c-.0117.11718-.0195.23047-.0195.34375 0 2.8476 2.5273 5.1562 5.6445 5.1562 2.8516 0 5.2109-1.9297 5.6211-4.2617.1875 3.0938 2.8633 5.4102 6.1406 5.4102 2.1367 0 4.0195-.98437 5.1133-2.4688-.3125.42579-.6875.8125-1.1172 1.1524l.0117 33.664s0 .004-.004.004zm-11.133-.47657c-.0195-.0312-.0391-.0625-.0547-.0937.0117.0195.0234.043.0391.0664 1.832-2.0625 4.4023-3.043 6.5469-2.8242-2.1406-.21094-4.7109.77735-6.5312 2.8516zm-48.395-3.9141 27.422-41.406v-4.8906l-20.844 31.527 14.004-21.227c-4.3984-.26953-8.7148-1.1328-12.863-2.5391 4.1484 1.4062 8.4688 2.2617 12.867 2.5273l2.3398-3.5273c-7.375-.14454-14.578-2.0195-21.133-5.4609l-.76953-.41016c-4.9102-2.6914-9.4414-6.2695-13.391-10.637-9.5273-10.547-14.883-24.852-14.883-39.766 0-4.25.43359-8.4492 1.2891-12.527-.98438-.52344-1.9961-1.0312-3.0469-1.5274-1.0312 4.5859-1.5547 9.2578-1.5547 14.055 0 12.02 3.2617 23.664 9.2109 33.461.04297.0312.08594.0664.12891.0977-5.0117-3.8242-10.676-6.75-16.723-8.6719v24.074c6.1445 3.1406 13.07 10.598 12.039 18.531 4.1719 3.0078 8.4883 5.9844 12.934 8.918-8.9062-5.8672-17.273-11.871-24.973-17.879v13.789c12.434 8.3906 23.844 15.695 35.602 22.246l.0078-.0156zm76.742-.45312 2.375-1.0352v-28.086l-2.375-2.7617zm-6.5391-2.2734c1.6523 0 3.3047-1.0508 1.2617-3.1523 4.0898 4.2031 4.0898-6.8008 0-2.5938 4.0898-4.207-6.6094-4.207-2.5195 0-3.1172-3.207-3.8984 2.4688-2.2539 3.4531.51562.30469 1.2656.15625 2.2539-.85937-2.0469 2.1016-.39453 3.1523 1.2578 3.1523zm-10.695-3.8398v-3.0547h-38.512l-1.8945 3.0547zm-61.676-5.9375c-.03125-.0234-.06641-.043-.10156-.0664.03516.0234.07031.043.10156.0664zm72.445-4.207c1.6523 0 3.3047-1.0508 1.2617-3.1523 4.0859 4.2031 4.0859-6.8008 0-2.5938 4.0859-4.207-6.6094-4.207-2.5234 0-3.1172-3.207-3.8984 2.4688-2.25 3.4531.51172.30468 1.2617.15625 2.25-.85938-2.043 2.1016-.39063 3.1523 1.2617 3.1523zm-47.328-.88671 1.2188-1.8125-7.6836-5.4336-1.2188 1.8125zm37.723-12.883c.0234-.0352.0508-.0703.0742-.10547-.0234.0352-.0508.0703-.0742.10547zm.98437-2.9141c-.004-.0156-.008-.0273-.0117-.0391v-.004c.004.0117.008.0273.0117.043zm-25.957-.33984c.0547-.0312.11328-.0625.16797-.0977-.0547.0352-.11328.0664-.16797.0977zm-40.078-6.2461c-.03516-.0977-.07422-.1914-.11328-.28906.03906.0977.07813.19141.11328.28906zm-.36719-.92187c-.03516-.0898-.07031-.17969-.10938-.26953.03906.0898.07422.17968.10938.26953zm-.4375-1.0391c-.05859-.13672-.12109-.27735-.18359-.41797.0625.14062.125.28125.18359.41797zm-.36719-.81641c-.07031-.15625-.14062-.3125-.21484-.46484.07422.15234.14453.30859.21484.46484zm-.32422-.69531c-.15625-.33203-.31641-.66016-.48047-.98438.16406.32422.32422.65235.48047.98438zm-.59766-1.2148c-.09766-.1914-.19531-.38281-.29297-.57031.09766.1875.19531.37891.29297.57031zm-.32812-.63672c-.22656-.42187-.45703-.84375-.69141-1.2656-.36719-.64844-.75-1.293-1.1484-1.9258.33594.53906.66797 1.082.98047 1.6289.05859.10157.11328.19922.16797.29688.23438.42187.46484.84375.69141 1.2656zm28.898-2.1836c-.28906-.88281-.58594-1.7539-.88672-2.6211l.26562.75781h43.973l-1.5078-3.0195-43.523.0352.02734.0781c-.16796-.46096-.33593-.9219-.50781-1.375-24.012-.60938-37.988-23.605-35.285-48.266-1.3281-.9336-2.7148-1.8516-4.1328-2.7383.77344 1.1836.77734 1.9922-.23828 2.3008-.26562 2.1523-.39844 4.332-.39844 6.5273 0 .65625.01172 1.3086.03516 1.9609 1.5977 1.2266 1.4023 2.332.23047 3.375.30469 3.043.87109 6.0352 1.6797 8.9375 2.1758 1.6602 1.3633 2.2422.92187 2.957.97656 2.832 2.1914 5.5586 3.6328 8.1484.99609.5 1.7461 1.0664 1.1602 1.9727 1.5078 2.4297 3.2227 4.7188 5.1328 6.832.60547.67188 1.2305 1.3203 1.8672 1.9492.47266.28906.96094.54297 1.2656 1.1953 2.7852 2.543 5.8359 4.6758 9.0664 6.3672l.66016.33984c3.2852 1.6445 6.75 2.8398 10.316 3.5508l1.5117.26953c1.5625.24609 3.1406.40234 4.7344.46484zm-30.781-1.0781c-.12109-.1875-.23828-.37891-.35938-.56641.12109.1875.23828.37891.35938.56641zm63.715-6.1524c1.6524 0 3.3047-1.0508 1.2578-3.1562 4.0898 4.207 4.0898-6.7969 0-2.5898 4.0898-4.207-6.6055-4.207-2.5195 0-3.1172-3.207-3.8984 2.4688-2.2539 3.4531.51562.30469 1.2656.15625 2.2539-.86328-2.043 2.1055-.39062 3.1562 1.2617 3.1562zm-10.477 0c1.6523 0 3.3047-1.0508 1.2617-3.1562 4.0859 4.207 4.0859-6.7969 0-2.5898 4.0859-4.207-6.6094-4.207-2.5195 0-3.1172-3.207-3.8984 2.4688-2.2539 3.4531.51563.30469 1.2617.15625 2.2539-.86328-2.0469 2.1055-.39453 3.1562 1.2578 3.1562zm-27.02-5.0195-2.0312-4.2812c-12.168-3.7734-21.191-15.871-21.738-30.395l-3.3125-2.9609c-.01953.51953-.02734 1.043-.02734 1.5664 0 17.977 11.688 32.934 27.109 36.07z" fill="#ffcc42"/>
  <path d="m75.656 35.25c5.6406 5.8203 11.949 12.566 16.68 20.266 14.234-5.9297 42.637-9.3633 56.84-3.1602 5.0586-6.1836 11.152-11.777 17.676-17.105zm104.59 9.6914c-2.1328 0-3.8633 3.2812-3.8633 7.332 0 4.0508 1.7305 7.3359 3.8633 7.3359 2.1328 0 3.8633-3.2852 3.8633-7.3359 0-4.0508-1.7305-7.332-3.8633-7.332zm0 20.867-3.4805 3.582 3.4805 3.5781 3.4805-3.5781zm0 13.359c-2.1328 0-3.8633 3.2852-3.8633 7.3359 0 4.0508 1.7305 7.3359 3.8633 7.3359 2.1328 0 3.8633-3.2852 3.8633-7.3359 0-4.0508-1.7305-7.3359-3.8633-7.3359zm-27.461 22.531-2.4062 3.6133c14.336 8.5742 27.617 17.688 39.371 26.812v-5.8047c-11.125-8.5-23.582-16.562-36.965-24.621zm-84.258.20312c-5.6875 2.8398-11.352 5.7852-16.906 8.875 6.3242 3.6836 11.926 7.9609 16.926 12.875zm13.098 1.8086c-.48047-.008-.94531.1875-1.2852.53515-.69531.71875-.69531 1.8789 0 2.5938.69531.71875 1.8242.71875 2.5195 0 .69922-.71484.69922-1.875 0-2.5938-.32812-.33593-.76953-.52734-1.2344-.53515zm10.672 9.1953.03906 14.699c1.1016-.80469 2.4609-1.2773 3.9453-1.2773 3.2773 0 5.9531 2.3164 6.1406 5.4102.41015-2.332 2.7695-4.2617 5.6211-4.2617 3.1172 0 5.6445 2.3086 5.6445 5.1562 0 .11328-.008.22656-.0195.34375h.0195l.008.36328 13.758-20.41zm-10.742 4.7891c-.48438-.008-.94531.1875-1.2891.53516-.69531.71875-.69531 1.8789 0 2.5938.69922.71875 1.8281.71875 2.5234 0 .69531-.71484.69531-1.875 0-2.5938-.32812-.33594-.76953-.52734-1.2344-.53516zm105.52 15.91c-1.4141 2.7617 1.0547 5.8398 2.6719 7.2383v-5.1992c-.87109-.67969-1.7539-1.3594-2.6719-2.0391zm-55.691 17.098c.008.0234.0156.0469.0273.0742h.043zm-18.734.0156-24.711.0586-.07813-.0391c2.0781 4.2227 3.9727 8.6953 5.7031 13.43l-.02344.0547h19.121zm19.211 1.2813 2.4062 6.1055c15.422 3.1367 27.109 18.094 27.109 36.07 0 .52344-.008 1.0469-.0273 1.5664l5.8164 4.5469c2.6874-24.684-11.289-47.68-35.305-48.289zm-35.09 1.0859c1.6523 0 3.3047 1.0508 1.2617 3.1562.98828-1.0195 1.7383-1.168 2.2539-.86328 1.6445.98437.86328 6.6602-2.2539 3.4531 4.0859 4.207-6.6094 4.207-2.5195 0-4.0898 4.207-4.0898-6.7969 0-2.5898-2.0469-2.1055-.39453-3.1562 1.2578-3.1562zm-1.2578 3.1562c-.69922.71484-.69922 1.875 0 2.5898.69531.71875 1.8242.71875 2.5195 0 .69531-.71484.69531-1.875 0-2.5898-.69531-.71875-1.8242-.71875-2.5195 0zm11.734-3.1562c1.6523 0 3.3047 1.0508 1.2578 3.1562.99219-1.0195 1.7383-1.168 2.2539-.86328 1.6445.98437.86328 6.6602-2.2539 3.4531 4.0898 4.207-6.6055 4.207-2.5195 0-4.0859 4.207-4.0859-6.7969 0-2.5898-2.043-2.1055-.39062-3.1562 1.2617-3.1562zm-1.2617 3.1562c-.69531.71484-.69531 1.875 0 2.5898.69531.71875 1.8242.71875 2.5195 0 .69922-.71484.69922-1.875 0-2.5898-.69531-.71875-1.8242-.71875-2.5195 0zm30.289 6.168c5.6797 12.105 12.801 22.18 21.727 30.398-.51172-14.551-9.5352-26.648-21.727-30.398zm42.832 2.2344c4.2774 9.0312 6.5703 19.148 6.5703 29.531 0 5.2773-.58985 10.492-1.7148 15.527 1.8906.83204 3.8125 1.6172 5.7852 2.3633v-42.777c-3.7109-1.1797-7.2773-2.7383-10.641-4.6445z" fill="#f00"/>
  <path d="m149.34 279.75c-5.6406-5.8203-11.949-12.566-16.68-20.266-14.234 5.9297-42.637 9.3633-56.84 3.1602-5.0586 6.1836-11.152 11.777-17.676 17.105zm-104.59-9.6914c2.1328 0 3.8633-3.2812 3.8633-7.332s-1.7305-7.3359-3.8633-7.3359c-2.1328 0-3.8633 3.2852-3.8633 7.3359s1.7305 7.332 3.8633 7.332zm0-20.867 3.4805-3.582-3.4805-3.5781-3.4805 3.5781zm0-13.359c2.1328 0 3.8633-3.2852 3.8633-7.3359s-1.7305-7.3359-3.8633-7.3359c-2.1328 0-3.8633 3.2852-3.8633 7.3359s1.7305 7.3359 3.8633 7.3359zm27.461-22.531 2.4062-3.6133c-14.336-8.5742-27.617-17.688-39.371-26.812v5.8047c11.125 8.5 23.582 16.562 36.965 24.621zm84.258-.20312c5.6875-2.8398 11.352-5.7852 16.906-8.875-6.3242-3.6836-11.926-7.9609-16.926-12.875zm-13.098-1.8086c.48047.008.94531-.1875 1.2852-.53515.69531-.71875.69531-1.8789 0-2.5938-.69532-.71875-1.8242-.71875-2.5195 0-.69921.71484-.69921 1.875 0 2.5938.32813.33593.76954.52734 1.2344.53515zm-10.672-9.1953-.0391-14.699c-1.1016.80469-2.4609 1.2773-3.9453 1.2773-3.2773 0-5.9531-2.3164-6.1406-5.4102-.41016 2.332-2.7695 4.2617-5.6211 4.2617-3.1172 0-5.6445-2.3086-5.6445-5.1562 0-.11328.008-.22657.0195-.34375h-.0195l-.008-.36328-13.758 20.41zm10.742-4.7891c.48438.008.94531-.1875 1.2891-.53516.69532-.71875.69532-1.8789 0-2.5938-.69921-.71875-1.8281-.71875-2.5234 0-.69532.71484-.69532 1.875 0 2.5938.32812.33594.76953.52734 1.2344.53516zm-105.52-15.91c1.4141-2.7617-1.0547-5.8398-2.6719-7.2383v5.1992c.87109.67969 1.7539 1.3594 2.6719 2.0391zm55.691-17.098c-.0078-.0234-.01563-.0469-.02734-.0742h-.04297zm18.734-.0156 24.711-.0586.0781.0391c-2.0781-4.2227-3.9727-8.6953-5.7031-13.43l.0234-.0547h-19.121zm-19.211-1.2813-2.4062-6.1055c-15.422-3.1367-27.109-18.094-27.109-36.07 0-.52344.0078-1.0469.02734-1.5664l-5.8164-4.5469c-2.6875 24.684 11.289 47.68 35.305 48.289zm35.09-1.0859c-1.6523 0-3.3047-1.0508-1.2617-3.1562-.98828 1.0195-1.7383 1.168-2.2539.86328-1.6445-.98437-.86328-6.6602 2.2539-3.4531-4.0859-4.207 6.6094-4.207 2.5195 0 4.0898-4.207 4.0898 6.7969 0 2.5898 2.0469 2.1055.39454 3.1562-1.2578 3.1562zm1.2578-3.1562c.69922-.71484.69922-1.875 0-2.5898-.69531-.71875-1.8242-.71875-2.5195 0-.69531.71484-.69531 1.875 0 2.5898.69532.71875 1.8242.71875 2.5195 0zm-11.734 3.1562c-1.6523 0-3.3047-1.0508-1.2578-3.1562-.99219 1.0195-1.7383 1.168-2.2539.86328-1.6445-.98437-.86328-6.6602 2.2539-3.4531-4.0898-4.207 6.6055-4.207 2.5195 0 4.0859-4.207 4.0859 6.7969 0 2.5898 2.043 2.1055.39062 3.1562-1.2617 3.1562zm1.2617-3.1562c.69531-.71484.69531-1.875 0-2.5898-.69531-.71875-1.8242-.71875-2.5195 0-.69922.71484-.69922 1.875 0 2.5898.69531.71875 1.8242.71875 2.5195 0zm-30.289-6.168c-5.6797-12.105-12.801-22.18-21.727-30.398.51172 14.551 9.5352 26.648 21.727 30.398zm-42.832-2.2344c-4.2773-9.0312-6.5703-19.148-6.5703-29.531 0-5.2773.58984-10.492 1.7148-15.527-1.8906-.83204-3.8125-1.6172-5.7852-2.3633v42.777c3.7109 1.1797 7.2773 2.7383 10.641 4.6445z" fill="#f00"/>
  <path d="m96.457 98.207v6.7266h6.5352v-6.7266zm3.2656 1.2227c1.1484 0 2.082.96094 2.082 2.1406 0 1.1836-.9336 2.1406-2.082 2.1406-1.1484 0-2.0781-.95703-2.0781-2.1406 0-1.1797.92969-2.1406 2.0781-2.1406zm10.996-1.2227v6.7266h6.5352v-6.7266zm3.2656 1.2227c1.1484 0 2.082.96094 2.082 2.1406 0 1.1836-.9336 2.1406-2.082 2.1406-1.1484 0-2.0781-.95703-2.0781-2.1406 0-1.1797.92969-2.1406 2.0781-2.1406zm10.996-1.2227v6.7266h6.5352v-6.7266zm3.2656 1.2227c1.1484 0 2.082.96094 2.082 2.1406 0 1.1836-.93359 2.1406-2.082 2.1406-1.1484 0-2.0781-.95703-2.0781-2.1406 0-1.1797.92969-2.1406 2.0781-2.1406zm-32.086 29.953c-2.4609 0-4.457 2.0508-4.457 4.5859 0 .10156.0039.20312.0078.30469h-.0078v10.391h8.9141v-10.391h-.0156c.008-.10157.0117-.20313.0156-.30469 0-2.5352-1.9961-4.5859-4.457-4.5859zm-12.832 0c-2.4609 0-4.457 2.0508-4.457 4.5859 0 .10156.0039.20312.01172.30469h-.01172v1.4961l5.75 8.8945h3.1641v-10.391h-.01563c.0078-.10157.01172-.20313.01563-.30469 0-2.5352-1.9961-4.5859-4.457-4.5859zm24.723 2.1836c-2.1289 0-3.8555 1.7578-3.8555 3.9297 0 .0859.004.17188.008.26172h-.008v8.9062h7.7109v-8.9062h-.0117c.004-.0898.0117-.17578.0117-.26172 0-2.1719-1.7266-3.9297-3.8555-3.9297zm10.695 2.707c-1.8008 0-3.2617 1.418-3.2617 3.168 0 .0703.004.14062.008.21093h-.008v7.1875h6.5234v-7.1875h-.0117c.008-.0703.0117-.14062.0117-.21093 0-1.75-1.4609-3.168-3.2617-3.168zm36.637-31.004-2.1758 3.7383 4.0703 2.5274 2.1641-3.7188zm7.5234 4.7227-2.1289 3.6562 3.9961 2.6562 2.1758-3.7383zm7.4922 4.7734-2.207 3.7969 3.9375 2.75 2.2891-3.9297zm7.418 4.9102-2.2891 3.9336 3.8555 2.8945 2.3672-4.0703zm7.2578 5.1758-2.3242 3.9961 3.8711 2.8711 2.332-4.0039zm-48.672 3.8359 2.8398 2.082c5.9414 4.2812 10.695-4.2773 5.9414-8.5547l-3.2031-2.1992zm5.8086-3.418c.98437 0 1.7852.82031 1.7852 1.8359 0 1.0117-.80078 1.832-1.7852 1.832-.98438 0-1.7812-.82031-1.7812-1.832 0-1.0156.79687-1.8359 1.7812-1.8359zm11.695-12.438-5.0312-3.0273-4.3438 6.3438 2.4336 1.7852c2.4414 1.7617 4.6836 1.3516 6.1484-.0391zm-3.9688-.39844c.98437 0 1.7812.82032 1.7812 1.832 0 1.0156-.79688 1.8359-1.7812 1.8359-.98438 0-1.7852-.82031-1.7852-1.8359 0-1.0117.80078-1.832 1.7852-1.832zm-18.422 23.84 6.625.96875c-.1914-1.2266-.78125-2.4336-1.8711-3.4141l-2.3008-1.5781zm21.789-7.3516-7.0078 10.781c4.6524 1.8203 9.0977 4.3594 13.176 7.543-3.2539-5.6602-5.3594-11.879-6.168-18.324zm-8.1211-43.383s-1.7852-.61328-2.3789-.61328-1.1875 1.8359-2.375 1.8359-1.1875.60938-1.1875.60938c-.0742.03906 2.7188.44531 3.5625-.60938.3789-.47266 2.3984-.27344 2.3984-.27344m-8.9336-.94922c1.7812 0 4.1602-3.2578 5.3477-3.3008l2.9726-.12109-.47656.97656s-1.5469.24609-2.1406.24609-2.7305 2.8086-3.9219 2.8086c-1.1875 0-1.7812-.60938-1.7812-.60938zm7.3672-5.2578c3.0938-.47266 5.2617-2.1719 3.3281-2.0781-2.4961.12109-3.4453 1.3438-3.9219 1.957m.23828-18.828-.94922.98047s-3.6875-1.4688-5.707-1.2227c-1.9219.23047-9.2695 4.0312-9.2695 4.0312 1.6641-2.1992 10.34-7.5781 15.926-3.7891zm-4.5156 6.1758c0 1.1797-.42578 2.1367-.95312 2.1367-.52344 0-.94922-.95703-.94922-2.1367 0-1.1836.42578-2.1406.94922-2.1406.52734 0 .95312.95703.95312 2.1406" fill="#4242ff"/>
  <path d="m128.54 216.79v-6.7266h-6.5352v6.7266zm-3.2656-1.2227c-1.1484 0-2.082-.96094-2.082-2.1406 0-1.1836.9336-2.1406 2.082-2.1406 1.1484 0 2.0781.95703 2.0781 2.1406 0 1.1797-.92969 2.1406-2.0781 2.1406zm-10.996 1.2227v-6.7266h-6.5352v6.7266zm-3.2656-1.2227c-1.1484 0-2.082-.96094-2.082-2.1406 0-1.1836.9336-2.1406 2.082-2.1406 1.1484 0 2.0781.95703 2.0781 2.1406 0 1.1797-.92969 2.1406-2.0781 2.1406zm-10.996 1.2227v-6.7266h-6.5352v6.7266zm-3.2656-1.2227c-1.1484 0-2.082-.96094-2.082-2.1406 0-1.1836.93359-2.1406 2.082-2.1406 1.1484 0 2.0781.95703 2.0781 2.1406 0 1.1797-.92969 2.1406-2.0781 2.1406zm32.086-29.953c2.4609 0 4.457-2.0508 4.457-4.5859 0-.10156-.004-.20313-.008-.30469h.008v-10.391h-8.9141v10.391h.0156c-.008.10156-.0117.20313-.0156.30469 0 2.5352 1.9961 4.5859 4.457 4.5859zm12.832 0c2.4609 0 4.457-2.0508 4.457-4.5859 0-.10156-.004-.20313-.0117-.30469h.0117v-1.4961l-5.75-8.8945h-3.1641v10.391h.0156c-.008.10156-.0117.20313-.0156.30469 0 2.5352 1.9961 4.5859 4.457 4.5859zm-24.723-2.1836c2.1289 0 3.8555-1.7578 3.8555-3.9297 0-.0859-.004-.17188-.008-.26172h.008v-8.9062h-7.7109v8.9062h.0117c-.004.0898-.0117.17578-.0117.26172 0 2.1719 1.7266 3.9297 3.8555 3.9297zm-10.695-2.707c1.8008 0 3.2617-1.418 3.2617-3.168 0-.0703-.004-.14062-.008-.21093h.008v-7.1875h-6.5234v7.1875h.0117c-.008.0703-.0117.14062-.0117.21093 0 1.75 1.4609 3.168 3.2617 3.168zm-36.637 31.004 2.1758-3.7383-4.0703-2.5274-2.1641 3.7188zm-7.5234-4.7227 2.1289-3.6562-3.9961-2.6562-2.1758 3.7383zm-7.4922-4.7734 2.207-3.7969-3.9375-2.75-2.2891 3.9297zm-7.418-4.9102 2.2891-3.9336-3.8555-2.8945-2.3672 4.0703zm-7.2578-5.1758 2.3242-3.9961-3.8711-2.8711-2.332 4.0039zm48.672-3.8359-2.8398-2.082c-5.9414-4.2812-10.695 4.2773-5.9414 8.5547l3.2031 2.1992zm-5.8086 3.418c-.98437 0-1.7852-.82031-1.7852-1.8359 0-1.0117.80078-1.832 1.7852-1.832.98438 0 1.7812.82031 1.7812 1.832 0 1.0156-.79687 1.8359-1.7812 1.8359zm-11.695 12.438 5.0312 3.0273 4.3438-6.3438-2.4336-1.7852c-2.4414-1.7617-4.6836-1.3516-6.1484.0391zm3.9688.39844c-.98438 0-1.7812-.82032-1.7812-1.832 0-1.0156.79688-1.8359 1.7812-1.8359s1.7852.82031 1.7852 1.8359c0 1.0117-.80078 1.832-1.7852 1.832zm18.422-23.84-6.625-.96875c.19141 1.2266.78125 2.4336 1.8711 3.4141l2.3008 1.5781zm-21.789 7.3516 7.0078-10.781c-4.6523-1.8203-9.0977-4.3594-13.176-7.543 3.2539 5.6602 5.3594 11.879 6.168 18.324zm8.1211 43.383s1.7852.61328 2.3789.61328 1.1875-1.8359 2.375-1.8359 1.1875-.60937 1.1875-.60937c.07422-.0391-2.7188-.44532-3.5625.60937-.37891.47266-2.3984.27344-2.3984.27344m8.9336.94922c-1.7812 0-4.1602 3.2578-5.3477 3.3008l-2.9727.12109.47656-.97656s1.5469-.24609 2.1406-.24609 2.7305-2.8086 3.9219-2.8086c1.1875 0 1.7812.60938 1.7812.60938zm-7.3672 5.2578c-3.0938.47266-5.2617 2.1719-3.3281 2.0781 2.4961-.12109 3.4453-1.3438 3.9219-1.957m-.23828 18.828.94922-.98047s3.6875 1.4688 5.707 1.2227c1.9219-.23047 9.2695-4.0312 9.2695-4.0312-1.6641 2.1992-10.34 7.5781-15.926 3.7891zm4.5156-6.1758c0-1.1797.42578-2.1367.95312-2.1367.52344 0 .94922.95703.94922 2.1367 0 1.1836-.42578 2.1406-.94922 2.1406-.52734 0-.95312-.95703-.95312-2.1406" fill="#4242ff"/>
  <path d="m68.527 101.88 4.1602-2.0195v28.063l-4.1406-4.2656zm17.852 45.844-1.8086-3.0547h44.742l1.0195 3.0547zm5.918-39.73h38.512l-3.3789 4.8906h-35.133zm88.523 100.25c1.0234-4.5938 1.5469-9.2656 1.5469-14.062 0-12.02-3.2617-23.664-9.2305-33.477 1.9609 1.4883 4.0078 2.832 6.0547 3.9922 4.1953 8.9844 6.4922 19.102 6.4922 29.484 0 5.2773-.59375 10.492-1.8359 15.477-1.0898-.49218-2.0703-.94531-3.0274-1.4141zm-32.035-69.484 3.5273-5.7031c.66016 2.9062 1.4102 5.7695 2.1719 8.6289m-62.129-86.137c.82812 1.375 1.6016 2.75 2.3164 4.1562 17.082-3.7188 34.668-5.707 51.699-3.668.89063-1.2344 1.8203-2.4414 2.8086-3.6758-14.207-6.2031-42.609-2.7695-56.824 3.1875z"/>
  <path d="m156.47 213.12-4.1602 2.0195v-28.062l4.1406 4.2656zm-17.852-45.844 1.8086 3.0547h-44.742l-1.0195-3.0547zm-5.918 39.73h-38.512l3.3789-4.8906h35.133zm-88.523-100.25c-1.0234 4.5938-1.5469 9.2656-1.5469 14.062 0 12.02 3.2617 23.664 9.2305 33.477-1.9609-1.4883-4.0078-2.832-6.0547-3.9922-4.1953-8.9844-6.4922-19.102-6.4922-29.484 0-5.2773.59375-10.492 1.8359-15.477 1.0898.49218 2.0703.94531 3.0273 1.4141zm32.035 69.484-3.5273 5.7031c-.66016-2.9062-1.4102-5.7695-2.1719-8.6289m62.129 86.137c-.82812-1.375-1.6016-2.75-2.3164-4.1562-17.082 3.7188-34.668 5.707-51.699 3.668-.89062 1.2344-1.8203 2.4414-2.8086 3.6758 14.207 6.2031 42.609 2.7695 56.824-3.1875z"/>
 </g>
 <g fill="none" stroke="#4242ff" stroke-linecap="round" stroke-linejoin="round">
  <path d="m189.74 121.85c-16.004-10.805-30.316-19.801-45.902-27.699m-16.031 45.559c10.711 36.902 29.398 60.02 61.934 72.359m-60.426-67.402h-44.641m45.664 3.0547h-43.957m44.934 3.0586h-43.371m54.84-55.914-24.137 36.453m33.16-32.949c-9.1055 13.844-18.359 27.586-27.437 41.449m-39.535-45.73c-11.187 5.1914-22.312 10.648-33.273 16.707m23.504-11.957v31.867m13.668-35.32v32.559m-20.203-26.039v21.773m4.1602-23.813v28.078m19.609-33.961v33.641m0-29.414h45.16l-23.758 35.172m-21.402-28.445h40.512m-40.512 3.0547h38.512m-38.512 4.8906h35.133m-44.57-8.6328c.69922.71875.69922 1.8789 0 2.5938-.69531.71484-1.8242.71484-2.5195 0-.69531-.71485-.69531-1.875 0-2.5938.69531-.71485 1.8242-.71485 2.5195 0 .98828-1.0156 1.7383-1.1641 2.2539-.85938 1.6445.98438.86328 6.6602-2.2539 3.4531 4.0898 4.207-6.6094 4.207-2.5195 0-4.0898 4.207-4.0898-6.7969 0-2.5938-4.0898-4.2031 6.6094-4.2031 2.5195 0m-.070313 13.984c.69531.71875.69531 1.8789 0 2.5938-.69531.71875-1.8242.71875-2.5234 0-.69531-.71484-.69531-1.875 0-2.5938.69922-.71484 1.8281-.71484 2.5234 0 .98828-1.0156 1.7383-1.1641 2.25-.85937 1.6484.98437.86719 6.6602-2.25 3.4531 4.0859 4.207-6.6094 4.207-2.5234 0-4.0859 4.207-4.0859-6.7969 0-2.5938-4.0859-4.2031 6.6094-4.2031 2.5234 0m-7.7266-7.1836h13.668m-13.668 2.4414h13.668m-5.1328 2.4453h5.1328m-13.668 0h4.3789m6.2773 2.4453h3.0117m-13.668 0h2.3086m8.3164 2.4453h3.043m-13.668 0h2.3594m6.0898 2.4453h5.2187m-13.668 0h4.5m5.9492-19.559h3.2187m-13.668 0h2.6562m8.207 2.4453h2.8047m-13.668 0h2.2422m6.5 2.4453h4.9258m-13.668 0h4.3086m.58984-12.227h8.7695m-13.914 2.4453h13.914m-5.9414 2.4453h5.9414m-13.668 0h5.3437m-5.3437 24.449h13.668m-13.668 2.4453h2.6875m-2.6875 2.4453h1.293m21.68 25.637c.69531.71485.69531 1.875 0 2.5898-.69531.71875-1.8242.71875-2.5195 0-.69922-.71484-.69922-1.875 0-2.5898.69531-.71875 1.8242-.71875 2.5195 0m10.473 0c.69921.71485.69921 1.875 0 2.5898-.69532.71875-1.8242.71875-2.5195 0-.69531-.71484-.69531-1.875 0-2.5898.69531-.71875 1.8242-.71875 2.5195 0m-10.473 0c.98828-1.0195 1.7383-1.168 2.2539-.86328 1.6445.98438.86328 6.6602-2.2539 3.4531 4.0859 4.207-6.6094 4.207-2.5195 0-4.0898 4.207-4.0898-6.7969 0-2.5898-4.0898-4.207 6.6055-4.207 2.5195 0m10.473 0c.99218-1.0195 1.7383-1.168 2.2539-.86328 1.6445.98438.86328 6.6602-2.2539 3.4531 4.0898 4.207-6.6055 4.207-2.5195 0-4.0859 4.207-4.0859-6.7969 0-2.5898-4.0859-4.207 6.6094-4.207 2.5195 0m15.875-11.578v-9.0781h-.0156c.008-.0859.0156-.17578.0156-.26562 0-2.2109-2.3945-4.0039-5.3476-4.0039-2.4492.16016-3.8789 1.168-5.3476 2.7969v-1.1367h-.0195c.0117-.11719.0195-.23047.0195-.34375 0-2.8477-2.5273-5.1562-5.6445-5.1562-2.8516 0-5.2109 1.9297-5.6211 4.2617-.1875-3.0938-2.8633-5.4102-6.1406-5.4102-3.3789 0-6.1211 2.4609-6.1211 5.4766-.03906-.0976 0-.30859 0-.40625 0-3.1367-3.0352-5.6836-6.7773-5.6836s-6.7773 2.5469-6.7773 5.6836c0 .12891.0039.25391.01563.37891h-.01563v.92969m77.566-33.102-29.789 45.059m19.973-50.25 6.8555 4.8477m-23.574 18.516 7.6836 5.4336m-6.4648-7.2461 7.6992 5.4453m-1.2227-15.27 7.6562 5.4141m-6.4375-7.2266 7.6055 5.3789m-1.875-14.086 7.668 5.4219m-29.957 28.406 7.6172 5.3828m-6.4375-7.2266 7.6953 5.4414m20.008-25.242c14.934 8.9024 28.738 18.367 40.883 27.844m-39.387-30.359c14.348 8.6016 27.641 17.715 39.394 26.844m-37.004-30.406c13.41 8.0391 25.879 16.102 37.008 24.609m-.0273 31.52c-15.379-6.2031-26.137-20.449-26.137-37.031 0-1.25.0586-2.4922.17969-3.7148m25.961 52.18c-7.8398-2.4922-15.043-6.6758-21-12.309-10.141-9.5898-15.84-22.594-15.84-36.156 0-3.3789.35546-6.7188 1.043-9.9844m35.793 44.055c-13.355-6.0977-22.574-19.062-22.574-34.07 0-.48828.0118-.97656.0312-1.4648m22.543 33.297c-12.109-5.9492-20.391-17.969-20.391-31.832m20.394 43.793c-6.8828-2.3047-13.203-5.9844-18.48-10.848-9.4726-8.7383-14.793-20.59-14.793-32.945 0-2.6758.25-5.3281.73827-7.9297m.61329 11.633c-.10938-1.2266-.16406-2.4609-.16406-3.7031 0-2.4375.21093-4.8516.62109-7.2305m3.0859 24.625c-1.8086-4.0742-2.9805-8.3906-3.457-12.82m10.711 24.172c-2.7773-3.1875-5.0664-6.6875-6.8203-10.406m16.527 18.887c-2.1992-1.457-4.2812-3.0898-6.2226-4.8867-.83594-.77344-1.6367-1.5742-2.4062-2.3984m18.144 12.211c-2.3906-.9336-4.6992-2.0391-6.9062-3.3125m-22.039-36.82c-.0313-.67187-.0469-1.3438-.0469-2.0195 0-1.9375.12891-3.8476.38672-5.7226m2.457 20.934c-1.1719-3.043-1.9961-6.2109-2.4453-9.4414m8.418 20.125c-1.6094-2.1211-3.0117-4.3633-4.1953-6.6992m12.922 15.461c-1.1914-.91407-2.3438-1.8906-3.4453-2.918-.11718-.10938-.23438-.21875-.34766-.32813m14.273 9.3711c-.83985-.35938-1.6641-.74219-2.4805-1.1445m-33.613-16.688c4.9102 2.6914 9.4414 6.2695 13.391 10.637 9.5273 10.547 14.883 24.852 14.883 39.766 0 4.25-.43359 8.4492-1.2773 12.523m-27.766-63.336c.25781.13281.51172.27343.76953.41015m-21.91-5.8281c7.3828.10156 14.586 1.9766 21.141 5.418m27.199 60.504c-.0547.34376-.11328.6836-.17577 1.0273m.58983-4.1992c-.0391.38281-.082.76172-.1289 1.1445m.44921-8.2812c.004.20313.004.41016.004.61719 0 1.5469-.0508 3.0781-.15624 4.5976m.0625-7.9844c.0273.49219.0469.99218.0625 1.4883m-.375-5.1367c.0742.64063.13672 1.2852.19141 1.9297m-1.457-9.0469c.47656 1.9844.85547 4 1.1289 6.0391m-1.8047-8.5938c.14064.48047.27345.96875.39845 1.457m-1.4141-4.6367c.16798.48046.33203.96093.48829 1.4453m-3.3516-8.2188c.85157 1.7031 1.6211 3.457 2.3086 5.2461m-3.6172-7.7031c.13281.23438.26562.47266.39453.70703m-2.1836-3.6641c.25781.39844.51171.79687.76172 1.2031m-5.8086-7.8203c1.5039 1.6836 2.8984 3.457 4.1797 5.3164m-6.0274-7.2774c.1875.1875.37501.37891.5586.57032m-2.75-2.6602c.21875.19922.43751.39844.65234.60156m-7.164-5.5469c1.6953 1.082 3.3398 2.2734 4.9141 3.5742m-7.1719-4.9258c.16797.0937.33984.19141.51172.29297m-3.0273-1.6133c.16406.082.33203.16406.5.25m-8.7773-3.3477c2.0937.5625 4.1484 1.2734 6.1523 2.1289m-8.7422-2.7461c.32812.0664.65624.14062.98437.21484m-4.0117-.73437c.35157.0469.70313.0976 1.0508.15625m-7.168-.57422c1.4023 0 2.8008.0625 4.1914.19531m44.41 54.523v.29297c0 1.4922-.0547 2.9766-.16405 4.4531m-.10548-10.137c.004.0742.0118.14845.0195.22267m-1.3125-8.0781c.40624 1.7305.73437 3.4883.98437 5.2617m-5.4844-17.738c.79297 1.582 1.5078 3.2109 2.1523 4.8711m-10.137-16.684c1.4219 1.5898 2.7422 3.2695 3.9609 5.0234m-14.328-13.852c1.6484 1.0469 3.2422 2.2031 4.7774 3.4609m-17.379-9.0469c2.0039.54687 3.9687 1.2305 5.8906 2.0508m-17.715-3.5977h.23828c1.3476 0 2.6914.0586 4.0273.1836m43.469 53.242v.36328c0 1.5312-.0586 3.0586-.17968 4.5742m-1.3828-17.961c.42187 1.7852.76172 3.5938 1.0156 5.4258m-5.4648-17.637c.82422 1.6289 1.5664 3.3086 2.2227 5.0234m-10.125-16.602.004.004c1.4961 1.6562 2.8828 3.4141 4.1524 5.2539m-14.383-13.856c1.7539 1.0938 3.4453 2.3164 5.0703 3.6562m-17.32-8.9922c2.0976.55469 4.1484 1.2695 6.1523 2.1328m-16.918-3.5898c1.2734.008 2.543.0781 3.8047.19922m41.91 51.641c0 .24218.004.48437.004.72656 0 1.6719-.0742 3.3398-.22266 4.9883m-1.4141-18.457c.50391 2.0352.89453 4.1133 1.168 6.2148m-5.5898-18.016c.94532 1.8359 1.7891 3.7344 2.5234 5.6836m-10.41-16.953c.15234.16406.30469.32812.45312.49609 1.5664 1.7305 3.0117 3.5781 4.3203 5.5195m-14.867-14.25c2.0547 1.2383 4.0312 2.6562 5.9062 4.2383m-17.73-9.1758c2.3984.60156 4.7422 1.4141 7.0156 2.4297m-16.484-3.6875c1.2891.0234 2.5703.10546 3.8437.24609m40.285 49.488c.008.41015.0156.82031.0156 1.2344 0 1.8711-.0977 3.7305-.28516 5.5703m-1.4727-19.32c.62109 2.3828 1.082 4.8203 1.375 7.2969m-5.8125-18.727c1.1289 2.1289 2.1133 4.3438 2.9453 6.625m-10.895-17.633c.33984.35157.67187.71095.99999 1.0742 1.6875 1.8633 3.2266 3.8633 4.6094 5.9766m-15.672-14.941c2.4688 1.418 4.8242 3.0898 7.0273 5.0039m-18.496-9.5312c2.832.65625 5.5898 1.6133 8.2422 2.8516m-16.414-3.8945c1.3867.0351 2.7695.14453 4.1406.32031m38.48 47.367c.0234.65235.0352 1.3047.0352 1.9609 0 2.1953-.13281 4.375-.39844 6.5273m-1.5469-20.801c.80859 2.9023 1.375 5.8945 1.6797 8.9375m-6.2344-20.043c1.4414 2.5898 2.6562 5.3164 3.6328 8.1484m-4.793-10.121c.0156.0274.0352.0586.0508.0859m-7.0508-8.8672c.63671.6289 1.2617 1.2773 1.8672 1.9492 1.9102 2.1133 3.625 4.4024 5.1328 6.832m-17.332-16.344c3.2305 1.6914 6.2812 3.8242 9.0664 6.3672m-9.7265-6.707c.22265.11328.4414.22656.66015.33984m-10.977-3.8906c3.5664.71094 7.0312 1.9062 10.316 3.5508m-16.562-4.2812c1.5938.0586 3.1719.21484 4.7344.46094m-2.5781 5.6797c24.016.60937 37.992 23.605 35.305 48.289m-32.898-42.184c15.422 3.1367 27.109 18.094 27.109 36.07 0 .52344-.008 1.0469-.0273 1.5664m-25.051-33.355c12.168 3.7734 21.191 15.871 21.738 30.395m15.082-32.09c5.9844 9.8203 9.2461 21.465 9.2461 33.484 0 4.7969-.52343 9.4688-1.5312 14.059m-49.586-73.871c10.184.6289 19.957 4.4258 28.219 10.883m19.641 19.402c4.2773 9.0273 6.5742 19.145 6.5742 29.527 0 5.2774-.59375 10.492-1.7422 15.523m-7.8594-33.25c.19142.82032-1.3398 1.8984-3.414 2.4024-2.0781.50781-3.9141.25391-4.1016-.57031-.19142-.82031 1.3398-1.8945 3.414-2.4024 2.0781-.50781 3.9141-.25 4.1016.57031m-7.2383 1.0547c.1914-.80078.8789-1.8906 1.8906-2.8906 1.5391-1.5156 3.2461-2.2539 3.8164-1.6445.42577.45703.15624 1.4727-.6914 2.6328m.85155 2.5352c1.168.46876 1.7383 1.1172 1.6406 1.6953-.14061.83203-1.957 1.2031-4.0586.82812-1.7422-.30858-3.1289-1.0312-3.4766-1.7422m9.6445 10.977c.043.84375-1.6445 1.6289-3.7734 1.75-2.1289.125-3.8945-.46094-3.9414-1.3008-.0469-.84374 1.6445-1.625 3.7734-1.75 2.1289-.12501 3.8945.46094 3.9414 1.3008m-7.3086-.26562c.32421-.75782 1.1875-1.7031 2.3555-2.5039 1.7734-1.2188 3.582-1.6367 4.0391-.9336.33984.52735-.0977 1.4805-1.1328 2.4688m.40625 2.6484c1.0703.67187 1.5195 1.4141 1.3242 1.9688-.27733.79297-2.1289.82813-4.1367.082-1.6602-.62109-2.9024-1.582-3.125-2.3437m7.4375 12.074c-.16407.82813-1.9922 1.1367-4.082.69141-2.0898-.4414-3.6484-1.4727-3.4805-2.2969.16405-.82812 1.9922-1.1367 4.082-.69531 2.0898.44531 3.6484 1.4726 3.4805 2.3008m-6.9922-2.1914c.50391-.64454 1.5742-1.332 2.9023-1.7969 2.0195-.70703 3.8711-.63281 4.1328.16797.19922.59766-.46484 1.4023-1.7109 2.0859m-5.7969 1.3711c-.082-.20311-.12891-.39061-.13672-.55858m5.668 1.8555c.86719.92969 1.1133 1.7656.78907 2.25m-6.4414-42.66c.44531.71093-.65234 2.2461-2.4453 3.4336-1.7969 1.1836-3.6094 1.5703-4.0547.85937-.4414-.70704.65235-2.2461 2.4492-3.4297 1.793-1.1875 3.6094-1.5742 4.0508-.86328m-6.4883 3.4648c-.0781-.82031.21875-2.082.85157-3.3711.96093-1.957 2.3359-3.2383 3.0664-2.8555.55078.28516.625 1.3398.19922 2.7227m1.6211 2.0976c1.2539.043 2 .46094 2.0938 1.0391.13672.83204-1.457 1.8047-3.5586 2.168-1.7422.30469-3.2851.0977-3.8437-.45703m-2.8555-16.422c.5586.61718-.25391 2.3281-1.8164 3.8242-1.5625 1.4922-3.2852 2.2031-3.8437 1.582-.55859-.61719.25781-2.3281 1.8203-3.8242 1.5625-1.4922 3.2813-2.2031 3.8398-1.582m-5.789 4.5898c-.21876-.79297-.14454-2.0898.25781-3.4727.60937-2.1016 1.7422-3.6133 2.5312-3.3711.58985.18359.84375 1.207.66016 2.6445m1.957 1.7734c1.2383-.1875 2.0469.0898 2.2383.64062.27734.79688-1.125 2.0391-3.1328 2.7813-1.6602.61328-3.2148.69139-3.8594.25m-6.1523-14.395c.6875.45703.30859 2.3242-.84766 4.168-1.1562 1.8438-2.6523 2.9648-3.3398 2.5078-.6914-.45703-.3125-2.3203.84375-4.1641s2.6523-2.9688 3.3438-2.5117m-4.5117 5.918c-.40235-.71484-.64063-1.9883-.58203-3.4297.0898-2.1953.82421-3.9453 1.6445-3.9102.61718.0273 1.1055.95312 1.2734 2.3945m2.3203 1.2226c1.1602-.49609 2.0078-.43359 2.3281.0547.45703.69922-.60156 2.2617-2.3711 3.4883-1.4648 1.0156-2.9531 1.4844-3.6836 1.2188m-10.277-11.484c.79297.20312 1.0234 2.0938.51172 4.2226-.51172 2.1289-1.5703 3.6914-2.3672 3.4922-.79688-.20312-1.0274-2.0938-.51563-4.2266.51172-2.1289 1.5742-3.6914 2.3711-3.4883m-2.4023 7.1016c-.60547-.53906-1.2305-1.668-1.6328-3.0508-.60937-2.1016-.46484-4.0039.32422-4.2422.58984-.18359 1.3476.53125 1.957 1.8359m2.582.38281c.9414-.85547 1.7617-1.0781 2.2187-.72656.65235.50781.14453 2.3398-1.1406 4.0938-1.0625 1.4492-2.3242 2.3906-3.0976 2.3828m2.2383 12.312 1.6797-6.0469m4.6211 8.9297 3.2422-5.8359m1.8281 9.5703 4.582-5.1445m.0273 10.094 5.4883-3.9062m-1.5195 10.48 5.9336-2.6133m-3.4414 9.5938 6.1523-1.2656m-5.0078 7.6484h6.0742m-33.594-33.738 5.6055-3.7891 4.6289 8.9063 9.6523-1.4102.0273 10.094 9.9023 3.9609-3.4414 9.5938 7.207 6.3828-5.0703 6.0586m-30.434-44.566 5.8555 7.0039 9.543-2.9531 1.8281 9.5703 10.098 1.043-1.5195 10.48 8.5976 5.7266-4.9609 7.6367 6.1172 6.6562-1.9492 1.918m-2.7812-2.2656 4.7617.34766m18.137 13.246v-29.684m1.7852 30.422v-29.199m1.7812 29.949v-28.726m-28.551-43.879c4.3711-1.293 2.9961 5.8555 9.0352 2.0312m-4.8516-11.055c-6.7695 3.2812-.62499 6.0781-4.2656 8.8398m8 11.938c3.4883-1.6992 4.2227 4.918 8.9102-.54297m-7.7539-9.1055c-5.4375 4.9102.48047 5.957-1.4336 9.293m11.203 9.207c2.7305-1.4688 5.0664 3.7695 8.0625-2.9141m-9.9062-6.4336c-3.9023 5.9805 1.25 5.7656 1.0273 8.8672m8.8789-2.4336c-2.2187 5.9336.77734 5.9492 2.2578 7.4375m-33.07-39.238c4.8516.0586 1.1055 6.5391 8.0625 4.9648m-1.1445-12.078c-7.3984.88281-2.2773 5.6797-6.9297 6.9805m2.3828-10.879c.40624 1.8633.17577 4.0469 4.5468 3.875m.26173 7.3164c-.99219.29296-2 .55468-3.2461.35156m1.1875-3.0547c.0703 2.125 1.0469 2.1758 2.0078 2.2539m.0586.80078c-.90235.61719-1.9258 1.4102-2.0664 2.4453m4.9375 7.7227c-.94141.625-1.8711 1.2578-3.2226 1.4531m.26953-3.2773c.72656 2.1875 1.7812 1.707 2.8008 1.5039m.17577.63671c-.72265.88282-1.5859 2.0195-1.418 3.1211m8.0508 7.0976c-.30859 1.0117-.64452 2.0234-1.4922 2.9844m-1.8359-2.6992c1.8789 1.1758 2.4101.1875 3.0469-.63281m.57422.77734c.0195 1.0586.14453 2.2344.85157 2.8711m8.1797 4.5898c-.27344.81641-.625 1.625-1.3086 2.3984m-1.832-2.6992c1.4414.90234 2.0898.52734 2.6016-.0664m1.0352.64844c.0469.92969.22264 1.8828.83592 2.4336m2.9688-23.418c-1.3867 2.7656 1.0977 5.8477 2.7148 7.2422m-5.9961-9.7891c-5.3047-1.0469-13.937-2.0742-13.023-5.3438.35547-1.0938 1.3398-1.9688 2.082-2.4961m1.0547 5.6992c-4.8008 3.832-1.4219 5.8477 12.766 6.5m-11.133-1.2226c-3.2773 7.1758 5.2617 3.9609 11.43 2.8281m-9.1172 1.7227c-1.5703 6.6367 3.6211 4.1758 10.074.0195m-7.5859 3.9805c.92969 7.1406 4.5508 3.4258 8.7344-2.5508m-5.3203 6.0469c3.3164 8.6758 4.6289.47657 6.0312-4.5898m-2.1016 7.0586c.96875 2.0703 1.6406 3.0234 2.1055 3.2031m-48.281-18.875-.17578.26562m8.1875-12.43-.30469.45704m-6.3281 12.027-.80078 1.2188m8.8594-13.457-1 1.5195m-5.3164 10.488-2.082 3.1602m10.348-15.711-2.5586 3.8828m-3.1211 7.1562-3.3984 5.1602m9.1719-13.926-3.1445 4.7734m-1.6562-7.4102c5.5937 4.6016-.92188 15.164-6.6641 12.816-.35547-.14454-.71093-.34375-1.0586-.59375m12.437-11.707c-1.5117.63281-3.1719.59375-4.7148-.51562m-7.7226 12.223c1.2852 1.0586 1.9297 2.4336 2.0938 3.8906m37.723-57.16c2.1328 0 3.8633 3.2852 3.8633 7.3359s-1.7305 7.3359-3.8633 7.3359c-2.1328 0-3.8633-3.2852-3.8633-7.3359s1.7305-7.3359 3.8633-7.3359m0-13.359 3.4805 3.582-3.4805 3.5781-3.4805-3.5781 3.4805-3.582m0-20.867c2.1328 0 3.8633 3.2813 3.8633 7.332 0 4.0508-1.7305 7.3359-3.8633 7.3359-2.1328 0-3.8633-3.2852-3.8633-7.3359 0-4.0508 1.7305-7.332 3.8633-7.332m1.918 53.875c2.7969-1.5664 4.8398-6.4883 4.8398-12.312 0-4.8984-1.4727-9.3711-3.7891-11.523l5.4336-5.5898-5.4375-5.5977c2.3164-2.1484 3.789-6.6172 3.793-11.52 0-7.0898-3.0234-12.836-6.7578-12.836-3.7344 0-6.7578 5.7461-6.7578 12.836 0 4.9023 1.4727 9.3711 3.7891 11.523l-5.4336 5.5938 5.4375 5.5938c-2.3203 2.1484-3.793 6.6211-3.793 11.52 0 4.1367 1.0273 7.8125 2.625 10.16m-10.664 9.4805c.26172-1.6406 1.3281-4.8711 2.3125-5.4922 1.1328-.71094 5.3516-4.2773 7.1328-4.2773 1.7812 0 3.5664 2.4453 7.1289 2.4453 2.9727 0 2.3789 2.4453 0 2.4453-2.375 0-4.1562-.61328-4.1562-.61328-1.7852 2.0625-2.9883 1.875-4.1602 2.4453-1.2031.58594 1.7812-.60938 2.375.61328.52345 1.0781-1.7305 6.4453-2.2656 7.6875m9.9062-10.672c2.1094.21875 3.6523.92578 3.6523 1.7617 0 1.0117-2.2617 1.832-5.0547 1.832-2.7891 0-5.0508-.82032-5.0508-1.832 0-.60156.80079-1.1367 2.0313-1.4688m4.2461 3.2148c2.1172-.0352 3.7305.48047 3.8281 1.3086.11328 1.0078-2.0391 2.0938-4.8086 2.4336-2.7695.33593-5.1094-.20313-5.2266-1.2109-.0664-.59766 1.1211-1.832 4.0898-2.4453m2.168 3.5938c2.1211-.0352 3.7305.48046 3.8281 1.3086.11718 1.0078-2.0352 2.0977-4.8047 2.4336-2.7734.33594-5.1133-.20312-5.2266-1.2109-.0664-.57422 1.0312-1.7461 3.7734-2.375m2.3203 3.5976c1.8594.20313 3.8906 1.0898 3.8867 1.9102-.008.99219-2.0117 1.8086-4.4726 1.8242-2.4609.0156-4.4531-.77344-4.4453-1.7656.004-.57031 1.0938-1.5859 3.5625-1.8906m-36.234-55.793c.004 3.1484-1.1914 6.1016-1.0781 6.8047.19531 1.2031 5.9102 11.023 6.1797 12.836.49218 3.3086-4.4102 3.3555-4.6328 3.7891-.16016.30469.11719 2.3203.11719 2.3203 0 .61328-1.1875 2.4453-1.1875 2.4453s0 1.2227.59375 1.8359c.59375.60938-2.9726 2.4453-2.9726 2.4453s1.7852 2.4453 1.7852 3.668c0 1.2227-.59375 3.0547-3.5664 3.0547s-6.5352-.60938-8.914-.60938c-2.375 0-8.914-3.0586-10.102-3.0586m-6.9414 1.3164c.90234.44141 4.8476 2.2812 6.9414 1.7422 1.5273-.39453 3.543-1.0391 4.793-1.4492m18.383-9.5547s-1.7852-.36719-2.3789-.36719-1.1875 1.5898-2.375 1.5898-1.1875.60937-1.1875.60937c-.0742.03906 2.7188.44531 3.5625-.60937.3789-.47266 2.3984-.27344 2.3984-.27344m-8.9336-.94922c1.7812 0 4.1602-3.2578 5.3476-3.3008l2.9726-.12109-.47656.97656s-1.5469.24609-2.1406.24609-2.7305 2.8086-3.9219 2.8086c-1.1875 0-1.7812-.60938-1.7812-.60938m7.3672-9.0469c-1.7969.01172-3.1367 4.2695 0 3.7891 3.0937-.47266 5.2617-2.1719 3.3281-2.0781-2.4961.12109-3.4453 1.3438-3.9219 1.957m.23828-18.828-.94922.98047s-3.6875-1.4688-5.707-1.2227c-1.9219.23047-9.2695 4.0312-9.2695 4.0312 1.6641-2.1992 10.34-7.5781 15.926-3.7891m-13.547 7.2148c3.8008.60938 5.5859-3.7891 12.238-3.7891m-8.082 2.6875c-3.8008 3.5469 7.8437 2.4453 7.8437 2.4453m-46.715-8.2578c2.0898 7.7188-6.1758 12.613-5.1016 21.461.59375 4.8906 8.3203 4.2773 8.3203 0 0-3.0547-3.5664-2.4453-3.5664-.60937 0 1.832 1.1914 2.4414 1.1914 2.4414m1.5547-23.809c2.3594 7.8789-6.1133 12.781-5.0234 21.734.28125 2.3125 1.8711 2.7656 3.4648 2.1484m3.5273-24.297c3.0078 8.1055-5.4687 12.891-4.7148 21.781m6.9414-22.168c3.207 7.8359-4.418 12.637-4.7422 20.656m6.918-21.109c3.6562 8.1758-5.2187 14.445-5.5508 22.621m7.4805-22.91c3.9023 8.5469-5.4922 14.461-5.5937 22.551-.10547 8.3047 8.8086 6.4688 8.8086 2.1914s-6.1562-4.4805-5.9414-.61328c.21875 3.8711 4.5781 1.5547 3.5664.61328m1.5898-25.176c3.4414 8.0977-5.5234 14.402-5.625 22.445-.0234 1.9062.45703 3.1797 1.2109 3.9531m6.8906-26.758c3.0352 7.7539-5.1211 14.613-5.8047 22.23m4.1211 3.3242c3.6133 6.832 13.66 3.3867 13.66-1.8516 0-6.7539-6.5352-5.5039-6.5352-1.2227 0 4.2344 5.3476 1.832 2.9688-.61328m-5.9141-22.203c2.7109 7.8945-5.375 16.969-5.375 21.594 0 .62109.15234 1.1953.27344 1.7344m7.375-23.625c3 7.8242-5.4141 15.543-4.6758 23.113.59375 6.1094 9.5078 5.1484 9.5078 1.832 0-1.2227-1.1914-2.4453-1.1914-2.4453m-1.3164-22.754c3.832 10.422-10.234 21.664-.67187 25.512m-24.105 12.02c-3.6953 3.3203-9.5586 1.4648-9.5586-2.5508 0-6.7539 5.9492-4.8906 5.9414-1.8359-.0039 2.5156-3.5664 2.4453-3.5664-.60938m10.094-4.207c.10938 2.1719-.12109 3.9766-.58984 5.4492m-1.1367-5.1641c1.2227 7.2891-8.2656 11.051-8.9609 6.3672-.08984-.60547 0-1.2227.59375-2.4453m6.9414-4.082c-.39453 3.2539-2.4648 7.207-5.1562 6.5273m15.863 3.6094c-3.7109 4.1953-10.516 3.9023-10.516-1.7773 0-3.7188 5.9414-4.2773 5.9414-1.2227 0 3.668-3.5664 2.4453-3.5664 1.2227m10.312-6.875c.15625.97266.19922 1.8828.15235 2.7383m-1.9961-2.6797c.0859 1.6406-.0312 4.6602-1.3359 6.207-3.4844 4.125-6.9531 1.8203-7.1328.60938-.08984-.61719.19922-.88281.59766-1.2227m6.3984-6.1758c-.70703 5.4258-2.0742 8.7891-4.5976 8.5156m3.3086-9.8398c-.63672 2.7734-1.3125 5.3984-2.1406 7.5m1.3633-10.184c-.875 2.8438-2.1172 6.1055-3.2891 8.2109m20.273-3.6016c-1.25 14.066-14.895 12.723-14.187 6.1875.59375-5.5039 5.8047-3.6641 5.9414-.61328.14062 3.125-3.5625 3.0586-3.5625.61328m10.012-5.9609c-.79297 5.1172-5.6016 11.625-8.9687 7.6523m7.1133-7.793c-.57422 3.7109-1.8672 6.582-5.0625 7.2188m3.2461-7.9688c-.48438 2.8672-1.6641 4.7109-2.8086 6.1602m1.1562-7.4883c-.22657 2.1484-.96875 4.1172-1.793 5.8828m-1.0117-4.6172c.25391 1.2187.20313 2.4805.0156 3.7578m-31.684-53.766c6.6562 6.8672 14.266 15.035 19.086 24.523 17.082-3.7188 34.668-5.707 51.699-3.668 5.5586-7.7227 12.723-14.441 20.484-20.785m-74.508 20.273c14.223-5.9336 42.625-9.3672 56.851-3.2148" stroke-width=".72322"/>
  <path d="m35.262 193.15c16.004 10.805 30.316 19.801 45.902 27.699m16.031-45.559c-10.711-36.902-29.398-60.02-61.934-72.359m60.426 67.402h44.641m-45.664-3.0547h43.957m-44.934-3.0586h43.371m-54.84 55.914 24.137-36.453m-33.16 32.949c9.1055-13.844 18.359-27.586 27.437-41.449m39.535 45.73c11.187-5.1914 22.312-10.648 33.273-16.707m-23.504 11.957v-31.867m-13.668 35.32v-32.559m20.203 26.039v-21.773m-4.1602 23.812v-28.078m-19.609 33.961v-33.641m0 29.414h-45.16l23.758-35.172m21.402 28.445h-40.512m40.512-3.0547h-38.512m38.512-4.8906h-35.133m44.57 8.6328c-.69922-.71875-.69922-1.8789 0-2.5938.69531-.71485 1.8242-.71485 2.5195 0 .69532.71484.69532 1.875 0 2.5938-.69531.71484-1.8242.71484-2.5195 0-.98828 1.0156-1.7383 1.1641-2.2539.85937-1.6445-.98437-.86328-6.6602 2.2539-3.4531-4.0898-4.207 6.6094-4.207 2.5195 0 4.0898-4.207 4.0898 6.7969 0 2.5938 4.0898 4.2031-6.6094 4.2031-2.5195 0m.0703-13.984c-.69531-.71875-.69531-1.8789 0-2.5938.69531-.71875 1.8242-.71875 2.5234 0 .69531.71485.69531 1.875 0 2.5938-.69922.71485-1.8281.71485-2.5234 0-.98828 1.0156-1.7383 1.1641-2.25.85938-1.6484-.98438-.86718-6.6602 2.25-3.4531-4.0859-4.207 6.6094-4.207 2.5234 0 4.0859-4.207 4.0859 6.7969 0 2.5938 4.0859 4.2031-6.6094 4.2031-2.5234 0m7.7266 7.1836h-13.668m13.668-2.4414h-13.668m5.1328-2.4453h-5.1328m13.668 0h-4.3789m-6.2773-2.4453h-3.0117m13.668 0h-2.3086m-8.3164-2.4453h-3.043m13.668 0h-2.3594m-6.0898-2.4453h-5.2187m13.668 0h-4.5m-5.9492 19.559h-3.2188m13.668 0h-2.6562m-8.207-2.4453h-2.8047m13.668 0h-2.2422m-6.5-2.4453h-4.9258m13.668 0h-4.3086m-.58984 12.227h-8.7695m13.914-2.4453h-13.914m5.9414-2.4453h-5.9414m13.668 0h-5.3437m5.3437-24.449h-13.668m13.668-2.4453h-2.6875m2.6875-2.4453h-1.293m-21.68-25.637c-.69532-.71484-.69532-1.875 0-2.5898.69531-.71874 1.8242-.71874 2.5195 0 .69922.71485.69922 1.875 0 2.5898-.69531.71875-1.8242.71875-2.5195 0m-10.473 0c-.69922-.71484-.69922-1.875 0-2.5898.69531-.71874 1.8242-.71874 2.5195 0 .69531.71485.69531 1.875 0 2.5898-.69531.71875-1.8242.71875-2.5195 0m10.473 0c-.98829 1.0195-1.7383 1.168-2.2539.86328-1.6445-.98437-.86328-6.6602 2.2539-3.4531-4.0859-4.207 6.6094-4.207 2.5195 0 4.0898-4.207 4.0898 6.7969 0 2.5898 4.0898 4.207-6.6055 4.207-2.5195 0m-10.473 0c-.99218 1.0195-1.7383 1.168-2.2539.86328-1.6445-.98437-.86328-6.6602 2.2539-3.4531-4.0898-4.207 6.6055-4.207 2.5195 0 4.0859-4.207 4.0859 6.7969 0 2.5898 4.0859 4.207-6.6094 4.207-2.5195 0m-15.875 11.578v9.0781h.0156c-.008.0859-.0156.17579-.0156.26563 0 2.2109 2.3945 4.0039 5.3476 4.0039 2.4492-.16016 3.8789-1.168 5.3476-2.7969v1.1367h.0195c-.0117.11719-.0195.23047-.0195.34375 0 2.8477 2.5273 5.1562 5.6445 5.1562 2.8516 0 5.2109-1.9297 5.6211-4.2617.1875 3.0938 2.8633 5.4102 6.1406 5.4102 3.3789 0 6.1211-2.4609 6.1211-5.4766.0391.0977 0 .3086 0 .40625 0 3.1367 3.0352 5.6836 6.7773 5.6836s6.7773-2.5469 6.7773-5.6836c0-.1289-.004-.2539-.0156-.3789h.0156v-.92969m-77.566 33.102 29.789-45.059m-19.973 50.25-6.8555-4.8477m23.574-18.516-7.6836-5.4336m6.4648 7.2461-7.6992-5.4453m1.2227 15.27-7.6562-5.4141m6.4375 7.2266-7.6055-5.3789m1.875 14.086-7.668-5.4219m29.957-28.406-7.6172-5.3828m6.4375 7.2266-7.6953-5.4414m-20.008 25.242c-14.934-8.9023-28.738-18.367-40.883-27.844m39.387 30.359c-14.348-8.6016-27.641-17.715-39.394-26.844m37.004 30.406c-13.41-8.0391-25.879-16.102-37.008-24.609m.02733-31.52c15.379 6.2031 26.137 20.449 26.137 37.031 0 1.25-.0586 2.4922-.1797 3.7148m-25.961-52.18c7.8398 2.4922 15.043 6.6758 21 12.309 10.141 9.5898 15.84 22.594 15.84 36.156 0 3.3789-.35547 6.7188-1.043 9.9844m-35.793-44.055c13.355 6.0977 22.574 19.062 22.574 34.07 0 .48828-.01177.97657-.03124 1.4648m-22.543-33.297c12.109 5.9492 20.391 17.969 20.391 31.832m-20.394-43.793c6.8828 2.3047 13.203 5.9844 18.48 10.848 9.4726 8.7383 14.793 20.59 14.793 32.945 0 2.6758-.24999 5.3281-.73827 7.9297m-.61328-11.633c.10937 1.2266.16406 2.4609.16406 3.7031 0 2.4375-.21093 4.8516-.62109 7.2305m-3.0859-24.625c1.8086 4.0742 2.9805 8.3906 3.457 12.82m-10.711-24.172c2.7773 3.1875 5.0664 6.6875 6.8203 10.406m-16.527-18.887c2.1992 1.457 4.2812 3.0898 6.2226 4.8867.83594.77344 1.6367 1.5742 2.4063 2.3984m-18.145-12.211c2.3906.9336 4.6992 2.0391 6.9062 3.3125m22.039 36.82c.03126.67188.04688 1.3438.04688 2.0195 0 1.9375-.12891 3.8477-.38672 5.7227m-2.457-20.934c1.1719 3.043 1.9961 6.2109 2.4453 9.4414m-8.418-20.125c1.6094 2.1211 3.0117 4.3633 4.1953 6.6992m-12.922-15.461c1.1914.91406 2.3438 1.8906 3.4453 2.918.11718.10937.23438.21875.34766.32813m-14.273-9.3711c.83985.35938 1.6641.74219 2.4805 1.1445m33.613 16.687c-4.9101-2.6914-9.4414-6.2695-13.391-10.637-9.5273-10.547-14.883-24.852-14.883-39.766 0-4.25.4336-8.4492 1.2773-12.523m27.766 63.336c-.25781-.13281-.51172-.27344-.76953-.41016m21.91 5.8281c-7.3828-.10156-14.586-1.9766-21.141-5.418m-27.199-60.504c.05468-.34375.11328-.6836.17577-1.0273m-.58983 4.1992c.03905-.38282.08203-.76172.1289-1.1445m-.44921 8.2812c-.0039-.20313-.0039-.41016-.0039-.61719 0-1.5469.05078-3.0781.15625-4.5976m-.0625 7.9844c-.02734-.49219-.04687-.99218-.06249-1.4883m.37499 5.1367c-.07422-.64063-.13672-1.2852-.1914-1.9297m1.457 9.0469c-.47656-1.9844-.85548-4-1.1289-6.0391m1.8047 8.5937c-.14063-.48046-.27344-.96874-.39844-1.457m1.4141 4.6367c-.16798-.48047-.33203-.96093-.48829-1.4453m3.3516 8.2188c-.85157-1.7031-1.6211-3.457-2.3086-5.2461m3.6172 7.7031c-.13281-.23437-.26562-.47265-.39453-.70703m2.1836 3.6641c-.25781-.39844-.51172-.79688-.76172-1.2031m5.8086 7.8203c-1.5039-1.6836-2.8984-3.457-4.1797-5.3164m6.0273 7.2774c-.1875-.1875-.37501-.3789-.5586-.57031m2.75 2.6602c-.21875-.19922-.43751-.39844-.65235-.60157m7.1641 5.5469c-1.6953-1.082-3.3398-2.2734-4.9141-3.5742m7.1719 4.9258c-.16797-.0937-.33984-.1914-.51172-.29297m3.0273 1.6133c-.16406-.082-.33203-.16406-.5-.25m8.7773 3.3477c-2.0937-.5625-4.1484-1.2734-6.1523-2.1289m8.7422 2.7461c-.32812-.0664-.65625-.14063-.98437-.21485m4.0117.73438c-.35156-.0469-.70312-.0977-1.0508-.15625m7.168.57422c-1.4023 0-2.8008-.0625-4.1914-.19531m-44.41-54.523v-.29297c0-1.4922.05468-2.9766.16406-4.4531m.10548 10.137c-.0039-.0742-.01177-.14845-.01954-.22267m1.3125 8.0781c-.40624-1.7305-.73437-3.4883-.98437-5.2617m5.4844 17.738c-.79296-1.582-1.5078-3.211-2.1523-4.8711m10.137 16.684c-1.4219-1.5898-2.7422-3.2695-3.9609-5.0234m14.328 13.852c-1.6484-1.0469-3.2422-2.2031-4.7773-3.4609m17.379 9.0469c-2.0039-.54688-3.9687-1.2305-5.8906-2.0508m17.715 3.5976h-.23828c-1.3477 0-2.6914-.0586-4.0273-.18359m-43.469-53.242v-.36328c0-1.5313.05859-3.0586.17968-4.5742m1.3828 17.961c-.42187-1.7852-.76172-3.5937-1.0156-5.4258m5.4648 17.637c-.82422-1.6289-1.5664-3.3086-2.2227-5.0234m10.125 16.602s-.0039-.004-.0039-.004c-1.4961-1.6562-2.8828-3.4141-4.1523-5.2539m14.383 13.855c-1.7539-1.0938-3.4453-2.3164-5.0703-3.6562m17.32 8.9922c-2.0977-.55468-4.1484-1.2695-6.1523-2.1328m16.918 3.5898c-1.2734-.008-2.543-.0781-3.8047-.19922m-41.91-51.641c0-.24217-.0039-.48436-.0039-.72655 0-1.6719.07422-3.3398.22266-4.9883m1.4141 18.457c-.50391-2.0352-.89453-4.1133-1.168-6.2148m5.5898 18.016c-.94531-1.8359-1.7891-3.7344-2.5234-5.6836m10.41 16.953c-.15234-.16406-.30468-.32812-.45312-.49609-1.5664-1.7305-3.0117-3.5781-4.3203-5.5195m14.867 14.25c-2.0547-1.2383-4.0312-2.6562-5.9062-4.2383m17.73 9.1758c-2.3984-.60157-4.7422-1.4141-7.0156-2.4297m16.484 3.6875c-1.2891-.0234-2.5703-.10547-3.8437-.24609m-40.285-49.488c-.0078-.41015-.01563-.82031-.01563-1.2344 0-1.8711.09766-3.7305.28516-5.5703m1.4727 19.32c-.62109-2.3828-1.082-4.8203-1.375-7.2969m5.8125 18.727c-1.1289-2.1289-2.1133-4.3438-2.9453-6.625m10.895 17.633c-.33984-.35157-.67187-.71094-.99999-1.0742-1.6875-1.8633-3.2266-3.8633-4.6094-5.9766m15.672 14.941c-2.4687-1.418-4.8242-3.0898-7.0273-5.0039m18.496 9.5312c-2.832-.65625-5.5898-1.6133-8.2422-2.8516m16.414 3.8945c-1.3867-.0352-2.7695-.14453-4.1406-.32032m-38.48-47.367c-.02344-.65235-.03516-1.3047-.03516-1.9609 0-2.1953.13281-4.375.39844-6.5274m1.5469 20.801c-.80859-2.9023-1.375-5.8945-1.6797-8.9375m6.2344 20.043c-1.4414-2.5898-2.6562-5.3164-3.6328-8.1484m4.793 10.121c-.01563-.0273-.03515-.0586-.05078-.0859m7.0508 8.8672c-.63672-.62891-1.2617-1.2773-1.8672-1.9492-1.9102-2.1133-3.625-4.4023-5.1328-6.832m17.332 16.344c-3.2305-1.6914-6.2812-3.8242-9.0664-6.3672m9.7265 6.707c-.22266-.11329-.44141-.22657-.66016-.33985m10.977 3.8906c-3.5664-.71094-7.0312-1.9062-10.316-3.5508m16.562 4.2812c-1.5937-.0586-3.1719-.21485-4.7344-.46094m2.5781-5.6797c-24.016-.60942-37.992-23.606-35.305-48.289m32.898 42.184c-15.422-3.1367-27.109-18.094-27.109-36.07 0-.52344.0078-1.0469.02735-1.5664m25.051 33.355c-12.168-3.7734-21.191-15.871-21.738-30.395m-15.082 32.09c-5.9844-9.8203-9.2461-21.465-9.2461-33.484 0-4.7969.52343-9.4688 1.5312-14.059m49.586 73.871c-10.184-.62891-19.957-4.4258-28.219-10.883m-19.641-19.402c-4.2773-9.0274-6.5742-19.145-6.5742-29.527 0-5.2774.59376-10.492 1.7422-15.523m7.8594 33.25c-.19141-.82033 1.3398-1.8984 3.4141-2.4024 2.0781-.50782 3.9141-.25391 4.1016.57031.19141.82031-1.3398 1.8945-3.4141 2.4023-2.0781.50782-3.9141.25001-4.1016-.5703m7.2383-1.0547c-.1914.80077-.8789 1.8906-1.8906 2.8906-1.5391 1.5156-3.2461 2.2539-3.8164 1.6445-.42578-.45704-.15625-1.4727.6914-2.6328m-.85156-2.5352c-1.168-.46875-1.7383-1.1172-1.6406-1.6953.14062-.83203 1.957-1.2031 4.0586-.82812 1.7422.30858 3.1289 1.0312 3.4766 1.7422m-9.6445-10.977c-.04297-.84374 1.6445-1.6289 3.7734-1.75 2.1289-.125 3.8945.46095 3.9414 1.3008.04687.84375-1.6445 1.625-3.7734 1.75-2.1289.125-3.8945-.46094-3.9414-1.3008m7.3086.26563c-.32421.75781-1.1875 1.7031-2.3555 2.5039-1.7734 1.2188-3.582 1.6367-4.0391.9336-.33984-.52735.09766-1.4805 1.1328-2.4688m-.40625-2.6484c-1.0703-.67188-1.5195-1.4141-1.3242-1.9688.27734-.79298 2.1289-.82814 4.1367-.082 1.6602.62109 2.9024 1.582 3.125 2.3437m-7.4375-12.074c.16407-.82812 1.9922-1.1367 4.082-.69141 2.0898.44141 3.6484 1.4727 3.4805 2.2969-.16406.82813-1.9922 1.1367-4.082.69531-2.0898-.44531-3.6484-1.4726-3.4805-2.3008m6.9922 2.1914c-.50391.64453-1.5742 1.332-2.9023 1.7969-2.0195.70703-3.8711.63281-4.1328-.16798-.19922-.59765.46484-1.4023 1.7109-2.0859m5.7969-1.3711c.08204.20312.12891.39061.13672.55859m-5.668-1.8555c-.8672-.92968-1.1133-1.7656-.78907-2.25m6.4414 42.66c-.4453-.71094.65234-2.2461 2.4453-3.4336 1.7969-1.1836 3.6094-1.5703 4.0547-.85937.44141.70703-.65234 2.2461-2.4492 3.4297-1.793 1.1875-3.6094 1.5742-4.0508.86328m6.4883-3.4648c.07812.82031-.21875 2.082-.85157 3.3711-.96093 1.957-2.3359 3.2383-3.0664 2.8555-.55078-.28516-.625-1.3398-.19922-2.7227m-1.6211-2.0976c-1.2539-.043-2-.46095-2.0937-1.0391-.13672-.83203 1.457-1.8047 3.5586-2.168 1.7422-.30468 3.2851-.0977 3.8437.45703m2.8555 16.422c-.5586-.61719.2539-2.3281 1.8164-3.8242 1.5625-1.4922 3.2852-2.2031 3.8437-1.582.55859.61719-.25781 2.3281-1.8203 3.8242-1.5625 1.4922-3.2813 2.2031-3.8398 1.582m5.789-4.5898c.21876.79296.14454 2.0898-.25781 3.4726-.60937 2.1016-1.7422 3.6133-2.5312 3.3711-.58984-.1836-.84375-1.207-.66015-2.6445m-1.957-1.7734c-1.2383.1875-2.0469-.0898-2.2383-.64063-.27734-.79687 1.125-2.0391 3.1328-2.7812 1.6601-.61328 3.2148-.6914 3.8594-.25m6.1523 14.395c-.6875-.45703-.30859-2.3242.84766-4.168 1.1562-1.8438 2.6523-2.9648 3.3398-2.5078.6914.45703.3125 2.3203-.84375 4.1641-1.1562 1.8438-2.6523 2.9688-3.3437 2.5117m4.5117-5.918c.40234.71484.64062 1.9883.58203 3.4297-.08984 2.1953-.82422 3.9453-1.6445 3.9102-.61719-.0273-1.1055-.95313-1.2734-2.3945m-2.3203-1.2227c-1.1602.4961-2.0078.4336-2.3281-.0547-.45703-.69921.60156-2.2617 2.3711-3.4883 1.4648-1.0156 2.9531-1.4844 3.6836-1.2188m10.277 11.484c-.79297-.20313-1.0234-2.0938-.51172-4.2227.51172-2.1289 1.5703-3.6914 2.3672-3.4922.79687.20313 1.0273 2.0938.51562 4.2266-.51172 2.1289-1.5742 3.6914-2.3711 3.4883m2.4023-7.1016c.60547.53906 1.2305 1.668 1.6328 3.0508.60937 2.1016.46484 4.0039-.32422 4.2422-.58984.1836-1.3477-.53125-1.957-1.8359m-2.582-.38281c-.9414.85546-1.7617 1.0781-2.2187.72656-.65234-.50782-.14453-2.3398 1.1406-4.0938 1.0625-1.4492 2.3242-2.3906 3.0977-2.3828m-2.2383-12.312-1.6797 6.0469m-4.6211-8.9297-3.2422 5.8359m-1.8281-9.5703-4.582 5.1445m-.02734-10.094-5.4883 3.9062m1.5195-10.48-5.9336 2.6133m3.4414-9.5938-6.1523 1.2656m5.0078-7.6484h-6.0742m33.594 33.738-5.6055 3.7891-4.6289-8.9062-9.6523 1.4102-.02734-10.094-9.9023-3.9609 3.4414-9.5938-7.207-6.3828 5.0703-6.0586m30.434 44.566-5.8555-7.0039-9.543 2.9531-1.8281-9.5703-10.098-1.043 1.5195-10.48-8.5976-5.7266 4.9609-7.6367-6.1172-6.6562 1.9492-1.918m2.7812 2.2656-4.7617-.34765m-18.137-13.246v29.684m-1.7852-30.422v29.199m-1.7812-29.949v28.727m28.551 43.879c-4.3711 1.293-2.9961-5.8555-9.0351-2.0312m4.8516 11.055c6.7695-3.2812.625-6.0781 4.2656-8.8398m-8-11.938c-3.4883 1.6992-4.2227-4.918-8.9101.54296m7.7539 9.1055c5.4375-4.9102-.48047-5.957 1.4336-9.293m-11.203-9.207c-2.7305 1.4687-5.0664-3.7695-8.0625 2.914m9.9062 6.4336c3.9023-5.9805-1.25-5.7656-1.0273-8.8672m-8.8789 2.4336c2.2187-5.9336-.77734-5.9492-2.2578-7.4375m33.07 39.238c-4.8516-.0586-1.1055-6.5391-8.0625-4.9648m1.1445 12.078c7.3984-.88281 2.2773-5.6797 6.9297-6.9805m-2.3828 10.879c-.40624-1.8633-.17577-4.0469-4.5469-3.875m-.26172-7.3164c.99219-.29297 2-.55469 3.2461-.35156m-1.1875 3.0547c-.07031-2.125-1.0469-2.1758-2.0078-2.2539m-.0586-.80078c.90235-.61719 1.9258-1.4102 2.0664-2.4453m-4.9375-7.7226c.9414-.625 1.8711-1.2578 3.2227-1.4531m-.26953 3.2774c-.72656-2.1875-1.7813-1.707-2.8008-1.5039m-.17577-.63672c.72266-.88281 1.5859-2.0195 1.418-3.1211m-8.0508-7.0977c.3086-1.0117.64452-2.0234 1.4922-2.9844m1.8359 2.6992c-1.8789-1.1758-2.4101-.1875-3.0469.63281m-.57422-.77735c-.01954-1.0586-.14453-2.2344-.85157-2.8711m-8.1797-4.5898c.27344-.81641.625-1.625 1.3086-2.3984m1.832 2.6992c-1.4414-.90235-2.0898-.52735-2.6016.0664m-1.0352-.64843c-.04687-.92969-.22265-1.8828-.83593-2.4336m-2.9687 23.418c1.3867-2.7656-1.0977-5.8476-2.7148-7.2422m5.9961 9.7891c5.3047 1.0469 13.937 2.0742 13.023 5.3438-.35547 1.0938-1.3398 1.9688-2.082 2.4961m-1.0547-5.6992c4.8008-3.832 1.4219-5.8476-12.766-6.5m11.133 1.2227c3.2773-7.1758-5.2617-3.9609-11.43-2.8281m9.1172-1.7226c1.5703-6.6367-3.6211-4.1758-10.074-.0195m7.5859-3.9805c-.92968-7.1406-4.5508-3.4258-8.7344 2.5508m5.3203-6.0469c-3.3164-8.6758-4.6289-.47656-6.0312 4.5898m2.1016-7.0586c-.96875-2.0703-1.6406-3.0234-2.1055-3.2031m48.281 18.875.17578-.26563m-8.1875 12.43.30469-.45703m6.3281-12.027.80078-1.2188m-8.8594 13.457 1-1.5195m5.3164-10.488 2.082-3.1602m-10.348 15.711 2.5586-3.8828m3.1211-7.1562 3.3984-5.1602m-9.1719 13.926 3.1445-4.7734m1.6562 7.4102c-5.5937-4.6016.92187-15.164 6.6641-12.816.35547.14453.71094.34375 1.0586.59375m-12.437 11.707c1.5117-.63281 3.1719-.59375 4.7148.51563m7.7226-12.223c-1.2852-1.0586-1.9297-2.4336-2.0937-3.8906m-37.723 57.16c-2.1328 0-3.8633-3.2852-3.8633-7.3359s1.7305-7.3359 3.8633-7.3359c2.1328 0 3.8633 3.2852 3.8633 7.3359s-1.7305 7.3359-3.8633 7.3359m0 13.359-3.4805-3.582 3.4805-3.5781 3.4805 3.5781-3.4805 3.582m0 20.867c-2.1328 0-3.8633-3.2812-3.8633-7.332s1.7305-7.3359 3.8633-7.3359c2.1328 0 3.8633 3.2852 3.8633 7.3359s-1.7305 7.332-3.8633 7.332m-1.918-53.875c-2.7969 1.5664-4.8398 6.4883-4.8398 12.312 0 4.8984 1.4727 9.3711 3.7891 11.523l-5.4336 5.5898 5.4375 5.5977c-2.3164 2.1484-3.789 6.6172-3.793 11.52 0 7.0898 3.0234 12.836 6.7578 12.836 3.7344 0 6.7578-5.7461 6.7578-12.836 0-4.9024-1.4727-9.3711-3.7891-11.523l5.4336-5.5938-5.4375-5.5938c2.3203-2.1484 3.793-6.6211 3.793-11.52 0-4.1367-1.0273-7.8125-2.625-10.16m10.664-9.4805c-.26172 1.6406-1.3281 4.8711-2.3125 5.4922-1.1328.71094-5.3516 4.2773-7.1328 4.2773-1.7813 0-3.5664-2.4453-7.1289-2.4453-2.9727 0-2.3789-2.4453 0-2.4453 2.375 0 4.1562.61328 4.1562.61328 1.7852-2.0625 2.9883-1.875 4.1602-2.4453 1.2031-.58594-1.7813.60937-2.375-.61329-.52345-1.0781 1.7305-6.4453 2.2656-7.6875m-9.9062 10.672c-2.1094-.21875-3.6523-.92578-3.6523-1.7617 0-1.0117 2.2617-1.832 5.0547-1.832 2.7891 0 5.0508.82031 5.0508 1.832 0 .60156-.80078 1.1367-2.0313 1.4688m-4.2461-3.2148c-2.1172.0351-3.7305-.48047-3.8281-1.3086-.11327-1.0078 2.0391-2.0938 4.8086-2.4336 2.7695-.33594 5.1094.20313 5.2266 1.2109.06641.59765-1.1211 1.832-4.0898 2.4453m-2.168-3.5938c-2.1211.0352-3.7305-.48047-3.8281-1.3086-.11718-1.0078 2.0352-2.0977 4.8047-2.4336 2.7734-.33594 5.1133.20313 5.2266 1.2109.0664.57422-1.0313 1.7461-3.7734 2.375m-2.3203-3.5977c-1.8594-.20312-3.8906-1.0898-3.8867-1.9102.0078-.99219 2.0117-1.8086 4.4726-1.8242 2.4609-.0156 4.4531.77344 4.4453 1.7656-.0039.57032-1.0938 1.5859-3.5625 1.8906m36.234 55.793c-.0039-3.1484 1.1914-6.1016 1.0781-6.8047-.19531-1.2031-5.9101-11.023-6.1797-12.836-.49219-3.3086 4.4102-3.3555 4.6328-3.7891.16016-.30469-.11719-2.3203-.11719-2.3203 0-.61328 1.1875-2.4453 1.1875-2.4453s0-1.2227-.59375-1.8359c-.59375-.60938 2.9727-2.4453 2.9727-2.4453s-1.7852-2.4453-1.7852-3.668c0-1.2227.59375-3.0547 3.5664-3.0547s6.5351.60937 8.9141.60937c2.375 0 8.914 3.0586 10.102 3.0586m6.9414-1.3164c-.90235-.4414-4.8476-2.2812-6.9414-1.7422-1.5273.39453-3.543 1.0391-4.793 1.4492m-18.383 9.5547s1.7852.36719 2.3789.36719c.59375 0 1.1875-1.5898 2.375-1.5898 1.1875 0 1.1875-.60937 1.1875-.60937.07422-.0391-2.7187-.44531-3.5625.60937-.37891.47266-2.3984.27344-2.3984.27344m8.9336.94922c-1.7812 0-4.1602 3.2578-5.3476 3.3008l-2.9727.1211.47656-.97657s1.5469-.24609 2.1406-.24609c.59375 0 2.7305-2.8086 3.9219-2.8086 1.1875 0 1.7812.60937 1.7812.60937m-7.3672 9.0469c1.7969-.0117 3.1367-4.2695 0-3.7891-3.0937.47266-5.2617 2.1719-3.3281 2.0781 2.4961-.1211 3.4453-1.3438 3.9219-1.957m-.23828 18.828.94922-.98047s3.6875 1.4688 5.707 1.2227c1.9219-.23047 9.2695-4.0312 9.2695-4.0312-1.6641 2.1992-10.34 7.5781-15.926 3.7891m13.547-7.2148c-3.8008-.60938-5.5859 3.7891-12.238 3.7891m8.082-2.6875c3.8008-3.5469-7.8437-2.4453-7.8437-2.4453m46.715 8.2578c-2.0898-7.7188 6.1758-12.613 5.1016-21.461-.59375-4.8906-8.3203-4.2773-8.3203 0 0 3.0547 3.5664 2.4453 3.5664.60938 0-1.832-1.1914-2.4414-1.1914-2.4414m-1.5547 23.809c-2.3594-7.8789 6.1133-12.781 5.0234-21.734-.28125-2.3125-1.8711-2.7656-3.4648-2.1484m-3.5273 24.297c-3.0078-8.1055 5.4688-12.891 4.7148-21.781m-6.9414 22.168c-3.207-7.8359 4.418-12.637 4.7422-20.656m-6.918 21.109c-3.6562-8.1758 5.2187-14.445 5.5508-22.621m-7.4805 22.91c-3.9023-8.5469 5.4922-14.461 5.5937-22.551.10547-8.3047-8.8086-6.4688-8.8086-2.1914 0 4.2773 6.1562 4.4805 5.9414.61328-.21875-3.8711-4.5781-1.5547-3.5664-.61328m-1.5898 25.176c-3.4414-8.0977 5.5234-14.402 5.625-22.445.0234-1.9062-.45703-3.1797-1.2109-3.9531m-6.8906 26.758c-3.0352-7.7539 5.1211-14.613 5.8047-22.23m-4.1211-3.3242c-3.6133-6.832-13.66-3.3867-13.66 1.8516 0 6.7539 6.5352 5.5039 6.5352 1.2226 0-4.2344-5.3476-1.832-2.9688.61329m5.9141 22.203c-2.7109-7.8945 5.375-16.969 5.375-21.594 0-.62109-.15234-1.1953-.27344-1.7344m-7.375 23.625c-3-7.8242 5.4141-15.543 4.6758-23.113-.59375-6.1094-9.5078-5.1484-9.5078-1.832 0 1.2227 1.1914 2.4453 1.1914 2.4453m1.3164 22.754c-3.832-10.422 10.234-21.664.67187-25.512m24.105-12.02c3.6953-3.3203 9.5586-1.4648 9.5586 2.5508 0 6.7539-5.9492 4.8906-5.9414 1.8359.004-2.5156 3.5664-2.4453 3.5664.60938m-10.094 4.207c-.10938-2.1719.12109-3.9766.58984-5.4492m1.1367 5.1641c-1.2227-7.2891 8.2656-11.051 8.9609-6.3672.0898.60547 0 1.2227-.59375 2.4453m-6.9414 4.082c.39454-3.2539 2.4648-7.207 5.1562-6.5274m-15.863-3.6094c3.7109-4.1953 10.516-3.9024 10.516 1.7773 0 3.7188-5.9414 4.2774-5.9414 1.2227 0-3.668 3.5664-2.4453 3.5664-1.2227m-10.312 6.875c-.15625-.97265-.19922-1.8828-.15235-2.7383m1.9961 2.6797c-.0859-1.6406.0312-4.6602 1.3359-6.207 3.4844-4.125 6.9531-1.8203 7.1328-.60938.0898.61719-.19922.88281-.59765 1.2227m-6.3984 6.1758c.70703-5.4258 2.0742-8.7891 4.5976-8.5156m-3.3086 9.8398c.63672-2.7734 1.3125-5.3984 2.1406-7.5m-1.3633 10.184c.875-2.8438 2.1172-6.1055 3.2891-8.2109m-20.273 3.6016c1.25-14.066 14.895-12.723 14.187-6.1875-.59375 5.5039-5.8047 3.6641-5.9414.61328-.14062-3.125 3.5625-3.0586 3.5625-.61328m-10.012 5.9609c.79297-5.1172 5.6016-11.625 8.9687-7.6523m-7.1133 7.793c.57422-3.7109 1.8672-6.582 5.0625-7.2188m-3.2461 7.9688c.48438-2.8672 1.6641-4.7109 2.8086-6.1602m-1.1562 7.4883c.22657-2.1484.96875-4.1172 1.793-5.8828m1.0117 4.6172c-.25391-1.2188-.20313-2.4805-.0156-3.7578m31.684 53.766c-6.6562-6.8672-14.266-15.035-19.086-24.523-17.082 3.7188-34.668 5.707-51.699 3.668-5.5586 7.7227-12.723 14.441-20.484 20.785m74.508-20.273c-14.223 5.9336-42.625 9.3672-56.851 3.2148" stroke-width=".72322"/>
  <path d="m180.84 98.82c0 1.2227 2.9727 1.2227 2.9727 1.2227m-4.5078.97656c.71874 1.0742.1289 2.7656 0 2.6914m-.004 1.75c.71874 1.0742.1289 2.7656 0 2.6914m.17968.67187c.71876 1.0781.12891 2.7695 0 2.6953m1.0078.66406c.72266 1.0781.13281 2.7656 0 2.6914m2.1367-13c.33203.53907.17188.88282 0 1.2227m.39843 2.4609c.33204.53515.17188.88281 0 1.2226m0 2.4453c.33204.53515.17188.88281 0 1.2226m0 2.4453c.33204.53516.17188.88282 0 1.2227m-36.765-31.801c-1.2891.12891-2.7461-.16797-3.9219.97656m-2.4961-15.281c-.83203.125-2.2578 2.2031-2.2578 2.2031m1.2383-7.0547c.26563.5.42578 1.1484.42578 1.8594 0 1.5859-.80078 2.8711-1.7852 2.8711-.98438 0-1.7812-1.2852-1.7812-2.8711 0-.23438.0156-.45703.0469-.67188m-7.0586.60937c3.3281 0 6.8906-3.7891 9.1484-3.7891 1.3672 0 1.4297 1.5898 1.4297 1.5898" stroke-width=".36161"/>
 </g>
 <g>
  <path d="m145.54 99.039c-.45313 1.9492.45703 3.9453-.75781 5.6797-.35157.50391-1.0469.625-1.5508.27344-.5039-.35156-.625-1.0469-.27343-1.5508.0234-.0352.0156-.082-.0195-.10547-.0312-.0234-.0781-.0156-.10157.0195-.85156 1.2188-.61328 1.5195-.76562 2.3203l-1.582-1.1055c.69922-.41797 1.0703-.29687 1.9219-1.5117.0234-.0352.0156-.082-.0195-.10546-.0312-.0234-.0781-.0156-.10156.0195-.35547.5039-1.0508.625-1.5547.27343-.50391-.35156-.625-1.0469-.27344-1.5508 1.2148-1.7344 3.4062-1.5625 5.0781-2.6562z"/>
  <path d="m137.71 110.58c-.38672 1.9609.59375 3.9258-.55859 5.6992-.33594.51563-1.0273.66406-1.543.32813-.51562-.33594-.66016-1.0234-.32812-1.5391.0234-.0352.0156-.082-.0195-.10547-.0352-.0195-.082-.0117-.10546.0234-.8086 1.2461-.55469 1.543-.67969 2.3477l-1.6211-1.0547c.6836-.4375 1.0586-.33203 1.8672-1.5742.0234-.0352.0117-.082-.0234-.10547-.0352-.0234-.0781-.0117-.10156.0234-.33594.51563-1.0234.66016-1.543.32813-.51562-.33594-.66015-1.0274-.32422-1.543 1.1524-1.7734 3.3477-1.6758 4.9805-2.8281z"/>
  <path d="m129.99 122.56c-.38672 1.9609.59375 3.9258-.55859 5.6992-.33594.51562-1.0234.66406-1.5391.32812-.51563-.33593-.66407-1.0234-.32813-1.5391.0234-.0352.0117-.082-.0234-.10547-.0352-.0195-.0781-.0117-.10156.0234-.80859 1.2461-.55859 1.543-.68359 2.3477l-1.6172-1.0547c.68359-.4375 1.0547-.33203 1.8633-1.5742.0234-.0352.0117-.082-.0195-.10547-.0352-.0195-.082-.0117-.10547.0234-.33203.51562-1.0234.66016-1.5391.32812-.51563-.33593-.66406-1.0273-.32813-1.543 1.1524-1.7734 3.3477-1.6758 4.9805-2.8281z"/>
 </g>
 <path d="m44.164 216.18c0-1.2227-2.9727-1.2227-2.9727-1.2227m4.5078-.97656c-.71874-1.0742-.1289-2.7656 0-2.6914m.0039-1.75c-.71874-1.0742-.1289-2.7656 0-2.6914m-.17968-.67188c-.71876-1.0781-.12891-2.7695 0-2.6953m-1.0078-.66406c-.72266-1.0781-.13281-2.7656 0-2.6914m-2.1367 13c-.33203-.53906-.17188-.88281 0-1.2226m-.39843-2.4609c-.33203-.53516-.17188-.88281 0-1.2227m0-2.4453c-.33203-.53516-.17188-.88281 0-1.2227m0-2.4453c-.33203-.53516-.17188-.88281 0-1.2227m36.766 31.801c1.2891-.12891 2.7461.16797 3.9219-.97657m2.4961 15.281c.83203-.125 2.2578-2.2031 2.2578-2.2031m-1.2383 7.0547c-.26562-.5-.42578-1.1484-.42578-1.8594 0-1.5859.80078-2.8711 1.7852-2.8711.98437 0 1.7812 1.2852 1.7812 2.8711 0 .23438-.01563.45703-.04687.67188m7.0586-.60938c-3.3281 0-6.8906 3.7891-9.1484 3.7891-1.3672 0-1.4297-1.5898-1.4297-1.5898" fill="none" stroke="#4242ff" stroke-linecap="round" stroke-linejoin="round" stroke-width=".36161"/>
 <g>
  <path d="m79.457 215.96c.45312-1.9492-.45703-3.9453.75781-5.6797.35156-.50391 1.0469-.625 1.5508-.27344s.625 1.0469.27344 1.5508c-.02344.0352-.01562.082.01953.10547.03125.0234.07813.0156.10156-.0195.85156-1.2188.61328-1.5195.76562-2.3203l1.582 1.1055c-.69922.41797-1.0703.29687-1.9219 1.5117-.02344.0352-.01563.082.01953.10546.03125.0234.07813.0156.10156-.0195.35547-.5039 1.0508-.625 1.5547-.27343.50391.35156.625 1.0469.27344 1.5508-1.2148 1.7344-3.4062 1.5625-5.0781 2.6562z"/>
  <path d="m87.285 204.42c.38672-1.9609-.59375-3.9258.55859-5.6992.33594-.51563 1.0273-.66406 1.543-.32813.51562.33594.66016 1.0234.32812 1.5391-.02344.0352-.01563.082.01953.10547.03516.0195.08203.0117.10547-.0234.80859-1.2461.55469-1.543.67969-2.3477l1.6211 1.0547c-.68359.4375-1.0586.33203-1.8672 1.5742-.02344.0352-.01172.082.02344.10547.03516.0234.07813.0117.10156-.0234.33594-.51563 1.0234-.66016 1.543-.32813.51562.33594.66016 1.0274.32422 1.543-1.1523 1.7734-3.3477 1.6758-4.9805 2.8281z"/>
  <path d="m95.012 192.44c.38672-1.9609-.59375-3.9258.55859-5.6992.33594-.51562 1.0234-.66406 1.5391-.32812.51562.33593.66406 1.0234.32812 1.5391-.02344.0352-.01172.082.02344.10547.03516.0195.07812.0117.10156-.0234.80859-1.2461.55859-1.543.68359-2.3477l1.6172 1.0547c-.68359.4375-1.0547.33203-1.8633 1.5742-.02344.0352-.01172.082.01953.10547.03516.0195.08203.0117.10547-.0234.33203-.51562 1.0234-.66016 1.5391-.32812.51563.33593.66407 1.0273.32813 1.543-1.1523 1.7734-3.3477 1.6758-4.9805 2.8281z"/>
 </g>
 <path d="m21.75 12.449h6m-3 0v21.301c0 3.3125-2.6875 6-6 6s-6-2.6875-6-6v-.89844" fill="none" stroke="#000" stroke-linecap="square" stroke-miterlimit="1.5" stroke-width="2.4"/>
 <path d="m20.25 48.027c2.0938 5.2305 7.4258 8.3672 7.4258 14.328 0 1.7305-1.4062 3.1367-3.1367 3.1367-1.7344 0-3.1367-1.4062-3.1367-3.1367 0-.11719-.09375-.21094-.21094-.21094-.11719 0-.20703.09375-.20703.21094 0 4.1797 1.043 4.4961 1.9844 6.5859h-5.4375c.94141-2.0898 1.9883-2.4062 1.9883-6.5859 0-.11719-.09375-.21094-.21094-.21094-.11328 0-.20703.09375-.20703.21094 0 1.7305-1.4062 3.1367-3.1367 3.1367-1.7344 0-3.1367-1.4062-3.1367-3.1367 0-5.9609 5.332-9.0977 7.4219-14.328z"/>
 <path d="m52.566 37.949c4.3516 10.875 15.445 17.402 15.445 29.797 0 3.6055-2.9219 6.5273-6.5273 6.5273-3.6016 0-6.5234-2.9219-6.5234-6.5273 0-.23828-.19531-.43359-.4375-.43359-.23828 0-.43359.19531-.43359.43359 0 8.7031 2.1758 9.3555 4.1328 13.703h-11.309c1.957-4.3477 4.1328-5 4.1328-13.703 0-.23828-.19531-.43359-.4375-.43359-.23828 0-.43359.19531-.43359.43359 0 3.6055-2.9219 6.5273-6.5273 6.5273-3.6016 0-6.5234-2.9219-6.5234-6.5273 0-12.395 11.094-18.922 15.441-29.797z"/>
 <path d="m203.25 302.55h-6m3 0v-21.301c0-3.3125 2.6875-6 6-6s6 2.6875 6 6v.89844" fill="none" stroke="#000" stroke-linecap="square" stroke-miterlimit="1.5" stroke-width="2.4"/>
 <path d="m204.75 266.97c-2.0938-5.2305-7.4258-8.3672-7.4258-14.328 0-1.7305 1.4062-3.1367 3.1367-3.1367 1.7344 0 3.1367 1.4062 3.1367 3.1367 0 .11719.0937.21094.21093.21094.11719 0 .20703-.0937.20703-.21094 0-4.1797-1.043-4.4961-1.9844-6.5859h5.4375c-.94141 2.0898-1.9883 2.4062-1.9883 6.5859 0 .11719.0937.21094.21094.21094.11328 0 .20703-.0937.20703-.21094 0-1.7305 1.4062-3.1367 3.1367-3.1367 1.7344 0 3.1367 1.4062 3.1367 3.1367 0 5.9609-5.332 9.0977-7.4219 14.328z"/>
 <path d="m172.43 277.05c-4.3516-10.875-15.445-17.402-15.445-29.797 0-3.6055 2.9219-6.5274 6.5273-6.5274 3.6016 0 6.5234 2.9219 6.5234 6.5274 0 .23828.19531.43359.4375.43359.23828 0 .4336-.19531.4336-.43359 0-8.7031-2.1758-9.3555-4.1328-13.703h11.309c-1.957 4.3477-4.1328 5-4.1328 13.703 0 .23828.19532.43359.4375.43359.23829 0 .4336-.19531.4336-.43359 0-3.6055 2.9219-6.5274 6.5273-6.5274 3.6016 0 6.5234 2.9219 6.5234 6.5274 0 12.395-11.094 18.922-15.441 29.797z"/>
 <path d="m35.25 35.25h154.5v244.5h-154.5z" fill="none" stroke="#4242ff" stroke-width=".9375"/>
</svg>
