<svg width="225px" height="315px" version="1.1" viewBox="0 0 225 315" xmlns="http://www.w3.org/2000/svg">
 <path d="m11.719 0.46875h201.56c6.2148 0 11.25 5.0352 11.25 11.25v291.56c0 6.2148-5.0352 11.25-11.25 11.25h-201.56c-6.2148 0-11.25-5.0352-11.25-11.25v-291.56c0-6.2148 5.0352-11.25 11.25-11.25z" fill="#fff" stroke="none"/>
 <g fill-rule="evenodd">
  <path d="m157.91 65.155v-46.57h-46.093v46.57z" fill="#fff"/>
  <path d="m203.98 65.155v-46.57h-46.067v46.57z" fill="#d11209"/>
  <path d="m203.98 111.73v-46.57h-46.067v46.57z" fill="#fff"/>
  <path d="m157.91 111.73v-46.57h-46.093v46.57z" fill="#d11209"/>
  <path d="m65.752 158.29v-46.569h-46.067v46.569z" fill="#fff"/>
  <path d="m111.82 158.29v-46.569h-46.069v46.569z" fill="#d11209"/>
  <path d="m157.91 158.29v-46.569h-46.093v46.569z" fill="#fff"/>
  <path d="m203.98 158.29v-46.569h-46.067v46.569z" fill="#d11209"/>
  <path d="m111.82 111.73v-46.57h-46.069v46.57z" fill="#fff"/>
  <path d="m65.752 111.73v-46.57h-46.067v46.57z" fill="#d11209"/>
  <path d="m65.752 65.155v-46.57h-46.067v46.57z" fill="#fff"/>
  <path d="m111.82 65.155v-46.57h-46.069v46.57z" fill="#d11209"/>
  <path d="m111.82 298.03v-46.582h-46.069v46.582z" fill="#fff"/>
  <path d="m65.752 298.03v-46.582h-46.067v46.582z" fill="#d11209"/>
  <path d="m65.752 251.45v-46.57h-46.067v46.57z" fill="#fff"/>
  <path d="m111.82 251.45v-46.57h-46.069v46.57z" fill="#d11209"/>
  <path d="m203.98 204.88v-46.582h-46.067v46.582z" fill="#fff"/>
  <path d="m157.91 204.88v-46.582h-46.093v46.582z" fill="#d11209"/>
  <path d="m111.82 204.88v-46.582h-46.069v46.582z" fill="#fff"/>
  <path d="m65.752 204.88v-46.582h-46.067v46.582z" fill="#d11209"/>
  <path d="m157.91 251.45v-46.57h-46.093v46.57z" fill="#fff"/>
  <path d="m203.98 251.45v-46.57h-46.067v46.57z" fill="#d11209"/>
  <path d="m203.98 298.03v-46.582h-46.067v46.582z" fill="#fff"/>
  <path d="m157.91 298.03v-46.582h-46.093v46.582z" fill="#d11209"/>
  <path d="m152.15 18.585 5.7672 5.8036-40.327 40.767-5.766-5.8292z" fill="#d11209"/>
  <path d="m198.21 18.585 5.766 5.8036-40.3 40.767-5.7672-5.8292 40.301-40.741" fill="#fff"/>
  <path d="m163.68 65.155-5.7672 5.8292 40.301 40.741 5.766-5.8304z" fill="#d11209"/>
  <path d="m117.59 65.155-5.766 5.8292 40.326 40.741 5.7672-5.8304-40.327-40.74" fill="#fff"/>
  <path d="m59.986 111.73 5.7654 5.8152-40.313 40.754-5.7539-5.803z" fill="#d11209"/>
  <path d="m106.08 111.73 5.7411 5.8152-40.302 40.754-5.7666-5.803 40.327-40.766" fill="#fff"/>
  <path d="m152.15 111.73 5.7672 5.8152-40.327 40.754-5.766-5.803z" fill="#d11209"/>
  <path d="m198.21 111.73 5.766 5.8152-40.3 40.754-5.7672-5.803 40.301-40.766" fill="#fff"/>
  <path d="m71.518 65.155-5.7666 5.8292 40.327 40.741 5.7411-5.8304z" fill="#d11209"/>
  <path d="m25.438 65.155-5.7539 5.8292 40.302 40.741 5.7654-5.8304-40.313-40.74" fill="#fff"/>
  <path d="m59.986 18.585 5.7654 5.8036-40.313 40.767-5.7539-5.8292z" fill="#d11209"/>
  <path d="m106.08 18.585 5.7411 5.8036-40.302 40.767-5.7666-5.8292 40.327-40.741" fill="#fff"/>
  <path d="m71.518 298.03-5.7666-5.8298 40.327-40.752 5.7411 5.8286z" fill="#d11209"/>
  <path d="m25.438 298.03-5.7539-5.8298 40.302-40.752 5.7654 5.8286-40.313 40.754" fill="#fff"/>
  <path d="m59.986 251.45 5.7654-5.8298-40.313-40.74-5.7539 5.8298z" fill="#d11209"/>
  <path d="m106.08 251.45 5.7411-5.8298-40.302-40.74-5.7666 5.8298 40.327 40.74" fill="#fff"/>
  <path d="m163.68 204.88-5.7672-5.8164 40.301-40.766 5.766 5.8298z" fill="#d11209"/>
  <path d="m117.59 204.88-5.766-5.8164 40.326-40.766 5.7672 5.8298-40.327 40.752" fill="#fff"/>
  <path d="m71.518 204.88-5.7666-5.8164 40.327-40.766 5.7411 5.8298z" fill="#d11209"/>
  <path d="m25.438 204.88-5.7539-5.8164 40.302-40.766 5.7654 5.8298-40.313 40.752" fill="#fff"/>
  <path d="m152.15 251.45 5.7672-5.8298-40.327-40.74-5.766 5.8298z" fill="#d11209"/>
  <path d="m198.21 251.45 5.766-5.8298-40.3-40.74-5.7672 5.8298 40.301 40.74" fill="#fff"/>
  <path d="m163.68 298.03-5.7672-5.8298 40.301-40.752 5.766 5.8286z" fill="#d11209"/>
  <path d="m117.59 298.03-5.766-5.8298 40.326-40.752 5.7672 5.8286-40.327 40.754" fill="#fff"/>
  <path d="m117.59 18.585-5.766 5.8036 40.326 40.767 5.7672-5.8292z" fill="#d11209"/>
  <path d="m134.86 18.585-23.04 23.291 23.04 23.279 23.053-23.279z" fill="#d11209"/>
  <path d="m163.68 18.585-5.7672 5.8036 40.301 40.767 5.766-5.8292-40.3-40.741" fill="#fff"/>
  <path d="m180.93 18.585-23.015 23.291 23.015 23.279 23.052-23.279-23.052-23.291" fill="#fff"/>
  <path d="m198.21 65.155 5.766 5.8292-40.3 40.741-5.7672-5.8304z" fill="#d11209"/>
  <path d="m180.93 65.155 23.052 23.291-23.052 23.279-23.015-23.279z" fill="#d11209"/>
  <path d="m152.15 65.155 5.7672 5.8292-40.327 40.741-5.766-5.8304 40.326-40.74" fill="#fff"/>
  <path d="m134.86 65.155 23.053 23.291-23.053 23.279-23.04-23.279 23.04-23.291" fill="#fff"/>
  <path d="m25.438 111.73-5.7539 5.8152 40.302 40.754 5.7654-5.803z" fill="#d11209"/>
  <path d="m42.737 111.73-23.053 23.29 23.053 23.279 23.014-23.279z" fill="#d11209"/>
  <path d="m71.518 111.73-5.7666 5.8152 40.327 40.754 5.7411-5.803-40.302-40.766" fill="#fff"/>
  <path d="m88.805 111.73-23.054 23.29 23.054 23.279 23.015-23.279-23.015-23.29" fill="#fff"/>
  <path d="m117.59 111.73-5.766 5.8152 40.326 40.754 5.7672-5.803z" fill="#d11209"/>
  <path d="m134.86 111.73-23.04 23.29 23.04 23.279 23.053-23.279z" fill="#d11209"/>
  <path d="m163.68 111.73-5.7672 5.8152 40.301 40.754 5.766-5.803-40.3-40.766" fill="#fff"/>
  <path d="m180.93 111.73-23.015 23.29 23.015 23.279 23.052-23.279-23.052-23.29" fill="#fff"/>
  <path d="m106.08 65.155 5.7411 5.8292-40.302 40.741-5.7666-5.8304z" fill="#d11209"/>
  <path d="m88.805 65.155 23.015 23.291-23.015 23.279-23.054-23.279z" fill="#d11209"/>
  <path d="m59.986 65.155 5.7654 5.8292-40.313 40.741-5.7539-5.8304 40.302-40.74" fill="#fff"/>
  <path d="m42.737 65.155 23.014 23.291-23.014 23.279-23.053-23.279 23.053-23.291" fill="#fff"/>
  <path d="m25.438 18.585-5.7539 5.8036 40.302 40.767 5.7654-5.8292z" fill="#d11209"/>
  <path d="m42.737 18.585-23.053 23.291 23.053 23.279 23.014-23.279z" fill="#d11209"/>
  <path d="m71.518 18.585-5.7666 5.8036 40.327 40.767 5.7411-5.8292-40.302-40.741" fill="#fff"/>
  <path d="m88.805 18.585-23.054 23.291 23.054 23.279 23.015-23.279-23.015-23.291" fill="#fff"/>
  <path d="m106.08 298.03 5.7411-5.8298-40.302-40.752-5.7666 5.8286z" fill="#d11209"/>
  <path d="m88.805 298.03 23.015-23.305-23.015-23.278-23.054 23.278z" fill="#d11209"/>
  <path d="m59.986 298.03 5.7654-5.8298-40.313-40.752-5.7539 5.8286 40.302 40.754" fill="#fff"/>
  <path d="m42.737 298.03 23.014-23.305-23.014-23.278-23.053 23.278 23.053 23.305" fill="#fff"/>
  <path d="m42.737 251.45-23.053-23.279 23.053-23.291 23.014 23.291z" fill="#d11209"/>
  <path d="m71.518 251.45-5.7666-5.8298 40.327-40.74 5.7411 5.8298-40.302 40.74" fill="#fff"/>
  <path d="m88.805 251.45-23.054-23.279 23.054-23.291 23.015 23.291-23.015 23.279" fill="#fff"/>
  <path d="m198.21 204.88 5.766-5.8164-40.3-40.766-5.7672 5.8298z" fill="#d11209"/>
  <path d="m180.93 204.88 23.052-23.291-23.052-23.291-23.015 23.291z" fill="#d11209"/>
  <path d="m152.15 204.88 5.7672-5.8164-40.327-40.766-5.766 5.8298 40.326 40.752" fill="#fff"/>
  <path d="m134.86 204.88 23.053-23.291-23.053-23.291-23.04 23.291 23.04 23.291" fill="#fff"/>
  <path d="m106.08 204.88 5.7411-5.8164-40.302-40.766-5.7666 5.8298z" fill="#d11209"/>
  <path d="m88.805 204.88 23.015-23.291-23.015-23.291-23.054 23.291z" fill="#d11209"/>
  <path d="m59.986 204.88 5.7654-5.8164-40.313-40.766-5.7539 5.8298 40.302 40.752" fill="#fff"/>
  <path d="m42.737 204.88 23.014-23.291-23.014-23.291-23.053 23.291 23.053 23.291" fill="#fff"/>
  <path d="m117.59 251.45-5.766-5.8298 40.326-40.74 5.7672 5.8298z" fill="#d11209"/>
  <path d="m134.86 251.45-23.04-23.279 23.04-23.291 23.053 23.291z" fill="#d11209"/>
  <path d="m163.68 251.45-5.7672-5.8298 40.301-40.74 5.766 5.8298-40.3 40.74" fill="#fff"/>
  <path d="m180.93 251.45-23.015-23.279 23.015-23.291 23.052 23.291-23.052 23.279" fill="#fff"/>
  <path d="m198.21 298.03 5.766-5.8298-40.3-40.752-5.7672 5.8286z" fill="#d11209"/>
  <path d="m180.93 298.03 23.052-23.305-23.052-23.278-23.015 23.278z" fill="#d11209"/>
 </g>
 <g fill="#fff" fill-rule="evenodd">
  <path d="m152.15 298.03 5.7672-5.8298-40.327-40.752-5.766 5.8286 40.326 40.754"/>
  <path d="m134.86 298.03 23.053-23.305-23.053-23.278-23.04 23.278 23.04 23.305"/>
  <path d="m146.39 53.497v-24.001h-23.053v24.001z"/>
 </g>
 <g fill-rule="evenodd">
  <path d="m192.46 53.497v-24.001h-23.028v24.001z" fill="#d11209"/>
  <path d="m134.86 33.133-8.6362 8.7435 8.6362 8.7057 8.6496-8.7057-8.6496-8.7435" fill="#d11209"/>
  <path d="m180.93 33.133-8.6241 8.7435 8.6241 8.7057 8.6484-8.7057-8.6484-8.7435" fill="#fff"/>
  <path d="m192.46 100.08v-24.001h-23.028v24.001z" fill="#fff"/>
  <path d="m146.39 100.08v-24.001h-23.053v24.001z" fill="#d11209"/>
  <path d="m180.93 79.715 8.6484 8.7313-8.6484 8.7179-8.6241-8.7179 8.6241-8.7313" fill="#d11209"/>
  <path d="m134.86 79.715 8.6496 8.7313-8.6496 8.7179-8.6362-8.7179 8.6362-8.7313" fill="#fff"/>
  <path d="m54.232 146.66v-24.014h-23.028v24.014z" fill="#fff"/>
  <path d="m100.31 146.66v-24.014h-23.04v24.014z" fill="#d11209"/>
  <path d="m42.737 126.27-8.6502 8.7435 8.6502 8.7441 8.6113-8.7441-8.6113-8.7435" fill="#d11209"/>
  <path d="m88.805 126.27-8.6496 8.7435 8.6496 8.7441 8.6241-8.7441-8.6241-8.7435" fill="#fff"/>
  <path d="m146.39 146.66v-24.014h-23.053v24.014z" fill="#fff"/>
  <path d="m192.46 146.66v-24.014h-23.028v24.014z" fill="#d11209"/>
  <path d="m134.86 126.27-8.6362 8.7435 8.6362 8.7441 8.6496-8.7441-8.6496-8.7435" fill="#d11209"/>
  <path d="m180.93 126.27-8.6241 8.7435 8.6241 8.7441 8.6484-8.7441-8.6484-8.7435" fill="#fff"/>
  <path d="m100.31 100.08v-24.001h-23.04v24.001z" fill="#fff"/>
  <path d="m54.232 100.08v-24.001h-23.028v24.001z" fill="#d11209"/>
  <path d="m88.805 79.715 8.6241 8.7313-8.6241 8.7179-8.6496-8.7179 8.6496-8.7313" fill="#d11209"/>
  <path d="m42.737 79.715 8.6113 8.7313-8.6113 8.7179-8.6502-8.7179 8.6502-8.7313" fill="#fff"/>
  <path d="m54.232 53.497v-24.001h-23.028v24.001z" fill="#fff"/>
  <path d="m100.31 53.497v-24.001h-23.04v24.001z" fill="#d11209"/>
  <path d="m42.737 33.133-8.6502 8.7435 8.6502 8.7057 8.6113-8.7057-8.6113-8.7435" fill="#d11209"/>
  <path d="m88.805 33.133-8.6496 8.7435 8.6496 8.7057 8.6241-8.7057-8.6241-8.7435" fill="#fff"/>
  <path d="m100.31 287.09v-23.987h-23.04v23.987z" fill="#fff"/>
  <path d="m54.232 287.09v-23.987h-23.028v23.987z" fill="#d11209"/>
  <path d="m88.805 283.47 8.6241-8.7441-8.6241-8.7173-8.6496 8.7173 8.6496 8.7441" fill="#d11209"/>
  <path d="m42.737 283.47 8.6113-8.7441-8.6113-8.7173-8.6502 8.7173 8.6502 8.7441" fill="#fff"/>
  <path d="m100.31 240.54v-24.013h-23.04v24.013z" fill="#d11209"/>
  <path d="m88.805 236.9-8.6496-8.7307 8.6496-8.7429 8.6241 8.7429-8.6241 8.7307" fill="#fff"/>
  <path d="m192.46 193.95v-24.025h-23.028v24.025z" fill="#fff"/>
  <path d="m146.39 193.95v-24.025h-23.053v24.025z" fill="#d11209"/>
  <path d="m180.93 190.33 8.6484-8.7429-8.6484-8.7429-8.6241 8.7429 8.6241 8.7429" fill="#d11209"/>
  <path d="m134.86 190.33 8.6496-8.7429-8.6496-8.7429-8.6362 8.7429 8.6362 8.7429" fill="#fff"/>
  <path d="m100.31 193.95v-24.025h-23.04v24.025z" fill="#fff"/>
  <path d="m54.232 193.95v-24.025h-23.028v24.025z" fill="#d11209"/>
  <path d="m88.805 190.33 8.6241-8.7429-8.6241-8.7429-8.6496 8.7429 8.6496 8.7429" fill="#d11209"/>
  <path d="m42.737 190.33 8.6113-8.7429-8.6113-8.7429-8.6502 8.7429 8.6502 8.7429" fill="#fff"/>
  <path d="m146.39 240.54v-24.013h-23.053v24.013z" fill="#fff"/>
  <path d="m192.46 240.54v-24.013h-23.028v24.013z" fill="#d11209"/>
  <path d="m134.86 236.9-8.6362-8.7307 8.6362-8.7429 8.6496 8.7429-8.6496 8.7307" fill="#d11209"/>
  <path d="m180.93 236.9-8.6241-8.7307 8.6241-8.7429 8.6484 8.7429-8.6484 8.7307" fill="#fff"/>
  <path d="m192.46 287.09v-23.987h-23.028v23.987z" fill="#fff"/>
  <path d="m146.39 287.09v-23.987h-23.053v23.987z" fill="#d11209"/>
  <path d="m180.93 283.47 8.6484-8.7441-8.6484-8.7173-8.6241 8.7173 8.6241 8.7441" fill="#d11209"/>
  <path d="m134.86 283.47 8.6496-8.7441-8.6496-8.7173-8.6362 8.7173 8.6362 8.7441" fill="#fff"/>
  <path d="m25.438 251.45-5.7539-5.8298 40.302-40.74 5.7654 5.8298z" fill="#d11209"/>
  <path d="m54.232 240.54v-24.013h-23.028v24.013z" fill="#fff"/>
  <path d="m42.737 236.9-8.6502-8.7307 8.6502-8.7429 8.6113 8.7429-8.6113 8.7307" fill="#d11209"/>
 </g>
 <path d="m210.69 302.34h-196.38v-289.68h196.38z" fill="none" stroke="#d11209" stroke-linejoin="round" stroke-miterlimit="10" stroke-width="3.7346"/>
</svg>
