<svg width="225px" height="315px" version="1.1" viewBox="0 0 225 315" xmlns="http://www.w3.org/2000/svg">
 <path d="m11.719.46875h201.56c6.2148 0 11.25 5.0352 11.25 11.25v291.56c0 6.2148-5.0352 11.25-11.25 11.25h-201.56c-6.2148 0-11.25-5.0352-11.25-11.25v-291.56c0-6.2148 5.0352-11.25 11.25-11.25z" fill="#fff"/>
 <path d="m25.352 12.449h-10.352l-1.0508 10.352s.30078-2.5508 6.3008-2.5508c3 0 7.6484 3.6016 7.6484 9.6016s-2.25 10.199-8.25 10.199-7.0469-5.25-7.0469-5.25" fill="none" stroke="#000" stroke-linecap="square" stroke-miterlimit="1.5" stroke-width="2.4"/>
 <g>
  <path d="m20.879 61.621c.10547 4.9141 1.1484 5.2305 2.0898 7.3203h-5.4375c.94141-2.0898 1.9883-2.4062 2.0938-7.3203 0-.11328-.09375-.20703-.21094-.20703-.11719 0-.21094.09375-.21094.20703-.35547 1.9453-1.9727 3.4141-3.9453 3.582-1.9688.16797-3.8086-1.0039-4.4922-2.8594s-.04297-3.9414 1.5664-5.0898c1.6094-1.1523 3.7891-1.082 5.3242.16406.08594.0625.19922.05469.27344-.01953.07422-.07422.08203-.1875.01953-.27344-1.9297-1.0508-2.9023-3.2773-2.3594-5.4102.54297-2.1328 2.4609-3.625 4.6602-3.625s4.1172 1.4922 4.6602 3.625c.54297 2.1328-.42578 4.3594-2.3594 5.4102-.0625.08594-.05469.19922.01953.27344.07422.07422.19141.08203.27344.01953 1.5352-1.2461 3.7148-1.3164 5.3242-.16406 1.6094 1.1484 2.25 3.2344 1.5703 5.0898-.68359 1.8555-2.5273 3.0273-4.4961 2.8594-1.9727-.16797-3.5859-1.6367-3.9453-3.582 0-.11328-.09375-.20703-.21094-.20703-.11328 0-.20703.09375-.20703.20703z"/>
  <path d="m64.922 71.402c.27344 12.852 3.0078 13.672 5.4688 19.141h-14.219c2.4609-5.4688 5.1953-6.2891 5.4688-19.141 0-.30078-.24609-.54688-.54688-.54688-.30469 0-.54688.24609-.54688.54688-.9375 5.0859-5.1641 8.918-10.316 9.3594-5.1562.44141-9.9688-2.6211-11.754-7.4766-1.7891-4.8516-.10937-10.305 4.0977-13.312 4.2109-3.0039 9.9102-2.8281 13.926.4375.21484.16406.51953.14062.71484-.05078.19141-.19141.21484-.49609.05078-.71484-5.0508-2.75-7.5938-8.5781-6.1758-14.152 1.4219-5.5703 6.4375-9.4727 12.191-9.4727 5.75 0 10.77 3.9023 12.188 9.4727 1.418 5.5742-1.1211 11.402-6.1719 14.152-.16406.21875-.14062.52344.05078.71484.19141.19141.49609.21484.71484.05078 4.0117-3.2656 9.7109-3.4414 13.922-.4375 4.2109 3.0078 5.8906 8.4609 4.1016 13.312-1.7891 4.8555-6.6016 7.918-11.754 7.4766-5.1562-.44141-9.3789-4.2734-10.316-9.3594 0-.30078-.24609-.54688-.54688-.54688-.30469 0-.54688.24609-.54688.54688z"/>
  <path d="m163.36 71.402c.27344 12.852 3.0078 13.672 5.4688 19.141h-14.219c2.4609-5.4688 5.1953-6.2891 5.4688-19.141 0-.30078-.24218-.54688-.54687-.54688-.30078 0-.54688.24609-.54688.54688-.9375 5.0859-5.1602 8.918-10.316 9.3594-5.1524.44141-9.9648-2.6211-11.754-7.4766-1.7891-4.8516-.10937-10.305 4.1016-13.312 4.2109-3.0039 9.9102-2.8281 13.922.4375.21875.16406.52344.14062.71484-.05078.19141-.19141.21485-.49609.0508-.71484-5.0508-2.75-7.5898-8.5781-6.1719-14.152 1.418-5.5703 6.4375-9.4727 12.188-9.4727 5.7539 0 10.77 3.9023 12.191 9.4727 1.418 5.5742-1.125 11.402-6.1758 14.152-.16406.21875-.14062.52344.0508.71484.19531.19141.5.21484.71484.05078 4.0156-3.2656 9.7148-3.4414 13.926-.4375 4.207 3.0078 5.8867 8.4609 4.0977 13.312-1.7852 4.8555-6.5977 7.918-11.754 7.4766-5.1523-.44141-9.3789-4.2734-10.316-9.3594 0-.30078-.24218-.54688-.54687-.54688-.30078 0-.54688.24609-.54688.54688z"/>
  <path d="m114.14 165.7c.27343 12.852 3.0078 13.672 5.4688 19.141h-14.219c2.4609-5.4688 5.1953-6.2891 5.4688-19.141 0-.30078-.2461-.54687-.54688-.54687s-.54687.24609-.54687.54687c-.9375 5.0859-5.1641 8.918-10.316 9.3594-5.1562.44141-9.9688-2.6211-11.754-7.4766-1.7891-4.8516-.10937-10.305 4.1016-13.309 4.207-3.0078 9.9102-2.832 13.922.4336.21875.16406.52344.14062.71484-.0508.19141-.19141.21485-.4961.0508-.71485-5.0508-2.75-7.5938-8.5781-6.1719-14.148 1.418-5.5742 6.4375-9.4766 12.188-9.4766s10.77 3.9024 12.188 9.4766c1.4219 5.5703-1.1211 11.398-6.1719 14.148-.16407.21875-.14063.52344.0508.71485.1914.1914.49609.21484.71484.0508 4.0117-3.2656 9.7148-3.4414 13.922-.4336 4.2109 3.0039 5.8906 8.457 4.1016 13.309-1.7852 4.8555-6.5977 7.918-11.754 7.4766-5.1523-.44141-9.3789-4.2734-10.316-9.3594 0-.30078-.2461-.54687-.54688-.54687s-.54687.24609-.54687.54687z"/>
 </g>
 <path d="m199.65 302.55h10.352l1.0508-10.352s-.30078 2.5508-6.3008 2.5508c-3 0-7.6484-3.6016-7.6484-9.6016s2.25-10.199 8.25-10.199 7.0469 5.25 7.0469 5.25" fill="none" stroke="#000" stroke-linecap="square" stroke-miterlimit="1.5" stroke-width="2.4"/>
 <g>
  <path d="m204.12 253.38c-.10547-4.9141-1.1484-5.2305-2.0898-7.3203h5.4375c-.94141 2.0898-1.9883 2.4062-2.0938 7.3203 0 .11328.0937.20703.21094.20703.11718 0 .21093-.0937.21093-.20703.35547-1.9453 1.9727-3.4141 3.9453-3.582 1.9688-.16796 3.8086 1.0039 4.4922 2.8594.6836 1.8555.043 3.9414-1.5664 5.0898-1.6094 1.1524-3.7891 1.082-5.3242-.16406-.0859-.0625-.19922-.0547-.27344.0195-.0742.0742-.082.1875-.0195.27344 1.9297 1.0508 2.9023 3.2773 2.3594 5.4102-.54297 2.1328-2.4609 3.625-4.6602 3.625s-4.1172-1.4922-4.6602-3.625c-.54297-2.1328.42578-4.3594 2.3594-5.4102.0625-.0859.0547-.19922-.0195-.27344-.0742-.0742-.19141-.082-.27344-.0195-1.5352 1.2461-3.7148 1.3164-5.3242.16406-1.6094-1.1484-2.25-3.2344-1.5703-5.0898.68359-1.8555 2.5273-3.0273 4.4961-2.8594 1.9727.16797 3.5859 1.6367 3.9453 3.582 0 .11328.0937.20703.21094.20703.11328 0 .20703-.0937.20703-.20703z"/>
  <path d="m160.08 243.6c-.27343-12.852-3.0078-13.672-5.4688-19.141h14.219c-2.4609 5.4688-5.1953 6.2891-5.4688 19.141 0 .30078.2461.54687.54688.54687.30469 0 .54687-.24609.54687-.54687.9375-5.0859 5.1641-8.918 10.316-9.3594 5.1562-.44141 9.9688 2.6211 11.754 7.4766 1.7891 4.8516.10937 10.305-4.0977 13.312-4.2109 3.0039-9.9102 2.8281-13.926-.4375-.21484-.16406-.51953-.14062-.71484.0508-.19141.19141-.21485.4961-.0508.71485 5.0508 2.75 7.5938 8.5781 6.1758 14.152-1.4219 5.5703-6.4375 9.4727-12.191 9.4727-5.75 0-10.77-3.9024-12.188-9.4727-1.418-5.5742 1.1211-11.402 6.1719-14.152.16407-.21875.14063-.52344-.0508-.71485-.1914-.1914-.49609-.21484-.71484-.0508-4.0117 3.2656-9.7109 3.4414-13.922.4375-4.2109-3.0078-5.8906-8.4609-4.1016-13.312 1.7891-4.8555 6.6016-7.918 11.754-7.4766 5.1562.44141 9.3789 4.2734 10.316 9.3594 0 .30078.2461.54687.54688.54687.30469 0 .54687-.24609.54687-.54687z"/>
  <path d="m61.641 243.6c-.27344-12.852-3.0078-13.672-5.4688-19.141h14.219c-2.4609 5.4688-5.1953 6.2891-5.4688 19.141 0 .30078.24219.54687.54688.54687.30078 0 .54688-.24609.54688-.54687.9375-5.0859 5.1602-8.918 10.316-9.3594 5.1523-.44141 9.9648 2.6211 11.754 7.4766 1.7891 4.8516.10937 10.305-4.1016 13.312-4.2109 3.0039-9.9102 2.8281-13.922-.4375-.21875-.16406-.52344-.14062-.71484.0508-.19141.19141-.21484.4961-.05078.71485 5.0508 2.75 7.5898 8.5781 6.1719 14.152-1.418 5.5703-6.4375 9.4727-12.188 9.4727-5.7539 0-10.77-3.9024-12.191-9.4727-1.418-5.5742 1.125-11.402 6.1758-14.152.16406-.21875.14062-.52344-.05078-.71485-.19531-.1914-.5-.21484-.71484-.0508-4.0156 3.2656-9.7148 3.4414-13.926.4375-4.207-3.0078-5.8867-8.4609-4.0977-13.312 1.7852-4.8555 6.5977-7.918 11.754-7.4766 5.1523.44141 9.3789 4.2734 10.316 9.3594 0 .30078.24219.54687.54688.54687.30078 0 .54688-.24609.54688-.54687z"/>
 </g>
</svg>
