<svg width="225px" height="315px" version="1.1" viewBox="0 0 225 315" xmlns="http://www.w3.org/2000/svg">
 <g>
  <path d="m11.719.46875h201.56c6.2148 0 11.25 5.0352 11.25 11.25v291.56c0 6.2148-5.0352 11.25-11.25 11.25h-201.56c-6.2148 0-11.25-5.0352-11.25-11.25v-291.56c0-6.2148 5.0352-11.25 11.25-11.25z" fill="#fff"/>
  <path d="m72.793 132.96c-1.4961 0-2.9375.22656-4.293.65625-.05469 3.3984-.06641 6.7695-.03906 10.117-3.5977.40625-7.0391 1.1875-10.363 2.2812-.10938.73829-.16016 1.4766-.16016 2.2266 0 2.3672.52344 4.6094 1.4727 6.5781 10.188-2.668 17.52-2.75 27.086-.73437.75-1.793 1.1523-3.7695 1.1523-5.8438 0-1.1524-.125-2.2734-.37109-3.3359-3.3945-.76953-6.6445-1.2344-9.7734-1.418-.13672-3.3125-.32812-6.6172-.55859-9.9141-1.3086-.39844-2.707-.61328-4.1523-.61328zm-.10547 8.0352c.98438 0 1.7812.82032 1.7812 1.832 0 1.0156-.79688 1.8359-1.7812 1.8359s-1.7852-.82031-1.7852-1.8359c0-1.0117.80078-1.832 1.7852-1.832zm-5.9414 5.5c.98438 0 1.7812.82422 1.7812 1.8359s-.79688 1.832-1.7812 1.832c-.98828 0-1.7852-.82031-1.7852-1.832s.79687-1.8359 1.7852-1.8359zm11.883 0c.98438 0 1.7812.82422 1.7812 1.8359s-.79688 1.832-1.7812 1.832-1.7812-.82031-1.7812-1.832.79688-1.8359 1.7812-1.8359zm-9.4805-13.055v-.0859c0-1.8555 1.6328-3.3633 3.6445-3.3633s3.6406 1.5078 3.6406 3.3633v.0898m-5.1328-3.0898c-.37891-1.7422-1.6562-6.3594-4.5547-5.8633-2.8477.48828-4.9492 7.2148-2.3789 8.5586 2.0156 1.0508 1.9141-5.7305 4.1602-5.5039 1.1094.11328 1.6133 2.6289 1.7461 3.4297m3.7148-.79297c.17578-3.1953.67188-6.3281 1.668-9.3594l-2.9688-3.668-2.9727 3.668c1.0039 3.0547 1.5 6.2109 1.6758 9.4297m3.7383.54687c.17188-.94141.67969-3.1445 1.7188-3.2539 2.2461-.22657 2.1445 6.5547 4.1562 5.5039 2.5742-1.3438.46875-8.0703-2.375-8.5586-2.8516-.48828-4.1367 3.9726-4.5352 5.7773m43.402 23.066c2.0156-4.9024-1.4062-7.3477-4.9961-7.4219-3.5898.0742-7.0117 2.5195-4.9961 7.4219-5.3516-4.2227-7.7734.27343-7.8008 4.1641.02734 3.8906 2.4492 8.3867 7.8008 4.1641-2.0156 4.9024 1.4062 7.3477 4.9961 7.4219 3.5898-.0742 7.0117-2.5195 4.9961-7.4219 5.3516 4.2227 7.7734-.27344 7.8008-4.1641-.0273-3.8906-2.4492-8.3867-7.8008-4.1641zm-7.9297-6.7734c-.15235-.96094-.3086-1.918-.46485-2.8711.15625.95312.31641 1.9102.46875 2.8711zm14.785 6.0859 6.7148-.0508c.0898-13.391 2.1641-26.508 9.2969-38.992l-19.469 9.6211-18.359-8.4961c-1.1602-3.6094-2.4531-7.0664-3.9219-10.352l-4.0977-.31641c4.9102 10.273 7.9922 22.723 10.441 36.605-3.5898-10.234-9.1133-17.949-16.164-23.297-6.7852-5.1484-14.84-8.0625-23.617-9.3398-1.957.94922-3.9453 2.0117-5.9102 3.1445 21.629 1.3047 38.188 11.719 44.301 37.695 7.1523-4.8203 16.188-4.3711 20.785 3.7774zm-16.633-16.762c.0156.082.0312.16015.0469.24219-.0156-.082-.0312-.16016-.0469-.24219zm.39844 2.1289c.0234.125.043.25.0664.3711-.0234-.1211-.043-.2461-.0664-.3711zm.32031 1.7891c.0391.23437.082.47265.125.70703-.043-.23438-.0859-.47266-.125-.70703zm.20313 1.1719c.14453.84375.28906 1.6914.42968 2.5391-.14062-.85156-.28515-1.6953-.42968-2.5391zm70.996 23.238c.7539.57813 1.1992 1.4883 1.1992 2.4531 0 1.6875-1.3281 3.0586-2.9688 3.0586-1.6445 0-2.9727-1.3711-2.9727-3.0586 0-1.1797.66016-2.2539 1.6953-2.7617m8.4062-2.1289c0 1.3516-2.5273 2.4453-5.6445 2.4453s-5.6445-1.0938-5.6445-2.4453c0-1.3476 2.5273-2.4453 5.6445-2.4453s5.6445 1.0977 5.6445 2.4453zm-18.422-21.391c0-2.4453 4.7539-4 4.7539 0 0 .91015-1.1875.91797-1.1875 0 0-.61328-1.1797-.62891-1.1875.60937-.0312 4.2774 7.7227-1.2226 8.9141-2.4453 1.1875 1.2227 8.9414 6.7227 8.9102 2.4453-.008-1.2383-1.1875-1.2226-1.1875-.60937 0 .91797-1.1875.91015-1.1875 0 0-4 4.7539-2.4453 4.7539 0 0 6.1094-10.102 3.3711-11.289 1.832-1.1914 1.5391-11.293 4.2773-11.293-1.832zm-17.051-39.258-4.4141-.0703-24.34 12.055-19.828-9.2148c-.5.18359-1.1914.30078-2.1094.42187l1.0898 3.1641 20.898 9.6719 25.992-12.891c.87109-1.0703 1.7656-2.1055 2.7109-3.1367zm-74.945-65.879c5.4102 8.3008 8.9062 14.168 11.547 19.555 22.262-2.9023 40.469-2.3477 58.34.15625 2.1328-4.7461 5.4805-10.5 11.957-19.711zm56.492 117.36h-6.9219l.73828 1.8359h6.0859zm-30.223 0h-7.0547l-.01172 1.8359h6.2227z" fill="#ffcc42"/>
  <path d="m152.21 182.04c1.4961 0 2.9375-.22656 4.293-.65625.0547-3.3984.0664-6.7695.0391-10.117 3.5977-.40625 7.0391-1.1875 10.363-2.2812.10938-.73828.16016-1.4766.16016-2.2266 0-2.3672-.52344-4.6094-1.4727-6.5781-10.188 2.668-17.52 2.75-27.086.73437-.75 1.793-1.1524 3.7695-1.1524 5.8438 0 1.1524.125 2.2734.3711 3.3359 3.3945.76953 6.6445 1.2344 9.7734 1.418.13672 3.3125.32813 6.6172.5586 9.9141 1.3086.39844 2.707.61328 4.1523.61328zm.10547-8.0352c-.98438 0-1.7812-.82032-1.7812-1.832 0-1.0156.79687-1.8359 1.7812-1.8359.98437 0 1.7852.82031 1.7852 1.8359 0 1.0117-.80079 1.832-1.7852 1.832zm5.9414-5.5c-.98438 0-1.7812-.82422-1.7812-1.8359s.79687-1.832 1.7812-1.832c.98828 0 1.7852.82031 1.7852 1.832s-.79687 1.8359-1.7852 1.8359zm-11.883 0c-.98437 0-1.7812-.82422-1.7812-1.8359s.79688-1.832 1.7812-1.832c.98438 0 1.7812.82031 1.7812 1.832s-.79687 1.8359-1.7812 1.8359zm9.4805 13.055v.0859c0 1.8555-1.6328 3.3633-3.6445 3.3633s-3.6406-1.5078-3.6406-3.3633v-.0898m5.1328 3.0898c.3789 1.7422 1.6562 6.3594 4.5547 5.8633 2.8476-.48828 4.9492-7.2148 2.3789-8.5586-2.0156-1.0508-1.9141 5.7305-4.1602 5.5039-1.1094-.11328-1.6133-2.6289-1.7461-3.4297m-3.7148.79297c-.17578 3.1953-.67188 6.3281-1.668 9.3594l2.9688 3.668 2.9727-3.668c-1.0039-3.0547-1.5-6.2109-1.6758-9.4297m-3.7383-.54687c-.17187.9414-.67968 3.1445-1.7188 3.2539-2.2461.22657-2.1445-6.5547-4.1562-5.5039-2.5742 1.3438-.46875 8.0703 2.375 8.5586 2.8516.48828 4.1367-3.9726 4.5352-5.7773m-43.402-23.066c-2.0156 4.9024 1.4062 7.3477 4.9961 7.4219 3.5898-.0742 7.0117-2.5195 4.9961-7.4219 5.3516 4.2227 7.7734-.27344 7.8008-4.1641-.0273-3.8906-2.4492-8.3867-7.8008-4.1641 2.0156-4.9024-1.4062-7.3477-4.9961-7.4219-3.5898.0742-7.0117 2.5195-4.9961 7.4219-5.3516-4.2227-7.7734.27343-7.8008 4.1641.02734 3.8906 2.4492 8.3867 7.8008 4.1641zm7.9297 6.7734c.15235.96094.3086 1.918.46485 2.8711-.15625-.95312-.31641-1.9102-.46875-2.8711zm-14.785-6.0859-6.7148.0508c-.08984 13.391-2.1641 26.508-9.2969 38.992l19.469-9.6211 18.359 8.4961c1.1602 3.6094 2.4531 7.0664 3.9219 10.352l4.0976.31641c-4.9102-10.273-7.9922-22.723-10.441-36.605 3.5898 10.234 9.1133 17.949 16.164 23.297 6.7852 5.1484 14.84 8.0625 23.617 9.3398 1.957-.94922 3.9453-2.0117 5.9102-3.1445-21.629-1.3047-38.187-11.719-44.301-37.695-7.1523 4.8203-16.188 4.3711-20.785-3.7774zm16.633 16.762c-.0156-.082-.0312-.16016-.0469-.24219.0156.082.0312.16016.0469.24219zm-.39844-2.1289c-.0234-.125-.043-.25-.0664-.37109.0234.12109.043.24609.0664.37109zm-.32031-1.7891c-.0391-.23437-.082-.47265-.125-.70703.043.23438.0859.47266.125.70703zm-.20312-1.1719c-.14454-.84375-.28907-1.6914-.42969-2.5391.14062.85157.28515 1.6953.42969 2.5391zm-70.996-23.238c-.75391-.57813-1.1992-1.4883-1.1992-2.4531 0-1.6875 1.3281-3.0586 2.9688-3.0586 1.6445 0 2.9727 1.3711 2.9727 3.0586 0 1.1797-.66016 2.2539-1.6953 2.7617m-8.4062 2.1289c0-1.3516 2.5273-2.4453 5.6445-2.4453 3.1172 0 5.6445 1.0938 5.6445 2.4453 0 1.3476-2.5273 2.4453-5.6445 2.4453-3.1172 0-5.6445-1.0977-5.6445-2.4453zm18.422 21.391c0 2.4453-4.7539 4-4.7539 0 0-.91016 1.1875-.91797 1.1875 0 0 .61328 1.1797.62891 1.1875-.60937.03125-4.2774-7.7227 1.2226-8.9141 2.4453-1.1875-1.2227-8.9414-6.7227-8.9102-2.4453.0078 1.2383 1.1875 1.2226 1.1875.60937 0-.91797 1.1875-.91016 1.1875 0 0 4-4.7539 2.4453-4.7539 0 0-6.1094 10.102-3.3711 11.289-1.832 1.1914-1.5391 11.293-4.2773 11.293 1.832zm17.051 39.258 4.4141.0703 24.34-12.055 19.828 9.2148c.5-.18359 1.1914-.30078 2.1094-.42187l-1.0898-3.1641-20.898-9.6719-25.992 12.891c-.87109 1.0703-1.7656 2.1055-2.7109 3.1367zm74.945 65.879c-5.4102-8.3008-8.9062-14.168-11.547-19.555-22.262 2.9024-40.469 2.3477-58.34-.15625-2.1328 4.7461-5.4805 10.5-11.957 19.711zm-56.492-117.36h6.9219l-.73828-1.8359h-6.0859zm30.223 0h7.0547l.0117-1.8359h-6.2227z" fill="#ffcc42"/>
  <path d="m74.469 137.33c0 1.0117-.79688 1.8359-1.7812 1.8359s-1.7852-.82422-1.7852-1.8359c0-1.0117.80078-1.832 1.7852-1.832s1.7812.82032 1.7812 1.832zm0 11.004c0 1.0117-.79688 1.832-1.7812 1.832s-1.7852-.82031-1.7852-1.832.80078-1.8359 1.7852-1.8359 1.7812.82422 1.7812 1.8359zm-11.289 1.2227c0 1.0117-.80078 1.832-1.7852 1.832s-1.7812-.82031-1.7812-1.832c0-1.0156.79688-1.8359 1.7812-1.8359s1.7852.82031 1.7852 1.8359zm22.578-.61328c0 1.0156-.79687 1.8359-1.7812 1.8359-.98437 0-1.7812-.82031-1.7812-1.8359 0-1.0117.79688-1.832 1.7812-1.832.98438 0 1.7812.82032 1.7812 1.832zm-33.891 1.8711c.90625.45703 1.8828 1.0586 2.7578 1.8242l3.9414-.004c-.41016-1.375-.62891-2.8555-.62891-4.3906 0-7.1328 4.7461-13.121 11.172-14.809l.03906.008v-.0859c0-.95703.43359-1.8164 1.125-2.4062-.13281-.77344-.63672-3.2891-1.7461-3.4023-2.2461-.22657-2.1445 6.5547-4.1602 5.5039-2.5703-1.3438-.46875-8.0703 2.3789-8.5586 2.8984-.4961 4.1758 4.1211 4.5547 5.8633l.08984-.10156c-.17578-3.2188-.67188-6.375-1.6758-9.4297l2.9727-3.668 2.9688 3.668c-.99609 3.0312-1.4922 6.1641-1.668 9.3594l.10547.0859c.39844-1.8047 1.6836-6.2656 4.5352-5.7773 2.8438.48828 4.9492 7.2148 2.375 8.5586-2.0117 1.0508-1.9102-5.7305-4.1562-5.5039-1.0391.10937-1.5469 2.3125-1.75 3.2187.80078.57813 1.3359 1.5274 1.3359 2.5898 0 0 0 .0625.03906.0898 6.4453 1.6992 11.176 7.6797 11.176 14.797 0 1.5039-.21094 2.957-.61719 4.3476l2.9219.0195-.0039-29.504c-7.9727-7.5859-18.531-11.195-30.672-11.938-2.5195 1.457-5 3.0352-7.4062 4.6992l.01563 34.297zm54.699 6.6875c0 1.3516-1.0625 2.4453-2.375 2.4453-1.3164 0-2.3789-1.0938-2.3789-2.4453s1.0625-2.4453 2.3789-2.4453c1.3125 0 2.375 1.0938 2.375 2.4453zm8.3086-6.8242c0 1.3477-1.0625 2.4453-2.375 2.4453s-2.375-1.0976-2.375-2.4453c0-1.3516 1.0625-2.4453 2.375-2.4453s2.375 1.0938 2.375 2.4453zm-21.121 3.7031c.10938 2.0312.13281 4.1758.13672 6.2109l6.3555-.043c-.35937-.94921-.53515-2.0195-.54296-3.0469.0078-1.0547.19141-2.1523.5625-3.1094m47.828-2.3203c-4.8594 1.4492-8.6719 5.3398-10.156 10.305l-4.5664.0156c-1.1055-21.43.84375-41.82 18.25-60.477l11.402 4.2969c-12.715 14.426-15.598 29.551-14.93 45.859zm-9.543-51.312 6.5586.30078-24.34 12.055-19.875-9.2031c.57031-.17969.9961-.4375 1.4336-.82422 2.4453 3.0703 6.0117.625 6.0117-2.4336 1.1875 3.668 1.7852 4.8906 4.707 5.375 3.3672-.14062 6.6875-.35156 9.2422-1.7617 1.9024.85156 4.0039.625 5.0195-.49219 3.5195.57422 7.6836-1.4648 8.3047-2.8984.99219.15625 2.0273.12891 2.9375-.11719zm-57.535-55.262c1.2969.91797 2.7344 1.7227 4.3242 2.1016.39062 1.2969.82422 2.8164 1.7148 4.4922.44531.83203 1.0312 1.6445 1.6758 2.4023 6.6641-.80859 13.043-1.3008 19.172-1.5039 1.3047-1.7656 2.2695-3.9297 2.7383-6.4414 1.1328-.53125 2.125-1.2773 2.9258-2.1484.7539.91797 1.7031 1.7227 2.8047 2.3281.30079 2.3398 1.0469 4.4141 2.0312 6.168 7.4297.12109 14.602.67188 21.656 1.5742.125-.125.25782-.27734.39063-.43359 1.6055-1.9023 2.5-4.4258 2.7305-7.3555 3.1406-.6875 5.4922-1.6133 7.2852-2.5625-4.4453 7.0078-6.4297 11.383-7.9023 15.637-16.695-2.2383-33.641-2.7266-54.312-.27344-1.8672-4.418-4.0547-8.6562-7.2344-13.984z" fill="#f00"/>
  <path d="m150.53 177.67c0-1.0117.79687-1.8359 1.7812-1.8359.98437 0 1.7852.82422 1.7852 1.8359 0 1.0117-.80079 1.832-1.7852 1.832-.98438 0-1.7812-.82032-1.7812-1.832zm0-11.004c0-1.0117.79687-1.832 1.7812-1.832.98437 0 1.7852.82031 1.7852 1.832s-.80079 1.8359-1.7852 1.8359c-.98438 0-1.7812-.82422-1.7812-1.8359zm11.289-1.2227c0-1.0117.80078-1.832 1.7852-1.832.98437 0 1.7812.82031 1.7812 1.832 0 1.0156-.79688 1.8359-1.7812 1.8359-.98438 0-1.7852-.82031-1.7852-1.8359zm-22.578.61328c0-1.0156.79687-1.8359 1.7812-1.8359.98437 0 1.7812.82031 1.7812 1.8359 0 1.0117-.79688 1.832-1.7812 1.832-.98438 0-1.7812-.82031-1.7812-1.832zm33.891-1.8711c-.90625-.45703-1.8828-1.0586-2.7578-1.8242l-3.9414.004c.41016 1.375.62891 2.8555.62891 4.3906 0 7.1328-4.7461 13.121-11.172 14.809l-.0391-.008v.0859c0 .95703-.43359 1.8164-1.125 2.4062.13281.77344.63672 3.2891 1.7461 3.4023 2.2461.22657 2.1445-6.5547 4.1602-5.5039 2.5703 1.3438.46875 8.0703-2.3789 8.5586-2.8984.4961-4.1758-4.1211-4.5547-5.8633l-.0898.10156c.17579 3.2188.67188 6.375 1.6758 9.4297l-2.9727 3.668-2.9688-3.668c.99609-3.0312 1.4922-6.1641 1.668-9.3594l-.10547-.0859c-.39844 1.8047-1.6836 6.2656-4.5352 5.7773-2.8438-.48828-4.9492-7.2148-2.375-8.5586 2.0117-1.0508 1.9102 5.7305 4.1562 5.5039 1.0391-.10937 1.5469-2.3125 1.75-3.2188-.80078-.57812-1.3359-1.5273-1.3359-2.5898 0 0 0-.0625-.0391-.0898-6.4453-1.6992-11.176-7.6797-11.176-14.797 0-1.5039.21094-2.957.61719-4.3476l-2.9219-.0195.004 29.504c7.9727 7.5859 18.531 11.195 30.672 11.938 2.5195-1.457 5-3.0352 7.4062-4.6992l-.0156-34.297zm-54.699-6.6875c0-1.3516 1.0625-2.4453 2.375-2.4453 1.3164 0 2.3789 1.0938 2.3789 2.4453s-1.0625 2.4453-2.3789 2.4453c-1.3125 0-2.375-1.0938-2.375-2.4453zm-8.3086 6.8242c0-1.3477 1.0625-2.4453 2.375-2.4453s2.375 1.0976 2.375 2.4453c0 1.3516-1.0625 2.4453-2.375 2.4453s-2.375-1.0938-2.375-2.4453zm21.121-3.7031c-.10937-2.0312-.13281-4.1758-.13672-6.2109l-6.3555.043c.35937.94922.53515 2.0195.54297 3.0469-.008 1.0547-.19141 2.1523-.5625 3.1094m-47.828 2.3203c4.8594-1.4492 8.6719-5.3398 10.156-10.305l4.5664-.0156c1.1055 21.43-.84375 41.82-18.25 60.477l-11.402-4.297c12.715-14.426 15.598-29.551 14.93-45.859zm9.543 51.312-6.5586-.30078 24.34-12.055 19.875 9.2031c-.57031.17969-.99609.4375-1.4336.82422-2.4453-3.0703-6.0117-.625-6.0117 2.4336-1.1875-3.668-1.7852-4.8906-4.707-5.375-3.3672.14062-6.6875.35156-9.2422 1.7617-1.9024-.85156-4.0039-.625-5.0195.49219-3.5195-.57422-7.6836 1.4648-8.3047 2.8984-.99219-.15625-2.0273-.12891-2.9375.11719zm57.535 55.262c-1.2969-.91797-2.7344-1.7227-4.3242-2.1016-.39063-1.2969-.82422-2.8164-1.7148-4.4922-.44531-.83204-1.0312-1.6445-1.6758-2.4024-6.6641.8086-13.043 1.3008-19.172 1.5039-1.3047 1.7656-2.2695 3.9297-2.7383 6.4414-1.1328.53125-2.125 1.2774-2.9258 2.1484-.7539-.91797-1.7031-1.7226-2.8047-2.3281-.30078-2.3398-1.0469-4.4141-2.0312-6.168-7.4297-.1211-14.602-.67188-21.656-1.5742-.125.125-.25781.27734-.39062.43359-1.6055 1.9024-2.5 4.4258-2.7305 7.3555-3.1406.6875-5.4922 1.6133-7.2852 2.5625 4.4453-7.0078 6.4297-11.383 7.9023-15.637 16.695 2.2383 33.641 2.7266 54.312.27344 1.8672 4.418 4.0547 8.6562 7.2344 13.984z" fill="#f00"/>
  <path d="m177.87 51.754c-.008 1.8711.20312 4.1289.20312 5.9609 0 1.8359-1.7852 7.5859-1.7852 9.4219 0 1.832 1.2461 5.5508 1.2461 7.9961 0 2.4453-1.9375 7.8359-1.9375 10.281 0 2.4453 1.8516 6.8828 1.8516 9.3281 0 2.4453-1.2578 5.5-1.2578 7.9453s1.6484 5.9453 1.6484 9c0 3.0586-2.2422 6.8359-2.2422 9.2773 0 2.4453 1.168 3.5703 1.168 6.625 0 2.8438-1.2109 9.8867-1.2774 12.82l2.4297-1.7812c.22656-3.4024.92969-8.7383.86719-11.113-.082-3.0547-1.2773-4.1445-1.3398-6.5898-.0664-2.4414 2.0742-6.2812 1.9922-9.3359-.082-3.0547-1.8203-6.5078-1.8828-8.9492-.0664-2.4453 1.1055-5.5352 1.043-7.9805-.0664-2.4453-2.0312-6.8281-2.0977-9.2734-.0625-2.4414 1.7305-7.8867 1.6641-10.332-.0625-2.4453-1.4062-6.125-1.457-7.957-.0469-1.832 1.582-7.6328 1.5312-9.4688-.0469-1.832-.3164-4.082-.36718-5.875zm-65.098 19.441c-.65625 0-1.1875.95703-1.1875 2.1406 0 1.1797.53125 2.1367 1.1875 2.1367s1.1875-.95703 1.1875-2.1367c0-1.1836-.53125-2.1406-1.1875-2.1406zm-17.832.63281c-.65625 0-1.1914.95703-1.1914 2.1406 0 1.1797.53516 2.1367 1.1914 2.1367s1.1875-.95703 1.1875-2.1367c0-1.1836-.53125-2.1406-1.1875-2.1406zm5.6797 14.766c-3.5664 1.2227-2.9727 3.0586-5.3516 3.668l-.0625.12109c1.7344-.0039 3.6289-2.3086 5.4141-2.5664zm5.9414 0v1.2227c3.8398 0 5.4336 2.6289 7.9961 2.5664l-.0937-.12109c-3.5118-.60938-1.711-3.0547-7.9024-3.668zm62.512 21.891c-13.094 13.746-15.871 27.281-15.105 43.102 5.9141.70312 10.785 5.0156 12.445 10.777l3.9766.0195c-2.0547-1.7656-3.8125-4.4648-3.8125-8.5508 0-7.9453 5.3476-9.168 6.5391-9.168 1.2734 0 2.3438.9336 3.0742 2.2148.42187-.63282 1.7148-1.3438 3.8594-1.8164 7.9297-1.7461 7.207 2.7539 2.4414 3.5508 4.3945-.42578 4.6172 1.875 2.3203 3.1914 2.5352.67968 1.5898 2.8789-1.2734 3.5976 3.7109.5 2.0352 3.793-2.0312 4.0312 2.0625.46094 3.4922 1.332 3.4922 2.3438 0 .22657-.0703.44141-.1914.62891l4.9453-.0117v-46.133l-6.5352-2.4648-.0156 28.227c1.9102.83593 3.5938.97265 3.5781-1.0274-.008-1.2383-1.1875-1.2226-1.1875-.60937 0 .91797-1.1875.91015-1.1875 0 0-4 4.7539-2.4453 4.7539 0 0 6.1094-10.102 3.3711-11.289 1.832-.5.64844-2.5781 1.5078-4.8164 1.832-.0312.004-.0664.008-.0977.0117-.13281.0195-.26953.0352-.40234.0508-2.9414.3125-5.9766-.37891-5.9766-3.7266 0-2.4453 4.7539-4 4.7539 0 0 .91015-1.1875.91797-1.1875 0 0-.61328-1.1797-.62891-1.1875.60937-.0156 1.9727 1.625 1.8672 3.5391 1.0469l.0234-32.316zm13.418 40.129c-.23437.0234-.47656.0547-.73437.0898.2539-.0195.5-.0508.73437-.0898zm-92.547-25.516-.03516 29.512 10.785.008 2.9336-3.7656c-2.6914-11.387-7.3984-19.789-13.684-25.754zm43.047.65234c-.65625 0-1.1914.54688-1.1914 1.2227 0 .67187.53516 1.2226 1.1914 1.2226s1.1875-.55078 1.1875-1.2226c0-.67578-.53125-1.2227-1.1875-1.2227zm-24.055 1.3555c-.65625 0-1.1875.54687-1.1875 1.2227 0 .67187.53125 1.2188 1.1875 1.2188s1.1914-.54688 1.1914-1.2188c0-.67579-.53516-1.2227-1.1914-1.2227zm5.7109.39844c-.65625 0-1.1914.54687-1.1914 1.2226s.53515 1.2227 1.1914 1.2227 1.1875-.54688 1.1875-1.2227-.53125-1.2226-1.1875-1.2226zm13.023.15234c-.65625 0-1.1875.54688-1.1875 1.2227s.53125 1.2226 1.1875 1.2226 1.1875-.54687 1.1875-1.2226-.53125-1.2227-1.1875-1.2227zm-9.1211 1.8555c-.65625 0-1.1914.54687-1.1914 1.2226 0 .67579.53516 1.2227 1.1914 1.2227s1.1875-.54687 1.1875-1.2227c0-.67578-.53125-1.2226-1.1875-1.2226zm5.3672.25c-.65625 0-1.1914.55078-1.1914 1.2226 0 .67579.53515 1.2227 1.1914 1.2227s1.1875-.54687 1.1875-1.2227c0-.67187-.53125-1.2226-1.1875-1.2226zm-82.426 1.9258c-.49219 0-.89062.41016-.89062.91797s.39844.91797.89062.91797c.49219 0 .89062-.41016.89062-.91797s-.39844-.91797-.89062-.91797zm51.105 1.2227c.82031 0 1.4844.68359 1.4844 1.5273s-.66406 1.5312-1.4844 1.5312-1.4844-.6875-1.4844-1.5312.66406-1.5273 1.4844-1.5273zm17.219.41796c-.65625 0-1.1875.54688-1.1875 1.2227 0 .67188.53125 1.2227 1.1875 1.2227s1.1875-.55078 1.1875-1.2227c0-.67578-.53125-1.2227-1.1875-1.2227zm18.395.35157c-.65625 0-1.1914.54687-1.1914 1.2226 0 .67188.53515 1.2188 1.1914 1.2188s1.1875-.54687 1.1875-1.2188c0-.67578-.53125-1.2226-1.1875-1.2226zm-13.273.0977c-.65625 0-1.1875.54688-1.1875 1.2227s.53125 1.2227 1.1875 1.2227 1.1914-.54688 1.1914-1.2227-.53516-1.2227-1.1914-1.2227zm-75.227.0508c-.49219 0-.89062.41016-.89062.91797 0 .50391.39844.91407.89062.91407.49219 0 .89062-.41016.89062-.91407 0-.50781-.39844-.91797-.89062-.91797zm4.1602.30469c-.49219 0-.89063.41016-.89063.91797 0 .50391.39844.91797.89063.91797.49219 0 .89062-.41406.89062-.91797 0-.50781-.39844-.91797-.89062-.91797zm-2.082 1.5274-2.9688 9.168 1.7812-1.832 1.1875 3.668.59375-3.668 1.1914 1.832zm77.055.125c-.65625 0-1.1914.54687-1.1914 1.2226s.53515 1.2227 1.1914 1.2227 1.1875-.54688 1.1875-1.2227-.53125-1.2226-1.1875-1.2226zm5.6094 0c-.65625 0-1.1875.54687-1.1875 1.2226s.53125 1.2227 1.1875 1.2227 1.1875-.54688 1.1875-1.2227-.53125-1.2226-1.1875-1.2226zm-44.438 1.1016c.12109 1.918.22656 3.8438.32422 5.7734 1.8945.19921 3.8281.49218 5.793.85937-1.3438-2.8164-3.4805-5.1211-6.1172-6.6328zm-14.512.05071c-2.8984 1.6758-5.1875 4.3203-6.4727 7.5508 2.0898-.55859 4.2461-1.0469 6.457-1.4102-.0039-2.0391.0039-4.082.01563-6.1406zm31.848 1.4727c.82031 0 1.4844.6875 1.4844 1.5312s-.66406 1.5273-1.4844 1.5273c-.82031 0-1.4844-.68359-1.4844-1.5273s.66406-1.5312 1.4844-1.5312zm13.098 1.5898c-.65625 0-1.1875.54687-1.1875 1.2227 0 .67578.53125 1.2226 1.1875 1.2226s1.1914-.54687 1.1914-1.2226c0-.67579-.53516-1.2227-1.1914-1.2227zm5.125.40234c-.65625 0-1.1875.54688-1.1875 1.2227s.53125 1.2227 1.1875 1.2227 1.1875-.54688 1.1875-1.2227-.53125-1.2227-1.1875-1.2227zm12.93.30078c-.65625 0-1.1914.54688-1.1914 1.2227s.53516 1.2227 1.1914 1.2227 1.1875-.54688 1.1875-1.2227-.53125-1.2227-1.1875-1.2227zm-9.0273 1.707c-.65625 0-1.1875.54687-1.1875 1.2226s.53125 1.2227 1.1875 1.2227 1.1875-.54688 1.1875-1.2227-.53125-1.2226-1.1875-1.2226zm5.2695.40234c-.65625 0-1.1875.54687-1.1875 1.2227 0 .67578.53125 1.2226 1.1875 1.2226s1.1875-.54687 1.1875-1.2226c0-.67579-.53125-1.2227-1.1875-1.2227zm-52.055.18359c-.98438 0-1.7852.82032-1.7852 1.832 0 1.0156.80078 1.8359 1.7852 1.8359s1.7812-.82031 1.7812-1.8359c0-1.0117-.79688-1.832-1.7812-1.832zm19.906.30469c.82031 0 1.4844.68359 1.4844 1.5273 0 .84766-.66406 1.5312-1.4844 1.5312s-1.4844-.68359-1.4844-1.5312c0-.84375.66406-1.5273 1.4844-1.5273zm-20.258.30078c.39453 0 .71484.33203.71484.74219s-.32031.74219-.71484.74219c-.39844 0-.71875-.33203-.71875-.74219s.32031-.74219.71875-.74219zm56.797 2.7734c-.65625 0-1.1875.54687-1.1875 1.2227 0 .67578.53125 1.2226 1.1875 1.2226s1.1875-.54687 1.1875-1.2226c0-.67579-.53125-1.2227-1.1875-1.2227zm-13.27.80078c-.46875 0-.89062.28125-1.082.71875l2.2656.58594c.004-.0273.004-.0547.004-.082 0-.67188-.53125-1.2227-1.1875-1.2227zm-16.734.71094c.82031 0 1.4883.68359 1.4883 1.5273s-.66797 1.5274-1.4883 1.5274c-.82031 0-1.4844-.6836-1.4844-1.5274s.66406-1.5273 1.4844-1.5273zm26.246.59765c-.65625 0-1.1875.54688-1.1875 1.2188 0 .67579.53125 1.2227 1.1875 1.2227s1.1914-.54687 1.1914-1.2227c0-.67187-.53516-1.2188-1.1914-1.2188zm-58.629.0117c-.98828 0-1.7852.82422-1.7852 1.8359s.79687 1.832 1.7852 1.832c.98438 0 1.7812-.82031 1.7812-1.832s-.79688-1.8359-1.7812-1.8359zm11.883 0c-.98438 0-1.7812.82422-1.7812 1.8359s.79688 1.832 1.7812 1.832 1.7812-.82031 1.7812-1.832-.79688-1.8359-1.7812-1.8359zm-.40234.60547c.39453 0 .71484.33203.71484.74219s-.32031.74219-.71484.74219c-.39844 0-.71875-.33203-.71875-.74219s.32031-.74219.71875-.74219zm-11.953.008c.39453 0 .71484.33204.71484.74219 0 .41016-.32031.74219-.71484.74219-.39844 0-.71875-.33203-.71875-.74219 0-.41015.32031-.74219.71875-.74219zm53.492.0742c-.23829 0-.47266.0742-.66797.21485l1.8359 1.2266c.0156-.0703.0195-.14453.0195-.21875 0-.67578-.53125-1.2227-1.1875-1.2227zm-45.82 8.5274c-4.0273.0312-8.0898.61718-12.91 1.8242 2.6875 3.6445 6.957 5.9883 11.758 5.9883 5.0781 0 9.5625-2.625 12.219-6.6289-3.9883-.80078-7.5156-1.2109-11.066-1.1836z" fill="#4242ff"/>
  <path d="m47.133 263.25c.0078-1.8711-.20312-4.1289-.20312-5.9609 0-1.8359 1.7852-7.5859 1.7852-9.4219 0-1.832-1.2461-5.5508-1.2461-7.9961 0-2.4453 1.9375-7.8359 1.9375-10.281 0-2.4453-1.8516-6.8828-1.8516-9.3281s1.2578-5.5 1.2578-7.9453-1.6484-5.9453-1.6484-9c0-3.0586 2.2422-6.8359 2.2422-9.2773 0-2.4453-1.168-3.5703-1.168-6.625 0-2.8438 1.2109-9.8867 1.2773-12.82l-2.4297 1.7812c-.22656 3.4024-.92969 8.7383-.86719 11.113.08203 3.0547 1.2773 4.1445 1.3398 6.5898.06641 2.4414-2.0742 6.2812-1.9922 9.3359.08203 3.0547 1.8203 6.5078 1.8828 8.9492.06641 2.4453-1.1055 5.5352-1.043 7.9805.06641 2.4453 2.0312 6.8281 2.0977 9.2734.0625 2.4414-1.7305 7.8867-1.6641 10.332.0625 2.4453 1.4062 6.125 1.457 7.957.04687 1.832-1.582 7.6328-1.5312 9.4688.04687 1.832.31641 4.082.36719 5.875zm65.098-19.441c.65625 0 1.1875-.95703 1.1875-2.1406 0-1.1797-.53125-2.1367-1.1875-2.1367s-1.1875.95703-1.1875 2.1367c0 1.1836.53125 2.1406 1.1875 2.1406zm17.832-.63282c.65625 0 1.1914-.95703 1.1914-2.1406 0-1.1797-.53516-2.1367-1.1914-2.1367s-1.1875.95703-1.1875 2.1367c0 1.1836.53125 2.1406 1.1875 2.1406zm-5.6797-14.766c3.5664-1.2227 2.9727-3.0586 5.3516-3.668l.0625-.12109c-1.7344.004-3.6289 2.3086-5.4141 2.5664zm-5.9414 0v-1.2227c-3.8398 0-5.4336-2.6289-7.9961-2.5664l.0937.12109c3.5117.60938 1.7109 3.0547 7.9024 3.668zm-62.512-21.891c13.094-13.746 15.871-27.281 15.105-43.102-5.9141-.70312-10.785-5.0156-12.445-10.777l-3.9766-.0195c2.0547 1.7656 3.8125 4.4648 3.8125 8.5508 0 7.9453-5.3477 9.168-6.5391 9.168-1.2734 0-2.3438-.9336-3.0742-2.2148-.42188.63282-1.7148 1.3438-3.8594 1.8164-7.9297 1.7461-7.207-2.7539-2.4414-3.5508-4.3945.42578-4.6172-1.875-2.3203-3.1914-2.5352-.67969-1.5898-2.8789 1.2734-3.5976-3.7109-.5-2.0352-3.793 2.0312-4.0312-2.0625-.46094-3.4922-1.332-3.4922-2.3438 0-.22657.07031-.44141.19141-.62891l-4.9453.01169v46.133l6.5352 2.4648.01563-28.227c-1.9102-.83594-3.5938-.97265-3.5781 1.0274.0078 1.2383 1.1875 1.2226 1.1875.60937 0-.91797 1.1875-.91016 1.1875 0 0 4-4.7539 2.4453-4.7539 0 0-6.1094 10.102-3.3711 11.289-1.832.5-.64844 2.5781-1.5078 4.8164-1.832.03125-.004.06641-.008.09766-.0117.13281-.0195.26953-.0352.40234-.0508 2.9414-.3125 5.9766.3789 5.9766 3.7266 0 2.4453-4.7539 4-4.7539 0 0-.91016 1.1875-.91797 1.1875 0 0 .61328 1.1797.62891 1.1875-.60937.01563-1.9727-1.625-1.8672-3.5391-1.0469l-.02344 32.316zm-13.418-40.129c.23438-.0234.47656-.0547.73438-.0898-.25391.0195-.5.0508-.73438.0898zm92.547 25.516.0352-29.512-10.785-.008-2.9336 3.7656c2.6914 11.387 7.3984 19.789 13.684 25.754zm-43.047-.65234c.65625 0 1.1914-.54688 1.1914-1.2227 0-.67187-.53516-1.2226-1.1914-1.2226s-1.1875.55078-1.1875 1.2226c0 .67578.53125 1.2227 1.1875 1.2227zm24.055-1.3555c.65625 0 1.1875-.54687 1.1875-1.2227 0-.67187-.53125-1.2188-1.1875-1.2188s-1.1914.54688-1.1914 1.2188c0 .67579.53516 1.2227 1.1914 1.2227zm-5.7109-.39844c.65625 0 1.1914-.54687 1.1914-1.2226s-.53516-1.2227-1.1914-1.2227-1.1875.54688-1.1875 1.2227.53125 1.2226 1.1875 1.2226zm-13.023-.15234c.65625 0 1.1875-.54688 1.1875-1.2227s-.53125-1.2226-1.1875-1.2226-1.1875.54687-1.1875 1.2226.53125 1.2227 1.1875 1.2227zm9.1211-1.8555c.65625 0 1.1914-.54687 1.1914-1.2227 0-.67578-.53515-1.2226-1.1914-1.2226s-1.1875.54687-1.1875 1.2226c0 .67579.53125 1.2227 1.1875 1.2227zm-5.3672-.25c.65625 0 1.1914-.55078 1.1914-1.2227 0-.67578-.53515-1.2226-1.1914-1.2226s-1.1875.54687-1.1875 1.2226c0 .67188.53125 1.2227 1.1875 1.2227zm82.426-1.9258c.49219 0 .89062-.41016.89062-.91797s-.39843-.91797-.89062-.91797-.89063.41016-.89063.91797.39844.91797.89063.91797zm-51.105-1.2227c-.82031 0-1.4844-.68359-1.4844-1.5273s.66407-1.5312 1.4844-1.5312 1.4844.6875 1.4844 1.5312-.66406 1.5273-1.4844 1.5273zm-17.219-.41797c.65625 0 1.1875-.54687 1.1875-1.2226 0-.67188-.53125-1.2227-1.1875-1.2227s-1.1875.55078-1.1875 1.2227c0 .67578.53125 1.2226 1.1875 1.2226zm-18.395-.35156c.65625 0 1.1914-.54687 1.1914-1.2226 0-.67188-.53516-1.2188-1.1914-1.2188s-1.1875.54687-1.1875 1.2188c0 .67578.53125 1.2226 1.1875 1.2226zm13.273-.0977c.65625 0 1.1875-.54688 1.1875-1.2227s-.53125-1.2227-1.1875-1.2227-1.1914.54688-1.1914 1.2227.53516 1.2227 1.1914 1.2227zm75.227-.0508c.49219 0 .89062-.41015.89062-.91796 0-.50391-.39843-.91407-.89062-.91407s-.89063.41016-.89063.91407c0 .50781.39844.91796.89063.91796zm-4.1602-.30468c.49219 0 .89063-.41016.89063-.91797 0-.50391-.39844-.91797-.89063-.91797s-.89062.41406-.89062.91797c0 .50781.39843.91797.89062.91797zm2.082-1.5274 2.9688-9.168-1.7812 1.832-1.1875-3.668-.59375 3.668-1.1914-1.832zm-77.055-.125c.65625 0 1.1914-.54687 1.1914-1.2226s-.53515-1.2227-1.1914-1.2227-1.1875.54688-1.1875 1.2227.53125 1.2226 1.1875 1.2226zm-5.6094 0c.65625 0 1.1875-.54687 1.1875-1.2226s-.53125-1.2227-1.1875-1.2227c-.65625 0-1.1875.54688-1.1875 1.2227s.53125 1.2226 1.1875 1.2226zm44.438-1.1016c-.12109-1.918-.22656-3.8438-.32422-5.7734-1.8945-.19922-3.8281-.49218-5.793-.85937 1.3438 2.8164 3.4805 5.1211 6.1172 6.6328zm14.512-.05072c2.8984-1.6758 5.1875-4.3203 6.4727-7.5508-2.0898.55859-4.2461 1.0469-6.457 1.4102.004 2.0391-.004 4.082-.0156 6.1406zm-31.848-1.4727c-.82031 0-1.4844-.6875-1.4844-1.5312s.66406-1.5273 1.4844-1.5273c.82032 0 1.4844.68359 1.4844 1.5273s-.66406 1.5312-1.4844 1.5312zm-13.098-1.5898c.65625 0 1.1875-.54688 1.1875-1.2227s-.53125-1.2226-1.1875-1.2226-1.1914.54687-1.1914 1.2226.53516 1.2227 1.1914 1.2227zm-5.125-.40234c.65625 0 1.1875-.54688 1.1875-1.2227s-.53125-1.2227-1.1875-1.2227-1.1875.54688-1.1875 1.2227.53125 1.2227 1.1875 1.2227zm-12.93-.30079c.65625 0 1.1914-.54687 1.1914-1.2226s-.53516-1.2227-1.1914-1.2227-1.1875.54688-1.1875 1.2227.53125 1.2226 1.1875 1.2226zm9.0273-1.707c.65625 0 1.1875-.54687 1.1875-1.2226s-.53125-1.2227-1.1875-1.2227-1.1875.54688-1.1875 1.2227.53125 1.2226 1.1875 1.2226zm-5.2695-.40234c.65625 0 1.1875-.54688 1.1875-1.2227s-.53125-1.2226-1.1875-1.2226c-.65625 0-1.1875.54687-1.1875 1.2226s.53125 1.2227 1.1875 1.2227zm52.055-.18359c.98437 0 1.7852-.82032 1.7852-1.832 0-1.0156-.80079-1.8359-1.7852-1.8359-.98438 0-1.7812.82031-1.7812 1.8359 0 1.0117.79687 1.832 1.7812 1.832zm-19.906-.30469c-.82031 0-1.4844-.6836-1.4844-1.5274 0-.84765.66407-1.5312 1.4844-1.5312s1.4844.6836 1.4844 1.5312c0 .84375-.66406 1.5274-1.4844 1.5274zm20.258-.30078c-.39453 0-.71484-.33203-.71484-.74219s.32031-.74219.71484-.74219c.39844 0 .71875.33203.71875.74219s-.32031.74219-.71875.74219zm-56.797-2.7734c.65625 0 1.1875-.54688 1.1875-1.2227s-.53125-1.2226-1.1875-1.2226-1.1875.54687-1.1875 1.2226.53125 1.2227 1.1875 1.2227zm13.27-.80078c.46875 0 .89062-.28125 1.082-.71875l-2.2656-.58594c-.004.0273-.004.0547-.004.082 0 .67188.53125 1.2227 1.1875 1.2227zm16.734-.71094c-.82031 0-1.4883-.68359-1.4883-1.5273s.66797-1.5274 1.4883-1.5274c.82032 0 1.4844.6836 1.4844 1.5274s-.66406 1.5273-1.4844 1.5273zm-26.246-.59766c.65625 0 1.1875-.54687 1.1875-1.2188 0-.67578-.53125-1.2226-1.1875-1.2226s-1.1914.54687-1.1914 1.2226c0 .67188.53516 1.2188 1.1914 1.2188zm58.629-.0117c.98828 0 1.7852-.82422 1.7852-1.8359s-.79687-1.832-1.7852-1.832c-.98438 0-1.7812.82031-1.7812 1.832s.79687 1.8359 1.7812 1.8359zm-11.883 0c.98438 0 1.7812-.82422 1.7812-1.8359s-.79687-1.832-1.7812-1.832c-.98437 0-1.7812.82031-1.7812 1.832s.79688 1.8359 1.7812 1.8359zm.40235-.60547c-.39453 0-.71485-.33203-.71485-.74219s.32032-.74219.71485-.74219c.39843 0 .71875.33203.71875.74219s-.32032.74219-.71875.74219zm11.953-.008c-.39453 0-.71484-.33203-.71484-.74218 0-.41016.32031-.74219.71484-.74219.39844 0 .71875.33203.71875.74219 0 .41015-.32031.74218-.71875.74218zm-53.492-.0742c.23828 0 .47265-.0742.66796-.21485l-1.8359-1.2266c-.0156.0703-.0195.14453-.0195.21875 0 .67578.53125 1.2227 1.1875 1.2227zm45.82-8.5274c4.0273-.0312 8.0898-.61719 12.91-1.8242-2.6875-3.6445-6.957-5.9883-11.758-5.9883-5.0781 0-9.5625 2.625-12.219 6.6289 3.9883.80078 7.5156 1.2109 11.066 1.1836z" fill="#4242ff"/>
  <path d="m115.23 57.871c-8.4023-.01172-17.262.51953-26.934 1.7227l1.2773 3.2148c19.707-2.3828 35.918-1.9258 51.922.26172l1.0469-3.2305c-8.8594-1.2344-17.793-1.9531-27.312-1.9688zm-32.273 43.734c-6.168 1.4414-12.082 3.6289-17.785 6.4336 8.7852 1.2695 16.84 4.1836 23.625 9.332 7.0508 5.3477 12.574 13.062 16.164 23.297-2.4492-13.883-5.5312-26.332-10.441-36.605l-8.7578-.96484zm63.844 2.6875-25.977 12.863-20.898-9.6719 2.5977 7.2344 18.375 8.5078 19.492-9.6523zm19.246 3.0547c-12.816 13.973-15.691 28.23-15 44.172l2.9453.0742c-.78906-15.828 1.9883-29.363 15.098-43.098zm17.172 6.4219v22.949l6.5352-2.2422v-18.223zm-131.34 2.0938c-1.6211 1.1172-4.7539 3.4648-4.7539 3.4648l.0078 25.945c1.6445 0 2.9727 1.3711 2.9727 3.0586 0 .60156-.16797 1.1641-.49609 1.5938.60156.16016 1.4258.46484 2.3164.91797l-.03906-.67969zm108.16 15.598c-.48437-.008-.48437.74218 0 .73437h8.9141c.48047.008.48047-.74219 0-.73437zm-3.2656 3.0547-.13282.73438h14.094v-.73438zm-.4961 2.875-.14453 1.0977h9.1836l.85937-1.0977zm-.35547 3.0547-.0937 1.1016h9.0898l-.1211-1.1016zm-.20312 3.1172-.0586 2.2031h11.723l-1.6328-2.2031zm-.0703 3.7891.0156.73438h10.266l.36718-.73438zm.0508 2.4453 1.7578.73438h7.6836l.16407-.73438zm5.2969 2.4453 1.0547.73437h2.7773l.043-.73437zm2.9922 2.4453.65625.73437h.23828l-.0625-.73437zm-86.184.8125c-.06641.004-.13281.0273-.19141.0664-1.3594.9375-3.0117 1.4766-4.8203 1.4766-1.6328 0-3.1367-.4375-4.4141-1.2109-.10938-.0703-.24609-.0742-.35938-.008-.11328.0625-.18359.1875-.18359.32031s.07031.25391.18359.32031c1.3867.83594 3.0156 1.3125 4.7734 1.3125 1.9453 0 3.7422-.58593 5.2188-1.6016.13281-.0898.19531-.26172.14453-.41797-.04687-.15625-.19141-.26172-.35156-.25781zm3.9375.44922c-.10547 0-.20703.0469-.27344.1289-2.1055 2.4727-5.1992 4.0234-8.6758 4.0234-3.2578 0-6.1758-1.3594-8.2656-3.5625-.08594-.0977-.21875-.13672-.34375-.10547-.125.0312-.22266.13282-.25781.25782-.03516.1289 0 .26562.09375.35937 2.2188 2.3398 5.3242 3.7852 8.7734 3.7852 3.6797 0 6.9727-1.6484 9.2109-4.2734.09375-.10547.11719-.26172.0625-.39453-.05859-.13281-.18359-.21875-.32422-.21875z"/>
  <path d="m109.77 257.13c8.4023.0117 17.262-.51954 26.934-1.7227l-1.2773-3.2148c-19.707 2.3828-35.918 1.9258-51.922-.26172l-1.0469 3.2305c8.8594 1.2344 17.793 1.9531 27.313 1.9688zm32.273-43.734c6.168-1.4414 12.082-3.6289 17.785-6.4336-8.7852-1.2695-16.84-4.1836-23.625-9.332-7.0508-5.3477-12.574-13.062-16.164-23.297 2.4492 13.883 5.5312 26.332 10.441 36.605l8.7578.96484zm-63.844-2.6875 25.977-12.863 20.898 9.6719-2.5977-7.2344-18.375-8.5078-19.492 9.6523zm-19.246-3.0547c12.816-13.973 15.691-28.23 15-44.172l-2.9453-.0742c.78906 15.828-1.9883 29.363-15.098 43.098zm-17.172-6.4219v-22.949l-6.5352 2.2422v18.223zm131.34-2.0938c1.6211-1.1172 4.7539-3.4648 4.7539-3.4648l-.008-25.945c-1.6445 0-2.9727-1.3711-2.9727-3.0586 0-.60156.16797-1.1641.49609-1.5938-.60156-.16016-1.4258-.46485-2.3164-.91797l.0391.67969zm-108.16-15.598c.48437.008.48437-.74219 0-.73437h-8.9141c-.48047-.008-.48047.74218 0 .73437zm3.2656-3.0547.13281-.73437h-14.094v.73437zm.49609-2.875.14453-1.0976h-9.1836l-.85938 1.0976zm.35547-3.0547.09375-1.1016h-9.0898l.12109 1.1016zm.20312-3.1172.05859-2.2031h-11.723l1.6328 2.2031zm.07031-3.7891-.01562-.73438h-10.266l-.36719.73438zm-.05078-2.4453-1.7578-.73437h-7.6836l-.16406.73437zm-5.2969-2.4453-1.0547-.73437h-2.7773l-.04297.73437zm-2.9922-2.4453-.65625-.73438h-.23828l.0625.73438zm86.184-.8125c.0664-.004.13281-.0273.19141-.0664 1.3594-.9375 3.0117-1.4766 4.8203-1.4766 1.6328 0 3.1367.4375 4.4141 1.2109.10938.0703.2461.0742.35938.008.11328-.0625.18359-.1875.18359-.32031s-.0703-.25391-.18359-.32031c-1.3867-.83594-3.0156-1.3125-4.7734-1.3125-1.9453 0-3.7422.58593-5.2188 1.6016-.13281.0898-.19531.26172-.14453.41797.0469.15625.19141.26172.35156.25781zm-3.9375-.44922c.10547 0 .20703-.0469.27344-.12891 2.1055-2.4726 5.1992-4.0234 8.6758-4.0234 3.2578 0 6.1758 1.3594 8.2656 3.5625.0859.0977.21875.13672.34375.10547.125-.0312.22265-.13282.25781-.25782.0352-.1289 0-.26562-.0937-.35937-2.2188-2.3398-5.3242-3.7852-8.7734-3.7852-3.6797 0-6.9727 1.6484-9.2109 4.2734-.0937.10547-.11718.26172-.0625.39453.0586.13281.1836.21875.32422.21875z"/>
 </g>
 <g fill="none" stroke="#4242ff" stroke-linecap="round" stroke-linejoin="round">
  <path d="m97.394 35.676c1.1055 8.3008 7.5976 7.7539 8.0508 13.305.41016 5.0039-6.1367 5.5625-6.5195.55859-.25781-3.3828 3.4687-3.6563 3.7266-.32031.1289 1.668-2.2031 1.8672-2.3281.19922m-2.9297-13.742c.17188 8.3789-6.3203 8.9414-5.9219 14.496.35937 5.0078 6.9062 4.4492 6.5195-.55469-.25781-3.3828-3.9805-3.0195-3.7266.3164.12891 1.6719 2.457 1.4727 2.332-.19531m34.148-14.488c-.19141 8.3672 7.1328 9.0938 6.6797 14.641-.41016 5.0039-7.8086 4.2812-7.3711-.71875.29688-3.3789 4.5039-2.9219 4.2109.41016-.14454 1.668-2.7774 1.4102-2.6328-.25781m-.89063-14.074c-1.2656 8.2617-8.5937 7.5586-9.1094 13.098-.46875 4.9961 6.9297 5.7188 7.3672.71875.29687-3.3789-3.918-3.7422-4.2109-.41016-.14454 1.668 2.4883 1.9258 2.6328.25781m12.621 5.5742c.14063-.14453.27344-.29687.40625-.45312 1.6055-1.9023 2.5-4.4258 2.7305-7.3555 3.1406-.6875 5.4922-1.6133 7.3516-2.6523m-15.359 9.8789c3.3047-1.4141 5.2188-4.4219 4.8555-10.035 10.508-1.5938 11.437-5.1914 15.984-8.0352m-75.051 9.582c1.3516.99609 2.7891 1.8008 4.3789 2.1797.39062 1.2969.82422 2.8164 1.7148 4.4922.44531.83203 1.0312 1.6445 1.7617 2.3984m4.7461-.52734c-4.5039-2.1562-4.418-5.9375-5.9141-9.4727-3.7969.21484-8.3711-4.6719-12.422-9.2617m32.684 17.773c1.2969-1.7773 2.2617-3.9414 2.7305-6.4531 1.1328-.53125 2.125-1.2773 2.9258-2.1484.75391.91797 1.7031 1.7227 2.8047 2.3281.30078 2.3398 1.0469 4.4141 2.1016 6.1758m-4.6523-17.652c-.73828 4.2305-1.793 8.0859-6.0586 8.7422-.2539 4.4805-1.9687 7.332-4.5547 9.2148m19.332-.18359c-1.957-1.9922-3.1484-4.7422-3.1523-8.6719-4.2226-.91797-5.0625-4.832-5.5664-9.1016m42.582.02734c-10.59 15.055-12.785 20.84-14.918 27.813m-66.855-27.766c8.1055 12.441 11.891 19.387 14.957 27.496m-1.293-3.2266c20.629-2.5664 37.574-2.0781 54.246.24609m-52.969 2.9688c19.707-2.3828 35.918-1.9258 51.922.26172m-55.359-8.2578c22.254-2.9102 40.461-2.3555 58.305.23047m-109.2 74.492c13.453-12.879 29.496-23.68 47.711-27.93m89.562 8.1719-23.246-8.75m40.48 15.234-6.5352-2.457m-38.105-12.746-24.34 12.055-19.883-9.2031m-.96484 3.5742 20.898 9.6719 25.977-12.863m-44.277 10.426 18.375 8.5078 19.492-9.6524m-36.457 5.8203 17.016 7.875 16.656-8.2461m-25.453 8.8203 9.3594 5.9141 9.1016-5.8555m-18.219 6.207 9.6797 6.1367 8.7969-5.8086m-18.191 7.2422 9.957 5.0547 8.5039-5.5508m-.73828-18.594.91797 23.145m-21.672-23.695-4.3828 2.457m6.8867 3.3477-5.4219 3.1836m5.664 3.082-4.4687 2.9336m4.7539 4.6367-3.625 1.7461m21.559-15.523 3.4219 1m-2.8945 12.281.55078.27344m-.82031-7.0195 1.7422.73438m-25.363 17.438h-.77344m12.055 0h-.77343m-27.836 0v-29.527m-2.2695 25.16c0 8.4414-6.6523 15.281-14.855 15.281-8.207 0-14.855-6.8398-14.855-15.281 0-8.4375 6.6484-15.281 14.855-15.281 8.2031 0 14.855 6.8438 14.855 15.281m61.875-47.113c-17.297 18.938-19.316 39.895-18.223 61.262m2.082-.004c-1.1172-21.426.83203-41.816 18.27-60.461m-3.5234 50.137c-.70313-16.301 2.1797-31.426 14.891-45.848m-9.0312 45.379c-.78907-15.828 1.9883-29.363 15.098-43.098m-18.043 43.023c-.69141-15.941 2.1836-30.199 15-44.172m-50.273 50.152c0 1.8555-1.4648 3.3633-3.2695 3.3633-1.8047 0-3.2695-1.5078-3.2695-3.3633s1.4648-3.3633 3.2695-3.3633c1.8047 0 3.2695 1.5078 3.2695 3.3633m1.7266-4.1641c2.0156-4.9023-1.4062-7.3476-4.9961-7.4219-3.5898.0742-7.0117 2.5195-4.9961 7.4219-5.3516-4.2226-7.7734.27344-7.8008 4.1641.02734 3.8906 2.4492 8.3867 7.8008 4.1641-2.0156 4.9023 1.4062 7.3477 4.9961 7.4219 3.5898-.0742 7.0117-2.5195 4.9961-7.4219 5.3516 4.2226 7.7734-.27343 7.8008-4.1641-.0274-3.8906-2.4492-8.3867-7.8008-4.1641m-22.98-49.273c4.9102 10.273 7.9922 22.723 10.441 36.605-3.5898-10.234-9.1133-17.949-16.164-23.297-6.7851-5.1484-14.84-8.0625-23.68-9.2969m-6.5469 44.535h-3.9844m-2.6953-36.754v34.309m-4.7539-30.832v25.941m132.5 18.941c.75391.57812 1.1992 1.4883 1.1992 2.4531 0 1.6875-1.3281 3.0586-2.9687 3.0586-1.6445 0-2.9727-1.3711-2.9727-3.0586 0-1.1797.66015-2.2539 1.6953-2.7617m-1.2109 1.1953c-2.7266-.87109-8.8047-3.668-8.8047-11.27 0-7.9453 5.3477-9.168 6.5391-9.168 2.375 0 4.0508 3.2578 4.0508 5.7031 0 4.8867-4.6484 4.1289-4.6484.41016 0-2.4453 1.1914-3.668 1.1914-3.668l-3.5664 2.4453m14.855 12.223c0 1.3516-2.5273 2.4453-5.6445 2.4453-3.1172 0-5.6445-1.0938-5.6445-2.4453 0-1.3477 2.5273-2.4453 5.6445-2.4453 3.1172 0 5.6445 1.0977 5.6445 2.4453m-7.8633-11.68c.66796-.4375 1.707-.84375 3.1094-1.1562 8.3203-1.832 7.1133 3.2109 1.7812 3.668-2.5742.22266-4.2812-.0273-5.1367-.5m7.8906-.29687c3.0078.78515 1.1914 3.6719-2.8555 3.8086-5.9961.20313-7.1875-1.8828-3.9609-3.1406m5.5547 2.9219c3.7305.5 2.0547 3.793-2.0391 3.9375-6.7344.24219-7.0547-2.7539-1.5664-3.7422m-3.7148-8.6797c.41406-.67187 1.707-1.3828 3.8516-1.8555 8.3203-1.832 7.1133 3.2109 1.7852 3.668-2.4922.21485-4.168-.0117-5.0469-.45312m-4.0195 4.0039c.59374 2.4453-1.4375 8.2734-1.4375 8.2734m1.1875-18.527v-84.773l5.3516-5.5 5.3476 5.5v84.773m-16.641-1.6406c0-2.4453 4.7539-4 4.7539 0 0 .91016-1.1875.91797-1.1875 0 0-.61328-1.1797-.6289-1.1875.60938-.0312 4.2773 7.7226-1.2227 8.9141-2.4453 1.1875 1.2226 8.9414 6.7226 8.9101 2.4453-.008-1.2383-1.1875-1.2227-1.1875-.60938 0 .91797-1.1875.91016-1.1875 0 0-4 4.7539-2.4453 4.7539 0 0 6.1094-10.102 3.3711-11.289 1.832-1.1914 1.5391-11.293 4.2774-11.293-1.832m11.34-1.7578c.22655-3.4023.92968-8.7383.86718-11.113-.082-3.0547-1.2773-4.1445-1.3398-6.5898-.0664-2.4414 2.0742-6.2813 1.9922-9.3359-.082-3.0547-1.8203-6.5078-1.8828-8.9492-.0664-2.4453 1.1055-5.5352 1.043-7.9805-.0664-2.4453-2.0312-6.8281-2.0977-9.2734-.0625-2.4414 1.7305-7.8867 1.6641-10.332-.0625-2.4453-1.4062-6.125-1.457-7.957-.0469-1.832 1.582-7.6328 1.5312-9.4688-.0469-1.832-.31641-4.082-.36718-5.875-.008 1.8711.20312 4.1289.20312 5.9609 0 1.8359-1.7852 7.5859-1.7852 9.4219 0 1.832 1.2461 5.5508 1.2461 7.9961 0 2.4453-1.9375 7.8359-1.9375 10.281 0 2.4453 1.8516 6.8828 1.8516 9.3281 0 2.4453-1.2578 5.5-1.2578 7.9453 0 2.4453 1.6484 5.9453 1.6484 9 0 3.0586-2.2422 6.8359-2.2422 9.2774 0 2.4453 1.168 3.5703 1.168 6.625 0 2.8438-1.2109 9.8867-1.2774 12.82m-116.06 14.379c10.172-2.6367 17.504-2.7188 27.051-.71094m-17.973-20.453c-.05859 3.3945-.07031 6.7617-.04297 10.109-3.5977.40625-7.0391 1.1875-10.355 2.2656m18.828-12.426c.24219 3.2969.43359 6.6016.57031 9.9141 3.1289.18359 6.3789.64843 9.7656 1.4297m-26.203 12.602c9.0391-2.2539 15.434-2.3359 23.922-.63282m-19.477-21.945c-.02344 2.0547-.03125 4.0977-.02734 6.1367-2.2109.36328-4.3672.85156-6.4726 1.457m27.125-.98437c-1.9727-.39844-3.9062-.69141-5.8008-.89063-.09766-1.9297-.20312-3.8555-.33203-5.7773m-5.5351 7.9453c0 1.0156-.79687 1.8359-1.7812 1.8359-.98437 0-1.7852-.82031-1.7852-1.8359 0-1.0117.80078-1.832 1.7852-1.832.98437 0 1.7812.82031 1.7812 1.832m0-5.5c0 1.0117-.79687 1.8359-1.7812 1.8359-.98437 0-1.7852-.82422-1.7852-1.8359s.80078-1.832 1.7852-1.832c.98437 0 1.7812.82031 1.7812 1.832m0 11.004c0 1.0117-.79687 1.832-1.7812 1.832-.98437 0-1.7852-.82032-1.7852-1.832 0-1.0117.80078-1.8359 1.7852-1.8359.98437 0 1.7812.82422 1.7812 1.8359m-5.9414 0c0 1.0117-.79687 1.832-1.7812 1.832-.98828 0-1.7852-.82032-1.7852-1.832 0-1.0117.79687-1.8359 1.7852-1.8359.98437 0 1.7812.82422 1.7812 1.8359m-5.3476 1.2226c0 1.0117-.80078 1.832-1.7852 1.832-.98437 0-1.7812-.82031-1.7812-1.832 0-1.0156.79687-1.8359 1.7812-1.8359.98437 0 1.7852.82031 1.7852 1.8359m17.23-1.2226c0 1.0117-.79687 1.832-1.7812 1.832s-1.7812-.82032-1.7812-1.832c0-1.0117.79687-1.8359 1.7812-1.8359s1.7812.82422 1.7812 1.8359m5.3476.60937c0 1.0156-.79687 1.8359-1.7812 1.8359s-1.7812-.82031-1.7812-1.8359c0-1.0117.79687-1.832 1.7812-1.832s1.7812.82031 1.7812 1.832m-16.609-15.5v-.0859c0-1.8555 1.6328-3.3633 3.6445-3.3633 2.0117 0 3.6406 1.5078 3.6406 3.3633v.0899m-5.1328-3.0898c-.3789-1.7422-1.6562-6.3594-4.5547-5.8633-2.8477.48828-4.9492 7.2148-2.3789 8.5586 2.0156 1.0508 1.9141-5.7305 4.1602-5.5039 1.1094.11328 1.6133 2.6289 1.7461 3.4297m1.1172-.72266v.004m2.5977-.0742c.17578-3.1953.67187-6.3281 1.668-9.3594l-2.9687-3.668-2.9727 3.668c1.0039 3.0547 1.5 6.2109 1.6758 9.4297m2.5977-.0664v-.004m1.1406.61719c.17188-.9414.67969-3.1445 1.7187-3.2539 2.2461-.22656 2.1445 6.5547 4.1562 5.5039 2.5742-1.3438.46875-8.0703-2.375-8.5586-2.8516-.48828-4.1367 3.9726-4.5352 5.7773m-17.738 20.508h-4.5781m4.4102-1.8359h-4.3008m4.3047-1.832h-4.3047m4.5234-1.8359h-4.5234m4.9453-1.832h-4.9453m5.6016-1.832h-5.6016m6.4922-1.8359h-6.4922m7.6797-1.832h-7.6797m9.2461-1.8359h-9.2461m11.086-1.832h-11.086m9.8516-1.8359h-9.8516m9.5351-1.832h-9.5351m9.7187-1.8359h-9.7187m10.277-1.832h-10.277m38.031 23.84h-.69141m.69141-1.8359h-.52344m.52344-1.832h-.52734m.52734-1.8359h-.74219m.74219-1.832h-1.1641m1.1641-1.832h-1.8203m1.8203-1.8359h-2.7109m2.7109-1.832h-3.8984m3.8984-1.8359h-5.4648m5.4648-1.832h-7.5078m7.5078-1.8359h-6.2851m6.2851-1.832h-5.9687m5.9687-1.8359h-6.1523m6.1523-1.832h-6.707m106.54 35.453h-4.9414m-1.5938-25.672 6.5352-2.2422m-51.633-33.598c3.0391.45703 5.8555-.86328 5.8359-4.0703-.0195-2.9219-2.7656-4.0508-4.5039-3.3047m1.0859 7.5195c3.043.45703 5.8555-.86328 5.8359-4.0703-.0156-2.832-2.5938-3.9766-4.3359-3.3711m.875 7.4414c3.043.45703 5.8594-.86328 5.8359-4.0703-.0156-2.9219-2.7617-4.0508-4.5039-3.3047m.45313 7.375c3.0391.45703 5.8555-.86328 5.8359-4.0703-.0195-2.793-2.5234-3.9492-4.2656-3.3945m.80469 7.4648c3.043.45703 5.8555-.86328 5.8359-4.0703-.0156-2.9219-2.7656-4.0508-4.5039-3.3047m1.0469 7.375c3.0391.45703 5.8555-.86328 5.8359-4.0703-.0195-2.9219-2.7656-4.0508-4.5039-3.3047m1.043 7.375c3.043.45703 5.8555-.86328 5.8359-4.0703-.0156-2.9219-2.7656-4.0508-4.5039-3.3047m-28.184-32.137c6.9336 14.703 3.2226 26.105 3.3359 30.863.23438 9.5 13.309 11.336 13.266 4.4336-.0234-4.2773-5.8984-4.7109-5.8984-1.043-.0703 2.0273 3.7226 2.5117 2.9688 0m-11.527-34.121c6.918 14.641 4.418 26.059 4.5352 30.805.0976 3.957 2.7852 5.2969 5.8828 5.0117m-8.2773-35.688c6.8633 14.582 4.6562 25.941 4.7734 30.676.0469 2 .75781 3.332 1.8476 4.1211m-4.2422-34.594c5.6406 10.016 4.0859 21.527 4.9297 31.863m-2.6641-31.652c5.6641 9.7031 4.4688 20.828 5.9336 31.133m-3.7617-30.914c5.457 9.7891 4.664 21.793 7.0273 30.902m-4.7969-30.637c5.3359 9.8125 4.6719 22.18 8.0664 30.699m-5.8164-30.426c5.3047 9.918 4.6797 23.109 9.0859 30.574m-7.7109-31.801c6.1289 10.223 6.4375 26.348 10.977 31.602m-25.605 10.531c3.5273.49609 7.6914-1.543 8.375-2.9453m-10.695-39.371c10.855 26.711-4.043 27.848-3.6797 36.781.10156 2.4648 1.3008 3.5586 2.8789 4.1211m3.7656-.14843c2.5625.64453 5.7695-.31641 7.8516-1.3828m-6.6055-18.996c-1.1055 5.8633-6.1523 8.9453-5.8086 15.066.0781 1.3789.90625 1.9688 1.3555 2.8242m4.3633-16.082c-1.2461 3.8047-3.9766 6.1602-3.6836 11.355.36719 6.5391 5.3867 6.5937 9.2266 5.5195m-5.7148-15.031c-1.043 2.3906-2.3789 4.2969-2.1523 8.3672.3086 5.4766 3.7578 6.7773 7.125 6.4258m-15.461-3.3711c-.54297 8.7109 9.5078 9.7813 9.5078 4.8906 0-3.668-5.9414-2.4453-3.5664.61328m-7.9609-4.7695c0 3.668 2.9531 9.5156 6.0781 6.6719m-8.0976-5.9375c0 4.2773 2.6836 8.668 5.8633 6.8086m-7.8828-6.0742c0 3.668 1.8984 7.5781 5.5156 6.5078m-7.539-5.7734c.59375 3.6641 1.5469 6.8438 5.4023 5.9922m-7.4219-5.2617c1.1875 3.668 1.7852 4.8906 4.707 5.375m-9.4609-5.375c-1.1875 2.9102-1.8281 3.2852-4.7539 3.668m2.7344-4.25c-.59375 2.9102-1.8477 4.3164-5.7031 3.6406m3.6836-4.2227c0 2.9102-3.6367 5.0742-7.25 4.2227m3.207-5.3828c0 2.9063-3.3398 7.1953-6.4648 4.9414m4.4453-5.5234c1.1875 6.7852-11.289 7.1875-11.418 1.7109-.11719-4.918 6.6641-4.3047 6.6641-.63672 0 2.8906-4.8516 3.6953-4.7539.60938.03125-1.0039 1.1875-1.832 2.3789-1.2227m16.043 4.8906c2.375 3.0586 5.9414.61328 5.9414-2.4453m-10.816-1.7422c0 2.4648-2.4375 4.6289-5.3828 4.7148m-1.8086-40.883c-1.4258 4.957.77734 5.7656.77734 12.238 0 6.7227-7.7266 5.5039-7.7266.61328 0-3.668 4.7539-3.0586 4.7539 0 0 2.25-3.5664 2.4453-3.5664.60938 0-1.832 1.7852-1.2227 1.7852-1.2227m3.1484-12.246c-1.7344 5.4531-.8125 8.8828-1.3828 13.109m-1.8047 9.6133s-1.7812-.60938-1.7812 1.2227 3.5625 1.6406 3.5625-.60938c0-3.0586-5.2422-3.7188-5.2422-.05078 0 4.8867 7.6562 5.4648 7.7266-.61328.03516-3.1367-.66406-3.7031.13672-8.2695-1.9883 3.3477.01953 7.7539-2.6875 9.5078m2.4805-1.8828c2.25 10.937.33984 15.293-3.5625 16.504m3.5625-32.398s2.3789-2.4453 4.7539-2.4453c2.3789 0 3.2734.74219 3.8672.77344.65625.03125 1.4844-.77344 2.0781-1.3828v1.2227s-1.4336.57031-2.0273.57031c-.59375 0-3.0977-.71094-4.0625-.76953-.47266-.03125-3.8281.98047-4.6094 2.0312m32.684 1.2227s-3.9102-4.0664-6.2852-4.0664c-2.3789 0-5.8594 1.0391-6.4531 1.0703-.65625.03516-2.1172-.05859-2.7109-1.2813v1.2227s2.0664.46875 2.6602.46875 5.9609-1.1289 6.6484-1.0703c1.8867.15625 5.3633 2.6055 6.1406 3.6562m-21.984-3.0547s1.7812 1.832 1.7812 2.4453c0 2.4453-1.3906 3.7187-1.3906 6.1641 0 2.4414-1.582 7.2812-1.5312 8.3477.0273.60937 1.7344 1.3789 2.3281 1.3789s.59375 2.4453.59375 2.4453m4.1602-6.7227c2.9726.60938 3.4414 4.4414 1.1875 3.668-5.3476-1.8359-5.3476 1.2227-1.4883-.30078m-8.6133 7.0234v1.2227l.59375-.60938-.59375-.61328m13.668 0v1.2227l-.59375-.60938.59375-.61328m-13.074.61328c1.1875 0 1.7852-1.2227 2.9727-1.2227s1.7812.60938 2.375.60938 1.9687-.87109 2.5625-.87109c.59766 0 2.7852 1.4844 4.5703 1.4844m-8.914 2.4453c.69531 1.5078 3.5664 1.832 4.1602 0m-15.449-21.395c1.1875-.61328 2.375-1.2227 4.2461-1.125 1.8789.10156 3.4766 2.957 5.2617 2.957-2.9726 0-3.5664 1.2227-5.3516 1.2227-1.7812 0-2.9687-.60938-4.1562-1.2227m17.824-1.2227s2.3789-2.4453 4.1602-2.4453 5.9414 2.4453 7.1328 2.4453c-2.6562-.0039-5.3203 1.8359-7.1328 1.8359-2.375 0-4.1602-1.8359-4.1602-1.8359m-14.855 14.059c.6914.17578 1.7852-1.5469 0-1.5195-2.6914.03906-1.6992 4.0898 1.125 4.0859 1.7344-.0039 3.6289-2.3086 5.4141-2.5664v-1.2227c-3.5664 1.2227-2.9726 3.0586-5.3516 3.668m21.988-1.832c-1.4727-.61328-2.3398-2.625.28906-2.8398 2.6836-.21875 2.0859 4.6719-2.9883 4.793-2.5625.0625-4.1562-2.5664-7.9961-2.5664v-1.2227c6.1914.61328 4.3906 3.0586 7.9023 3.668m10.855 67.238c0 6.5195-5.7383 11.805-12.816 11.805-7.0781 0-12.816-5.2852-12.816-11.805 0-6.5195 5.7383-11.805 12.816-11.805 7.0781 0 12.816 5.2852 12.816 11.805m-26.703-53.121c5.3242 11.906 8.375 26.094 10.867 41.66m11.465-18.77 2.0352 23.461m-11.012-27.613.86328 22.594m-11.984 6.8984h-13.828m44.051 0h-6.9219l7.0352-4.5234m-71.93-36.906c21.703 1.3047 38.293 11.773 44.398 37.785m21.234 5.4805h6.0859m-37.191 0h6.2226" stroke-width=".72322"/>
  <path d="m127.61 279.32c-1.1055-8.3008-7.5976-7.7539-8.0508-13.305-.41016-5.0039 6.1367-5.5625 6.5195-.5586.25781 3.3828-3.4687 3.6562-3.7266.32032-.1289-1.668 2.2031-1.8672 2.3281-.19922m2.9297 13.742c-.17188-8.3789 6.3203-8.9414 5.9219-14.496-.35938-5.0078-6.9062-4.4492-6.5195.55469.25782 3.3828 3.9805 3.0195 3.7266-.31641-.1289-1.6719-2.457-1.4726-2.332.19531m-34.148 14.488c.19141-8.3672-7.1328-9.0938-6.6797-14.641.41016-5.0039 7.8086-4.2812 7.3711.71875-.29688 3.3789-4.5039 2.9219-4.2109-.41016.14453-1.668 2.7773-1.4102 2.6328.25782m.89062 14.074c1.2656-8.2617 8.5937-7.5586 9.1094-13.098.46875-4.9961-6.9297-5.7188-7.3672-.71875-.29688 3.3789 3.918 3.7422 4.2109.41015.14453-1.668-2.4883-1.9258-2.6328-.25781m-12.621-5.5742c-.14062.14454-.27344.29688-.40625.45313-1.6055 1.9023-2.5 4.4258-2.7305 7.3555-3.1406.6875-5.4922 1.6133-7.3516 2.6523m15.359-9.8789c-3.3047 1.4141-5.2187 4.4219-4.8555 10.035-10.508 1.5938-11.437 5.1914-15.984 8.0352m75.051-9.582c-1.3516-.9961-2.7891-1.8008-4.3789-2.1797-.39062-1.2969-.82422-2.8164-1.7148-4.4922-.44531-.83203-1.0312-1.6445-1.7617-2.3984m-4.7461.52735c4.5039 2.1562 4.418 5.9375 5.914 9.4726 3.7969-.21484 8.3711 4.6719 12.422 9.2617m-32.684-17.773c-1.2969 1.7773-2.2617 3.9414-2.7305 6.4531-1.1328.53125-2.125 1.2773-2.9258 2.1484-.7539-.91797-1.7031-1.7227-2.8047-2.3281-.30078-2.3398-1.0469-4.4141-2.1016-6.1758m4.6523 17.652c.73828-4.2305 1.793-8.0859 6.0586-8.7422.25391-4.4805 1.9688-7.332 4.5547-9.2148m-19.332.1836c1.957 1.9922 3.1484 4.7422 3.1523 8.6719 4.2226.91797 5.0625 4.832 5.5664 9.1016m-42.582-.0274c10.59-15.055 12.785-20.84 14.918-27.812m66.855 27.766c-8.1054-12.441-11.891-19.387-14.957-27.496m1.293 3.2266c-20.629 2.5664-37.574 2.0781-54.246-.24609m52.969-2.9688c-19.707 2.3828-35.918 1.9258-51.922-.26172m55.359 8.2578c-22.254 2.9102-40.461 2.3555-58.305-.23046m109.2-74.492c-13.453 12.879-29.496 23.68-47.711 27.93m-89.562-8.1719 23.246 8.75m-40.48-15.234 6.5352 2.457m38.105 12.746 24.34-12.055 19.883 9.2031m.96484-3.5742-20.898-9.6719-25.977 12.863m44.277-10.426-18.375-8.5078-19.492 9.6523m36.457-5.8203-17.016-7.875-16.656 8.2461m25.453-8.8203-9.3594-5.9141-9.1016 5.8555m18.219-6.207-9.6797-6.1367-8.7969 5.8086m18.191-7.2422-9.957-5.0547-8.5039 5.5508m.73828 18.594-.91797-23.145m21.672 23.695 4.3828-2.457m-6.8867-3.3477 5.4219-3.1836m-5.664-3.082 4.4687-2.9336m-4.7539-4.6367 3.625-1.7461m-21.559 15.523-3.4219-1m2.8945-12.281-.55078-.27344m.82031 7.0195-1.7422-.73437m25.363-17.438h.77344m-12.055 0h.77344m27.836 0v29.527m2.2695-25.16c0-8.4414 6.6523-15.281 14.855-15.281 8.207 0 14.855 6.8398 14.855 15.281 0 8.4375-6.6484 15.281-14.855 15.281-8.2031 0-14.855-6.8438-14.855-15.281m-61.875 47.113c17.297-18.938 19.316-39.895 18.223-61.262m-2.082.004c1.1172 21.426-.83203 41.816-18.27 60.461m3.5234-50.137c.70312 16.301-2.1797 31.426-14.891 45.848m9.0312-45.379c.78906 15.828-1.9883 29.363-15.098 43.098m18.043-43.023c.6914 15.941-2.1836 30.199-15 44.172m50.273-50.152c0-1.8555 1.4648-3.3633 3.2695-3.3633s3.2695 1.5078 3.2695 3.3633-1.4648 3.3633-3.2695 3.3633-3.2695-1.5078-3.2695-3.3633m-1.7266 4.1641c-2.0156 4.9024 1.4062 7.3477 4.9961 7.4219 3.5898-.0742 7.0117-2.5195 4.9961-7.4219 5.3516 4.2227 7.7734-.27343 7.8008-4.1641-.0273-3.8906-2.4492-8.3867-7.8008-4.1641 2.0156-4.9023-1.4062-7.3476-4.9961-7.4219-3.5898.0742-7.0117 2.5195-4.9961 7.4219-5.3516-4.2226-7.7734.27344-7.8008 4.1641.02734 3.8906 2.4492 8.3867 7.8008 4.1641m22.98 49.273c-4.9102-10.273-7.9922-22.723-10.441-36.605 3.5898 10.234 9.1133 17.949 16.164 23.297 6.7852 5.1484 14.84 8.0625 23.68 9.2969m6.5469-44.535h3.9844m2.6953 36.754v-34.309m4.7539 30.832v-25.942m-132.5-18.941c-.75391-.57812-1.1992-1.4883-1.1992-2.4531 0-1.6875 1.3281-3.0586 2.9687-3.0586 1.6445 0 2.9727 1.3711 2.9727 3.0586 0 1.1797-.66015 2.2539-1.6953 2.7617m1.2109-1.1953c2.7266.8711 8.8047 3.668 8.8047 11.27 0 7.9453-5.3477 9.168-6.5391 9.168-2.375 0-4.0508-3.2578-4.0508-5.7031 0-4.8867 4.6484-4.1289 4.6484-.41015 0 2.4453-1.1914 3.668-1.1914 3.668l3.5664-2.4453m-14.855-12.223c0-1.3516 2.5273-2.4453 5.6445-2.4453 3.1172 0 5.6445 1.0938 5.6445 2.4453 0 1.3477-2.5273 2.4453-5.6445 2.4453-3.1172 0-5.6445-1.0976-5.6445-2.4453m7.8633 11.68c-.66796.4375-1.707.84375-3.1094 1.1562-8.3203 1.832-7.1133-3.2109-1.7812-3.668 2.5742-.22265 4.2812.0273 5.1367.5m-7.8906.29688c-3.0078-.78516-1.1914-3.6719 2.8555-3.8086 5.9961-.20313 7.1875 1.8828 3.9609 3.1406m-5.5547-2.9219c-3.7305-.5-2.0547-3.793 2.0391-3.9375 6.7344-.24219 7.0547 2.7539 1.5664 3.7422m3.7148 8.6797c-.41406.67188-1.707 1.3828-3.8516 1.8555-8.3203 1.832-7.1133-3.2109-1.7852-3.668 2.4922-.21484 4.168.0117 5.0469.45313m4.0195-4.0039c-.59374-2.4453 1.4375-8.2734 1.4375-8.2734m-1.1875 18.527v84.773l-5.3516 5.5-5.3476-5.5v-84.773m16.641 1.6406c0 2.4453-4.7539 4-4.7539 0 0-.91015 1.1875-.91797 1.1875 0 0 .61328 1.1797.62891 1.1875-.60937.03124-4.2774-7.7226 1.2226-8.9141 2.4453-1.1875-1.2227-8.9414-6.7227-8.9101-2.4453.0078 1.2383 1.1875 1.2226 1.1875.60937 0-.91797 1.1875-.91015 1.1875 0 0 4-4.7539 2.4453-4.7539 0 0-6.1094 10.102-3.3711 11.289-1.832 1.1914-1.5391 11.293-4.2773 11.293 1.832m-11.34 1.7578c-.22656 3.4024-.92968 8.7383-.86718 11.113.08203 3.0547 1.2773 4.1445 1.3398 6.5898.0664 2.4414-2.0742 6.2812-1.9922 9.3359.08204 3.0547 1.8203 6.5078 1.8828 8.9492.0664 2.4453-1.1055 5.5352-1.043 7.9805.0664 2.4453 2.0312 6.8281 2.0977 9.2734.06249 2.4414-1.7305 7.8867-1.6641 10.332.0625 2.4453 1.4063 6.125 1.457 7.957.04688 1.832-1.582 7.6328-1.5312 9.4688.04688 1.832.31642 4.082.36719 5.875.0078-1.8711-.20312-4.1289-.20312-5.9609 0-1.8359 1.7852-7.5859 1.7852-9.4219 0-1.832-1.2461-5.5508-1.2461-7.9961s1.9375-7.8359 1.9375-10.281-1.8516-6.8828-1.8516-9.3281c0-2.4453 1.2578-5.5 1.2578-7.9453 0-2.4453-1.6484-5.9453-1.6484-9 0-3.0586 2.2422-6.8359 2.2422-9.2773 0-2.4453-1.168-3.5703-1.168-6.625 0-2.8438 1.2109-9.8867 1.2773-12.82m116.06-14.379c-10.172 2.6367-17.504 2.7188-27.051.71094m17.973 20.453c.0586-3.3945.0703-6.7617.043-10.109 3.5977-.40625 7.0391-1.1875 10.355-2.2656m-18.828 12.426c-.24219-3.2969-.43359-6.6016-.57031-9.9141-3.1289-.18359-6.3789-.64844-9.7656-1.4297m26.203-12.602c-9.039 2.2539-15.434 2.336-23.922.63282m19.477 21.945c.0234-2.0547.0312-4.0976.0273-6.1367 2.2109-.36329 4.3672-.85157 6.4726-1.457m-27.125.98438c1.9726.39844 3.9062.69141 5.8008.89062.0977 1.9297.20312 3.8555.33203 5.7774m5.5352-7.9453c0-1.0156.79687-1.8359 1.7812-1.8359.98437 0 1.7852.82031 1.7852 1.8359 0 1.0117-.80078 1.832-1.7852 1.832-.98438 0-1.7812-.82032-1.7812-1.832m0 5.5c0-1.0117.79687-1.8359 1.7812-1.8359.98437 0 1.7852.82422 1.7852 1.8359 0 1.0117-.80078 1.832-1.7852 1.832-.98438 0-1.7812-.82032-1.7812-1.832m0-11.004c0-1.0117.79687-1.832 1.7812-1.832.98437 0 1.7852.82031 1.7852 1.832s-.80078 1.8359-1.7852 1.8359c-.98438 0-1.7812-.82422-1.7812-1.8359m5.9414 0c0-1.0117.79687-1.832 1.7812-1.832.98828 0 1.7852.82031 1.7852 1.832s-.79687 1.8359-1.7852 1.8359c-.98438 0-1.7812-.82422-1.7812-1.8359m5.3476-1.2227c0-1.0117.80078-1.832 1.7852-1.832.98438 0 1.7812.82031 1.7812 1.832 0 1.0156-.79687 1.8359-1.7812 1.8359-.98437 0-1.7852-.82031-1.7852-1.8359m-17.23 1.2227c0-1.0117.79688-1.832 1.7812-1.832s1.7812.82031 1.7812 1.832-.79688 1.8359-1.7812 1.8359-1.7812-.82422-1.7812-1.8359m-5.3476-.60938c0-1.0156.79688-1.8359 1.7812-1.8359s1.7812.82031 1.7812 1.8359c0 1.0117-.79688 1.832-1.7812 1.832s-1.7812-.82032-1.7812-1.832m16.609 15.5v.0859c0 1.8555-1.6328 3.3633-3.6445 3.3633s-3.6406-1.5078-3.6406-3.3633v-.0898m5.1328 3.0898c.3789 1.7422 1.6562 6.3594 4.5547 5.8633 2.8476-.48828 4.9492-7.2148 2.3789-8.5586-2.0156-1.0508-1.9141 5.7305-4.1602 5.5039-1.1094-.11329-1.6133-2.6289-1.7461-3.4297m-1.1172.72265v-.004m-2.5976.0742c-.17578 3.1953-.67188 6.3281-1.668 9.3594l2.9688 3.668 2.9726-3.668c-1.0039-3.0547-1.5-6.2109-1.6758-9.4297m-2.5976.0664v.004m-1.1406-.61718c-.17188.9414-.67969 3.1445-1.7188 3.2539-2.2461.22656-2.1445-6.5547-4.1562-5.5039-2.5742 1.3438-.46875 8.0703 2.375 8.5586 2.8516.48828 4.1367-3.9727 4.5352-5.7774m17.738-20.508h4.5781m-4.4102 1.8359h4.3008m-4.3047 1.832h4.3047m-4.5234 1.8359h4.5234m-4.9453 1.832h4.9453m-5.6016 1.832h5.6016m-6.4922 1.8359h6.4922m-7.6797 1.832h7.6797m-9.2461 1.8359h9.2461m-11.086 1.832h11.086m-9.8516 1.8359h9.8516m-9.5351 1.832h9.5351m-9.7187 1.8359h9.7187m-10.277 1.832h10.277m-38.031-23.84h.69141m-.69141 1.8359h.52344m-.52344 1.832h.52734m-.52734 1.8359h.74219m-.74219 1.832h1.1641m-1.1641 1.832h1.8203m-1.8203 1.8359h2.7109m-2.7109 1.832h3.8984m-3.8984 1.8359h5.4648m-5.4648 1.832h7.5078m-7.5078 1.8359h6.2852m-6.2852 1.832h5.9687m-5.9687 1.8359h6.1523m-6.1523 1.832h6.707m-106.54-35.453h4.9414m1.5937 25.672-6.5352 2.2422m51.633 33.598c-3.0391-.45703-5.8555.86328-5.8359 4.0703.01953 2.9219 2.7656 4.0508 4.5039 3.3047m-1.0859-7.5195c-3.043-.45703-5.8555.86329-5.8359 4.0703.01562 2.832 2.5937 3.9766 4.3359 3.3711m-.875-7.4414c-3.043-.45703-5.8594.86329-5.8359 4.0703.01562 2.9219 2.7617 4.0508 4.5039 3.3047m-.45312-7.375c-3.0391-.45703-5.8555.86329-5.8359 4.0703.01953 2.793 2.5234 3.9492 4.2656 3.3945m-.80469-7.4648c-3.043-.45703-5.8555.86329-5.8359 4.0703.01562 2.9219 2.7656 4.0508 4.5039 3.3047m-1.0469-7.375c-3.0391-.45703-5.8555.86329-5.8359 4.0703.01953 2.9219 2.7656 4.0508 4.5039 3.3047m-1.043-7.375c-3.043-.45703-5.8555.86329-5.8359 4.0703.01563 2.9219 2.7656 4.0508 4.5039 3.3047m28.184 32.137c-6.9336-14.703-3.2227-26.105-3.3359-30.863-.23438-9.5-13.309-11.336-13.266-4.4336.02344 4.2773 5.8984 4.7109 5.8984 1.043.07031-2.0274-3.7227-2.5117-2.9687 0m11.527 34.121c-6.918-14.641-4.418-26.059-4.5352-30.805-.09766-3.957-2.7852-5.2969-5.8828-5.0117m8.2773 35.688c-6.8633-14.582-4.6562-25.941-4.7734-30.676-.04687-2-.75781-3.332-1.8477-4.1211m4.2422 34.594c-5.6406-10.016-4.0859-21.527-4.9297-31.863m2.6641 31.652c-5.6641-9.7031-4.4687-20.828-5.9336-31.133m3.7617 30.914c-5.457-9.7891-4.6641-21.793-7.0273-30.902m4.7969 30.637c-5.3359-9.8125-4.6719-22.18-8.0664-30.699m5.8164 30.426c-5.3047-9.918-4.6797-23.109-9.0859-30.574m7.7109 31.801c-6.1289-10.223-6.4375-26.348-10.977-31.602m25.605-10.531c-3.5273-.49609-7.6914 1.543-8.375 2.9453m10.695 39.371c-10.855-26.711 4.043-27.848 3.6797-36.781-.10156-2.4648-1.3008-3.5586-2.8789-4.1211m-3.7656.14844c-2.5625-.64453-5.7695.31641-7.8516 1.3828m6.6055 18.996c1.1055-5.8633 6.1523-8.9453 5.8086-15.066-.0781-1.3789-.90625-1.9688-1.3555-2.8242m-4.3633 16.082c1.2461-3.8047 3.9766-6.1602 3.6836-11.355-.36719-6.5391-5.3867-6.5938-9.2266-5.5195m5.7148 15.031c1.043-2.3906 2.3789-4.2969 2.1523-8.3672-.30859-5.4766-3.7578-6.7774-7.125-6.4258m15.461 3.3711c.54297-8.7109-9.5078-9.7812-9.5078-4.8906 0 3.668 5.9414 2.4453 3.5664-.61328m7.9609 4.7695c0-3.668-2.9531-9.5156-6.0781-6.6719m8.0976 5.9375c0-4.2774-2.6836-8.668-5.8633-6.8086m7.8828 6.0742c0-3.668-1.8984-7.5781-5.5156-6.5078m7.539 5.7734c-.59375-3.6641-1.5469-6.8438-5.4023-5.9922m7.4219 5.2617c-1.1875-3.668-1.7852-4.8906-4.707-5.375m9.4609 5.375c1.1875-2.9102 1.8281-3.2852 4.7539-3.668m-2.7344 4.25c.59375-2.9102 1.8476-4.3164 5.7031-3.6406m-3.6836 4.2227c0-2.9102 3.6367-5.0742 7.25-4.2227m-3.207 5.3828c0-2.9062 3.3398-7.1953 6.4648-4.9414m-4.4453 5.5234c-1.1875-6.7852 11.289-7.1875 11.418-1.7109.11719 4.918-6.664 4.3047-6.664.63672 0-2.8906 4.8516-3.6953 4.7539-.60938-.0312 1.0039-1.1875 1.832-2.3789 1.2227m-16.043-4.8906c-2.375-3.0586-5.9414-.61329-5.9414 2.4453m10.816 1.7422c0-2.4648 2.4375-4.6289 5.3828-4.7148m1.8086 40.883c1.4258-4.957-.77734-5.7656-.77734-12.238 0-6.7226 7.7266-5.5039 7.7266-.61328 0 3.668-4.7539 3.0586-4.7539 0 0-2.25 3.5664-2.4453 3.5664-.60937 0 1.832-1.7852 1.2226-1.7852 1.2226m-3.1484 12.246c1.7344-5.4531.8125-8.8828 1.3828-13.109m1.8047-9.6133s1.7812.60938 1.7812-1.2226-3.5625-1.6406-3.5625.60937c0 3.0586 5.2422 3.7188 5.2422.0508 0-4.8867-7.6562-5.4648-7.7266.61328-.0352 3.1367.66406 3.7031-.13672 8.2695 1.9883-3.3477-.0195-7.7539 2.6875-9.5078m-2.4805 1.8828c-2.25-10.938-.33984-15.293 3.5625-16.504m-3.5625 32.398s-2.3789 2.4453-4.7539 2.4453c-2.3789 0-3.2734-.74219-3.8672-.77344-.65625-.0312-1.4844.77344-2.0781 1.3828v-1.2226s1.4336-.57031 2.0273-.57031 3.0976.71093 4.0625.76953c.47266.0312 3.8281-.98047 4.6094-2.0312m-32.684-1.2227s3.9102 4.0664 6.2852 4.0664c2.3789 0 5.8594-1.0391 6.4531-1.0703.65624-.0351 2.1172.0586 2.7109 1.2812v-1.2226s-2.0664-.46875-2.6602-.46875-5.9609 1.1289-6.6484 1.0703c-1.8867-.15625-5.3633-2.6055-6.1406-3.6562m21.984 3.0547s-1.7812-1.832-1.7812-2.4453c0-2.4453 1.3906-3.7188 1.3906-6.1641 0-2.4414 1.582-7.2812 1.5312-8.3476-.0273-.60938-1.7344-1.3789-2.3281-1.3789s-.59375-2.4453-.59375-2.4453m-4.1602 6.7226c-2.9726-.60937-3.4414-4.4414-1.1875-3.668 5.3476 1.8359 5.3476-1.2226 1.4883.30079m8.6133-7.0234v-1.2227l-.59375.60938.59375.61328m-13.668 0v-1.2227l.59375.60938-.59375.61328m13.074-.61328c-1.1875 0-1.7852 1.2226-2.9726 1.2226s-1.7812-.60937-2.375-.60937-1.9688.87109-2.5625.87109c-.59765 0-2.7852-1.4844-4.5703-1.4844m8.914-2.4453c-.69531-1.5078-3.5664-1.832-4.1602 0m15.449 21.395c-1.1875.61328-2.375 1.2226-4.2461 1.125-1.8789-.10157-3.4766-2.957-5.2617-2.957 2.9726 0 3.5664-1.2226 5.3516-1.2226 1.7812 0 2.9688.60937 4.1562 1.2226m-17.824 1.2227s-2.3789 2.4453-4.1602 2.4453-5.9414-2.4453-7.1328-2.4453c2.6562.004 5.3203-1.8359 7.1328-1.8359 2.375 0 4.1602 1.8359 4.1602 1.8359m14.855-14.059c-.6914-.17578-1.7852 1.5469 0 1.5195 2.6914-.0391 1.6992-4.0898-1.125-4.0859-1.7344.004-3.6289 2.3086-5.414 2.5664v1.2226c3.5664-1.2226 2.9726-3.0586 5.3516-3.668m-21.988 1.832c1.4726.61328 2.3398 2.625-.28906 2.8398-2.6836.21875-2.0859-4.6719 2.9883-4.793 2.5625-.0625 4.1562 2.5664 7.9961 2.5664v1.2226c-6.1914-.61328-4.3906-3.0586-7.9023-3.668m-10.855-67.238c0-6.5195 5.7383-11.805 12.816-11.805s12.816 5.2852 12.816 11.805-5.7383 11.805-12.816 11.805-12.816-5.2852-12.816-11.805m26.703 53.121c-5.3242-11.906-8.375-26.094-10.867-41.66m-11.465 18.77-2.0352-23.461m11.012 27.613-.86328-22.594m11.984-6.8984h13.828m-44.051 0h6.9219l-7.0351 4.5234m71.93 36.906c-21.703-1.3047-38.293-11.773-44.398-37.785m-21.234-5.4805h-6.0859m37.191 0h-6.2226" stroke-width=".72322"/>
  <path d="m178.46 106.79v-10.297m0 19.938v-9.6406m0 18.441v-8.8008m0-22.902v-41.168m3.5625 89.066v-85.398m-1.1875 84.715v-85.938m-1.1875 85.156v-86.379m-1.1875 85.484v-6.4219m-1.1914-69.277v-1.3594m0 8.168v-6.8086m0 17.133v-3.3125m0 11.855v-8.543m.66406 65.273c.46095.59375.54689 1.168.29297 2.9102m.23438.86718c.46094.59375.79687 1.7148.30079 2.9805m-.49219-.14844c.46484.59766.55469 1.8672.10937 2.9062m-.53125.96485c.46094.59375.42968 1.7656.008 2.7539m4.7656-12.848c.14844.46875.17187.88281 0 1.2226m.0703 2.6836c.15233.46875.17578.88672 0 1.2226m-.29297 2.2344c.15234.46875.17577.88672 0 1.2227m-.17969 2.0391c.15234.46875.17578.88672 0 1.2226m-5.0859-7.9141c-1.9844.0664-1.6445 3.7344-1.6445 3.7344m-83.191-81.297c.59375-1.2227 2.2812-2.4453 4.1602-2.4453 1.7812 0 3.5625 2.4453 3.5625 2.4453m10.105.25781s1.8516-2.8711 3.8711-2.8945c2.0039-.02734 3.6523 1.1758 4.0898 1.8555m-9.1523 2.0039c.59375 1.8359 1.7617 3.8984 4.7539 3.668m-22.578-2.4453c-.39062 2.1562 4.1562 3.0586 4.1562 3.0586m1.6523-5.4023c.08594.29297.13281.61328.13281.94922 0 1.4453-.86328 2.6172-1.9297 2.6172-1.0625 0-1.9258-1.1719-1.9258-2.6172 0-.50781.10547-.98047.28906-1.3828m21.187-.56641c.17969.39844.28125.86719.28125 1.3672 0 1.4453-.86328 2.6172-1.9297 2.6172-1.0625 0-1.9258-1.1719-1.9258-2.6172 0-.44922.082-.875.23047-1.2422m-9.5234 26.445c1.7812-1.2227 4.1602-.60938 4.7539 0" stroke-width=".36161"/>
 </g>
 <g>
  <path d="m141.53 141.62c-.14063 2.0898.29297 2.2617.61328 3.1875l-2.3086-.20313c.47656-.85547.93359-.94922 1.1602-3.0312.004-.0469-.0312-.0898-.082-.0937-.0469-.008-.0898.0312-.0937.0781-.22656.8125-.96484 1.375-1.8086 1.375-.84375-.004-1.582-.56641-1.8047-1.3828-.21875-.8125.12891-1.6719.85547-2.1016s1.6523-.32031 2.2539.26953c.0352.0273.0859.0273.11718 0 .0352-.0273.043-.0781.0195-.11328-.78125-.51953-1.1094-1.5-.80078-2.3867.3086-.88281 1.1797-1.4453 2.1133-1.3633.9336.082 1.6953.78516 1.8438 1.7109.15235.92578-.34375 1.832-1.2031 2.207-.0273.0352-.0312.0859 0 .11719.0273.0352.0781.043.11328.0195.69922-.47266 1.625-.42188 2.2695.12891.64063.54687.83594 1.4531.47656 2.2188-.35937.76171-1.1875 1.1914-2.0156 1.0469-.83203-.14453-1.4609-.82812-1.543-1.668.004-.0469-.0312-.0898-.082-.0977-.0469-.004-.0898.0352-.0937.082z"/>
  <path d="m145.33 124.75c-.5 2.0352-.10156 2.2773.0547 3.2422l-2.2383-.59765c.61718-.75781 1.082-.77344 1.668-2.7852.0117-.0469-.0156-.0937-.0625-.10937-.0469-.0117-.0977.0156-.10938.0625-.36328.76172-1.1914 1.1875-2.0195 1.0391-.83203-.14844-1.457-.83203-1.5352-1.6719-.0781-.83984.41797-1.625 1.207-1.9219.78907-.29688 1.6797-.0273 2.1719.65625.0273.0352.0781.043.11719.0195.0391-.0195.0547-.0664.0391-.10937-.67969-.64454-.83594-1.668-.375-2.4883.45703-.8164 1.4102-1.2188 2.3164-.97656s1.5312 1.0703 1.5195 2.0078c-.0117.9336-.65625 1.7461-1.5703 1.9648-.0312.0273-.043.0781-.0195.11328.0195.0391.0703.0547.10938.0391.76953-.34375 1.6758-.13281 2.2109.51953.53515.65235.57031 1.5781.082 2.2695-.48438.6875-1.3711.96485-2.1641.67969-.79296-.28515-1.2969-1.0664-1.2305-1.9062.0117-.0508-.0156-.0977-.0625-.10937-.0469-.0156-.0977.0156-.10938.0625z"/>
  <path d="m152.82 110.05c-.84766 1.918-.5 2.2266-.51172 3.2031l-2.1016-.98047c.74218-.63672 1.2031-.57031 2.1289-2.4492.0195-.043 0-.0977-.0469-.11718-.043-.0234-.0977-.004-.11719.043-.48828.6875-1.375.96094-2.168.67188s-1.293-1.0742-1.2226-1.9141c.0703-.83985.69531-1.5312 1.5234-1.6836.82813-.15625 1.6602.26563 2.0274 1.0234.0195.0391.0664.0547.10937.043.043-.0156.0664-.0586.0547-.10547-.55469-.75391-.52734-1.7891.0625-2.5117.59375-.72656 1.6055-.95703 2.4531-.5625.85157.39844 1.3242 1.3203 1.1484 2.2383-.17187.92188-.94922 1.6094-1.8867 1.668-.0391.0195-.0547.0664-.0391.10547.0156.043.0586.0664.10156.0586.81641-.20703 1.6719.16016 2.0859.89454.41406.73437.28906 1.6562-.3125 2.25-.59766.59375-1.5195.71484-2.25.29296-.73047-.41796-1.0898-1.2773-.87891-2.0938.0195-.043 0-.0977-.043-.11718-.043-.0195-.0977 0-.11719.043z"/>
 </g>
 <path d="m46.539 208.21v10.297m0-19.938v9.6406m0-18.441v8.8008m0 22.902v41.168m-3.5625-89.066v85.398m1.1875-84.715v85.938m1.1875-85.156v86.379m1.1875-85.484v6.4219m1.1914 69.277v1.3594m0-8.168v6.8086m0-17.133v3.3125m0-11.855v8.543m-.66406-65.273c-.46094-.59375-.54688-1.168-.29297-2.9102m-.23438-.86719c-.46094-.59375-.79688-1.7148-.30079-2.9805m.49219.14844c-.46484-.59765-.55469-1.8672-.10937-2.9062m.53125-.96484c-.46094-.59375-.42969-1.7656-.0078-2.7539m-4.7656 12.848c-.14844-.46875-.17188-.88281 0-1.2227m-.07031-2.6836c-.15234-.46875-.17578-.88672 0-1.2227m.29297-2.2344c-.15234-.46875-.17577-.88672 0-1.2227m.1797-2.0391c-.15235-.46875-.17578-.88672 0-1.2226m5.0859 7.914c1.9844-.0664 1.6445-3.7344 1.6445-3.7344m83.191 81.297c-.59375 1.2226-2.2812 2.4453-4.1602 2.4453-1.7812 0-3.5625-2.4453-3.5625-2.4453m-10.105-.25782s-1.8516 2.8711-3.8711 2.8945c-2.0039.0273-3.6523-1.1758-4.0898-1.8555m9.1523-2.0039c-.59375-1.8359-1.7617-3.8984-4.7539-3.668m22.578 2.4453c.39062-2.1562-4.1562-3.0586-4.1562-3.0586m-1.6523 5.4023c-.0859-.29296-.13281-.61328-.13281-.94921 0-1.4453.86328-2.6172 1.9297-2.6172 1.0625 0 1.9258 1.1719 1.9258 2.6172 0 .50781-.10547.98047-.28906 1.3828m-21.187.56641c-.17969-.39844-.28125-.86719-.28125-1.3672 0-1.4453.86328-2.6172 1.9297-2.6172 1.0625 0 1.9258 1.1719 1.9258 2.6172 0 .44922-.082.875-.23047 1.2422m9.5234-26.445c-1.7812 1.2227-4.1602.60938-4.7539 0" fill="none" stroke="#4242ff" stroke-linecap="round" stroke-linejoin="round" stroke-width=".36161"/>
 <g>
  <path d="m83.469 173.38c.14062-2.0898-.29297-2.2617-.61328-3.1875l2.3086.20313c-.47656.85547-.93359.94922-1.1602 3.0312-.0039.0469.03125.0898.08203.0937.04687.008.08984-.0312.09375-.0781.22656-.8125.96484-1.375 1.8086-1.375.84375.004 1.582.56641 1.8047 1.3828.21875.8125-.12891 1.6719-.85547 2.1016-.72656.42968-1.6523.32031-2.2539-.26953-.03516-.0273-.08594-.0273-.11719 0-.03516.0273-.04297.0781-.01953.11328.78125.51953 1.1094 1.5.80078 2.3867-.30859.88281-1.1797 1.4453-2.1133 1.3633-.93359-.082-1.6953-.78516-1.8438-1.7109-.15234-.92578.34375-1.832 1.2031-2.207.02734-.0352.03125-.0859 0-.11719-.02734-.0352-.07813-.043-.11328-.0195-.69922.47266-1.625.42187-2.2695-.12891-.64063-.54687-.83594-1.4531-.47656-2.2188.35938-.76172 1.1875-1.1914 2.0156-1.0469.83203.14453 1.4609.82812 1.543 1.668-.0039.0469.03125.0898.08203.0977.04687.004.08984-.0352.09375-.082z"/>
  <path d="m79.668 190.25c.5-2.0352.10156-2.2773-.05469-3.2422l2.2383.59765c-.61719.75781-1.082.77344-1.668 2.7852-.01172.0469.01563.0937.0625.10937.04687.0117.09766-.0156.10938-.0625.36328-.76172 1.1914-1.1875 2.0195-1.0391.83203.14844 1.457.83203 1.5352 1.6719.07813.83984-.41797 1.625-1.207 1.9219-.78906.29688-1.6797.0273-2.1719-.65625-.02734-.0352-.07813-.043-.11719-.0195-.03906.0195-.05469.0664-.03906.10937.67969.64454.83594 1.668.375 2.4883-.45703.8164-1.4102 1.2188-2.3164.97656s-1.5312-1.0703-1.5195-2.0078c.01172-.9336.65625-1.7461 1.5703-1.9648.03125-.0273.04297-.0781.01953-.11328-.01953-.0391-.07031-.0547-.10938-.0391-.76953.34375-1.6758.13281-2.2109-.51953-.53516-.65235-.57031-1.5781-.08203-2.2695.48438-.6875 1.3711-.96485 2.1641-.67969.79297.28515 1.2969 1.0664 1.2305 1.9062-.01172.0508.01563.0977.0625.10937.04687.0156.09766-.0156.10938-.0625z"/>
  <path d="m72.176 204.95c.84766-1.918.5-2.2266.51172-3.2031l2.1016.98047c-.74219.63672-1.2031.57031-2.1289 2.4492-.01953.043 0 .0977.04687.11718.04297.0234.09766.004.11719-.043.48828-.6875 1.375-.96094 2.168-.67188.79297.28906 1.293 1.0742 1.2227 1.9141-.07031.83985-.69531 1.5312-1.5234 1.6836-.82812.15625-1.6602-.26563-2.0273-1.0234-.01953-.0391-.06641-.0547-.10937-.043-.04297.0156-.06641.0586-.05469.10547.55469.75391.52734 1.7891-.0625 2.5117-.59375.72656-1.6055.95703-2.4531.5625-.85156-.39844-1.3242-1.3203-1.1484-2.2383.17187-.92188.94922-1.6094 1.8867-1.668.03906-.0195.05469-.0664.03906-.10547-.01563-.043-.05859-.0664-.10156-.0586-.81641.20703-1.6719-.16016-2.0859-.89454-.41406-.73437-.28906-1.6562.3125-2.25.59766-.59375 1.5195-.71484 2.25-.29296.73047.41796 1.0898 1.2773.87891 2.0938-.01953.043 0 .0977.04297.11718.04297.0195.09766 0 .11719-.043z"/>
 </g>
 <path d="m11.699 12.449h6m-3 0v27.602m-3 0h6m5.1016-27.602h6m-3 .60156-10.652 17.848m7.6523 9.1523h6m-3-.60156-5.8516-15.301" fill="none" stroke="#000" stroke-linecap="square" stroke-miterlimit="1.5" stroke-width="2.4"/>
 <path d="m20.879 61.621c.10547 4.9141 1.1484 5.2305 2.0898 7.3203h-5.4375c.94141-2.0898 1.9883-2.4062 2.0938-7.3203 0-.11328-.09375-.20703-.21094-.20703-.11719 0-.21094.09375-.21094.20703-.35547 1.9453-1.9727 3.4141-3.9453 3.582-1.9688.16797-3.8086-1.0039-4.4922-2.8594s-.04297-3.9414 1.5664-5.0898c1.6094-1.1523 3.7891-1.082 5.3242.16406.08594.0625.19922.05469.27344-.01953.07422-.07422.08203-.1875.01953-.27344-1.9297-1.0508-2.9023-3.2773-2.3594-5.4102.54297-2.1328 2.4609-3.625 4.6602-3.625s4.1172 1.4922 4.6602 3.625c.54297 2.1328-.42578 4.3594-2.3594 5.4102-.0625.08594-.05469.19922.01953.27344.07422.07422.19141.08203.27344.01953 1.5352-1.2461 3.7148-1.3164 5.3242-.16406 1.6094 1.1484 2.25 3.2344 1.5703 5.0898-.68359 1.8555-2.5273 3.0273-4.4961 2.8594-1.9727-.16797-3.5859-1.6367-3.9453-3.582 0-.11328-.09375-.20703-.21094-.20703-.11328 0-.20703.09375-.20703.20703z"/>
 <path d="m58.723 66.227c.21875 10.223 2.3906 10.875 4.3477 15.223h-11.309c1.957-4.3477 4.1328-5 4.3516-15.223 0-.24219-.19531-.4375-.4375-.4375-.23828 0-.43359.19531-.43359.4375-.74609 4.0469-4.1055 7.0938-8.207 7.4414-4.0977.35156-7.9258-2.082-9.3477-5.9453-1.4219-3.8594-.08594-8.1953 3.2617-10.586 3.3477-2.3945 7.8828-2.25 11.074.34375.17187.13281.41406.11328.56641-.03906.15625-.15234.17188-.39453.04297-.57031-4.0195-2.1875-6.0391-6.8203-4.9102-11.254 1.1289-4.4336 5.1211-7.5352 9.6953-7.5352s8.5664 3.1016 9.6953 7.5352c1.1289 4.4336-.89453 9.0664-4.9102 11.254-.12891.17578-.11328.41797.03906.57031.15234.15234.39453.17188.57031.03906 3.1914-2.5938 7.7266-2.7383 11.074-.34375 3.3477 2.3906 4.6836 6.7266 3.2617 10.586-1.4219 3.8633-5.25 6.2969-9.3516 5.9453-4.0977-.34766-7.457-3.3945-8.2031-7.4414 0-.24219-.19531-.4375-.4375-.4375-.23828 0-.43359.19531-.43359.4375z"/>
 <path d="m213.3 302.55h-6m3 0v-27.602m3 0h-6m-5.1016 27.602h-6m3-.60156 10.652-17.848m-7.6523-9.1523h-6m3 .60156 5.8516 15.301" fill="none" stroke="#000" stroke-linecap="square" stroke-miterlimit="1.5" stroke-width="2.4"/>
 <path d="m204.12 253.38c-.10547-4.9141-1.1484-5.2305-2.0898-7.3203h5.4375c-.94141 2.0898-1.9883 2.4062-2.0938 7.3203 0 .11328.0937.20703.21094.20703.11718 0 .21093-.0937.21093-.20703.35547-1.9453 1.9727-3.4141 3.9453-3.582 1.9688-.16796 3.8086 1.0039 4.4922 2.8594.6836 1.8555.043 3.9414-1.5664 5.0898-1.6094 1.1524-3.7891 1.082-5.3242-.16406-.0859-.0625-.19922-.0547-.27344.0195-.0742.0742-.082.1875-.0195.27344 1.9297 1.0508 2.9023 3.2773 2.3594 5.4102-.54297 2.1328-2.4609 3.625-4.6602 3.625s-4.1172-1.4922-4.6602-3.625c-.54297-2.1328.42578-4.3594 2.3594-5.4102.0625-.0859.0547-.19922-.0195-.27344-.0742-.0742-.19141-.082-.27344-.0195-1.5352 1.2461-3.7148 1.3164-5.3242.16406-1.6094-1.1484-2.25-3.2344-1.5703-5.0898.68359-1.8555 2.5273-3.0273 4.4961-2.8594 1.9727.16797 3.5859 1.6367 3.9453 3.582 0 .11328.0937.20703.21094.20703.11328 0 .20703-.0937.20703-.20703z"/>
 <path d="m166.28 248.77c-.21875-10.223-2.3906-10.875-4.3476-15.223h11.309c-1.957 4.3477-4.1328 5-4.3516 15.223 0 .24218.19531.4375.4375.4375.23828 0 .43359-.19532.43359-.4375.7461-4.0469 4.1055-7.0938 8.207-7.4414 4.0977-.35156 7.9258 2.082 9.3477 5.9453 1.4219 3.8594.0859 8.1953-3.2617 10.586-3.3477 2.3945-7.8828 2.25-11.074-.34375-.17187-.13281-.41406-.11328-.5664.0391-.15625.15235-.17188.39453-.043.57032 4.0195 2.1875 6.0391 6.8203 4.9102 11.254-1.1289 4.4336-5.1211 7.5352-9.6953 7.5352s-8.5664-3.1016-9.6953-7.5352c-1.1289-4.4336.89453-9.0664 4.9102-11.254.12891-.17579.11329-.41797-.0391-.57032-.15234-.15234-.39453-.17187-.57031-.0391-3.1914 2.5938-7.7266 2.7383-11.074.34375-3.3477-2.3906-4.6836-6.7266-3.2617-10.586 1.4219-3.8633 5.25-6.2969 9.3516-5.9453 4.0977.34766 7.457 3.3945 8.2031 7.4414 0 .24218.19531.4375.4375.4375.23828 0 .43359-.19532.43359-.4375z"/>
 <path d="m35.25 35.25h154.5v244.5h-154.5z" fill="none" stroke="#4242ff" stroke-width=".9375"/>
</svg>
