<svg width="225px" height="315px" version="1.1" viewBox="0 0 225 315" xmlns="http://www.w3.org/2000/svg">
 <path d="m11.719.46875h201.56c6.2148 0 11.25 5.0352 11.25 11.25v291.56c0 6.2148-5.0352 11.25-11.25 11.25h-201.56c-6.2148 0-11.25-5.0352-11.25-11.25v-291.56c0-6.2148 5.0352-11.25 11.25-11.25z" fill="#fff"/>
 <path d="m12.75 16.648v-4.1992h13.5l-9.3008 11.402c.30078-.30078 1.8008-1.2031 3.3008-1.2031 6 0 7.5 3.6016 7.5 8.1016 0 6-2.3984 9.3008-8.3984 9.3008s-6.9023-4.8008-6.9023-4.8008" fill="none" stroke="#f00" stroke-linecap="square" stroke-miterlimit="1.5" stroke-width="2.4"/>
 <g fill="#f00">
  <path d="m11.887 58.484c1.043 0 8.3633-9.4102 8.3633-10.457 0 1.0469 7.3203 10.457 8.3672 10.457-1.0469 0-8.3672 9.4102-8.3672 10.457 0-1.0469-7.3203-10.457-8.3633-10.457z"/>
  <path d="m90.625 63.281c2.7344 0 21.875-24.609 21.875-27.344 0 2.7344 19.141 27.344 21.875 27.344-2.7344 0-21.875 24.609-21.875 27.344 0-2.7344-19.141-27.344-21.875-27.344z"/>
  <path d="m90.625 157.5c2.7344 0 21.875-24.609 21.875-27.344 0 2.7344 19.141 27.344 21.875 27.344-2.7344 0-21.875 24.609-21.875 27.344 0-2.7344-19.141-27.344-21.875-27.344z"/>
 </g>
 <path d="m212.25 298.35v4.1992h-13.5l9.3008-11.402c-.30078.30078-1.8008 1.2031-3.3008 1.2031-6 0-7.5-3.6016-7.5-8.1016 0-6 2.3984-9.3008 8.3984-9.3008s6.9023 4.8008 6.9023 4.8008" fill="none" stroke="#f00" stroke-linecap="square" stroke-miterlimit="1.5" stroke-width="2.4"/>
 <path d="m213.11 256.52c-1.043 0-8.3633 9.4102-8.3633 10.457 0-1.0469-7.3203-10.457-8.3672-10.457 1.0469 0 8.3672-9.4102 8.3672-10.457 0 1.0469 7.3203 10.457 8.3633 10.457z" fill="#f00"/>
 <path d="m134.38 251.72c-2.7344 0-21.875 24.609-21.875 27.344 0-2.7344-19.141-27.344-21.875-27.344 2.7344 0 21.875-24.609 21.875-27.344 0 2.7344 19.141 27.344 21.875 27.344z" fill="#f00"/>
</svg>
