<svg width="225px" height="315px" version="1.1" viewBox="0 0 225 315" xmlns="http://www.w3.org/2000/svg">
 <path d="m11.719.46875h201.56c6.2148 0 11.25 5.0352 11.25 11.25v291.56c0 6.2148-5.0352 11.25-11.25 11.25h-201.56c-6.2148 0-11.25-5.0352-11.25-11.25v-291.56c0-6.2148 5.0352-11.25 11.25-11.25z" fill="#fff"/>
 <path d="m27.75 23.25c0 4.1406-3.3594 7.5-7.5 7.5s-7.5-3.3594-7.5-7.5v-3.3008c0-4.1406 3.3594-7.5 7.5-7.5s7.5 3.3594 7.5 7.5v12.602c0 4.1406-3.3594 7.5-7.5 7.5-4.5 0-5.3984-1.8008-6-2.5508" fill="none" stroke="#f00" stroke-linecap="square" stroke-miterlimit="1.5" stroke-width="2.4"/>
 <g fill="#f00">
  <path d="m11.887 58.484c1.043 0 8.3633-9.4102 8.3633-10.457 0 1.0469 7.3203 10.457 8.3672 10.457-1.0469 0-8.3672 9.4102-8.3672 10.457 0-1.0469-7.3203-10.457-8.3633-10.457z"/>
  <path d="m41.406 63.281c2.7344 0 21.875-24.609 21.875-27.344 0 2.7344 19.141 27.344 21.875 27.344-2.7344 0-21.875 24.609-21.875 27.344 0-2.7344-19.141-27.344-21.875-27.344z"/>
  <path d="m139.84 63.281c2.7344 0 21.875-24.609 21.875-27.344 0 2.7344 19.141 27.344 21.875 27.344-2.7344 0-21.875 24.609-21.875 27.344 0-2.7344-19.141-27.344-21.875-27.344z"/>
  <path d="m41.406 126.09c2.7344 0 21.875-24.609 21.875-27.344 0 2.7344 19.141 27.344 21.875 27.344-2.7344 0-21.875 24.609-21.875 27.344 0-2.7344-19.141-27.344-21.875-27.344z"/>
  <path d="m139.84 126.09c2.7344 0 21.875-24.609 21.875-27.344 0 2.7344 19.141 27.344 21.875 27.344-2.7344 0-21.875 24.609-21.875 27.344 0-2.7344-19.141-27.344-21.875-27.344z"/>
  <path d="m90.625 157.5c2.7344 0 21.875-24.609 21.875-27.344 0 2.7344 19.141 27.344 21.875 27.344-2.7344 0-21.875 24.609-21.875 27.344 0-2.7344-19.141-27.344-21.875-27.344z"/>
 </g>
 <path d="m197.25 291.75c0-4.1406 3.3594-7.5 7.5-7.5 4.1406 0 7.5 3.3594 7.5 7.5v3.3008c0 4.1406-3.3594 7.5-7.5 7.5-4.1406 0-7.5-3.3594-7.5-7.5v-12.602c0-4.1406 3.3594-7.5 7.5-7.5 4.5 0 5.3984 1.8008 6 2.5508" fill="none" stroke="#f00" stroke-linecap="square" stroke-miterlimit="1.5" stroke-width="2.4"/>
 <g fill="#f00">
  <path d="m213.11 256.52c-1.043 0-8.3633 9.4102-8.3633 10.457 0-1.0469-7.3203-10.457-8.3672-10.457 1.0469 0 8.3672-9.4102 8.3672-10.457 0 1.0469 7.3203 10.457 8.3633 10.457z"/>
  <path d="m183.59 251.72c-2.7344 0-21.875 24.609-21.875 27.344 0-2.7344-19.141-27.344-21.875-27.344 2.7344 0 21.875-24.609 21.875-27.344 0 2.7344 19.141 27.344 21.875 27.344z"/>
  <path d="m85.156 251.72c-2.7344 0-21.875 24.609-21.875 27.344 0-2.7344-19.141-27.344-21.875-27.344 2.7344 0 21.875-24.609 21.875-27.344 0 2.7344 19.141 27.344 21.875 27.344z"/>
  <path d="m183.59 188.91c-2.7344 0-21.875 24.609-21.875 27.344 0-2.7344-19.141-27.344-21.875-27.344 2.7344 0 21.875-24.609 21.875-27.344 0 2.7344 19.141 27.344 21.875 27.344z"/>
  <path d="m85.156 188.91c-2.7344 0-21.875 24.609-21.875 27.344 0-2.7344-19.141-27.344-21.875-27.344 2.7344 0 21.875-24.609 21.875-27.344 0 2.7344 19.141 27.344 21.875 27.344z"/>
 </g>
</svg>
