<svg width="225px" height="315px" version="1.1" viewBox="0 0 225 315" xmlns="http://www.w3.org/2000/svg">
 <path d="m11.719.46875h201.56c6.2148 0 11.25 5.0352 11.25 11.25v291.56c0 6.2148-5.0352 11.25-11.25 11.25h-201.56c-6.2148 0-11.25-5.0352-11.25-11.25v-291.56c0-6.2148 5.0352-11.25 11.25-11.25z" fill="#fff"/>
 <path d="m90.625 157.5c2.7344 0 21.875-24.609 21.875-27.344 0 2.7344 19.141 27.344 21.875 27.344-2.7344 0-21.875 24.609-21.875 27.344 0-2.7344-19.141-27.344-21.875-27.344z" fill="#f00"/>
 <path d="m12.148 40.051h4.8008m-2.6992-.30078 6-27.301 6 27.301m-2.6992.30078h4.8008m-11.703-9.9023h7.2031" fill="none" stroke="#f00" stroke-linecap="square" stroke-miterlimit="1.5" stroke-width="2.4"/>
 <path d="m11.887 58.484c1.043 0 8.3633-9.4102 8.3633-10.457 0 1.0469 7.3203 10.457 8.3672 10.457-1.0469 0-8.3672 9.4102-8.3672 10.457 0-1.0469-7.3203-10.457-8.3633-10.457z" fill="#f00"/>
 <path d="m212.85 274.95h-4.8008m2.6992.30078-6 27.301-6-27.301m2.6992-.30078h-4.8008m11.703 9.9023h-7.2031" fill="none" stroke="#f00" stroke-linecap="square" stroke-miterlimit="1.5" stroke-width="2.4"/>
 <path d="m213.11 256.52c-1.043 0-8.3633 9.4102-8.3633 10.457 0-1.0469-7.3203-10.457-8.3672-10.457 1.0469 0 8.3672-9.4102 8.3672-10.457 0 1.0469 7.3203 10.457 8.3633 10.457z" fill="#f00"/>
</svg>
