<svg width="225px" height="315px" version="1.1" viewBox="0 0 225 315" xmlns="http://www.w3.org/2000/svg">
 <g>
  <path d="m11.719.46875h201.56c6.2148 0 11.25 5.0352 11.25 11.25v291.56c0 6.2148-5.0352 11.25-11.25 11.25h-201.56c-6.2148 0-11.25-5.0352-11.25-11.25v-291.56c0-6.2148 5.0352-11.25 11.25-11.25z" fill="#fff"/>
  <path d="m164.01 35.25c-2.6914 4.1328-5.8477 8.1133-6.4102 12.898l3.0156 4.4062.47265-.50391c-.75-1.3672-.71093-3.2734 1.1289-5.1836 3.8203-3.9727 10.152 4.5664 16.836-.61328-5.9414 6.1094.80468 15.211-3.5352 18.258-3.0156 2.1133-5.2812 1.2461-6.3633-.43359l-.40625.37891c1.0625 1.5586 2.125 3.1133 3.1602 4.6289 3.0664.5625 6.0117.74219 8.332-.82813 1.7461 3.2031 5.3828 3.5078 8.3203 4.8906-7.2969.03906-14.32.46094-18.344 5.168l-29.422-43.066zm-49.547 0-1.0469 3.1133c-14.066 19.719-25.852 31.855-27.863 67.164l-3.7188 3.1602c1.5039-39.281 14.73-52.738 29.375-73.438zm-5.8594 28.258.39062 6.2539c-.42578.74219-.83203 1.4922-1.2266 2.2539-2.8906 5.5742-5.0976 11.77-6.5039 20.203l-4.1055 3.4688c1.8828-14.652 5.8438-23.574 11.445-32.18zm47.816 20.988 1.3242 3.418c-10.738 3.9141-21.199 6.5-32.234 7.0234 2.543-1.1992 5.0938-2.5625 7.1914-2.2305 2.8867.46094 5.7852-1.2109 8.2617-3.6016 5.1016-1.1406 10.223-2.7109 15.457-4.6094zm1.3281 3.4297c3.0078 7.0195 7.2109 12.562 12.215 16.762-13.801 5.4727-27.953 9.3281-43.164 10.191l.26953-.004-12.066 25.715-11.41-.89843c8.75 1.5156 18.398 1.3281 29.598-1.8086l-.72657 3.9844c-19.055 4.9062-34.211 1.5508-47.535-4.0742l1.2969-3.4141c5.4844 2.3242 11.184 4.2344 17.324 5.3047l11.602-24.719.49219-.004c-10.633-.44141-21.824-2.3906-33.797-6.2812l18.656-15.793 3.5976-3.0312c3.8281.70312 7.5195 1.1602 11.066 1.3281.9375 1.4297 1.9609 2.7539 3.0469 3.7891-4.8398-.05859-9.9141-.58984-15.227-1.5898 5.3125 1 10.395 1.5391 15.293 1.6523.88672.82422 1.7656 1.3398 2.5391 1.3398 1.3945 0 2.9805-.64844 4.6133-1.3984 11.113-.5625 21.574-3.1484 32.316-7.0508zm-103.28 8.3594c2.707.09375 5.6836 4.8828.98438 6.2031 6.5391 1.832-1.7812 10.391-3.5664 3.668-1.7812 6.7227-10.102-1.8359-3.5625-3.668-6.5391-1.8359 1.7812-10.391 3.5625-3.668.50391-1.8906 1.5234-2.5742 2.582-2.5352zm-16.18 12.766c2.8047-.0625 4.7305 1.9609 6.4688 4.4375l-1.7812 1.2227c-2.8867-1.3047-5.5078-2.7656-5.9453-5.5.44141-.0977.85938-.14844 1.2578-.16016zm26.312 3.082c2.0781.008 4.1758.92969 6.3008 3.1914-4.7148.60547-6.5039 5.4219-16.391 2.5195l-.19922-.11719c3.4023-3.0781 6.8203-5.6016 10.289-5.5938zm3.3125 8.3672 15.785 19.586c-2.3828 3.3242-4.7188 6.1094-6.9609 8.7383 3.4414 5.2969 5.457 11.586 5.457 18.457 0 11.621-5.8008 21.711-14.625 27.633l-1.8633 1.25-6.4102-6.5508c.22656-2.3672.49609-4.5742.82812-6.5859.48047.13282.96094.16016 1.4531.1211 7.4219-.45313 12.891-7.1445 12.891-14.645 0-3.582-1.2031-7.0586-3.4883-9.7969-.38281-.47266-.82812-.875-1.2539-1.2305-5.0156 7.0156-8.875 15.613-10.457 32.09l-20.289-20.891-1.7852-1.8203c0-.004 0-.008.0039-.0156l-1.9492-2.0039 1.9492 2.0039c.82031-4.5664 2.1289-8.875 4.6406-12.395 2.0664-2.8945 4.9648-5.1758 8.875-6.5039.70703-.54297 1.8711-1.0352 3.5547-1.3477.05469 2.6211 2.1055 4.7344 4.6523 4.7891-1.3516 7.7969-6.4102 4.7891-5.25.61719-1.7227.50391-3.2383-.14063-3.8281-1.1562-2.6406 1.2109-4.5859 2.9453-6.0859 5.0508-1.7305 2.418-2.8594 5.3945-3.5938 8.6016 2.0078-2.8594 4.9062-.30468 4 2.9609 2.2227-.65625 4.1055.61328 4.1055 2.1328 2.3555-.83593 4.4297-1.9805 6.1055-3.5469 3.0156-2.8203 4.918-7.0742 4.8945-13.91-.05078-.20312-.10547-.46484-.15625-.75 2.5859-.0547 4.6562-2.2226 4.6602-4.8867 0-2.6992-2.1289-4.8867-4.7539-4.8867-2.5859 0-4.6992 2.1289-4.75 4.7891-7.582-1.3906-4.6562-6.5938-.59766-5.4024-1.0859-3.9102 3.2852-6.8008 4.9883-.57031.78516-3.7812 1.9297-7.5195 3.9336-10.699l-27.344 23.176v-4.75zm.44922 6.3828c-1.2656.95703-2.3203 2.082-3.2148 3.3359-1.3438 1.8867-2.3281 4.1094-2.9961 6.5547 1.5742-.0703 2.8594 1.8945 2.2148 4.2226 2.8672-.84375 5.1719 1.5117 3.5938 3.4688 3.0664-.875 5.7422-2.1602 7.8047-4.0938.66797-.625 1.2812-1.3164 1.8281-2.0938zm-25.25 1.2188 1.8711.26953c-1.6367 3.4609-4.0703 6.2695-1.7266 13l-1.4766 1.1797c-1.5078-4.0508-1.5117-7.1602-.80469-9.6406.55469-1.9414 1.4297-3.4336 2.1367-4.8086zm26.008 6.1719c.98438 0 1.7812.82031 1.7812 1.832s-.79688 1.8359-1.7812 1.8359-1.7812-.82422-1.7812-1.8359.79688-1.832 1.7812-1.832zm9.3242 6.793c-.34375.39062-.70312.76171-1.0781 1.1133-2.9648 2.7734-6.7891 4.3008-10.938 5.2422 4.0273 1.9688 1.3945 5.5938-2.0625 4.5781.77344 2.7773-1.2109 5.0391-2.9922 3.9531-.58203 5.3555-2.5195 9.2031-5.4023 11.898-3.2891 3.082-7.6406 4.6211-12.387 5.5195l-4.3203-4.4023 16.805 17.289c1.6172-13.609 4.9844-22.129 9.3281-28.812 3.9648-6.1016 8.4727-10.559 13.047-16.379zm6.4453.66406c13.172 5.3398 28.582 8.4844 47.254 3.9883l-.0391 3.7656c-17.008 3.8906-31.656 1.6836-44.133-2.6914zm-34.785 16.379c.98438 0 1.7812.82422 1.7812 1.8359s-.79688 1.832-1.7812 1.832-1.7812-.82031-1.7812-1.832.79688-1.8359 1.7812-1.8359zm3.5664 15.895c.98438 0 1.7812.82031 1.7812 1.832 0 1.0156-.79688 1.8359-1.7812 1.8359s-1.7852-.82031-1.7852-1.8359c0-1.0117.80078-1.832 1.7852-1.832z" fill="#ffcc42"/>
  <path d="m60.988 279.75c2.6914-4.1328 5.8477-8.1133 6.4102-12.898l-3.0156-4.4062-.47266.50391c.75 1.3672.71094 3.2734-1.1289 5.1836-3.8203 3.9727-10.152-4.5664-16.836.61328 5.9414-6.1094-.80469-15.211 3.5352-18.258 3.0156-2.1133 5.2812-1.2461 6.3633.43359l.40625-.3789c-1.0625-1.5586-2.125-3.1133-3.1602-4.6289-3.0664-.5625-6.0117-.74219-8.332.82813-1.7461-3.2031-5.3828-3.5078-8.3203-4.8906 7.2969-.0391 14.32-.46094 18.344-5.168l29.422 43.066zm49.547 0 1.0469-3.1133c14.066-19.719 25.852-31.855 27.863-67.164l3.7188-3.1602c-1.5039 39.281-14.73 52.738-29.375 73.438zm5.8594-28.258-.39062-6.2539c.42578-.74219.83203-1.4922 1.2266-2.2539 2.8906-5.5742 5.0977-11.77 6.5039-20.203l4.1055-3.4688c-1.8828 14.652-5.8438 23.574-11.445 32.18zm-47.816-20.988-1.3242-3.418c10.738-3.9141 21.199-6.5 32.234-7.0234-2.543 1.1992-5.0938 2.5625-7.1914 2.2305-2.8867-.46094-5.7852 1.2109-8.2617 3.6016-5.1016 1.1406-10.223 2.7109-15.457 4.6094zm-1.3281-3.4297c-3.0078-7.0195-7.2109-12.562-12.215-16.762 13.801-5.4727 27.953-9.3281 43.164-10.191l-.26953.004 12.066-25.715 11.41.89843c-8.75-1.5156-18.398-1.3281-29.598 1.8086l.72656-3.9844c19.055-4.9062 34.211-1.5508 47.535 4.0742l-1.2969 3.4141c-5.4844-2.3242-11.184-4.2344-17.324-5.3047l-11.602 24.719-.49219.004c10.633.44141 21.824 2.3906 33.797 6.2812l-18.656 15.793-3.5976 3.0312c-3.8281-.70312-7.5195-1.1602-11.066-1.3281-.9375-1.4297-1.9609-2.7539-3.0469-3.7891 4.8398.0586 9.9141.58985 15.227 1.5898-5.3125-1-10.395-1.5391-15.293-1.6524-.88672-.82422-1.7656-1.3398-2.5391-1.3398-1.3945 0-2.9805.64844-4.6133 1.3984-11.113.5625-21.574 3.1484-32.316 7.0508zm103.28-8.3594c-2.707-.0937-5.6836-4.8828-.98438-6.2031-6.5391-1.832 1.7812-10.391 3.5664-3.668 1.7812-6.7227 10.102 1.8359 3.5625 3.668 6.5391 1.8359-1.7812 10.391-3.5625 3.668-.50391 1.8906-1.5234 2.5742-2.582 2.5352zm16.18-12.766c-2.8047.0625-4.7305-1.9609-6.4688-4.4375l1.7812-1.2227c2.8867 1.3047 5.5078 2.7656 5.9453 5.5-.44141.0977-.85938.14844-1.2578.16016zm-26.312-3.082c-2.0781-.008-4.1758-.92969-6.3008-3.1914 4.7148-.60547 6.5039-5.4219 16.391-2.5195l.19922.11719c-3.4023 3.0781-6.8203 5.6016-10.289 5.5938zm-3.3125-8.3672-15.785-19.586c2.3828-3.3242 4.7188-6.1094 6.9609-8.7383-3.4414-5.2969-5.457-11.586-5.457-18.457 0-11.621 5.8008-21.711 14.625-27.633l1.8633-1.25 6.4102 6.5508c-.22656 2.3672-.49609 4.5742-.82812 6.5859-.48047-.13282-.96094-.16016-1.4531-.1211-7.4219.45313-12.891 7.1445-12.891 14.645 0 3.582 1.2031 7.0586 3.4883 9.7969.38281.47265.82813.875 1.2539 1.2305 5.0156-7.0156 8.875-15.613 10.457-32.09l20.289 20.891 1.7852 1.8203c0 .004 0 .008-.004.0156l1.9492 2.0039-1.9492-2.0039c-.82031 4.5664-2.1289 8.875-4.6406 12.395-2.0664 2.8945-4.9648 5.1758-8.875 6.5039-.70704.54297-1.8711 1.0352-3.5547 1.3477-.0547-2.6211-2.1055-4.7344-4.6524-4.7891 1.3516-7.7969 6.4102-4.7891 5.25-.61719 1.7227-.50391 3.2383.14062 3.8281 1.1562 2.6406-1.2109 4.5859-2.9453 6.0859-5.0508 1.7305-2.418 2.8594-5.3945 3.5938-8.6016-2.0078 2.8594-4.9062.30468-4-2.9609-2.2227.65625-4.1055-.61328-4.1055-2.1328-2.3555.83593-4.4297 1.9805-6.1055 3.5469-3.0156 2.8203-4.918 7.0742-4.8945 13.91.0508.20312.10547.46484.15625.75-2.5859.0547-4.6562 2.2226-4.6602 4.8867 0 2.6992 2.1289 4.8867 4.7539 4.8867 2.5859 0 4.6992-2.1289 4.75-4.7891 7.582 1.3906 4.6562 6.5938.59765 5.4024 1.0859 3.9102-3.2852 6.8008-4.9883.57031-.78515 3.7812-1.9297 7.5195-3.9336 10.699l27.344-23.176v4.75zm-.44922-6.3828c1.2656-.95703 2.3203-2.082 3.2148-3.3359 1.3438-1.8867 2.3281-4.1094 2.9961-6.5547-1.5742.0703-2.8594-1.8945-2.2148-4.2226-2.8672.84375-5.1719-1.5117-3.5938-3.4688-3.0664.875-5.7422 2.1602-7.8047 4.0938-.66796.625-1.2812 1.3164-1.8281 2.0938zm25.25-1.2188-1.8711-.26953c1.6367-3.4609 4.0703-6.2695 1.7266-13l1.4766-1.1797c1.5078 4.0508 1.5117 7.1602.80469 9.6406-.55469 1.9414-1.4297 3.4336-2.1367 4.8086zm-26.008-6.1719c-.98438 0-1.7812-.82031-1.7812-1.832s.79687-1.8359 1.7812-1.8359c.98437 0 1.7812.82422 1.7812 1.8359s-.79688 1.832-1.7812 1.832zm-9.3242-6.793c.34375-.39062.70312-.76172 1.0781-1.1133 2.9648-2.7734 6.7891-4.3008 10.938-5.2422-4.0273-1.9688-1.3945-5.5938 2.0625-4.5781-.77344-2.7773 1.2109-5.0391 2.9922-3.9531.58203-5.3555 2.5195-9.2031 5.4023-11.898 3.2891-3.082 7.6406-4.6211 12.387-5.5195l4.3203 4.4023-16.805-17.289c-1.6172 13.609-4.9844 22.129-9.3281 28.812-3.9648 6.1016-8.4726 10.559-13.047 16.379zm-6.4453-.66406c-13.172-5.3398-28.582-8.4844-47.254-3.9883l.03906-3.7656c17.008-3.8906 31.656-1.6836 44.133 2.6914zm34.785-16.379c-.98437 0-1.7812-.82421-1.7812-1.8359s.79688-1.832 1.7812-1.832c.98438 0 1.7812.82031 1.7812 1.832s-.79687 1.8359-1.7812 1.8359zm-3.5664-15.895c-.98437 0-1.7812-.82031-1.7812-1.832 0-1.0156.79688-1.8359 1.7812-1.8359.98438 0 1.7852.82032 1.7852 1.8359 0 1.0117-.80078 1.832-1.7852 1.832z" fill="#ffcc42"/>
  <path d="m140.8 35.25 48.953 71.656v15.848l-59.777-87.504zm-27.395 3.1523c-2.1094 6.2812-5.6562 17.129-5.6562 18.852 0 1.5977.50782 4.2305.85938 6.2344-5.6016 8.625-9.5625 17.547-11.445 32.199l-11.605 9.8398c2.0117-35.309 13.797-47.449 27.848-67.125zm-61.516 51.25c2.7109 0 5.418 2.25 3.2695 6.7539-1.2812-.39844-2.6562.11328-3.2695 2.4141-.60938-2.3008-1.9844-2.8125-3.2656-2.4141-2.1484-4.5039.55859-6.7539 3.2656-6.7539zm8.7812 8.6758c5.75-.05078 4.7969 11.387-2.8672 7.5234.38672-1.3203-.10938-2.7383-2.3477-3.3633 2.2383-.6289 2.7344-2.043 2.3477-3.3633 1.0938-.55078 2.0469-.79297 2.8672-.79688zm-17.559 0c.81641.0039 1.7734.24609 2.8672.79688-.38672 1.3203.10938 2.7344 2.3477 3.3633-2.2383.625-2.7344 2.043-2.3477 3.3633-7.6641 3.8633-8.6211-7.5742-2.8672-7.5234zm8.7773 2.1641c1.0625 0 1.9219.89062 1.9219 1.9961 0 1.1016-.85938 1.9961-1.9219 1.9961-1.0586 0-1.918-.89454-1.918-1.9961 0-1.1055.85938-1.9961 1.918-1.9961zm0 5.6641c.61328 2.3008 1.9883 2.8086 3.2695 2.4141 4.2969 9.0039-10.832 9.0039-6.5352 0 1.2812.39453 2.6562-.11328 3.2656-2.4141zm33.02 7.4102c8.5664 2.3945 16.805 3.9336 24.738 4.6758l-9.6445 20.703c-4.7812-1.0859-9.3477-2.6914-13.75-4.6094.84375-2.7031 1.293-5.5977 1.293-8.6211 0-4.3867-.94531-8.4961-2.6367-12.148zm60.301 2.5273c-5.8984 5.8477-10.164 13.402-12.027 21.836-4.9297 1.3359-9.5703 2.1484-14.051 2.4883l10.238-22.059c5.3828-.42188 10.664-1.1953 15.84-2.2656zm-86.187 27.348c1.6406 0 2.9727 1.3672 2.9727 3.0547s-1.332 3.0586-2.9727 3.0586-2.9727-1.3711-2.9727-3.0586 1.332-3.0547 2.9727-3.0547zm7.4219 19.285c1.3516 1.5469 2.0859 3.6211 2.0859 5.7774 0 4.543-3.207 8.293-7.3008 8.5312 1.3281-5.9024 3.0938-10.434 5.2148-14.309z" fill="#f00"/>
  <path d="m84.203 279.75-48.953-71.656v-15.848l59.777 87.504zm27.395-3.1523c2.1094-6.2812 5.6562-17.129 5.6562-18.852 0-1.5976-.50782-4.2305-.85938-6.2344 5.6016-8.625 9.5625-17.547 11.445-32.199l11.605-9.8398c-2.0117 35.309-13.797 47.449-27.848 67.125zm61.516-51.25c-2.7109 0-5.418-2.25-3.2695-6.7539 1.2812.39844 2.6562-.11328 3.2695-2.4141.60938 2.3008 1.9844 2.8125 3.2656 2.4141 2.1484 4.5039-.5586 6.7539-3.2656 6.7539zm-8.7812-8.6758c-5.75.0508-4.7969-11.387 2.8672-7.5234-.38672 1.3203.10937 2.7383 2.3476 3.3633-2.2383.6289-2.7344 2.043-2.3476 3.3633-1.0938.55078-2.0469.79297-2.8672.79687zm17.559 0c-.8164-.004-1.7734-.24609-2.8672-.79687.38672-1.3203-.10938-2.7344-2.3477-3.3633 2.2383-.625 2.7344-2.043 2.3477-3.3633 7.6641-3.8633 8.6211 7.5742 2.8672 7.5234zm-8.7773-2.1641c-1.0625 0-1.9219-.89062-1.9219-1.9961 0-1.1016.85937-1.9961 1.9219-1.9961 1.0586 0 1.918.89454 1.918 1.9961 0 1.1055-.85938 1.9961-1.918 1.9961zm0-5.6641c-.61328-2.3008-1.9883-2.8086-3.2695-2.4141-4.2969-9.0039 10.832-9.0039 6.5352 0-1.2812-.39453-2.6562.11328-3.2656 2.4141zm-33.02-7.4102c-8.5664-2.3945-16.805-3.9336-24.738-4.6758l9.6445-20.703c4.7812 1.0859 9.3477 2.6914 13.75 4.6094-.84375 2.7031-1.293 5.5977-1.293 8.6211 0 4.3867.94531 8.4961 2.6367 12.148zm-60.301-2.5273c5.8984-5.8477 10.164-13.402 12.027-21.836 4.9297-1.3359 9.5703-2.1484 14.051-2.4883l-10.238 22.059c-5.3828.42188-10.664 1.1953-15.84 2.2656zm86.188-27.348c-1.6406 0-2.9727-1.3672-2.9727-3.0547s1.332-3.0586 2.9727-3.0586c1.6406 0 2.9726 1.3711 2.9726 3.0586s-1.332 3.0547-2.9726 3.0547zm-7.4219-19.285c-1.3516-1.5469-2.0859-3.6211-2.0859-5.7774 0-4.543 3.207-8.293 7.3008-8.5312-1.3281 5.9024-3.0938 10.434-5.2148 14.309z" fill="#f00"/>
  <path d="m110.74 61.871 2.1211.36719c.20703.49609.33203 1.1328.33203 1.8242 0 1.5938-.66407 2.8906-1.4844 2.8906s-1.4844-1.2969-1.4844-2.8906c0-.87891.19922-1.6641.51562-2.1914zm18.102.05078c.82032 0 1.4883 1.293 1.4883 2.8906s-.66796 2.8906-1.4883 2.8906c-.82031 0-1.4844-1.293-1.4844-2.8906s.66406-2.8906 1.4844-2.8906zm27.188 21.422.39453 1.1523c-5.2344 1.8984-10.355 3.4688-15.488 4.6289l1.5234-1.6055c4.4844-1.1016 8.9766-2.5117 13.57-4.1758zm-50.715 5.4883c3.1172.53906 6.1445.91797 9.1016 1.1406l.79688 1.2734c-3.5898-.23047-7.2812-.6875-11.109-1.3906zm68.102 18.449c2.75 1.8438 5.7031 3.3203 8.7617 4.4062l7.5742 11.066v22.227l-31.402-32.293c5.1055-1.5547 10.125-3.375 15.066-5.4062zm-91.59 1.4102c3.5312 4.3164 5.7188 10.352 5.7188 17.023 0 5.4024-1.4336 10.383-3.8477 14.375l-15.789-19.582zm41.141 6.3594-11.875 25.492c-1.332-.0781-2.668-.19141-3.9062-.33985l11.879-25.145c1.2891.0156 2.5703.008 3.9023-.008zm22.242 1.0391c-5.1758 1.0742-10.457 1.8477-15.863 2.2617zm-26.172 1.957c-.65625 0-1.1875.54687-1.1875 1.2226s.53125 1.2227 1.1875 1.2227 1.1914-.54688 1.1914-1.2227-.53515-1.2226-1.1914-1.2226zm-2.6641 5.707c-.65625 0-1.1875.54687-1.1875 1.2226s.53125 1.2227 1.1875 1.2227 1.1875-.54688 1.1875-1.2227-.53125-1.2226-1.1875-1.2226zm-2.668 5.707c-.65625 0-1.1875.54687-1.1875 1.2226s.53125 1.2227 1.1875 1.2227 1.1914-.54688 1.1914-1.2227-.53515-1.2226-1.1914-1.2226zm-2.6641 5.707c-.65625 0-1.1875.54687-1.1875 1.2226 0 .67579.53125 1.2227 1.1875 1.2227s1.1875-.54687 1.1875-1.2227c0-.67578-.53125-1.2226-1.1875-1.2226zm-30.391 9.0195c.49219 0 .89062.41016.89062.91406 0 .50781-.39844.91797-.89062.91797-.49219 0-.89063-.41016-.89063-.91797 0-.5039.39844-.91406.89063-.91406zm-2.0391 2.4297 4.4453 1.1562.60547 1.2383-1.4844 3.7188 4.0391 2.1523.36719 1.2656-2.1523 3.9062 3.5117 2.9375.11328 1.3047-2.9609 3.5742 2.8164 4.2148-.1875 1.2461-3.7422 2.9883 1.8281 4.582-.46484 1.1875-4.2891 1.9414.65625 5.0664-.72656 1.0234-4.5859.85157-.35547 4.9102-.80859.84375-5.6484.54297.31641 3.1094-1.9922-1.9531-.19141-1.8867.80469-1.0078 5.7969-.55859.35156-4.8438.73047-.83204 4.4297-.82421-.63281-4.8789.52344-.96094 4.1055-1.8594-1.7539-4.3984.27734-1.0742 3.6133-2.8867-2.7305-4.082.05859-1.1172 2.8125-3.3945-3.3867-2.832-.21094-1.1641 2.0664-3.7539-3.9414-2.0976-.41406-1.1602 1.4023-3.5195-3.9648-1.0312c-.14453-.0352-.27344-.10547-.37891-.19922zm5.9414 4.5195c.49219 0 .89062.41015.89062.91797 0 .5039-.39844.91406-.89062.91406-.49219 0-.89062-.41016-.89062-.91406 0-.50782.39844-.91797.89062-.91797zm2.293 7.6016c.49219 0 .89062.41016.89062.91797s-.39844.91797-.89062.91797-.89062-.41016-.89062-.91797.39844-.91797.89062-.91797zm.66016 8.2305c.49219 0 .89062.41016.89062.91797s-.39844.91797-.89062.91797c-.49219 0-.89062-.41016-.89062-.91797s.39844-.91797.89062-.91797zm-1.1719 9.0352c.49219 0 .89062.41015.89062.91796 0 .50391-.39844.91407-.89062.91407-.49219 0-.89062-.41016-.89062-.91407 0-.50781.39844-.91796.89062-.91796zm-3.2188 8.5312c.49219 0 .89062.41015.89062.91796 0 .50391-.39844.91407-.89062.91407-.49219 0-.89453-.41016-.89453-.91407 0-.50781.40234-.91796.89453-.91796zm-4.9531 7.1992c.49219 0 .89062.41016.89062.91797 0 .50782-.39844.91797-.89062.91797-.49219 0-.89062-.41015-.89062-.91797 0-.50781.39844-.91797.89062-.91797zm-6.9023 6.375c.49219 0 .89063.41016.89063.91797 0 .50391-.39844.91407-.89063.91407-.49219 0-.89062-.41016-.89062-.91407 0-.50781.39844-.91797.89062-.91797z" fill="#4242ff"/>
  <path d="m114.26 253.13-2.1211-.36719c-.20704-.4961-.33204-1.1328-.33204-1.8242 0-1.5938.66407-2.8906 1.4844-2.8906s1.4844 1.2969 1.4844 2.8906c0 .87891-.19921 1.6641-.51562 2.1914zm-18.102-.0508c-.82031 0-1.4883-1.293-1.4883-2.8906s.66797-2.8906 1.4883-2.8906c.82031 0 1.4844 1.293 1.4844 2.8906s-.66406 2.8906-1.4844 2.8906zm-27.188-21.422-.39453-1.1523c5.2344-1.8984 10.355-3.4688 15.488-4.6289l-1.5234 1.6055c-4.4844 1.1016-8.9766 2.5117-13.57 4.1758zm50.715-5.4883c-3.1172-.53906-6.1445-.91797-9.1016-1.1406l-.79688-1.2734c3.5898.23046 7.2812.6875 11.109 1.3906zm-68.102-18.449c-2.75-1.8438-5.7031-3.3203-8.7617-4.4062l-7.5742-11.066v-22.227l31.402 32.293c-5.1055 1.5547-10.125 3.375-15.066 5.4062zm91.59-1.4102c-3.5312-4.3164-5.7188-10.352-5.7188-17.023 0-5.4024 1.4336-10.383 3.8477-14.375l15.789 19.582zm-41.141-6.3594 11.875-25.492c1.332.0781 2.668.19141 3.9062.33984l-11.879 25.145c-1.2891-.0156-2.5703-.008-3.9023.008zm-22.242-1.0391c5.1758-1.0742 10.457-1.8477 15.863-2.2617zm26.172-1.957c.65625 0 1.1875-.54687 1.1875-1.2226s-.53125-1.2227-1.1875-1.2227-1.1914.54688-1.1914 1.2227.53515 1.2226 1.1914 1.2226zm2.6641-5.707c.65625 0 1.1875-.54687 1.1875-1.2226s-.53125-1.2227-1.1875-1.2227-1.1875.54688-1.1875 1.2227.53125 1.2226 1.1875 1.2226zm2.668-5.707c.65625 0 1.1875-.54687 1.1875-1.2226 0-.67579-.53125-1.2227-1.1875-1.2227s-1.1914.54687-1.1914 1.2227c0 .67578.53516 1.2226 1.1914 1.2226zm2.6641-5.707c.65625 0 1.1875-.54687 1.1875-1.2227 0-.67578-.53125-1.2226-1.1875-1.2226s-1.1875.54687-1.1875 1.2226c0 .67579.53125 1.2227 1.1875 1.2227zm30.391-9.0195c-.49219 0-.89062-.41016-.89062-.91406 0-.50782.39843-.91797.89062-.91797s.89063.41015.89063.91797c0 .5039-.39844.91406-.89063.91406zm2.0391-2.4297-4.4453-1.1562-.60547-1.2383 1.4844-3.7188-4.0391-2.1523-.36719-1.2656 2.1523-3.9062-3.5117-2.9375-.11328-1.3047 2.9609-3.5742-2.8164-4.2148.1875-1.2461 3.7422-2.9883-1.8281-4.582.46484-1.1875 4.2891-1.9414-.65625-5.0664.72656-1.0234 4.5859-.85157.35547-4.9102.80859-.84375 5.6484-.54297-.3164-3.1094 1.9922 1.9531.19141 1.8867-.80469 1.0078-5.7969.55859-.35157 4.8438-.73046.83204-4.4297.82421.63281 4.8789-.52344.96094-4.1055 1.8594 1.7539 4.3984-.27734 1.0742-3.6133 2.8867 2.7305 4.082-.0586 1.1172-2.8125 3.3945 3.3867 2.832.21094 1.1641-2.0664 3.7539 3.9414 2.0976.41406 1.1602-1.4023 3.5195 3.9648 1.0312c.14453.0352.27344.10547.37891.19922zm-5.9414-4.5195c-.49219 0-.89063-.41016-.89063-.91797 0-.5039.39844-.91406.89063-.91406s.89062.41016.89062.91406c0 .50781-.39843.91797-.89062.91797zm-2.293-7.6016c-.49219 0-.89063-.41016-.89063-.91797s.39844-.91797.89063-.91797.89062.41016.89062.91797-.39843.91797-.89062.91797zm-.66016-8.2305c-.49218 0-.89062-.41016-.89062-.91797s.39844-.91797.89062-.91797c.49219 0 .89063.41016.89063.91797s-.39844.91797-.89063.91797zm1.1719-9.0352c-.49219 0-.89063-.41015-.89063-.91797 0-.5039.39844-.91406.89063-.91406s.89062.41016.89062.91406c0 .50782-.39843.91797-.89062.91797zm3.2188-8.5312c-.49219 0-.89063-.41015-.89063-.91797 0-.5039.39844-.91406.89063-.91406s.89453.41016.89453.91406c0 .50782-.40234.91797-.89453.91797zm4.9531-7.1992c-.49218 0-.89062-.41016-.89062-.91797 0-.50782.39844-.91797.89062-.91797.49219 0 .89063.41015.89063.91797 0 .50781-.39844.91797-.89063.91797zm6.9024-6.375c-.49219 0-.89063-.41016-.89063-.91797 0-.50391.39844-.91407.89063-.91407.49218 0 .89062.41016.89062.91407 0 .50781-.39844.91797-.89062.91797z" fill="#4242ff"/>
  <path d="m67.871 120.54 3.0039-2.4922c1.2227 1.5273 2.4062 4.293 2.4062 7.668 0 .48047-.02344.94532-.08203 1.3828zm10.902 13.457c1.0195-2.3984 1.6367-5.2226 1.6367-8.2812 0-5.0234-1.6836-9.4219-4.0469-12.324l2.7344-2.3555c2.9414 3.6133 4.8789 8.832 4.8789 14.68 0 4.2461-1.0156 8.1641-2.7031 11.371m3.5938-23.645c8.6055 2.5195 16.844 4.0586 24.777 4.8008l-9.6914 20.676 3.5977.76953 11.578-24.734c-10.496-.4961-21.512-2.4492-33.281-6.2734m37.203 31.746 10.316-22.066c5.3828-.42188 10.664-1.1953 15.828-2.2539 1.9492-1.9336 4.0938-3.6953 6.3477-5.2305-7.9336 2.0859-16.023 3.4961-24.453 3.9961l-12.133 25.73c1.3125-.004 2.6914-.0625 4.0938-.17578zm-34.16 1.3047c13.172 5.3398 28.582 8.4844 47.254 3.9883l.32031-3.8516c-19.055 4.9062-34.211 1.5508-47.535-4.0742l-1.2305 2.293zm104.94 8.5156-38.258-39.387c6.2656-1.6641 12.391-3.7422 18.434-6.1367 1.0547.88281 2.1562 1.707 3.3555 2.5234-4.8867 2.0664-9.9062 3.8867-15.012 5.4414l31.438 32.328m-37.906-93.547 1.0273-5.8281-5.3477-.60938.59375-6.1133-5.2578-.60156m14.27 20.891 1.0898-5.6211-5.6524-1.0547m9.2852 13.59 1.1211-5.1992-5.4375-1.1172m8.4844 12.418 1.1133-4.5781-5.0234-1.1484m8.0977 11.852 1.6797-5.1992-5.6289-.58203m-55.047 11.164c-.52343-1.2344-.90234-2.3477-1.1211-3.2461-.71484-2.9414-1-7.2031-1.1211-10.562-.4336.58203-.83985 1.332-1.2344 2.0938-2.8906 5.5742-5.0976 11.77-6.3047 20.039z"/>
  <path d="m157.13 194.46-3.0039 2.4922c-1.2227-1.5273-2.4062-4.293-2.4062-7.668 0-.48047.0234-.94532.082-1.3828zm-10.902-13.457c-1.0195 2.3984-1.6367 5.2226-1.6367 8.2812 0 5.0234 1.6836 9.4219 4.0469 12.324l-2.7344 2.3555c-2.9414-3.6133-4.8789-8.832-4.8789-14.68 0-4.2461 1.0156-8.1641 2.7031-11.371m-3.5938 23.645c-8.6055-2.5195-16.844-4.0586-24.777-4.8008l9.6914-20.676-3.5977-.76953-11.578 24.734c10.496.4961 21.512 2.4492 33.281 6.2734m-37.203-31.746-10.316 22.066c-5.3828.42188-10.664 1.1953-15.828 2.2539-1.9492 1.9336-4.0938 3.6953-6.3477 5.2305 7.9336-2.0859 16.023-3.4961 24.453-3.9961l12.133-25.73c-1.3125.004-2.6914.0625-4.0938.17578zm34.16-1.3047c-13.172-5.3398-28.582-8.4844-47.254-3.9883l-.32031 3.8516c19.055-4.9062 34.211-1.5508 47.535 4.0742l1.2305-2.293zm-104.94-8.5156 38.258 39.387c-6.2656 1.6641-12.391 3.7422-18.434 6.1367-1.0547-.88281-2.1562-1.707-3.3555-2.5234 4.8867-2.0664 9.9062-3.8867 15.012-5.4414l-31.438-32.328m37.906 93.547-1.0273 5.8281 5.3477.60938-.59375 6.1133 5.2578.60156m-14.27-20.891-1.0898 5.6211 5.6523 1.0547m-9.2852-13.59-1.1211 5.1992 5.4375 1.1172m-8.4844-12.418-1.1133 4.5781 5.0234 1.1484m-8.0977-11.852-1.6797 5.1992 5.6289.58203m55.047-11.164c.52343 1.2344.90234 2.3477 1.1211 3.2461.71484 2.9414 1 7.2031 1.1211 10.562.4336-.58203.83985-1.332 1.2344-2.0938 2.8906-5.5742 5.0977-11.77 6.3047-20.039z"/>
 </g>
 <g fill="none" stroke="#4242ff" stroke-linecap="round" stroke-linejoin="round">
  <path d="m132.11 149.48c-17.008 3.8906-31.656 1.6836-44.133-2.6914m44.172-1.0742c-18.672 4.4961-34.082 1.3516-47.254-3.9883m44.5-23.363-10.348 22.051m-19.09-1.5 9.6875-20.648m-25.945 21.824c2.4141-3.9961 3.8477-8.9766 3.8477-14.379 0-6.6719-2.1875-12.707-5.7148-17.035m-22.531 80.934c2.8437-29.937 13.199-33.898 24.402-49.527l-15.805-19.547m-32.644 27.613 76.019-64.398m40.277 27.113 38.109 39.203m-38.07-39.199c-11.73 7.8711-19.477 21.434-19.477 36.848 0 10.262 3.4336 19.707 9.1914 27.195m28.715-70.184c-26.48 10.434-54.184 14.988-88.168 3.9492m27.797 9.5352c-7.9336-.71485-16.172-2.2539-24.777-4.7734m60.34 2.6484c-5.1758 1.0742-10.457 1.8476-15.863 2.2617m44.09-11.055c-4.9609 2.0156-9.9804 3.8359-15.082 5.4062m-73.195-6.8125c31.422 9.6484 56.988 5.6445 81.867-3.9141m-76.855-.33594c27.852 7.7656 50.492 4.3477 73.078-4.0898m-69.68 1.2148c25.602 6.6133 46.441 3.4648 67.57-4.3203m-64.129 1.4063c23.441 5.5352 42.582 2.5859 62.297-4.625m-33.863 3.7539c11.105-.56641 21.566-3.1523 32.305-7.0664m-57.242 4.9727c6.2226 1.3203 12.121 2.0156 17.812 2.1758m8.7539 19.812-12.066 25.715m-11.453-.90235 11.602-24.723m7.8711.0977-11.961 25.488m-3.8008-.33985 11.805-25.152m14.125 22.824c-19.078 5.3438-33.66 2.1328-46.965-3.5039m46.238 7.4883c-19.055 4.9062-34.211 1.5508-47.535-4.0742m104.82-15.039-59.777-87.504m23.191 33.969c2.2773 23.438 14.363 37.18 29.016 42.496m-49.742 41.449c-7.0156 1.5664-13.664 2.1328-19.937 1.9648m19.711-4.418c-6.9531 1.5781-13.523 2.1484-19.715 1.9805m19.809-.75c-6.9766 1.5703-13.578 2.1367-19.809 1.9688m20.102.46875c-7.0625 1.5664-13.766 2.1406-20.098 1.9688m0 3.5234c8.1523.21874 15.676 1.6836 22.547 3.8242m-2.2461-8.1094c-7.1289 1.5781-13.902 2.1523-20.301 1.9844m0-.14063c7.7578.20313 14.961 1.5 21.57 3.4219m-21.566 1.457c8.6719.24219 16.605 1.9336 23.812 4.3594m-23.812-5.5781c8.3945.23047 16.105 1.7969 23.137 4.0703m-23.141-6.5078c7.9453.21094 15.297 1.582 22.031 3.6094m-1.5039-5.4766c-1.9844.4375-3.9414.80079-5.875 1.0898m-.0664-.004c2.2578.45703 4.4531.99609 6.5898 1.6016m-60.461-32.359c.04297-.45313.06641-.91797.06641-1.3984 0-3.375-1.1836-6.1406-2.3828-7.6133m7.875 15.895c1.0195-2.3984 1.6367-5.2227 1.6367-8.2812 0-5.0234-1.6836-9.4219-4.0469-12.324m4.9102 23.695c1.6875-3.207 2.7031-7.125 2.7031-11.371 0-5.8477-1.9375-11.066-4.8789-14.68m-23.027 75.223c1.6172-13.609 4.9844-22.129 9.3281-28.812 4.168-6.4102 8.9297-11 13.734-17.266l-11.746-14.531m-.01176.0391-32.125 27.215m27.879 40.613 2.4922-1.6719c7.8594-5.2734 13.008-14.203 13.008-24.563 0-5.7695-1.5859-11.043-4.3555-15.543m-8.5664 44.426 1.8633-1.25c8.8242-5.9219 14.625-16.012 14.625-27.633 0-6.8711-2.0156-13.16-5.4961-18.422m-5.8398 52.605.60547-.40625c10.762-7.2226 17.859-19.629 17.859-33.777 0-9.0898-2.9258-17.445-7.875-24.191m-20.223 33.957c4.0937-.24999 7.3008-4 7.3008-8.543 0-2.1562-.73437-4.2305-2.0547-5.8125m-6.9648-35.148c-.35157-1.9023-1.5899-7.6328-4.0547-9.1641-3.0703-1.9023-4.125-1.4258-7.3711-3.75-3.7539-2.6875-7.2656.0234-2.3789 3.0547 4.1016 2.5469 3.8086 1.918 5.5898 2.5312-1.7813 4.2773-1.1875 7.332 1.1914 8.5547m-8.9141-10.074c-5.2344-1.9609-8.0703.38281-1.1914 2.7422 9.8515 3.375 8.4062-.0391 1.1914-2.7422m-.20703-3.4492c-4.6992-1.5938-7.0117.66797-.60547 2.9414 3.3555 1.1914 5.3555 1.5352 6.2305 1.3633m-6.2109 2.0078c-5.0547-1.9609-7.793.38281-1.1484 2.7383 9.5117 3.375 8.1172-.0352 1.1484-2.7383m-1.1836 2.9062c-4.5508-1.7305-6.8555.73437-.8789 2.793 8.5508 2.9414 7.1562-.40235.8789-2.793m.45312 5.6641c-1.0859-1.1523-1.8711-2.2539-2.043-3.1367m9.4805 9.1016c-1.75-1.1133-4.1055-2.8359-6.0351-4.5976m1.5391-3.125c-1.6406 3.4609-4.0742 6.2695-1.7305 13m-1.4766 1.1797c-1.5078-4.0508-1.5117-7.1602-.80468-9.6406.55469-1.9414 1.4297-3.4336 2.1367-4.8086m8.7734-29.281c1.7852-6.7227 10.105 1.832 3.5664 3.668 6.5391 1.832-1.7812 10.391-3.5664 3.668-1.7812 6.7227-10.102-1.8359-3.5625-3.668-6.539-1.8359 1.7813-10.391 3.5625-3.668m-1.918 3.668c0 1.1016.85938 1.9961 1.918 1.9961 1.0625 0 1.9219-.89453 1.9219-1.9961 0-1.1055-.85938-1.9961-1.9219-1.9961-1.0586 0-1.918.89063-1.918 1.9961m5.1836-6.0742c4.3125-9.0156-10.84-9.0156-6.5273 0m-2.6406 2.7148c-8.7656-4.4375-8.7656 11.152 0 6.7148m2.6406 2.7148c-4.3125 9.0195 10.84 9.0195 6.5273 0m2.6406-2.7148c8.7656 4.4375 8.7656-11.152 0-6.7148m-2.3398 3.3594h5.3477m-.59376 0c0 .33594.26563.60938.59376.60938s.59376-.27344.59376-.60938c0-.33984-.26563-.61328-.59376-.61328s-.59376.27344-.59376.61328m-8.3203-3.668v-5.5m0 .60938c.32813 0 .59766-.27344.59766-.60938 0-.33984-.26953-.61328-.59766-.61328-.32812 0-.59374.27344-.59374.61328 0 .33594.26562.60938.59374.60938m-3.5625 8.5586h-5.3476m.59374 0c0-.33984-.26562-.61328-.59374-.61328-.32813 0-.59766.27344-.59766.61328 0 .33594.26953.60938.59766.60938.32812 0 .59374-.27344.59374-.60938m8.3164 3.668v5.5m0-.60937c-.32812 0-.59374.27344-.59374.60937 0 .33594.26562.60938.59374.60938.32813 0 .59766-.27344.59766-.60938 0-.33593-.26953-.60937-.59766-.60937m-1.3633-9.9648-1.6055-1.6523m-.59376 0c0 .33984.26562.61328.59376.61328.32812 0 .59374-.27344.59374-.61328 0-.33594-.26562-.60938-.59374-.60938-.32813 0-.59376.27344-.59376.60938m2.1992 4.4609-1.6055 1.6523m0 .61328c.32812 0 .59374-.27343.59374-.61328 0-.33594-.26562-.60937-.59374-.60937-.32813 0-.59376.27343-.59376.60937 0 .33985.26562.61328.59376.61328m4.3359-5.0703 1.6055-1.6562m.59374 0c0 .33984-.26562.61328-.59374.61328s-.59375-.27344-.59375-.61328c0-.33594.26563-.60938.59375-.60938s.59374.27344.59374.60938m-2.1992 4.4609 1.6055 1.6523m0 .61328c-.32812 0-.59375-.27343-.59375-.61328 0-.33594.26563-.60937.59375-.60937s.59374.27343.59374.60937c0 .33985-.26562.61328-.59374.61328m-4.1758 8.9961-.46875.79687m-1.4102-1.8555-.42969.73047m5.9492 2.9102c3.7695-2.2383 7.9179-3.2188 12.422-3.0234m-12.434 3.0156c5.4492-4.9258 10.926-8.4375 16.59-2.4024-4.7148.60547-6.5039 5.4219-16.391 2.5195m-9.7539-4.3555c-1.9844-2.832-4.2187-5.0664-7.7265-4.2773.4375 2.7344 3.0586 4.1953 5.9453 5.5m68.219-79.438c-14.641 20.688-27.855 34.145-29.359 73.414m31.582-70.324c-14.066 19.715-25.852 31.855-27.863 67.164m23.051-42.02c-5.6016 8.6055-9.5625 17.527-11.445 32.18m11.836-25.926c-.42578.74219-.83203 1.4922-1.2266 2.2539-2.8906 5.5742-5.0976 11.77-6.5039 20.203m88.484 14.687-48.953-71.656m-26.34.0039c-1.5273 4.4961-6.7109 19.918-6.7109 22 0 2.4453 1.1875 7.3359 1.1875 8.5586 0 1.2227 0 9.7813 1.1914 14.672 1.1875 4.8867 7.1289 15.891 10.695 15.891 3.5625 0 8.3594-4.2305 11.883-3.668 8.4258 1.3438 16.957-15.477 15.449-15.891 0 0 .63672 1.3125 1.1914 1.2227 2.125-.35547 3.4219-3.8945 4.1133-6.6133m16.785 6.9219c4-4.7383 11.023-5.1602 18.32-5.1992-2.9375-1.3828-6.5742-1.6875-8.3203-4.8906-2.3203 1.5703-5.2656 1.3906-8.3633.78516m3.8594 5.6445c-8.9805-13.145-17.961-26.293-26.941-39.437m26.941 39.438m8.0469-1.3945c-.17578-.07031-.34765-.14062-.52343-.21875-1.2344-.53516-2.5234-1.2969-3.5703-2.4844-2.0273.83594-4.2305.83984-6.3867.55078m5.75-24.887c-5.9414 6.1094.80469 15.211-3.5352 18.258-6.0078 4.2109-9.0469-3.4141-5.6602-5.7188 3.0898-2.1055 5.7226 2.3398 3.2539 3.3516-1.6094.66016-2.3789 0-2.3789-1.2227m8.3203-14.668c-6.6836 5.1797-13.016-3.3594-16.836.61328-4.3711 4.5469 1.4219 9.0469 3.8516 6.4141 2.6523-2.8711-1.3281-6.4336-2.793-3.793-.95313 1.7187.0352 2.4453 1.1758 2.0625m2.7148 10.594c-2.0234-3.5391 2.1992-5.8906 4.7539-8.5586-3.2266 1.293-6.5508 4.1445-9.5078 1.2227m-4.7656-6.5898c.51953-4.8477 3.668-8.8281 6.3633-12.961m-7.8164 10.824c.96093-4.125 3.4609-7.5859 5.6601-10.844m-9.9766 16.23 1.0274-5.8281-5.3476-.60938.59375-6.1133-5.2578-.60156m14.27 20.891 1.0898-5.6211-5.6523-1.0547m9.2851 13.59 1.1211-5.1992-5.4375-1.1172m8.4844 12.418 1.1133-4.5781-5.0234-1.1484m8.0976 11.852 1.6797-5.1992-5.6289-.58203m3.9492 5.7812m-29.68-27.578c-9.6523-2.4492-14.48-8.7617-18.762-15.516m6.4375.0039c1.9453 2.8516 3.9414 5.2539 6.5898 7.0977m-8.7461-7.0938c2.9492 4.4531 6.0312 8.1523 11.02 10.453m-13.164-10.457c3.6953 5.7227 7.6836 10.676 15.012 13.137m-28.91.36328c5.0547-3.3242 8.3281-8.2695 11.285-13.504m-6.2656.0039c-.41016.66797-.82812 1.3164-1.25 1.9336m3.3476-1.9258c-1.5195 2.5625-3.0937 4.8828-4.9805 6.8555m7.0625-6.8477c-2.3242 4.0273-4.8047 7.6797-8.2383 10.445m38.344 21.926c-1.1914 6.7266 1.7812 5.5039 0 3.0586m-10.102-11.004c-3.8711-2.668-7.7656-5.2891-15.453 0 .25-.12891-.28125.64844-.0508.48828 4.2109-2.9336 9.4687-4.375 15.504-.48828m-21.394-.60938c-3.7344-4.582-7.1289-2.4453-10.102-1.2227 2.9726-.61328 7.1289-2.4453 10.102 1.832v-.60938c1.1875 11-2.4844 11.688-2.375 18.336 0 1.2227 3.5625.61328 3.5625 2.4453m4.1602-5.5c2.5352.01563 6.2031 4.2109 1.1875 4.2773-.85156.01172-2.0508-1.2656-2.6172-1.2266-4.5898.31641.10547.64453 1.4297.61719m4.1602 4.8867v1.2227l-.59375-.60938.59375-.61328m-12.48 0v1.2227l.59765-.60938-.59765-.61328m.59765.61328c.59375 0 2.9688-.61328 3.5625-.61328s1.1914.61328 1.7852.61328 1.7812-.61328 2.375-.61328c0 0-.59375 0 0 0s2.3789.61328 3.5664.61328m-3.5664 2.4453c-.59375 1.832-4.7539 1.832-4.7539 0m19.609-20.781c-3.3906 1.2227-5.8594-3.0586-8.914-3.0586-3.5625 0-5.3164 4.0508-5.9414 3.668m11.293-1.2227c-2.668 6.7227-10.105 0-11.293 1.2227m-14.855-3.0547c3.8711-2.7617 7.7266 1.832 9.5078 2.4453-1.7812 0-7.7226 4.2773-9.2422-1.6953m39.644 13.492c.0117-.0039.0234-.0078.0352-.01172m-.21484 1.3516c.33984-.10937.68359-.22266 1.0234-.33203m-8.1601 11.117c5.1328-1.1602 10.254-2.7305 15.488-4.6289m-4.5859-8.7109c.6289-.22266 1.2617-.44922 1.8984-.68359m-3.4102 2.4961c1.2539-.42578 2.5234-.875 3.8086-1.3438m-6.6367 3.543c2.2812-.71094 4.5898-1.5 6.9414-2.3594m-7.6875 3.8633c2.6172-.78906 5.2617-1.6797 7.9648-2.6641m-8.8398 4.1914c3-.87109 6.0312-1.875 9.1328-3.0039m-10.125 4.5469c3.4375-.94922 6.8984-2.0781 10.441-3.3633m-11.559 4.9258c3.9219-1.0273 7.8672-2.293 11.902-3.7539m-13.211 5.3398c4.4844-1.1016 8.9766-2.5117 13.57-4.1758m-51.926 6.5117c3.8281.70313 7.5195 1.1602 11.109 1.3906m-4.9726-6.5977c.49219.0625.98438.12109 1.4727.17969m-2.7383.8789c1.1328.16016 2.2539.29688 3.3594.41016m-4.582.64062c1.7695.26953 3.5039.48438 5.2148.64844m-6.4648.39063c2.4492.39844 4.8398.69531 7.1797.89453m-8.3672.14062c3.1172.53906 6.1445.91797 9.1016 1.1406m50.312 12.852-1.7852-5.6914m-8.4219-8.0898 5.3437 15.496m-9.543-14.137 4.4492 15.754m-9.2226-14.391 3.8594 15.879m-8.1836-14.836 2.4609 16.18m-5.2773 1c-.51565-5.3633-.76174-11.004-1.2617-16.383m-3.9062 17.078-.45703-16.391m-4.7812 16.871.46875-16.406m-5.6914 16.645 1.8945-16.102m-6.9726 16.094 3.1953-15.023m-8.6055 14.75 5.3789-16.094m-9.9258 15.672 5.9766-15.887m-11.414 15.129 7.0625-15.566m-12.609 14.527 8.793-15.078m-15.207 13.543 11.742-14.18m58.434-13.223c-.18359 4.5938.21094 9.6172.80468 14.785m-2.6055-17.414c-.14063 4.4727.24609 9.3359.82031 14.34m-2.5976-16.941c-.13672 3.9883.14844 8.293.61718 12.734m4.9102-4.6484c-.19921 4.5703.17969 9.5664.76563 14.715m1.0117-12.117c-.1836 4.4609.17968 9.3242.74609 14.332m1.0312-11.73c-.16407 4.2461.16797 8.8555.6875 13.605m1.0859-11c-.13672 3.9648.14844 8.2461.61328 12.656m1.1641-10.047c-.11328 3.6328.1211 7.5234.51953 11.535m1.2812-8.9023c-.1289 3.2227.0273 6.6562.33594 10.203m1.4648-7.5703c-.13281 2.7617-.0508 5.6797.16406 8.6953m1.6094-6.1016c-.10157 2.3008-.0586 4.707.0859 7.1875m2.1055-3.9844c-.0547 1.6836-.0312 3.4258.0469 5.207m1.7305-2.6016c-.0312 1.125-.0312 2.2734 0 3.4453m-23.754-38.211c-.10938 2.9648.0156 6.1055.28125 9.3438m-96.148 108.13c2.8437-29.937 13.199-33.898 24.402-49.527l-15.805-19.547m-1.0273 53.266 6.9023 5.2031c.95703.94141.98437 2.5078.05859 3.4805-.92969.97266-2.4531.97657-3.3867.0117l-5.7226-6.6211m4.2031-17.234 3.6914-2.7773c.38281-.29688.84375-.46875 1.3203-.48829 1.0547-.0508 2.0156.6211 2.3594 1.6484.33984 1.0234-.01563 2.1602-.875 2.7891l-7.6992 4.875 7.082-3.3672c.22656-.0742.46484-.10937.70312-.11329 1.1875 0 2.1953.89844 2.3594 2.1094.16406 1.2109-.56641 2.3594-1.7109 2.6914l-7.6523 1.793 7.2695-.56641c1.3242.082 2.3242 1.2578 2.2305 2.6133-.09375 1.3594-1.25 2.375-2.5664 2.2656l-7.1953-1.3008 7.2851 1.9531c1.2266.51563 1.8086 1.9649 1.2891 3.2227-.51953 1.2539-1.9375 1.832-3.1484 1.2774l-6.7969-3.4648m-2.1484 2.0742 5.5625 9.0391c.57422 1.2305.05469 2.7031-1.1484 3.2734-1.207.57031-2.6328.0195-3.168-1.2305l-3.4805-10.105 2.9922 12.809c.17188 1.3516-.76171 2.5898-2.082 2.75-1.3164.16016-2.5039-.82422-2.6406-2.1797l-.75-6.5898m-6.332-31.645c-1.1875 4.2773 4.1601 7.332 5.3476-1.2227 1.1875 8.5547 6.5352 5.5 5.3477 1.2227 4.1601 1.2226 7.1328-4.2812-1.1875-5.5039 8.3203-1.2227 5.3476-6.7226 1.1875-5.5 1.1875-4.2773-4.1602-7.3359-5.3477 1.2227-1.1875-8.5586-6.5351-5.5-5.3476-1.2227-4.1602-1.2226-7.1328 4.2773 1.1875 5.5-8.3203 1.2227-5.3477 6.7266-1.1875 5.5039m-14.859 16.68c1.1914-8.5586 6.5391-5.5039 5.3516-1.2227 4.1562-1.2227 7.1289 4.2773-1.1914 5.5m5.293-3.3555c2.3594-.84765 4.4336-1.9922 6.1094-3.5586 3.0156-2.8203 4.918-7.0742 4.8789-14.008m2.1562 3.9297c-.61718 5.3438-2.5547 9.1914-5.4375 11.887-3.2891 3.082-7.6406 4.6211-12.387 5.5195m-6.3906-6.5156c.82031-4.5703 2.1289-8.8867 4.6445-12.41 2.0664-2.8945 4.9648-5.1758 8.9258-6.5391m-.91406 2.9375c-2.6484 1.2109-4.5938 2.9453-6.0937 5.0508-1.7305 2.418-2.8594 5.3945-3.6484 8.6836m38.355-23.535c-.35156.39844-.71484.77735-1.0977 1.1367-2.9648 2.7734-6.7891 4.2969-10.988 5.2305m1.582-2.9336c3.0664-.88672 5.7422-2.1719 7.8047-4.1055.66797-.625 1.2812-1.3203 1.8281-2.0977m-9.2187-11.402c-1.2695.96484-2.3281 2.0898-3.2266 3.3476-1.3437 1.8867-2.3281 4.1094-3.0703 6.5547m-3.3828 3.8203c.75-3.9531 1.8945-7.6914 3.8984-10.867m4.7461 6.3789c0 1.0117.79687 1.8359 1.7813 1.8359.98438 0 1.7813-.82422 1.7813-1.8359s-.79688-1.832-1.7813-1.832c-.98438 0-1.7813.82031-1.7813 1.832m-19.016 23.84c0 1.0117.79687 1.832 1.7813 1.832.98437 0 1.7812-.82031 1.7812-1.832s-.79687-1.8359-1.7812-1.8359c-.98438 0-1.7813.82421-1.7813 1.8359m3.5625 15.891c0 1.0156.80078 1.8359 1.7852 1.8359.98437 0 1.7812-.82031 1.7812-1.8359 0-1.0117-.79687-1.832-1.7812-1.832-.98438 0-1.7852.82031-1.7852 1.832m-8.418-2.9726.38672.45313m-4.8516-5.6797 4.4648 5.2266m-6.0625-7.0977 1.5977 1.8711m-3.7539-4.3984 2.1562 2.5273m8.4453 7.1094 10.391 12.164m-20.992-24.578 2.6445 3.0977m9.875 8.7812 8.8086 10.316m-16.219-18.988.2539.29297m-5.3633-6.2773 3.2344 3.7891m16.023 15.984 2.4492 2.8672m-7.3555-8.6172 2.6172 3.0703m-7.9766-9.3438 1.6172 1.8945m-4.8867-5.7227 1.4062 1.6484m-7.1289-8.3476 3.9258 4.5937m16.273 16.281 1.9414 2.2695m-6.0547-7.0898 2.6172 3.0664m-12.266-14.363 7.9961 9.3633m-14.051-16.449 4.3398 5.0781m12.992 12.434 4.9062 5.7461m-15.336-17.961 8.8203 10.332m-14.344-16.797 3.8672 4.5274m13.598 13.148 3.9258 4.5938m-14.883-17.43 9.3789 10.984m-14.512-16.992 3.5195 4.1211m13.965 13.574 3.125 3.6563m-8.4375-9.8789 3.7461 4.3867m-9.6601-11.312 3.8125 4.4648m-8.6914-10.176 3.2969 3.8594m14.07 13.695 2.4883 2.918m-7.793-9.1289 3.7226 4.3633m-9.6601-11.316 3.9766 4.6602m-8.7266-10.219 3.1914 3.7383m13.914 13.512 2.0859 2.4414m-13.047-15.273 9.3437 10.941m-14.109-16.523 3.2109 3.7617m13.484 13.012 1.8516 2.1641m-12.234-14.328 8.7031 10.195m-13.641-15.973 3.3633 3.9375m12.781 12.188 1.8438 2.1602m-6.5859-7.7148 2.9609 3.4688m-6.418-7.5117 1.7773 2.0781m-8.3437-9.7695 3.6289 4.25m11.801 11.039 2.0352 2.3828m-5.5781-6.5313 1.6289 1.9062m-8.125-9.5156.02344.0273m-4.0391-4.7266 4.0156 4.6992m10.516 9.5391 2.4648 2.8867m-5.4648-6.4023.93749 1.0976m-11.09-12.988 4.2969 5.0352m10.137 9.0898 2.1562 2.5274m-5.375-6.293.15235.17578m-.58594-.6875.43359.51172m-5.207-6.0977.23438.27344m-4.8672-5.6992.73437.85547m13.836 13.426 1.6484 1.9297m-14.84-17.379.98437 1.1562m12.754 12.156 2.1562 2.5195m-14.52-16.996 1.3672 1.5976m12.57 11.941 1.6719 1.957m-14.23-16.664.44532.52343m13.812 13.395 1.0859 1.2734m-5.2852-6.1875.16407.19141m-5.0078-5.8672.44532.52344m-4.2851-5.0156.48437.56251m12.937 12.375 1.6953 1.9805m-2.8047-3.2773 1.1094 1.2969m-1.5898-1.8633.48047.56641m-10.937-12.809 2.8828 3.375m9.5117 8.3594 2.5117 2.9414m-13.527-15.844 2.0508 2.4023m10.82 9.8945 1.832 2.1445m-3.9961-4.6797.44141.51562m-4.3437-5.0859 1.4883 1.7461m-3.7656-4.4141.30078.35547m-3.4531-4.043 1.3398 1.5664m11.926 11.184 1.2461 1.4648m-10.66-12.484 7.7422 9.0664m-10.215-11.965.72656.85547m12.809 12.215.78125.91797m-11.023-12.91 8.625 10.102m-10.543-12.344.23438.27344m13.465 12.988.42188.49219m-5.6719-6.6406 3.6719 4.2969m-9.2578-10.84 3.2383 3.793m9.0195 7.7852.16797.19531m-6.3516-7.4375 4.6211 5.4062m-5.2734-6.1719.65234.76562m-5.0039-5.8594 4.3516 5.0938m8.1328 6.7461.01953.0195m-11.281-13.207 9.6914 11.348m81.703-26.793 31.406 32.305" stroke-width=".72322"/>
  <path d="m92.894 165.52c17.008-3.8906 31.656-1.6836 44.133 2.6914m-44.172 1.0742c18.672-4.4961 34.082-1.3516 47.254 3.9883m-44.5 23.363 10.348-22.051m19.09 1.5-9.6875 20.648m25.945-21.824c-2.4141 3.9961-3.8476 8.9766-3.8476 14.379 0 6.6719 2.1875 12.707 5.7148 17.035m22.531-80.934c-2.8438 29.938-13.199 33.898-24.402 49.527l15.805 19.547m32.644-27.613-76.019 64.398m-40.277-27.113-38.109-39.203m38.07 39.199c11.73-7.8711 19.477-21.434 19.477-36.848 0-10.262-3.4336-19.707-9.1914-27.195m-28.715 70.184c26.48-10.434 54.184-14.988 88.168-3.9492m-27.797-9.5352c7.9336.71484 16.172 2.2539 24.777 4.7734m-60.34-2.6484c5.1758-1.0742 10.457-1.8477 15.863-2.2617m-44.09 11.055c4.9609-2.0156 9.9805-3.8359 15.082-5.4062m73.195 6.8125c-31.422-9.6484-56.988-5.6445-81.867 3.9141m76.855.33594c-27.852-7.7656-50.492-4.3477-73.078 4.0898m69.68-1.2148c-25.602-6.6133-46.441-3.4648-67.57 4.3203m64.129-1.4062c-23.441-5.5352-42.582-2.5859-62.297 4.625m33.863-3.7539c-11.105.56641-21.566 3.1524-32.305 7.0664m57.242-4.9727c-6.2226-1.3203-12.121-2.0156-17.812-2.1758m-8.7539-19.812 12.066-25.715m11.453.90234-11.602 24.723m-7.8711-.0977 11.961-25.488m3.8008.33984-11.805 25.152m-14.125-22.824c19.078-5.3438 33.66-2.1328 46.965 3.5039m-46.238-7.4883c19.055-4.9062 34.211-1.5508 47.535 4.0742m-104.82 15.039 59.777 87.504m-23.191-33.969c-2.2773-23.438-14.363-37.18-29.016-42.496m49.742-41.449c7.0156-1.5664 13.664-2.1328 19.937-1.9648m-19.711 4.418c6.9531-1.5781 13.523-2.1484 19.715-1.9805m-19.809.75c6.9766-1.5703 13.578-2.1367 19.809-1.9688m-20.102-.46875c7.0625-1.5664 13.766-2.1406 20.098-1.9688m0-3.5234c-8.1523-.21874-15.676-1.6836-22.547-3.8242m2.2461 8.1094c7.1289-1.5781 13.902-2.1523 20.301-1.9844m0 .14063c-7.7578-.20312-14.961-1.5-21.57-3.4219m21.566-1.457c-8.6719-.24219-16.605-1.9336-23.812-4.3594m23.812 5.5781c-8.3945-.23046-16.105-1.7969-23.137-4.0703m23.141 6.5078c-7.9453-.21094-15.297-1.582-22.031-3.6094m1.5039 5.4766c1.9844-.4375 3.9414-.80078 5.875-1.0898m.06641.004c-2.2578-.45703-4.4531-.99609-6.5898-1.6016m60.461 32.359c-.043.45312-.0664.91797-.0664 1.3984 0 3.375 1.1836 6.1406 2.3828 7.6133m-7.875-15.895c-1.0195 2.3984-1.6367 5.2226-1.6367 8.2812 0 5.0234 1.6836 9.4219 4.0469 12.324m-4.9102-23.695c-1.6875 3.207-2.7031 7.125-2.7031 11.371 0 5.8476 1.9375 11.066 4.8789 14.68m23.027-75.223c-1.6172 13.609-4.9844 22.129-9.3281 28.812-4.168 6.4102-8.9297 11-13.734 17.266l11.746 14.531m.0118-.0391 32.125-27.215m-27.879-40.613-2.4922 1.6719c-7.8594 5.2734-13.008 14.203-13.008 24.562 0 5.7695 1.5859 11.043 4.3555 15.543m8.5664-44.426-1.8633 1.25c-8.8242 5.9219-14.625 16.012-14.625 27.633 0 6.8711 2.0156 13.16 5.4961 18.422m5.8398-52.605-.60547.40625c-10.762 7.2226-17.859 19.629-17.859 33.777 0 9.0898 2.9258 17.445 7.875 24.191m20.223-33.957c-4.0937.24999-7.3008 4-7.3008 8.543 0 2.1562.73438 4.2305 2.0547 5.8125m6.9648 35.148c.35157 1.9024 1.5898 7.6328 4.0547 9.1641 3.0703 1.9023 4.125 1.4258 7.3711 3.75 3.7539 2.6875 7.2656-.0234 2.3789-3.0547-4.1016-2.5469-3.8086-1.918-5.5898-2.5312 1.7812-4.2774 1.1875-7.332-1.1914-8.5547m8.9141 10.074c5.2344 1.9609 8.0703-.38281 1.1914-2.7422-9.8515-3.375-8.4062.0391-1.1914 2.7422m.20703 3.4492c4.6992 1.5938 7.0117-.66797.60547-2.9414-3.3555-1.1914-5.3555-1.5352-6.2305-1.3633m6.2109-2.0078c5.0547 1.9609 7.793-.38281 1.1484-2.7383-9.5117-3.375-8.1172.0351-1.1484 2.7383m1.1836-2.9062c4.5508 1.7305 6.8554-.73438.8789-2.793-8.5508-2.9414-7.1562.40234-.8789 2.793m-.45312-5.6641c1.0859 1.1523 1.8711 2.2539 2.043 3.1367m-9.4804-9.1016c1.75 1.1133 4.1054 2.8359 6.0351 4.5977m-1.5391 3.125c1.6406-3.4609 4.0742-6.2695 1.7305-13m1.4766-1.1797c1.5078 4.0508 1.5117 7.1602.80468 9.6406-.55469 1.9414-1.4297 3.4336-2.1367 4.8086m-8.7734 29.281c-1.7852 6.7227-10.105-1.832-3.5664-3.668-6.5391-1.832 1.7812-10.391 3.5664-3.668 1.7812-6.7226 10.102 1.8359 3.5625 3.668 6.539 1.8359-1.7812 10.391-3.5625 3.668m1.918-3.668c0-1.1016-.85938-1.9961-1.918-1.9961-1.0625 0-1.9219.89453-1.9219 1.9961 0 1.1055.85938 1.9961 1.9219 1.9961 1.0586 0 1.918-.89063 1.918-1.9961m-5.1836 6.0742c-4.3125 9.0156 10.84 9.0156 6.5273 0m2.6406-2.7148c8.7656 4.4375 8.7656-11.152 0-6.7148m-2.6406-2.7148c4.3125-9.0195-10.84-9.0195-6.5273 0m-2.6406 2.7148c-8.7656-4.4375-8.7656 11.152 0 6.7148m2.3398-3.3594h-5.3476m.59375 0c0-.33594-.26563-.60937-.59375-.60937s-.59375.27343-.59375.60937c0 .33985.26563.61328.59375.61328s.59375-.27343.59375-.61328m8.3203 3.668v5.5m0-.60937c-.32814 0-.59767.27343-.59767.60937 0 .33984.26953.61328.59767.61328.32812 0 .59374-.27344.59374-.61328 0-.33594-.26562-.60937-.59374-.60937m3.5625-8.5586h5.3476m-.59374 0c0 .33985.26562.61328.59374.61328.32813 0 .59766-.27343.59766-.61328 0-.33594-.26953-.60937-.59766-.60937-.32812 0-.59374.27343-.59374.60937m-8.3164-3.668v-5.5m0 .60938c.32812 0 .59374-.27344.59374-.60938s-.26562-.60937-.59374-.60937c-.32814 0-.59767.27343-.59767.60937s.26953.60938.59767.60938m1.3633 9.9648 1.6055 1.6523m.59376 0c0-.33984-.26562-.61328-.59376-.61328-.32812 0-.59374.27344-.59374.61328 0 .33594.26562.60938.59374.60938.32814 0 .59376-.27344.59376-.60938m-2.1992-4.4609 1.6055-1.6524m0-.61328c-.32812 0-.59374.27344-.59374.61328 0 .33594.26562.60938.59374.60938.32814 0 .59376-.27344.59376-.60938 0-.33984-.26562-.61328-.59376-.61328m-4.3359 5.0703-1.6055 1.6562m-.59375 0c0-.33984.26562-.61328.59375-.61328.32812 0 .59375.27344.59375.61328 0 .33594-.26563.60938-.59375.60938-.32813 0-.59375-.27344-.59375-.60938m2.1992-4.4609-1.6055-1.6524m0-.61328c.32812 0 .59375.27344.59375.61328 0 .33594-.26563.60938-.59375.60938-.32813 0-.59375-.27344-.59375-.60938 0-.33984.26562-.61328.59375-.61328m4.1758-8.9961.46875-.79688m1.4102 1.8555.42969-.73047m-5.9492-2.9102c-3.7695 2.2383-7.918 3.2188-12.422 3.0234m12.434-3.0156c-5.4492 4.9258-10.926 8.4375-16.59 2.4023 4.7148-.60547 6.5039-5.4219 16.391-2.5195m9.7539 4.3555c1.9844 2.832 4.2188 5.0664 7.7266 4.2773-.4375-2.7344-3.0586-4.1953-5.9453-5.5m-68.219 79.438c14.641-20.688 27.855-34.145 29.359-73.414m-31.582 70.324c14.066-19.715 25.852-31.855 27.863-67.164m-23.051 42.02c5.6016-8.6055 9.5625-17.527 11.445-32.18m-11.836 25.926c.42578-.74219.83203-1.4922 1.2266-2.2539 2.8906-5.5742 5.0976-11.77 6.5039-20.203m-88.484-14.687 48.953 71.656m26.34-.004c1.5273-4.4961 6.7109-19.918 6.7109-22 0-2.4453-1.1875-7.3359-1.1875-8.5586 0-1.2226 0-9.7812-1.1914-14.672-1.1875-4.8867-7.1289-15.891-10.695-15.891-3.5625 0-8.3594 4.2305-11.883 3.668-8.4258-1.3438-16.957 15.477-15.449 15.891 0 0-.63672-1.3125-1.1914-1.2227-2.125.35547-3.4219 3.8945-4.1133 6.6133m-16.785-6.9219c-4 4.7383-11.023 5.1602-18.32 5.1992 2.9375 1.3828 6.5742 1.6875 8.3203 4.8906 2.3203-1.5703 5.2656-1.3906 8.3633-.78515m-3.8594-5.6445c8.9805 13.145 17.961 26.293 26.941 39.438m-26.941-39.437m-8.0469 1.3945c.17578.0703.34766.14063.52344.21876 1.2344.53515 2.5234 1.2969 3.5703 2.4844 2.0273-.83594 4.2305-.83984 6.3867-.55078m-5.75 24.887c5.9414-6.1094-.80469-15.211 3.5352-18.258 6.0078-4.2109 9.0469 3.4141 5.6601 5.7188-3.0898 2.1055-5.7226-2.3398-3.2539-3.3516 1.6094-.66015 2.3789 0 2.3789 1.2227m-8.3203 14.668c6.6836-5.1797 13.016 3.3594 16.836-.61328 4.3711-4.5469-1.4219-9.0469-3.8516-6.4141-2.6523 2.8711 1.3281 6.4336 2.793 3.793.95312-1.7188-.03516-2.4453-1.1758-2.0625m-2.7148-10.594c2.0234 3.5391-2.1992 5.8906-4.7539 8.5586 3.2266-1.293 6.5508-4.1445 9.5078-1.2227m4.7656 6.5898c-.51953 4.8476-3.668 8.8281-6.3633 12.961m7.8164-10.824c-.96094 4.125-3.4609 7.5859-5.6601 10.844m9.9766-16.23-1.0273 5.8281 5.3476.60938-.59375 6.1133 5.2578.60156m-14.27-20.891-1.0898 5.6211 5.6523 1.0547m-9.2851-13.59-1.1211 5.1992 5.4375 1.1172m-8.4844-12.418-1.1133 4.5781 5.0234 1.1484m-8.0976-11.852-1.6797 5.1992 5.6289.58203m-3.9492-5.7812m29.68 27.578c9.6523 2.4492 14.48 8.7617 18.762 15.516m-6.4375-.004c-1.9453-2.8516-3.9414-5.2539-6.5898-7.0976m8.7461 7.0938c-2.9492-4.4531-6.0312-8.1524-11.02-10.453m13.164 10.457c-3.6953-5.7226-7.6836-10.676-15.012-13.137m28.91-.36328c-5.0547 3.3242-8.3281 8.2695-11.285 13.504m6.2656-.004c.41015-.66797.82812-1.3164 1.25-1.9336m-3.3476 1.9258c1.5195-2.5625 3.0937-4.8828 4.9805-6.8555m-7.0625 6.8477c2.3242-4.0274 4.8047-7.6797 8.2383-10.445m-38.344-21.926c1.1914-6.7266-1.7812-5.5039 0-3.0586m10.102 11.004c3.8711 2.668 7.7656 5.2891 15.453 0-.25.1289.28125-.64844.0508-.48829-4.2109 2.9336-9.4687 4.375-15.504.48829m21.395.60937c3.7344 4.582 7.1289 2.4453 10.102 1.2227-2.9726.61328-7.1289 2.4453-10.102-1.832v.60937c-1.1875-11 2.4844-11.688 2.375-18.336 0-1.2226-3.5625-.61328-3.5625-2.4453m-4.1602 5.5c-2.5352-.0156-6.2031-4.2109-1.1875-4.2773.85156-.0117 2.0508 1.2656 2.6172 1.2266 4.5898-.31641-.10547-.64453-1.4297-.61719m-4.1602-4.8867v-1.2226l.59375.60937-.59375.61328m12.48 0v-1.2226l-.59765.60937.59765.61328m-.59765-.61328c-.59375 0-2.9688.61328-3.5625.61328s-1.1914-.61328-1.7852-.61328-1.7812.61328-2.375.61328c0 0 .59375 0 0 0s-2.3789-.61328-3.5664-.61328m3.5664-2.4453c.59375-1.832 4.7539-1.832 4.7539 0m-19.609 20.781c3.3906-1.2227 5.8594 3.0586 8.9141 3.0586 3.5625 0 5.3164-4.0508 5.9414-3.668m-11.293 1.2227c2.668-6.7227 10.105 0 11.293-1.2227m14.855 3.0547c-3.8711 2.7617-7.7266-1.832-9.5078-2.4453 1.7812 0 7.7226-4.2773 9.2422 1.6953m-39.645-13.492c-.01172.004-.02344.008-.03516.0117m.21484-1.3516c-.33984.10938-.68359.22266-1.0234.33204m8.1602-11.117c-5.1328 1.1602-10.254 2.7305-15.488 4.6289m4.5859 8.7109c-.6289.22265-1.2617.44922-1.8984.68359m3.4102-2.4961c-1.2539.42578-2.5234.875-3.8086 1.3438m6.6367-3.543c-2.2812.71094-4.5898 1.5-6.9414 2.3594m7.6875-3.8633c-2.6172.78906-5.2617 1.6797-7.9648 2.6641m8.8398-4.1914c-3 .87109-6.0312 1.875-9.1328 3.0039m10.125-4.5469c-3.4375.94922-6.8984 2.0781-10.441 3.3633m11.559-4.9258c-3.9219 1.0273-7.8672 2.293-11.902 3.7539m13.211-5.3398c-4.4844 1.1016-8.9766 2.5117-13.57 4.1758m51.926-6.5117c-3.8281-.70313-7.5195-1.1602-11.109-1.3906m4.9726 6.5977c-.49218-.0625-.98437-.1211-1.4726-.17969m2.7383-.87891c-1.1328-.16015-2.2539-.29687-3.3594-.41015m4.582-.64063c-1.7695-.26953-3.5039-.48437-5.2148-.64844m6.4648-.39062c-2.4492-.39844-4.8398-.69531-7.1797-.89453m8.3672-.14063c-3.1172-.53906-6.1445-.91797-9.1016-1.1406m-50.312-12.852 1.7852 5.6914m8.4219 8.0898-5.3437-15.496m9.543 14.137-4.4492-15.754m9.2226 14.391-3.8594-15.879m8.1836 14.836-2.4609-16.18m5.2773-1c.51562 5.3633.76172 11.004 1.2617 16.383m3.9062-17.078.45703 16.391m4.7812-16.871-.46875 16.406m5.6914-16.645-1.8945 16.102m6.9726-16.094-3.1953 15.023m8.6055-14.75-5.3789 16.094m9.9258-15.672-5.9766 15.887m11.414-15.129-7.0625 15.566m12.609-14.527-8.793 15.078m15.207-13.543-11.742 14.18m-58.434 13.223c.18359-4.5938-.21094-9.6172-.80469-14.785m2.6055 17.414c.14062-4.4727-.24609-9.3359-.82031-14.34m2.5977 16.941c.13672-3.9883-.14844-8.293-.61719-12.734m-4.9102 4.6484c.19922-4.5703-.17969-9.5664-.76562-14.715m-1.0117 12.117c.18359-4.4609-.17969-9.3242-.74609-14.332m-1.0312 11.73c.16406-4.2461-.16797-8.8555-.6875-13.605m-1.0859 11c.13672-3.9648-.14844-8.2461-.61328-12.656m-1.1641 10.047c.11328-3.6328-.12109-7.5234-.51953-11.535m-1.2812 8.9024c.12891-3.2227-.02734-6.6563-.33594-10.203m-1.4648 7.5703c.13281-2.7617.05078-5.6797-.16406-8.6953m-1.6094 6.1016c.10156-2.3008.05859-4.707-.08594-7.1875m-2.1055 3.9844c.05469-1.6836.03125-3.4258-.04687-5.207m-1.7305 2.6016c.03125-1.125.03125-2.2734 0-3.4453m23.754 38.211c.10938-2.9648-.01563-6.1055-.28125-9.3438m96.148-108.13c-2.8438 29.938-13.199 33.898-24.402 49.527l15.805 19.547m1.0273-53.266-6.9023-5.2031c-.95703-.94141-.98438-2.5078-.0586-3.4805.92969-.97266 2.4531-.97657 3.3867-.0117l5.7226 6.6211m-4.2031 17.234-3.6914 2.7773c-.38282.29688-.84375.46875-1.3203.48828-1.0547.0508-2.0156-.62109-2.3594-1.6484-.33984-1.0234.0156-2.1602.875-2.7891l7.6992-4.875-7.082 3.3672c-.22656.0742-.46485.10938-.70313.11329-1.1875 0-2.1953-.89844-2.3594-2.1094-.16406-1.2109.56641-2.3594 1.7109-2.6914l7.6523-1.793-7.2695.56641c-1.3242-.082-2.3242-1.2578-2.2305-2.6133.0937-1.3594 1.25-2.375 2.5664-2.2656l7.1953 1.3008-7.2852-1.9531c-1.2266-.51562-1.8086-1.9648-1.2891-3.2227.51953-1.2539 1.9375-1.832 3.1484-1.2774l6.7969 3.4648m2.1484-2.0742-5.5625-9.0391c-.57422-1.2305-.0547-2.7031 1.1484-3.2734 1.207-.57031 2.6328-.0195 3.168 1.2305l3.4805 10.105-2.9922-12.809c-.17188-1.3516.76171-2.5898 2.082-2.75 1.3164-.16016 2.5039.82422 2.6406 2.1797l.75 6.5898m6.332 31.645c1.1875-4.2774-4.1601-7.332-5.3476 1.2226-1.1875-8.5547-6.5352-5.5-5.3476-1.2226-4.1602-1.2227-7.1328 4.2812 1.1875 5.5039-8.3203 1.2227-5.3476 6.7227-1.1875 5.5-1.1875 4.2774 4.1602 7.3359 5.3476-1.2226 1.1875 8.5586 6.5351 5.5 5.3476 1.2226 4.1602 1.2227 7.1328-4.2773-1.1875-5.5 8.3203-1.2226 5.3476-6.7266 1.1875-5.5039m14.859-16.68c-1.1914 8.5586-6.5391 5.5039-5.3516 1.2227-4.1562 1.2227-7.1289-4.2774 1.1914-5.5m-5.293 3.3555c-2.3594.84766-4.4336 1.9922-6.1094 3.5586-3.0156 2.8203-4.918 7.0742-4.8789 14.008m-2.1562-3.9297c.61718-5.3437 2.5547-9.1914 5.4375-11.887 3.2891-3.082 7.6406-4.6211 12.387-5.5195m6.3906 6.5156c-.82031 4.5703-2.1289 8.8867-4.6445 12.41-2.0664 2.8945-4.9648 5.1758-8.9258 6.5391m.91406-2.9375c2.6484-1.2109 4.5938-2.9453 6.0937-5.0508 1.7305-2.418 2.8594-5.3945 3.6484-8.6836m-38.355 23.535c.35156-.39844.71484-.77734 1.0977-1.1367 2.9648-2.7734 6.789-4.2969 10.988-5.2305m-1.582 2.9336c-3.0664.88672-5.7422 2.1719-7.8047 4.1055-.66797.625-1.2812 1.3203-1.8281 2.0976m9.2187 11.402c1.2695-.96485 2.3281-2.0898 3.2266-3.3477 1.3438-1.8867 2.3281-4.1094 3.0703-6.5547m3.3828-3.8203c-.75 3.9531-1.8945 7.6914-3.8984 10.867m-4.7461-6.3789c0-1.0117-.79687-1.8359-1.7812-1.8359s-1.7812.82422-1.7812 1.8359.79687 1.832 1.7812 1.832 1.7812-.82031 1.7812-1.832m19.016-23.84c0-1.0117-.79688-1.832-1.7812-1.832s-1.7812.82031-1.7812 1.832c0 1.0117.79687 1.8359 1.7812 1.8359s1.7812-.82421 1.7812-1.8359m-3.5625-15.891c0-1.0156-.80079-1.8359-1.7852-1.8359-.98436 0-1.7812.82031-1.7812 1.8359 0 1.0117.79688 1.832 1.7812 1.832.98438 0 1.7852-.82031 1.7852-1.832m8.418 2.9727-.38672-.45313m4.8516 5.6797-4.4648-5.2266m6.0625 7.0976-1.5977-1.8711m3.7539 4.3984-2.1562-2.5274m-8.4453-7.1094-10.391-12.164m20.992 24.578-2.6445-3.0977m-9.875-8.7812-8.8086-10.316m16.219 18.988-.2539-.29298m5.3633 6.2773-3.2344-3.7891m-16.023-15.984-2.4492-2.8672m7.3555 8.6172-2.6172-3.0703m7.9766 9.3438-1.6172-1.8945m4.8867 5.7227-1.4062-1.6484m7.1289 8.3476-3.9258-4.5938m-16.273-16.281-1.9414-2.2695m6.0547 7.0898-2.6172-3.0664m12.266 14.363-7.9961-9.3633m14.051 16.449-4.3398-5.0781m-12.992-12.434-4.9062-5.7461m15.336 17.961-8.8203-10.332m14.344 16.797-3.8672-4.5273m-13.598-13.148-3.9258-4.5938m14.883 17.43-9.3789-10.984m14.512 16.992-3.5195-4.1211m-13.965-13.574-3.125-3.6562m8.4375 9.8789-3.7461-4.3867m9.6601 11.312-3.8125-4.4648m8.6914 10.176-3.2969-3.8594m-14.07-13.695-2.4883-2.918m7.793 9.1289-3.7226-4.3633m9.6601 11.316-3.9766-4.6602m8.7266 10.219-3.1914-3.7383m-13.914-13.512-2.0859-2.4414m13.047 15.273-9.3437-10.941m14.109 16.523-3.2109-3.7617m-13.484-13.012-1.8516-2.1641m12.234 14.328-8.7031-10.195m13.641 15.973-3.3633-3.9375m-12.781-12.188-1.8438-2.1602m6.5859 7.7148-2.9609-3.4688m6.418 7.5117-1.7773-2.0781m8.3437 9.7695-3.6289-4.25m-11.801-11.039-2.0352-2.3828m5.5781 6.5312-1.6289-1.9062m8.125 9.5156-.0234-.0273m4.039 4.7266-4.0156-4.6992m-10.516-9.5391-2.4648-2.8867m5.4648 6.4023-.93749-1.0977m11.09 12.988-4.2969-5.0352m-10.137-9.0898-2.1562-2.5274m5.375 6.293-.15234-.17578m.58593.6875-.43359-.51172m5.207 6.0977-.23438-.27344m4.8672 5.6992-.73437-.85547m-13.836-13.426-1.6484-1.9297m14.84 17.379-.98436-1.1562m-12.754-12.156-2.1562-2.5195m14.52 16.996-1.3672-1.5977m-12.57-11.941-1.6719-1.957m14.23 16.664-.44531-.52344m-13.812-13.395-1.086-1.2734m5.2852 6.1875-.16407-.1914m5.0078 5.8672-.44531-.52343m4.2851 5.0156-.48436-.5625m-12.937-12.375-1.6953-1.9805m2.8047 3.2774-1.1094-1.2969m1.5898 1.8633-.48047-.5664m10.937 12.809-2.8828-3.375m-9.5117-8.3594-2.5117-2.9414m13.527 15.844-2.0508-2.4024m-10.82-9.8945-1.832-2.1445m3.9961 4.6797-.44141-.51563m4.3437 5.0859-1.4883-1.7461m3.7656 4.4141-.30077-.35547m3.4531 4.043-1.3398-1.5664m-11.926-11.184-1.2461-1.4648m10.66 12.484-7.7422-9.0664m10.215 11.965-.72656-.85547m-12.809-12.215-.78125-.91797m11.023 12.91-8.625-10.102m10.543 12.344-.23437-.27344m-13.465-12.988-.42187-.49218m5.6719 6.6406-3.6719-4.2969m9.2578 10.84-3.2383-3.793m-9.0195-7.7852-.16797-.19531m6.3516 7.4375-4.6211-5.4062m5.2734 6.1719-.65235-.76563m5.0039 5.8594-4.3516-5.0938m-8.1328-6.7461-.0195-.0195m11.281 13.207-9.6914-11.348m-81.703 26.793-31.406-32.305" stroke-width=".72322"/>
  <path d="m47.133 120.21c-.52343.7539-.82421 1.5508-.59374 2.4453m.08203.60938c-.52734.7539-.82812 1.5508-.59765 2.4414m-.80859.36719c-.52734.75391-.82813 1.5508-.59765 2.4453m3.1133-13.812c-.125 1.8438-4.7812.008-4.1602-.60937m80.812-23.227c-1.8203-.92578-3.6328-1.7461-5.3476-1.2227m5.9453-21.395c.98438 1.2891 2.8438 1.5859 4.7539 1.832m-16.641-1.2227c-1.9805.26953-2.3633-.22266-2.9688-.60938m26.738-5.5c-2.9726 0-5.7773-5.1836-10.695 0m-8.082.37891c-1.4258-.37891-5.2891-6.1875-9.7461-.99219m18.719.51953c-.1914.48047-.29687 1.0352-.29687 1.625 0 1.8594 1.0625 3.3672 2.375 3.3672 1.3164 0 2.3789-1.5078 2.3789-3.3672 0-.55078-.0937-1.0703-.26172-1.5313m-21.562-.61328c-.10547.37891-.16406.78906-.16406 1.2227 0 1.8594 1.0664 3.3672 2.3789 3.3672s2.375-1.5078 2.375-3.3672c0-.16016-.008-.31641-.0234-.46875m-16.508 44.352c-2.0078-.41406-4.0352-.88672-6.0898-1.418m26.434 3.7695c-1.7148-.0391-3.4492-.11719-5.1953-.24219m15.156.008c-1.6719.11719-3.3555.19531-5.0547.23438m15.254-1.4297c-1.6758.27344-3.3633.51172-5.0664.71094m15.797-2.9727c-1.8438.47266-3.7031.91016-5.5703 1.3008m15.863-4.3672c-1.6602.5625-3.3242 1.0938-4.9961 1.5938m-55.887 1.6992c-1.9336-.39453-3.8906-.83984-5.875-1.3438m25.832 3.6016c-1.6719-.0352-3.3555-.10937-5.0586-.22656m14.797-.0195c-1.6367.11719-3.2852.19531-4.9492.23438m15.012-1.4219c-1.6562.26953-3.3203.50781-4.9961.70703m15.543-2.9375c-1.8125.46485-3.6367.89063-5.4687 1.2774m15.648-4.3164c-1.6367.55469-3.2812 1.0781-4.9297 1.5742m-6.4023-3.2658c1.6992-.4375 3.3906-.91406 5.0781-1.4219m-14.832 3.5195c1.5781-.26563 3.1445-.56641 4.707-.90234m-14.273 2.0781c1.6094-.12109 3.207-.28125 4.793-.47656m-13.648.75781c1.457.0156 2.9023.004 4.3398-.0391m-22.734-1.8438c1.5898.30078 3.1641.5625 4.7226.78906m-3.4102-3.0078c-1.5117-.27734-3.043-.58984-4.5859-.9375m22.187 2.6406c-1.3945-.0117-2.7969-.0547-4.2148-.1289m12.625-.16407c-1.4258.10938-2.8594.19141-4.3008.23829m13.621-1.4063c-1.5469.26562-3.1016.5-4.668.69531m14.027-2.7227c-1.6094.41797-3.2226.80078-4.8437 1.1523m14.367-4.0195c-1.5078.51172-3.0195 1-4.5312 1.457m-6.1445-3.3203c1.6094-.42187 3.2148-.87891 4.8203-1.3672m-13.402 3.2578c1.3906-.24609 2.7773-.52344 4.1602-.82422m-12.969 1.9766c1.4688-.125 2.9297-.28125 4.3789-.46875m-11.051.77734c.94141-.0078 1.875-.03125 2.8047-.07031m-19.66-1.2656c1.332.21875 2.6445.41406 3.9492.57813m-9.8203 9.4883c-1.8633-.37109-3.75-.79296-5.6601-1.2695m25.227 3.4336c-1.625-.0312-3.2617-.0977-4.918-.20703m14.437-.0469c-1.6016.11719-3.2148.19531-4.8437.23828m14.77-1.4219c-1.6328.26953-3.2773.50781-4.9297.70312m15.289-2.9023c-1.7773.45703-3.5664.8789-5.3633 1.2578m15.437-4.2656c-1.6211.54687-3.2383 1.0664-4.8672 1.5547m-5.7812-.91015c1.7109-.44141 3.418-.92188 5.1211-1.4336m-10.277 2.6484c1.7266-.36719 3.4453-.77344 5.1562-1.2148m-9.957 2.1289c1.6094-.26953 3.2109-.57422 4.8008-.91406m-14.488 2.0938c1.6328-.12109 3.2539-.28125 4.8594-.47656m-13.934.74609c1.4922.0234 2.9766.0117 4.4492-.0312m-23.238-1.9414c1.6328.3164 3.25.58984 4.8516.82812m-2.2344-5.2891c-1.4375-.25391-2.8945-.54688-4.3633-.86719m21.566 2.4805c-1.3477-.0078-2.7031-.04687-4.0703-.10938m12.258-.1914c-1.3906.11328-2.7852.1914-4.1953.24219m13.398-1.4063c-1.5312.26562-3.0703.4961-4.6211.69531m13.773-2.6875c-1.5742.41016-3.1523.78906-4.7383 1.1328m14.152-3.9688c-1.4883.50391-2.9766.98437-4.4648 1.4375m5.6484 2c1.5039-.50781 3.0078-1.0391 4.5117-1.5977m-6.8867-5.2969c1.1094-.375 2.2148-.76562 3.3281-1.168m-.55469 9.2148c1.6094-.54297 3.2148-1.1133 4.8242-1.7109m-7.1992-5.1836c1.1484-.38672 2.2969-.79297 3.4453-1.2109m-12.641 3.9883c1.6211-.42578 3.2422-.88672 4.8633-1.3789m-13.633 3.3008c1.418-.25 2.832-.52734 4.2422-.83594m-13.187 1.9922c1.4922-.12109 2.9766-.27734 4.4492-.46875m-12.191.78125c1.2656 0 2.5234-.02344 3.7695-.07031m-16.023 11.508c-1.75-.19531-3.5156-.43359-5.3008-.71875m5.7422-.45703c-1.7226-.1875-3.4648-.42187-5.2226-.69531m6.9961-4.0156c1.4297.14063 2.8476.25391 4.2539.33203m-3.375-2.668c-1.5664-.14454-3.1484-.33204-4.7461-.55469m6.5273-4.1836c1.3438.10938 2.6758.1875 3.9922.23828m-7.9805 10.371c-1.6992-.18359-3.4141-.40625-5.1484-.67188m6.0312-1.6836c1.4492.14844 2.8828.26172 4.3047.34766m-2.5352-5.0469c-1.5391-.13672-3.0937-.3125-4.664-.52734m5.5547-1.8398c1.3594.11328 2.7031.19922 4.039.25391m-12.617-1.3477c1.3711.23047 2.7305.4375 4.0781.60938m-15.883 3.043c1.1758.30859 2.3398.60156 3.4961.87109m3.3984-6.7266c.625.13672 1.2422.26562 1.8594.39063m-9.9023 6.418c1.2734.34766 2.5352.66797 3.7852.96875m3.0781-6.7891c.72656.16406 1.4492.32031 2.168.46875m65.625 5.4883c-.5625.1836-1.1289.36328-1.6953.53906m.78515-1.5273c-.38281.1211-.76562.24219-1.1484.36328m.3164-1.375c-.22656.07031-.45312.14062-.67968.21484m26.211 20.09c-6.5234-9.5469-13.043-19.094-19.566-28.641m19.566 24.391c-5.7461-8.4102-11.488-16.82-17.234-25.227m17.234 20.973c-4.9766-7.2852-9.9531-14.57-14.93-21.852m-82.719-4.625c-1.2773 5.2539-2.2148 11.207-2.7578 18.172m3.8164-3.4805.46484-3.6328c.61328-4.7812 1.4609-9.0156 2.5156-12.859m-12.461 24.781.09766-1.707c.39844-7 1.1836-13.117 2.3008-18.582m4-1.7891c-1.25 5.4531-2.1484 11.629-2.6328 18.824m7.7148-6.6094.23438-1.8203c.67969-5.3203 1.6445-9.9297 2.8633-14.055m4.3555-1.9414c-1.4414 4.1562-2.5859 8.8477-3.4101 14.457m-5.0508-10.68c-1.3047 5.0352-2.2812 10.742-2.8828 17.445" stroke-width=".36161"/>
 </g>
 <g fill="#f00" stroke="#4242ff" stroke-linecap="round" stroke-linejoin="round" stroke-width=".71302">
  <path d="m116.46 157.5c-.4961 0-3.9609-4.457-3.9609-4.9492 0 .49219-3.4648 4.9492-3.9609 4.9492.4961 0 3.9609 4.457 3.9609 4.9492 0-.49219 3.4648-4.9492 3.9609-4.9492z"/>
  <path d="m124.78 158.11c-.49609 0-3.9609-4.4531-3.9609-4.9492 0 .49609-3.4688 4.9492-3.9609 4.9492.49219 0 3.9609 4.457 3.9609 4.9531 0-.49609 3.4648-4.9531 3.9609-4.9531z"/>
  <path d="m133.1 158.72c-.49609 0-3.9648-4.457-3.9648-4.9531 0 .49609-3.4648 4.9531-3.9609 4.9531.49609 0 3.9609 4.457 3.9609 4.9492 0-.49219 3.4688-4.9492 3.9648-4.9492z"/>
 </g>
 <path d="m177.87 194.79c.52343-.75391.8242-1.5508.59374-2.4453m-.082-.60938c.52734-.75391.82812-1.5508.59765-2.4414m.8086-.36718c.52734-.75391.82813-1.5508.59765-2.4453m-3.1133 13.812c.125-1.8438 4.7812-.008 4.1602.60938m-80.812 23.227c1.8203.92578 3.6328 1.7461 5.3476 1.2227m-5.9453 21.395c-.98438-1.2891-2.8437-1.5859-4.7539-1.832m16.641 1.2227c1.9805-.26953 2.3633.22265 2.9688.60937m-26.738 5.5c2.9727 0 5.7773 5.1836 10.695 0m8.082-.3789c1.4258.3789 5.289 6.1875 9.7461.99218m-18.719-.51953c.19141-.48047.29687-1.0352.29687-1.625 0-1.8594-1.0625-3.3672-2.375-3.3672-1.3164 0-2.3789 1.5078-2.3789 3.3672 0 .55078.09375 1.0703.26172 1.5312m21.562.61328c.10547-.3789.16406-.78906.16406-1.2226 0-1.8594-1.0664-3.3672-2.3789-3.3672s-2.375 1.5078-2.375 3.3672c0 .16015.008.3164.0234.46875m16.508-44.352c2.0078.41407 4.0352.88672 6.0898 1.418m-26.434-3.7695c1.7148.0391 3.4492.11719 5.1953.24219m-15.156-.008c1.6719-.11719 3.3555-.19532 5.0547-.23438m-15.254 1.4297c1.6758-.27344 3.3633-.51172 5.0664-.71094m-15.797 2.9727c1.8437-.47266 3.7031-.91016 5.5703-1.3008m-15.863 4.3672c1.6602-.5625 3.3242-1.0938 4.9961-1.5938m55.887-1.6992c1.9336.39454 3.8906.83985 5.875 1.3438m-25.832-3.6016c1.6719.0352 3.3555.10938 5.0586.22656m-14.797.0195c1.6367-.11718 3.2852-.19531 4.9492-.23437m-15.012 1.4219c1.6562-.26953 3.3203-.50781 4.9961-.70703m-15.543 2.9375c1.8125-.46484 3.6367-.89062 5.4687-1.2773m-15.648 4.3164c1.6367-.55469 3.2812-1.0781 4.9297-1.5742m6.4023 3.2656c-1.6992.4375-3.3906.91406-5.0781 1.4219m14.832-3.5195c-1.5781.26562-3.1445.5664-4.707.90234m14.273-2.0781c-1.6094.1211-3.207.28126-4.793.47657m13.648-.75782c-1.457-.0156-2.9023-.004-4.3398.0391m22.734 1.8438c-1.5898-.30078-3.1641-.5625-4.7226-.78907m3.4102 3.0078c1.5117.27734 3.043.58984 4.5859.9375m-22.187-2.6406c1.3945.0117 2.7969.0547 4.2148.12891m-12.625.16406c1.4258-.10937 2.8594-.1914 4.3008-.23828m-13.621 1.4062c1.5469-.26562 3.1016-.5 4.668-.69531m-14.027 2.7226c1.6094-.41797 3.2227-.80078 4.8437-1.1523m-14.367 4.0195c1.5078-.51172 3.0195-1 4.5312-1.457m6.1445 3.3203c-1.6094.42188-3.2148.87891-4.8203 1.3672m13.402-3.2578c-1.3906.24609-2.7773.52344-4.1602.82422m12.969-1.9766c-1.4687.125-2.9297.28125-4.3789.46875m11.051-.77734c-.94141.008-1.875.0312-2.8047.0703m19.66 1.2656c-1.332-.21875-2.6445-.41406-3.9492-.57813m9.8203-9.4883c1.8633.37109 3.75.79297 5.6602 1.2695m-25.227-3.4336c1.625.0312 3.2617.0977 4.918.20703m-14.437.0469c1.6016-.11719 3.2148-.19532 4.8437-.23829m-14.77 1.4219c1.6328-.26953 3.2773-.50781 4.9297-.70313m-15.289 2.9024c1.7773-.45703 3.5664-.87891 5.3633-1.2578m-15.437 4.2656c1.6211-.54687 3.2383-1.0664 4.8672-1.5547m5.7812.91016c-1.7109.44141-3.418.92187-5.1211 1.4336m10.277-2.6484c-1.7266.36718-3.4453.77343-5.1562 1.2148m9.957-2.1289c-1.6094.26953-3.2109.57422-4.8008.91407m14.488-2.0938c-1.6328.12109-3.2539.28124-4.8594.47656m13.934-.7461c-1.4922-.0234-2.9766-.0117-4.4492.0312m23.238 1.9414c-1.6328-.31641-3.25-.58984-4.8516-.82813m2.2344 5.2891c1.4375.2539 2.8945.54687 4.3633.86719m-21.566-2.4805c1.3477.008 2.7031.0469 4.0703.10937m-12.258.19141c1.3906-.11328 2.7852-.19141 4.1953-.24219m-13.398 1.4062c1.5312-.26562 3.0703-.49609 4.6211-.69531m-13.773 2.6875c1.5742-.41016 3.1523-.78906 4.7383-1.1328m-14.152 3.9687c1.4883-.5039 2.9766-.98437 4.4648-1.4375m-5.6484-2c-1.5039.50782-3.0078 1.0391-4.5117 1.5977m6.8867 5.2969c-1.1094.375-2.2148.76562-3.3281 1.168m.55469-9.2148c-1.6094.54297-3.2148 1.1133-4.8242 1.7109m7.1992 5.1836c-1.1484.38672-2.2969.79297-3.4453 1.2109m12.641-3.9883c-1.6211.42578-3.2422.88672-4.8633 1.3789m13.633-3.3008c-1.418.25-2.832.52735-4.2422.83594m13.187-1.9922c-1.4922.1211-2.9766.27735-4.4492.46875m12.191-.78125c-1.2656 0-2.5234.0234-3.7695.0703m16.023-11.508c1.75.19532 3.5156.4336 5.3008.71875m-5.7422.45704c1.7226.18749 3.4648.42187 5.2226.69531m-6.9961 4.0156c-1.4297-.14062-2.8476-.2539-4.2539-.33203m3.375 2.668c1.5664.14453 3.1484.33203 4.7461.55469m-6.5273 4.1836c-1.3438-.10937-2.6758-.1875-3.9922-.23828m7.9805-10.371c1.6992.18359 3.414.40625 5.1484.67187m-6.0312 1.6836c-1.4492-.14844-2.8828-.26172-4.3047-.34766m2.5352 5.0469c1.5391.13672 3.0937.3125 4.664.52735m-5.5547 1.8398c-1.3594-.11328-2.7031-.19922-4.0391-.2539m12.617 1.3476c-1.3711-.23047-2.7305-.4375-4.0781-.60937m15.883-3.043c-1.1758-.3086-2.3398-.60157-3.4961-.8711m-3.3984 6.7266c-.625-.13672-1.2422-.26563-1.8594-.39063m9.9023-6.418c-1.2734-.34765-2.5352-.66797-3.7852-.96875m-3.0781 6.7891c-.72656-.16407-1.4492-.32032-2.168-.46875m-65.625-5.4883c.5625-.18359 1.1289-.36328 1.6953-.53906m-.78516 1.5274c.38281-.1211.76562-.24219 1.1484-.36329m-.31641 1.375c.22656-.0703.45312-.14062.67969-.21484m-26.211-20.09c6.5234 9.5469 13.043 19.094 19.566 28.641m-19.566-24.391c5.7461 8.4102 11.488 16.82 17.234 25.227m-17.234-20.973c4.9766 7.2852 9.9531 14.57 14.93 21.852m82.719 4.625c1.2773-5.2539 2.2148-11.207 2.7578-18.172m-3.8164 3.4805-.46485 3.6328c-.61328 4.7812-1.4609 9.0156-2.5156 12.859m12.461-24.781-.0976 1.707c-.39844 7-1.1836 13.117-2.3008 18.582m-4 1.7891c1.25-5.4531 2.1484-11.629 2.6328-18.824m-7.7148 6.6094-.23437 1.8203c-.67969 5.3203-1.6445 9.9297-2.8633 14.055m-4.3555 1.9414c1.4414-4.1563 2.5859-8.8477 3.4102-14.457m5.0508 10.68c1.3047-5.0352 2.2812-10.742 2.8828-17.445" fill="none" stroke="#4242ff" stroke-linecap="round" stroke-linejoin="round" stroke-width=".36161"/>
 <g fill="#f00" stroke="#4242ff" stroke-linecap="round" stroke-linejoin="round" stroke-width=".71302">
  <path d="m108.54 157.5c.4961 0 3.9609 4.457 3.9609 4.9492 0-.49219 3.4648-4.9492 3.9609-4.9492-.4961 0-3.9609-4.457-3.9609-4.9492 0 .49219-3.4648 4.9492-3.9609 4.9492z"/>
  <path d="m100.22 156.89c.49609 0 3.9609 4.4531 3.9609 4.9492 0-.49609 3.4688-4.9492 3.9609-4.9492-.49219 0-3.9609-4.457-3.9609-4.9531 0 .49609-3.4648 4.9531-3.9609 4.9531z"/>
  <path d="m91.898 156.28c.49609 0 3.9648 4.457 3.9648 4.9531 0-.49609 3.4648-4.9531 3.9609-4.9531-.49609 0-3.9609-4.457-3.9609-4.9492 0 .49219-3.4688 4.9492-3.9648 4.9492z"/>
 </g>
 <path d="m12.449 29.25c9 0 6.6016 10.801 15.602 10.801m-13.051-13.801v-8.5508c0-2.8984 2.3516-5.25 5.25-5.25 2.8984 0 5.25 2.3516 5.25 5.25v17.102c0 2.8984-2.3516 5.25-5.25 5.25-2.8984 0-5.25-2.3516-5.25-5.25zm0 0" fill="none" stroke="#f00" stroke-linecap="square" stroke-miterlimit="1.5" stroke-width="2.4"/>
 <path d="m11.887 58.484c1.043 0 8.3633-9.4102 8.3633-10.457 0 1.0469 7.3203 10.457 8.3672 10.457-1.0469 0-8.3672 9.4102-8.3672 10.457 0-1.0469-7.3203-10.457-8.3633-10.457z" fill="#f00"/>
 <path d="m37.125 59.699c2.1758 0 17.398-19.574 17.398-21.75 0 2.1758 15.227 21.75 17.402 21.75-2.1758 0-17.402 19.574-17.402 21.75 0-2.1758-15.223-21.75-17.398-21.75z" fill="#f00"/>
 <path d="m212.55 285.75c-9 0-6.6016-10.801-15.602-10.801m13.051 13.801v8.5508c0 2.8984-2.3516 5.25-5.25 5.25s-5.25-2.3516-5.25-5.25v-17.102c0-2.8984 2.3516-5.25 5.25-5.25s5.25 2.3516 5.25 5.25zm0 0" fill="none" stroke="#f00" stroke-linecap="square" stroke-miterlimit="1.5" stroke-width="2.4"/>
 <path d="m213.11 256.52c-1.043 0-8.3633 9.4102-8.3633 10.457 0-1.0469-7.3203-10.457-8.3672-10.457 1.0469 0 8.3672-9.4102 8.3672-10.457 0 1.0469 7.3203 10.457 8.3633 10.457z" fill="#f00"/>
 <path d="m187.88 255.3c-2.1758 0-17.398 19.574-17.398 21.75 0-2.1758-15.227-21.75-17.402-21.75 2.1758 0 17.402-19.574 17.402-21.75 0 2.1758 15.223 21.75 17.398 21.75z" fill="#f00"/>
 <path d="m35.25 35.25h154.5v244.5h-154.5z" fill="none" stroke="#4242ff" stroke-width=".9375"/>
</svg>
