<svg width="225px" height="315px" version="1.1" viewBox="0 0 225 315" xmlns="http://www.w3.org/2000/svg">
 <g>
  <path d="m11.719.46875h201.56c6.2148 0 11.25 5.0352 11.25 11.25v291.56c0 6.2148-5.0352 11.25-11.25 11.25h-201.56c-6.2148 0-11.25-5.0352-11.25-11.25v-291.56c0-6.2148 5.0352-11.25 11.25-11.25z" fill="#fff"/>
  <path d="m114.23 35.25-25.727 38.184c-5.1367-1.6172-10.336-2.6875-14.633-3.3438 5.9531-11.828 8.9258-23.328 11.988-34.84zm40.395 3.3359c5.8516 18.789 18.156 37.684 10.254 55.723l2.0703 1.6445c-.21093 18.469-3.5742 35.031-8.8594 48.727-2.1523 2.6055-4.582 5.1484-7.3047 7.8398-.42969.42188-.86719.85156-1.3476 1.2969l-66.828.0156.04687-.0625c.01563-.0156.03125-.0352.04297-.0508-1.8125 2.1133-3.8789 4.293-6.2148 6.5469-9.168 8.8281-15.094 15.57-21.035 27.797-6.2969-8.6367-11.668-13.461-20.203-18.68v-4.5938c8.1562 4.8086 13.898 9.3711 19.559 16.133 5.3398-9.5195 11.16-15.969 19.039-23.559 9.0391-8.707 13.582-16.086 15.375-22.055 1.793-5.9726 1.0586-10.59-.94531-14.789-3.3672-7.0586-10.875-12.516-16.527-16.367l3.1836-2.625c8.2656 5.6172 20.543 15.102 19.012 29.871l12.629.125 15.664 18.629 16.469-.004c-17.656-21.586-37.598-42.277-55.82-59.262l1.1367-1.3438c3.4297-.37109 6.6133-1.2695 9.5664-2.6211.21094.51172.52734.98047.94531 1.375 16.168 15.219 32.766 28.27 45.324 48.352l3.25-2.1484c-12.984-20.758-29.965-34.074-45.965-49.137l-2.082.83984c2.1094-1.0977 4.0977-2.4297 5.9766-3.9688 14.82 3.5469 24.75 4.457 31.762 3.9062 0 0 2.2969 1.7891 3.4844 1.7891 1.7852 0 3.043-.69141 3.6367-.69141s1.1875.60938 2.9688.60938c1.7852 0 3.5664-3.0547 4.7539-6.1094.17969-.25.35938-.5.50391-.71094l4.6602 3.6992-1.25-.06641c-.85156 16.926.15235 34.383-5.1133 49.895l3.2617 2.1602c.15625-.26172.28906-.54297.38672-.85156 5.4023-15.918 4.5625-33.047 5.2383-49.133l8.2852 6.5742-2.4024-2.0312c6.3008-19.609-3.0234-33.668-7.1289-48.816zm25.02 6.4453c6.5352 6.1094 11.883 17.727 4.1602 17.727-1.1094 0-1.8086-.69922-2.332-1.9062l.008 6.6992c.76563-1.0273 1.7031-1.7383 2.918-1.7383 4.1602 0 4.7539 8.5586.59375 8.5586-2.9062 0-2.7266-5.2695-1.2852-5.4922-6.3555.62109 1.8789 30.582 1.8203 36.211-.0352 2.9805-.78906 5.957-3.7422 6.8711 2.2344.61328 3.8008 2.1602 3.8008 3.9726 0 1.75-1.457 3.2539-3.6094 3.9453 2.8164.89453 3.6094 3.4805 3.6094 5.8359 0 4.4297-1.5625 11.754-2.4375 15.445-3.2188-2.418-6.0117-5-8.7148-8.082-.39453-2.6055-.73047-5.2969-.73047-7.3633 0-2.3711.80469-4.9805 3.6641-5.8711-1.6484-.63672-2.9844-1.8789-3.6641-3.9102 0-1.8125 1.5664-3.3633 3.6562-4.0195-2.8594-1.0586-3.5664-3.9375-3.5977-6.8242-.0586-5.6289 8.1758-35.59 1.8203-36.211 1.4414.22266 1.6211 5.4922-1.2852 5.4922-4.1602 0-3.5664-8.5586.59375-8.5586 1.2891 0 2.2656.79688 2.9805 1.8359l-.0391-6.8125c-.50391 1.1875-1.2109 1.9219-2.3477 1.9219-7.7266 0-2.375-11.617 4.1602-17.727zm-76.238 35.188c10.297 2.4258 18.039 3.4414 23.867 3.5742 1.6875.76562 3.5703 1.457 5.4375 2.3164-7.0078.55078-16.941-.35938-31.754-3.9141.92187-.63672 1.7109-1.3164 2.4492-1.9766zm44.031 10.793c-3.5195 1.4375-7.7148 2.6367-13.074 3.0742-6.0977.5-13.734.05859-23.84-1.7617 11.715 10.652 23.582 21.688 33.555 36.535 2.9727-11.59 2.9375-24.578 3.3594-37.848zm-98.227 2.1523c2.8555 0 5.7109 2.1211 3.5469 6.3633-.97656-.84766-2.2383-1.3164-3.5469-1.3203-1.3086.0039-2.5742.47266-3.5508 1.3164-2.1602-4.2383.69531-6.3594 3.5508-6.3594zm6.5 5.8047c5.3789.09766 4.4727 11.949-2.7109 8.0977.99609-.97266 1.5586-2.2891 1.5586-3.6602 0-1.375-.5625-2.6914-1.5586-3.6641 1.0312-.55078 1.9375-.78516 2.7109-.77344zm-13 0c.77344-.01172 1.6758.22266 2.707.77344-.99609.97265-1.5547 2.2891-1.5547 3.6641 0 1.3711.5625 2.6875 1.5586 3.6602-7.1836 3.8555-8.0898-8-2.7109-8.0977zm2.9492 8.3125c.98047.84766 2.2422 1.3164 3.5508 1.3203 1.3086-.004 2.5703-.47265 3.5508-1.3164 1.4219 2.793.66797 4.6641-.83203 5.6172 2.8164 4.2148 5.8164 8.0703 8.9102 11.762.65234-6.8086 3.1133-10.508 9.4648-7.5078-4.4219 1.9727-4.582 8.5977-9.0234 8.0312.69531.82813 1.3984 1.6484 2.1016 2.457l-1.8086.23438c-.85938-1.0039-1.7188-2.0156-2.5664-3.0391-.61719 4.7774-4.168-.92578-7.9883-.67187 1.957-5.1055 3.8086-1.2852 7.8984.56641-2.918-3.5312-5.75-7.2227-8.4141-11.242-3.1562.75-7.3359-1.3203-4.8438-6.2109zm-5.0664 8.043c3.918 4.7344 7.5898 9.5312 14.855 13.445-2 3.6953-3.168 7.3633-3.5664 11.004-5.6133 2.2422-9.8477 6.3359-13.664 11.004-.28125-4.5312.50781-8.7266 3.5625-12.227-2.7734-.60937-4.7539-2.4453-5.9414-5.5 1.7266-2.9844 4.2773-4 7.1328-4.2812-5.3359-3.9297-3.5977-8.7188-2.3789-13.445zm52.664 19.898c-1.293 5.0938-4.2031 10.762-9.3398 17.047.58594-.71094 1.1484-1.418 1.6875-2.1094l34.047-.008-7.6797-.0547-8.9336-10.629-11.16-.043c.58594-1.4531 1.0391-2.8594 1.3789-4.2031zm51.625 3.0234c-.52735 0-1.1094.2461-1.7695 1.1289-.65625.88672-1.2031 2.3594-1.2031 4.0664 0 1.707.54688 3.1797 1.2031 4.0664.66015.88281 1.2422 1.1289 1.7695 1.1289.52344 0 1.1055-.2461 1.7656-1.1289.66016-.88672 1.2031-2.3594 1.2031-4.0664 0-1.707-.54297-3.1797-1.2031-4.0664-.66015-.88281-1.2422-1.1289-1.7656-1.1289z" fill="#ffcc42"/>
  <path d="m110.77 279.75 25.727-38.184c5.1367 1.6172 10.336 2.6875 14.633 3.3438-5.9531 11.828-8.9258 23.328-11.988 34.84zm-40.395-3.3359c-5.8516-18.789-18.156-37.684-10.254-55.723l-2.0703-1.6445c.21094-18.469 3.5742-35.031 8.8594-48.727 2.1523-2.6055 4.582-5.1484 7.3047-7.8398.42969-.42188.86719-.85156 1.3477-1.2969l66.828-.0156-.0469.0625c-.0156.0156-.0312.0352-.043.0508 1.8125-2.1133 3.8789-4.293 6.2148-6.5469 9.168-8.8281 15.094-15.57 21.035-27.797 6.2969 8.6367 11.668 13.461 20.203 18.68v4.5938c-8.1562-4.8086-13.898-9.3711-19.559-16.133-5.3398 9.5195-11.16 15.969-19.039 23.559-9.0391 8.707-13.582 16.086-15.375 22.055-1.793 5.9726-1.0586 10.59.94532 14.789 3.3672 7.0586 10.875 12.516 16.527 16.367l-3.1836 2.625c-8.2656-5.6172-20.543-15.102-19.012-29.871l-12.629-.125-15.664-18.629-16.469.004c17.656 21.586 37.598 42.277 55.82 59.262l-1.1367 1.3438c-3.4297.37109-6.6133 1.2695-9.5664 2.6211-.21094-.51171-.52735-.98046-.94532-1.375-16.168-15.219-32.766-28.27-45.324-48.352l-3.25 2.1484c12.984 20.758 29.965 34.074 45.965 49.137l2.082-.83985c-2.1094 1.0977-4.0977 2.4297-5.9766 3.9688-14.82-3.5469-24.75-4.457-31.762-3.9062 0 0-2.2969-1.7891-3.4844-1.7891-1.7852 0-3.043.69141-3.6367.69141s-1.1875-.60938-2.9688-.60938c-1.7852 0-3.5664 3.0547-4.7539 6.1094-.17969.25-.35938.5-.50391.71094l-4.6602-3.6992 1.25.0664c.85156-16.926-.15234-34.383 5.1133-49.895l-3.2617-2.1602c-.15625.26171-.28906.54296-.38672.85156-5.4023 15.918-4.5625 33.047-5.2383 49.133l-8.2852-6.5742 2.4023 2.0312c-6.3008 19.609 3.0234 33.668 7.1289 48.816zm-25.02-6.4453c-6.5352-6.1094-11.883-17.727-4.1602-17.727 1.1094 0 1.8086.69922 2.332 1.9062l-.0078-6.6992c-.76562 1.0273-1.7031 1.7383-2.918 1.7383-4.1602 0-4.7539-8.5586-.59375-8.5586 2.9062 0 2.7266 5.2695 1.2852 5.4922 6.3555-.62109-1.8789-30.582-1.8203-36.211.03516-2.9805.78906-5.957 3.7422-6.8711-2.2344-.61328-3.8008-2.1602-3.8008-3.9726 0-1.75 1.457-3.2539 3.6094-3.9453-2.8164-.89453-3.6094-3.4805-3.6094-5.8359 0-4.4297 1.5625-11.754 2.4375-15.445 3.2188 2.418 6.0117 5 8.7148 8.082.39453 2.6055.73047 5.2969.73047 7.3633 0 2.3711-.80469 4.9805-3.6641 5.8711 1.6484.63672 2.9844 1.8789 3.6641 3.9102 0 1.8125-1.5664 3.3633-3.6562 4.0195 2.8594 1.0586 3.5664 3.9375 3.5977 6.8242.05859 5.6289-8.1758 35.59-1.8203 36.211-1.4414-.22265-1.6211-5.4922 1.2852-5.4922 4.1602 0 3.5664 8.5586-.59375 8.5586-1.2891 0-2.2656-.79688-2.9805-1.8359l.03906 6.8125c.50391-1.1875 1.2109-1.9219 2.3477-1.9219 7.7266 0 2.375 11.617-4.1602 17.727zm76.238-35.188c-10.297-2.4258-18.039-3.4414-23.867-3.5742-1.6875-.76562-3.5703-1.457-5.4375-2.3164 7.0078-.55078 16.941.35938 31.754 3.9141-.92187.63672-1.7109 1.3164-2.4492 1.9766zm-44.031-10.793c3.5195-1.4375 7.7148-2.6367 13.074-3.0742 6.0977-.5 13.734-.0586 23.84 1.7617-11.715-10.652-23.582-21.688-33.555-36.535-2.9727 11.59-2.9375 24.578-3.3594 37.848zm98.227-2.1523c-2.8555 0-5.7109-2.1211-3.5469-6.3633.97656.84765 2.2383 1.3164 3.5469 1.3203 1.3086-.004 2.5742-.47266 3.5508-1.3164 2.1602 4.2383-.69532 6.3594-3.5508 6.3594zm-6.5-5.8047c-5.3789-.0977-4.4727-11.949 2.7109-8.0977-.99609.97266-1.5586 2.2891-1.5586 3.6602 0 1.375.5625 2.6914 1.5586 3.6641-1.0312.55078-1.9375.78516-2.7109.77344zm13 0c-.77344.0117-1.6758-.22266-2.707-.77344.9961-.97265 1.5547-2.2891 1.5547-3.6641 0-1.3711-.5625-2.6875-1.5586-3.6602 7.1836-3.8555 8.0898 8 2.7109 8.0977zm-2.9492-8.3125c-.98047-.84766-2.2422-1.3164-3.5508-1.3203-1.3086.004-2.5703.47265-3.5508 1.3164-1.4219-2.793-.66796-4.6641.83204-5.6172-2.8164-4.2148-5.8164-8.0703-8.9102-11.762-.65234 6.8086-3.1133 10.508-9.4648 7.5078 4.4219-1.9727 4.582-8.5977 9.0234-8.0312-.69531-.82813-1.3984-1.6484-2.1016-2.457l1.8086-.23438c.85938 1.0039 1.7188 2.0156 2.5664 3.0391.61719-4.7774 4.168.92578 7.9883.67187-1.957 5.1055-3.8086 1.2852-7.8984-.56641 2.918 3.5312 5.75 7.2227 8.4141 11.242 3.1562-.75 7.3359 1.3203 4.8438 6.2109zm5.0664-8.043c-3.918-4.7344-7.5898-9.5312-14.855-13.445 2-3.6953 3.168-7.3633 3.5664-11.004 5.6133-2.2422 9.8477-6.3359 13.664-11.004.28125 4.5312-.50781 8.7266-3.5625 12.227 2.7734.60937 4.7539 2.4453 5.9414 5.5-1.7266 2.9844-4.2773 4-7.1328 4.2812 5.3359 3.9297 3.5976 8.7188 2.3789 13.445zm-52.664-19.898c1.293-5.0938 4.2031-10.762 9.3398-17.047-.58593.71094-1.1484 1.418-1.6875 2.1094l-34.047.008 7.6797.0547 8.9336 10.629 11.16.043c-.58594 1.4531-1.0391 2.8594-1.3789 4.2031zm-51.625-3.0234c.52734 0 1.1094-.2461 1.7695-1.1289.65625-.88672 1.2031-2.3594 1.2031-4.0664s-.54688-3.1797-1.2031-4.0664c-.66016-.88282-1.2422-1.1289-1.7695-1.1289-.52344 0-1.1055.24609-1.7656 1.1289-.66016.88672-1.2031 2.3594-1.2031 4.0664s.54297 3.1797 1.2031 4.0664c.66016.88281 1.2422 1.1289 1.7656 1.1289z" fill="#ffcc42"/>
  <path d="m123.49 35.25-29.527 40.398-5.3555-2.2578 25.629-38.141zm-9.2734 0-7.5781 11.094c-1.2695-3.1484-3.0547-3.1484-3.0547-3.1484 1.0117-4.6719-.39453-5.8555-.97266-7.9453zm-21.922 32.395-3.7891 5.7891c-3.0469-.95703-6.1133-1.7266-9.0078-2.332 2.3672-.3125 5.0078-1.0508 7.4492-2.8438 1.1875.60938 3.5625 1.2227 5.3477-.61328zm-11.781 26.441c18.418 17.082 38.457 37.383 53.336 56.082l-6.4961-.004-19.016-22.617h-14.312l.0078-.0469c-.75781-12.562-11.586-20.863-19.062-25.945zm86.449 1.9023 7.1172 5.668.0469.0352c-.23047 1.4726-.3711 2.6523-.36329 3.3984.0312 2.8867.73829 5.7656 3.5977 6.8242-2.0898.65625-3.6562 2.207-3.6562 4.0195.67969 2.0312 2.0156 3.2734 3.6641 3.9102-2.8594.89063-3.6641 3.5-3.6641 5.8711 0 2.0664.33594 4.7578.73047 7.3633.23047.26172.46484.52344.69922.78125-1.8555-2.0352-3.6797-4.3008-5.5898-6.9219-3.5976 7.3945-7.1836 12.785-11.512 17.812 5.3438-13.766 8.707-30.328 8.9297-48.762zm17.492 13.879 5.293 4.1875v31.562c-3.6602-2.2422-6.7383-4.4102-9.5586-6.832.94921.8125 1.9336 1.6016 2.9609 2.375.875-3.6914 2.4375-11.016 2.4375-15.445 0-2.3555-.79297-4.9414-3.6094-5.8359 2.1523-.69141 3.6094-2.1953 3.6094-3.9453 0-1.8125-1.5664-3.3594-3.8008-3.9726 1.2422-.38281 2.0938-1.1328 2.668-2.0938zm-141.44 8.4102.13281.12891c2.3828 2.8164 4.9766 5.582 8.5273 8.0352-3.2227 4.8125-4.3555 9.8242-3.2969 15.051-3.0234 1.8047-5.6133 4.1406-8.0664 6.8281 1.1992-3.543 3.2031-8.3203 7.6797-10.926-4.4102-.71094-6.2539-1.957-7.9922-4.3438 3.3945-2.5977 6-1.9492 9.1875-1.918-4.6523-2.6758-5.9336-7.918-6.1719-12.855zm133.57 17.125c.0937.0937.1875.19141.28125.28516-.0937-.0937-.1875-.19141-.28125-.28516zm.60938.61719c.0937.0898.18359.17969.27734.27344-.0937-.0937-.18359-.1836-.27734-.27344zm.625.61328c.25.23828.49609.47266.74609.70313-.25-.23047-.49609-.46485-.74609-.70313zm.77734.73438c.17578.16015.35156.32422.52735.48047-.17579-.15625-.35157-.31641-.52735-.48047zm-33.715 3.3242c.72265 0 1.3047 1.2305 1.3047 2.75 0 1.5195-.58204 2.75-1.3047 2.75-.72266 0-1.3086-1.2305-1.3086-2.75 0-1.5195.58594-2.75 1.3086-2.75zm-26.762 15.582c.65625 0 1.1875.54687 1.1875 1.2226s-.53125 1.2227-1.1875 1.2227-1.1875-.54688-1.1875-1.2227.53125-1.2226 1.1875-1.2226zm21.711.004c.65625 0 1.1875.54688 1.1875 1.2227s-.53125 1.2227-1.1875 1.2227-1.1914-.54688-1.1914-1.2227.53516-1.2227 1.1914-1.2227zm-10.832.0508c.65625 0 1.1875.54688 1.1875 1.2227s-.53125 1.2227-1.1875 1.2227-1.1875-.54688-1.1875-1.2227.53125-1.2227 1.1875-1.2227z" fill="#f00"/>
  <path d="m101.51 279.75 29.527-40.398 5.3555 2.2578-25.629 38.141zm9.2734 0 7.5781-11.094c1.2695 3.1484 3.0547 3.1484 3.0547 3.1484-1.0117 4.6719.39453 5.8555.97266 7.9453zm21.922-32.395 3.7891-5.7891c3.0469.95703 6.1133 1.7266 9.0078 2.332-2.3672.3125-5.0078 1.0508-7.4492 2.8438-1.1875-.60938-3.5625-1.2227-5.3477.61328zm11.781-26.441c-18.418-17.082-38.457-37.383-53.336-56.082l6.4961.004 19.016 22.617h14.312l-.008.0469c.75782 12.562 11.586 20.863 19.062 25.945zm-86.449-1.9023-7.1172-5.668-.04687-.0352c.23047-1.4726.37109-2.6523.36328-3.3984-.03125-2.8867-.73828-5.7656-3.5977-6.8242 2.0898-.65625 3.6562-2.207 3.6562-4.0195-.67969-2.0312-2.0156-3.2734-3.6641-3.9102 2.8594-.89063 3.6641-3.5 3.6641-5.8711 0-2.0664-.33594-4.7578-.73047-7.3633-.23047-.26171-.46484-.52343-.69922-.78125 1.8555 2.0352 3.6797 4.3008 5.5898 6.9219 3.5977-7.3945 7.1836-12.785 11.512-17.812-5.3438 13.766-8.707 30.328-8.9297 48.762zm-17.492-13.879-5.293-4.1875v-31.562c3.6602 2.2422 6.7383 4.4102 9.5586 6.832-.94922-.8125-1.9336-1.6016-2.9609-2.375-.875 3.6914-2.4375 11.016-2.4375 15.445 0 2.3555.79297 4.9414 3.6094 5.8359-2.1523.69141-3.6094 2.1953-3.6094 3.9453 0 1.8125 1.5664 3.3594 3.8008 3.9726-1.2422.38281-2.0938 1.1328-2.668 2.0938zm141.44-8.4102-.13281-.12891c-2.3828-2.8164-4.9766-5.582-8.5274-8.0352 3.2227-4.8125 4.3555-9.8242 3.2969-15.051 3.0234-1.8047 5.6133-4.1406 8.0664-6.8281-1.1992 3.543-3.2031 8.3203-7.6797 10.926 4.4102.71094 6.2539 1.957 7.9922 4.3438-3.3945 2.5976-6 1.9492-9.1875 1.918 4.6524 2.6758 5.9336 7.918 6.1719 12.855zm-133.57-17.125c-.09375-.0937-.1875-.19141-.28125-.28516.09375.0937.1875.19141.28125.28516zm-.60938-.61719c-.09375-.0898-.18359-.17969-.27734-.27344.09375.0937.18359.18359.27734.27344zm-.625-.61328c-.25-.23828-.49609-.47266-.74609-.70313.25.23047.49609.46485.74609.70313zm-.77734-.73438c-.17578-.16015-.35156-.32422-.52734-.48047.17578.15625.35156.31641.52734.48047zm33.715-3.3242c-.72266 0-1.3047-1.2305-1.3047-2.75s.58203-2.75 1.3047-2.75c.72266 0 1.3086 1.2305 1.3086 2.75s-.58594 2.75-1.3086 2.75zm26.762-15.582c-.65625 0-1.1875-.54687-1.1875-1.2226 0-.67579.53125-1.2227 1.1875-1.2227s1.1875.54687 1.1875 1.2227c0 .67578-.53125 1.2226-1.1875 1.2226zm-21.711-.004c-.65625 0-1.1875-.54688-1.1875-1.2227s.53125-1.2227 1.1875-1.2227 1.1914.54688 1.1914 1.2227-.53516 1.2227-1.1914 1.2227zm10.832-.0508c-.65625 0-1.1875-.54687-1.1875-1.2226s.53125-1.2227 1.1875-1.2227 1.1875.54688 1.1875 1.2227-.53125 1.2226-1.1875 1.2226z" fill="#f00"/>
  <path d="m133.59 53.586c.82031 0 1.4883 1.0977 1.4883 2.4453 0 1.3516-.66797 2.4453-1.4883 2.4453s-1.4844-1.0938-1.4844-2.4453c0-1.3477.66407-2.4453 1.4844-2.4453zm16.641.61328c.82032 0 1.4844 1.0938 1.4844 2.4453 0 1.3477-.66406 2.4453-1.4844 2.4453-.82031 0-1.4844-1.0977-1.4844-2.4453 0-1.3516.66406-2.4453 1.4844-2.4453zm-2.793 36.812c-.42188 13.27-.38672 26.258-3.3594 37.848-9.9727-14.848-21.84-25.883-33.555-36.535 10.105 1.8203 17.742 2.2617 23.84 1.7617 5.3594-.4375 9.5547-1.6367 13.074-3.0742zm-5.1016 2.8008c-2.6836.01563-6.2422.28906-9.9219.76562-7.8164 1.0117-14.043 2.6484-13.914 3.6523.13281 1.0039 6.6953.62109 14.508-.39453 7.8125-1.0117 13.918-2.2695 13.789-3.2734-.0625-.49219-1.6719-.76172-4.4609-.75zm-85.402 1.6445c-.28516 1.0273-.5 2.2305-.64844 3.5273v.04297c-.87891-.16406-1.957.01172-3.2383.6875l2.5273-2.5977c.05469-.05469.07031-.13281.04297-.20313-.02734-.06641-.09375-.11328-.16406-.11328-.05078 0-.09375.01953-.12891.05469l-2.5273 2.6016c.65625-1.3125.82812-2.4219.66797-3.3242 1.2773-.15234 2.4609-.37891 3.4688-.67578zm-15.449 0c1.0039.29688 2.1758.51953 3.4375.67188h.03516c-.16406.90234.0078 2.0117.66797 3.3281l-2.5273-2.6016c-.03125-.03125-.07812-.05469-.125-.05469-.07031 0-.14062.04297-.16797.11328-.02734.07031-.01172.14844.03906.20313l2.5273 2.5977c-1.2773-.67578-2.3555-.85156-3.2305-.6875v-.01953c-.14844-1.3047-.36719-2.5156-.65625-3.5508zm101.45 1.8672c-2.4219.01172-5.6367.28516-8.9609.76172-7.0547 1.0156-12.68 2.6484-12.562 3.6523.1211 1.0039 5.9336.9961 12.988-.0156 7.0547-1.0117 12.68-2.6484 12.562-3.6523-.0586-.48828-1.5117-.76172-4.0273-.74609zm-.91406 4.2383c-1.7969-.008-3.8789.10156-6 .3125-6.1211.61719-11.172 1.8047-11.133 2.8125.0391 1.0117 5.0312 1.3281 11.152.71094 6.1211-.61719 11.051-1.9336 11.012-2.9414-.0234-.62109-1.8438-.8789-5.0312-.89453zm-70.219 2.5781c3.125 2.1797 6.8945 4.8555 10.203 8.0469l-18.621 15.457c-.70312-.80859-1.4062-1.6289-2.1016-2.457 4.4414.56641 4.6016-6.0586 9.0234-8.0312-6.3516-3-8.8125.69922-9.4648 7.5078-2.1758-2.5938-4.3047-5.2734-6.3555-8.0976 6.0039-3.8984 11.809-8.0234 17.316-12.426zm-10.961 20.523c.14453.17578.29297.35157.44141.52344-.15625-.0195-.31641-.0469-.48438-.082.01172-.15234.02734-.29688.04297-.44141zm2.543 2.9805-.15625.12891c-3.3594.16797-7.7773.99609-7.7773.99609-3.9492-2.125-6.8359-4.5156-9.2773-7.0117 2.3711-1.4258 4.7148-2.8828 7.0352-4.3672 1.8477 2.5508 3.7617 4.9844 5.7109 7.3438-4.0898-1.8516-5.9414-5.6719-7.8984-.56641 3.8203-.25391 7.3711 5.4492 7.9883.67187.84766 1.0234 1.707 2.0352 2.5664 3.0391zm78.84-22.102c-1.4453-.0117-3.1172.0977-4.8281.3125-4.9219.61719-8.8867 1.9336-8.8555 2.9414.0312 1.0117 4.0508 1.3281 8.9726.71093 4.9219-.61718 8.8867-1.9336 8.8555-2.9414-.0195-.6211-1.582-1.0078-4.1445-1.0234zm-96.852 1.5508-2.5273 2.5977c-.04687.0469-.0625.11718-.04687.17968.01563.0664.0625.11329.125.13282.0625.0156.12891-.004.17578-.0508l2.5273-2.6016c-.66016 1.3164-.83203 2.4258-.66797 3.3281h-.03906c-1.2617.15234-2.4336.3789-3.4336.67187.28906-1.0391.50781-2.2578.65625-3.5703.87891.16406 1.9531-.0117 3.2305-.6875zm7.6758 0c1.2812.67578 2.3555.85156 3.2344.6875v.008c.14844 1.3086.36719 2.5234.65234 3.5625-1.0078-.29687-2.1914-.52343-3.4688-.67578.16016-.90234-.01172-2.0078-.66797-3.3242l2.5273 2.6016c.04297.0469.10938.0664.17188.0508.0625-.0195.11328-.0664.12891-.13282.01563-.0625-.0039-.13281-.05078-.17968zm89.168 2.5117c-.92188-.004-1.9414.0742-2.9766.21875-3.6289.50391-6.5625 2.0469-6.5664 3.0547-.008 1.0078 2.9297 1.418 6.5547.91015 3.625-.50781 6.5703-1.7383 6.5742-2.7461.004-.6875-1.3867-1.4336-3.5859-1.4375zm-.35156 4.4336c-.46485 0-.94922.0195-1.4375.0625-2.9805.25782-5.3242.85938-5.3984 1.832-.0781.96875 2.2773 1.5508 5.2578 1.293 2.9844-.25781 5.4609-1.2539 5.5391-2.2266.0625-.79297-1.6406-.94922-3.9609-.96094zm.75781 3.7656c-.18359 0-.36719.008-.55469.0195-1.8125.14062-3.3438.91016-3.4219 1.7148-.0781.8086 1.3281 1.3477 3.1406 1.207 1.8125-.14062 3.3438-.91015 3.4219-1.7148.0664-.71094-1.0234-1.2305-2.5859-1.2266zm.32422 3.7226c-.11719 0-.23438.008-.35156.0195-1.1484.10937-2.1211.71875-2.168 1.3594-.0508.64063.83984 1.0703 1.9883.95703s2.1211-.72265 2.168-1.3594c.043-.56641-.64844-.97657-1.6367-.97657zm-107.7.0117 4.0742.34766c-.02734 2.4453.80469 4.7852 3.6484 6.8828-2.8516.28125-5.4023 1.2969-7.1289 4.2812 1.1875 3.0547 3.168 4.8906 5.9414 5.5-2.3398 2.6797-3.3477 5.7695-3.5664 9.1016h-.0039l-2.9648 1.3594zm19.879 7.8477c-.02734.0547-.05469.10937-.08203.16406.02734-.0547.05469-.10937.08203-.16406zm-.36328.71875c-.0078.0195-.01953.043-.02734.0625.0078-.0195.01953-.043.02734-.0625zm-.31641.67187c-.02344.0547-.05078.10938-.07422.16407.02344-.0547.05078-.10938.07422-.16407zm-.29297.65235c-.01953.0469-.04297.0977-.0625.14453.01953-.0469.04297-.0977.0625-.14453zm-.30859.73047c-.02344.0625-.04687.12109-.07031.18359.02344-.0625.04687-.12109.07031-.18359zm-.24609.625c-.02344.0625-.04687.12109-.07031.18359.02344-.0625.04687-.12109.07031-.18359zm-.27734.75781c-.02344.0625-.04297.1289-.06641.1914.02344-.0625.04297-.1289.06641-.1914zm-.20703.60547c-.02344.0742-.04688.14843-.07031.22265.02344-.0742.04687-.14843.07031-.22265zm-.23828.76562c-.02344.0742-.04297.14844-.06641.22266.02344-.0742.04297-.14844.06641-.22266zm-.17578.61328c-.01953.0781-.04297.15625-.0625.23438.01953-.0781.04297-.15625.0625-.23438zm92.184 2.7188c.52344 0 1.1055.2461 1.7656 1.1289.66016.88672 1.2031 2.3594 1.2031 4.0664 0 1.707-.54297 3.1797-1.2031 4.0664-.66015.88281-1.2422 1.1289-1.7656 1.1289-.52735 0-1.1094-.2461-1.7695-1.1289-.65625-.88672-1.2031-2.3594-1.2031-4.0664 0-1.707.54688-3.1797 1.2031-4.0664.66015-.88281 1.2422-1.1289 1.7695-1.1289zm.0312.58594c-.35156.0117-.70703.62109-.70703 1.3086-1.3008-.0156-1.7461.40625-.67578 1.5898-1.625.45703-1.2656 1.0625-.33594 1.7109-.92969.64843-1.2891 1.2539.33594 1.7109-1.0703 1.1836-.625 1.6016.67578 1.5898 0 1.2226 1.125 2.1992 1.3476 0 1.3008.0117 1.7461-.40625.67578-1.5898 1.6289-.45703 1.2656-1.0625.33594-1.7109.92969-.64844 1.293-1.2539-.33594-1.7109 1.0703-1.1836.625-1.6055-.67578-1.5898-.0977-.96093-.36718-1.3164-.64062-1.3086zm-41.875.63672 8.9336 10.629-5.1094-.008-5.5898-6.6484h-11.359l1.7852-3.9727zm-3.5352 7.9453 2.2852 2.7188-16.184.0273 1.9336-2.7461zm12.379 6.4102 37.527.0195c-.29297.30469-.59375.59766-.90234.89062-1.8242 1.7617-3.4844 3.4766-4.9805 5.1524-.125-.54297-.71875-1.3633-1.9141-2.3867 3.5664-3.0547 1.7812-4.2773-1.7812-1.832-3.5664-2.4453-5.3477-1.2227-1.7852 1.832-3.5625 3.0547-1.7812 4.2773 1.7852 1.832 1.3125.90234 2.3867 1.3047 3.0352 1.3008-.15234.17969-.3125.35938-.46093.53516l-30.477-.0156zm20.203.54297c-.64843-.0195-1.7344.38281-3.0703 1.3008-3.5664-2.4453-5.3476-1.2227-1.7812 1.832-3.5664 3.0547-1.7852 4.2773 1.7812 1.832 3.5664 2.4453 5.3477 1.2227 1.7812-1.832 2.2305-1.9102 2.3711-3.1055 1.2891-3.1328zm-10.812 0c-.64843-.0195-1.7344.38281-3.0742 1.3008-3.5625-2.4453-5.3477-1.2227-1.7812 1.832-3.5664 3.0547-1.7812 4.2773 1.7812 1.832 3.5664 2.4453 5.3476 1.2227 1.7852-1.832 2.2266-1.9102 2.3672-3.1055 1.2891-3.1328z" fill="#4242ff"/>
  <path d="m91.406 261.41c-.82031 0-1.4883-1.0976-1.4883-2.4453 0-1.3516.66797-2.4453 1.4883-2.4453s1.4844 1.0938 1.4844 2.4453c0 1.3477-.66406 2.4453-1.4844 2.4453zm-16.641-.61328c-.82031 0-1.4844-1.0938-1.4844-2.4453 0-1.3477.66406-2.4453 1.4844-2.4453s1.4844 1.0976 1.4844 2.4453c0 1.3516-.66406 2.4453-1.4844 2.4453zm2.793-36.812c.42188-13.27.38672-26.258 3.3594-37.848 9.9727 14.848 21.84 25.883 33.555 36.535-10.105-1.8203-17.742-2.2617-23.84-1.7617-5.3594.4375-9.5547 1.6367-13.074 3.0742zm5.1016-2.8008c2.6836-.0156 6.2422-.28906 9.9219-.76563 7.8164-1.0117 14.043-2.6484 13.914-3.6523-.13281-1.0039-6.6953-.62109-14.508.39453-7.8125 1.0117-13.918 2.2695-13.789 3.2734.0625.49219 1.6719.76172 4.4609.75zm85.402-1.6445c.28516-1.0274.5-2.2305.64844-3.5274v-.043c.8789.16406 1.957-.0117 3.2383-.6875l-2.5274 2.5976c-.0547.0547-.0703.13281-.043.20313.0273.0664.0937.11328.16406.11328.0508 0 .0937-.0195.1289-.0547l2.5274-2.6016c-.65625 1.3125-.82813 2.4219-.66797 3.3242-1.2773.15234-2.4609.3789-3.4688.67578zm15.449 0c-1.0039-.29688-2.1758-.51953-3.4375-.67188h-.0352c.16406-.90234-.008-2.0117-.66797-3.3281l2.5274 2.6016c.0312.0312.0781.0547.125.0547.0703 0 .14062-.043.16797-.11328.0273-.0703.0117-.14844-.0391-.20313l-2.5273-2.5976c1.2773.67578 2.3555.85156 3.2305.6875v.0195c.14844 1.3047.36719 2.5156.65625 3.5508zm-101.45-1.8672c2.4219-.0117 5.6367-.28516 8.9609-.76172 7.0547-1.0156 12.68-2.6484 12.563-3.6523-.1211-1.0039-5.9336-.9961-12.988.0156-7.0547 1.0117-12.68 2.6484-12.562 3.6524.05859.48828 1.5117.76172 4.0273.74609zm.91406-4.2383c1.7969.008 3.8789-.10156 6-.3125 6.1211-.61719 11.172-1.8047 11.133-2.8125-.0391-1.0117-5.0313-1.3281-11.152-.71094-6.1211.61719-11.051 1.9336-11.012 2.9414.02344.62109 1.8438.8789 5.0312.89453zm70.219-2.5781c-3.125-2.1797-6.8945-4.8555-10.203-8.0469l18.621-15.457c.70313.80859 1.4062 1.6289 2.1016 2.457-4.4414-.56641-4.6016 6.0586-9.0234 8.0312 6.3516 3 8.8125-.69922 9.4648-7.5078 2.1758 2.5938 4.3047 5.2734 6.3555 8.0976-6.0039 3.8984-11.809 8.0234-17.316 12.426zm10.961-20.523c-.14453-.17578-.29297-.35157-.44141-.52344.15625.0195.31641.0469.48438.082-.0117.15234-.0273.29688-.043.44141zm-2.543-2.9805.15625-.12891c3.3594-.16797 7.7773-.99609 7.7773-.99609 3.9492 2.125 6.8359 4.5156 9.2774 7.0117-2.3711 1.4258-4.7148 2.8828-7.0352 4.3672-1.8476-2.5508-3.7617-4.9844-5.7109-7.3438 4.0898 1.8516 5.9414 5.6719 7.8984.56641-3.8203.25391-7.3711-5.4492-7.9883-.67187-.84766-1.0234-1.707-2.0352-2.5664-3.0391zm-78.84 22.102c1.4453.0117 3.1172-.0977 4.8281-.3125 4.9219-.61719 8.8867-1.9336 8.8555-2.9414-.03125-1.0117-4.0508-1.3281-8.9727-.71093-4.9219.61718-8.8867 1.9336-8.8555 2.9414.01953.6211 1.582 1.0078 4.1445 1.0234zm96.852-1.5508 2.5273-2.5977c.0469-.0469.0625-.11718.0469-.17968-.0156-.0664-.0625-.11329-.125-.13282-.0625-.0156-.12891.004-.17578.0508l-2.5274 2.6016c.66016-1.3164.83203-2.4258.66797-3.3281h.0391c1.2617-.15234 2.4336-.3789 3.4336-.67187-.28906 1.0391-.50781 2.2578-.65625 3.5703-.87891-.16406-1.9531.0117-3.2305.6875zm-7.6758 0c-1.2812-.67578-2.3555-.85156-3.2344-.6875v-.008c-.14843-1.3086-.36718-2.5234-.65234-3.5625 1.0078.29687 2.1914.52343 3.4688.67578-.16016.90234.0117 2.0078.66797 3.3242l-2.5274-2.6016c-.043-.0469-.10937-.0664-.17187-.0508-.0625.0195-.11328.0664-.12891.13282-.0156.0625.004.13281.0508.17968zm-89.168-2.5117c.92188.004 1.9414-.0742 2.9766-.21875 3.6289-.50391 6.5625-2.0469 6.5664-3.0547.0078-1.0078-2.9297-1.418-6.5547-.91015-3.625.50781-6.5703 1.7383-6.5742 2.7461-.0039.6875 1.3867 1.4336 3.5859 1.4375zm.35156-4.4336c.46484 0 .94922-.0195 1.4375-.0625 2.9805-.25782 5.3242-.85938 5.3984-1.832.07813-.96875-2.2773-1.5508-5.2578-1.293-2.9844.25781-5.4609 1.2539-5.5391 2.2266-.0625.79297 1.6406.94922 3.9609.96094zm-.75781-3.7656c.18359 0 .36719-.008.55469-.0195 1.8125-.14062 3.3438-.91016 3.4219-1.7148.07813-.8086-1.3281-1.3477-3.1406-1.207-1.8125.14062-3.3438.91015-3.4219 1.7148-.06641.71094 1.0234 1.2305 2.5859 1.2266zm-.32422-3.7226c.11719 0 .23438-.008.35156-.0195 1.1484-.10937 2.1211-.71875 2.168-1.3594.05078-.64063-.83984-1.0703-1.9883-.95703-1.1484.11328-2.1211.72265-2.168 1.3594-.04297.56641.64844.97657 1.6367.97657zm107.7-.0117-4.0742-.34766c.0273-2.4453-.80469-4.7852-3.6484-6.8828 2.8516-.28125 5.4024-1.2969 7.1289-4.2812-1.1875-3.0547-3.168-4.8906-5.9414-5.5 2.3398-2.6797 3.3477-5.7695 3.5664-9.1016h.004l2.9648-1.3594zm-19.879-7.8477c.0273-.0547.0547-.10937.082-.16406-.0273.0547-.0547.10937-.082.16406zm.36328-.71875c.008-.0195.0195-.043.0273-.0625-.008.0195-.0195.043-.0273.0625zm.31641-.67187c.0234-.0547.0508-.10938.0742-.16407-.0234.0547-.0508.10938-.0742.16407zm.29297-.65235c.0195-.0469.043-.0977.0625-.14453-.0195.0469-.043.0977-.0625.14453zm.30859-.73047c.0234-.0625.0469-.12109.0703-.18359-.0234.0625-.0469.12109-.0703.18359zm.2461-.625c.0234-.0625.0469-.12109.0703-.18359-.0234.0625-.0469.12109-.0703.18359zm.27734-.75781c.0234-.0625.043-.12891.0664-.19141-.0234.0625-.043.12891-.0664.19141zm.20703-.60547c.0234-.0742.0469-.14844.0703-.22265-.0234.0742-.0469.14843-.0703.22265zm.23828-.76562c.0234-.0742.043-.14844.0664-.22266-.0234.0742-.043.14844-.0664.22266zm.17578-.61328c.0195-.0781.043-.15625.0625-.23438-.0195.0781-.043.15625-.0625.23438zm-92.184-2.7188c-.52344 0-1.1055-.2461-1.7656-1.1289-.66016-.88672-1.2031-2.3594-1.2031-4.0664s.54297-3.1797 1.2031-4.0664c.66016-.88282 1.2422-1.1289 1.7656-1.1289.52734 0 1.1094.24609 1.7695 1.1289.65625.88672 1.2031 2.3594 1.2031 4.0664s-.54688 3.1797-1.2031 4.0664c-.66016.88281-1.2422 1.1289-1.7695 1.1289zm-.03125-.58594c.35156-.0117.70703-.6211.70703-1.3086 1.3008.0156 1.7461-.40625.67578-1.5898 1.625-.45703 1.2656-1.0625.33594-1.7109.92969-.64843 1.2891-1.2539-.33594-1.7109 1.0703-1.1836.625-1.6016-.67578-1.5898 0-1.2226-1.125-2.1992-1.3477 0-1.3008-.0117-1.7461.40625-.67578 1.5898-1.6289.45703-1.2656 1.0625-.33594 1.7109-.92969.64844-1.293 1.2539.33594 1.7109-1.0703 1.1836-.625 1.6055.67578 1.5898.09766.96094.36719 1.3164.64062 1.3086zm41.875-.63672-8.9336-10.629 5.1094.008 5.5898 6.6484h11.359l-1.7852 3.9727zm3.5352-7.9453-2.2852-2.7188 16.184-.0273-1.9336 2.7461zm-12.379-6.4102-37.527-.0195c.29297-.30469.59375-.59766.90234-.89063 1.8242-1.7617 3.4844-3.4766 4.9805-5.1523.125.54297.71875 1.3633 1.9141 2.3867-3.5664 3.0547-1.7812 4.2773 1.7812 1.832 3.5664 2.4453 5.3477 1.2227 1.7852-1.832 3.5625-3.0547 1.7812-4.2773-1.7852-1.832-1.3125-.90235-2.3867-1.3047-3.0352-1.3008.15234-.17969.3125-.35938.46094-.53516l30.477.0156zm-20.203-.54297c.64844.0195 1.7344-.38281 3.0703-1.3008 3.5664 2.4453 5.3477 1.2227 1.7812-1.832 3.5664-3.0547 1.7852-4.2773-1.7812-1.832-3.5664-2.4453-5.3477-1.2227-1.7812 1.832-2.2305 1.9102-2.3711 3.1055-1.2891 3.1328zm10.813 0c.64843.0195 1.7344-.38281 3.0742-1.3008 3.5625 2.4453 5.3476 1.2227 1.7812-1.832 3.5664-3.0547 1.7812-4.2773-1.7812-1.832-3.5664-2.4453-5.3477-1.2227-1.7852 1.832-2.2266 1.9102-2.3672 3.1055-1.2891 3.1328z" fill="#4242ff"/>
  <path d="m130.37 35.25c-11.785 25.969-23.633 51.809-46.52 54.309l39.645-54.309zm23.742 7.3164c4.082 15.039 13.406 29.098 7.1055 48.707l-13.047-10.43c3.2891-4.8047 5.9297-11.082 5.9297-14.422 0-2.4414-.59766-18.336-.59766-18.945.004-.24609.28906-2.3594.60937-4.9102zm-71.309 48.289c18.223 16.984 38.164 37.676 55.902 59.246l-4.8516.0664c-14.879-18.699-34.918-39-53.316-56.07zm-7.8203 10.691c3.4297 2.3438 7.6211 5.3945 11.168 9.2305l-3.0352 2.4531c-3.5938-3.6484-7.8398-6.6758-11.363-9.0469 1.1055-.83984 2.1953-1.7226 3.2305-2.6367zm33.359 26 19.004 22.605-5.3359.0117-15.434-18.641h-12.691l.19531-3.9766z"/>
  <path d="m94.633 279.75c11.785-25.969 23.633-51.809 46.52-54.309l-39.645 54.309zm-23.742-7.3164c-4.082-15.039-13.406-29.098-7.1055-48.707l13.047 10.43c-3.2891 4.8047-5.9297 11.082-5.9297 14.422 0 2.4414.59766 18.336.59766 18.945-.0039.24609-.28906 2.3594-.60938 4.9102zm71.309-48.289c-18.223-16.984-38.164-37.676-55.902-59.246l4.8516-.0664c14.879 18.699 34.918 39 53.316 56.07zm7.8203-10.691c-3.4297-2.3438-7.6211-5.3945-11.168-9.2305l3.0352-2.4531c3.5938 3.6484 7.8398 6.6758 11.363 9.0469-1.1055.83984-2.1953 1.7226-3.2305 2.6367zm-33.359-26-19.004-22.605 5.3359-.0117 15.434 18.641h12.691l-.19532 3.9766z"/>
 </g>
 <g fill="none" stroke="#4242ff" stroke-linecap="round" stroke-linejoin="round">
  <path d="m138.05 143.44c0 5.0625 3.0625 9.168 6.8359 9.168 3.7734 0 6.832-4.1055 6.832-9.168s-3.0586-9.168-6.832-9.168c-3.7734 0-6.8359 4.1055-6.8359 9.168m2.1328 6.7227h-54.547m67.476 0h-3.418m-.29296 3.668h-66.789m91.469-52.176-26.051-20.613m41.719 33.012-5.3281-4.2148m-129.94 6.7305c7.1484-4.6484 14.027-9.6133 20.543-15.004m-28.914 20.227c2.4023-1.4414 4.7734-2.9141 7.1211-4.418m70.258-82.125-48.48 66.332m-39.73 63.223c8.1406 4.8047 13.875 9.3633 19.527 16.117 5.3398-9.5195 11.16-15.969 19.039-23.559 9.039-8.707 13.582-16.086 15.375-22.055 1.793-5.9727 1.0586-10.59-.94531-14.789-3.3672-7.0586-10.875-12.516-16.527-16.367m58.613-68.898c-11.781 25.969-23.629 51.805-46.426 54.258m62.508 45.043c5.2656-15.512 4.2617-32.969 5.1133-49.895-9.1172 4.8711-19.414 9.4688-54.414.70312 16 15.062 32.98 28.379 45.965 49.137m4.3359-43.488c-3.5234 1.4375-7.7187 2.6367-13.078 3.0742-6.0976.5-13.734.05859-23.84-1.7617 11.715 10.652 23.578 21.699 33.543 36.535 2.9688-11.602 2.9492-24.578 3.375-37.848m-60.777-1.9219c17.559 16.34 36.477 35.473 51.254 53.672m25.219-49.703c.0977 22.391-4.5156 41.992-11.66 57m15.512-54.086c-.25 18.449-3.6133 35.012-8.9805 48.746m-19.309 5.3828c-17.738-21.57-37.68-42.262-55.902-59.246m51.051 59.312c-14.879-18.699-34.918-39-53.316-56.07m46.82 56.066-19.016-22.617h-14.312m28.227 22.625-15.68-18.648h-12.691m23.195 18.566-12.27-14.594h-11.559m18.727 14.602-8.9336-10.629h-11.16m14.984 10.621-5.5898-6.6484h-11.297m11.812 6.6914-2.2852-2.7188h-11.965m-5.5156-35.219-18.703 15.559m22.801-16.977-20.359 17.016m69.359-33.699c5.3203 11.27 6.3203 23.02 8.8711 34.676m9.664-93.52c5.2969 19.902 19.617 39.984 11.199 59.105m-3.6445-3.082c6.3008-19.609-3.0234-33.668-7.1289-48.816m-60.101 33.152c-1.7695-.78906-3.6172-1.4883-5.4883-2.1055m101.24 72.105c-8.5312-5.2148-13.898-10.039-20.191-18.672-5.9414 12.227-11.867 18.969-21.035 27.797-33.461 32.238-11.187 50.078 1.5547 58.738m-5.1797-75.227c-.52735 0-1.1094.24609-1.7695 1.1289-.65625.88672-1.2031 2.3594-1.2031 4.0664s.54688 3.1797 1.2031 4.0664c.66015.88281 1.2422 1.1289 1.7695 1.1289.52343 0 1.1055-.24609 1.7656-1.1289.66015-.88672 1.2031-2.3594 1.2031-4.0664s-.54297-3.1797-1.2031-4.0664c-.66016-.88281-1.2422-1.1289-1.7656-1.1289m-89.433-9.4766c-2 3.6953-3.168 7.3633-3.5664 11.004-5.6133 2.2422-9.8476 6.3359-13.664 11.004-.28126-4.5312.50781-8.7266 3.5625-12.227-2.7734-.60938-4.7539-2.4453-5.9414-5.5 1.7266-2.9844 4.2773-4 7.1328-4.2812-5.3359-3.9297-3.5977-8.7188-2.3789-13.445 3.918 4.7344 7.5898 9.5312 14.855 13.445m-20.203-7.2305 4.0781.34765m-4.0781 27.125 3.1094-1.4219m9.6406-10.086c-4.4805 2.4961-6.4844 7.2734-7.7578 10.879m8.918-17.176c-3.1562-.10547-5.7617-.75391-9.1562 1.8438 1.7383 2.3867 3.582 3.6328 7.9883 4.2344m-4.9726-19.008c.23829 4.9375 1.5195 10.18 6.2031 12.785m2.3867-4.6836c-3.1523 4.875-4.2851 9.8867-3.207 15.09m7.0508-12.699s9.7656-1.832 11.293-.60938c1.5234 1.2227 3.918 3.8281 4.7539 4.8906 3.7969 4.832-.43359 6.0781-2.3789 3.668m-4.1601-3.668c7.0508 3.1094 7.6328 14.746-2.375 3.0547m3.4219 3.4883c1.7773 3.9492-.08985 7.3711-6.9531-.64063m4.457 4.1953c2.5195 4.7305-4.9375 4.3438-11.625-3.375m11.5-12.125c-3.9883-4.6016-7.8789-9.3945-11.461-14.762m9.6523 14.992c-3.8594-4.4844-7.6172-9.1719-11.082-14.406m10.305 11.633c.58984-7.0938 3.0195-11.012 9.5078-7.9492-4.5781 2.043-4.5898 9.0664-9.5078 7.9492m9.5078-7.9492c-4.4922-.76171-6.6719 4.9883-9.5078 7.9492m-1.7813-.32812c-4.1601-1.832-6.0234-5.7539-7.9961-.60938 3.8359-.25781 7.4023 5.5 7.9961.60938m-.0078.0625c-3.1289 1.0117-6.2344-2.9219-7.9883-.67188m1.4609-17.402c8.9101 5.5 8.9101-12.223 0-6.7227 5.3476-9.168-11.887-9.168-6.5391 0-8.914-5.5-8.914 12.223 0 6.7227-5.3476 9.168 11.887 9.168 6.5391 0m-10.402-3.3594c7.1328 0 7.1328 0 7.1328-7.3359 0 7.3359 0 7.3359 7.1289 7.3359-7.1289 0-7.1289 0-7.1289 7.332 0-7.332 0-7.332-7.1328-7.332m14.207-4.4219c.14844-1.2969.36329-2.5.64844-3.5273-1.0156.30078-2.2148.52734-3.5039.67969m.02735 14.539c1.2773.15234 2.4648.3789 3.4766.67578-.28515-1.0391-.50391-2.2539-.65233-3.5625m-14.137-.0469c-.14844 1.3281-.36719 2.5586-.66015 3.6094.99999-.29297 2.1719-.51953 3.4336-.67188m.0039-14.551c-1.2617-.15234-2.4336-.375-3.4375-.67188.28906 1.0352.50782 2.2461.65235 3.5508m105.07-16.539c.57031-.28125 1.1328-.57031 1.6992-.87109m-48.062.58984c14.93 3.5625 24.863 4.4727 31.887 4.0508m14.711 4.7734c-3.5195 1.4375-7.7148 2.6367-13.074 3.0742-6.0976.5-13.734.05859-23.84-1.7617 11.715 10.652 23.582 21.687 33.555 36.535 2.9726-11.59 2.9375-24.578 3.3594-37.848m32.207-39.258c-1.2812 3.8047-.59375 11.004-4.1602 11.004-7.7266 0-2.375-11.617 4.1602-17.727 6.5352 6.1094 11.883 17.727 4.1602 17.727-3.5664 0-2.8789-7.1992-4.1602-11.004m5.3476 18.336s0-1.2227-1.1875-1.2227c-1.5312 0-1.7852 5.5039 1.1875 5.5039 4.1602 0 3.5664-8.5586-.59375-8.5586-3.5664 0-4.7539 6.1133-4.7539 6.1133s-1.1875-6.1133-4.7539-6.1133c-4.1602 0-4.7539 8.5586-.59375 8.5586 2.9688 0 2.7188-5.5039 1.1875-5.5039-1.1875 0-1.1875 1.2227-1.1875 1.2227m1.1875-1.2227c6.5352.32812-1.7812 30.563-1.7227 36.223.0391 3.5938 1.1289 7.1758 5.8828 7.1758s5.8437-3.582 5.8828-7.1758c.0586-5.6602-8.2617-35.895-1.7226-36.223m-2.3789-1.2227v-6.9258m-3.5625 6.9492v-6.8984m-.38281 51.18c-2.2109.6211-3.7773 2.1719-3.7773 3.9844 0 2.3633 2.6602 4.2812 5.9414 4.2812 3.2812 0 5.9414-1.918 5.9414-4.2812 0-1.8125-1.5664-3.3594-3.7773-3.9844m.10156 7.957c2.8828.86719 3.6758 3.4531 3.6758 5.8086 0 4.4297-1.5625 11.754-2.418 15.445m-8.6797-8.0273c-.44922-2.6602-.78516-5.3516-.78516-7.418 0-2.3711.80469-4.9805 3.7383-5.8281m-18.227 23.555h-.75781m31.289 0h-3.4141m-25.77-1.832h-1.418m30.602 0h-6.0703m-21.699-1.8359h-2.2109m29.98 0h-6.2422m-20.254-1.832h-2.8633m29.359 0h-5.8633m-19.422-1.8359h-3.5547m28.84 0h-5.5195m-18.629-1.832h-4.1055m28.254 0h-5.1758m-17.937-1.8359h-4.6211m12.348 0h-.62109m16.008 0h-4.8281m-17.285-1.832h-5.1055m11.559 0h-1.7266m17.387 0h-4.5547m-16.629-1.8359h-5.5508m10.832 0h-2.9336m17.648 0h-3.125m-11.695-1.832h-10.281m25.102 0h-2.918m-11.937-1.832h-9.8633m24.125 0h-2.3945m-11.59-1.8359h-8.5976m22.582 0h-2.7148m-13.926-1.832h-5.3476m-14.855-23.84c1.4062-2.1484 2.9062-3.9063 5.3984-5.7656 2.5742-1.9219 3.8047 1.1797 2.8359 2.7773m-8.2344 6.6563c1.625-1.9219 4.8398-4.8086 7.3984-6.3359 2.4258-1.4453 3.1523 1.8477 1.1328 3.4258m-8.7266 6.8867c1.625-1.9219 4.8047-4.8711 7.3984-6.332 3.9258-2.2109 5.2109 1.7305.32422 3.8867m-8.082 9.7344c1.625-1.9219 4.8008-4.875 7.3984-6.3359 3.6602-2.0625 4.4726 2.0625.60547 4.3789m-7.8125-2.2578c1.6445-1.6602 3.957-3.3867 6.0312-4.8281 2.625-1.8281 4.0547.54688 2.7148 2.1055m-9.2383 10.266c1.6367-1.6172 3.8789-3.2852 5.8945-4.6875 2.8555-1.9883 4.2969 1.5 2.2852 3.0938m-8.5703 4.9219c1.9297-1.5859 4.75-3.2852 6.8984-4.4336 3.7187-1.9883 4.3867 2.5039.39453 4.5391m-7.7617 2.7461c5.4219-4.7188 11.672-3.0898 6.4687.62109m-7.1992 3.5273c5.918-5.1641 16.656-5.168 6.1133.67188m-7.7266 5.875c7.4687-4.8984 16.844-3.5977 5.2148 1.3047m-4.8594.93359c5.1602-2.2227 11.027.0234 5.2266 1.668m-2.8047.51172c4.332-1.3906 6.6445 1.1523 1.3555 2.4688m.0859-47.234c.85546-.92578 1.8437-1.8203 3.0742-2.7383 2.082-1.5547 3.1758.04297 2.9883 1.5273m-5.8867-3.5742c.16015-.125.32031-.24609.48437-.37109 2.3086-1.7187 3.3984.42188 2.8789 2.0039m-6.8476 40.066c4.9687-3.9883 10.355-2.8086 6.8711.32031m-12.223 4.043c-11.594.1289-7.8359 3.1328-2.5156 3.1367m.89062-5.4961c-3.7891-1.457-7.1992-1.1211-8.9101-.19922-2 1.0781-1.668 2.957 3.1094 3.7109m3.3828-6.9336c-6.9609-1.3438-12.324 1.707-6.5937 3.2031m4.0898-6.6406c-8.0156-2.2148-14.91 1.3125-5.875 4.1133m3.7891-6.8008c-8.2305-2.8711-16.094.54687-7.9805 3.4375m4.668-7.3359c-6.0039-.98047-10.539 1.1797-6.6016 3.4258m4.5781-5.7695c-9.1836-2.4375-18.773 2.1094-5.7969 3.3906m1.418-8.0664c-6.7969-.61328-11.887 2.2031-4.7812 4.2812m2.6445-6.4062c-8.9453-2.4219-18.047 1.7852-6.0898 4.1992m2.7656-7.4727c-6.6133-.93359-12.176 1.4336-7.6328 3.5156m4.793-6.2109c-8.5039-2.0195-16.715 1.7852-6.3516 4.1641m1.5977-8.6328c-6.7852-.55078-11.766 2.3086-4.332 4.375m1.5234-6.9375c-8.7812-2.0664-17.219 2.0664-5.1914 4.4102m.625-8.5391c-6.8633-.67188-12.09 2.1602-4.9922 4.2539m1.9453-7.0742c-8.082-1.457-15.164 2.1328-5.2031 4.4062m17.43-24.441c.60938 1.418 1.1836 2.8594 4.2266 2.582 1.707 9.9414 8.7695 12.027 15.449 14.672 0 0 2.3086 1.9102 3.4961 1.9102 1.7852 0 3.043-.6875 3.6367-.6875s1.1875.60938 2.9688.60938c1.7852 0 3.5664-3.0547 4.7539-6.1133 3.5664-4.8867 6.539-11.738 6.539-15.281 0-2.4414-.59765-18.336-.59765-18.945.004-.37891.68359-5.1914 1.2031-8.8125m-38.988 25.965c.7539 1.25 1.6367 2.9844.94531 3.0156-.32422.01563-.82812-1.2656-1.2188-2.4336m-33.148 30.531-6.0078 6.6211m7.6914-4.9844-5.7891 6.3828m7.5312-4.8086-5.707 6.2891m7.3359-4.5938-5.4844 6.0469m7.2226-4.4688-5.4648 6.0234m7.1484-4.3867-4.1914 4.6211m5.875-2.9844-2.8516 3.1484m4.6133-1.5938-2.1211 2.3359m3.7617-.65234-1.0625 1.1719m37.582 38.422h-6.5859m5.0273-1.8359h-6.539m5.0742-1.832h-6.6367m5.0742-1.8359h-6.5859m5.0273-1.832h-6.5898m4.3945-2.4453h-3.8086m-24.363-3.0547v3.9727m2.9687-3.9727v3.9727m2.9727-3.9727v3.9727m4.3633-2.3516-2.6836 2.7617m4.9648-.21484-2.7812 2.8594m4.9375-.1914-2.707 2.7852m4.8164-.0625-2.6836 2.7578m4.9375-.1875-2.4648 2.5352m-16.797-76.922c-1.8555-.76953-3.7812-1.4453-5.7187-2.0391m7.5195-.45313c-1.8828-.77734-3.8359-1.4609-5.7969-2.0547m7.6172-.375c-1.9219-.79297-3.918-1.4922-5.9219-2.0977m7.6211-.13281c-1.9531-.83203-3.9883-1.5586-6.0351-2.1914m6.918-.62891c-1.3945-.5625-2.8242-1.0742-4.2617-1.5391m5.7539-1.0195c-1.0039-.40234-2.0274-.77734-3.0625-1.125m4.8281-1.3086c-.64063-.24609-1.2891-.48047-1.9453-.71094m-20.484-10.77c6.1641 2.4258 12.324-3.0117 16.52-.09766 5.5156 3.8359.76172 11.172-3.3164 8.75-3.7812-2.2422-.07813-7.3594 1.7031-6.1367 1.1055.75781 1.7695 2.2383 1.1875 3.0547-.73437 1.0352-1.2461 1.1797-2.375.61328m-13.844-5.8516c4.7187 4.6836 2.6289 12.699 6.9805 15.328 5.7422 3.4688 10.129-4.1016 6.2461-6.8477-3.5937-2.543-6.4883 3.0977-4.6484 4.2266 1.1406.69922 2.7266.67578 3.1953-.21484.58984-1.1289.49609-1.6641-.48828-2.4688m4.9336.10547-10.695-7.332m1.1875 4.8867c1.1875-1.2227 5.4062-1.3867 6.5391.61328-2.6172-1.3516-4.1328-3.0273-2.9727-5.5m2.375 13.445c-2.9687 3.668-5.9414 2.4453-8.9101 1.2227-2.8594 4.0039-7.6875 4.7266-12.48 5.5m29.711-18.949c1.1875-2.4414-1.7812-5.5-3.5664-6.7227.69531-2.8164-.32032-5.9883-1.375-9.168m7.9141 11.004c-1.1875-3.0586-2.9726-3.0586-2.9726-3.0586 1.0078-4.6641-.39063-5.8516-.97266-7.9375m36.273-.0039c-2.0312 6.3242-6.5781 9.582-13.234 10.266m11.012-10.266c-1.8945 4.7461-5.3906 7.5391-10.277 8.6367m8.5469-8.6367c-1.6641 3.3516-4.2422 5.5859-7.6484 6.8125m5.7773-6.8047c-1.2344 2-2.8555 3.5273-4.832 4.6211m17.395-4.6289c1.7734 4.9102 3.6094 9.7852 7.914 12.258m-6.0508-12.258c1.457 3.8828 3.1445 7.5586 6.289 9.8125m-4.3828-9.8125c1.168 2.832 2.5742 5.4414 4.7344 7.3164m-3.0234-7.3086c.91406 1.7891 2.0078 3.4062 3.4336 4.6992m-1.0391 9.9609c-4.8828-3.0664-7.3125-1.75-9.5039 0-2.3789 6.7227 1.7812 13.445 1.7109 18.539-.0234 1.8945-1.3945 1.6445-2.3086 1.6289-.59375-.0078-1.7812 1.2227-1.7812 1.2227m11.883-20.781c-3.5156-2.5625-6.5898-2.1406-9.5039-.60938m-5.3516 15.281c-2.375 0-2.375 3.6641-.59375 3.6641 4.7539.61328 4.7539-1.2227.59375 0m7.7266 4.8906v1.2227l-.59375-.60938.59375-.61328m-10.695.61328-.59375-.61328v1.2227l.59375-.60938m10.102 0s-.59375.60938-1.1875.60938-.625-.48828-1.4648-.54688c-.91406-.0625-.91406.54688-1.5078.54688s-1.7812-1.2227-2.375-1.2227c-.59765 0-1.7852.61328-2.3789.61328h-1.1875m7.7226 2.4453c-.36328 3.4766-5.418 1.0625-5.3476.60938.59375.61328 5.3203 3.8945 5.3476-.60938m-4.7539-25.062c-6.125-4.4883-10.203-1.9766-14.262.60937 4.2109-3.1758 10.105-5.5 14.262-.60937m-13.07 3.0547c1.7812 0 4.332-3.1016 6.6992-2.8789 3.543.33594 4.5898 4.7148 6.3711 5.3242-2.1289-2.6172-4.0156-3.4492-5.7109-3.4297-3.4726.03906-4.3906 4.043-8.5508 2.8203m14.262.60938c-1.7812-1.2227-3.8984 1.2305-5.3672 1.2188-3.4336-.03125-5.2656-1.8281-6.5156-1.8281m17.828 0c2.375 0 3.668-2.3438 5.5898-2.4805 1.4648-.10547 3.4687 1.543 3.4687 2.1523 0 .86328-1.3359 2.5312-2.7031 2.8438-1.9492.44531-4.3125-2.4727-6.3555-2.5156m8.9102-1.2227c-2.6875-5.2266-7.7187-1.1602-7.7226-.61328m-53.48 12.836c-1.7852 1.8359-4.1602 1.2227-5.3476.61328-2.4414 1.793-5.082 2.5313-7.4492 2.8398m9.0078 2.3359c-5.1367-1.6172-10.336-2.6875-14.633-3.3438 5.9531-11.828 8.9258-23.328 11.988-34.84m2.6445 38.184c-5.1367-1.6172-10.336-2.6875-14.633-3.3438 5.9531-11.828 8.9258-23.328 11.988-34.84m2.7461 38.141 25.629-38.141m-34.734 35.852c2.3633-.3125 5.0039-1.0508 7.4453-2.8438 1.1875.60938 3.5625 1.2227 5.3476-.61328" stroke-width=".72322"/>
  <path d="m86.949 171.56c0-5.0625-3.0625-9.168-6.8359-9.168-3.7734 0-6.832 4.1055-6.832 9.168s3.0586 9.168 6.832 9.168c3.7734 0 6.8359-4.1055 6.8359-9.168m-2.1328-6.7226h54.547m-67.476 0h3.418m.29297-3.668h66.789m-91.469 52.176 26.051 20.613m-41.719-33.012 5.3281 4.2148m129.94-6.7305c-7.1484 4.6484-14.027 9.6133-20.543 15.004m28.914-20.227c-2.4024 1.4414-4.7734 2.9141-7.1211 4.418m-70.258 82.125 48.48-66.332m39.73-63.223c-8.1406-4.8047-13.875-9.3633-19.527-16.117-5.3398 9.5195-11.16 15.969-19.039 23.559-9.039 8.707-13.582 16.086-15.375 22.055-1.793 5.9726-1.0586 10.59.94531 14.789 3.3672 7.0586 10.875 12.516 16.527 16.367m-58.613 68.898c11.781-25.969 23.629-51.805 46.426-54.258m-62.508-45.043c-5.2656 15.512-4.2617 32.969-5.1133 49.895 9.1172-4.8711 19.414-9.4688 54.414-.70313-16-15.062-32.98-28.379-45.965-49.137m-4.3359 43.488c3.5234-1.4375 7.7187-2.6367 13.078-3.0742 6.0976-.5 13.734-.0586 23.84 1.7617-11.715-10.652-23.578-21.699-33.543-36.535-2.9687 11.602-2.9492 24.578-3.375 37.848m60.777 1.9219c-17.559-16.34-36.477-35.473-51.254-53.672m-25.219 49.703c-.09766-22.391 4.5156-41.992 11.66-57m-15.512 54.086c.25-18.449 3.6133-35.012 8.9805-48.746m19.309-5.3828c17.738 21.57 37.68 42.262 55.902 59.246m-51.051-59.312c14.879 18.699 34.918 39 53.316 56.07m-46.82-56.066 19.016 22.617h14.312m-28.227-22.625 15.68 18.648h12.691m-23.195-18.566 12.27 14.594h11.559m-18.727-14.602 8.9336 10.629h11.16m-14.984-10.621 5.5898 6.6484h11.297m-11.812-6.6914 2.2852 2.7188h11.965m5.5156 35.219 18.703-15.559m-22.801 16.977 20.359-17.016m-69.359 33.699c-5.3203-11.27-6.3203-23.02-8.8711-34.676m-9.6641 93.52c-5.2969-19.902-19.617-39.984-11.199-59.105m3.6445 3.082c-6.3008 19.609 3.0234 33.668 7.1289 48.816m60.101-33.152c1.7695.78906 3.6172 1.4883 5.4883 2.1055m-101.24-72.105c8.5312 5.2148 13.898 10.039 20.191 18.672 5.9414-12.227 11.867-18.969 21.035-27.797 33.461-32.238 11.187-50.078-1.5547-58.738m5.1797 75.227c.52734 0 1.1094-.2461 1.7695-1.1289.65625-.88672 1.2031-2.3594 1.2031-4.0664 0-1.707-.54687-3.1797-1.2031-4.0664-.66016-.88281-1.2422-1.1289-1.7695-1.1289-.52344 0-1.1055.2461-1.7656 1.1289-.66016.88672-1.2031 2.3594-1.2031 4.0664 0 1.707.54297 3.1797 1.2031 4.0664.66016.88281 1.2422 1.1289 1.7656 1.1289m89.433 9.4766c2-3.6953 3.168-7.3633 3.5664-11.004 5.6133-2.2422 9.8476-6.3359 13.664-11.004.28126 4.5312-.50781 8.7266-3.5625 12.227 2.7734.60937 4.7539 2.4453 5.9414 5.5-1.7266 2.9844-4.2773 4-7.1328 4.2812 5.3359 3.9297 3.5977 8.7188 2.3789 13.445-3.918-4.7344-7.5898-9.5312-14.855-13.445m20.203 7.2305-4.0781-.34766m4.0781-27.125-3.1094 1.4219m-9.6406 10.086c4.4805-2.4961 6.4844-7.2734 7.7578-10.879m-8.918 17.176c3.1562.10547 5.7617.75391 9.1562-1.8438-1.7383-2.3867-3.582-3.6328-7.9883-4.2344m4.9726 19.008c-.23829-4.9375-1.5195-10.18-6.2031-12.785m-2.3867 4.6836c3.1523-4.875 4.2851-9.8867 3.207-15.09m-7.0508 12.699s-9.7656 1.832-11.293.60937c-1.5234-1.2226-3.918-3.8281-4.7539-4.8906-3.7969-4.832.4336-6.0781 2.3789-3.668m4.1601 3.668c-7.0508-3.1094-7.6328-14.746 2.375-3.0547m-3.4219-3.4883c-1.7774-3.9492.0898-7.3711 6.9531.64063m-4.457-4.1953c-2.5195-4.7305 4.9375-4.3438 11.625 3.375m-11.5 12.125c3.9883 4.6016 7.8789 9.3945 11.461 14.762m-9.6523-14.992c3.8594 4.4844 7.6172 9.1719 11.082 14.406m-10.305-11.633c-.58984 7.0938-3.0195 11.012-9.5078 7.9492 4.5781-2.043 4.5898-9.0664 9.5078-7.9492m-9.5078 7.9492c4.4922.76172 6.6719-4.9883 9.5078-7.9492m1.7812.32813c4.1602 1.832 6.0234 5.7539 7.9961.60937-3.8359.25782-7.4023-5.5-7.9961-.60937m.008-.0625c3.1289-1.0117 6.2344 2.9219 7.9883.67187m-1.4609 17.402c-8.9102-5.5-8.9102 12.223 0 6.7226-5.3476 9.168 11.887 9.168 6.5391 0 8.914 5.5 8.914-12.223 0-6.7226 5.3476-9.168-11.887-9.168-6.5391 0m10.402 3.3594c-7.1328 0-7.1328 0-7.1328 7.3359 0-7.3359 0-7.3359-7.1289-7.3359 7.1289 0 7.1289 0 7.1289-7.332 0 7.332 0 7.332 7.1328 7.332m-14.207 4.4219c-.14844 1.2969-.36329 2.5-.64844 3.5273 1.0156-.30078 2.2148-.52734 3.5039-.67969m-.0274-14.539c-1.2774-.15234-2.4648-.37891-3.4766-.67578.28515 1.0391.50391 2.2539.65234 3.5625m14.137.0469c.14844-1.3281.36718-2.5586.66015-3.6094-.99999.29297-2.1719.51953-3.4336.67187m-.004 14.551c1.2617.15234 2.4336.375 3.4375.67187-.28906-1.0352-.50782-2.2461-.65235-3.5508m-105.07 16.539c-.57031.28125-1.1328.57032-1.6992.8711m48.062-.58985c-14.93-3.5625-24.863-4.4726-31.887-4.0508m-14.711-4.7734c3.5195-1.4375 7.7148-2.6367 13.074-3.0742 6.0976-.5 13.734-.0586 23.84 1.7617-11.715-10.652-23.582-21.688-33.555-36.535-2.9727 11.59-2.9375 24.578-3.3594 37.848m-32.207 39.258c1.2812-3.8047.59375-11.004 4.1602-11.004 7.7266 0 2.375 11.617-4.1602 17.727-6.5351-6.1094-11.883-17.727-4.1602-17.727 3.5664 0 2.8789 7.1992 4.1602 11.004m-5.3476-18.336s0 1.2227 1.1875 1.2227c1.5312 0 1.7852-5.5039-1.1875-5.5039-4.1602 0-3.5664 8.5586.59375 8.5586 3.5664 0 4.7539-6.1133 4.7539-6.1133s1.1875 6.1133 4.7539 6.1133c4.1602 0 4.7539-8.5586.59375-8.5586-2.9687 0-2.7187 5.5039-1.1875 5.5039 1.1875 0 1.1875-1.2227 1.1875-1.2227m-1.1875 1.2227c-6.5351-.32813 1.7812-30.563 1.7227-36.223-.03906-3.5938-1.1289-7.1758-5.8828-7.1758s-5.8437 3.582-5.8828 7.1758c-.05859 5.6602 8.2617 35.895 1.7227 36.223m2.3789 1.2226v6.9258m3.5625-6.9492v6.8984m.38281-51.18c2.2109-.62109 3.7773-2.1719 3.7773-3.9844 0-2.3633-2.6602-4.2812-5.9414-4.2812-3.2812 0-5.9414 1.918-5.9414 4.2812 0 1.8125 1.5664 3.3594 3.7773 3.9844m-.10156-7.957c-2.8828-.86719-3.6758-3.4531-3.6758-5.8086 0-4.4297 1.5625-11.754 2.418-15.445m8.6797 8.0274c.44922 2.6602.78516 5.3516.78516 7.418 0 2.3711-.80469 4.9805-3.7383 5.8281m18.227-23.555h.75781m-31.289 0h3.4141m25.769 1.832h1.418m-30.602 0h6.0703m21.699 1.8359h2.2109m-29.98 0h6.2422m20.254 1.832h2.8633m-29.359 0h5.8633m19.422 1.8359h3.5547m-28.84 0h5.5195m18.629 1.832h4.1055m-28.254 0h5.1758m17.937 1.8359h4.6211m-12.348 0h.62109m-16.008 0h4.8281m17.285 1.832h5.1055m-11.559 0h1.7266m-17.387 0h4.5547m16.629 1.8359h5.5508m-10.832 0h2.9336m-17.648 0h3.125m11.695 1.832h10.281m-25.102 0h2.918m11.937 1.832h9.8633m-24.125 0h2.3945m11.59 1.8359h8.5976m-22.582 0h2.7148m13.926 1.832h5.3476m14.855 23.84c-1.4062 2.1484-2.9062 3.9062-5.3984 5.7656-2.5742 1.9219-3.8047-1.1797-2.8359-2.7773m8.2344-6.6562c-1.625 1.9219-4.8398 4.8086-7.3984 6.3359-2.4258 1.4453-3.1523-1.8477-1.1328-3.4258m8.7266-6.8867c-1.625 1.9219-4.8047 4.8711-7.3984 6.332-3.9258 2.2109-5.2109-1.7305-.32422-3.8867m8.082-9.7344c-1.625 1.9219-4.8008 4.875-7.3984 6.3359-3.6602 2.0625-4.4726-2.0625-.60547-4.3789m7.8125 2.2578c-1.6445 1.6602-3.957 3.3867-6.0312 4.8281-2.625 1.8281-4.0547-.54687-2.7148-2.1055m9.2383-10.266c-1.6367 1.6172-3.8789 3.2852-5.8945 4.6875-2.8555 1.9883-4.2969-1.5-2.2852-3.0938m8.5703-4.9219c-1.9297 1.5859-4.75 3.2852-6.8984 4.4336-3.7187 1.9883-4.3867-2.5039-.39453-4.5391m7.7617-2.7461c-5.4219 4.7188-11.672 3.0898-6.4687-.62109m7.1992-3.5274c-5.918 5.1641-16.656 5.168-6.1133-.67187m7.7266-5.875c-7.4687 4.8984-16.844 3.5976-5.2148-1.3047m4.8594-.9336c-5.1601 2.2227-11.027-.0234-5.2266-1.668m2.8047-.51172c-4.332 1.3906-6.6445-1.1524-1.3555-2.4688m-.08594 47.234c-.85547.92579-1.8437 1.8203-3.0742 2.7383-2.082 1.5547-3.1758-.043-2.9883-1.5274m5.8867 3.5742c-.16016.125-.32031.24609-.48438.37109-2.3086 1.7188-3.3984-.42187-2.8789-2.0039m6.8476-40.066c-4.9687 3.9883-10.355 2.8086-6.8711-.32031m12.223-4.043c11.594-.12891 7.8359-3.1328 2.5156-3.1367m-.89062 5.4961c3.7891 1.457 7.1992 1.1211 8.9101.19922 2-1.0781 1.668-2.957-3.1094-3.7109m-3.3828 6.9336c6.9609 1.3438 12.324-1.707 6.5937-3.2031m-4.0898 6.6406c8.0156 2.2148 14.91-1.3125 5.875-4.1133m-3.7891 6.8008c8.2305 2.8711 16.094-.54688 7.9805-3.4375m-4.668 7.3359c6.0039.98047 10.539-1.1797 6.6016-3.4258m-4.5781 5.7695c9.1836 2.4375 18.773-2.1094 5.7969-3.3906m-1.418 8.0664c6.7969.61328 11.887-2.2031 4.7812-4.2812m-2.6445 6.4062c8.9453 2.4219 18.047-1.7852 6.0898-4.1992m-2.7656 7.4727c6.6133.93359 12.176-1.4336 7.6328-3.5156m-4.793 6.2109c8.5039 2.0195 16.715-1.7852 6.3516-4.1641m-1.5977 8.6328c6.7852.55078 11.766-2.3086 4.332-4.375m-1.5234 6.9375c8.7812 2.0664 17.219-2.0664 5.1914-4.4102m-.625 8.5391c6.8633.67187 12.09-2.1602 4.9922-4.2539m-1.9453 7.0742c8.082 1.457 15.164-2.1328 5.2031-4.4062m-17.43 24.441c-.60938-1.418-1.1836-2.8594-4.2266-2.582-1.707-9.9414-8.7695-12.027-15.449-14.672 0 0-2.3086-1.9102-3.4961-1.9102-1.7852 0-3.043.6875-3.6367.6875-.59375 0-1.1875-.60937-2.9687-.60937-1.7852 0-3.5664 3.0547-4.7539 6.1133-3.5664 4.8867-6.5391 11.738-6.5391 15.281 0 2.4414.59766 18.336.59766 18.945-.0039.37891-.68359 5.1914-1.2031 8.8125m38.988-25.965c-.75391-1.25-1.6367-2.9844-.94531-3.0156.32422-.0156.82812 1.2656 1.2188 2.4336m33.148-30.531 6.0078-6.6211m-7.6914 4.9844 5.789-6.3828m-7.5312 4.8086 5.707-6.2891m-7.3359 4.5938 5.4844-6.0469m-7.2226 4.4688 5.4648-6.0234m-7.1484 4.3867 4.1914-4.6211m-5.875 2.9844 2.8516-3.1484m-4.6133 1.5938 2.1211-2.3359m-3.7617.65234 1.0625-1.1719m-37.582-38.422h6.5859m-5.0273 1.8359h6.5391m-5.0742 1.832h6.6367m-5.0742 1.8359h6.5859m-5.0273 1.832h6.5898m-4.3945 2.4453h3.8086m24.363 3.0547v-3.9727m-2.9688 3.9727v-3.9727m-2.9726 3.9727v-3.9727m-4.3633 2.3516 2.6836-2.7617m-4.9648.21485 2.7812-2.8594m-4.9375.19141 2.707-2.7852m-4.8164.0625 2.6836-2.7578m-4.9375.1875 2.4648-2.5352m16.797 76.922c1.8555.76953 3.7812 1.4453 5.7187 2.0391m-7.5195.45313c1.8828.77734 3.8359 1.4609 5.7969 2.0547m-7.6172.375c1.9219.79297 3.918 1.4922 5.9219 2.0976m-7.6211.13282c1.9531.83203 3.9883 1.5586 6.0352 2.1914m-6.918.62891c1.3945.5625 2.8242 1.0742 4.2617 1.5391m-5.7539 1.0195c1.0039.40235 2.0273.77735 3.0625 1.125m-4.8281 1.3086c.64063.24609 1.2891.48047 1.9453.71093m20.484 10.77c-6.1641-2.4258-12.324 3.0117-16.52.0977-5.5156-3.8359-.76172-11.172 3.3164-8.75 3.7812 2.2422.0781 7.3594-1.7031 6.1367-1.1055-.75781-1.7695-2.2383-1.1875-3.0547.73437-1.0352 1.2461-1.1797 2.375-.61328m13.844 5.8516c-4.7188-4.6836-2.6289-12.699-6.9805-15.328-5.7422-3.4688-10.129 4.1016-6.2461 6.8477 3.5938 2.543 6.4883-3.0977 4.6484-4.2266-1.1406-.69921-2.7266-.67578-3.1953.21485-.58985 1.1289-.4961 1.6641.48828 2.4688m-4.9336-.10547 10.695 7.332m-1.1875-4.8867c-1.1875 1.2227-5.4062 1.3867-6.539-.61328 2.6172 1.3516 4.1328 3.0273 2.9726 5.5m-2.375-13.445c2.9688-3.668 5.9414-2.4453 8.9102-1.2227 2.8594-4.0039 7.6875-4.7266 12.48-5.5m-29.711 18.949c-1.1875 2.4414 1.7812 5.5 3.5664 6.7227-.69531 2.8164.32031 5.9883 1.375 9.168m-7.914-11.004c1.1875 3.0586 2.9726 3.0586 2.9726 3.0586-1.0078 4.6641.39062 5.8516.97266 7.9375m-36.273.004c2.0312-6.3242 6.5781-9.582 13.234-10.266m-11.012 10.266c1.8945-4.7461 5.3906-7.5391 10.277-8.6367m-8.5469 8.6367c1.6641-3.3516 4.2422-5.5859 7.6484-6.8125m-5.7773 6.8047c1.2344-2 2.8555-3.5274 4.832-4.6211m-17.395 4.6289c-1.7734-4.9102-3.6094-9.7852-7.9141-12.258m6.0508 12.258c-1.457-3.8828-3.1445-7.5586-6.2891-9.8125m4.3828 9.8125c-1.168-2.832-2.5742-5.4414-4.7344-7.3164m3.0234 7.3086c-.91406-1.7891-2.0078-3.4062-3.4336-4.6992m1.0391-9.9609c4.8828 3.0664 7.3125 1.75 9.5039 0 2.3789-6.7227-1.7812-13.445-1.7109-18.539.02344-1.8945 1.3945-1.6445 2.3086-1.6289.59375.008 1.7812-1.2227 1.7812-1.2227m-11.883 20.781c3.5156 2.5625 6.5898 2.1406 9.5039.60938m5.3516-15.281c2.375 0 2.375-3.6641.59375-3.6641-4.7539-.61328-4.7539 1.2226-.59375 0m-7.7266-4.8906v-1.2227l.59375.60938-.59375.61328m10.695-.61328.59375.61328v-1.2227l-.59375.60938m-10.102 0s.59375-.60938 1.1875-.60938c.59375 0 .625.48829 1.4648.54688.91406.0625.91406-.54688 1.5078-.54688.59375 0 1.7812 1.2227 2.375 1.2227.59766 0 1.7852-.61328 2.3789-.61328h1.1875m-7.7226-2.4453c.36328-3.4766 5.418-1.0625 5.3476-.60938-.59375-.61328-5.3203-3.8945-5.3476.60938m4.7539 25.062c6.125 4.4883 10.203 1.9766 14.262-.60938-4.2109 3.1758-10.105 5.5-14.262.60938m13.07-3.0547c-1.7812 0-4.332 3.1016-6.6992 2.8789-3.543-.33594-4.5898-4.7148-6.3711-5.3242 2.1289 2.6172 4.0156 3.4492 5.7109 3.4297 3.4727-.0391 4.3906-4.043 8.5508-2.8203m-14.262-.60937c1.7812 1.2226 3.8984-1.2305 5.3672-1.2188 3.4336.0312 5.2656 1.8281 6.5156 1.8281m-17.828 0c-2.375 0-3.668 2.3438-5.5898 2.4805-1.4648.10547-3.4687-1.543-3.4687-2.1523 0-.86328 1.3359-2.5312 2.7031-2.8438 1.9492-.44531 4.3125 2.4727 6.3555 2.5156m-8.9101 1.2227c2.6875 5.2266 7.7187 1.1602 7.7226.61328m53.48-12.836c1.7852-1.8359 4.1602-1.2226 5.3476-.61328 2.4414-1.793 5.082-2.5312 7.4492-2.8398m-9.0078-2.3359c5.1367 1.6172 10.336 2.6875 14.633 3.3438-5.9531 11.828-8.9258 23.328-11.988 34.84m-2.6445-38.184c5.1367 1.6172 10.336 2.6875 14.633 3.3438-5.9531 11.828-8.9258 23.328-11.988 34.84m-2.7461-38.141-25.629 38.141m34.734-35.852c-2.3633.3125-5.0039 1.0508-7.4453 2.8438-1.1875-.60937-3.5625-1.2226-5.3476.61328" stroke-width=".72322"/>
  <path d="m72.496 134.42-2.082 3.2812m-.42579.67188-1.6992 2.6719m3.3867-7.8867c-1.4961 2.543-3.1328 4.8633-4.832 7.082m-.4375.5664c-.71876.92969-1.4492 1.8398-2.1836 2.7422m-.42579.51953c-.58594.71875-1.1758 1.4336-1.7656 2.1484m8.6016-14.23c-3.0508 5.2422-6.6953 9.5312-10.285 13.906m9.2109-15.012c-3.1602 5.4883-6.9805 9.9258-10.715 14.492m9.8945-15.328c-3.2344 5.5156-7.1289 9.9766-10.906 14.621m120.98-59.402c-.63281 4.2031-1.4688 8.543-2.1367 12.168-.66796 3.625-1.1406 6.707-1.1328 7.6406.0195 1.6133.3125 3.0664.875 3.9375.56641.87109 1.2852 1.4258 3.2266 1.4258s2.6602-.55469 3.2266-1.4258m-4.4414-11.234c-.33203 1.7969-.61328 3.457-.8125 4.7656-.19531 1.3086-.28906 2.3867-.28906 2.5117.0156 1.3945.35937 2.6133.57421 2.9414.1836.28516.23438.32813.39453.40625.16016.082.54297.20313 1.3477.20313m-1.6914 5.1172c-1.6953.47657-2.4688 1.4883-2.4688 2.2148 0 .47656.2539 1 .98047 1.5234.72656.52343 1.875.92187 3.1797.92187s2.4531-.39844 3.1797-.92187m-4.9023 4.1953c-1.0469.30469-1.5234.78515-1.8906 1.4648-.36718.67969-.54687 1.625-.54687 2.5977 0 1.8594.32031 4.4961.76172 7.1055m1.2656-16.852c.35937.25391 1.1992.57813 2.1328.57813.94922 0 1.8047-.33984 2.1562-.58984m-4.2109 8.0508c-.14843.27343-.32421.96875-.32421 1.707 0 1.6406.30468 4.2383.73828 6.7891m-74.629-52.23c10.328 2.3711 18.07 3.3867 23.996 3.582m-22.672-5.0117c7.8047 1.7344 14.082 2.6719 19.187 3.0625m-17.695-4.5703c5.9141 1.2695 10.922 2.0664 15.184 2.5078m-13.727-4.0352c4.5508.94141 8.5469 1.5938 12.062 2.0156m-10.797-3.5938c3.5703.71484 6.7852 1.2461 9.6875 1.6211m-8.5078-3.2227c2.7773.53516 5.3281.95703 7.6836 1.2813m-6.418-2.875c2.1445.39453 4.1523.72266 6.0352.98438m26 9.6836c-1.418-1.7031-3.2344-1.5508-5.3476 0m-.59375-22.613c-1.1875 1.832-3.5664 1.832-5.3476 1.832m20.797-.60937c-5.9414 3.0547-7.1289-3.668-8.3164-3.668m3.5625-1.582c-.13672.38672-.21485.82422-.21485 1.2891 0 1.5938.90235 2.8867 2.0156 2.8867 1.1094 0 2.0117-1.293 2.0117-2.8867 0-.70703-.17968-1.3555-.47656-1.8594m-19.801-.46484c-.22657.46875-.35938 1.0352-.35938 1.6484 0 1.5938.89844 2.8867 2.0117 2.8867 1.1094 0 2.0117-1.293 2.0117-2.8867 0-.49219-.0859-.95703-.23828-1.3633" stroke-width=".36161"/>
 </g>
 <g>
  <path d="m51.426 146.14c-2.1172 1.1328-4.7148.69532-6.3477 2.6406-.47656.56641-.40234 1.4102.16406 1.8867.56641.47265 1.4102.39844 1.8828-.16797.03125-.0352.08984-.0391.125-.008.03906.0312.04297.0859.01172.125-1.1445 1.3633-1.5742 1.1797-2.4531 1.6055l1.7734 1.4883c.26562-.94141.01172-1.3281 1.1562-2.6953.03125-.0352.08984-.0391.12891-.008.03516.0312.03906.0859.0078.125-.47266.56641-.39844 1.4062.16797 1.8828.5625.47266 1.4062.39844 1.8828-.16406 1.6328-1.9453.75-4.4336 1.5-6.7109z"/>
  <path d="m50.711 159.34c-2.1133 1.1328-4.7148.69531-6.3477 2.6406-.47266.56641-.39844 1.4102.16406 1.8867.56641.47266 1.4102.39844 1.8867-.16797.03125-.0352.08594-.043.125-.008.03516.0312.04297.0859.0078.125-1.1445 1.3633-1.5703 1.1797-2.4531 1.6055l1.7773 1.4883c.26562-.9414.0078-1.3281 1.1562-2.6953.03125-.0352.08594-.043.125-.008.03906.0312.04297.0859.01172.125-.47656.5625-.40234 1.4062.16406 1.8828.56641.47266 1.4102.39844 1.8828-.16406 1.6328-1.9453.75-4.4336 1.5-6.7109z"/>
  <path d="m62.359 158.12c-2.1133 1.1328-4.7148.69532-6.3477 2.6406-.47656.5664-.40234 1.4102.16406 1.8867.56641.47265 1.4102.39843 1.8828-.16797.03125-.0352.08984-.0391.125-.008.03906.0312.04297.0859.01172.125-1.1445 1.3633-1.5742 1.1797-2.4531 1.6055l1.7734 1.4883c.26953-.9375.01172-1.3281 1.1562-2.6953.03516-.0352.08984-.0391.12891-.008.03516.0312.04297.0859.0078.125-.47266.56641-.39844 1.4062.16797 1.8828.5625.47266 1.4062.39844 1.8828-.16406 1.6328-1.9453.75-4.4336 1.5-6.7109z"/>
  <path d="m71.152 147.61c-2.1133 1.1367-4.7148.69922-6.3477 2.6445-.47266.56641-.39844 1.4102.16406 1.8828.56641.47656 1.4102.40235 1.8867-.16406.03125-.0391.08594-.043.125-.0117.03516.0312.04297.0898.01172.125-1.1484 1.3672-1.5742 1.1836-2.457 1.6094l1.7773 1.4883c.26562-.94141.01172-1.3281 1.1562-2.6953.03125-.0391.08594-.043.125-.0117.03906.0312.04297.0898.01172.125-.47656.5664-.40234 1.4102.16406 1.8828.56641.47656 1.4102.40234 1.8828-.16406 1.6328-1.9453.75391-4.4297 1.5-6.7109z"/>
  <path d="m83.516 135.87c-2.1172 1.1328-4.7188.69922-6.3516 2.6445-.47266.5625-.39844 1.4062.16797 1.8828.5625.47265 1.4062.39843 1.8828-.16407.03125-.0391.08594-.043.125-.0117.03906.0312.04297.0859.01172.125-1.1484 1.3633-1.5742 1.1797-2.4531 1.6055l1.7734 1.4883c.26562-.9375.01172-1.3281 1.1562-2.6914.03125-.0391.08984-.043.125-.0117.03906.0312.04297.0859.01172.125-.47656.56641-.40234 1.4102.16406 1.8828.56641.47657 1.4102.40235 1.8828-.16406 1.6328-1.9453.75391-4.4297 1.5039-6.7109z"/>
  <path d="m86.008 120.59c-2.1133 1.1328-4.7148.69922-6.3477 2.6445-.47266.5625-.39844 1.4062.16406 1.8828.56641.47265 1.4102.39844 1.8867-.16406.03125-.0391.08594-.043.125-.0117.03516.0312.04297.0859.01172.125-1.1484 1.3633-1.5742 1.1797-2.4531 1.6055l1.7734 1.4883c.26562-.9375.01172-1.3281 1.1562-2.6914.03125-.0391.08594-.043.125-.0117.03906.0312.04297.0859.01172.125-.47656.56641-.40234 1.4102.16406 1.8828.56641.47657 1.4102.40235 1.8828-.16406 1.6328-1.9453.75391-4.4297 1.5-6.7109z"/>
 </g>
 <path d="m152.5 180.58 2.082-3.2812m.42578-.67187 1.6992-2.6719m-3.3867 7.8867c1.4961-2.543 3.1328-4.8633 4.832-7.082m.43749-.56641c.71876-.92968 1.4492-1.8398 2.1836-2.7422m.42579-.51954c.58593-.71875 1.1758-1.4336 1.7656-2.1484m-8.6016 14.23c3.0508-5.2422 6.6953-9.5312 10.285-13.906m-9.2109 15.012c3.1602-5.4883 6.9805-9.9258 10.715-14.492m-9.8945 15.328c3.2344-5.5156 7.1289-9.9766 10.906-14.621m-120.98 59.402c.63281-4.2031 1.4687-8.543 2.1367-12.168s1.1406-6.707 1.1328-7.6406c-.01953-1.6133-.3125-3.0664-.875-3.9375-.5664-.87109-1.2852-1.4258-3.2266-1.4258-1.9414 0-2.6602.55469-3.2266 1.4258m4.4414 11.234c.33203-1.7969.61328-3.457.8125-4.7656.19531-1.3086.28906-2.3867.28906-2.5117-.01563-1.3945-.35937-2.6133-.57422-2.9414-.18359-.28515-.23438-.32812-.39453-.40625-.16016-.082-.54297-.20312-1.3477-.20312m1.6914-5.1172c1.6953-.47656 2.4687-1.4883 2.4687-2.2148 0-.47656-.25391-1-.98047-1.5234-.72656-.52344-1.875-.92187-3.1797-.92187-1.3047 0-2.4531.39843-3.1797.92187m4.9023-4.1953c1.0469-.30469 1.5234-.78516 1.8906-1.4648.36719-.67968.54688-1.625.54688-2.5976 0-1.8594-.32031-4.4961-.76172-7.1055m-1.2656 16.852c-.35937-.2539-1.1992-.57812-2.1328-.57812-.94922 0-1.8047.33984-2.1562.58984m4.2109-8.0508c.14844-.27344.32422-.96875.32422-1.707 0-1.6406-.30469-4.2383-.73828-6.7891m74.629 52.23c-10.328-2.3711-18.07-3.3867-23.996-3.582m22.672 5.0117c-7.8047-1.7344-14.082-2.6719-19.187-3.0625m17.695 4.5703c-5.9141-1.2695-10.922-2.0664-15.184-2.5078m13.727 4.0352c-4.5508-.94141-8.5469-1.5938-12.062-2.0156m10.797 3.5938c-3.5703-.71484-6.7852-1.2461-9.6875-1.6211m8.5078 3.2227c-2.7773-.53516-5.3281-.95703-7.6836-1.2812m6.418 2.875c-2.1445-.39453-4.1523-.72266-6.0352-.98438m-26-9.6836c1.418 1.7031 3.2344 1.5508 5.3476 0m.59375 22.613c1.1875-1.832 3.5664-1.832 5.3476-1.832m-20.797.60937c5.9414-3.0547 7.1289 3.668 8.3164 3.668m-3.5625 1.582c.13672-.38671.21484-.82421.21484-1.2891 0-1.5938-.90234-2.8867-2.0156-2.8867-1.1094 0-2.0117 1.293-2.0117 2.8867 0 .70703.17969 1.3555.47656 1.8594m19.801.46484c.22656-.46875.35938-1.0352.35938-1.6484 0-1.5938-.89844-2.8867-2.0117-2.8867-1.1094 0-2.0117 1.293-2.0117 2.8867 0 .49219.08594.95703.23828 1.3633" fill="none" stroke="#4242ff" stroke-linecap="round" stroke-linejoin="round" stroke-width=".36161"/>
 <g>
  <path d="m173.57 168.86c2.1172-1.1328 4.7148-.69531 6.3476-2.6406.47657-.56641.40235-1.4102-.16406-1.8867-.5664-.47266-1.4102-.39844-1.8828.16797-.0312.0352-.0898.0391-.125.008-.0391-.0312-.043-.0859-.0117-.125 1.1445-1.3633 1.5742-1.1797 2.4531-1.6055l-1.7734-1.4883c-.26563.94141-.0117 1.3281-1.1562 2.6953-.0312.0352-.0898.0391-.12891.008-.0352-.0312-.0391-.0859-.008-.125.47266-.56641.39844-1.4062-.16797-1.8828-.5625-.47265-1.4062-.39843-1.8828.16407-1.6328 1.9453-.75 4.4336-1.5 6.7109z"/>
  <path d="m174.29 155.66c2.1133-1.1328 4.7148-.69531 6.3477-2.6406.47265-.5664.39844-1.4102-.16406-1.8867-.56641-.47266-1.4102-.39844-1.8867.16796-.0312.0352-.0859.043-.125.008-.0352-.0312-.043-.0859-.008-.125 1.1445-1.3633 1.5703-1.1797 2.4531-1.6055l-1.7773-1.4883c-.26563.9414-.008 1.3281-1.1562 2.6953-.0312.0352-.0859.043-.125.008-.0391-.0312-.043-.0859-.0117-.125.47656-.5625.40234-1.4062-.16407-1.8828-.5664-.47266-1.4102-.39844-1.8828.16406-1.6328 1.9453-.75 4.4336-1.5 6.7109z"/>
  <path d="m162.64 156.88c2.1133-1.1328 4.7148-.69532 6.3477-2.6406.47656-.56641.40234-1.4102-.16406-1.8867-.56641-.47265-1.4102-.39844-1.8828.16797-.0312.0352-.0898.0391-.125.008-.0391-.0312-.043-.0859-.0117-.125 1.1445-1.3633 1.5742-1.1797 2.4531-1.6055l-1.7734-1.4883c-.26953.9375-.0117 1.3281-1.1562 2.6953-.0352.0352-.0898.0391-.1289.008-.0352-.0312-.043-.0859-.008-.125.47265-.56641.39843-1.4062-.16797-1.8828-.5625-.47266-1.4062-.39844-1.8828.16406-1.6328 1.9453-.75 4.4336-1.5 6.7109z"/>
  <path d="m153.85 167.39c2.1133-1.1367 4.7148-.69922 6.3476-2.6445.47266-.56641.39844-1.4102-.16406-1.8828-.56641-.47657-1.4102-.40235-1.8867.16406-.0312.0391-.0859.043-.125.0117-.0352-.0312-.043-.0898-.0117-.125 1.1484-1.3672 1.5742-1.1836 2.457-1.6094l-1.7773-1.4883c-.26563.94141-.0117 1.3281-1.1562 2.6953-.0312.0391-.0859.043-.125.0117-.0391-.0312-.043-.0898-.0117-.125.47656-.5664.40234-1.4102-.16406-1.8828-.56641-.47656-1.4102-.40234-1.8828.16406-1.6328 1.9453-.75391 4.4297-1.5 6.7109z"/>
  <path d="m141.48 179.13c2.1172-1.1328 4.7188-.69922 6.3516-2.6445.47265-.5625.39843-1.4062-.16797-1.8828-.5625-.47265-1.4062-.39844-1.8828.16406-.0312.0391-.0859.043-.125.0117-.0391-.0312-.043-.0859-.0117-.125 1.1484-1.3633 1.5742-1.1797 2.4531-1.6055l-1.7734-1.4883c-.26562.9375-.0117 1.3281-1.1562 2.6914-.0312.0391-.0898.043-.125.0117-.0391-.0312-.043-.0859-.0117-.125.47656-.56641.40234-1.4102-.16407-1.8828-.5664-.47657-1.4102-.40235-1.8828.16406-1.6328 1.9453-.75391 4.4297-1.5039 6.7109z"/>
  <path d="m138.99 194.41c2.1133-1.1328 4.7148-.69922 6.3476-2.6445.47266-.5625.39844-1.4062-.16406-1.8828-.56641-.47265-1.4102-.39844-1.8867.16406-.0312.0391-.0859.043-.125.0117-.0352-.0312-.043-.0859-.0117-.125 1.1484-1.3633 1.5742-1.1797 2.4531-1.6055l-1.7734-1.4883c-.26562.9375-.0117 1.3281-1.1562 2.6914-.0312.0391-.0859.043-.125.0117-.0391-.0312-.043-.0859-.0117-.125.47656-.56641.40235-1.4102-.16406-1.8828-.56641-.47657-1.4102-.40235-1.8828.16406-1.6328 1.9453-.75391 4.4297-1.5 6.7109z"/>
 </g>
 <path d="m12.449 29.25c9 0 6.6016 10.801 15.602 10.801m-13.051-13.801v-8.5508c0-2.8984 2.3516-5.25 5.25-5.25 2.8984 0 5.25 2.3516 5.25 5.25v17.102c0 2.8984-2.3516 5.25-5.25 5.25-2.8984 0-5.25-2.3516-5.25-5.25zm0 0" fill="none" stroke="#000" stroke-linecap="square" stroke-miterlimit="1.5" stroke-width="2.4"/>
 <path d="m20.25 48.027c2.0938 5.2305 7.4258 8.3672 7.4258 14.328 0 1.7305-1.4062 3.1367-3.1367 3.1367-1.7344 0-3.1367-1.4062-3.1367-3.1367 0-.11719-.09375-.21094-.21094-.21094-.11719 0-.20703.09375-.20703.21094 0 4.1797 1.043 4.4961 1.9844 6.5859h-5.4375c.94141-2.0898 1.9883-2.4062 1.9883-6.5859 0-.11719-.09375-.21094-.21094-.21094-.11328 0-.20703.09375-.20703.21094 0 1.7305-1.4062 3.1367-3.1367 3.1367-1.7344 0-3.1367-1.4062-3.1367-3.1367 0-5.9609 5.332-9.0977 7.4219-14.328z"/>
 <path d="m52.566 37.949c4.3516 10.875 15.445 17.402 15.445 29.797 0 3.6055-2.9219 6.5273-6.5273 6.5273-3.6016 0-6.5234-2.9219-6.5234-6.5273 0-.23828-.19531-.43359-.4375-.43359-.23828 0-.43359.19531-.43359.43359 0 8.7031 2.1758 9.3555 4.1328 13.703h-11.309c1.957-4.3477 4.1328-5 4.1328-13.703 0-.23828-.19531-.43359-.4375-.43359-.23828 0-.43359.19531-.43359.43359 0 3.6055-2.9219 6.5273-6.5273 6.5273-3.6016 0-6.5234-2.9219-6.5234-6.5273 0-12.395 11.094-18.922 15.441-29.797z"/>
 <path d="m212.55 285.75c-9 0-6.6016-10.801-15.602-10.801m13.051 13.801v8.5508c0 2.8984-2.3516 5.25-5.25 5.25s-5.25-2.3516-5.25-5.25v-17.102c0-2.8984 2.3516-5.25 5.25-5.25s5.25 2.3516 5.25 5.25zm0 0" fill="none" stroke="#000" stroke-linecap="square" stroke-miterlimit="1.5" stroke-width="2.4"/>
 <path d="m204.75 266.97c-2.0938-5.2305-7.4258-8.3672-7.4258-14.328 0-1.7305 1.4062-3.1367 3.1367-3.1367 1.7344 0 3.1367 1.4062 3.1367 3.1367 0 .11719.0937.21094.21093.21094.11719 0 .20703-.0937.20703-.21094 0-4.1797-1.043-4.4961-1.9844-6.5859h5.4375c-.94141 2.0898-1.9883 2.4062-1.9883 6.5859 0 .11719.0937.21094.21094.21094.11328 0 .20703-.0937.20703-.21094 0-1.7305 1.4062-3.1367 3.1367-3.1367 1.7344 0 3.1367 1.4062 3.1367 3.1367 0 5.9609-5.332 9.0977-7.4219 14.328z"/>
 <path d="m172.43 277.05c-4.3516-10.875-15.445-17.402-15.445-29.797 0-3.6055 2.9219-6.5274 6.5273-6.5274 3.6016 0 6.5234 2.9219 6.5234 6.5274 0 .23828.19531.43359.4375.43359.23828 0 .4336-.19531.4336-.43359 0-8.7031-2.1758-9.3555-4.1328-13.703h11.309c-1.957 4.3477-4.1328 5-4.1328 13.703 0 .23828.19532.43359.4375.43359.23829 0 .4336-.19531.4336-.43359 0-3.6055 2.9219-6.5274 6.5273-6.5274 3.6016 0 6.5234 2.9219 6.5234 6.5274 0 12.395-11.094 18.922-15.441 29.797z"/>
 <path d="m35.25 35.25h154.5v244.5h-154.5z" fill="none" stroke="#4242ff" stroke-width=".9375"/>
</svg>
