<svg width="225px" height="315px" version="1.1" viewBox="0 0 225 315" xmlns="http://www.w3.org/2000/svg">
 <g>
  <path d="m11.719.46875h201.56c6.2148 0 11.25 5.0352 11.25 11.25v291.56c0 6.2148-5.0352 11.25-11.25 11.25h-201.56c-6.2148 0-11.25-5.0352-11.25-11.25v-291.56c0-6.2148 5.0352-11.25 11.25-11.25z" fill="#fff"/>
  <path d="m189.75 35.555v202.63l-13.074-13.445.004-15.434c-12.516-10.699-21.422-22.27-27.785-34.504.21875.42969.44531.85938.67969 1.3008-16.559-4.2226-27.188-18.574-38.848-30.711-11.73-12.215-24.051-22.52-44.879-21.395-.89453-1.0898-1.7578-2.1797-2.6016-3.25.51172-.0469 1.0117-.082 1.5117-.11718-.13672.008-.27344.0156-.41016.0234l.04297-28.691c.76944-.37106 1.5429-.71091 2.3476-1.0351l-.01172 29.598c-.08203.004-.16406.008-.24609.0117 18.902-.73828 31.531 7.7344 42.32 18.137-2.6172-2.5234-5.332-4.9336-8.2188-7.1172l.0195-22.082c1.6484.90234 3.3047 1.8086 4.957 2.7148.0742.48047.23829.96094.40625 1.3008-.59375 1.2227-1.2617 4.2031 2.375 2.4453-1.7812 3.668 1.1875 3.0586 2.3789 2.4453 1.125.58203 3.8555 1.1602 2.6133-1.9102l-3.543-1.9648c3.4805 1.9023 6.957 3.8047 10.438 5.7109l.59766-.34375-.0312 31.359c3.457 3.7226 6.8984 7.3438 10.508 10.555-1.3906-1.2422-2.75-2.5508-4.0898-3.9102 3.5976-2.9609 7.3828-5.8047 12.035-8.3047.8125 3 1.7031 5.9727 2.6875 8.9336l-8 5.4883-.0195.0195c4.1562 3.3711 8.582 6.1484 13.531 7.8984-11.359-23.473-13.812-49.297-14.652-76.09 2.0742-.94531 1.5781-1.6914 3.2109-3.1836-.004-.08203-.008-.15625-.0156-.24219 2.5391-4.7969 7.4102-14.547 7.4102-17.414v-8.5586c0-1.2188.59765-3.6641.59765-4.8867s-1.1914-9.7812-1.1914-9.7812l1.1914.60938c2.5312 7.418 2.2344 15.367 2.9375 23.184.0312-3.0117 5.9727-3.4102 5.9727 1.8789 0 4.6367-5.9062 4.4961-8.4922.72266 1.0469 1.8672.32422 5.1484-.1914 7.9297.35546 5.8086 3.3594 5.4492 4.5273 5.4062.80469-.02734 1.2461-.41016 1.3789-.92969-.47266 1.3047-3.4492.90234-3.7578-2.125-.44922-4.4258 7.1289-2.4453 6.5352 3.0547-.14453 1.3477-.85938 2.3672-1.8242 3.0508 0 0-4.1172 3.0625-8.2773 1.8398-.6836-.20312-1.2578-.53516-1.7383-.92969-1.8867-.26172-3.7031-.53906-4.9727-.71875 1.2266 41.297 5.832 79.098 40.582 110.11l.004 1.9219.0156-102.47c.57031-1.2109.57031-3.0039 0-5.3906v-.06641c1.457.77734 1.4648-.76562 1.7656-1.8438 0 0 1.0312 1.375 2.2188 3.207.21875.33984.5039.54687.8125.64453l-.22266.0508c-.73437.27344-1.1836.64062-1.1836 1.0469 0 .84766 1.9336 1.5312 4.3164 1.5312 2.3828 0 4.3125-.68359 4.3125-1.5312 0-.84375-1.9297-1.5273-4.3125-1.5273-.42187 0-.82422.0234-1.2109.0625l-.125.0273c.70312-.57422 1.0352-1.6797.14843-2.8984-1.7852-2.4453-1.957-3.2344-2.3789-3.668-.49219-.50781-2.2109-.58984-4.1406-.25781l.004-38.863h-3.5859zm-33.758 5.2812c7.9961 1.0859 6.1758 12.406 12.961 17.641-11.09 3.4219-17.008-4.332-19.195-9.8516zm-42.305 9.6953c-7.5 14.207-4.1602 24.434-4.1602 37.285 0 4.8555-2.8281 6.9648-5.4922 6.7031-5.2227-.42969-13.125-5.293-19.773-8.0859-2.0664-.57031-3.8516-2.6133-3.8516-5.9492 0-1.2227.59375-4.8906 4.668-4.2812-.59766-8.082-3.1172-16.184 1.8711-25.672zm-29.605 35.855.48438.25-.0078 36.301c-.79688-.25781-1.5898-.49609-2.3828-.72266l.05078-35.523c.62891-.10156 1.2422-.20312 1.8555-.30469zm65.262 2.043c.30859.35937.52344.6875.66016.98437-.14063-.33984-.36329-.67969-.66016-.98437zm8.3047 8.2812c3.2812.03125 6.0312 1.7266 8.9258 2.7188.66797-.07422 1.3086-.20703 2.3789.61328.20313 4.9141.89063 9.2891 1.7812 13.445 0 1.2227-.78906 1.6328-2.375 1.2227-2.9805 2.1484-6.7852 6.2617-10.312 8.4766-.59375-2.4727.29297-5.6992 2.5859-9.0859-1.543.53125-3.7461-.34765-5.9414-1.2226 1.3008-2.1641 2.8125-3.707 5.2734-4.5898-2.75-.004-4.6758-1.1016-5.8672-2.7461 1.2812-1.7188 2.7812-3.2188 5.3476-3.668-2.2188-.81641-3.9805-2.0781-4.1602-4.8906.82031-.19922 1.6055-.28125 2.3633-.27344zm27.449 7c-2.3516 0-4.2617.68359-4.2617 1.5273s1.9102 1.5274 4.2617 1.5274c2.3555 0 4.2617-.6836 4.2617-1.5274s-1.9062-1.5273-4.2617-1.5273zm.22265 3.3594c-2.1484 0-3.8906.6875-3.8906 1.5312s1.7422 1.5274 3.8906 1.5274c2.1524 0 3.8945-.6836 3.8945-1.5274s-1.7422-1.5312-3.8945-1.5312zm-.32422 3.0586c-2.2969 0-4.1602.68359-4.1602 1.5273s1.8633 1.5273 4.1602 1.5273c2.2969 0 4.1602-.68359 4.1602-1.5273s-1.8633-1.5273-4.1602-1.5273zm-72.535 13.289c-.60156.004-1.2969.23437-1.7422.46484-1.1914-.61328-4.1602-1.2226-2.3789 2.4453-3.5664-1.8359-2.9688 1.2188-2.375 2.4414-.59375 1.2227-1.2617 4.2031 2.375 2.4453-1.7812 3.668 1.1875 3.0586 2.3789 2.4453 1.1875.61328 4.1562 1.2226 2.375-2.4453 3.5664 1.8359 2.9727-1.2226 2.3789-2.4453.59375-1.2226 1.1875-4.2773-2.3789-2.4414 1.1133-2.293.37109-2.9141-.63281-2.9102zm0 15.281c-.60156.004-1.2969.23437-1.7422.46484-.46875-.24219-1.2109-.48047-1.832-.46094l1.75 1.7734c-.11328-.11328-.22656-.22265-.33984-.33594.57812.57422 1.1523 1.1562 1.7226 1.7383-.0195-.0195-.0352-.0352-.0508-.0547l3.9531 4.0078c-.008-.61719-.23047-1.3242-.44922-1.7812.59375-1.2227 1.1875-4.2773-2.3789-2.4414 1.1133-2.293.37109-2.9141-.63281-2.9102z" fill="#ffcc42"/>
  <path d="m35.25 279.45v-202.63l13.074 13.445-.0039 15.434c12.516 10.699 21.422 22.27 27.785 34.504-.21875-.42969-.44531-.85938-.67969-1.3008 16.559 4.2226 27.188 18.574 38.848 30.711 11.73 12.215 24.051 22.52 44.879 21.395.89453 1.0898 1.7578 2.1797 2.6016 3.25-.51172.0469-1.0117.082-1.5117.11718.13672-.008.27343-.0156.41015-.0234l-.043 28.691c-.76953.3711-1.543.71094-2.3476 1.0352l.0117-29.598c.082-.004.16406-.008.24609-.0117-18.902.73828-31.531-7.7344-42.32-18.137 2.6172 2.5234 5.332 4.9336 8.2188 7.1172l-.0195 22.082c-1.6484-.90234-3.3047-1.8086-4.957-2.7148-.0742-.48047-.23828-.96094-.40625-1.3008.59375-1.2227 1.2617-4.2031-2.375-2.4453 1.7812-3.668-1.1875-3.0586-2.3789-2.4453-1.125-.58203-3.8555-1.1602-2.6133 1.9102l3.543 1.9648c-3.4805-1.9023-6.957-3.8047-10.438-5.7109l-.59766.34375.0312-31.359c-3.457-3.7227-6.8984-7.3438-10.508-10.555 1.3906 1.2422 2.75 2.5508 4.0898 3.9102-3.5977 2.9609-7.3828 5.8047-12.035 8.3047-.8125-3-1.7031-5.9727-2.6875-8.9336l8-5.4883.01953-.0195c-4.1562-3.3711-8.582-6.1484-13.531-7.8984 11.359 23.473 13.812 49.297 14.652 76.09-2.0742.94531-1.5781 1.6914-3.2109 3.1836.0039.082.0078.15625.01563.24219-2.5391 4.7969-7.4102 14.547-7.4102 17.414v8.5586c0 1.2188-.59766 3.6641-.59766 4.8867 0 1.2227 1.1914 9.7812 1.1914 9.7812l-1.1914-.60937c-2.5312-7.418-2.2344-15.367-2.9375-23.184-.03125 3.0117-5.9727 3.4102-5.9727-1.8789 0-4.6367 5.9062-4.4961 8.4922-.72266-1.0469-1.8672-.32422-5.1484.19141-7.9297-.35547-5.8086-3.3594-5.4492-4.5273-5.4062-.80469.0273-1.2461.41016-1.3789.92969.47266-1.3047 3.4492-.90234 3.7578 2.125.44922 4.4258-7.1289 2.4453-6.5352-3.0547.14453-1.3476.85938-2.3672 1.8242-3.0508 0 0 4.1172-3.0625 8.2773-1.8398.68359.20312 1.2578.53516 1.7383.92969 1.8867.26172 3.7031.53906 4.9727.71875-1.2266-41.297-5.832-79.098-40.582-110.11l-.0039-1.9219-.01562 102.47c-.57031 1.2109-.57031 3.0039 0 5.3906v.0664c-1.457-.77734-1.4648.76563-1.7656 1.8438 0 0-1.0312-1.375-2.2188-3.207-.21875-.33984-.50391-.54687-.8125-.64453l.22266-.0508c.73438-.27344 1.1836-.64062 1.1836-1.0469 0-.84766-1.9336-1.5312-4.3164-1.5312-2.3828 0-4.3125.68359-4.3125 1.5312 0 .84375 1.9297 1.5273 4.3125 1.5273.42188 0 .82422-.0234 1.2109-.0625l.125-.0273c-.70312.57421-1.0352 1.6797-.14844 2.8984 1.7852 2.4453 1.957 3.2344 2.3789 3.668.49219.50781 2.2109.58985 4.1406.25781l-.0039 38.863h3.5859zm33.758-5.2812c-7.9961-1.0859-6.1758-12.406-12.961-17.641 11.09-3.4219 17.008 4.332 19.195 9.8516zm42.305-9.6953c7.5-14.207 4.1602-24.434 4.1602-37.285 0-4.8555 2.8281-6.9648 5.4922-6.7031 5.2227.42969 13.125 5.293 19.773 8.0859 2.0664.57031 3.8516 2.6133 3.8516 5.9492 0 1.2227-.59375 4.8906-4.668 4.2812.59766 8.082 3.1172 16.184-1.8711 25.672zm29.605-35.855-.48438-.25.008-36.301c.79687.25781 1.5898.49609 2.3828.72266l-.0508 35.523c-.62891.10157-1.2422.20313-1.8555.30469zm-65.262-2.043c-.30859-.35937-.52344-.6875-.66016-.98437.14062.33984.36328.67968.66016.98437zm-8.3047-8.2812c-3.2812-.0312-6.0312-1.7266-8.9258-2.7188-.66797.0742-1.3086.20703-2.3789-.61328-.20312-4.9141-.89062-9.2891-1.7812-13.445 0-1.2227.78906-1.6328 2.375-1.2227 2.9805-2.1484 6.7852-6.2617 10.312-8.4766.59375 2.4727-.29297 5.6992-2.5859 9.0859 1.543-.53125 3.7461.34765 5.9414 1.2226-1.3008 2.1641-2.8125 3.707-5.2734 4.5898 2.75.004 4.6758 1.1016 5.8672 2.7461-1.2812 1.7188-2.7812 3.2188-5.3477 3.668 2.2188.81641 3.9805 2.0781 4.1602 4.8906-.82031.19922-1.6055.28125-2.3633.27344zm-27.449-7c2.3516 0 4.2617-.68359 4.2617-1.5273s-1.9102-1.5274-4.2617-1.5274c-2.3555 0-4.2617.6836-4.2617 1.5274s1.9062 1.5273 4.2617 1.5273zm-.22266-3.3594c2.1484 0 3.8906-.6875 3.8906-1.5312s-1.7422-1.5274-3.8906-1.5274c-2.1523 0-3.8945.6836-3.8945 1.5274s1.7422 1.5312 3.8945 1.5312zm.32422-3.0586c2.2969 0 4.1602-.68359 4.1602-1.5273s-1.8633-1.5273-4.1602-1.5273-4.1602.68359-4.1602 1.5273 1.8633 1.5273 4.1602 1.5273zm72.535-13.289c.60157-.004 1.2969-.23437 1.7422-.46484 1.1914.61328 4.1602 1.2226 2.3789-2.4453 3.5664 1.8359 2.9688-1.2188 2.375-2.4414.59375-1.2227 1.2617-4.2031-2.375-2.4453 1.7812-3.668-1.1875-3.0586-2.3789-2.4453-1.1875-.61328-4.1562-1.2226-2.375 2.4453-3.5664-1.8359-2.9727 1.2226-2.3789 2.4453-.59375 1.2226-1.1875 4.2773 2.3789 2.4414-1.1133 2.293-.37109 2.9141.63281 2.9102zm0-15.281c.60157-.004 1.2969-.23437 1.7422-.46484.46875.24218 1.2109.48047 1.832.46093l-1.75-1.7734c.11328.11328.22656.22265.33985.33593-.57813-.57421-1.1524-1.1562-1.7227-1.7383.0195.0195.0352.0352.0508.0547l-3.9531-4.0078c.008.61719.23046 1.3242.44921 1.7812-.59375 1.2226-1.1875 4.2773 2.3789 2.4414-1.1133 2.293-.37109 2.9141.63281 2.9102z" fill="#ffcc42"/>
  <path d="m160.46 35.25-14.68 18.336c-21.473-4.5781-41.824-1.918-61.801 1.2227l-15.848-19.559zm-75.859 51.453 37.41 19.453 10.91-6.3906c.10547 2.4375.21484 4.8477.3164 7.1914l-12.414 7.1445-36.254-19.535.0039-.09766zm-22.613 6.4727-.03125 26.082c-4.0117-4.6797-8.5156-9.1875-13.621-13.535l-.01172-2.0195c4.1367-3.9922 8.1875-7.582 13.664-10.527zm89.656 3.1406 3.7617 1.1797.51953 1.6953-4.5156-1.418zm-.41015 4.293 6.4219.38671 1.2148.8711-1.293.59375-6.4844-.39063zm-66.656.0586 13.637 7.5156.03906 21.66c-4.1445-2.8516-8.6562-5.2539-13.691-6.9062zm69.855 4.4648c.0664.32422.29297 1.2656.43359 1.4414l-3.7773.24219v-1.4688zm.43359 1.4414.0742-.008c-.0195.0469-.043.043-.0742.008zm4.2695 1.4023c.71875.0117-1.293 1.4141-1.7344 1.7539l-6.1836.74609-.0586-1.4688 7.2695-.8789c.34766-.10938.57422-.15625.70703-.15235zm-3.9219 4.043c-1.4766.44531 1.4219 1.3828.73437 1.3711l-4.3867.67578-.17578-1.457zm-21.562 1.043c.69922 9.9141 1.8555 19.625 3.8789 29.035-5.375 2.2461-10.023 5.2383-14.305 8.6172v-32.129zm37.086.42578c1.9688.67969 3.9258.78516 5.9062.3086l.0195 42.066c-10.559-12.93-12.75-24.156-15.008-35.402 2.3867-2.0312 4.7266-4.3203 6.707-5.75 1.5859.41015 2.375 0 2.375-1.2227zm-62.383.25391 3.5625 1.8594c-.35156.21094-.76172.33203-1.1953.33203-1.2305 0-2.2422-.95703-2.3672-2.1914zm51.969.71484-.8164 1.6524-7.5508 1.4805-.10937-1.4726zm-1.7812 3.707-.42187 1.6172-5.5977 1.2266-.28125-1.2266zm-47.82 8.1641c1.3125 0 2.375 1.0938 2.375 2.4414 0 1.3516-1.0625 2.4453-2.375 2.4453s-2.3789-1.0938-2.3789-2.4453c0-1.3476 1.0664-2.4414 2.3789-2.4414z" fill="#f00"/>
  <path d="m64.543 279.75 14.68-18.336c21.473 4.5781 41.824 1.918 61.801-1.2226l15.848 19.559zm75.859-51.453-37.41-19.453-10.91 6.3906c-.10547-2.4375-.21484-4.8476-.31641-7.1914l12.414-7.1445 36.254 19.535-.004.0977zm22.613-6.4726.0312-26.082c4.0117 4.6797 8.5156 9.1875 13.621 13.535l.0117 2.0195c-4.1367 3.9922-8.1875 7.582-13.664 10.527zm-89.656-3.1406-3.7617-1.1797-.51953-1.6953 4.5156 1.418zm.41016-4.293-6.4219-.38671-1.2148-.8711 1.293-.59375 6.4844.39063zm66.656-.0586-13.637-7.5156-.0391-21.66c4.1445 2.8516 8.6562 5.2539 13.691 6.9062zm-69.855-4.4648c-.06641-.32422-.29297-1.2656-.43359-1.4414l3.7773-.24219v1.4688zm-.43359-1.4414-.07422.008c.01953-.0469.04297-.043.07422-.008zm-4.2695-1.4023c-.71875-.0117 1.293-1.4141 1.7344-1.7539l6.1836-.74609.05859 1.4688-7.2695.8789c-.34765.10939-.57422.15626-.70703.15236zm3.9219-4.043c1.4766-.44531-1.4219-1.3828-.73437-1.3711l4.3867-.67578.17578 1.457zm21.562-1.043c-.69922-9.9141-1.8555-19.625-3.8789-29.035 5.375-2.2461 10.023-5.2383 14.305-8.6172v32.129zm-37.086-.42578c-1.9688-.67969-3.9258-.78516-5.9062-.3086l-.01953-42.066c10.559 12.93 12.75 24.156 15.008 35.402-2.3867 2.0312-4.7266 4.3203-6.707 5.75-1.5859-.41015-2.375 0-2.375 1.2227zm62.383-.25391-3.5625-1.8594c.35156-.21094.76172-.33203 1.1953-.33203 1.2305 0 2.2422.95703 2.3672 2.1914zm-51.969-.71484.81641-1.6524 7.5508-1.4805.10938 1.4726zm1.7812-3.707.42187-1.6172 5.5977-1.2266.28125 1.2266zm47.82-8.1641c-1.3125 0-2.375-1.0938-2.375-2.4414 0-1.3516 1.0625-2.4453 2.375-2.4453s2.3789 1.0938 2.3789 2.4453c0 1.3476-1.0664 2.4414-2.3789 2.4414z" fill="#f00"/>
  <path d="m118.47 120.21h-15.492l.0273 1.832h15.414zm0 15.891h-12.344l1.8047 1.8359h10.441zm-36.289-42.895.01172 5.0508-.95703 1.4766.96484 1.4844.01172 5.0898-4.2617-6.5742zm-15.395-.55859 4.5938 7.0859-4.6367 7.1562.01563-5.0938 1.3359-2.0625-1.3242-2.043zm12.738-5.4805-4.8594 7.4961-3.4648-5.3438 2.8125-.72656.65234 1 .91016-1.4062zm-4.8594 17.633 4.6367 7.1562-4.6367 7.1562-2.3203-3.5781-2.3164-3.5781 2.3164-3.5781zm0 5.0703-.04687.0664-1.3047 2.0195 1.3047 2.0195.04687.0703 1.3516-2.0898zm7.5273 12.348c-.82031-.21485-1.6602-.41797-2.5547-.58594l2.5195-3.8633zm-13.227-1.7305-2.2227-3.4648-.01953 3.4922c.74219-.0117 1.4922-.0234 2.2422-.0273zm78.48 51.41c-2.1406-4.4062-3.9453-8.8555-5.5117-13.383l-8.0117 5.4844c4.1562 3.3945 8.5898 6.1758 13.523 7.8984zm-76.406-41.016c1.4336.0312 2.9141.0742 4.2461.2539l.74609.10157-.61328 4.4492-.70703-.0664c-.25-.0234-.50391-.0469-.75781-.0703l-.92969-1.5977c.375.0312.74609.0625 1.1172.0937l.20312-1.4688c-.75391-.0859-1.5234-.15234-2.3047-.19922l-3.0664-4.6641.74219.004c4.2031.0234 8.0156.54687 11.551 1.4609l.76562.19532-1.7812 5.793c2.6445.73829 5.0938 1.7461 7.4062 2.9844l.76953-1.2305c-1.1875-.64062-2.3984-1.2383-3.6523-1.7344l-.76562-.30079 2.0117-4.0938.63281.26954c3.5664 1.5078 6.8242 3.4688 9.8906 5.7617l.62109.46485-3.5977 4.7422c2.2891 1.7578 4.5117 3.7539 6.75 5.9492l1.0195-1.1133c-1.1016-1.0664-2.2031-2.1016-3.3008-3.0781l-.57031-.50391 2.9141-3.3906.55469.48047c2.8242 2.4492 5.5391 5.1562 8.2773 8.0039l.71875.64844-4.2852 4.3867c2.3359 2.4375 4.6836 5.0547 7.1562 7.7266l1.0859-1.0586c-.64454-.67969-1.2774-1.3633-1.8867-2.0312l-.50391-.5586 1.0859-1.043.5039.5586c.77735.85547 1.5547 1.7109 2.3789 2.5664l.53516.55469-3.2539 3.1719-.51172-.55078c-2.8633-3.0781-5.5234-6.0938-8.1562-8.8086l-.52344-.54297 4.2227-4.3242c-2.4141-2.5-4.8047-4.875-7.2539-7.0391l-.95703 1.1094c1.1133 1.0039 2.2266 2.0469 3.3359 3.1367l.53125.52734-3.0664 3.3398-.53906-.53906c-2.5898-2.5781-5.1289-4.8711-7.7461-6.8203l-.625-.46485 3.5781-4.7148c-2.6133-1.8984-5.3633-3.5312-8.3203-4.8438l-.65234 1.3281c1.3008.55468 2.5703 1.1719 3.793 1.8633l.69531.39453-2.3828 3.8047-.60547-.33985c-2.6094-1.4609-5.3789-2.6055-8.4336-3.3906l-.76562-.19532 1.7695-5.7422c-2.9922-.71875-6.1914-1.1445-9.6836-1.2148l-.0039.61719m120.49 109.51-14.262-14.668m-27.332-129.59c-.39063 8.8867-.0156 17.848 1.1875 26.895l7.4883-2.0508c-.21094 1.1524-.20703 2.2305.0273 3.1914 1.207-.76172 2.4453-1.7422 3.6406-2.7578 2.2227 11.277 4.4141 22.504 14.973 35.398l-.004 27.562c-16.48-15.488-30.242-49.629-28.613-87.281m-9.1914-29.074c0 1.3516.53516 2.4453 1.1914 2.4453s1.1875-1.0938 1.1875-2.4453c0-1.3516-.53125-2.4453-1.1875-2.4453s-1.1914 1.0938-1.1914 2.4453zm-16.742.25c0 1.3477.53515 2.4414 1.1914 2.4414s1.1875-1.0938 1.1875-2.4414c0-1.3516-.53125-2.4453-1.1875-2.4453s-1.1914 1.0938-1.1914 2.4453z" fill="#4242ff"/>
  <path d="m106.53 194.79h15.492l-.0273-1.832h-15.414zm0-15.891h12.344l-1.8047-1.8359h-10.441zm36.289 42.895-.0117-5.0508.95703-1.4766-.96485-1.4844-.0117-5.0898 4.2617 6.5742zm15.395.5586-4.5938-7.0859 4.6367-7.1562-.0156 5.0938-1.3359 2.0625 1.3242 2.043zm-12.738 5.4805 4.8594-7.4961 3.4648 5.3438-2.8125.72656-.65234-1-.91016 1.4062zm4.8594-17.633-4.6367-7.1562 4.6367-7.1562 2.3203 3.5781 2.3164 3.5781-2.3164 3.5781zm0-5.0703.0469-.0664 1.3047-2.0195-1.3047-2.0195-.0469-.0703-1.3516 2.0898zm-7.5273-12.348c.82031.21485 1.6602.41797 2.5547.58594l-2.5195 3.8633zm13.227 1.7305 2.2227 3.4648.0195-3.4922c-.74219.0117-1.4922.0234-2.2422.0273zm-78.48-51.41c2.1406 4.4062 3.9453 8.8555 5.5117 13.383l8.0117-5.4844c-4.1562-3.3945-8.5898-6.1758-13.523-7.8984zm76.406 41.016c-1.4336-.0312-2.9141-.0742-4.2461-.25391l-.7461-.10156.61328-4.4492.70704.0664c.25.0234.5039.0469.75781.0703l.92969 1.5977c-.375-.0312-.7461-.0625-1.1172-.0937l-.20313 1.4688c.75391.0859 1.5234.15234 2.3047.19922l3.0664 4.6641-.74219-.004c-4.2031-.0234-8.0156-.54687-11.551-1.4609l-.76563-.19532 1.7812-5.793c-2.6445-.73828-5.0938-1.7461-7.4062-2.9844l-.76953 1.2305c1.1875.64062 2.3984 1.2383 3.6524 1.7344l.76562.30078-2.0117 4.0938-.63281-.26953c-3.5664-1.5078-6.8242-3.4688-9.8906-5.7617l-.62109-.46484 3.5977-4.7422c-2.2891-1.7578-4.5117-3.7539-6.75-5.9492l-1.0195 1.1133c1.1016 1.0664 2.2031 2.1016 3.3008 3.0781l.57031.50391-2.9141 3.3906-.55469-.48047c-2.8242-2.4492-5.5391-5.1562-8.2773-8.0039l-.71875-.64844 4.2852-4.3867c-2.3359-2.4375-4.6836-5.0547-7.1562-7.7266l-1.0859 1.0586c.64453.67969 1.2773 1.3633 1.8867 2.0312l.50391.5586-1.0859 1.043-.5039-.55859c-.77735-.85547-1.5547-1.7109-2.3789-2.5664l-.53516-.55468 3.2539-3.1719.51172.55078c2.8633 3.0781 5.5234 6.0938 8.1562 8.8086l.52344.54297-4.2227 4.3242c2.4141 2.5 4.8047 4.875 7.2539 7.0391l.95703-1.1094c-1.1133-1.0039-2.2266-2.0469-3.3359-3.1367l-.53125-.52734 3.0664-3.3398.53906.53906c2.5898 2.5781 5.1289 4.8711 7.7461 6.8203l.625.46484-3.5781 4.7148c2.6133 1.8984 5.3633 3.5312 8.3203 4.8438l.65234-1.3281c-1.3008-.55468-2.5703-1.1719-3.793-1.8633l-.69531-.39453 2.3828-3.8047.60547.33985c2.6094 1.4609 5.3789 2.6055 8.4336 3.3906l.76562.19531-1.7695 5.7422c2.9922.71875 6.1914 1.1445 9.6836 1.2148l.004-.61719m-120.49-109.51 14.262 14.668m27.332 129.59c.39062-8.8867.015625-17.848-1.1875-26.895l-7.4883 2.0508c.21094-1.1524.20703-2.2305-.02734-3.1914-1.207.76172-2.4453 1.7422-3.6406 2.7578-2.2227-11.277-4.4141-22.504-14.973-35.398l.0039-27.562c16.48 15.488 30.242 49.629 28.613 87.281m9.1914 29.074c0-1.3516-.53516-2.4453-1.1914-2.4453s-1.1875 1.0938-1.1875 2.4453c0 1.3516.53125 2.4453 1.1875 2.4453s1.1914-1.0938 1.1914-2.4453zm16.742-.25c0-1.3476-.53516-2.4414-1.1914-2.4414s-1.1875 1.0938-1.1875 2.4414c0 1.3516.53125 2.4453 1.1875 2.4453s1.1914-1.0938 1.1914-2.4453z" fill="#4242ff"/>
  <path d="m120.23 120.21 13.41-7.2344c-.0859-1.168-.15625-2.2578-.20313-3.375l-12.613 7.5508-36.254-19.598.0078 3.0625zm17.285 21.809c.26172 1.4102.58203 2.8476.92969 4.25-5.2109 2.4297-9.6406 5.6367-13.891 8.9805-1.2344-1.3164-2.5-2.6641-3.75-3.9883l.0156-31.391 2.4062-1.2539v32.094c4.2812-3.3789 8.9297-6.3711 14.289-8.6914zm-36.93-10.469.0742-22.051-2.3867-1.2891-.05078 21.609c.77734.55469 1.5625 1.1211 2.3633 1.7305zm-38.613-38.367c.75-.42188 1.5508-.82422 2.3906-1.2109l.02344 28.672c-.34766.043-.71484.0742-1.1133.12109-.4375-.47265-.84766-.96094-1.2734-1.457zm88.562 28.859c-1.2031-9.0469-1.5781-18.008-1.1875-26.895l2.25.95703c-.0703.54688-.13281 1.1055-.1875 1.6641-.73047 7.9023-.0117 16.852 1.2617 23.703zm26.094 31.297h-1.9258l-1.0742-1.4688h2.9766zm.0273-3.668h-4.5859l-.73829-1.4648h5.4219zm-.0117-7.3359h-8.625l-.58593-1.4648h9.2812zm-.0156 3.668h-6.7305l-.73437-1.4648h7.4922zm.0156-7.3359h-10.188l-.53515-1.4648h10.723zm-.0703-3.6641h-9.9961c-.39844.004-.72266-.32422-.72266-.73437 0-.41016.32422-.73828.72266-.73438h10.066zm.10547-4.0352h-7.7227c-.48437.008-.48437-.74219 0-.73438h7.7227zm0-3.668h-5.3477c-.48046.008-.48046-.74219 0-.73438h5.418zm-17.305-4.8984.15235.75781c2.1094 10.352 4.7773 21.355 14.379 33.539l.16016.19922v19.984l-1.2695-1.6289c-9.082-11.648-16.871-29.562-20.34-50.262l-.11328-.66015zm-1.082 1.8164-4.3125 1.1797c3.3203 19.215 10.41 35.953 18.66 47.242v-15.23c-9.4219-12.035-12.258-23.066-14.348-33.191zm-58.188-21.387 2.9766-6.5625 7.1133 3.707-3.0625 6.7461m-2.0586-6.6836c-.82031 0-1.4844.68359-1.4844 1.5273s.66406 1.5274 1.4844 1.5274c.82032 0 1.4883-.6836 1.4883-1.5274s-.66796-1.5273-1.4883-1.5273zm-6.8398-6.3125-2.9883 6.5898-7.0586-3.8281 2.9023-6.3984zm-5.043-.10547c-.82031 0-1.4844.68359-1.4844 1.5273s.66406 1.5273 1.4844 1.5273 1.4844-.68359 1.4844-1.5273-.66406-1.5273-1.4844-1.5273zm27.547 11.891-3.0938 6.8203-7.0977-3.7422 3.0898-6.8125zm-4.9648-.27735c-.82031 0-1.4883.6836-1.4883 1.5274s.66797 1.5273 1.4883 1.5273 1.4844-.68359 1.4844-1.5273-.66407-1.5274-1.4844-1.5274zm13.258-3.1797 3.082 5.5312-6.9414 4.0234-3.0781-5.5195zm-3.1836 3.8281c-.47266.69141-.3125 1.6445.35938 2.1289.67187.48437 1.5976.32031 2.0703-.3711.47265-.6875.3125-1.6406-.35938-2.1289-.67187-.48438-1.5976-.32032-2.0703.37109zm-43.863-53.605 1.582-.25c12.516-1.9688 25.309-3.7773 38.516-3.7109 7.9258.03906 16 .75391 24.254 2.5156l1.4414.29297-1.9961 2.457c-21.473-4.5781-41.824-1.918-61.801 1.2227l-2.0117-2.4844-15.816-19.52"/>
  <path d="m104.77 194.79-13.41 7.2344c.08594 1.168.15625 2.2578.20312 3.375l12.613-7.5508 36.254 19.598-.008-3.0625zm-17.285-21.809c-.26172-1.4102-.58203-2.8476-.92969-4.25 5.2109-2.4297 9.6406-5.6367 13.891-8.9805 1.2344 1.3164 2.5 2.6641 3.75 3.9883l-.0156 31.391-2.4062 1.2539v-32.094c-4.2812 3.3789-8.9297 6.3711-14.289 8.6914zm36.93 10.469-.0742 22.051 2.3867 1.2891.0508-21.609c-.77734-.55469-1.5625-1.1211-2.3633-1.7305zm38.613 38.367c-.75.42187-1.5508.82422-2.3906 1.2109l-.0234-28.672c.34765-.043.71484-.0742 1.1133-.12109.4375.47265.84765.96094 1.2734 1.457zm-88.562-28.859c1.2031 9.0469 1.5781 18.008 1.1875 26.895l-2.25-.95704c.07031-.54687.13281-1.1055.1875-1.6641.73047-7.9023.01172-16.852-1.2617-23.703zm-26.094-31.297h1.9258l1.0742 1.4688h-2.9766zm-.02734 3.668h4.5859l.73828 1.4648h-5.4219zm.01172 7.3359h8.625l.58594 1.4648h-9.2812zm.01563-3.668h6.7305l.73438 1.4648h-7.4922zm-.01563 7.3359h10.188l.53516 1.4648h-10.723zm.07031 3.6641h9.9961c.39844-.004.72266.32422.72266.73437 0 .41016-.32422.73828-.72266.73438h-10.066zm-.10547 4.0352h7.7227c.48438-.008.48438.74219 0 .73438h-7.7227zm0 3.668h5.3477c.48047-.008.48047.74219 0 .73438h-5.418zm17.305 4.8984-.15234-.75781c-2.1094-10.352-4.7773-21.355-14.379-33.539l-.16016-.19921v-19.984l1.2695 1.6289c9.082 11.648 16.871 29.562 20.34 50.262l.11328.66015zm1.082-1.8164 4.3125-1.1797c-3.3203-19.215-10.41-35.953-18.66-47.242v15.23c9.4219 12.035 12.258 23.066 14.348 33.191zm58.188 21.387-2.9766 6.5625-7.1133-3.707 3.0625-6.7461m2.0586 6.6836c.82031 0 1.4844-.68359 1.4844-1.5273s-.66406-1.5274-1.4844-1.5274-1.4883.6836-1.4883 1.5274.66797 1.5273 1.4883 1.5273zm6.8398 6.3125 2.9883-6.5898 7.0586 3.8281-2.9024 6.3984zm5.043.10547c.82031 0 1.4844-.68359 1.4844-1.5273s-.66406-1.5274-1.4844-1.5274-1.4844.6836-1.4844 1.5274.66407 1.5273 1.4844 1.5273zm-27.547-11.891 3.0938-6.8203 7.0976 3.7422-3.0898 6.8125zm4.9648.27735c.82031 0 1.4883-.6836 1.4883-1.5274s-.66797-1.5273-1.4883-1.5273-1.4844.68359-1.4844 1.5273.66407 1.5274 1.4844 1.5274zm-13.258 3.1797-3.082-5.5312 6.9414-4.0234 3.0781 5.5195zm3.1836-3.8281c.47266-.69141.3125-1.6445-.35938-2.1289-.67188-.48437-1.5977-.32031-2.0703.3711-.47266.6875-.3125 1.6406.35938 2.1289.67187.48438 1.5977.32032 2.0703-.37109zm43.863 53.605-1.582.25c-12.516 1.9688-25.309 3.7773-38.516 3.7109-7.9258-.0391-16-.75391-24.254-2.5156l-1.4414-.29297 1.9961-2.457c21.473 4.5781 41.824 1.918 61.801-1.2226l2.0117 2.4844 15.816 19.52"/>
 </g>
 <g fill="none" stroke="#4242ff" stroke-linecap="round" stroke-linejoin="round">
  <path d="m80.227 50.082 2.9766-.46875c12.543-1.9727 25.469-3.8125 38.894-3.7422 8.0547.04297 16.285.76953 24.719 2.5703l2.6367.5625m-10.211 36.98c-.59765 3.0547-.59765 9.168 3.5625 10.391 4.1602 1.2227 8.3203-1.832 8.3203-1.832m25.551-.80078v-38.934m13.074 183.38-13.074-13.445v-120.36m.008 104.93c-37.332-31.918-42.578-71.469-43.891-113.49m14.68 76.117c-28.887-10.234-39.922-55.242-84.172-51.184m86.305 55.41c-16.59-4.2852-27.219-18.637-38.879-30.773-11.73-12.215-24.051-22.52-44.824-21.395m70.129-31.383c1.1367 42.121 5.3047 80.684 40.644 112.22m-114.68-111.65v26.113m2.375-27.316v28.648m2.3789-29.703v29.578m15.449-33.82v35.523m2.375-35.898v36.625m-.39844-36.559c-19.648 3.0313-27.574 9.2617-35.855 17.398m92.574 51.918c-3.3476 1.7305-6.293 3.9844-9.2187 6.2617m7.5586-12.387c-4.6367 2.5-8.4219 5.3438-11.996 8.2734m11.215-11.594c-5.2188 2.4531-9.6484 5.6602-13.937 9m13.043-13.195c-5.4023 2.2891-10.051 5.2812-14.305 8.6562m9.957-43.812-12.387 7.2031-36.254-19.535m48.887 15.012-12.633 7.5781-36.258-19.535m49.086 15.441-13.422 7.1524-35.652-19.52m38.621 17.949v32.078m-2.375-30.871v31.457m-2.3789-32.078v29.398m-15.449-37.852v22.699m-2.375-23.992v22.094m-2.3789-23.359v21.602m34.668-30.07-10.898 6.4062-37.934-19.773m24.266 42.387c0-1.3477 1.0664-2.4414 2.3789-2.4414s2.375 1.0938 2.375 2.4414c0 1.3516-1.0625 2.4453-2.375 2.4453s-2.3789-1.0938-2.3789-2.4453m4.7539-2.4414c1.7812-3.668-1.1875-3.0586-2.375-2.4453-1.1914-.61328-4.1602-1.2227-2.3789 2.4453-3.5664-1.8359-2.9688 1.2188-2.375 2.4414-.59375 1.2226-1.2617 4.2031 2.375 2.4453-1.7812 3.668 1.1875 3.0586 2.3789 2.4453 1.1875.61328 4.1562 1.2227 2.375-2.4453 3.5664 1.8359 2.9726-1.2227 2.3789-2.4453.59375-1.2227 1.1875-4.2774-2.3789-2.4414m2.8281 19.504c-.008-.61719-.23047-1.3242-.44922-1.7812.59375-1.2227 1.1875-4.2774-2.3789-2.4414 1.7812-3.668-1.1875-3.0586-2.375-2.4453-.46875-.24219-1.2109-.48047-1.832-.46094m3.0273-23.102c-.35156.21093-.76171.33203-1.1953.33203-1.2305 0-2.2422-.95703-2.3672-2.1914m-2.8008-1.5938c.0742.49219.24219.99219.41406 1.3398-.59375 1.2227-1.2617 4.2031 2.375 2.4453-1.7812 3.668 1.1875 3.0586 2.3789 2.4453 1.125.58203 3.8555 1.1602 2.6133-1.9102m28.582 42.051-7.9804 5.4727m-51.781-75.801-15.422 23.793m-.02735-.0898 5.6602 8.7383m9.7344-7.9102-5.4297 8.3789m-8.1406-30.84c4.543 7.0078 9.1719 14.148 13.551 20.91m.05078 6.5703-2.5352 3.9102m-10.609-1.168-2.2383-3.4531m70.84 40.551-1.5-2.8984c-1.4375-2.4727-4.7031-.42188-3.3906 2.0938l1.7187 2.9922m-1.7187-2.9922c-1.4375-2.4727-4.4414-.28906-3.1328 2.2226l1.4414 2.5078m9.8867-5.8125-1.6719-3.2383c-1.4414-2.4727-4.4414-.28907-3.1328 2.2266m45.344-59.891v-35.094h8.3203m-8.3203 44.754v-1.4531m0 7.8516v-4.8906m8.3203 124.89-8.3203-8.5586v-109.86m8.3203-57.625h-16.637l16.637-19.254m0 15.586h-9.5078l9.5078-9.7773m-37.437 103.3c0 .50781.39843.91797.89062.91797s.89453-.41016.89453-.91797-.40234-.91797-.89453-.91797-.89062.41016-.89062.91797c-3.5625-4.8906-9.5078.60937-10.695-1.2227m10.695 1.832c-1.1797 5.9922-8.6055 3.3203-8.914 5.5039m8.5625-5.9648c-3.9102-2.1914-9.75 3.5195-10.344-1.3711m1.7812 7.3359c-.59375-3.668 7.8828-2.4922 8.6094-5.6523-2.9336 2.9961-8.0117 3.8164-9.2031 2.5938-.47656-2.5625 7.5351-4.0586 9.5078-2.4453m-2.0742-9.1523c-.0273.50781.34766.9375.83594.96875.48828.0273.90625-.35938.9375-.86328.0273-.50391-.34766-.9375-.83594-.96875-.48828-.0274-.90625.35937-.9375.86328-3.2695-5.0898-9.4726.0508-10.555-1.8477m10.523 2.457c-1.5039 5.9141-8.7305 2.8086-9.1562 4.9688m8.832-5.4531c-3.7617-2.4141-9.8789 2.9414-10.199-1.9727m1.3672 7.4258c-.38671-3.6953 7.9648-2.0195 8.8594-5.1367-3.082 2.8203-8.168 3.3438-9.2812 2.0508-.33203-2.5898 7.707-3.6094 9.5781-1.8828m-1.707-10c-.0391.50391.3086.94532.77344.98828.46875.0391.875-.33593.91406-.83984.0352-.50781-.3125-.94922-.77734-.98828-.46485-.043-.875.33594-.91016.83984-3.0156-5.168-9.0508-.17578-10.039-2.1016m9.9922 2.7109c-1.5586 5.875-8.3945 2.5977-8.8476 4.7461m8.5469-5.2383c-3.5391-2.5039-9.4922 2.7031-9.6914-2.2188m1.1445 7.457c-.28906-3.7031 7.6484-1.8281 8.5664-4.9219-3 2.7461-7.8672 3.1445-8.9023 1.8281-.26563-2.5976 7.4336-3.4258 9.1836-1.6523m-1.3242-8.9883c-.0742.5.22656.97265.67187 1.0547.44141.0859.86329-.2539.9375-.7539.0742-.4961-.22656-.96875-.66796-1.0547-.44532-.082-.86719.25391-.94141.75391-2.4922-5.4297-8.6562-1.0156-9.457-3.0274m9.3672 3.6289c-1.9414 5.707-8.2422 1.8086-8.8398 3.9062m8.5937-4.4219c-3.2031-2.8242-9.3047 1.8086-9.1211-3.1133m.52735 7.5352c.004-3.7148 7.4687-1.1094 8.5859-4.1094-3.082 2.4609-7.7812 2.4024-8.6719.9961-.0547-2.6094 7.3867-2.7227 8.9258-.79297m-.86719-10.059c-.0742.50001.22266.97266.66016 1.0547.4375.0859.85156-.25.92578-.75.0742-.5-.22266-.97265-.66016-1.0586-.4375-.082-.85156.2539-.92578.7539-2.4609-5.4297-8.543-1.0156-9.332-3.0273m9.2461 3.6289c-1.918 5.7109-8.1367 1.8125-8.7266 3.9102m8.4805-4.4258c-3.1602-2.8242-9.1797 1.8125-9-3.1133m.51953 7.5391c.004-3.7188 7.3711-1.1133 8.4726-4.1094-3.043 2.457-7.6758 2.4023-8.5547.99219-.0547-2.6094 7.289-2.7227 8.8086-.79297m.0703-8.6367c-.0859.5.20703.98047.65234 1.0742.44531.0977.8789-.22656.96484-.72266.0859-.5-.20703-.98047-.65234-1.0742-.44531-.0977-.87891.22657-.96484.72266-2.3945-5.4961-8.7187-1.2578-9.4844-3.2891m9.3828 3.8906c-2.0937 5.6523-8.3672 1.5781-9.0195 3.6602m8.7773-4.1836c-3.168-2.9141-9.4375 1.5508-9.1406-3.3672m.36328 7.5508c.0859-3.7188 7.5703-.90625 8.7656-3.8711-3.1719 2.3711-7.914 2.1836-8.7812.75391.004-2.6133 7.5195-2.5156 9.0351-.54297m8.914 51.641c.0586.53906.51954.92187 1.0234.85547.50391-.0664.85937-.5586.79687-1.0977-.0586-.53516-.51953-.91797-1.0234-.85156-.50391.0625-.85938.55469-.79688 1.0938-4.2461-4.7188-9.6523 1.9258-11.094.13672m11.168.51172c-.47656 6.5273-8.3984 4.6875-8.4492 7.0469m8.0312-7.4922c-4.2656-1.8008-9.543 5.0508-10.75-.0664m2.7187 7.5586c-1.0547-3.8203 7.7617-3.707 8.1172-7.168-2.6367 3.582-7.7305 5.1367-9.0976 3.9961-.80078-2.6602 7.2148-5.3281 9.4297-3.875m3.4961 7.9141c.0664.53515.52344.91407 1.0234.84375.5-.0703.85156-.5625.78515-1.1016-.0664-.53516-.52343-.91406-1.0234-.83985-.5.0703-.85156.5625-.78516 1.0977-4.25-4.668-9.5625 2.0156-11.008.24609m11.09.40235c-.41797 6.5156-8.2969 4.7539-8.3242 7.1094m7.9062-7.5508c-4.25-1.7539-9.4297 5.1328-10.672.0391m2.7656 7.5117c-1.082-3.8008 7.6719-3.7734 7.9922-7.2266-2.5859 3.5976-7.6289 5.1992-8.9922 4.0742-.82031-2.6484 7.1133-5.3867 9.3242-3.957m4.332 7.6875c.14062.52733.66015.83593 1.1602.68359.4961-.15234.78516-.70313.64453-1.2344-.14453-.52734-.66406-.83203-1.1641-.68358-.49609.15233-.78515.70312-.64062 1.2344-4.9922-4.0117-9.4531 3.5664-11.176 2.0156m11.348-1.3789c.4961 6.625-7.7773 6.1211-7.4726 8.4961m6.9844-8.8711c-4.5742-1.082-8.8789 6.6797-10.859 1.7539m3.875 7.1172c-1.6367-3.6484 7.2773-5.0312 7.1172-8.5586-2.125 4.039-7.0352 6.457-8.582 5.5469-1.207-2.5312 6.4844-6.5625 8.9375-5.4844m5.5312 7.7891c.19921.50782.75781.75392 1.25.54689.49218-.20313.73046-.78516.53124-1.293-.19921-.50781-.75781-.7539-1.25-.54687-.49219.20703-.73047.78516-.53125 1.293-5.4844-3.4219-9.2617 4.582-11.168 3.2383m11.406-2.625c1.1758 6.5078-7.293 6.9258-6.7461 9.2461m6.2109-9.5664c-4.7617-.5625-8.3555 7.6055-10.871 2.9453m4.6602 6.6211c-2.0312-3.4336 6.9023-5.793 6.3828-9.2695-1.7539 4.2344-6.5078 7.1797-8.1758 6.4492-1.4844-2.375 5.9336-7.2226 8.539-6.4258m5.8789 6.4258c.24218.53125.83593.75782 1.3359.5039.4961-.25781.70703-.89062.46875-1.4219s-.83594-.75391-1.332-.49999c-.5.2539-.71094.89061-.47265 1.418-5.9102-3.2812-9.3281 5.5508-11.398 4.2461m11.687-3.6055c1.6328 6.8867-7.1406 7.9258-6.4258 10.371m5.8516-10.672c-4.9883-.27735-8.207 8.7226-11.113 3.9062m5.2617 6.7656c-2.3281-3.5391 6.8047-6.6797 6.043-10.371-1.5547 4.6602-6.3047 8.1406-8.0859 7.4726-1.6914-2.4375 5.7109-8.1445 8.4687-7.4726m1.5742-2.625c-16.465-15.578-30.226-49.731-28.594-87.387m26.434 105.83c-.97265-1.1719.27734-3.457 2.1992-5.3047m0 4.8906c-.91797.61328-1.6172.57422-2.1992.41406m2.1992 2.6406c-.62891-.79687-.51563-1.5703-.11719-2.4297m.11719-5.5156c-2.1016 2.2695-3.7773 4.5195-5.7578 1.793m5.6758-4.7539c-2.6367 1.8594-4.2461 5.4219-5.6484 4.6992m5.6953-42.469c-10.539-12.957-12.73-24.184-14.992-35.426m26.32-60.766c0 2.9688-2.3789 5.5898-2.3789 8.5586 0 2.9648 2.3789 5.5898 2.3789 8.5586m-.26953 36.051c-.62109 2.2578-2.1094 4.3906-2.1094 6.7344 0 2.9688 2.3789 5.5898 2.3789 8.5586m-.14453-18.422c.0547.25781.0937.51171.11719.76953m.0273-33.691c0 2.9648-2.3789 5.5898-2.3789 8.5547 0 2.9688 2.3789 5.5938 2.3789 8.5586 0 2.2812-1.4062 4.3633-2.0586 6.5508m2.0586 27.68c0 2.9648-2.3789 5.5898-2.3789 8.5586 0 2.9648 2.3789 5.5898 2.3789 8.5547 0 2.9688-2.3789 5.5938-2.3789 8.5586 0 2.9688 2.3789 5.5898 2.3789 8.5586 0 2.9648-2.3789 5.5898-2.3789 8.5586 0 2.9648 2.3789 5.5898 2.3789 8.5547 0 2.9687-2.3789 5.5937-2.3789 8.5586 0 2.9648 2.3789 5.5898 2.3789 8.5586 0 2.9648-2.3789 5.5898-2.3789 8.5547 0 2.9688 2.3789 5.5938 2.3789 8.5586 0 2.9688-2.3789 5.5898-2.3789 8.5586 0 2.1992 1.3086 4.2109 1.9844 6.3125m-1.3906-168.91c0 2.9688-2.375 5.5898-2.375 8.5586 0 2.9648 2.375 5.5898 2.375 8.5586m-.3711 36.41c-.67187 2.125-2.0039 4.1523-2.0039 6.375 0 2.9688 2.375 5.5898 2.375 8.5586m0-51.344c0 2.9648-2.375 5.5898-2.375 8.5547 0 2.9688 2.375 5.5938 2.375 8.5586 0 2.2266-1.3359 4.2578-2.0039 6.3906m2.0039 27.84c0 2.9648-2.375 5.5898-2.375 8.5586 0 2.9648 2.375 5.5898 2.375 8.5547 0 2.9688-2.375 5.5938-2.375 8.5586 0 2.9688 2.375 5.5898 2.375 8.5586 0 2.9648-2.375 5.5898-2.375 8.5586 0 2.9648 2.375 5.5898 2.375 8.5547 0 2.9687-2.375 5.5937-2.375 8.5586 0 2.9648 2.375 5.5898 2.375 8.5586 0 2.9648-2.375 5.5898-2.375 8.5547 0 2.9688 2.375 5.5938 2.375 8.5586 0 2.9688-2.375 5.5898-2.375 8.5586 0 1.0703.30859 2.0937.70312 3.1055m-.10937-165.7c0 2.9688-2.3789 5.5898-2.3789 8.5586 0 2.9648 2.3789 5.5898 2.3789 8.5586m-.33203 36.266c-.65234 2.1758-2.0469 4.25-2.0469 6.5195 0 2.9688 2.3789 5.5898 2.3789 8.5586m0-51.344c0 2.9648-2.3789 5.5898-2.3789 8.5547 0 2.9688 2.3789 5.5938 2.3789 8.5586 0 1.3477-.49219 2.625-1.0273 3.8984m1.0273 30.332c0 2.9648-2.3789 5.5898-2.3789 8.5586 0 2.9648 2.3789 5.5898 2.3789 8.5547 0 2.9688-2.3789 5.5938-2.3789 8.5586 0 2.9688 2.3789 5.5898 2.3789 8.5586 0 2.9648-2.3789 5.5898-2.3789 8.5586 0 2.9648 2.3789 5.5898 2.3789 8.5547 0 2.9687-2.3789 5.5937-2.3789 8.5586 0 2.9648 2.3789 5.5898 2.3789 8.5586 0 2.9648-2.3789 5.5898-2.3789 8.5547 0 2.9688 2.3789 5.5938 2.3789 8.5586 0 2.9688-2.3789 5.5898-2.3789 8.5586 0 .18359.0117.36718.0273.54688m7.6992-173.53h-7.6094m7.6094-1.832h-5.8047m5.8047-1.8359h-4.1953m4.1953-1.832h-2.4375m-14.199 62.348c3.5586-.004 4.7539-2.4375 3.5625-7.3359 1.4766.80078 1.4844-.75391 1.7852-1.8359 0 0 1.0312 1.375 2.2188 3.207 1.1914 1.8359 4.3164-.14844 2.5352-2.5938-1.7852-2.4453-1.957-3.2344-2.3789-3.668-.59375-.60938-2.9688-.60938-5.3476 0-2.375.61328-6.5352 6.1133-6.5352 6.1133.20313 4.9141.89063 9.2891 1.7812 13.445 1.9688.67969 3.9258.78516 5.8672.35547m4.668-12.957c-.73437.27344-1.1836.64063-1.1836 1.0469 0 .84765 1.9336 1.5312 4.3164 1.5312s4.3125-.6836 4.3125-1.5312c0-.84375-1.9297-1.5274-4.3125-1.5274-.42188 0-.82422.0234-1.2109.0625m-2.3555 4.7695c0 .84374 1.9102 1.5273 4.2617 1.5273 2.3555 0 4.2617-.6836 4.2617-1.5273 0-.84375-1.9062-1.5274-4.2617-1.5274-2.3516 0-4.2617.6836-4.2617 1.5274m.59375 3.3633c0 .84375 1.7422 1.5273 3.8906 1.5273 2.1523 0 3.8945-.68359 3.8945-1.5273s-1.7422-1.5312-3.8945-1.5312c-2.1484 0-3.8906.6875-3.8906 1.5312m-.59375 3.0547c0 .84375 1.8633 1.5274 4.1602 1.5274s4.1602-.6836 4.1602-1.5274-1.8633-1.5273-4.1602-1.5273-4.1602.68359-4.1602 1.5273m-11.883-11.613c-1.0703-.82031-1.7109-.6875-2.3789-.61328-.78516 6.5937.61718 10.812 1.7852 15.281 1.5859.41016 2.375 0 2.375-1.2227m-4.1602-14.059c-3.5664-1.2227-6.9023-3.5078-11.289-2.4453.0547.86719.26172 1.5859.58203 2.1914.72656 1.3594 2.043 2.1367 3.5781 2.6992-2.5664.44922-4.0664 1.9492-5.3476 3.668 1.1914 1.6445 3.1172 2.7422 5.8672 2.7461-2.4609.88281-3.9726 2.4258-5.2734 4.5898 2.1953.875 4.3984 1.7539 5.9414 1.2227-2.293 3.3867-3.1797 6.6133-2.5859 9.0859 3.5273-2.2148 7.332-6.3281 10.312-8.4766m-10.531-17.984c2.375 2.8945 5.0586 5.2344 8.5117 6.1758l-.0351.24609c-3.2266.22266-6.3008.83984-8.6445 2.3125 2.918 1.3086 5.8594 1.9219 8.914 1.5156l.0195.33593c-2.7695 1.1367-5.957 1.5859-7.7422 4.3438 3.3203.47266 5.8281-.26953 8.4297-.94531l.15234.60156c-2.8437 2.8242-5.125 6.1992-6.8633 10.102m-19.508-25.934c-1.8867-.29688-3.707-.57422-4.9805-.75391m13.199 2.0313c-.33203-.03516-1.1914-.16797-2.3398-.34766m8.4844 1.3516-5.6719-2.4336-.4336.33984c-.35156 8.7187.0312 17.508 1.2109 26.379l7.4844-2.0508m-6.4219-23.898c-.0703.55859-.13281 1.1172-.1875 1.6758-.73047 7.9023-.0117 16.852 1.2695 23.715m-39.437-70.078c-6.914 13.754-3.7109 23.824-3.7109 36.406 0 9.168-10.102 8.5586-10.102.61328 0-6.1133 7.1328-5.5391 7.1328-.61328 0 3.668-5.3476 3.668-5.3476 1.2227 0-1.2227.59375-1.832 1.1875-2.4453m7.8047-35.051c-6.7812 13.73-2.8203 24.559-3.6445 36.273m.57031-36.055c-5.7344 12.051-1.9062 22.402-2.4531 32.566m-.65625-32.258c-5.3672 11.801-.49218 21.965-1.7852 31.953m-1.3516-31.566c-4.9062 11.395.48047 20.852-1.1523 30.879m-1.9609-30.539c-4.4414 10.723.14062 19.738-.82812 29.16m-2.3164-28.73c-3.9375 10-.12891 18.531-.55078 27.32m-2.6211-26.793c-3.3984 9.2266-.32422 17.211-.31641 25.34m-2.8008-24.93c-2.9648 8.4883-.52344 15.938-.20312 23.438m-2.9336-22.957c-2.5391 7.7656-.63281 14.668-.12109 21.559m17.059 17.684c-2.7187.38672-5.6797-1.7656-5.6797-6.0703 0-4.3711 3.6484-5.3242 5.7266-3.7031m-2.9219 9.2031c-2.5703.07422-5.1836-2.0664-5.1836-6.1094 0-4.3008 3.5312-5.293 5.6211-3.7852m-3.7773 8.5977c-2.2187-.41797-4.2187-2.5-4.2187-6.0352 0-4.75 4.3047-5.4648 6.2266-3.2305m-4.375 8.043c-2.2227-.41016-4.2305-2.4961-4.2305-6.0352 0-4.7969 4.3906-5.4766 6.2812-3.168m-4.4766 7.9727c-2.207-.43359-4.1797-2.5156-4.1797-6.0273 0-4.7695 4.3359-5.4688 6.2461-3.207m-4.0312 8.582c-2.1289-.50781-4-2.5664-4-5.9883 0-4.2187 3.4023-5.2539 5.5078-3.8633m-4.0469 8.5898c-2.0625-.57422-3.8359-2.6172-3.8359-5.9492 0-4.7773 4.3555-5.4688 6.2578-3.1914m-4.7852 7.9219c-2.0664-.57031-3.8516-2.6133-3.8516-5.9492 0-4.7578 4.3203-5.4648 6.2344-3.2227m56.34-24.195c.33203 2.4453 1.0117 7.5469 1.0117 8.4688 0 1.2227-.59765 3.668-.59765 4.8867v8.5586c0 3.668-7.9726 18.594-8.9102 19.562-1.7852 1.832-7.5117 4.2617-10.105 3.6641-1.8711-.42969-11.434-3.6875-15.172-7.7148m35.07-37.242c2.2969 7.3867 1.957 15.27 2.6836 22.953.20703 2.1836 3.0391 3.2148 3.5664 0m-7.1328-.60938c1.1914 6.1094 9.5078 7.332 9.5078 1.832 0-5.2891-5.9414-4.8906-5.9414-1.832m-2.5703 2.5938c1.7812 3.0586-1.4297 10.176-.39844 12.688 1.1758 2.875 6.5352 3.668 7.1289 0 .30859-1.9062-1.7812-2.4453-1.7812-2.4453m-5.1055-2.4453c.33984 5.9023 3.3438 5.543 4.5117 5.5 1.7812-.0625 1.7812-1.832.59375-3.0547m-7.8008-7.5156c-.48047 3.1563-.0508 8.6602.0742 9.9609.59375 6.1094 10.695 6.1094 11.289.60938.59375-5.5-6.9844-7.4805-6.5352-3.0547.42187 4.1563 5.8789 3.3711 2.9726 0m-16.641-.61328c-.59375 1.2227-2.375 2.4453-4.7539 1.2227m6.539-3.0547-1.7852-.61328c-.59375 0-.59375.61328-1.7812.61328s-1.1875-.61328-2.3789-.61328c-1.1875 0-.59375.61328-1.7812.61328s-1.7812-.61328-1.7812-.61328m18.418-23.227c-1.3438-1.7266-6.6992-5.3086-9.5078-1.2227.16797-.18359-.14844.80078 0 .61328 2.9726-3.6836 7.8906-.95313 9.5078.60938m-28.523 1.2227c.64843-.82812 2.6992-3.7344 5.3516-4.2773 2.9688-.61328 4.7539 0 7.0195 1.8828-.16796-.18359.16797.78516 0 .60938-4.082-4.2109-11.309-1.0234-12.371 1.7852m19.016-1.832c-2.2188 6.3125 0 9.1055 0 12.223 0 1.8359.72656 4.2852.59765 5.5039-.1914 1.7656-1.7852 1.832-2.3789 3.0547m-5.3476-1.2227c1.1875-1.2227 6.5352-.60937 2.375 0-4.1562.60938-4.1562-.96875-4.1562-1.832 0-.61328.59375-1.8359 1.7812-1.8359m.59375-9.7812s-1.7812-2.4414-4.1602-2.4414c-2.375 0-5.3476 3.0547-9.5078 3.0547 3.5664 0 5.9453 1.1406 8.3203 1.2227 2.4375.08594 4.1602-1.8359 5.3476-1.8359m16.043-1.2227c-1.7812-1.2188-2.9688-1.832-4.7539-1.2188-1.7812.60938-5.3476 2.4414-5.3476 2.4414 2.3789.61328 4.7539 1.8359 6.539 1.8359 1.6797 0 3.5625-2.4453 3.5625-2.4453m17.059-31.785-14.68 18.336c-21.473-4.5781-41.824-1.918-61.801 1.2227l-15.848-19.559m13.852 17.031 1.582-.25c12.516-1.9688 25.309-3.7773 38.516-3.7109 7.9258.03906 16 .75391 24.254 2.5156l1.4531.30859m8.207-10.309c7.9961 1.0859 6.1758 12.406 12.961 17.641-11.09 3.4219-17.008-4.332-19.195-9.8516m19.195 9.8516c-7.1289 1.1289-11.223-9.7188-16.016-13.797m-.0312 6.4609c-.42969-1.8945.0703-3.8086.79687-5.7266m5.7422.22656c-2.1836-.96484-3.9805-.60156-5.7656-.17969m7.5469 4.4609c-1.625-1.1367-3.2539-1.3867-4.8867-1.3438m-1.0547 5.6211c-.39062-.54687.40234-4.4023.91797-5.6953m6.8047 5.6953c-1.4141-.92188-2.7266-1.4297-3.9844-1.6992m-.17188 4.1445c-.082-1.0664-.0742-2.8672.19141-4.2344m5.75 3.6211c-.86328-.15625-1.6211-.07422-2.3281.1289m-.0508 1.707c-.53125-.76562-.46485-1.4063-.21094-2.0078" stroke-width=".72322"/>
  <path d="m144.77 264.92-2.9766.46875c-12.543 1.9727-25.469 3.8125-38.894 3.7422-8.0547-.043-16.285-.76953-24.719-2.5703l-2.6367-.5625m10.211-36.98c.59766-3.0547.59766-9.168-3.5625-10.391-4.1602-1.2226-8.3203 1.832-8.3203 1.832m-25.551.80079v38.934m-13.074-183.38 13.074 13.445v120.36m-.0078-104.93c37.332 31.918 42.578 71.469 43.891 113.49m-14.68-76.117c28.887 10.234 39.922 55.242 84.172 51.184m-86.305-55.41c16.59 4.2852 27.219 18.637 38.879 30.773 11.73 12.215 24.051 22.52 44.824 21.395m-70.129 31.383c-1.1367-42.121-5.3047-80.684-40.644-112.22m114.68 111.65v-26.113m-2.375 27.316v-28.648m-2.3789 29.703v-29.578m-15.449 33.82v-35.523m-2.375 35.898v-36.625m.39844 36.559c19.648-3.0312 27.574-9.2617 35.855-17.398m-92.574-51.918c3.3477-1.7305 6.293-3.9844 9.2187-6.2617m-7.5586 12.387c4.6367-2.5 8.4219-5.3438 11.996-8.2734m-11.215 11.594c5.2187-2.4531 9.6484-5.6602 13.937-9m-13.043 13.195c5.4023-2.2891 10.051-5.2812 14.305-8.6562m-9.957 43.812 12.387-7.2031 36.254 19.535m-48.887-15.012 12.633-7.5781 36.258 19.535m-49.086-15.441 13.422-7.1523 35.652 19.52m-38.621-17.949v-32.078m2.375 30.871v-31.457m2.3789 32.078v-29.398m15.449 37.852v-22.699m2.375 23.992v-22.094m2.3789 23.359v-21.602m-34.668 30.07 10.898-6.4062 37.934 19.773m-24.266-42.387c0 1.3477-1.0664 2.4414-2.3789 2.4414-1.3125 0-2.375-1.0938-2.375-2.4414 0-1.3516 1.0625-2.4453 2.375-2.4453 1.3125 0 2.3789 1.0938 2.3789 2.4453m-4.7539 2.4414c-1.7812 3.668 1.1875 3.0586 2.375 2.4453 1.1914.61328 4.1602 1.2227 2.3789-2.4453 3.5664 1.8359 2.9688-1.2188 2.375-2.4414.59375-1.2227 1.2617-4.2031-2.375-2.4453 1.7812-3.668-1.1875-3.0586-2.3789-2.4453-1.1875-.61329-4.1562-1.2227-2.375 2.4453-3.5664-1.8359-2.9726 1.2226-2.3789 2.4453-.59375 1.2227-1.1875 4.2773 2.3789 2.4414m-2.8281-19.504c.008.61719.23047 1.3242.44922 1.7812-.59375 1.2227-1.1875 4.2773 2.3789 2.4414-1.7812 3.668 1.1875 3.0586 2.375 2.4453.46875.24219 1.2109.48047 1.832.46094m-3.0273 23.102c.35156-.21094.76171-.33203 1.1953-.33203 1.2305 0 2.2422.95703 2.3672 2.1914m2.8008 1.5938c-.0742-.49218-.24219-.99218-.41406-1.3398.59375-1.2227 1.2617-4.2031-2.375-2.4453 1.7812-3.668-1.1875-3.0586-2.3789-2.4453-1.125-.58204-3.8555-1.1602-2.6133 1.9102m-28.582-42.051 7.9805-5.4726m51.781 75.801 15.422-23.793m.0273.0898-5.6602-8.7383m-9.7344 7.9102 5.4297-8.3789m8.1406 30.84c-4.543-7.0078-9.1719-14.148-13.551-20.91m-.0508-6.5703 2.5352-3.9102m10.609 1.168 2.2383 3.4531m-70.84-40.551 1.5 2.8984c1.4375 2.4726 4.7031.42187 3.3906-2.0938l-1.7187-2.9922m1.7187 2.9922c1.4375 2.4726 4.4414.28906 3.1328-2.2227l-1.4414-2.5078m-9.8867 5.8125 1.6719 3.2383c1.4414 2.4727 4.4414.28906 3.1328-2.2266m-45.344 59.891v35.094h-8.3202m8.3203-44.754v1.4531m0-7.8516v4.8906m-8.3203-124.89 8.3203 8.5586v109.86m-8.3203 57.625h16.637l-16.637 19.254m0-15.586h9.5078l-9.5078 9.7773m37.437-103.3c0-.50781-.39844-.91797-.89062-.91797s-.89453.41016-.89453.91797.40234.91797.89453.91797.89062-.41016.89062-.91797c3.5625 4.8906 9.5078-.60938 10.695 1.2226m-10.695-1.832c1.1797-5.9922 8.6055-3.3203 8.914-5.5039m-8.5625 5.9648c3.9102 2.1914 9.75-3.5195 10.344 1.3711m-1.7812-7.3359c.59375 3.668-7.8828 2.4922-8.6094 5.6523 2.9336-2.9961 8.0117-3.8164 9.2031-2.5938.47656 2.5625-7.5351 4.0586-9.5078 2.4453m2.0742 9.1524c.02734-.50782-.34766-.9375-.83594-.96875-.48828-.0273-.90625.35937-.9375.86328-.02734.5039.34766.9375.83594.96875.48828.0273.90625-.35938.9375-.86328 3.2695 5.0898 9.4726-.0508 10.555 1.8476m-10.523-2.457c1.5039-5.9141 8.7305-2.8086 9.1562-4.9688m-8.832 5.4531c3.7617 2.4141 9.8789-2.9414 10.199 1.9726m-1.3672-7.4258c.38672 3.6953-7.9648 2.0195-8.8594 5.1367 3.082-2.8203 8.168-3.3438 9.2812-2.0508.33203 2.5898-7.707 3.6094-9.5781 1.8828m1.707 10c.03906-.5039-.30859-.94531-.77344-.98828-.46875-.0391-.875.33594-.91406.83985-.03516.50781.3125.94921.77734.98828.46484.043.875-.33594.91016-.83985 3.0156 5.168 9.0508.17578 10.039 2.1016m-9.9922-2.7109c1.5586-5.875 8.3945-2.5977 8.8476-4.7461m-8.5469 5.2383c3.5391 2.5039 9.4922-2.7031 9.6914 2.2188m-1.1445-7.457c.28906 3.7031-7.6484 1.8281-8.5664 4.9219 3-2.7461 7.8672-3.1445 8.9023-1.8281.26562 2.5977-7.4336 3.4258-9.1836 1.6524m1.3242 8.9883c.07422-.5-.22656-.97266-.67187-1.0547-.44141-.0859-.86328.25391-.9375.75391-.07422.49609.22656.96875.66797 1.0547.44531.082.86719-.2539.9414-.7539 2.4922 5.4297 8.6562 1.0156 9.457 3.0273m-9.3672-3.6289c1.9414-5.707 8.2422-1.8086 8.8398-3.9062m-8.5937 4.4219c3.2031 2.8242 9.3047-1.8086 9.1211 3.1133m-.52734-7.5352c-.0039 3.7148-7.4687 1.1094-8.5859 4.1094 3.082-2.4609 7.7812-2.4023 8.6719-.99609.05469 2.6094-7.3867 2.7226-8.9258.79297m.86719 10.059c.07422-.5-.22266-.97265-.66016-1.0547-.4375-.0859-.85156.25-.92578.75-.07422.5.22266.97266.66016 1.0586.4375.082.85156-.25391.92578-.75391 2.4609 5.4297 8.543 1.0156 9.332 3.0273m-9.2461-3.6289c1.918-5.7109 8.1367-1.8125 8.7266-3.9102m-8.4805 4.4258c3.1602 2.8242 9.1797-1.8125 9 3.1133m-.51953-7.5391c-.0039 3.7188-7.3711 1.1133-8.4726 4.1094 3.043-2.457 7.6758-2.4024 8.5547-.99219.05469 2.6094-7.2891 2.7227-8.8086.79297m-.07031 8.6367c.08594-.5-.20703-.98047-.65234-1.0742-.44531-.0977-.8789.22656-.96484.72266-.08594.5.20703.98046.65234 1.0742.44531.0977.8789-.22656.96484-.72265 2.3945 5.4961 8.7187 1.2578 9.4844 3.2891m-9.3828-3.8906c2.0937-5.6524 8.3672-1.5781 9.0195-3.6602m-8.7773 4.1836c3.168 2.9141 9.4375-1.5508 9.1406 3.3672m-.36328-7.5508c-.08594 3.7188-7.5703.90625-8.7656 3.8711 3.1719-2.3711 7.9141-2.1836 8.7812-.7539-.0039 2.6133-7.5195 2.5156-9.0351.54297m-8.9141-51.641c-.05859-.53906-.51953-.92188-1.0234-.85547-.50391.0664-.85937.55859-.79687 1.0976.05859.53516.51953.91797 1.0234.85157.5039-.0625.85937-.55469.79687-1.0938 4.2461 4.7188 9.6523-1.9258 11.094-.13672m-11.168-.51172c.47656-6.5274 8.3984-4.6875 8.4492-7.0469m-8.0312 7.4922c4.2656 1.8008 9.543-5.0508 10.75.0664m-2.7187-7.5586c1.0547 3.8203-7.7617 3.707-8.1172 7.168 2.6367-3.582 7.7305-5.1367 9.0976-3.9961.80078 2.6602-7.2148 5.3281-9.4297 3.875m-3.4961-7.9141c-.06641-.53515-.52344-.91406-1.0234-.84374-.5.0703-.85156.56249-.78516 1.1016.06641.53516.52344.91406 1.0234.83984.5-.0703.85156-.5625.78516-1.0977 4.25 4.668 9.5625-2.0156 11.008-.24609m-11.09-.40235c.41797-6.5156 8.2969-4.7539 8.3242-7.1094m-7.9062 7.5508c4.25 1.7539 9.4297-5.1328 10.672-.0391m-2.7656-7.5117c1.082 3.8008-7.6719 3.7734-7.9922 7.2266 2.5859-3.5976 7.6289-5.1992 8.9922-4.0742.82031 2.6484-7.1133 5.3867-9.3242 3.957m-4.332-7.6875c-.14062-.52734-.66016-.83593-1.1602-.6836-.49609.15235-.78516.70313-.64453 1.2344.14453.52734.66406.83204 1.1641.68359.49609-.15234.78516-.70312.64062-1.2344 4.9922 4.0117 9.4531-3.5664 11.176-2.0156m-11.348 1.3789c-.49609-6.625 7.7773-6.1211 7.4726-8.4961m-6.9844 8.8711c4.5742 1.082 8.8789-6.6797 10.859-1.7539m-3.875-7.1172c1.6367 3.6484-7.2773 5.0312-7.1172 8.5586 2.125-4.0391 7.0351-6.457 8.582-5.5469 1.207 2.5312-6.4844 6.5625-8.9375 5.4844m-5.5312-7.7891c-.19922-.50781-.75781-.75391-1.25-.54688-.49219.20313-.73047.78516-.53125 1.293.19922.50782.75781.75391 1.25.54688.49219-.20703.73047-.78516.53125-1.293 5.4844 3.4219 9.2617-4.582 11.168-3.2383m-11.406 2.625c-1.1758-6.5078 7.293-6.9258 6.7461-9.2461m-6.2109 9.5664c4.7617.5625 8.3555-7.6055 10.871-2.9453m-4.6602-6.6211c2.0312 3.4336-6.9023 5.793-6.3828 9.2695 1.7539-4.2344 6.5078-7.1797 8.1758-6.4492 1.4844 2.375-5.9336 7.2227-8.5391 6.4258m-5.8789-6.4258c-.24219-.53125-.83594-.75781-1.3359-.5039-.49609.25781-.70703.89063-.46875 1.4219.23828.53125.83594.7539 1.332.49999.5-.2539.71094-.89062.47266-1.418 5.9101 3.2812 9.3281-5.5508 11.398-4.2461m-11.687 3.6055c-1.6328-6.8867 7.1406-7.9258 6.4258-10.371m-5.8516 10.672c4.9883.27735 8.207-8.7227 11.113-3.9062m-5.2617-6.7656c2.3281 3.5391-6.8047 6.6797-6.043 10.371 1.5547-4.6602 6.3047-8.1406 8.0859-7.4727 1.6914 2.4375-5.7109 8.1445-8.4687 7.4727m-1.5742 2.625c16.465 15.578 30.227 49.73 28.594 87.387m-26.434-105.83c.97265 1.1719-.27734 3.457-2.1992 5.3047m0-4.8906c.91797-.61328 1.6172-.57422 2.1992-.41406m-2.1992-2.6406c.6289.79688.51562 1.5703.11719 2.4297m-.11719 5.5156c2.1016-2.2695 3.7773-4.5195 5.7578-1.793m-5.6758 4.7539c2.6367-1.8594 4.2461-5.4219 5.6484-4.6992m-5.6953 42.469c10.539 12.957 12.73 24.184 14.992 35.426m-26.32 60.766c0-2.9688 2.3789-5.5898 2.3789-8.5586 0-2.9648-2.3789-5.5898-2.3789-8.5586m.26953-36.051c.62109-2.2578 2.1094-4.3906 2.1094-6.7344 0-2.9688-2.3789-5.5898-2.3789-8.5586m.14453 18.422c-.05469-.25781-.09375-.51172-.11719-.76953m-.02734 33.691c0-2.9648 2.3789-5.5898 2.3789-8.5547 0-2.9688-2.3789-5.5938-2.3789-8.5586 0-2.2812 1.4062-4.3633 2.0586-6.5508m-2.0586-27.68c0-2.9648 2.3789-5.5898 2.3789-8.5586 0-2.9648-2.3789-5.5898-2.3789-8.5547 0-2.9688 2.3789-5.5938 2.3789-8.5586 0-2.9688-2.3789-5.5898-2.3789-8.5586 0-2.9648 2.3789-5.5898 2.3789-8.5586 0-2.9648-2.3789-5.5898-2.3789-8.5547 0-2.9688 2.3789-5.5938 2.3789-8.5586s-2.3789-5.5898-2.3789-8.5586c0-2.9648 2.3789-5.5898 2.3789-8.5547 0-2.9687-2.3789-5.5937-2.3789-8.5586 0-2.9688 2.3789-5.5898 2.3789-8.5586 0-2.1992-1.3086-4.2109-1.9844-6.3125m1.3906 168.91c0-2.9688 2.375-5.5898 2.375-8.5586 0-2.9648-2.375-5.5898-2.375-8.5586m.37109-36.41c.67187-2.125 2.0039-4.1523 2.0039-6.375 0-2.9688-2.375-5.5898-2.375-8.5586m0 51.344c0-2.9648 2.375-5.5898 2.375-8.5547 0-2.9688-2.375-5.5938-2.375-8.5586 0-2.2266 1.3359-4.2578 2.0039-6.3906m-2.0039-27.84c0-2.9648 2.375-5.5898 2.375-8.5586 0-2.9648-2.375-5.5898-2.375-8.5547 0-2.9688 2.375-5.5938 2.375-8.5586 0-2.9688-2.375-5.5898-2.375-8.5586 0-2.9648 2.375-5.5898 2.375-8.5586 0-2.9648-2.375-5.5898-2.375-8.5547 0-2.9688 2.375-5.5938 2.375-8.5586s-2.375-5.5898-2.375-8.5586c0-2.9648 2.375-5.5898 2.375-8.5547 0-2.9687-2.375-5.5937-2.375-8.5586 0-2.9688 2.375-5.5898 2.375-8.5586 0-1.0703-.30859-2.0937-.70312-3.1055m.10937 165.7c0-2.9688 2.3789-5.5898 2.3789-8.5586 0-2.9648-2.3789-5.5898-2.3789-8.5586m.33203-36.266c.65234-2.1758 2.0469-4.25 2.0469-6.5195 0-2.9688-2.3789-5.5898-2.3789-8.5586m0 51.344c0-2.9648 2.3789-5.5898 2.3789-8.5547 0-2.9688-2.3789-5.5938-2.3789-8.5586 0-1.3477.49219-2.625 1.0273-3.8984m-1.0273-30.332c0-2.9648 2.3789-5.5898 2.3789-8.5586 0-2.9648-2.3789-5.5898-2.3789-8.5547 0-2.9688 2.3789-5.5938 2.3789-8.5586 0-2.9688-2.3789-5.5898-2.3789-8.5586 0-2.9648 2.3789-5.5898 2.3789-8.5586 0-2.9648-2.3789-5.5898-2.3789-8.5547 0-2.9688 2.3789-5.5938 2.3789-8.5586s-2.3789-5.5898-2.3789-8.5586c0-2.9648 2.3789-5.5898 2.3789-8.5547 0-2.9687-2.3789-5.5937-2.3789-8.5586 0-2.9688 2.3789-5.5898 2.3789-8.5586 0-.18358-.01172-.36718-.02734-.54687m-7.6992 173.53h7.6094m-7.6094 1.832h5.8047m-5.8047 1.8359h4.1953m-4.1953 1.832h2.4375m14.199-62.348c-3.5586.004-4.7539 2.4375-3.5625 7.3359-1.4766-.80078-1.4844.75391-1.7852 1.8359 0 0-1.0312-1.375-2.2187-3.207-1.1914-1.8359-4.3164.14843-2.5352 2.5938 1.7852 2.4453 1.957 3.2344 2.3789 3.668.59375.60937 2.9687.60937 5.3476 0 2.375-.61329 6.5351-6.1133 6.5351-6.1133-.20313-4.9141-.89062-9.2891-1.7812-13.445-1.9687-.67969-3.9258-.78516-5.8672-.35547m-4.668 12.957c.73437-.27343 1.1836-.64062 1.1836-1.0469 0-.84766-1.9336-1.5312-4.3164-1.5312-2.3828 0-4.3125.68359-4.3125 1.5312 0 .84375 1.9297 1.5273 4.3125 1.5273.42187 0 .82422-.0234 1.2109-.0625m2.3555-4.7695c0-.84375-1.9102-1.5273-4.2617-1.5273-2.3555 0-4.2617.68359-4.2617 1.5273s1.9062 1.5273 4.2617 1.5273c2.3516 0 4.2617-.68359 4.2617-1.5273m-.59375-3.3633c0-.84375-1.7422-1.5273-3.8906-1.5273-2.1523 0-3.8945.68359-3.8945 1.5273s1.7422 1.5312 3.8945 1.5312c2.1484 0 3.8906-.6875 3.8906-1.5312m.59375-3.0547c0-.84375-1.8633-1.5273-4.1602-1.5273s-4.1602.68359-4.1602 1.5273 1.8633 1.5274 4.1602 1.5274 4.1602-.6836 4.1602-1.5274m11.883 11.613c1.0703.82032 1.7109.6875 2.3789.61328.78516-6.5937-.61719-10.812-1.7852-15.281-1.5859-.41015-2.375 0-2.375 1.2227m4.1602 14.059c3.5664 1.2227 6.9023 3.5078 11.289 2.4453-.05469-.86719-.26172-1.5859-.58203-2.1914-.72656-1.3594-2.043-2.1367-3.5781-2.6992 2.5664-.44922 4.0664-1.9492 5.3476-3.668-1.1914-1.6445-3.1172-2.7422-5.8672-2.7461 2.4609-.88281 3.9727-2.4258 5.2734-4.5898-2.1953-.875-4.3984-1.7539-5.9414-1.2227 2.293-3.3867 3.1797-6.6133 2.5859-9.0859-3.5273 2.2148-7.332 6.3281-10.312 8.4766m10.531 17.984c-2.375-2.8945-5.0586-5.2344-8.5117-6.1758l.03516-.24609c3.2266-.22266 6.3008-.83985 8.6445-2.3125-2.918-1.3086-5.8594-1.9219-8.9141-1.5156l-.01953-.33594c2.7695-1.1367 5.957-1.5859 7.7422-4.3438-3.3203-.47265-5.8281.26953-8.4297.94532l-.15234-.60157c2.8437-2.8242 5.125-6.1992 6.8633-10.102m19.508 25.934c1.8867.29688 3.707.57422 4.9805.75391m-13.199-2.0312c.33203.0352 1.1914.16797 2.3398.34766m-8.4844-1.3516 5.6719 2.4336.43359-.33985c.35156-8.7188-.03125-17.508-1.2109-26.379l-7.4844 2.0508m6.4219 23.898c.07031-.5586.13281-1.1172.1875-1.6758.73047-7.9024.01172-16.852-1.2695-23.715m39.437 70.078c6.914-13.754 3.7109-23.824 3.7109-36.406 0-9.168 10.102-8.5586 10.102-.61328 0 6.1133-7.1328 5.5391-7.1328.61328 0-3.668 5.3476-3.668 5.3476-1.2227 0 1.2227-.59375 1.832-1.1875 2.4453m-7.8047 35.051c6.7812-13.73 2.8203-24.559 3.6445-36.273m-.57031 36.055c5.7344-12.051 1.9062-22.402 2.4531-32.566m.65625 32.258c5.3672-11.801.49218-21.965 1.7852-31.953m1.3516 31.566c4.9062-11.395-.48047-20.852 1.1523-30.879m1.9609 30.539c4.4414-10.723-.14063-19.738.82812-29.16m2.3164 28.73c3.9375-10 .1289-18.531.55078-27.32m2.6211 26.793c3.3984-9.2266.32421-17.211.3164-25.34m2.8008 24.93c2.9648-8.4883.52344-15.938.20312-23.438m2.9336 22.957c2.5391-7.7656.63282-14.668.12111-21.559m-17.059-17.684c2.7187-.38671 5.6797 1.7656 5.6797 6.0703 0 4.3711-3.6484 5.3242-5.7266 3.7031m2.9219-9.2031c2.5703-.0742 5.1836 2.0664 5.1836 6.1094 0 4.3008-3.5312 5.293-5.6211 3.7852m3.7773-8.5977c2.2188.41797 4.2188 2.5 4.2188 6.0352 0 4.75-4.3047 5.4648-6.2266 3.2305m4.375-8.043c2.2226.41015 4.2305 2.4961 4.2305 6.0352 0 4.7969-4.3906 5.4766-6.2812 3.168m4.4766-7.9726c2.207.43359 4.1797 2.5156 4.1797 6.0273 0 4.7695-4.3359 5.4688-6.2461 3.207m4.0312-8.582c2.1289.50781 4 2.5664 4 5.9883 0 4.2188-3.4023 5.2539-5.5078 3.8633m4.0469-8.5898c2.0625.57422 3.8359 2.6172 3.8359 5.9492 0 4.7773-4.3555 5.4688-6.2578 3.1914m4.7852-7.9219c2.0664.57031 3.8516 2.6133 3.8516 5.9492 0 4.7578-4.3203 5.4648-6.2344 3.2227m-56.34 24.195c-.33203-2.4453-1.0117-7.5469-1.0117-8.4688 0-1.2227.59766-3.668.59766-4.8867v-8.5586c0-3.668 7.9726-18.594 8.9101-19.562 1.7852-1.832 7.5117-4.2617 10.105-3.6641 1.8711.42969 11.434 3.6875 15.172 7.7148m-35.07 37.242c-2.2969-7.3867-1.957-15.27-2.6836-22.953-.20703-2.1836-3.0391-3.2148-3.5664 0m7.1328.60937c-1.1914-6.1094-9.5078-7.332-9.5078-1.832 0 5.2891 5.9414 4.8906 5.9414 1.832m2.5703-2.5938c-1.7812-3.0586 1.4297-10.176.39844-12.688-1.1758-2.875-6.5351-3.668-7.1289 0-.30859 1.9062 1.7812 2.4453 1.7812 2.4453m5.1055 2.4453c-.33984-5.9024-3.3437-5.543-4.5117-5.5-1.7812.0625-1.7812 1.832-.59375 3.0547m7.8008 7.5156c.48047-3.1562.05078-8.6602-.07422-9.9609-.59375-6.1094-10.695-6.1094-11.289-.60937-.59375 5.5 6.9844 7.4805 6.5351 3.0547-.42188-4.1562-5.8789-3.3711-2.9727 0m16.641.61328c.59375-1.2227 2.375-2.4453 4.7539-1.2227m-6.5391 3.0547 1.7852.61328c.59375 0 .59375-.61328 1.7812-.61328 1.1875 0 1.1875.61328 2.3789.61328 1.1875 0 .59375-.61328 1.7812-.61328 1.1875 0 1.7813.61328 1.7813.61328m-18.418 23.227c1.3437 1.7266 6.6992 5.3086 9.5078 1.2227-.16797.18359.14844-.80078 0-.61328-2.9727 3.6836-7.8906.95312-9.5078-.60938m28.523-1.2226c-.64843.82812-2.6992 3.7344-5.3516 4.2773-2.9688.61328-4.7539 0-7.0195-1.8828.16797.18359-.16797-.78516 0-.60938 4.082 4.2109 11.309 1.0234 12.371-1.7852m-19.016 1.832c2.2187-6.3125 0-9.1055 0-12.223 0-1.8359-.72656-4.2852-.59766-5.5039.19141-1.7656 1.7852-1.832 2.3789-3.0547m5.3476 1.2226c-1.1875 1.2227-6.5351.60938-2.375 0 4.1562-.60937 4.1562.96875 4.1562 1.832 0 .61329-.59376 1.8359-1.7813 1.8359m-.59375 9.7812s1.7812 2.4414 4.1602 2.4414c2.375 0 5.3476-3.0547 9.5078-3.0547-3.5664 0-5.9453-1.1406-8.3203-1.2226-2.4375-.0859-4.1602 1.8359-5.3477 1.8359m-16.043 1.2227c1.7812 1.2188 2.9687 1.832 4.7539 1.2188 1.7812-.60938 5.3476-2.4414 5.3476-2.4414-2.3789-.61328-4.7539-1.8359-6.5391-1.8359-1.6797 0-3.5625 2.4453-3.5625 2.4453m-17.059 31.785 14.68-18.336c21.473 4.5781 41.824 1.918 61.801-1.2227l15.848 19.559m-13.852-17.031-1.582.25c-12.516 1.9688-25.309 3.7774-38.516 3.7109-7.9258-.0391-16-.7539-24.254-2.5156l-1.4531-.3086m-8.207 10.309c-7.9961-1.0859-6.1758-12.406-12.961-17.641 11.09-3.4219 17.008 4.332 19.195 9.8516m-19.195-9.8516c7.1289-1.1289 11.223 9.7188 16.016 13.797m.03125-6.4609c.42969 1.8945-.07031 3.8086-.79687 5.7266m-5.7422-.22656c2.1836.96484 3.9805.60156 5.7656.17969m-7.5469-4.4609c1.625 1.1367 3.2539 1.3867 4.8867 1.3438m1.0547-5.6211c.39062.54687-.40234 4.4023-.91797 5.6953m-6.8047-5.6953c1.4141.92187 2.7266 1.4297 3.9844 1.6992m.17188-4.1445c.08203 1.0664.07422 2.8672-.19141 4.2344m-5.75-3.6211c.86328.15625 1.6211.0742 2.3281-.1289m.05078-1.707c.53125.76562.46484 1.4062.21094 2.0078" stroke-width=".72322"/>
  <path d="m127.36 98.051-5.3555 3.2148-15.016-7.4727m75.492 6.8672c.82813 1.0391.73047 1.6094.1875 2.4922m.25391.89453c.82422 1.043.72656 1.6094.18359 2.4961m.17969.91406c.82812 1.043.73047 1.6133.1875 2.4961m-1.0156.54297c.82421 1.0391.72656 1.6094.18359 2.4961m2.9453-11.727c.47656.65234.13672.88281 0 1.2226m.0976 2.1875c.47266.65235.13672.88672 0 1.2227m.31641 2.2148c.47656.65235.13672.88672 0 1.2227m.0273 1.7891c.47266.65235.13282.88672 0 1.2227m-3.4101-15.363c-.59765.61328.59375 3.0586.59375 3.0586m-40.41-34.23c-1.7812-2.4453-2.9688-2.4453-4.7539-2.4453-1.7812 0-4.7539 2.4453-4.7539 2.4453m-7.1289.60938c-1.7852-2.4414-3.3125-3.1406-5.3476-3.0547-1.4297.05859-3.5664 1.8359-3.5664 1.8359m21.375.03125c-.35547.44531-.57812 1.0898-.57812 1.8008 0 1.3516.80078 2.4453 1.7852 2.4453.98438 0 1.7812-1.0938 1.7812-2.4453 0-.75781-.25-1.4336-.64453-1.8828m-19.324.66797c-.14844.35938-.23438.77344-.23438 1.2148 0 1.3516.79687 2.4453 1.7812 2.4453.98437 0 1.8867-.74219 1.8867-2.0898 0-.78125-.26562-1.4727-.67968-1.9219m-7.1484 32.129-9.3789-4.5391m8.7851 3.3164-8.2969-4.0156m24.34-.875c-1.1953-.73828-2.9688 0-4.1602.61328" stroke-width=".36161"/>
 </g>
 <g>
  <path d="m129.57 125.42c-.0391 1.7461-.41015 1.8555-.74219 2.5976h1.9297c-.33594-.74219-.70703-.85156-.74219-2.5976 0-.043.0312-.0742.0742-.0742.0391 0 .0742.0312.0742.0742.125.6914.69922 1.2109 1.4024 1.2695.69921.0625 1.3516-.35547 1.5938-1.0156.24218-.65625.0156-1.3984-.55469-1.8047-.57422-.41015-1.3477-.38671-1.8906.0586-.0312.0195-.0742.0195-.0977-.008-.0273-.0273-.0312-.0664-.008-.0977.6875-.375 1.0312-1.1641.83985-1.9219-.19531-.75781-.875-1.2852-1.6562-1.2852s-1.4648.52734-1.6562 1.2852c-.19141.75782.15234 1.5469.83984 1.9219.0195.0312.0195.0703-.008.0977-.0273.0273-.0664.0273-.0977.008-.54687-.44531-1.3203-.46875-1.8906-.0586-.57031.40625-.80078 1.1484-.55859 1.8047.24218.66016.89843 1.0781 1.5976 1.0156.69922-.0586 1.2734-.57813 1.4023-1.2695 0-.043.0312-.0742.0742-.0742.0391 0 .0742.0312.0742.0742z"/>
  <path d="m129.57 139.6c-.0391 1.7461-.41015 1.8594-.74219 2.6016h1.9297c-.33594-.74218-.70703-.85546-.74219-2.6016 0-.0391.0312-.0742.0742-.0742.0391 0 .0742.0352.0742.0742.125.69141.69922 1.2109 1.4024 1.2734.69921.0586 1.3516-.35547 1.5938-1.0156.24218-.66015.0156-1.4023-.55469-1.8086-.57422-.41016-1.3477-.38281-1.8906.0586-.0312.0234-.0742.0195-.0977-.008-.0273-.0234-.0312-.0664-.008-.0977.6875-.3711 1.0312-1.1641.83985-1.918-.19531-.75782-.875-1.2891-1.6562-1.2891s-1.4648.53125-1.6562 1.2891c-.19141.7539.15234 1.5469.83984 1.918.0195.0312.0195.0742-.008.0977-.0273.0273-.0664.0312-.0977.008-.54687-.4414-1.3203-.46875-1.8906-.0586-.57031.40625-.80078 1.1484-.55859 1.8086.24218.66016.89843 1.0742 1.5976 1.0156.69922-.0625 1.2734-.58203 1.4023-1.2734 0-.0391.0312-.0742.0742-.0742.0391 0 .0742.0352.0742.0742z"/>
  <path d="m91.301 115.03c-.03516 1.7461-.41016 1.8555-.74219 2.5977h1.9297c-.33203-.74219-.70312-.85157-.74219-2.5977 0-.043.03516-.0742.07422-.0742.04297 0 .07422.0312.07422.0742.12891.69141.70312 1.2109 1.4023 1.2695.69922.0586 1.3516-.35547 1.5977-1.0156.24219-.66016.01172-1.3984-.55859-1.8086-.57031-.40625-1.3477-.38281-1.8906.0625-.03125.0195-.07031.0156-.09766-.008-.02734-.0273-.02734-.0664-.0078-.0977.6875-.375 1.0312-1.1641.83984-1.9219-.19141-.75781-.875-1.2852-1.6562-1.2852s-1.4609.52735-1.6562 1.2852c-.19141.75781.15234 1.5469.83984 1.9219.02344.0312.01953.0703-.0078.0977-.02734.0234-.06641.0273-.09766.008-.54297-.44531-1.3164-.46875-1.8906-.0625-.57031.41016-.80078 1.1484-.55469 1.8086.24219.66015.89453 1.0742 1.5938 1.0156s1.2734-.57812 1.4023-1.2695c0-.043.03125-.0742.07422-.0742.03906 0 .07422.0312.07422.0742z"/>
 </g>
 <path d="m97.637 216.95 5.3555-3.2148 15.016 7.4726m-75.492-6.8672c-.82812-1.0391-.73047-1.6094-.1875-2.4922m-.25391-.89453c-.82422-1.043-.72656-1.6094-.18359-2.4961m-.17969-.91406c-.82812-1.043-.73047-1.6133-.1875-2.4961m1.0156-.54297c-.82422-1.0391-.72656-1.6094-.18359-2.4961m-2.9453 11.727c-.47656-.65235-.13672-.88281 0-1.2227m-.09766-2.1875c-.47266-.65234-.13672-.88672 0-1.2227m-.31641-2.2148c-.47656-.65234-.13672-.88672 0-1.2227m-.02734-1.7891c-.47266-.65234-.13281-.88672 0-1.2226m3.4102 15.363c.59766-.61328-.59375-3.0586-.59375-3.0586m40.41 34.23c1.7812 2.4453 2.9687 2.4453 4.7539 2.4453 1.7812 0 4.7539-2.4453 4.7539-2.4453m7.1289-.60937c1.7852 2.4414 3.3125 3.1406 5.3477 3.0547 1.4297-.0586 3.5664-1.8359 3.5664-1.8359m-21.375-.0312c.35547-.44531.57812-1.0898.57812-1.8008 0-1.3516-.80078-2.4453-1.7852-2.4453-.98437 0-1.7812 1.0938-1.7812 2.4453 0 .75781.25 1.4336.64453 1.8828m19.324-.66797c.14844-.35937.23438-.77344.23438-1.2148 0-1.3516-.79688-2.4453-1.7812-2.4453s-1.8867.74218-1.8867 2.0898c0 .78125.26563 1.4727.67969 1.9219m7.1484-32.129 9.3789 4.5391m-8.7851-3.3164 8.2969 4.0156m-24.34.875c1.1953.73828 2.9687 0 4.1602-.61328" fill="none" stroke="#4242ff" stroke-linecap="round" stroke-linejoin="round" stroke-width=".36161"/>
 <g>
  <path d="m95.43 189.58c.03906-1.7461.41016-1.8555.74219-2.5976h-1.9297c.33594.74219.70703.85156.74219 2.5976 0 .043-.03125.0742-.07422.0742-.03906 0-.07422-.0312-.07422-.0742-.125-.6914-.69922-1.2109-1.4023-1.2695-.69922-.0625-1.3516.35547-1.5938 1.0156-.24219.65625-.01563 1.3984.55469 1.8047.57422.41015 1.3477.38671 1.8906-.0586.03125-.0195.07422-.0195.09766.008.02734.0273.03125.0664.0078.0977-.6875.375-1.0312 1.1641-.83984 1.9219.19531.75781.875 1.2852 1.6562 1.2852s1.4648-.52734 1.6562-1.2852c.19141-.75782-.15234-1.5469-.83984-1.9219-.01953-.0312-.01953-.0703.0078-.0977.02734-.0273.06641-.0273.09766-.008.54688.44531 1.3203.46875 1.8906.0586.57031-.40625.80078-1.1484.55859-1.8047-.24219-.66016-.89844-1.0781-1.5977-1.0156-.69922.0586-1.2734.57813-1.4023 1.2695 0 .043-.03125.0742-.07422.0742-.03906 0-.07422-.0312-.07422-.0742z"/>
  <path d="m95.43 175.4c.03906-1.7461.41016-1.8594.74219-2.6016h-1.9297c.33594.74219.70703.85547.74219 2.6016 0 .0391-.03125.0742-.07422.0742-.03906 0-.07422-.0352-.07422-.0742-.125-.69141-.69922-1.2109-1.4023-1.2734-.69922-.0586-1.3516.35547-1.5938 1.0156-.24219.66016-.01563 1.4024.55469 1.8086.57422.41015 1.3477.38281 1.8906-.0586.03125-.0234.07422-.0195.09766.008.02734.0234.03125.0664.0078.0977-.6875.3711-1.0312 1.1641-.83984 1.918.19531.75781.875 1.2891 1.6562 1.2891s1.4648-.53125 1.6562-1.2891c.19141-.7539-.15234-1.5469-.83984-1.918-.01953-.0312-.01953-.0742.0078-.0977.02734-.0273.06641-.0312.09766-.008.54688.44141 1.3203.46875 1.8906.0586.57031-.40625.80078-1.1484.55859-1.8086-.24219-.66015-.89844-1.0742-1.5977-1.0156-.69922.0625-1.2734.58203-1.4023 1.2734 0 .0391-.03125.0742-.07422.0742-.03906 0-.07422-.0352-.07422-.0742z"/>
  <path d="m133.7 199.97c.0352-1.7461.41015-1.8555.74219-2.5977h-1.9297c.33203.74219.70312.85157.74219 2.5977 0 .043-.0352.0742-.0742.0742-.043 0-.0742-.0312-.0742-.0742-.12891-.69141-.70313-1.2109-1.4024-1.2695-.69921-.0586-1.3516.35547-1.5976 1.0156-.24219.66016-.0117 1.3984.55859 1.8086.57031.40625 1.3477.38281 1.8906-.0625.0312-.0195.0703-.0156.0977.008.0273.0273.0273.0664.008.0977-.6875.375-1.0312 1.1641-.83985 1.9219.19141.75781.875 1.2852 1.6562 1.2852s1.4609-.52735 1.6562-1.2852c.19141-.75781-.15234-1.5469-.83984-1.9219-.0234-.0312-.0195-.0703.008-.0977.0273-.0234.0664-.0273.0977-.008.54297.44531 1.3164.46875 1.8906.0625.57031-.41016.80078-1.1484.55469-1.8086-.24219-.66015-.89453-1.0742-1.5938-1.0156s-1.2734.57812-1.4023 1.2695c0 .043-.0312.0742-.0742.0742-.0391 0-.0742-.0312-.0742-.0742z"/>
 </g>
 <path d="m21.75 12.449h6m-3 0v21.301c0 3.3125-2.6875 6-6 6s-6-2.6875-6-6v-.89844" fill="none" stroke="#000" stroke-linecap="square" stroke-miterlimit="1.5" stroke-width="2.4"/>
 <path d="m20.879 61.621c.10547 4.9141 1.1484 5.2305 2.0898 7.3203h-5.4375c.94141-2.0898 1.9883-2.4062 2.0938-7.3203 0-.11328-.09375-.20703-.21094-.20703-.11719 0-.21094.09375-.21094.20703-.35547 1.9453-1.9727 3.4141-3.9453 3.582-1.9688.16797-3.8086-1.0039-4.4922-2.8594s-.04297-3.9414 1.5664-5.0898c1.6094-1.1523 3.7891-1.082 5.3242.16406.08594.0625.19922.05469.27344-.01953.07422-.07422.08203-.1875.01953-.27344-1.9297-1.0508-2.9023-3.2773-2.3594-5.4102.54297-2.1328 2.4609-3.625 4.6602-3.625s4.1172 1.4922 4.6602 3.625c.54297 2.1328-.42578 4.3594-2.3594 5.4102-.0625.08594-.05469.19922.01953.27344.07422.07422.19141.08203.27344.01953 1.5352-1.2461 3.7148-1.3164 5.3242-.16406 1.6094 1.1484 2.25 3.2344 1.5703 5.0898-.68359 1.8555-2.5273 3.0273-4.4961 2.8594-1.9727-.16797-3.5859-1.6367-3.9453-3.582 0-.11328-.09375-.20703-.21094-.20703-.11328 0-.20703.09375-.20703.20703z"/>
 <path d="m58.723 66.227c.21875 10.223 2.3906 10.875 4.3477 15.223h-11.309c1.957-4.3477 4.1328-5 4.3516-15.223 0-.24219-.19531-.4375-.4375-.4375-.23828 0-.43359.19531-.43359.4375-.74609 4.0469-4.1055 7.0938-8.207 7.4414-4.0977.35156-7.9258-2.082-9.3477-5.9453-1.4219-3.8594-.08594-8.1953 3.2617-10.586 3.3477-2.3945 7.8828-2.25 11.074.34375.17187.13281.41406.11328.56641-.03906.15625-.15234.17188-.39453.04297-.57031-4.0195-2.1875-6.0391-6.8203-4.9102-11.254 1.1289-4.4336 5.1211-7.5352 9.6953-7.5352s8.5664 3.1016 9.6953 7.5352c1.1289 4.4336-.89453 9.0664-4.9102 11.254-.12891.17578-.11328.41797.03906.57031.15234.15234.39453.17188.57031.03906 3.1914-2.5938 7.7266-2.7383 11.074-.34375 3.3477 2.3906 4.6836 6.7266 3.2617 10.586-1.4219 3.8633-5.25 6.2969-9.3516 5.9453-4.0977-.34766-7.457-3.3945-8.2031-7.4414 0-.24219-.19531-.4375-.4375-.4375-.23828 0-.43359.19531-.43359.4375z"/>
 <path d="m203.25 302.55h-6m3 0v-21.301c0-3.3125 2.6875-6 6-6s6 2.6875 6 6v.89844" fill="none" stroke="#000" stroke-linecap="square" stroke-miterlimit="1.5" stroke-width="2.4"/>
 <path d="m204.12 253.38c-.10547-4.9141-1.1484-5.2305-2.0898-7.3203h5.4375c-.94141 2.0898-1.9883 2.4062-2.0938 7.3203 0 .11328.0937.20703.21094.20703.11718 0 .21093-.0937.21093-.20703.35547-1.9453 1.9727-3.4141 3.9453-3.582 1.9688-.16796 3.8086 1.0039 4.4922 2.8594.6836 1.8555.043 3.9414-1.5664 5.0898-1.6094 1.1524-3.7891 1.082-5.3242-.16406-.0859-.0625-.19922-.0547-.27344.0195-.0742.0742-.082.1875-.0195.27344 1.9297 1.0508 2.9023 3.2773 2.3594 5.4102-.54297 2.1328-2.4609 3.625-4.6602 3.625s-4.1172-1.4922-4.6602-3.625c-.54297-2.1328.42578-4.3594 2.3594-5.4102.0625-.0859.0547-.19922-.0195-.27344-.0742-.0742-.19141-.082-.27344-.0195-1.5352 1.2461-3.7148 1.3164-5.3242.16406-1.6094-1.1484-2.25-3.2344-1.5703-5.0898.68359-1.8555 2.5273-3.0273 4.4961-2.8594 1.9727.16797 3.5859 1.6367 3.9453 3.582 0 .11328.0937.20703.21094.20703.11328 0 .20703-.0937.20703-.20703z"/>
 <path d="m166.28 248.77c-.21875-10.223-2.3906-10.875-4.3476-15.223h11.309c-1.957 4.3477-4.1328 5-4.3516 15.223 0 .24218.19531.4375.4375.4375.23828 0 .43359-.19532.43359-.4375.7461-4.0469 4.1055-7.0938 8.207-7.4414 4.0977-.35156 7.9258 2.082 9.3477 5.9453 1.4219 3.8594.0859 8.1953-3.2617 10.586-3.3477 2.3945-7.8828 2.25-11.074-.34375-.17187-.13281-.41406-.11328-.5664.0391-.15625.15235-.17188.39453-.043.57032 4.0195 2.1875 6.0391 6.8203 4.9102 11.254-1.1289 4.4336-5.1211 7.5352-9.6953 7.5352s-8.5664-3.1016-9.6953-7.5352c-1.1289-4.4336.89453-9.0664 4.9102-11.254.12891-.17579.11329-.41797-.0391-.57032-.15234-.15234-.39453-.17187-.57031-.0391-3.1914 2.5938-7.7266 2.7383-11.074.34375-3.3477-2.3906-4.6836-6.7266-3.2617-10.586 1.4219-3.8633 5.25-6.2969 9.3516-5.9453 4.0977.34766 7.457 3.3945 8.2031 7.4414 0 .24218.19531.4375.4375.4375.23828 0 .43359-.19532.43359-.4375z"/>
 <path d="m35.25 35.25h154.5v244.5h-154.5z" fill="none" stroke="#4242ff" stroke-width=".9375"/>
</svg>
