<svg width="225px" height="315px" version="1.1" viewBox="0 0 225 315" xmlns="http://www.w3.org/2000/svg">
 <g>
  <path d="m11.719.46875h201.56c6.2148 0 11.25 5.0352 11.25 11.25v291.56c0 6.2148-5.0352 11.25-11.25 11.25h-201.56c-6.2148 0-11.25-5.0352-11.25-11.25v-291.56c0-6.2148 5.0352-11.25 11.25-11.25z" fill="#fff"/>
  <path d="m189.75 35.25v73.656c0-1.1836-2.793-2.1406-6.2383-2.1406-2.4219 0-4.6211.48437-5.6445 1.2344v-24.168c-12.871-5.0312-17.5-13.188-19.613-22.297 6 5.0312 12.574 8.2383 19.613 9.9844v-24.043zm0 73.656v3.9727c0-.88672-1.6523-1.6484-4.0078-1.9727h-.0352c2.4297-.3125 4.0391-1.1094 4.043-2zm0 3.9727v4.2773c0-1.1797-2.793-2.1367-6.2383-2.1367-2.4219 0-4.6211.48047-5.6445 1.2305v-2.1406c1.1797.55078 3.1328.91015 5.3476.91015 3.6094 0 6.5352-.96094 6.5352-2.1406zm0 4.2773v127.14l-11.883-12.223v-110.29c.92578.69922 2.8359 1.1836 5.0508 1.1836 3.1172 0 5.6445-.95703 5.6445-2.1406 0-.71484-.93359-1.3516-2.3633-1.7383 2.168-.35547 3.5469-1.1055 3.5508-1.9297zm-103.74-61.691c-.66016 2.4297-2.0312 7.5859-2.0312 8.5156 0 1.2227 1.1875 4.8867 1.1875 6.7227 0 1.832 1.1914 8.5586 2.3789 11.613 1.1875 3.0547 5.3477 11.004 5.9766 12.324-.34375 2.2734-2.6211 4.0117-5.0156 4.6523l.17969-.0039c4.0234 2.9063 8.4922 4.7031 13.352 5.4531 8.1211 1.2539 17.5-.51563 27.633-5.7617l.0781.03516c-1.3789-.89844-2.7461-2.6055-3.8867-5.5312-2.043-5.2266 2.6836-17.891-6.8242-36.84 8.082 0 15.879.51172 22.727 2.7656 7.2383 15.656 6.875 26.254 9.2422 31.359-.47266-4.7852 10.223-7.8438 10.223 1.3281 0 2.5156-1.8476 6.0859-5.1133 6.2461-7.7422 2.5742-15.445 4.4766-24.09 1.4961-.28125-.02734-.56641-.08203-.85938-.16406l1.2656.58594c-11.109 6.1133-21.57 8.3164-30.746 6.8984-6.207-.95703-11.848-3.5547-16.762-7.7852l.20703-.0039c-1.1406-.32033-2.0429-1.0586-2.3945-2.3164-2.8594-3.4609-4.0664-5.3789-5.5625-7.5664-.33594-.73438-.47266-1.6953-.32422-2.8945.59375-4.8906 5.9414-2.4453 5.9258-.57812.40234-1.2734.60937-2.6875.59375-4.3242-2.3008.94531-5.332-.70312-5.332-3.6523 0-4.8906 4.7539-.61328 4.7539-.61328s-1.9961-15.098 2.0508-21.855zm-10.492 36.777c6.6094 9.8438 15.527 15.75 25.816 17.336 10.461 1.6172 22.273-1.1992 34.578-8.5117l.95312.19922-3.2461 3.8789c-11.426 6.0703-22.539 8.4102-32.641 6.8516-8.4102-1.2969-15.996-5.3555-22.203-11.848l.34375.38672-2.0391 33.574-2.0898-7.168c.52734-8.6602 1.1523-18.934 1.7656-29.051-1.1172-1.3359-2.1836-2.7539-3.1953-4.2578l-.42969-.64453zm-8.5742 2.4219c-3.1211 12.883-9.4297 24.211-19.668 32.766l-.12891-4.7109c7.8867-7.3203 13-16.523 15.848-27.035zm79.398 6.793-17.953 20.801c.10156-.004.20312-.0117.30469-.0117.15625-.004.30859 0 .46093.0117 1.2148.0859 2.3398.58594 3.1602 1.4297 1.3711 1.4102 1.8047 3.6992.99219 5.8281.70312-.22656 1.418-.30859 2.1055-.26171 1.2148.0859 2.3398.58593 3.1602 1.4297 1.1484 1.1836 1.6406 2.9805 1.2891 4.7852.50391-.10156 1.0039-.13672 1.4922-.10156 1.2148.0859 2.3398.58593 3.1602 1.4297 1.1445 1.1758 1.6328 2.9609 1.2969 4.7539.0352-.008.0664-.0156.10157-.0234.11718-.0234.23437-.0352.35156-.0352.10547-.004.20703.008.30469.0234l-.0469.26172c2.5703-13.211 8.4258-26.695 18.539-39.914l7.5586 5.082c-.45313 1.793-1.1758 4.5586-1.2891 6.543-.043.73047.0391 1.6367.16797 2.6641-18.586 27.898-15.961 54.609-4.6133 77.402-3.2148 4.0703-5.9102 8.5938-8.0859 13.469-5.2226-8.9844-9.3086-18.883-11.652-29.352l.0391.19532-35.125-36.691-14.398 16.684-2.5-2.6094 46.102-53.418zm31.527 8.3555c.64843.47266 1.7812.84766 3.1875 1.0547h-.0781c-1.2656.15234-2.3476.42578-3.1094.78125zm0 8.25c.51172.375 1.332.69141 2.3594.91016l-.125-.004c-.96094.21094-1.7383.52344-2.2344.90234zm-87.785 2.4844 3.0391 1.0078c-1.0039 3.1328-2.6719 7.7969-4.3906 10.273-1.2891 1.8555-3.3594 4.2852-5.293 6.4453 0 0-2.7383-1.4766-1.9258-2.4062 1.6055-1.8281 3.1914-3.7383 4.2461-5.2617 1.6797-2.418 3.3125-6.9297 4.3242-10.059zm6.1523 1.7773 3.1758.57031c-.92969 3.0234-2.8008 8.5898-4.7383 11.379-1.707 2.4609-4.7969 5.9375-7.1094 8.4414-.84766.92188-2.0078-2.2734-2.0078-2.2734 2.1523-2.3672 4.6641-5.2578 6.1484-7.3906 1.8008-2.5977 3.5508-7.6055 4.5312-10.727z" fill="#ffcc42"/>
  <path d="m35.25 279.75v-73.656c0 1.1836 2.793 2.1406 6.2383 2.1406 2.4219 0 4.6211-.48437 5.6445-1.2344v24.168c12.871 5.0312 17.5 13.188 19.613 22.297-6-5.0312-12.574-8.2383-19.613-9.9844v24.043zm0-73.656v-3.9727c0 .88672 1.6523 1.6484 4.0078 1.9727h.03516c-2.4297.3125-4.0391 1.1094-4.043 2zm0-3.9727v-4.2773c0 1.1797 2.793 2.1367 6.2383 2.1367 2.4219 0 4.6211-.48047 5.6445-1.2305v2.1406c-1.1797-.55078-3.1328-.91015-5.3477-.91015-3.6094 0-6.5352.96094-6.5352 2.1406zm0-4.2773v-127.14l11.883 12.223v110.29c-.92578-.69922-2.8359-1.1836-5.0508-1.1836-3.1172 0-5.6445.95703-5.6445 2.1406 0 .71484.93359 1.3516 2.3633 1.7383-2.168.35547-3.5469 1.1055-3.5508 1.9297zm103.74 61.691c.66015-2.4297 2.0312-7.5859 2.0312-8.5156 0-1.2227-1.1875-4.8867-1.1875-6.7227 0-1.832-1.1914-8.5586-2.3789-11.613-1.1875-3.0547-5.3477-11.004-5.9766-12.324.34375-2.2734 2.6211-4.0117 5.0156-4.6523l-.17968.004c-4.0234-2.9062-8.4922-4.7031-13.352-5.4531-8.1211-1.2539-17.5.51563-27.633 5.7617l-.07813-.0352c1.3789.89844 2.7461 2.6055 3.8867 5.5312 2.043 5.2266-2.6836 17.891 6.8242 36.84-8.082 0-15.879-.51172-22.727-2.7656-7.2383-15.656-6.875-26.254-9.2422-31.359.47266 4.7852-10.223 7.8438-10.223-1.3281 0-2.5156 1.8477-6.0859 5.1133-6.2461 7.7422-2.5742 15.445-4.4766 24.09-1.4961.28125.0273.56641.082.85938.16406l-1.2656-.58594c11.109-6.1133 21.57-8.3164 30.746-6.8984 6.207.95703 11.848 3.5547 16.762 7.7852l-.20703.004c1.1406.32031 2.043 1.0586 2.3945 2.3164 2.8594 3.4609 4.0664 5.3789 5.5625 7.5664.33594.73437.47266 1.6953.32422 2.8945-.59375 4.8906-5.9414 2.4453-5.9258.57812-.40235 1.2734-.60938 2.6875-.59375 4.3242 2.3008-.94531 5.332.70313 5.332 3.6524 0 4.8906-4.7539.61328-4.7539.61328s1.9961 15.098-2.0508 21.855zm10.492-36.777c-6.6094-9.8438-15.527-15.75-25.816-17.336-10.461-1.6172-22.273 1.1992-34.578 8.5117l-.95312-.19922 3.2461-3.8789c11.426-6.0703 22.539-8.4102 32.641-6.8516 8.4102 1.2969 15.996 5.3555 22.203 11.848l-.34375-.38672 2.0391-33.574 2.0898 7.168c-.52735 8.6602-1.1524 18.934-1.7656 29.051 1.1172 1.3359 2.1836 2.7539 3.1953 4.2578l.42968.64453zm8.5742-2.4219c3.1211-12.883 9.4297-24.211 19.668-32.766l.12891 4.7109c-7.8867 7.3203-13 16.523-15.848 27.035zm-79.398-6.793 17.953-20.801c-.10156.004-.20312.0117-.30469.0117-.15625.004-.30859 0-.46094-.0117-1.2148-.0859-2.3398-.58594-3.1602-1.4297-1.3711-1.4102-1.8047-3.6992-.99219-5.8281-.70312.22657-1.418.3086-2.1055.26172-1.2148-.0859-2.3398-.58593-3.1602-1.4297-1.1484-1.1836-1.6406-2.9805-1.2891-4.7852-.50391.10156-1.0039.13672-1.4922.10156-1.2148-.0859-2.3398-.58594-3.1602-1.4297-1.1445-1.1758-1.6328-2.9609-1.2969-4.7539-.03516.008-.06641.0156-.10156.0234-.11719.0234-.23438.0352-.35156.0352-.10547.004-.20703-.008-.30469-.0234l.04687-.26171c-2.5703 13.211-8.4258 26.695-18.539 39.914l-7.5586-5.082c.45313-1.793 1.1758-4.5586 1.2891-6.543.04297-.73047-.03906-1.6367-.16797-2.6641 18.586-27.898 15.961-54.609 4.6133-77.402 3.2148-4.0703 5.9102-8.5938 8.0859-13.469 5.2227 8.9844 9.3086 18.883 11.652 29.352l-.03906-.19531 35.125 36.691 14.398-16.684 2.5 2.6094-46.102 53.418zm-31.527-8.3555c-.64844-.47266-1.7812-.84766-3.1875-1.0547h.07813c1.2656-.15234 2.3477-.42578 3.1094-.78125zm0-8.25c-.51172-.375-1.332-.69141-2.3594-.91016l.125.004c.96094-.21094 1.7383-.52344 2.2344-.90234zm87.785-2.4844-3.0391-1.0078c1.0039-3.1328 2.6719-7.7969 4.3906-10.273 1.2891-1.8555 3.3594-4.2852 5.293-6.4453 0 0 2.7383 1.4766 1.9258 2.4062-1.6055 1.8281-3.1914 3.7383-4.2461 5.2617-1.6797 2.418-3.3125 6.9297-4.3242 10.059zm-6.1524-1.7773-3.1758-.57031c.92969-3.0234 2.8008-8.5898 4.7383-11.379 1.707-2.4609 4.7969-5.9375 7.1094-8.4414.84766-.92188 2.0078 2.2734 2.0078 2.2734-2.1523 2.3672-4.6641 5.2578-6.1484 7.3906-1.8008 2.5976-3.5508 7.6055-4.5312 10.727z" fill="#ffcc42"/>
  <path d="m166.04 35.25-18.738 20.242-3.0273-.59766c-17.824-3.4258-35.273-4.543-52.457-4.4648-2.457.01172-4.9062.04687-7.3516.10156l-4.0977.19141-14.328-15.473h10.738l8.75 13.289.39062-.0078c2.0703-.04687 4.168-.07422 6.2734-.08594 1.6875-.0078 3.375-.0039 5.1914.01953l.94141.01172-3.4453-13.227h12.129l.92188 13.496.63672.02734c3.4375.14453 6.9023.36328 10.414.65625l.65234.05469 2.2617-14.234h14.625l-5.3867 15.469.87891.11719c3.1133.41406 6.293.90234 9.4961 1.4805l.42188.07422 13.043-17.141zm-12.879 0-11.828 15.551c-2.7852-.49609-5.5469-.92188-8.2617-1.2969l4.9648-14.254zm-32.711 0-2.0117 12.668c-3.0898-.25-6.1445-.44141-9.1719-.57812l-.82813-12.09zm-27.047 0 3.0586 11.746c-1.4609-.015625-2.8867-.023438-4.2773-.015625-1.9805.0078-3.9531.03516-5.9102.07813l-7.7734-11.809zm96.348 6.1133v8.5586l-9.5078 9.7773v-8.5586zm0 18.336v13.43c-3.2461-.10938-6.418-.46094-9.5078-1.0781v-2.5703zm-26.848 8.1602c8.2031 5.0469 17.277 7.3984 26.848 7.7148v9.0391c-10.453-1.9844-17.055-5.2812-21.348-9.2305-2.4726-2.2695-4.2109-4.793-5.5-7.5234zm17.34 16.832c2.8008.94141 5.957 1.7461 9.5078 2.4023v1.3359l-9.5078 9.7773zm-21.641 12.734 6.5274 4.4844c-7.793 10.133-13.059 20.426-16.285 30.762l-15.559-16.09 13.055-15.125c4.0898-1.332 8.4024-1.5508 12.262-4.0312zm-102.6.27734 5.0312 4.0664-1.1641 2.8555h-7.9062l4.8125 6.1914-1.7031 2.6211-7.2969-1.25 2.1016 7.7734-1.4531 1.4844-1.3047-4.8359.07031-5.3047.72266-.95313 7.1758 1.2305-4.3633-5.6133 1.5547-3.1758h7.1367l-5.5469-4.4805zm133.75.50391v10.699c0-1.1836-2.793-2.1406-6.2383-2.1406-.75781 0-1.5117.0508-2.2188.14453zm0 10.699v3.9727c0-.88672-1.6523-1.6484-4.0078-1.9727h-.0352c2.4297-.3125 4.0391-1.1094 4.043-2zm0 3.9727v4.2773c0-1.1797-2.793-2.1367-6.2383-2.1367-1.1562 0-2.2891.10938-3.2695.32031v-.55859c.89062.15234 1.8984.23828 2.9726.23828 3.6094 0 6.5352-.96094 6.5352-2.1406zm0 4.2773v9.7812l-9.5078 9.7812v-14.008c.79687.16015 1.707.2539 2.6758.2539 3.1172 0 5.6445-.95703 5.6445-2.1406 0-.71484-.93359-1.3516-2.3633-1.7383 2.168-.35547 3.5469-1.1055 3.5508-1.9297zm-20.223-12.59c.12891-.004.25.0664.3125.17968.0664.11719.0664.25782 0 .3711-.0625.11328-.18359.18359-.3125.18359h-1.0469c-.12891 0-.2461-.0703-.3125-.18359-.0664-.11328-.0664-.25391 0-.3711.0664-.11328.18359-.18359.3125-.17968zm11.582 2.3672c-.30078.043-.58984.0937-.86718.15235v-.15235zm-8.8281.0781c.12891-.004.24609.0664.3125.17969.0625.11718.0625.25781 0 .37109-.0664.11328-.18359.18359-.3125.18359h-5.6211c-.12891 0-.25-.0703-.3125-.18359-.0664-.11328-.0664-.25391 0-.37109.0625-.11328.18359-.1836.3125-.17969zm-1.8398 2.4453c.1289-.004.24609.0664.3125.17969.0664.11328.0664.25781 0 .37109s-.1836.1836-.3125.17969h-5.4883c-.1289.004-.24609-.0664-.3125-.17969-.0625-.11328-.0625-.25781 0-.37109.0664-.11328.1836-.18359.3125-.17969zm9.8008 1.2695c.26172.0547.53515.10157.8164.14063h-.082c-.2539.0312-.49609.0664-.73437.10547zm-11.523 1.1758c.12891-.004.25.0664.3125.17969.0664.11328.0664.25781 0 .3711-.0625.11328-.18359.18359-.3125.17968h-5.3789c-.1289.004-.25-.0664-.3164-.17968-.0625-.11329-.0625-.25782 0-.3711.0664-.11328.1875-.18359.3164-.17969zm-1.625 2.4453c.12891-.004.25.0664.3125.17968.0664.11329.0664.25391 0 .3711-.0625.11328-.18359.18359-.3125.17969h-5.2852c-.1289.004-.24609-.0664-.3125-.17969-.0625-.11719-.0625-.25781 0-.3711.0664-.11328.1836-.18359.3125-.17968zm-1.5273 2.4414c.1289 0 .24609.0703.3125.1836.0625.11328.0625.2539 0 .37109-.0664.11328-.1836.18359-.3125.17969h-5.1875c-.12891.004-.2461-.0664-.3125-.17969-.0664-.11719-.0664-.25781 0-.37109s.18359-.1836.3125-.1836zm-1.4375 2.4453c.1289 0 .25.0703.3125.18359.0664.11328.0664.25391 0 .37109-.0625.11328-.1836.1836-.3125.17969h-5.0391c-.1289.004-.25-.0664-.3164-.17969-.0625-.11718-.0625-.25781 0-.37109.0664-.11328.1875-.18359.3164-.18359zm-71.008 2.3203 3.1133.76953c-.98047 3.1211-2.7305 8.1289-4.5312 10.727-1.5117 2.1719-4.0938 5.1367-6.2695 7.5234l-1.9961-2.3008c1.9336-2.1602 4.0039-4.5898 5.293-6.4453 1.7188-2.4766 3.3867-7.1406 4.3906-10.273zm69.668.125c.12891 0 .25.0703.3125.18359.0664.11328.0664.25391 0 .36719-.0625.11719-.18359.1875-.3125.18359h-4.9414c-.12891.004-.2461-.0664-.3125-.18359-.0664-.11328-.0664-.25391 0-.36719s.18359-.18359.3125-.18359zm-1.2226 2.4453c.1289 0 .24609.0703.3125.18359.0625.11329.0625.25391 0 .36719-.0664.11719-.1836.1836-.3125.1836h-4.875c-.12891 0-.25-.0664-.3125-.1836-.0664-.11328-.0664-.2539 0-.36719.0625-.11328.18359-.18359.3125-.18359zm-1.1367 2.4453c.1289 0 .25.0664.3125.1836.0664.11328.0664.2539 0 .36718-.0625.11719-.1836.1836-.3125.1836h-4.8086c-.1289 0-.25-.0664-.3125-.1836-.0664-.11328-.0664-.2539 0-.36718.0625-.11719.1836-.1836.3125-.1836zm-1.0469 2.4453c.12891 0 .2461.0664.3125.1836.0664.11328.0664.2539 0 .36719-.0664.11328-.18359.18359-.3125.18359h-4.7461c-.12891 0-.2461-.0703-.3125-.18359-.0625-.11329-.0625-.25391 0-.36719.0664-.11719.18359-.1836.3125-.1836zm-.96094 2.4453c.12891-.004.2461.0664.3125.18359.0664.11328.0664.25391 0 .36719s-.18359.18359-.3125.18359h-4.6523c-.12891 0-.24609-.0703-.3125-.18359-.0664-.11328-.0664-.25391 0-.36719.0664-.11719.18359-.1875.3125-.18359zm-.875 2.4453c.12891-.004.25.0664.3125.17969.0664.11718.0664.25781 0 .37109-.0625.11328-.18359.18359-.3125.18359h-4.5859c-.12891 0-.25-.0703-.31641-.18359-.0625-.11328-.0625-.25391 0-.37109.0664-.11328.1875-.1836.31641-.17969zm-.77343 2.4453c.1289-.004.25.0664.3125.17969.0664.11719.0664.25781 0 .37109-.0625.11328-.1836.1836-.3125.1836h-4.5469c-.1289 0-.25-.0703-.3125-.1836-.0664-.11328-.0664-.2539 0-.37109.0625-.11328.1836-.18359.3125-.17969zm32.977.36719v28.727l-9.5078 9.7812v-28.73zm-33.66 2.0781c.12891-.004.25.0664.3125.17969.0664.11719.0664.25781 0 .3711-.0625.11328-.18359.18359-.3125.17968h-4.4922c-.12891.004-.2461-.0664-.3125-.17968-.0664-.11329-.0664-.25391 0-.3711.0664-.11328.18359-.18359.3125-.17969zm-.59765 2.4453c.1289-.004.24609.0664.3125.17968.0664.11329.0664.25782 0 .3711s-.1836.18359-.3125.17969h-4.4492c-.12891.004-.25-.0664-.3125-.17969-.0664-.11328-.0664-.25781 0-.3711.0625-.11328.18359-.18359.3125-.17968zm-.51953 2.4453c.1289-.004.25.0664.3164.17969.0625.11328.0625.25781 0 .37109-.0664.11328-.1875.18359-.3164.17969h-4.4141c-.1289.004-.24609-.0664-.3125-.17969-.0664-.11328-.0664-.25781 0-.37109s.1836-.1836.3125-.17969zm-.4336 2.4414c.12891 0 .2461.0703.3125.18359.0664.11328.0664.25391 0 .37109-.0664.11328-.18359.1836-.3125.17969h-4.3906c-.12891.004-.25-.0664-.3125-.17969-.0664-.11718-.0664-.25781 0-.37109.0625-.11328.18359-.18359.3125-.18359zm-.35547 2.4453c.12891 0 .25.0703.3125.18359.0664.11328.0664.25391 0 .3711-.0625.11328-.18359.18359-.3125.17968h-4.3516c-.12891.004-.25-.0664-.3125-.17968-.0664-.11719-.0664-.25782 0-.3711.0625-.11328.18359-.18359.3125-.18359zm-.26172 2.4453c.12891 0 .25.0703.3125.18359.0664.11329.0664.25391 0 .3711-.0625.11328-.18359.18359-.3125.17969h-4.332c-.1289.004-.24609-.0664-.3125-.17969-.0664-.11719-.0664-.25781 0-.3711.0664-.11328.1836-.18359.3125-.18359zm-.17578 2.4453c.12891 0 .2461.0703.3125.1836.0664.11328.0664.2539 0 .36718-.0664.11719-.18359.1836-.3125.1836h-4.3281c-.125 0-.2461-.0664-.3125-.1836-.0625-.11328-.0625-.2539 0-.36718.0664-.11328.1875-.1836.3125-.1836zm-.0977 2.4453c.125 0 .24609.0664.3125.18359.0625.11328.0625.25391 0 .36719-.0664.11718-.1875.18359-.3125.18359h-4.3047c-.12891 0-.25-.0664-.3125-.18359-.0664-.11328-.0664-.25391 0-.36719.0625-.11719.18359-.18359.3125-.18359zm-.0234 2.4453c.12891 0 .25.0664.3125.18359.0664.11328.0664.25391 0 .36719-.0625.11719-.18359.18359-.3125.18359h-4.2812c-.12891 0-.25-.0664-.3125-.18359-.0664-.11328-.0664-.25391 0-.36719.0625-.11719.18359-.18359.3125-.18359zm.0586 2.4453c.12891 0 .25.0664.3125.18359.0664.11329.0664.25391 0 .36719-.0625.11328-.18359.1836-.3125.1836h-4.3281c-.12891 0-.2461-.0703-.3125-.1836-.0664-.11328-.0664-.2539 0-.36719.0664-.11718.18359-.18359.3125-.18359zm.13672 2.4453c.12891-.004.2461.0664.3125.17969.0625.11719.0625.25781 0 .37109-.0664.11329-.18359.1836-.3125.1836h-4.332c-.12891 0-.25-.0703-.3125-.1836-.0664-.11328-.0664-.2539 0-.37109.0625-.11328.18359-.18359.3125-.17969zm.21094 2.4453c.12891-.004.25.0664.3125.17968.0664.11719.0664.25782 0 .3711-.0625.11328-.18359.18359-.3125.18359h-4.3438c-.12891 0-.25-.0703-.3125-.18359-.0664-.11328-.0664-.25391 0-.3711.0625-.11328.18359-.18359.3125-.17968zm.30078 2.4453c.12891-.004.24609.0664.3125.17969.0625.11718.0625.25781 0 .37109-.0664.11328-.18359.18359-.3125.18359h-4.375c-.12891 0-.25-.0703-.31641-.18359-.0625-.11328-.0625-.25391 0-.37109.0664-.11329.1875-.1836.31641-.17969zm.375 2.4453c.12891-.004.25.0664.31641.17969.0625.11328.0625.25781 0 .37109-.0664.11328-.1875.1836-.31641.17969h-4.4102c-.1289.004-.24609-.0664-.3125-.17969-.0625-.11328-.0625-.25781 0-.37109.0664-.11328.1836-.1836.3125-.17969zm.45703 2.4453c.12891-.004.2461.0664.3125.17969.0664.11328.0664.25781 0 .37109-.0664.11329-.18359.1836-.3125.17969h-4.4414c-.125.004-.2461-.0664-.3125-.17969-.0625-.11328-.0625-.25781 0-.37109.0664-.11328.1875-.18359.3125-.17969zm34.586 2.1992v28.727l-9.5078 9.7812v-28.727zm-34.055.2461c.12891-.004.2461.0664.3125.17968s.0664.25391 0 .3711c-.0664.11328-.18359.18359-.3125.17968h-4.4766c-.12891.004-.24609-.0664-.3125-.17968-.0664-.11719-.0664-.25782 0-.3711s.18359-.18359.3125-.17968zm.60547 2.4414c.12891 0 .25.0703.3125.1836.0664.11328.0664.2539 0 .37109-.0625.11328-.18359.18359-.3125.17969h-4.5195c-.12891.004-.24609-.0664-.3125-.17969-.0625-.11719-.0625-.25781 0-.37109.0664-.11329.18359-.1836.3125-.1836zm.68359 2.4453c.12891 0 .25.0703.3125.1836.0664.11328.0664.2539 0 .37109-.0625.11328-.18359.1836-.3125.17969h-4.5664c-.12891.004-.25-.0664-.31641-.17969-.0625-.11719-.0625-.25781 0-.37109.0664-.11328.1875-.1836.31641-.1836zm.76172 2.4453c.12891 0 .2461.0703.3125.18359.0664.11328.0664.25391 0 .36719-.0664.11719-.18359.1875-.3125.18359h-4.625c-.1289.004-.25-.0664-.3125-.18359-.0664-.11328-.0664-.25391 0-.36719.0625-.11328.1836-.18359.3125-.18359zm.83594 2.4453c.12891 0 .25.0703.3125.18359.0664.11328.0664.25391 0 .36719-.0625.11719-.18359.18359-.3125.18359h-4.6836c-.12891 0-.2461-.0664-.3125-.18359-.0625-.11328-.0625-.25391 0-.36719.0664-.11328.18359-.18359.3125-.18359zm.91406 2.4453c.12891 0 .25.0664.3125.1836.0664.11328.0664.2539 0 .36718-.0625.11719-.18359.1836-.3125.1836h-4.7344c-.12891 0-.25-.0664-.3125-.1836-.0664-.11328-.0664-.2539 0-.36718.0625-.11719.18359-.1836.3125-.1836zm.99219 2.4453c.12891 0 .24609.0664.3125.1836.0664.11328.0664.2539 0 .36719-.0664.11328-.18359.18359-.3125.18359h-4.793-.004-.004c-.19141 0-.35156-.16016-.35547-.35938-.004-.19531.14453-.36328.33594-.375h.0234zm1.0703 2.4453c.12891-.004.2461.0664.3125.18359.0625.11328.0625.25391 0 .36719-.0664.11328-.18359.18359-.3125.18359h-4.8594c-.12891 0-.25-.0703-.3125-.18359-.0664-.11328-.0664-.25391 0-.36719.0625-.11719.18359-.1875.3125-.18359zm1.1484 2.4453c.125-.004.24609.0664.3125.17969.0625.11718.0625.25781 0 .37109-.0664.11328-.1875.18359-.3125.18359h-4.9297c-.1289 0-.24609-.0703-.3125-.18359-.0664-.11328-.0664-.25391 0-.37109.0664-.11328.1836-.1836.3125-.17969zm1.082 2.4453c.12891-.004.25.0664.3125.17969.0664.11719.0664.25781 0 .37109-.0625.11328-.18359.1836-.3125.1836h-4.8555c-.1289 0-.25-.0703-.3164-.1836-.0625-.11328-.0625-.2539 0-.37109.0664-.11328.1875-.18359.3164-.17969zm-1.5234 2.4453c.12891-.004.25.0664.3125.17969.0664.11719.0664.25781 0 .3711-.0625.11328-.18359.18359-.3125.17968h-2.1172c-.12891.004-.25-.0664-.3125-.17968-.0664-.11329-.0664-.25391 0-.3711.0625-.11328.18359-.18359.3125-.17969zm27.484 13.809v24.453l-9.5078-9.7773v-4.9844z" fill="#f00"/>
  <path d="m58.961 279.75 18.738-20.242 3.0273.59766c17.824 3.4258 35.273 4.543 52.457 4.4648 2.457-.0117 4.9062-.0469 7.3516-.10156l4.0976-.19141 14.328 15.473h-10.738l-8.75-13.289-.39063.008c-2.0703.0469-4.168.0742-6.2734.0859-1.6875.008-3.375.004-5.1914-.0195l-.94141-.0117 3.4453 13.227h-12.129l-.92188-13.496-.63672-.0274c-3.4375-.14453-6.9023-.36328-10.414-.65625l-.65234-.0547-2.2617 14.234h-14.625l5.3867-15.469-.87891-.11719c-3.1133-.4142-6.293-.90248-9.4961-1.4806l-.42188-.07422-13.043 17.141zm12.879 0 11.828-15.551c2.7852.49609 5.5469.92187 8.2617 1.2969l-4.9648 14.254zm32.711 0 2.0117-12.668c3.0898.25 6.1445.44141 9.1719.57813l.82812 12.09zm27.047 0-3.0586-11.746c1.4609.0156 2.8867.0234 4.2774.0156 1.9805-.008 3.9531-.0352 5.9102-.0781l7.7734 11.809zm-96.348-6.1133v-8.5586l9.5078-9.7773v8.5586zm0-18.336v-13.43c3.2461.10938 6.418.46094 9.5078 1.0781v2.5703zm26.848-8.1602c-8.2031-5.0469-17.277-7.3984-26.848-7.7148v-9.0391c10.453 1.9844 17.055 5.2812 21.348 9.2305 2.4727 2.2695 4.2109 4.793 5.5 7.5234zm-17.34-16.832c-2.8008-.9414-5.957-1.7461-9.5078-2.4023v-1.3359l9.5078-9.7773zm21.641-12.734-6.5273-4.4844c7.793-10.133 13.059-20.426 16.285-30.762l15.559 16.09-13.055 15.125c-4.0898 1.332-8.4023 1.5508-12.262 4.0312zm102.6-.27735-5.0312-4.0664 1.1641-2.8555h7.9062l-4.8125-6.1914 1.7031-2.6211 7.2969 1.25-2.1016-7.7734 1.4531-1.4844 1.3047 4.8359-.0703 5.3047-.72266.95313-7.1758-1.2305 4.3633 5.6133-1.5547 3.1758h-7.1367l5.5469 4.4805zm-133.75-.5039v-10.699c0 1.1836 2.793 2.1406 6.2383 2.1406.75781 0 1.5117-.0508 2.2188-.14453zm0-10.699v-3.9727c0 .88672 1.6523 1.6484 4.0078 1.9727h.03516c-2.4297.3125-4.0391 1.1094-4.043 2zm0-3.9727v-4.2773c0 1.1797 2.793 2.1367 6.2383 2.1367 1.1562 0 2.2891-.10938 3.2695-.32031v.55859c-.89062-.15234-1.8984-.23828-2.9727-.23828-3.6094 0-6.5352.96094-6.5352 2.1406zm0-4.2773v-9.7812l9.5078-9.7812v14.008c-.79687-.16015-1.707-.2539-2.6758-.2539-3.1172 0-5.6445.95703-5.6445 2.1406 0 .71484.93359 1.3516 2.3633 1.7383-2.168.35547-3.5469 1.1055-3.5508 1.9297zm20.223 12.59c-.12891.004-.25-.0664-.3125-.17968-.06641-.11719-.06641-.25782 0-.3711.0625-.11328.18359-.18359.3125-.18359h1.0469c.12891 0 .24609.0703.3125.18359.06641.11328.06641.25391 0 .3711-.06641.11328-.18359.18359-.3125.17968zm-11.582-2.3672c.30078-.043.58984-.0937.86719-.15235v.15235zm8.8281-.0781c-.12891.004-.24609-.0664-.3125-.17969-.0625-.11718-.0625-.25781 0-.37109.06641-.11328.18359-.18359.3125-.18359h5.6211c.12891 0 .25.0703.3125.18359.06641.11328.06641.25391 0 .37109-.0625.11328-.18359.1836-.3125.17969zm1.8398-2.4453c-.12891.004-.24609-.0664-.3125-.17969-.06641-.11328-.06641-.25781 0-.37109s.18359-.1836.3125-.17969h5.4883c.12891-.004.24609.0664.3125.17969.0625.11328.0625.25781 0 .37109-.06641.11328-.18359.18359-.3125.17969zm-9.8008-1.2695c-.26172-.0547-.53516-.10157-.81641-.14063h.08203c.25391-.0312.49609-.0664.73437-.10547zm11.523-1.1758c-.12891.004-.25-.0664-.3125-.17969-.06641-.11328-.06641-.25781 0-.3711.0625-.11328.18359-.18359.3125-.17968h5.3789c.12891-.004.25.0664.31641.17968.0625.11329.0625.25782 0 .3711-.06641.11328-.1875.18359-.31641.17969zm1.625-2.4453c-.12891.004-.25-.0664-.3125-.17968-.06641-.11329-.06641-.25391 0-.3711.0625-.11328.18359-.18359.3125-.17969h5.2852c.12891-.004.24609.0664.3125.17969.0625.11719.0625.25781 0 .3711-.06641.11328-.18359.18359-.3125.17968zm1.5273-2.4414c-.12891 0-.24609-.0703-.3125-.1836-.0625-.11328-.0625-.2539 0-.37109.06641-.11328.18359-.18359.3125-.17969h5.1875c.12891-.004.24609.0664.3125.17969.06641.11719.06641.25781 0 .37109s-.18359.1836-.3125.1836zm1.4375-2.4453c-.12891 0-.25-.0703-.3125-.18359-.06641-.11328-.06641-.25391 0-.37109.0625-.11328.18359-.1836.3125-.17969h5.0391c.12891-.004.25.0664.31641.17969.0625.11718.0625.25781 0 .37109-.06641.11328-.1875.18359-.31641.18359zm71.008-2.3203-3.1133-.76953c.98047-3.1211 2.7305-8.1289 4.5312-10.727 1.5117-2.1719 4.0938-5.1367 6.2695-7.5234l1.9961 2.3008c-1.9336 2.1602-4.0039 4.5898-5.293 6.4453-1.7188 2.4766-3.3867 7.1406-4.3906 10.273zm-69.668-.125c-.12891 0-.25-.0703-.3125-.18359-.06641-.11328-.06641-.25391 0-.36719.0625-.11719.18359-.1875.3125-.18359h4.9414c.12891-.004.24609.0664.3125.18359.06641.11328.06641.25391 0 .36719s-.18359.18359-.3125.18359zm1.2227-2.4453c-.12891 0-.24609-.0703-.3125-.18359-.0625-.11329-.0625-.25391 0-.36719.06641-.11719.18359-.1836.3125-.1836h4.875c.12891 0 .25.0664.3125.1836.06641.11328.06641.2539 0 .36719-.0625.11328-.18359.18359-.3125.18359zm1.1367-2.4453c-.12891 0-.25-.0664-.3125-.1836-.06641-.11328-.06641-.2539 0-.36718.0625-.11719.18359-.1836.3125-.1836h4.8086c.12891 0 .25.0664.3125.1836.06641.11328.06641.2539 0 .36718-.0625.11719-.18359.1836-.3125.1836zm1.0469-2.4453c-.12891 0-.24609-.0664-.3125-.18359-.06641-.11328-.06641-.25391 0-.36719s.18359-.18359.3125-.18359h4.7461c.12891 0 .24609.0703.3125.18359.0625.11328.0625.25391 0 .36719-.06641.11719-.18359.18359-.3125.18359zm.96094-2.4453c-.12891.004-.24609-.0664-.3125-.18359-.06641-.11328-.06641-.25391 0-.36719s.18359-.18359.3125-.18359h4.6523c.12891 0 .24609.0703.3125.18359.06641.11328.06641.25391 0 .36719-.06641.11719-.18359.1875-.3125.18359zm.875-2.4453c-.12891.004-.25-.0664-.3125-.17969-.06641-.11719-.06641-.25781 0-.37109.0625-.11328.18359-.1836.3125-.1836h4.5859c.12891 0 .25.0703.31641.1836.0625.11328.0625.2539 0 .37109-.06641.11328-.1875.1836-.31641.17969zm.77344-2.4453c-.12891.004-.25-.0664-.3125-.17969-.06641-.11719-.06641-.25781 0-.37109.0625-.11329.18359-.1836.3125-.1836h4.5469c.12891 0 .25.0703.3125.1836.06641.11328.06641.2539 0 .37109-.0625.11328-.18359.18359-.3125.17969zm-32.977-.36722v-28.727l9.5078-9.7812v28.73zm33.66-2.0781c-.12891.004-.25-.0664-.3125-.17968-.06641-.11719-.06641-.25782 0-.3711.0625-.11328.18359-.18359.3125-.17968h4.4922c.12891-.004.24609.0664.3125.17968.06641.11328.06641.25391 0 .3711-.06641.11328-.18359.18359-.3125.17968zm.59766-2.4453c-.12891.004-.24609-.0664-.3125-.17969-.06641-.11328-.06641-.25781 0-.37109s.18359-.18359.3125-.17969h4.4492c.12891-.004.25.0664.3125.17969.06641.11328.06641.25781 0 .37109-.0625.11329-.18359.1836-.3125.17969zm.51953-2.4453c-.12891.004-.25-.0664-.31641-.17969-.0625-.11328-.0625-.25781 0-.37109.06641-.11328.1875-.1836.31641-.17969h4.4141c.12891-.004.24609.0664.3125.17969.06641.11328.06641.25781 0 .37109s-.18359.1836-.3125.17969zm.43359-2.4414c-.12891 0-.24609-.0703-.3125-.18359-.06641-.11328-.06641-.25391 0-.37109.06641-.11329.18359-.1836.3125-.17969h4.3906c.12891-.004.25.0664.3125.17969.06641.11718.06641.25781 0 .37109-.0625.11328-.18359.18359-.3125.18359zm.35547-2.4453c-.12891 0-.25-.0703-.3125-.18359-.06641-.11328-.06641-.25391 0-.3711.0625-.11328.18359-.18359.3125-.17968h4.3516c.12891-.004.25.0664.3125.17968.06641.11719.06641.25782 0 .3711-.0625.11328-.18359.18359-.3125.18359zm.26172-2.4453c-.12891 0-.25-.0703-.3125-.1836-.06641-.11328-.06641-.2539 0-.37109.0625-.11328.18359-.18359.3125-.17969h4.332c.12891-.004.24609.0664.3125.17969.06641.11719.06641.25781 0 .37109-.06641.11329-.18359.1836-.3125.1836zm.17578-2.4453c-.12891 0-.24609-.0703-.3125-.1836-.06641-.11328-.06641-.2539 0-.36719.06641-.11718.18359-.18359.3125-.18359h4.3281c.125 0 .24609.0664.3125.18359.0625.11329.0625.25391 0 .36719-.06641.11328-.1875.1836-.3125.1836zm.09766-2.4453c-.125 0-.24609-.0664-.3125-.18359-.0625-.11328-.0625-.25391 0-.36719.06641-.11719.1875-.18359.3125-.18359h4.3047c.12891 0 .25.0664.3125.18359.06641.11328.06641.25391 0 .36719-.0625.11719-.18359.18359-.3125.18359zm.02344-2.4453c-.12891 0-.25-.0664-.3125-.18359-.06641-.11328-.06641-.25391 0-.36719.0625-.11719.18359-.18359.3125-.18359h4.2812c.12891 0 .25.0664.3125.18359.06641.11328.06641.25391 0 .36719-.0625.11718-.18359.18359-.3125.18359zm-.05859-2.4453c-.12891 0-.25-.0664-.3125-.1836-.06641-.11328-.06641-.2539 0-.36718.0625-.11328.18359-.1836.3125-.1836h4.3281c.12891 0 .24609.0703.3125.1836.06641.11328.06641.2539 0 .36718-.06641.11719-.18359.1836-.3125.1836zm-.13672-2.4453c-.12891.004-.24609-.0664-.3125-.17969-.0625-.11719-.0625-.25781 0-.3711.06641-.11328.18359-.18359.3125-.18359h4.332c.12891 0 .25.0703.3125.18359.06641.11329.06641.25391 0 .3711-.0625.11328-.18359.18359-.3125.17969zm-.21094-2.4453c-.12891.004-.25-.0664-.3125-.17968-.06641-.11719-.06641-.25782 0-.3711.0625-.11328.18359-.18359.3125-.18359h4.3438c.12891 0 .25.0703.3125.18359.06641.11328.06641.25391 0 .3711-.0625.11328-.18359.18359-.3125.17968zm-.30078-2.4453c-.12891.004-.24609-.0664-.3125-.17969-.0625-.11718-.0625-.25781 0-.37109.06641-.11328.18359-.18359.3125-.18359h4.375c.12891 0 .25.0703.31641.18359.0625.11328.0625.25391 0 .37109-.06641.11328-.1875.1836-.31641.17969zm-.375-2.4453c-.12891.004-.25-.0664-.31641-.17969-.0625-.11328-.0625-.25781 0-.37109.06641-.11328.1875-.1836.31641-.17969h4.4102c.12891-.004.24609.0664.3125.17969.0625.11328.0625.25781 0 .37109-.06641.11328-.18359.18359-.3125.17969zm-.45703-2.4453c-.12891.004-.24609-.0664-.3125-.17969-.06641-.11328-.06641-.25781 0-.3711.06641-.11328.18359-.18359.3125-.17968h4.4414c.125-.004.24609.0664.3125.17968.0625.11329.0625.25782 0 .3711-.06641.11328-.1875.18359-.3125.17969zm-34.586-2.1992v-28.727l9.5078-9.7812v28.727zm34.055-.2461c-.12891.004-.24609-.0664-.3125-.17968-.06641-.11329-.06641-.25391 0-.3711.06641-.11328.18359-.18359.3125-.17969h4.4766c.12891-.004.24609.0664.3125.17969.06641.11719.06641.25781 0 .3711-.06641.11328-.18359.18359-.3125.17968zm-.60547-2.4414c-.12891 0-.25-.0703-.3125-.1836-.06641-.11328-.06641-.2539 0-.37109.0625-.11328.18359-.18359.3125-.17969h4.5195c.12891-.004.24609.0664.3125.17969.0625.11719.0625.25781 0 .37109-.06641.11328-.18359.1836-.3125.1836zm-.68359-2.4453c-.12891 0-.25-.0703-.3125-.18359-.06641-.11328-.06641-.25391 0-.37109.0625-.11328.18359-.1836.3125-.17969h4.5664c.12891-.004.25.0664.31641.17969.0625.11718.0625.25781 0 .37109-.06641.11328-.1875.18359-.31641.18359zm-.76172-2.4453c-.12891 0-.24609-.0703-.3125-.18359-.06641-.11328-.06641-.25391 0-.36719.06641-.11719.18359-.1875.3125-.18359h4.625c.12891-.004.25.0664.3125.18359.06641.11328.06641.25391 0 .36719-.0625.11328-.18359.18359-.3125.18359zm-.83594-2.4453c-.12891 0-.25-.0703-.3125-.18359-.06641-.11329-.06641-.25391 0-.36719.0625-.11719.18359-.1836.3125-.1836h4.6836c.12891 0 .24609.0664.3125.1836.0625.11328.0625.2539 0 .36719-.06641.11328-.18359.18359-.3125.18359zm-.91406-2.4453c-.12891 0-.25-.0664-.3125-.1836-.06641-.11328-.06641-.2539 0-.36718.0625-.11719.18359-.1836.3125-.1836h4.7344c.12891 0 .25.0664.3125.1836.06641.11328.06641.2539 0 .36718-.0625.11719-.18359.1836-.3125.1836zm-.99219-2.4453c-.12891 0-.24609-.0664-.3125-.1836-.06641-.11328-.06641-.2539 0-.36719.06641-.11328.18359-.18359.3125-.18359h4.793.0039.0039c.19141 0 .35156.16016.35547.35938.0039.19531-.14453.36328-.33594.375h-.02344zm-1.0703-2.4453c-.12891.004-.24609-.0664-.3125-.18359-.0625-.11328-.0625-.25391 0-.36719.06641-.11328.18359-.18359.3125-.18359h4.8594c.12891 0 .25.0703.3125.18359.06641.11328.06641.25391 0 .36719-.0625.11719-.18359.1875-.3125.18359zm-1.1484-2.4453c-.125.004-.24609-.0664-.3125-.17969-.0625-.11718-.0625-.25781 0-.37109.06641-.11328.1875-.18359.3125-.18359h4.9297c.12891 0 .24609.0703.3125.18359.06641.11328.06641.25391 0 .37109-.06641.11328-.18359.1836-.3125.17969zm-1.082-2.4453c-.12891.004-.25-.0664-.3125-.17969-.06641-.11719-.06641-.25781 0-.37109.0625-.11328.18359-.1836.3125-.1836h4.8555c.12891 0 .25.0703.31641.1836.0625.11328.0625.2539 0 .37109-.06641.11328-.1875.18359-.31641.17969zm1.5234-2.4453c-.12891.004-.25-.0664-.3125-.17969-.06641-.11719-.06641-.25781 0-.3711.0625-.11328.18359-.18359.3125-.17968h2.1172c.12891-.004.25.0664.3125.17968.06641.11329.06641.25391 0 .3711-.0625.11328-.18359.18359-.3125.17969zm-27.484-13.809v-24.453l9.5078 9.7773v4.9844z" fill="#f00"/>
  <path d="m129.26 127.91c-1.0703 0-3.3672-.14843-3.8047.49219-2.2578 3.3008-4.0469 6.6172-7.3672 8.0664-.69922.30468-1.2188 2.6797-.23828 3.1797 4.5664 2.332 6.4375-5.3906 7.6055-8.6797.86718-2.4414 3.2148-2 3.6836-2.0781.71484-.125.4414-.98047.12109-.98047zm6.2578 6.9961c-1.0703 0-3.3633-.14844-3.8047.49218-2.2578 3.3008-4.043 6.6172-7.3672 8.0664-.69922.30469-1.2188 2.6797-.23828 3.1797 4.5664 2.332 6.4375-5.3906 7.6055-8.6797.87109-2.4414 3.2188-2 3.6875-2.0781.71093-.12109.4375-.98046.11718-.98046zm5.9414 6.1133c-1.0703 0-3.3633-.14844-3.8008.48828-2.2578 3.3008-4.0469 6.6211-7.3711 8.0703-.69922.30469-1.2188 2.6758-.23438 3.1797 4.5625 2.3281 6.4375-5.3906 7.6055-8.6797.86719-2.4414 3.2148-2 3.6836-2.0781.71094-.125.4375-.98047.11719-.98047zm4.1719 6.1016c-.90235.0234-1.7774.12891-2.0312.5-2.2578 3.3008-4.0469 6.6211-7.3672 8.0703-.70313.30469-1.2188 2.6758-.23828 3.1758 4.5664 2.332 6.4375-5.3867 7.6055-8.6797.42187-1.1836 1.1953-1.6914 1.9297-1.9062m-.49609 11.547c-.83594.81641-1.7656 1.4961-2.8594 1.9766-.69921.30469-1.2188 2.6758-.23828 3.1758 1.293.66016 2.3711.51563 3.2774-.10937m-38.328-95.395c0 1.3516.72657 2.4453 1.6211 2.4453s1.6211-1.0938 1.6211-2.4453c0-1.3516-.72656-2.4453-1.6211-2.4453s-1.6211 1.0938-1.6211 2.4453zm-19.34.55078c0 1.3711.66406 2.4805 1.4844 2.4805.82031 0 1.4844-1.1094 1.4844-2.4805s-.66406-2.4805-1.4844-2.4805c-.82031 0-1.4844 1.1094-1.4844 2.4805zm-21.309 37.871c2.0234-4.5625 3.5508-9.3711 4.625-14.355l2.2695-.55859.42969.64453c1.0078 1.5 2.0703 2.9141 3.1914 4.2422-.60938 10.121-1.2344 20.402-1.7891 29.059-2.3086-6.6758-5.2695-13.047-8.7266-19.031zm-12.516-9.5742-6.5586 1.8203m6.5586-1.8203c-.41797 3.3008-3.6133 9.4766-6.5312 12.977l-.02734-11.156m126.24 21.41c.51953.92579 1.0547 1.5508 1.5742 1.7227 1.7891.59766 2.8945-1.2383 2.8945-1.2383l-.0117 60.75c-2.8477 2.1914-5.4336 4.5312-7.8516 7.0195-9.7578-20.492-11.961-43.57 3.3945-68.254zm4.4688 110.52 13.07 13.445m-43.32-108.46-16.832-17.582-2.4766 2.7852c.12891-.0117.25782-.0195.38282-.0195.15625-.004.30859 0 .46093.0117 1.2148.0859 2.3398.58594 3.1602 1.4297 1.3711 1.4102 1.8047 3.6992.99219 5.8281.70312-.22656 1.418-.30859 2.1055-.26171 1.2148.0859 2.3398.58593 3.1602 1.4297 1.1484 1.1836 1.6406 2.9805 1.2891 4.7852.50391-.10156 1.0039-.13672 1.4922-.10156 1.2148.0859 2.3398.58593 3.1602 1.4297 1.1445 1.1758 1.6328 2.9609 1.2969 4.7539.0352-.008.0664-.0156.10157-.0234.11718-.0234.23437-.0352.35156-.0352.10547-.004.20703.008.30469.0234zm-88.598-38.242c0 .67578.53125 1.2227 1.1875 1.2227s1.1875-.54688 1.1875-1.2227c0-.67578-.53125-1.2227-1.1875-1.2227s-1.1875.54688-1.1875 1.2227zm-3.5664 7.9453c0 .67578.53125 1.2226 1.1875 1.2226s1.1914-.54687 1.1914-1.2226c0-.67579-.53516-1.2227-1.1914-1.2227s-1.1875.54687-1.1875 1.2227zm-5.3477 8.5586c0 .67578.53125 1.2227 1.1875 1.2227s1.1914-.54688 1.1914-1.2227-.53516-1.2227-1.1914-1.2227-1.1875.54688-1.1875 1.2227z" fill="#4242ff"/>
  <path d="m95.742 187.09c1.0703 0 3.3672.14843 3.8047-.49219 2.2578-3.3008 4.0469-6.6172 7.3672-8.0664.69922-.30468 1.2188-2.6797.23828-3.1797-4.5664-2.332-6.4375 5.3906-7.6055 8.6797-.86719 2.4414-3.2148 2-3.6836 2.0781-.71484.125-.44141.98047-.12109.98047zm-6.2578-6.9961c1.0703 0 3.3633.14844 3.8047-.49218 2.2578-3.3008 4.043-6.6172 7.3672-8.0664.69922-.30469 1.2188-2.6797.23828-3.1797-4.5664-2.332-6.4375 5.3906-7.6055 8.6797-.87109 2.4414-3.2188 2-3.6875 2.0781-.71094.1211-.4375.98047-.11719.98047zm-5.9414-6.1133c1.0703 0 3.3633.14844 3.8008-.48828 2.2578-3.3008 4.0469-6.6211 7.3711-8.0703.69922-.30469 1.2188-2.6758.23438-3.1797-4.5625-2.3281-6.4375 5.3906-7.6055 8.6797-.86719 2.4414-3.2148 2-3.6836 2.0781-.71094.125-.4375.98047-.11719.98047zm-4.1719-6.1016c.90234-.0234 1.7773-.12891 2.0312-.5 2.2578-3.3008 4.0469-6.6211 7.3672-8.0703.70312-.30469 1.2188-2.6758.23828-3.1758-4.5664-2.332-6.4375 5.3867-7.6055 8.6797-.42188 1.1836-1.1953 1.6914-1.9297 1.9062m.49609-11.547c.83594-.81641 1.7656-1.4961 2.8594-1.9766.69922-.30469 1.2188-2.6758.23828-3.1758-1.293-.66015-2.3711-.51562-3.2773.10938m38.328 95.395c0-1.3516-.72656-2.4453-1.6211-2.4453-.89453 0-1.6211 1.0938-1.6211 2.4453s.72656 2.4453 1.6211 2.4453c.89454 0 1.6211-1.0938 1.6211-2.4453zm19.34-.55078c0-1.3711-.66406-2.4805-1.4844-2.4805-.82032 0-1.4844 1.1094-1.4844 2.4805s.66406 2.4805 1.4844 2.4805c.82031 0 1.4844-1.1094 1.4844-2.4805zm21.309-37.871c-2.0234 4.5625-3.5508 9.3711-4.625 14.355l-2.2695.5586-.42968-.64453c-1.0078-1.5-2.0703-2.9141-3.1914-4.2422.60937-10.121 1.2344-20.402 1.7891-29.059 2.3086 6.6758 5.2695 13.047 8.7266 19.031zm12.516 9.5742 6.5586-1.8203m-6.5586 1.8203c.41797-3.3008 3.6133-9.4766 6.5312-12.977l.0273 11.156m-126.24-21.41c-.51953-.92579-1.0547-1.5508-1.5742-1.7227-1.7891-.59766-2.8945 1.2383-2.8945 1.2383l.01172-60.75c2.8477-2.1914 5.4336-4.5312 7.8516-7.0195 9.7578 20.492 11.961 43.57-3.3945 68.254zm-4.4688-110.52-13.07-13.445m43.32 108.46 16.832 17.582 2.4766-2.7852c-.12891.0117-.25781.0195-.38281.0195-.15625.004-.30859 0-.46094-.0117-1.2148-.0859-2.3398-.58594-3.1602-1.4297-1.3711-1.4102-1.8047-3.6992-.99219-5.8281-.70312.22657-1.418.3086-2.1055.26172-1.2148-.0859-2.3398-.58593-3.1602-1.4297-1.1484-1.1836-1.6406-2.9805-1.2891-4.7852-.50391.10156-1.0039.13672-1.4922.10156-1.2148-.0859-2.3398-.58594-3.1602-1.4297-1.1445-1.1758-1.6328-2.9609-1.2969-4.7539-.03516.008-.06641.0156-.10156.0234-.11719.0234-.23438.0352-.35156.0352-.10547.004-.20703-.008-.30469-.0234zm88.598 38.242c0-.67578-.53125-1.2227-1.1875-1.2227s-1.1875.54688-1.1875 1.2227.53125 1.2226 1.1875 1.2226 1.1875-.54687 1.1875-1.2226zm3.5664-7.9453c0-.67578-.53125-1.2226-1.1875-1.2226s-1.1914.54687-1.1914 1.2226c0 .67579.53515 1.2227 1.1914 1.2227s1.1875-.54687 1.1875-1.2227zm5.3477-8.5586c0-.67578-.53125-1.2227-1.1875-1.2227s-1.1914.54688-1.1914 1.2227.53516 1.2227 1.1914 1.2227 1.1875-.54688 1.1875-1.2227z" fill="#4242ff"/>
  <path d="m174.3 164.47c.48047-.008.48047.73828 0 .73437h-7.1328c-.48047.004-.48047-.74218 0-.73437zm1.1875 3.0547c.48047-.008.48047.74218 0 .73437h-10.102c-.48047.008-.48047-.74219 0-.73437zm2.3789 3.3008v1.4688h-14.023l-.27734-1.4688zm0 3.0586v1.4648h-13.336l-.30859-1.4648zm0 3.0547v1.4688h-12.402l-.44922-1.4688zm0 3.0547v1.4688h-11.508l-.41406-1.4688zm-2.0898 4.5234h-8.1406l-.58594-1.4648h10.383zm-3.5508 3.0586h-3.3125l-.58594-1.4688h5.5195zm-87.762-137.04c2.4453-.05469 4.8945-.08984 7.3516-.10156 17.184-.078126 34.633 1.0391 52.457 4.4648l3.0781.54297-3.9531 4.2617c-19.945-3.832-39.48-4.7266-58.828-4.2773l-4.2031-4.6953zm-5.7734 57.961c11.52 9.875 27.992 12.531 44.816 8.4023l-5.1953 5.9844c-14.699 2.2031-29.031-.48438-40.047-8.5586zm13.969 44.145 44.273-51.297 4.3281.49219-46.102 53.418zm38.125-33.156 16.832 17.582 1.1953-4.2617-15.527-16.219zm-45.348 25.504c.52344-.55468 1.2539-1.3281 2.0859-2.25l-6.0898-6.7617c-.77734.875-1.5703 1.7539-2.3047 2.5547m87.684 55.102c-11.277-22.867-13.902-49.578 4.6367-77.41.59375 1.9102 1.1328 3.9688 1.9297 5.2891-15.336 24.734-13.133 47.812-3.457 68.285z"/>
  <path d="m50.699 150.53c-.48047.008-.48047-.73828 0-.73438h7.1328c.48047-.004.48047.74219 0 .73438zm-1.1875-3.0547c-.48047.008-.48047-.74219 0-.73437h10.102c.48047-.008.48047.74218 0 .73437zm-2.3789-3.3008v-1.4688h14.023l.27734 1.4688zm0-3.0586v-1.4648h13.336l.30859 1.4648zm0-3.0547v-1.4688h12.402l.44922 1.4688zm0-3.0547v-1.4688h11.508l.41406 1.4688zm2.0898-4.5234h8.1406l.58594 1.4648h-10.383zm3.5508-3.0586h3.3125l.58594 1.4688h-5.5195zm87.762 137.04c-2.4453.0547-4.8945.0898-7.3516.10156-17.184.07813-34.633-1.0391-52.457-4.4648l-3.0781-.54297 3.9531-4.2617c19.945 3.832 39.48 4.7266 58.828 4.2773l4.2031 4.6953zm5.7734-57.961c-11.52-9.875-27.992-12.531-44.816-8.4023l5.1953-5.9844c14.699-2.2031 29.031.48438 40.047 8.5586zm-13.969-44.145-44.273 51.297-4.3281-.49219 46.102-53.418zm-38.125 33.156-16.832-17.582-1.1953 4.2617 15.527 16.219zm45.348-25.504c-.52344.55469-1.2539 1.3281-2.0859 2.25l6.0898 6.7617c.77734-.875 1.5703-1.7539 2.3047-2.5547m-87.684-55.102c11.277 22.867 13.902 49.578-4.6367 77.41-.59375-1.9102-1.1328-3.9688-1.9297-5.2891 15.336-24.734 13.133-47.812 3.457-68.285z"/>
 </g>
 <g fill="none" stroke="#4242ff" stroke-linecap="round" stroke-linejoin="round">
  <path d="m177.87 122.04v110.03l11.883 12.223m-11.883-126.15v1.7031m0-5.7461v2.1172m0-6.4258v1.8125m0-27.777v24.113m11.883-72.695-11.883 12.227v24.035m-.0195 111.33c-12.836 9.6992-20.41 23.316-23.707 38.621m10.973-119.55c-28.293 36.871-23.34 75.844-6.3437 105.18m-11.586-29.219-35.125-36.691m34.281-39.719-48.68 56.402m14.84-16.223v16.473m1.7812-14.609v28.77m1.7852-26.91v24.844m1.7812-22.98v20.914m1.7812-19.051v16.984m1.7852-15.121v13.059m1.7812-11.195v9.1289m1.7852-7.2695v5.2031m1.7812-3.3398v1.2734m14.5-55.977-46.102 53.418m41.773-53.91-44.273 51.297m53.258 18.402-31.355-32.762m33.055-1.2148-16.832-17.582m18.027 13.32-15.527-16.219m39.297-9.5664-13.98-9.5898m-80.578-5.8867-30.863 8.6094m37.762-.77344c4.9141 4.2305 10.555 6.8281 16.762 7.7852 9.1758 1.418 19.637-.78516 30.746-6.8984m3.4805.80469c-12.305 7.3125-24.117 10.129-34.578 8.5117-10.289-1.5859-19.207-7.4922-25.816-17.336m13.168 7.0469c4.0234 2.9063 8.4922 4.7031 13.352 5.4531 8.1211 1.2539 17.5-.51562 27.633-5.7617m-6.1602 17.914c-16.824 4.1289-33.297 1.4726-44.816-8.4024m.42578-7.957-2.0391 33.574m-.32422-36.234c-.61328 10.121-1.2383 20.402-1.7656 29.066m43.324-4.0625c-14.699 2.2031-29.031-.48437-40.047-8.5586m21.145 8.5742c-.92969 3.0234-2.8008 8.5898-4.7383 11.379-2.3359 3.3633-7.2461 8.6211-9.2344 10.711m10.797-22.66c-.98047 3.1211-2.7305 8.1289-4.5312 10.727-1.4844 2.1328-3.9961 5.0234-6.1484 7.3906m7.5664-18.887c-1.0039 3.1328-2.6719 7.7969-4.3906 10.273-1.2891 1.8555-3.3594 4.2852-5.293 6.4453m6.6445-17.727c-1.0117 3.1289-2.6445 7.6406-4.3242 10.059-1.5937 2.2969-4.3828 5.4727-6.6289 7.9219m92.32-22.309c-18.539 27.832-15.914 54.543-4.6367 77.41m-119.67-70.91c6.3242-5.8711 10.867-12.953 13.887-20.949.74609-1.9766 1.3984-4.0039 1.9609-6.0859m-15.719 31.746c10.238-8.5547 16.547-19.883 19.668-32.766m-13.223 3.6641c-.41797 3.3008-3.6133 9.4766-6.5312 12.977m133.05-46.715 9.5078-9.7813m0-4.8867-9.5078 9.7773m0 9.7813 9.5078-9.7813m-9.5078 43.398 9.5078-9.7773m0-4.8906-9.5078 9.7773m0 43.402 9.5078-9.7812m0-4.8906-9.5078 9.7813m0 9.7773 9.5078-9.7773m-9.5078 43.398 9.5078-9.7813m0-4.8906-9.5078 9.7813m0 9.7812 9.5078-9.7812m-9.5078 43.398 9.5078-9.7812m0-4.8906-9.5078 9.7812m0 9.7812 9.5078-9.7812m-9.5078-90.977v105.65l9.5078 9.7773m-9.5078-153.52v22.336m9.5078-65.637-9.5078 9.7773v20.902m-60.926 71.125 11.883-13.445c2.375-3.668-1.1875-7.3359-4.7539-4.8906l-11.883 13.445m11.187 11.688 11.707-13.246c2.3789-3.668-1.1875-7.3359-4.7539-4.8906l-11.668 13.203m10.613 11.098 11.75-13.301c2.3789-3.6641-1.1875-7.332-4.7539-4.8867l-11.719 13.258m19.32-7.8711c-.53906.10547-1.0976.33984-1.6562.72266l-11.754 13.301m4.7109 4.9375 7.4766-8.4609m-.0625 2.6367-6.2226 7.043m4.7422 4.9062 1.8516-2.0977m-17.023-44.051c.12891-.0117.25782-.0195.38282-.0195.15624-.004.30859 0 .46093.0117 1.2148.0859 2.3398.58594 3.1602 1.4297 1.3711 1.4102 1.8047 3.6992.99219 5.8281.70312-.22657 1.418-.3086 2.1055-.26172 1.2148.0859 2.3398.58593 3.1602 1.4297 1.1484 1.1836 1.6406 2.9805 1.2891 4.7852.50391-.10156 1.0039-.13672 1.4922-.10156 1.2148.0859 2.3398.58594 3.1602 1.4297 1.1445 1.1758 1.6328 2.9609 1.2969 4.7539.0352-.008.0664-.0156.10156-.0234.11719-.0234.23438-.0352.35156-.0352.10547-.004.20704.008.30469.0234m-65.144-5.5195 6.0976 6.7188m1.3398-18.664c-3.6172-1.7383-7.2266-3.6602-10.816-5.8047m9.4726 9.0742c-3.2461-1.5508-6.4883-3.2422-9.7148-5.1133m8.0703 8.2344c-2.7773-1.3203-5.5469-2.7461-8.3086-4.2969m6.125 7.1641c-2.125-1.0195-4.2461-2.1016-6.3633-3.2539m3.9883 6.0234c-1.4102-.68359-2.8164-1.3945-4.2227-2.1367m3.3281 5.8984c-.74609-.35156-1.4922-.70703-2.2344-1.0742m10.777-14.996-4.9844-4.168 5.9844 1.3008m-2.3828 6.2617-5.3828-4.5039 6.2617 1.3594m-2.5273 6.3125-5.5195-4.6172 6.2617 1.3594m-2.8437 6.0469-5.1992-4.3516 6.2617 1.3594m-7.6797 1.7773 5.8984 1.2812m-1.543 2.5859-4.3672-3.6484m.29297 3.4141 3.2383.70312m-.54297 3.4258-2.168-1.8164m17.039-3.4766 7.3398-.71485-5.9414-2.4453m-3.7734 6.2148 7.3359-.71093-5.4648-2.25m-4.25 6.0156 7.3398-.71094-5.5039-2.2617m-4.2109 6.0312 7.3359-.71484-5.7109-2.3477m-2.6641 6.0469 6.5937-.64063-5.9414-2.4453m10.473-16.363c5.4297.78906 10.402 1.3867 15.238 1.625m-15.223-1.6641 7.3398-.71094-5.9453-2.4453m-2.9062 6.9297c4.4648.71485 9.0351 1.2383 13.754 1.5m-13.691-1.6406 7.0039-.67969-5.7812-2.3789m-3.1953 6.7461c4.0664.67578 8.2187 1.1914 12.492 1.4961.0117 0 .0273 0 .0391.004m-14.91 1.5586c4 .66406 8.0898 1.1719 12.289 1.4805m-14.895 1.5391c4 .66797 8.082 1.1836 12.273 1.4961m-14.949 1.5078c4.0156.67968 8.1172 1.207 12.328 1.5312m-12.23 1.832c3.1562.49218 6.3711.88672 9.6523 1.1602m-5.8945 2.7148c1.0859.12109 2.1758.22656 3.2734.32031m-4.8281-1.8789 1.8594-.17968-3.2852-1.3516m85.555-26.082c-15.336 24.734-13.133 47.812-3.457 68.285m2.6367-82.777c-25.129 32.258-22.273 64.41-8.6523 90.645m-2.7617 4.5195c-15.16-27.895-18.934-63.281 7.7226-97.703m3.6758 2.5508c-25.113 32.246-22.258 64.398-8.6836 90.676m4.9726-93.238c-26.621 34.434-22.848 69.82-7.7031 97.656m16.738-80.074s-1.1055 1.832-2.8945 1.2344c-1.8203-.60937-3.8203-6.7266-3.6445-9.793.17578-3.0508 1.7852-7.9453 1.7852-8.5547 0-.61328-.23047-1.7969-.23047-4.2422 0-3.668 3.793-5.5391 4.0508-.30859.0742 1.5156-.25781 2.1055-.85156 3.9375.082.55859 1.1875 1.8359 1.1875 2.4453 0 2.4453-.98438 2.7891-.98438 2.7891m13.465-.6485c0-1.1836-2.793-2.1406-6.2383-2.1406-3.4453 0-6.2422.95703-6.2422 2.1406 0 1.1797 2.7969 2.1406 6.2422 2.1406 3.4453 0 6.2383-.96094 6.2383-2.1406m0 3.9727c0-.88672-1.6523-1.6484-4.0078-1.9727m-4.7656-.0391c-2.5078.30078-4.3008 1.0859-4.3008 2.0117 0 1.1797 2.9258 2.1406 6.539 2.1406 3.6094 0 6.5352-.96094 6.5352-2.1406m0 4.2773c0-1.1797-2.793-2.1367-6.2383-2.1367-3.4453 0-6.2422.95703-6.2422 2.1367 0 1.1836 2.7969 2.1406 6.2422 2.1406 3.4453 0 6.2383-.95703 6.2383-2.1406m-9.6484 1.8125c-1.6914.3711-2.832 1.0625-2.832 1.8555 0 1.1836 2.5273 2.1406 5.6484 2.1406 3.1172 0 5.6445-.95703 5.6445-2.1406 0-.71875-.93359-1.3516-2.3633-1.7383m-4.9297-12.152 8.4805-8.7266m-.004-25.078c-11.59-.39453-22.227-3.8242-31.492-11.594 2.668 11.484 9.3242 21.457 31.473 25.559m.0195-11.52c-9.5664-.31641-18.641-2.668-26.844-7.7148 1.2891 2.7305 3.0273 5.2539 5.5 7.5234 4.2891 3.9453 10.879 7.2383 21.312 9.2227m-47.953-25.195c8.0234 17.363 6.7031 28.504 9.957 32.688 2.3789 3.0547 6.5352 3.668 6.5352 0 0-4.2812-4.1445-1.7891-4.1562-1.2227m-14.281-31.82c8.2266 17.551 7.0742 28.652 10.121 33.043 2.9688 4.2773 8.3164 3.668 8.3164 0m-20.371-33.363c8.3984 17.734 7.293 28.883 10.27 33.363 7.7266 11.613 13.074 4.2773 13.074 0 0-9.1719-10.695-6.1133-10.102-1.2227m-15.172-32.457c8.5976 17.891 8.0469 28.797 10.418 33.68 2.3789 4.8867 9.2226 8.0195 11.238 5.957m-23.57-39.906c8.7344 18.051 8.1641 29.043 10.551 33.949 2.375 4.8867 7.664 8.3281 10.102 6.7227m-22.566-40.941c8.8789 18.203 8.4375 29.055 10.316 34.219 1.7852 4.8867 7.6055 9.8477 10.465 7.332m-22.695-41.824c8.9961 18.375 8.0976 29.555 10.086 34.703 2.5078 6.5117 6.4844 10.504 9.7734 8.0703m-21.773-43.039c9.1406 18.535 8.3203 29.824 9.957 35.129 1.582 5.1289 5.7344 10.691 9.207 8.5078m-21.051-43.844c9.25 18.656 8.2969 29.992 9.4883 35.445.96484 4.4062 4.582 11.258 8.8554 8.7383m-20.23-44.395c9.3476 18.789 7.3555 30.762 9.0742 36.082 1.4844 4.5938 4.6719 9.9023 8.1172 8.7148m-19.078-45.008c9.4687 18.91 7.1797 30.477 8.0859 36.027.79297 4.8594 4.2891 9.3477 8.1055 8.5117m-18.008-44.605c9.5078 18.949 6.2383 30.66 7.4961 36.148.82031 3.582 3.3359 8.3516 6.8398 8.0234m-16.121-44.172c9.5078 18.949 4.7812 31.613 6.8242 36.84 1.7773 4.5508 4.0937 6.1602 6.164 6.3555m-46.016-44.375c-.66016 2.4297-2.0312 7.5859-2.0312 8.5156 0 1.2227 1.1875 4.8867 1.1875 6.7227 0 1.832 1.1914 8.5586 2.3789 11.613 1.1875 3.0547 5.3476 11.004 5.9414 12.227.59375 1.2227 1.1641 4.8359 2.9492 5.4453 1.7812.61329 5.9648 2.5 7.7461 1.2773 1.7852-1.2227 2.3789-1.8359 3.5664-1.8359s3.5664.61328 5.3476 0c1.7812-.60938 10.102-1.832 10.695-3.6641.52343-1.6172 1.1914-2.4453 1.4726-4.625m-6.8203-25.328c-4.5547-2-7.8633-6.5117-16.043-1.2227l.59375.61328c4.293-4.3164 9.8008-2.2305 15.449.60938m-33.871-1.2227c4.1602-1.832 5.3476-3.668 11.293.61328-3.5664-1.8359-7.9297-3.1289-11.293-.61328m11.293.61328c.66406.33984.85937 2.582.59375 3.6641-.29297 1.1875-1.7852 6.1133-1.7852 7.3359 0 1.2227-1.0625 6.3789-1.0625 6.9922 0 1.2227 2.2539 2.1758 4.0352 2.1758m4.1601-4.8867c2.4726.20703 4.5 4.7773-1.1094 3.832-3.5664-.59766-1.2695-1.3906 2.2969-.16797m4.1602 4.8906v1.8359l-1.1875-1.2227 1.1875-.61328m-13.074-.60938.59375 1.2227 1.1914-.61328-1.7852-.60938m12.48 1.2227c-1.7852 0-3.5664-1.2227-4.1602-1.2227s-1.7812 1.2227-2.3789 1.2227c-.59375 0-1.7813-1.2227-2.375-1.2227-.59375 0-1.1875.60938-1.7812.60938m6.5351 3.668c-1.1914 1.3242-4.7539 1.8359-4.7539-1.2227m21.391-21.395c-4.1602.61328-9.5078-3.668-14.262-3.668m9.5078 3.0586c.59375 1.832-6.5352 3.0547-8.3164 1.832-1.7852-1.2227-2.3789-.60938-2.3789-.60938m-7.8359-.57812c-2.375 0-6.2187-2.7891-8.3164-3.0586-2.1016-.26953-2.3789 1.2227-2.3789 1.2227m10.809 1.8008c-2.3789 1.2227-3.9336 2.4453-6.2734 2.4453-2.3437 0-4.4258-1.832-4.4258-1.832m-.32422-15.133c-4.0469 6.7578-1.9648 14.57-2.0508 21.855-.10547 1.9922-1.7852 1.2227-2.3789.61328m5.2461-3.3125c1.5664 9.6367-7.6211 8.4492-7.6211 3.3125 0-4.8906 4.7539-3.0586 4.7539-.61328m.59375 4.2773c0 5.5039-2.3789 8.5586-4.1602 5.5039m7.9336-5.7852c.01172 10.781-11.27 13.059-10.309 5.1719.59375-4.8906 5.9414-2.4453 5.8633-.40625m6.0547-.88672c-.47266 6.082-5.1953 8.9102-8.9492 7.4062-2.2187-.88672-2.543-2.1953-2.5117-2.9883m13.043-1.2617c-.96875 5.2227-7.8945 8.4297-11.125 4.25m12.246-2.082c-1.0977 4.9766-5.3047 7.1836-8.7148 5.8203-1.1133-.46094-2.1367-1.3945-2.3164-2.6445m12.039-1.2461c-1.3242 4.4766-5.293 6.4102-8.5351 5.1133-1.1953-.48047-1.8437-1.082-2.1797-1.6602m11.789-1.2656c-.73047 4.543-9.5117 6.9609-10.816 2.3125m-2.3398-46.43 4.0703-.09375c2.4453-.05469 4.8945-.08984 7.3516-.10156 17.184-.07813 34.633 1.0391 52.457 4.4648l3.043.58203m18.723-20.227-22.641 24.449c-19.945-3.832-39.48-4.7266-58.828-4.2773l-18.551-20.172m67.598 69.895c-11.426 6.0703-22.539 8.4102-32.641 6.8516-10.941-1.6875-20.492-8.0508-27.418-18.363l-.42969-.64453" stroke-width=".72322"/>
  <path d="m47.133 192.96v-110.03l-11.883-12.223m11.883 126.15v-1.7031m0 5.7461v-2.1172m0 6.4258v-1.8125m0 27.777v-24.113m-11.883 72.695 11.883-12.227v-24.035m.01953-111.33c12.836-9.6992 20.41-23.316 23.707-38.621m-10.973 119.55c28.293-36.871 23.34-75.844 6.3437-105.18m11.586 29.219 35.125 36.691m-34.281 39.719 48.68-56.402m-14.84 16.223v-16.473m-1.7812 14.609v-28.77m-1.7852 26.91v-24.844m-1.7812 22.98v-20.914m-1.7812 19.051v-16.984m-1.7852 15.121v-13.059m-1.7812 11.195v-9.1289m-1.7852 7.2695v-5.2031m-1.7813 3.3398v-1.2734m-14.5 55.977 46.102-53.418m-41.773 53.91 44.273-51.297m-53.258-18.402 31.355 32.762m-33.055 1.2148 16.832 17.582m-18.027-13.32 15.527 16.219m-39.297 9.5664 13.98 9.5898m80.578 5.8867 30.863-8.6094m-37.762.77343c-4.9141-4.2305-10.555-6.8281-16.762-7.7852-9.1758-1.418-19.637.78515-30.746 6.8984m-3.4805-.80468c12.305-7.3125 24.117-10.129 34.578-8.5117 10.289 1.5859 19.207 7.4922 25.816 17.336m-13.168-7.0469c-4.0234-2.9062-8.4922-4.7031-13.352-5.4531-8.1211-1.2539-17.5.51562-27.633 5.7617m6.1601-17.914c16.824-4.1289 33.297-1.4727 44.816 8.4023m-.42578 7.957 2.0391-33.574m.32422 36.234c.61328-10.121 1.2383-20.402 1.7656-29.066m-43.324 4.0625c14.699-2.2031 29.031.48438 40.047 8.5586m-21.144-8.5742c.92968-3.0234 2.8008-8.5898 4.7383-11.379 2.3359-3.3633 7.2461-8.6211 9.2344-10.711m-10.797 22.66c.98047-3.1211 2.7305-8.1289 4.5312-10.727 1.4844-2.1328 3.9961-5.0234 6.1484-7.3906m-7.5664 18.887c1.0039-3.1328 2.6719-7.7969 4.3906-10.273 1.2891-1.8555 3.3594-4.2852 5.293-6.4453m-6.6445 17.727c1.0117-3.1289 2.6445-7.6406 4.3242-10.059 1.5938-2.2969 4.3828-5.4726 6.6289-7.9219m-92.32 22.309c18.539-27.832 15.914-54.543 4.6367-77.41m119.67 70.91c-6.3242 5.8711-10.867 12.953-13.887 20.949-.74609 1.9766-1.3984 4.0039-1.9609 6.0859m15.719-31.746c-10.238 8.5547-16.547 19.883-19.668 32.766m13.223-3.6641c.41797-3.3008 3.6133-9.4766 6.5312-12.977m-133.05 46.715-9.5078 9.7812m0 4.8867 9.5078-9.7773m0-9.7812-9.5078 9.7812m9.5078-43.398-9.5078 9.7773m0 4.8906 9.5078-9.7774m0-43.402-9.5078 9.7812m0 4.8906 9.5078-9.7812m0-9.7773-9.5078 9.7773m9.5078-43.398-9.5078 9.7813m0 4.8906 9.5078-9.7813m0-9.7812-9.5078 9.7812m9.5078-43.398-9.5078 9.7812m0 4.8906 9.5078-9.7812m0-9.7812-9.5078 9.7812m9.5078 90.977v-105.65l-9.5078-9.7773m9.5078 153.52v-22.336m-9.5078 65.637 9.5078-9.7773v-20.902m60.926-71.125-11.883 13.445c-2.375 3.668 1.1875 7.3359 4.7539 4.8906l11.883-13.445m-11.187-11.688-11.707 13.246c-2.3789 3.668 1.1875 7.3359 4.7539 4.8906l11.668-13.203m-10.613-11.098-11.75 13.301c-2.3789 3.6641 1.1875 7.332 4.7539 4.8867l11.719-13.258m-19.32 7.8711c.53906-.10547 1.0977-.33985 1.6562-.72266l11.754-13.301m-4.7109-4.9375-7.4766 8.4609m.0625-2.6367 6.2226-7.043m-4.7422-4.9062-1.8516 2.0977m17.023 44.051c-.12891.0117-.25781.0195-.38281.0195-.15625.004-.30859 0-.46094-.0117-1.2148-.0859-2.3398-.58593-3.1602-1.4297-1.3711-1.4102-1.8047-3.6992-.99219-5.8281-.70312.22656-1.418.3086-2.1055.26172-1.2148-.0859-2.3398-.58594-3.1602-1.4297-1.1484-1.1836-1.6406-2.9805-1.2891-4.7852-.50391.10156-1.0039.13672-1.4922.10156-1.2148-.0859-2.3398-.58594-3.1602-1.4297-1.1445-1.1758-1.6328-2.9609-1.2969-4.7539-.03516.008-.06641.0156-.10156.0234-.11719.0234-.23438.0352-.35156.0352-.10547.004-.20703-.008-.30469-.0234m65.144 5.5195-6.0976-6.7188m-1.3398 18.664c3.6172 1.7383 7.2266 3.6602 10.816 5.8047m-9.4726-9.0742c3.2461 1.5508 6.4883 3.2422 9.7148 5.1133m-8.0703-8.2344c2.7773 1.3203 5.5469 2.7461 8.3086 4.2969m-6.125-7.1641c2.125 1.0195 4.2461 2.1016 6.3633 3.2539m-3.9883-6.0234c1.4102.68359 2.8164 1.3945 4.2226 2.1367m-3.3281-5.8984c.74609.35156 1.4922.70703 2.2344 1.0742m-10.777 14.996 4.9844 4.168-5.9844-1.3008m2.3828-6.2617 5.3828 4.5039-6.2617-1.3594m2.5273-6.3125 5.5195 4.6172-6.2617-1.3594m2.8438-6.0469 5.1992 4.3516-6.2617-1.3594m7.6797-1.7774-5.8984-1.2812m1.543-2.5859 4.3672 3.6484m-.29296-3.4141-3.2383-.70313m.54297-3.4258 2.168 1.8164m-17.039 3.4766-7.3398.71485 5.9414 2.4453m3.7734-6.2148-7.3359.71094 5.4648 2.25m4.25-6.0156-7.3398.71093 5.5039 2.2617m4.2109-6.0312-7.3359.71485 5.7109 2.3476m2.6641-6.0469-6.5937.64062 5.9414 2.4453m-10.473 16.363c-5.4297-.78907-10.402-1.3867-15.238-1.625m15.223 1.6641-7.3398.71094 5.9453 2.4453m2.9062-6.9297c-4.4648-.71484-9.0352-1.2383-13.754-1.5m13.691 1.6406-7.0039.67968 5.7812 2.3789m3.1953-6.7461c-4.0664-.67579-8.2187-1.1914-12.492-1.4961-.0117 0-.0273 0-.0391-.004m14.91-1.5586c-4-.66406-8.0898-1.1719-12.289-1.4805m14.895-1.5391c-4-.66797-8.082-1.1836-12.273-1.4961m14.949-1.5078c-4.0156-.67969-8.1172-1.207-12.328-1.5312m12.23-1.832c-3.1562-.49219-6.3711-.88672-9.6523-1.1602m5.8945-2.7148c-1.0859-.12103-2.1757-.2265-3.2734-.32025m4.8281 1.8789-1.8594.17969 3.2852 1.3516m-85.555 26.082c15.336-24.734 13.133-47.813 3.457-68.285m-2.6367 82.777c25.129-32.258 22.273-64.41 8.6523-90.645m2.7617-4.5195c15.16 27.895 18.934 63.281-7.7226 97.703m-3.6758-2.5508c25.113-32.246 22.258-64.398 8.6836-90.676m-4.9726 93.238c26.621-34.434 22.848-69.82 7.7031-97.656m-16.738 80.074s1.1055-1.832 2.8945-1.2344c1.8203.60938 3.8203 6.7266 3.6445 9.793-.17578 3.0508-1.7852 7.9453-1.7852 8.5547 0 .61328.23047 1.7969.23047 4.2422 0 3.668-3.793 5.5391-4.0508.30859-.07422-1.5156.25781-2.1055.85156-3.9375-.08203-.55859-1.1875-1.8359-1.1875-2.4453 0-2.4453.98438-2.7891.98438-2.7891m-13.465.64844c0 1.1836 2.793 2.1406 6.2383 2.1406 3.4453 0 6.2422-.95703 6.2422-2.1406 0-1.1797-2.7969-2.1406-6.2422-2.1406-3.4453 0-6.2383.96093-6.2383 2.1406m0-3.9726c0 .88671 1.6523 1.6484 4.0078 1.9726m4.7656.0391c2.5078-.30079 4.3008-1.0859 4.3008-2.0117 0-1.1797-2.9258-2.1406-6.5391-2.1406-3.6094 0-6.5351.96094-6.5351 2.1406m0-4.2774c0 1.1797 2.793 2.1367 6.2383 2.1367 3.4453 0 6.2422-.95703 6.2422-2.1367 0-1.1836-2.7969-2.1406-6.2422-2.1406-3.4453 0-6.2383.95703-6.2383 2.1406m9.6484-1.8125c1.6914-.37109 2.832-1.0625 2.832-1.8555 0-1.1836-2.5273-2.1406-5.6484-2.1406-3.1172 0-5.6445.95703-5.6445 2.1406 0 .71875.93359 1.3516 2.3633 1.7383m4.9297 12.152-8.4805 8.7266m.0039 25.078c11.59.39453 22.227 3.8242 31.492 11.594-2.668-11.484-9.3242-21.457-31.473-25.559m-.01953 11.52c9.5664.31641 18.641 2.668 26.844 7.7148-1.2891-2.7305-3.0273-5.2539-5.5-7.5234-4.2891-3.9453-10.879-7.2383-21.312-9.2227m47.953 25.195c-8.0234-17.363-6.7031-28.504-9.957-32.688-2.3789-3.0547-6.5351-3.668-6.5351 0 0 4.2812 4.1445 1.7891 4.1562 1.2226m14.281 31.82c-8.2266-17.551-7.0742-28.652-10.121-33.043-2.9687-4.2774-8.3164-3.668-8.3164 0m20.371 33.363c-8.3984-17.734-7.293-28.883-10.27-33.363-7.7266-11.613-13.074-4.2774-13.074 0 0 9.1719 10.695 6.1133 10.102 1.2226m15.172 32.457c-8.5976-17.891-8.0469-28.797-10.418-33.68-2.3789-4.8867-9.2226-8.0195-11.238-5.957m23.57 39.906c-8.7344-18.051-8.1641-29.043-10.551-33.949-2.375-4.8867-7.6641-8.3281-10.102-6.7227m22.566 40.941c-8.8789-18.203-8.4375-29.055-10.316-34.219-1.7852-4.8867-7.6055-9.8477-10.465-7.332m22.695 41.824c-8.9961-18.375-8.0976-29.555-10.086-34.703-2.5078-6.5117-6.4844-10.504-9.7734-8.0703m21.773 43.039c-9.1406-18.535-8.3203-29.824-9.957-35.129-1.582-5.1289-5.7344-10.691-9.207-8.5078m21.051 43.844c-9.25-18.656-8.2969-29.992-9.4883-35.445-.96484-4.4062-4.582-11.258-8.8555-8.7383m20.23 44.395c-9.3476-18.789-7.3555-30.762-9.0742-36.082-1.4844-4.5938-4.6719-9.9024-8.1172-8.7148m19.078 45.008c-9.4687-18.91-7.1797-30.477-8.0859-36.027-.79297-4.8594-4.2891-9.3476-8.1055-8.5117m18.008 44.605c-9.5078-18.949-6.2383-30.66-7.4961-36.148-.82031-3.582-3.3359-8.3516-6.8398-8.0234m16.121 44.172c-9.5078-18.949-4.7812-31.613-6.8242-36.84-1.7773-4.5508-4.0937-6.1602-6.1641-6.3555m46.016 44.375c.66016-2.4297 2.0312-7.5859 2.0312-8.5156 0-1.2227-1.1875-4.8867-1.1875-6.7227 0-1.832-1.1914-8.5586-2.3789-11.613-1.1875-3.0547-5.3476-11.004-5.9414-12.227-.59375-1.2226-1.1641-4.8359-2.9492-5.4453-1.7812-.61328-5.9648-2.5-7.7461-1.2773-1.7852 1.2226-2.3789 1.8359-3.5664 1.8359s-3.5664-.61328-5.3476 0c-1.7812.60938-10.102 1.832-10.695 3.6641-.52344 1.6172-1.1914 2.4453-1.4727 4.625m6.8203 25.328c4.5547 2 7.8633 6.5117 16.043 1.2227l-.59375-.61328c-4.293 4.3164-9.8008 2.2305-15.449-.60938m33.871 1.2227c-4.1602 1.832-5.3476 3.668-11.293-.61328 3.5664 1.8359 7.9297 3.1289 11.293.61328m-11.293-.61328c-.66407-.33984-.85938-2.582-.59375-3.6641.29297-1.1875 1.7852-6.1133 1.7852-7.3359 0-1.2227 1.0625-6.3789 1.0625-6.9922 0-1.2226-2.2539-2.1758-4.0352-2.1758m-4.1602 4.8867c-2.4727-.20703-4.5-4.7774 1.1094-3.832 3.5664.59765 1.2695 1.3906-2.2969.16797m-4.1602-4.8906v-1.8359l1.1875 1.2227-1.1875.61328m13.074.60938-.59375-1.2227-1.1914.61328 1.7852.60938m-12.48-1.2227c1.7852 0 3.5664 1.2227 4.1602 1.2227s1.7812-1.2227 2.3789-1.2227c.59375 0 1.7812 1.2227 2.375 1.2227s1.1875-.60938 1.7812-.60938m-6.5352-3.668c1.1914-1.3242 4.7539-1.8359 4.7539 1.2227m-21.391 21.395c4.1602-.61328 9.5078 3.668 14.262 3.668m-9.5078-3.0586c-.59375-1.832 6.5352-3.0547 8.3164-1.832 1.7852 1.2227 2.3789.60938 2.3789.60938m7.8359.57812c2.375 0 6.2187 2.7891 8.3164 3.0586 2.1016.26953 2.3789-1.2227 2.3789-1.2227m-10.809-1.8008c2.3789-1.2227 3.9336-2.4453 6.2734-2.4453 2.3437 0 4.4258 1.832 4.4258 1.832m.32422 15.133c4.0469-6.7578 1.9648-14.57 2.0508-21.855.10547-1.9922 1.7852-1.2226 2.3789-.61328m-5.2461 3.3125c-1.5664-9.6367 7.6211-8.4492 7.6211-3.3125 0 4.8906-4.7539 3.0586-4.7539.61328m-.59375-4.2773c0-5.5039 2.3789-8.5586 4.1602-5.5039m-7.9336 5.7852c-.0117-10.781 11.27-13.059 10.309-5.1719-.59375 4.8906-5.9414 2.4453-5.8633.40625m-6.0547.88672c.47266-6.082 5.1953-8.9102 8.9492-7.4062 2.2188.88672 2.543 2.1953 2.5117 2.9883m-13.043 1.2617c.96875-5.2226 7.8945-8.4297 11.125-4.25m-12.246 2.082c1.0977-4.9766 5.3047-7.1836 8.7148-5.8203 1.1133.46094 2.1367 1.3945 2.3164 2.6445m-12.039 1.2461c1.3242-4.4766 5.293-6.4102 8.5351-5.1133 1.1953.48047 1.8438 1.082 2.1797 1.6602m-11.789 1.2656c.73047-4.543 9.5117-6.9609 10.816-2.3125m2.3398 46.43-4.0703.0937c-2.4453.0547-4.8945.0898-7.3516.10157-17.184.0781-34.633-1.0391-52.457-4.4648l-3.043-.58203m-18.723 20.227 22.641-24.449c19.945 3.832 39.48 4.7266 58.828 4.2773l18.551 20.172m-67.598-69.895c11.426-6.0703 22.539-8.4102 32.641-6.8516 10.941 1.6875 20.492 8.0508 27.418 18.363l.42969.64453" stroke-width=".72322"/>
  <path d="m179.65 107.38c.55859 1.0664.61719 2.0898 0 3.0547m-.44141.83984c.5586 1.0703.61719 2.0938 0 3.0586m0 1.2227c.5586 1.0664.61719 2.0898 0 3.0547m0 .61328c.5586 1.0664.61719 2.0898 0 3.0547m-4.9062-24.68c0 3.0547-1.1875 3.668-1.1875 3.668m10.586 7.0273c.13281.31641.15625.70703 0 1.2227m0 2.8164c.13281.3164.15625.70703 0 1.2226m0 2.9922c.13281.31641.15625.70703 0 1.2227m0 3.0547c.13281.31641.15625.70703 0 1.2227m0-1.6914c.13281.31641.15625.70703 0 1.2227m-80.113-25.203c-2.9688-1.2227-4.7539-1.2227-5.9414-.60938m8.3203-29.344c3.5625-2.4414 7.2422-.88672 10.695 1.8359m-20.203.60938c-2.9141-3.7031-6.0469-4.3945-8.3203-3.0547m19.309 1.0508c-.69141.49219-1.1445 1.3438-1.1445 2.3125 0 1.5195 1.1211 2.75 2.5039 2.75 1.3867 0 2.5078-1.2305 2.5078-2.75 0-.40234-.0781-.78516-.21875-1.1289m-22.734-.80078c-.82812.41797-1.4102 1.3984-1.4102 2.5391 0 1.5195 1.0273 2.75 2.2969 2.75 1.2695 0 2.3008-1.2305 2.3008-2.75 0-.46484-.09766-.90625-.26953-1.2891m-.76562 5.5469c-1.3398.48437-3.1016-.04297-3.2148-.28516m40.894 23.816c-4.7031 2.8789-10.281 5.5352-15.691 5.5234m14.812-6.9336c-4.7656 2.9492-10.473 5.7227-16 5.7109" stroke-width=".36161"/>
 </g>
 <g fill="#f00">
  <path d="m120.42 157.5c-.98828 0-7.9219-8.9102-7.9219-9.9023 0 .99218-6.9336 9.9023-7.9219 9.9023.98828 0 7.9219 8.9102 7.9219 9.9023 0-.99218 6.9336-9.9023 7.9219-9.9023zm0 0" stroke="#4242ff" stroke-linecap="round" stroke-linejoin="round" stroke-width=".71302"/>
  <path d="m85.281 109.22c-.22266-.10938-.80469-2.8711-.69531-3.0938-.10938.22265-2.6406 1.4688-2.8633 1.3594.22266.10938.80078 2.8711.69531 3.0938.10547-.22265 2.6406-1.4688 2.8633-1.3594z"/>
  <path d="m90.328 112.15c-.22656-.0898-1-2.8047-.90625-3.0352-.09375.23047-2.5352 1.6445-2.7656 1.5508.23047.0937 1.0039 2.8086.91016 3.0391.09375-.23047 2.5352-1.6445 2.7617-1.5547z"/>
  <path d="m95.883 113.85c-.24219-.0625-1.3828-2.6406-1.3242-2.8828-.05859.24219-2.2812 1.9844-2.5195 1.9219.23828.0625 1.3828 2.6445 1.3203 2.8828.0625-.23828 2.2812-1.9844 2.5234-1.9219z"/>
  <path d="m101.75 114.92c-.2461-.0234-1.7383-2.4219-1.7109-2.668-.0273.24609-1.9844 2.2812-2.2305 2.2539.24609.0273 1.7383 2.4258 1.7109 2.6719.02734-.24609 1.9844-2.2812 2.2305-2.2578z"/>
  <path d="m107.82 115.32c-.24609 0-1.9805-2.2266-1.9805-2.4766 0 .25-1.7305 2.4766-1.9805 2.4766.25 0 1.9805 2.2266 1.9805 2.4766 0-.25 1.7344-2.4766 1.9805-2.4766z"/>
  <path d="m113.76 114.91c-.25.0234-2.168-2.0469-2.1914-2.293.0234.2461-1.5117 2.6172-1.7578 2.6367.24609-.0195 2.168 2.0469 2.1914 2.2969-.0234-.25 1.5078-2.6172 1.7578-2.6406z"/>
  <path d="m119.56 114c-.24609.043-2.3398-1.8477-2.3828-2.0938.043.24609-1.2774 2.7422-1.5195 2.7852.24218-.043 2.3359 1.8476 2.3789 2.0938-.043-.2461 1.2774-2.7422 1.5234-2.7852z"/>
  <path d="m125.11 112.61c-.23829.0664-2.4883-1.6367-2.5547-1.8789.0664.24219-1.0312 2.8398-1.2734 2.9062.24219-.0664 2.4922 1.6367 2.5547 1.8789-.0625-.24219 1.0352-2.8398 1.2734-2.9062z"/>
 </g>
 <path d="m45.352 207.62c-.55859-1.0664-.61719-2.0898 0-3.0547m.4414-.83985c-.55859-1.0703-.61719-2.0938 0-3.0586m0-1.2227c-.55859-1.0664-.61719-2.0898 0-3.0547m0-.61328c-.55859-1.0664-.61719-2.0898 0-3.0547m4.9062 24.68c0-3.0547 1.1875-3.668 1.1875-3.668m-10.586-7.0274c-.13281-.3164-.15625-.70703 0-1.2226m0-2.8164c-.13281-.31641-.15625-.70703 0-1.2226m0-2.9922c-.13281-.31641-.15625-.70703 0-1.2227m0-3.0547c-.13281-.3164-.15625-.70703 0-1.2226m0 1.6914c-.13281-.3164-.15625-.70703 0-1.2226m80.113 25.203c2.9688 1.2227 4.7539 1.2227 5.9414.60938m-8.3203 29.344c-3.5625 2.4414-7.2422.88672-10.695-1.8359m20.203-.60937c2.9141 3.7031 6.0469 4.3945 8.3203 3.0547m-19.309-1.0508c.69141-.49218 1.1445-1.3438 1.1445-2.3125 0-1.5195-1.1211-2.75-2.5039-2.75-1.3867 0-2.5078 1.2305-2.5078 2.75 0 .40235.0781.78516.21875 1.1289m22.734.80078c.82813-.41797 1.4102-1.3984 1.4102-2.5391 0-1.5195-1.0274-2.75-2.2969-2.75s-2.3008 1.2305-2.3008 2.75c0 .46484.0976.90625.26953 1.2891m.76562-5.5469c1.3398-.48437 3.1016.043 3.2148.28516m-40.894-23.816c4.7031-2.8789 10.281-5.5352 15.691-5.5234m-14.812 6.9336c4.7656-2.9492 10.473-5.7227 16-5.7109" fill="none" stroke="#4242ff" stroke-linecap="round" stroke-linejoin="round" stroke-width=".36161"/>
 <g fill="#f00">
  <path d="m104.58 157.5c.98828 0 7.9219 8.9102 7.9219 9.9023 0-.99218 6.9336-9.9023 7.9219-9.9023-.98828 0-7.9219-8.9102-7.9219-9.9023 0 .99218-6.9336 9.9023-7.9219 9.9023zm0 0" stroke="#4242ff" stroke-linecap="round" stroke-linejoin="round" stroke-width=".71302"/>
  <path d="m139.72 205.78c.22266.10938.80469 2.8711.69531 3.0938.10938-.22265 2.6406-1.4688 2.8633-1.3594-.22265-.10938-.80078-2.8711-.69531-3.0938-.10547.22265-2.6406 1.4688-2.8633 1.3594z"/>
  <path d="m134.67 202.85c.22657.0898 1 2.8047.90625 3.0352.0937-.23047 2.5352-1.6445 2.7656-1.5508-.23047-.0937-1.0039-2.8086-.91016-3.0391-.0937.23047-2.5352 1.6445-2.7617 1.5547z"/>
  <path d="m129.12 201.15c.24218.0625 1.3828 2.6406 1.3242 2.8828.0586-.24219 2.2812-1.9844 2.5195-1.9219-.23828-.0625-1.3828-2.6445-1.3203-2.8828-.0625.23828-2.2812 1.9844-2.5234 1.9219z"/>
  <path d="m123.25 200.08c.2461.0234 1.7383 2.4219 1.7109 2.668.0273-.24609 1.9844-2.2812 2.2305-2.2539-.24609-.0273-1.7383-2.4258-1.7109-2.6719-.0273.24609-1.9844 2.2812-2.2305 2.2578z"/>
  <path d="m117.18 199.68c.2461 0 1.9805 2.2266 1.9805 2.4766 0-.25 1.7305-2.4766 1.9805-2.4766-.25 0-1.9805-2.2266-1.9805-2.4766 0 .25-1.7344 2.4766-1.9805 2.4766z"/>
  <path d="m111.24 200.09c.25-.0234 2.168 2.0469 2.1914 2.293-.0234-.2461 1.5117-2.6172 1.7578-2.6367-.24609.0195-2.168-2.0469-2.1914-2.2969.0234.25-1.5078 2.6172-1.7578 2.6406z"/>
  <path d="m105.44 201c.24609-.043 2.3398 1.8477 2.3828 2.0938-.043-.24609 1.2774-2.7422 1.5195-2.7852-.24218.043-2.3359-1.8476-2.3789-2.0938.043.2461-1.2774 2.7422-1.5234 2.7852z"/>
  <path d="m99.891 202.39c.23828-.0664 2.4883 1.6367 2.5547 1.8789-.0664-.24219 1.0312-2.8398 1.2734-2.9062-.24219.0664-2.4922-1.6367-2.5547-1.8789.0625.24219-1.0352 2.8398-1.2734 2.9062z"/>
 </g>
 <path d="m21.75 12.449h6m-3 0v21.301c0 3.3125-2.6875 6-6 6s-6-2.6875-6-6v-.89844" fill="none" stroke="#f00" stroke-linecap="square" stroke-miterlimit="1.5" stroke-width="2.4"/>
 <path d="m11.887 58.484c1.043 0 8.3633-9.4102 8.3633-10.457 0 1.0469 7.3203 10.457 8.3672 10.457-1.0469 0-8.3672 9.4102-8.3672 10.457 0-1.0469-7.3203-10.457-8.3633-10.457z" fill="#f00"/>
 <path d="m37.125 59.699c2.1758 0 17.398-19.574 17.398-21.75 0 2.1758 15.227 21.75 17.402 21.75-2.1758 0-17.402 19.574-17.402 21.75 0-2.1758-15.223-21.75-17.398-21.75z" fill="#f00"/>
 <path d="m203.25 302.55h-6m3 0v-21.301c0-3.3125 2.6875-6 6-6s6 2.6875 6 6v.89844" fill="none" stroke="#f00" stroke-linecap="square" stroke-miterlimit="1.5" stroke-width="2.4"/>
 <path d="m213.11 256.52c-1.043 0-8.3633 9.4102-8.3633 10.457 0-1.0469-7.3203-10.457-8.3672-10.457 1.0469 0 8.3672-9.4102 8.3672-10.457 0 1.0469 7.3203 10.457 8.3633 10.457z" fill="#f00"/>
 <path d="m187.88 255.3c-2.1758 0-17.398 19.574-17.398 21.75 0-2.1758-15.227-21.75-17.402-21.75 2.1758 0 17.402-19.574 17.402-21.75 0 2.1758 15.223 21.75 17.398 21.75z" fill="#f00"/>
 <path d="m35.25 35.25h154.5v244.5h-154.5z" fill="none" stroke="#4242ff" stroke-width=".9375"/>
</svg>
