<svg width="225px" height="315px" version="1.1" viewBox="0 0 225 315" xmlns="http://www.w3.org/2000/svg">
 <path d="m11.719.46875h201.56c6.2148 0 11.25 5.0352 11.25 11.25v291.56c0 6.2148-5.0352 11.25-11.25 11.25h-201.56c-6.2148 0-11.25-5.0352-11.25-11.25v-291.56c0-6.2148 5.0352-11.25 11.25-11.25z" fill="#fff"/>
 <path d="m25.352 12.449h-10.352l-1.0508 10.352s.30078-2.5508 6.3008-2.5508c3 0 7.6484 3.6016 7.6484 9.6016s-2.25 10.199-8.25 10.199-7.0469-5.25-7.0469-5.25" fill="none" stroke="#f00" stroke-linecap="square" stroke-miterlimit="1.5" stroke-width="2.4"/>
 <g fill="#f00">
  <path d="m20.25 52.211c0-2.0898 2.0938-4.1836 4.1836-4.1836s4.1836 2.0938 4.1836 5.2305c0 5.2266-8.3672 13.594-8.3672 15.684 0-2.0898-8.3633-10.457-8.3633-15.684 0-3.1367 2.0898-5.2305 4.1797-5.2305 2.0938 0 4.1836 2.0938 4.1836 4.1836z"/>
  <path d="m63.281 46.875c0-5.4688 5.4688-10.938 10.938-10.938s10.938 5.4688 10.938 13.672c0 13.672-21.875 35.547-21.875 41.016 0-5.4688-21.875-27.344-21.875-41.016 0-8.2031 5.4688-13.672 10.938-13.672s10.938 5.4688 10.938 10.938z"/>
  <path d="m161.72 46.875c0-5.4688 5.4688-10.938 10.938-10.938s10.938 5.4688 10.938 13.672c0 13.672-21.875 35.547-21.875 41.016 0-5.4688-21.875-27.344-21.875-41.016 0-8.2031 5.4688-13.672 10.938-13.672s10.938 5.4688 10.938 10.938z"/>
  <path d="m112.5 141.09c0-5.4688 5.4688-10.938 10.938-10.938s10.938 5.4688 10.938 13.672c0 13.672-21.875 35.547-21.875 41.016 0-5.4688-21.875-27.344-21.875-41.016 0-8.2031 5.4688-13.672 10.938-13.672s10.938 5.4688 10.938 10.938z"/>
 </g>
 <path d="m199.65 302.55h10.352l1.0508-10.352s-.30078 2.5508-6.3008 2.5508c-3 0-7.6484-3.6016-7.6484-9.6016s2.25-10.199 8.25-10.199 7.0469 5.25 7.0469 5.25" fill="none" stroke="#f00" stroke-linecap="square" stroke-miterlimit="1.5" stroke-width="2.4"/>
 <g fill="#f00">
  <path d="m204.75 262.79c0 2.0898-2.0938 4.1836-4.1836 4.1836-2.0898 0-4.1836-2.0938-4.1836-5.2305 0-5.2266 8.3672-13.594 8.3672-15.684 0 2.0898 8.3633 10.457 8.3633 15.684 0 3.1367-2.0898 5.2305-4.1797 5.2305-2.0938 0-4.1836-2.0938-4.1836-4.1836z"/>
  <path d="m161.72 268.12c0 5.4688-5.4688 10.938-10.938 10.938s-10.938-5.4688-10.938-13.672c0-13.672 21.875-35.547 21.875-41.016 0 5.4688 21.875 27.344 21.875 41.016 0 8.2031-5.4688 13.672-10.938 13.672s-10.938-5.4688-10.938-10.938z"/>
  <path d="m63.281 268.12c0 5.4688-5.4688 10.938-10.938 10.938s-10.938-5.4688-10.938-13.672c0-13.672 21.875-35.547 21.875-41.016 0 5.4688 21.875 27.344 21.875 41.016 0 8.2031-5.4688 13.672-10.938 13.672s-10.938-5.4688-10.938-10.938z"/>
 </g>
</svg>
