<svg width="225px" height="315px" version="1.1" viewBox="0 0 225 315" xmlns="http://www.w3.org/2000/svg">
 <path d="m11.719.46875h201.56c6.2148 0 11.25 5.0352 11.25 11.25v291.56c0 6.2148-5.0352 11.25-11.25 11.25h-201.56c-6.2148 0-11.25-5.0352-11.25-11.25v-291.56c0-6.2148 5.0352-11.25 11.25-11.25z" fill="#fff"/>
 <path d="m20.219 24.75c-3.3906-.01563-6.1289-2.7734-6.1172-6.1641.0078-3.3906 2.7578-6.1367 6.1484-6.1367s6.1406 2.7461 6.1484 6.1367c.01172 3.3906-2.7266 6.1484-6.1172 6.1641h-.0625c-4.2188.01563-7.6289 3.4453-7.6172 7.6641.0078 4.2188 3.4297 7.6367 7.6484 7.6367s7.6406-3.418 7.6484-7.6367c.011719-4.2188-3.3984-7.6484-7.6172-7.6641zm0 0" fill="none" stroke="#f00" stroke-linecap="square" stroke-miterlimit="1.5" stroke-width="2.4"/>
 <g fill="#f00">
  <path d="m20.25 52.211c0-2.0898 2.0938-4.1836 4.1836-4.1836s4.1836 2.0938 4.1836 5.2305c0 5.2266-8.3672 13.594-8.3672 15.684 0-2.0898-8.3633-10.457-8.3633-15.684 0-3.1367 2.0898-5.2305 4.1797-5.2305 2.0938 0 4.1836 2.0938 4.1836 4.1836z"/>
  <path d="m63.281 46.875c0-5.4688 5.4688-10.938 10.938-10.938s10.938 5.4688 10.938 13.672c0 13.672-21.875 35.547-21.875 41.016 0-5.4688-21.875-27.344-21.875-41.016 0-8.2031 5.4688-13.672 10.938-13.672s10.938 5.4688 10.938 10.938z"/>
  <path d="m161.72 46.875c0-5.4688 5.4688-10.938 10.938-10.938s10.938 5.4688 10.938 13.672c0 13.672-21.875 35.547-21.875 41.016 0-5.4688-21.875-27.344-21.875-41.016 0-8.2031 5.4688-13.672 10.938-13.672s10.938 5.4688 10.938 10.938z"/>
  <path d="m112.5 93.984c0-5.4688 5.4688-10.938 10.938-10.938s10.938 5.4688 10.938 13.672c0 13.672-21.875 35.547-21.875 41.016 0-5.4688-21.875-27.344-21.875-41.016 0-8.2031 5.4688-13.672 10.938-13.672s10.938 5.4688 10.938 10.938z"/>
  <path d="m63.281 141.09c0-5.4688 5.4688-10.938 10.938-10.938s10.938 5.4688 10.938 13.672c0 13.672-21.875 35.547-21.875 41.016 0-5.4688-21.875-27.344-21.875-41.016 0-8.2031 5.4688-13.672 10.938-13.672s10.938 5.4688 10.938 10.938z"/>
  <path d="m161.72 141.09c0-5.4688 5.4688-10.938 10.938-10.938s10.938 5.4688 10.938 13.672c0 13.672-21.875 35.547-21.875 41.016 0-5.4688-21.875-27.344-21.875-41.016 0-8.2031 5.4688-13.672 10.938-13.672s10.938 5.4688 10.938 10.938z"/>
 </g>
 <path d="m204.78 290.25c3.3906.0156 6.1289 2.7734 6.1172 6.1641-.008 3.3906-2.7578 6.1367-6.1484 6.1367-3.3906 0-6.1406-2.7461-6.1484-6.1367-.0117-3.3906 2.7266-6.1484 6.1172-6.1641h.0625c4.2188-.0156 7.6289-3.4453 7.6172-7.6641-.008-4.2188-3.4297-7.6367-7.6484-7.6367s-7.6406 3.418-7.6484 7.6367c-.0117 4.2188 3.3984 7.6484 7.6172 7.6641zm0 0" fill="none" stroke="#f00" stroke-linecap="square" stroke-miterlimit="1.5" stroke-width="2.4"/>
 <g fill="#f00">
  <path d="m204.75 262.79c0 2.0898-2.0938 4.1836-4.1836 4.1836-2.0898 0-4.1836-2.0938-4.1836-5.2305 0-5.2266 8.3672-13.594 8.3672-15.684 0 2.0898 8.3633 10.457 8.3633 15.684 0 3.1367-2.0898 5.2305-4.1797 5.2305-2.0938 0-4.1836-2.0938-4.1836-4.1836z"/>
  <path d="m161.72 268.12c0 5.4688-5.4688 10.938-10.938 10.938s-10.938-5.4688-10.938-13.672c0-13.672 21.875-35.547 21.875-41.016 0 5.4688 21.875 27.344 21.875 41.016 0 8.2031-5.4688 13.672-10.938 13.672s-10.938-5.4688-10.938-10.938z"/>
  <path d="m63.281 268.12c0 5.4688-5.4688 10.938-10.938 10.938s-10.938-5.4688-10.938-13.672c0-13.672 21.875-35.547 21.875-41.016 0 5.4688 21.875 27.344 21.875 41.016 0 8.2031-5.4688 13.672-10.938 13.672s-10.938-5.4688-10.938-10.938z"/>
  <path d="m112.5 221.02c0 5.4688-5.4688 10.938-10.938 10.938s-10.938-5.4688-10.938-13.672c0-13.672 21.875-35.547 21.875-41.016 0 5.4688 21.875 27.344 21.875 41.016 0 8.2031-5.4688 13.672-10.938 13.672s-10.938-5.4688-10.938-10.938z"/>
 </g>
</svg>
