<svg width="232.99" height="322.99" version="1.1" viewBox="0 0 232.99 322.99" xmlns="http://www.w3.org/2000/svg">
 <g fill-opacity=".25">
  <path d="m15.717 0c-8.6278 0-15.717 7.089-15.717 15.717v291.56c0 8.6278 7.089 15.717 15.717 15.717h201.56c8.6278 0 15.717-7.089 15.717-15.717v-291.56c0-8.6278-7.089-15.717-15.717-15.717z" stroke="none"/>
  <path d="m15.717 4.4668c-6.2148 0-11.25 5.0352-11.25 11.25v291.56c0 6.2148 5.0352 11.25 11.25 11.25h201.56c6.2148 0 11.25-5.0352 11.25-11.25v-291.56c0-6.2148-5.0352-11.25-11.25-11.25z" stroke="none" />
  <path d="m15.717 8.5488c-4.0104 0-7.168 3.1576-7.168 7.168v291.56c0 4.0104 3.1576 7.168 7.168 7.168h201.56c4.0104 0 7.168-3.1576 7.168-7.168v-291.56c0-4.0104-3.1576-7.168-7.168-7.168z" stroke="none" />
 </g>
</svg>
